{
  "header": {
    "keySignatures": [],
    "meta": [],
    "name": "",
    "ppq": 384,
    "tempos": [
      {
        "bpm": 240,
        "ticks": 0
      }
    ],
    "timeSignatures": [
      {
        "ticks": 0,
        "timeSignature": [
          1,
          4
        ],
        "measures": 0
      }
    ]
  },
  "tracks": [
    {
      "channel": 0,
      "controlChanges": {},
      "pitchBends": [],
      "instrument": {
        "family": "guitar",
        "number": 24,
        "name": "acoustic guitar (nylon)"
      },
      "name": "Acoustic Guitar",
      "notes": [
        {
          "duration": 0.0625,
          "durationTicks": 96,
          "midi": 74,
          "name": "D5",
          "ticks": 2688,
          "time": 1.75,
          "velocity": 0.3937007874015748
        },
        {
          "duration": 0.0625,
          "durationTicks": 96,
          "midi": 76,
          "name": "E5",
          "ticks": 2880,
          "time": 1.875,
          "velocity": 0.3937007874015748
        },
        {
          "duration": 0.0625,
          "durationTicks": 96,
          "midi": 79,
          "name": "G5",
          "ticks": 3072,
          "time": 2,
          "velocity": 0.3937007874015748
        },
        {
          "duration": 0.0625,
          "durationTicks": 96,
          "midi": 78,
          "name": "F#5",
          "ticks": 3648,
          "time": 2.375,
          "velocity": 0.3937007874015748
        },
        {
          "duration": 0.0625,
          "durationTicks": 96,
          "midi": 76,
          "name": "E5",
          "ticks": 4224,
          "time": 2.75,
          "velocity": 0.3937007874015748
        },
        {
          "duration": 0.0625,
          "durationTicks": 96,
          "midi": 79,
          "name": "G5",
          "ticks": 4224,
          "time": 2.75,
          "velocity": 0.3937007874015748
        },
        {
          "duration": 0.0625,
          "durationTicks": 96,
          "midi": 78,
          "name": "F#5",
          "ticks": 4608,
          "time": 3,
          "velocity": 0.3937007874015748
        },
        {
          "duration": 0.0625,
          "durationTicks": 96,
          "midi": 74,
          "name": "D5",
          "ticks": 4608,
          "time": 3,
          "velocity": 0.3937007874015748
        },
        {
          "duration": 0.0625,
          "durationTicks": 96,
          "midi": 71,
          "name": "B4",
          "ticks": 5376,
          "time": 3.5,
          "velocity": 0.3937007874015748
        },
        {
          "duration": 1,
          "durationTicks": 1536,
          "midi": 62,
          "name": "D4",
          "ticks": 12288,
          "time": 8,
          "velocity": 0.1968503937007874
        },
        {
          "duration": 1,
          "durationTicks": 1536,
          "midi": 74,
          "name": "D5",
          "ticks": 12288,
          "time": 8,
          "velocity": 0.3937007874015748
        },
        {
          "duration": 1,
          "durationTicks": 1536,
          "midi": 76,
          "name": "E5",
          "ticks": 13824,
          "time": 9,
          "velocity": 0.3937007874015748
        },
        {
          "duration": 1,
          "durationTicks": 1536,
          "midi": 64,
          "name": "E4",
          "ticks": 13824,
          "time": 9,
          "velocity": 0.1968503937007874
        },
        {
          "duration": 0.375,
          "durationTicks": 576,
          "midi": 78,
          "name": "F#5",
          "ticks": 15360,
          "time": 10,
          "velocity": 0.3937007874015748
        },
        {
          "duration": 0.375,
          "durationTicks": 576,
          "midi": 66,
          "name": "F#4",
          "ticks": 15360,
          "time": 10,
          "velocity": 0.1968503937007874
        },
        {
          "duration": 0.375,
          "durationTicks": 576,
          "midi": 83,
          "name": "B5",
          "ticks": 15936,
          "time": 10.375,
          "velocity": 0.3937007874015748
        },
        {
          "duration": 0.375,
          "durationTicks": 576,
          "midi": 71,
          "name": "B4",
          "ticks": 15936,
          "time": 10.375,
          "velocity": 0.1968503937007874
        },
        {
          "duration": 0.25,
          "durationTicks": 384,
          "midi": 82,
          "name": "A#5",
          "ticks": 16512,
          "time": 10.75,
          "velocity": 0.3937007874015748
        },
        {
          "duration": 0.25,
          "durationTicks": 384,
          "midi": 70,
          "name": "A#4",
          "ticks": 16512,
          "time": 10.75,
          "velocity": 0.1968503937007874
        },
        {
          "duration": 0.375,
          "durationTicks": 576,
          "midi": 71,
          "name": "B4",
          "ticks": 16896,
          "time": 11,
          "velocity": 0.1968503937007874
        },
        {
          "duration": 0.375,
          "durationTicks": 576,
          "midi": 83,
          "name": "B5",
          "ticks": 16896,
          "time": 11,
          "velocity": 0.3937007874015748
        },
        {
          "duration": 0.375,
          "durationTicks": 576,
          "midi": 66,
          "name": "F#4",
          "ticks": 17472,
          "time": 11.375,
          "velocity": 0.1968503937007874
        },
        {
          "duration": 0.375,
          "durationTicks": 576,
          "midi": 78,
          "name": "F#5",
          "ticks": 17472,
          "time": 11.375,
          "velocity": 0.3937007874015748
        },
        {
          "duration": 0.25,
          "durationTicks": 384,
          "midi": 62,
          "name": "D4",
          "ticks": 18048,
          "time": 11.75,
          "velocity": 0.1968503937007874
        },
        {
          "duration": 0.25,
          "durationTicks": 384,
          "midi": 74,
          "name": "D5",
          "ticks": 18048,
          "time": 11.75,
          "velocity": 0.3937007874015748
        },
        {
          "duration": 0.375,
          "durationTicks": 576,
          "midi": 59,
          "name": "B3",
          "ticks": 18432,
          "time": 12,
          "velocity": 0.1968503937007874
        },
        {
          "duration": 0.375,
          "durationTicks": 576,
          "midi": 71,
          "name": "B4",
          "ticks": 18432,
          "time": 12,
          "velocity": 0.3937007874015748
        },
        {
          "duration": 0.375,
          "durationTicks": 576,
          "midi": 73,
          "name": "C#5",
          "ticks": 19008,
          "time": 12.375,
          "velocity": 0.3937007874015748
        },
        {
          "duration": 0.375,
          "durationTicks": 576,
          "midi": 61,
          "name": "C#4",
          "ticks": 19008,
          "time": 12.375,
          "velocity": 0.1968503937007874
        },
        {
          "duration": 0.25,
          "durationTicks": 384,
          "midi": 62,
          "name": "D4",
          "ticks": 19584,
          "time": 12.75,
          "velocity": 0.1968503937007874
        },
        {
          "duration": 0.25,
          "durationTicks": 384,
          "midi": 74,
          "name": "D5",
          "ticks": 19584,
          "time": 12.75,
          "velocity": 0.3937007874015748
        },
        {
          "duration": 3,
          "durationTicks": 4608,
          "midi": 61,
          "name": "C#4",
          "ticks": 19968,
          "time": 13,
          "velocity": 0.1968503937007874
        },
        {
          "duration": 3,
          "durationTicks": 4608,
          "midi": 73,
          "name": "C#5",
          "ticks": 19968,
          "time": 13,
          "velocity": 0.3937007874015748
        },
        {
          "duration": 1,
          "durationTicks": 1536,
          "midi": 74,
          "name": "D5",
          "ticks": 24576,
          "time": 16,
          "velocity": 0.3937007874015748
        },
        {
          "duration": 1,
          "durationTicks": 1536,
          "midi": 62,
          "name": "D4",
          "ticks": 24576,
          "time": 16,
          "velocity": 0.1968503937007874
        },
        {
          "duration": 0.75,
          "durationTicks": 1152,
          "midi": 64,
          "name": "E4",
          "ticks": 26112,
          "time": 17,
          "velocity": 0.1968503937007874
        },
        {
          "duration": 0.75,
          "durationTicks": 1152,
          "midi": 76,
          "name": "E5",
          "ticks": 26112,
          "time": 17,
          "velocity": 0.3937007874015748
        },
        {
          "duration": 0.125,
          "durationTicks": 192,
          "midi": 62,
          "name": "D4",
          "ticks": 27264,
          "time": 17.75,
          "velocity": 0.1968503937007874
        },
        {
          "duration": 0.125,
          "durationTicks": 192,
          "midi": 74,
          "name": "D5",
          "ticks": 27264,
          "time": 17.75,
          "velocity": 0.3937007874015748
        },
        {
          "duration": 0.125,
          "durationTicks": 192,
          "midi": 76,
          "name": "E5",
          "ticks": 27456,
          "time": 17.875,
          "velocity": 0.3937007874015748
        },
        {
          "duration": 0.125,
          "durationTicks": 192,
          "midi": 64,
          "name": "E4",
          "ticks": 27456,
          "time": 17.875,
          "velocity": 0.1968503937007874
        },
        {
          "duration": 0.375,
          "durationTicks": 576,
          "midi": 78,
          "name": "F#5",
          "ticks": 27648,
          "time": 18,
          "velocity": 0.3937007874015748
        },
        {
          "duration": 0.375,
          "durationTicks": 576,
          "midi": 66,
          "name": "F#4",
          "ticks": 27648,
          "time": 18,
          "velocity": 0.1968503937007874
        },
        {
          "duration": 0.375,
          "durationTicks": 576,
          "midi": 83,
          "name": "B5",
          "ticks": 28224,
          "time": 18.375,
          "velocity": 0.3937007874015748
        },
        {
          "duration": 0.375,
          "durationTicks": 576,
          "midi": 71,
          "name": "B4",
          "ticks": 28224,
          "time": 18.375,
          "velocity": 0.1968503937007874
        },
        {
          "duration": 0.25,
          "durationTicks": 384,
          "midi": 73,
          "name": "C#5",
          "ticks": 28800,
          "time": 18.75,
          "velocity": 0.1968503937007874
        },
        {
          "duration": 0.25,
          "durationTicks": 384,
          "midi": 85,
          "name": "C#6",
          "ticks": 28800,
          "time": 18.75,
          "velocity": 0.3937007874015748
        },
        {
          "duration": 0.75,
          "durationTicks": 1152,
          "midi": 83,
          "name": "B5",
          "ticks": 29184,
          "time": 19,
          "velocity": 0.3937007874015748
        },
        {
          "duration": 0.75,
          "durationTicks": 1152,
          "midi": 71,
          "name": "B4",
          "ticks": 29184,
          "time": 19,
          "velocity": 0.1968503937007874
        },
        {
          "duration": 0.125,
          "durationTicks": 192,
          "midi": 74,
          "name": "D5",
          "ticks": 30336,
          "time": 19.75,
          "velocity": 0.3937007874015748
        },
        {
          "duration": 0.125,
          "durationTicks": 192,
          "midi": 71,
          "name": "B4",
          "ticks": 30336,
          "time": 19.75,
          "velocity": 0.1968503937007874
        },
        {
          "duration": 0.125,
          "durationTicks": 192,
          "midi": 83,
          "name": "B5",
          "ticks": 30336,
          "time": 19.75,
          "velocity": 0.3937007874015748
        },
        {
          "duration": 0.125,
          "durationTicks": 192,
          "midi": 62,
          "name": "D4",
          "ticks": 30336,
          "time": 19.75,
          "velocity": 0.1968503937007874
        },
        {
          "duration": 0.125,
          "durationTicks": 192,
          "midi": 85,
          "name": "C#6",
          "ticks": 30528,
          "time": 19.875,
          "velocity": 0.3937007874015748
        },
        {
          "duration": 0.125,
          "durationTicks": 192,
          "midi": 64,
          "name": "E4",
          "ticks": 30528,
          "time": 19.875,
          "velocity": 0.1968503937007874
        },
        {
          "duration": 0.125,
          "durationTicks": 192,
          "midi": 76,
          "name": "E5",
          "ticks": 30528,
          "time": 19.875,
          "velocity": 0.3937007874015748
        },
        {
          "duration": 0.125,
          "durationTicks": 192,
          "midi": 73,
          "name": "C#5",
          "ticks": 30528,
          "time": 19.875,
          "velocity": 0.1968503937007874
        },
        {
          "duration": 0.375,
          "durationTicks": 576,
          "midi": 76,
          "name": "E5",
          "ticks": 30720,
          "time": 20,
          "velocity": 0.1968503937007874
        },
        {
          "duration": 0.375,
          "durationTicks": 576,
          "midi": 67,
          "name": "G4",
          "ticks": 30720,
          "time": 20,
          "velocity": 0.1968503937007874
        },
        {
          "duration": 0.375,
          "durationTicks": 576,
          "midi": 79,
          "name": "G5",
          "ticks": 30720,
          "time": 20,
          "velocity": 0.3937007874015748
        },
        {
          "duration": 0.375,
          "durationTicks": 576,
          "midi": 88,
          "name": "E6",
          "ticks": 30720,
          "time": 20,
          "velocity": 0.3937007874015748
        },
        {
          "duration": 0.375,
          "durationTicks": 576,
          "midi": 66,
          "name": "F#4",
          "ticks": 31296,
          "time": 20.375,
          "velocity": 0.1968503937007874
        },
        {
          "duration": 0.375,
          "durationTicks": 576,
          "midi": 78,
          "name": "F#5",
          "ticks": 31296,
          "time": 20.375,
          "velocity": 0.3937007874015748
        },
        {
          "duration": 0.375,
          "durationTicks": 576,
          "midi": 74,
          "name": "D5",
          "ticks": 31296,
          "time": 20.375,
          "velocity": 0.1968503937007874
        },
        {
          "duration": 0.375,
          "durationTicks": 576,
          "midi": 86,
          "name": "D6",
          "ticks": 31296,
          "time": 20.375,
          "velocity": 0.3937007874015748
        },
        {
          "duration": 0.25,
          "durationTicks": 384,
          "midi": 64,
          "name": "E4",
          "ticks": 31872,
          "time": 20.75,
          "velocity": 0.1968503937007874
        },
        {
          "duration": 0.25,
          "durationTicks": 384,
          "midi": 76,
          "name": "E5",
          "ticks": 31872,
          "time": 20.75,
          "velocity": 0.3937007874015748
        },
        {
          "duration": 0.25,
          "durationTicks": 384,
          "midi": 85,
          "name": "C#6",
          "ticks": 31872,
          "time": 20.75,
          "velocity": 0.3937007874015748
        },
        {
          "duration": 0.25,
          "durationTicks": 384,
          "midi": 73,
          "name": "C#5",
          "ticks": 31872,
          "time": 20.75,
          "velocity": 0.1968503937007874
        },
        {
          "duration": 0.5,
          "durationTicks": 768,
          "midi": 83,
          "name": "B5",
          "ticks": 32256,
          "time": 21,
          "velocity": 0.3937007874015748
        },
        {
          "duration": 0.5,
          "durationTicks": 768,
          "midi": 62,
          "name": "D4",
          "ticks": 32256,
          "time": 21,
          "velocity": 0.1968503937007874
        },
        {
          "duration": 0.5,
          "durationTicks": 768,
          "midi": 71,
          "name": "B4",
          "ticks": 32256,
          "time": 21,
          "velocity": 0.1968503937007874
        },
        {
          "duration": 0.5,
          "durationTicks": 768,
          "midi": 74,
          "name": "D5",
          "ticks": 32256,
          "time": 21,
          "velocity": 0.3937007874015748
        },
        {
          "duration": 0.25,
          "durationTicks": 384,
          "midi": 66,
          "name": "F#4",
          "ticks": 33024,
          "time": 21.5,
          "velocity": 0.1968503937007874
        },
        {
          "duration": 0.25,
          "durationTicks": 384,
          "midi": 78,
          "name": "F#5",
          "ticks": 33024,
          "time": 21.5,
          "velocity": 0.3937007874015748
        },
        {
          "duration": 0.25,
          "durationTicks": 384,
          "midi": 62,
          "name": "D4",
          "ticks": 33024,
          "time": 21.5,
          "velocity": 0.1968503937007874
        },
        {
          "duration": 0.25,
          "durationTicks": 384,
          "midi": 74,
          "name": "D5",
          "ticks": 33024,
          "time": 21.5,
          "velocity": 0.3937007874015748
        },
        {
          "duration": 0.5,
          "durationTicks": 768,
          "midi": 59,
          "name": "B3",
          "ticks": 33408,
          "time": 21.75,
          "velocity": 0.1968503937007874
        },
        {
          "duration": 0.5,
          "durationTicks": 768,
          "midi": 67,
          "name": "G4",
          "ticks": 33408,
          "time": 21.75,
          "velocity": 0.1968503937007874
        },
        {
          "duration": 0.5,
          "durationTicks": 768,
          "midi": 71,
          "name": "B4",
          "ticks": 33408,
          "time": 21.75,
          "velocity": 0.3937007874015748
        },
        {
          "duration": 0.5,
          "durationTicks": 768,
          "midi": 79,
          "name": "G5",
          "ticks": 33408,
          "time": 21.75,
          "velocity": 0.3937007874015748
        },
        {
          "duration": 0.25,
          "durationTicks": 384,
          "midi": 73,
          "name": "C#5",
          "ticks": 34176,
          "time": 22.25,
          "velocity": 0.1968503937007874
        },
        {
          "duration": 0.25,
          "durationTicks": 384,
          "midi": 65,
          "name": "F4",
          "ticks": 34176,
          "time": 22.25,
          "velocity": 0.1968503937007874
        },
        {
          "duration": 0.25,
          "durationTicks": 384,
          "midi": 77,
          "name": "F5",
          "ticks": 34176,
          "time": 22.25,
          "velocity": 0.3937007874015748
        },
        {
          "duration": 0.25,
          "durationTicks": 384,
          "midi": 85,
          "name": "C#6",
          "ticks": 34176,
          "time": 22.25,
          "velocity": 0.3937007874015748
        },
        {
          "duration": 1.25,
          "durationTicks": 1920,
          "midi": 73,
          "name": "C#5",
          "ticks": 34560,
          "time": 22.5,
          "velocity": 0.1968503937007874
        },
        {
          "duration": 1.25,
          "durationTicks": 1920,
          "midi": 65,
          "name": "F4",
          "ticks": 34560,
          "time": 22.5,
          "velocity": 0.1968503937007874
        },
        {
          "duration": 1.25,
          "durationTicks": 1920,
          "midi": 85,
          "name": "C#6",
          "ticks": 34560,
          "time": 22.5,
          "velocity": 0.3937007874015748
        },
        {
          "duration": 1.25,
          "durationTicks": 1920,
          "midi": 77,
          "name": "F5",
          "ticks": 34560,
          "time": 22.5,
          "velocity": 0.3937007874015748
        },
        {
          "duration": 0.125,
          "durationTicks": 192,
          "midi": 85,
          "name": "C#6",
          "ticks": 36480,
          "time": 23.75,
          "velocity": 0.3937007874015748
        },
        {
          "duration": 0.125,
          "durationTicks": 192,
          "midi": 73,
          "name": "C#5",
          "ticks": 36480,
          "time": 23.75,
          "velocity": 0.23622047244094488
        },
        {
          "duration": 0.125,
          "durationTicks": 192,
          "midi": 74,
          "name": "D5",
          "ticks": 36672,
          "time": 23.875,
          "velocity": 0.23622047244094488
        },
        {
          "duration": 0.125,
          "durationTicks": 192,
          "midi": 86,
          "name": "D6",
          "ticks": 36672,
          "time": 23.875,
          "velocity": 0.3937007874015748
        },
        {
          "duration": 0.375,
          "durationTicks": 576,
          "midi": 88,
          "name": "E6",
          "ticks": 36864,
          "time": 24,
          "velocity": 0.3937007874015748
        },
        {
          "duration": 0.375,
          "durationTicks": 576,
          "midi": 76,
          "name": "E5",
          "ticks": 36864,
          "time": 24,
          "velocity": 0.23622047244094488
        },
        {
          "duration": 0.375,
          "durationTicks": 576,
          "midi": 74,
          "name": "D5",
          "ticks": 37440,
          "time": 24.375,
          "velocity": 0.23622047244094488
        },
        {
          "duration": 0.375,
          "durationTicks": 576,
          "midi": 86,
          "name": "D6",
          "ticks": 37440,
          "time": 24.375,
          "velocity": 0.3937007874015748
        },
        {
          "duration": 0.25,
          "durationTicks": 384,
          "midi": 73,
          "name": "C#5",
          "ticks": 38016,
          "time": 24.75,
          "velocity": 0.23622047244094488
        },
        {
          "duration": 0.25,
          "durationTicks": 384,
          "midi": 85,
          "name": "C#6",
          "ticks": 38016,
          "time": 24.75,
          "velocity": 0.3937007874015748
        },
        {
          "duration": 0.5,
          "durationTicks": 768,
          "midi": 83,
          "name": "B5",
          "ticks": 38400,
          "time": 25,
          "velocity": 0.3937007874015748
        },
        {
          "duration": 0.5,
          "durationTicks": 768,
          "midi": 71,
          "name": "B4",
          "ticks": 38400,
          "time": 25,
          "velocity": 0.23622047244094488
        },
        {
          "duration": 2.25,
          "durationTicks": 3456,
          "midi": 66,
          "name": "F#4",
          "ticks": 39168,
          "time": 25.5,
          "velocity": 0.23622047244094488
        },
        {
          "duration": 2.25,
          "durationTicks": 3456,
          "midi": 78,
          "name": "F#5",
          "ticks": 39168,
          "time": 25.5,
          "velocity": 0.3937007874015748
        },
        {
          "duration": 0.125,
          "durationTicks": 192,
          "midi": 85,
          "name": "C#6",
          "ticks": 42624,
          "time": 27.75,
          "velocity": 0.3937007874015748
        },
        {
          "duration": 0.125,
          "durationTicks": 192,
          "midi": 73,
          "name": "C#5",
          "ticks": 42624,
          "time": 27.75,
          "velocity": 0.23622047244094488
        },
        {
          "duration": 0.125,
          "durationTicks": 192,
          "midi": 86,
          "name": "D6",
          "ticks": 42816,
          "time": 27.875,
          "velocity": 0.3937007874015748
        },
        {
          "duration": 0.125,
          "durationTicks": 192,
          "midi": 74,
          "name": "D5",
          "ticks": 42816,
          "time": 27.875,
          "velocity": 0.23622047244094488
        },
        {
          "duration": 0.375,
          "durationTicks": 576,
          "midi": 76,
          "name": "E5",
          "ticks": 43008,
          "time": 28,
          "velocity": 0.23622047244094488
        },
        {
          "duration": 0.375,
          "durationTicks": 576,
          "midi": 88,
          "name": "E6",
          "ticks": 43008,
          "time": 28,
          "velocity": 0.3937007874015748
        },
        {
          "duration": 0.375,
          "durationTicks": 576,
          "midi": 74,
          "name": "D5",
          "ticks": 43584,
          "time": 28.375,
          "velocity": 0.23622047244094488
        },
        {
          "duration": 0.375,
          "durationTicks": 576,
          "midi": 86,
          "name": "D6",
          "ticks": 43584,
          "time": 28.375,
          "velocity": 0.3937007874015748
        },
        {
          "duration": 0.25,
          "durationTicks": 384,
          "midi": 73,
          "name": "C#5",
          "ticks": 44160,
          "time": 28.75,
          "velocity": 0.23622047244094488
        },
        {
          "duration": 0.25,
          "durationTicks": 384,
          "midi": 85,
          "name": "C#6",
          "ticks": 44160,
          "time": 28.75,
          "velocity": 0.3937007874015748
        },
        {
          "duration": 0.5,
          "durationTicks": 768,
          "midi": 83,
          "name": "B5",
          "ticks": 44544,
          "time": 29,
          "velocity": 0.3937007874015748
        },
        {
          "duration": 0.5,
          "durationTicks": 768,
          "midi": 71,
          "name": "B4",
          "ticks": 44544,
          "time": 29,
          "velocity": 0.23622047244094488
        },
        {
          "duration": 2.25,
          "durationTicks": 3456,
          "midi": 78,
          "name": "F#5",
          "ticks": 45312,
          "time": 29.5,
          "velocity": 0.23622047244094488
        },
        {
          "duration": 2.25,
          "durationTicks": 3456,
          "midi": 90,
          "name": "F#6",
          "ticks": 45312,
          "time": 29.5,
          "velocity": 0.3937007874015748
        },
        {
          "duration": 0.125,
          "durationTicks": 192,
          "midi": 90,
          "name": "F#6",
          "ticks": 48768,
          "time": 31.75,
          "velocity": 0.3937007874015748
        },
        {
          "duration": 0.125,
          "durationTicks": 192,
          "midi": 81,
          "name": "A5",
          "ticks": 48768,
          "time": 31.75,
          "velocity": 0.15748031496062992
        },
        {
          "duration": 0.125,
          "durationTicks": 192,
          "midi": 78,
          "name": "F#5",
          "ticks": 48768,
          "time": 31.75,
          "velocity": 0.23622047244094488
        },
        {
          "duration": 0.125,
          "durationTicks": 192,
          "midi": 91,
          "name": "G6",
          "ticks": 48960,
          "time": 31.875,
          "velocity": 0.3937007874015748
        },
        {
          "duration": 0.125,
          "durationTicks": 192,
          "midi": 83,
          "name": "B5",
          "ticks": 48960,
          "time": 31.875,
          "velocity": 0.15748031496062992
        },
        {
          "duration": 0.125,
          "durationTicks": 192,
          "midi": 79,
          "name": "G5",
          "ticks": 48960,
          "time": 31.875,
          "velocity": 0.23622047244094488
        },
        {
          "duration": 0.375,
          "durationTicks": 576,
          "midi": 84,
          "name": "C6",
          "ticks": 49152,
          "time": 32,
          "velocity": 0.15748031496062992
        },
        {
          "duration": 0.375,
          "durationTicks": 576,
          "midi": 81,
          "name": "A5",
          "ticks": 49152,
          "time": 32,
          "velocity": 0.23622047244094488
        },
        {
          "duration": 0.375,
          "durationTicks": 576,
          "midi": 93,
          "name": "A6",
          "ticks": 49152,
          "time": 32,
          "velocity": 0.3937007874015748
        },
        {
          "duration": 0.375,
          "durationTicks": 576,
          "midi": 83,
          "name": "B5",
          "ticks": 49728,
          "time": 32.375,
          "velocity": 0.15748031496062992
        },
        {
          "duration": 0.375,
          "durationTicks": 576,
          "midi": 91,
          "name": "G6",
          "ticks": 49728,
          "time": 32.375,
          "velocity": 0.3937007874015748
        },
        {
          "duration": 0.375,
          "durationTicks": 576,
          "midi": 79,
          "name": "G5",
          "ticks": 49728,
          "time": 32.375,
          "velocity": 0.23622047244094488
        },
        {
          "duration": 0.25,
          "durationTicks": 384,
          "midi": 90,
          "name": "F#6",
          "ticks": 50304,
          "time": 32.75,
          "velocity": 0.3937007874015748
        },
        {
          "duration": 0.25,
          "durationTicks": 384,
          "midi": 78,
          "name": "F#5",
          "ticks": 50304,
          "time": 32.75,
          "velocity": 0.23622047244094488
        },
        {
          "duration": 0.25,
          "durationTicks": 384,
          "midi": 81,
          "name": "A5",
          "ticks": 50304,
          "time": 32.75,
          "velocity": 0.15748031496062992
        },
        {
          "duration": 1,
          "durationTicks": 1536,
          "midi": 76,
          "name": "E5",
          "ticks": 50688,
          "time": 33,
          "velocity": 0.23622047244094488
        },
        {
          "duration": 1,
          "durationTicks": 1536,
          "midi": 79,
          "name": "G5",
          "ticks": 50688,
          "time": 33,
          "velocity": 0.15748031496062992
        },
        {
          "duration": 1,
          "durationTicks": 1536,
          "midi": 88,
          "name": "E6",
          "ticks": 50688,
          "time": 33,
          "velocity": 0.3937007874015748
        },
        {
          "duration": 0.375,
          "durationTicks": 576,
          "midi": 79,
          "name": "G5",
          "ticks": 52224,
          "time": 34,
          "velocity": 0.23622047244094488
        },
        {
          "duration": 0.375,
          "durationTicks": 576,
          "midi": 91,
          "name": "G6",
          "ticks": 52224,
          "time": 34,
          "velocity": 0.3937007874015748
        },
        {
          "duration": 0.375,
          "durationTicks": 576,
          "midi": 82,
          "name": "A#5",
          "ticks": 52224,
          "time": 34,
          "velocity": 0.15748031496062992
        },
        {
          "duration": 0.375,
          "durationTicks": 576,
          "midi": 80,
          "name": "G#5",
          "ticks": 52800,
          "time": 34.375,
          "velocity": 0.15748031496062992
        },
        {
          "duration": 0.375,
          "durationTicks": 576,
          "midi": 77,
          "name": "F5",
          "ticks": 52800,
          "time": 34.375,
          "velocity": 0.23622047244094488
        },
        {
          "duration": 0.375,
          "durationTicks": 576,
          "midi": 89,
          "name": "F6",
          "ticks": 52800,
          "time": 34.375,
          "velocity": 0.3937007874015748
        },
        {
          "duration": 0.25,
          "durationTicks": 384,
          "midi": 76,
          "name": "E5",
          "ticks": 53376,
          "time": 34.75,
          "velocity": 0.23622047244094488
        },
        {
          "duration": 0.25,
          "durationTicks": 384,
          "midi": 88,
          "name": "E6",
          "ticks": 53376,
          "time": 34.75,
          "velocity": 0.3937007874015748
        },
        {
          "duration": 0.25,
          "durationTicks": 384,
          "midi": 79,
          "name": "G5",
          "ticks": 53376,
          "time": 34.75,
          "velocity": 0.15748031496062992
        },
        {
          "duration": 0.5,
          "durationTicks": 768,
          "midi": 74,
          "name": "D5",
          "ticks": 53760,
          "time": 35,
          "velocity": 0.23622047244094488
        },
        {
          "duration": 0.5,
          "durationTicks": 768,
          "midi": 77,
          "name": "F5",
          "ticks": 53760,
          "time": 35,
          "velocity": 0.15748031496062992
        },
        {
          "duration": 0.5,
          "durationTicks": 768,
          "midi": 86,
          "name": "D6",
          "ticks": 53760,
          "time": 35,
          "velocity": 0.3937007874015748
        },
        {
          "duration": 0.375,
          "durationTicks": 576,
          "midi": 77,
          "name": "F5",
          "ticks": 54528,
          "time": 35.5,
          "velocity": 0.23622047244094488
        },
        {
          "duration": 0.375,
          "durationTicks": 576,
          "midi": 89,
          "name": "F6",
          "ticks": 54528,
          "time": 35.5,
          "velocity": 0.3937007874015748
        },
        {
          "duration": 0.375,
          "durationTicks": 576,
          "midi": 87,
          "name": "D#6",
          "ticks": 55104,
          "time": 35.875,
          "velocity": 0.3937007874015748
        },
        {
          "duration": 0.375,
          "durationTicks": 576,
          "midi": 75,
          "name": "D#5",
          "ticks": 55104,
          "time": 35.875,
          "velocity": 0.23622047244094488
        },
        {
          "duration": 0.375,
          "durationTicks": 576,
          "midi": 74,
          "name": "D5",
          "ticks": 55680,
          "time": 36.25,
          "velocity": 0.23622047244094488
        },
        {
          "duration": 0.375,
          "durationTicks": 576,
          "midi": 86,
          "name": "D6",
          "ticks": 55680,
          "time": 36.25,
          "velocity": 0.3937007874015748
        },
        {
          "duration": 0.375,
          "durationTicks": 576,
          "midi": 84,
          "name": "C6",
          "ticks": 56256,
          "time": 36.625,
          "velocity": 0.3937007874015748
        },
        {
          "duration": 0.375,
          "durationTicks": 576,
          "midi": 72,
          "name": "C5",
          "ticks": 56256,
          "time": 36.625,
          "velocity": 0.23622047244094488
        },
        {
          "duration": 0.375,
          "durationTicks": 576,
          "midi": 67,
          "name": "G4",
          "ticks": 56832,
          "time": 37,
          "velocity": 0.23622047244094488
        },
        {
          "duration": 0.375,
          "durationTicks": 576,
          "midi": 79,
          "name": "G5",
          "ticks": 56832,
          "time": 37,
          "velocity": 0.3937007874015748
        },
        {
          "duration": 0.375,
          "durationTicks": 576,
          "midi": 63,
          "name": "D#4",
          "ticks": 57408,
          "time": 37.375,
          "velocity": 0.23622047244094488
        },
        {
          "duration": 0.375,
          "durationTicks": 576,
          "midi": 75,
          "name": "D#5",
          "ticks": 57408,
          "time": 37.375,
          "velocity": 0.3937007874015748
        },
        {
          "duration": 0.25,
          "durationTicks": 384,
          "midi": 72,
          "name": "C5",
          "ticks": 57984,
          "time": 37.75,
          "velocity": 0.3937007874015748
        },
        {
          "duration": 0.25,
          "durationTicks": 384,
          "midi": 60,
          "name": "C4",
          "ticks": 57984,
          "time": 37.75,
          "velocity": 0.23622047244094488
        },
        {
          "duration": 0.75,
          "durationTicks": 1152,
          "midi": 65,
          "name": "F4",
          "ticks": 58368,
          "time": 38,
          "velocity": 0.1968503937007874
        },
        {
          "duration": 0.75,
          "durationTicks": 1152,
          "midi": 77,
          "name": "F5",
          "ticks": 58368,
          "time": 38,
          "velocity": 0.3937007874015748
        },
        {
          "duration": 0.25,
          "durationTicks": 384,
          "midi": 68,
          "name": "G#4",
          "ticks": 59520,
          "time": 38.75,
          "velocity": 0.1968503937007874
        },
        {
          "duration": 0.25,
          "durationTicks": 384,
          "midi": 80,
          "name": "G#5",
          "ticks": 59520,
          "time": 38.75,
          "velocity": 0.3937007874015748
        },
        {
          "duration": 0.25,
          "durationTicks": 384,
          "midi": 84,
          "name": "C6",
          "ticks": 59520,
          "time": 38.75,
          "velocity": 0.3937007874015748
        },
        {
          "duration": 0.25,
          "durationTicks": 384,
          "midi": 77,
          "name": "F5",
          "ticks": 59520,
          "time": 38.75,
          "velocity": 0.3937007874015748
        },
        {
          "duration": 0.25,
          "durationTicks": 384,
          "midi": 65,
          "name": "F4",
          "ticks": 59520,
          "time": 38.75,
          "velocity": 0.1968503937007874
        },
        {
          "duration": 0.25,
          "durationTicks": 384,
          "midi": 72,
          "name": "C5",
          "ticks": 59520,
          "time": 38.75,
          "velocity": 0.1968503937007874
        },
        {
          "duration": 2.75,
          "durationTicks": 4224,
          "midi": 65,
          "name": "F4",
          "ticks": 59904,
          "time": 39,
          "velocity": 0.1968503937007874
        },
        {
          "duration": 2.75,
          "durationTicks": 4224,
          "midi": 72,
          "name": "C5",
          "ticks": 59904,
          "time": 39,
          "velocity": 0.1968503937007874
        },
        {
          "duration": 2.75,
          "durationTicks": 4224,
          "midi": 80,
          "name": "G#5",
          "ticks": 59904,
          "time": 39,
          "velocity": 0.3937007874015748
        },
        {
          "duration": 2.75,
          "durationTicks": 4224,
          "midi": 68,
          "name": "G#4",
          "ticks": 59904,
          "time": 39,
          "velocity": 0.1968503937007874
        },
        {
          "duration": 2.75,
          "durationTicks": 4224,
          "midi": 84,
          "name": "C6",
          "ticks": 59904,
          "time": 39,
          "velocity": 0.3937007874015748
        },
        {
          "duration": 2.75,
          "durationTicks": 4224,
          "midi": 77,
          "name": "F5",
          "ticks": 59904,
          "time": 39,
          "velocity": 0.3937007874015748
        },
        {
          "duration": 0.25,
          "durationTicks": 384,
          "midi": 69,
          "name": "A4",
          "ticks": 64128,
          "time": 41.75,
          "velocity": 0.23622047244094488
        },
        {
          "duration": 0.25,
          "durationTicks": 384,
          "midi": 81,
          "name": "A5",
          "ticks": 64128,
          "time": 41.75,
          "velocity": 0.3937007874015748
        },
        {
          "duration": 0.75,
          "durationTicks": 1152,
          "midi": 71,
          "name": "B4",
          "ticks": 64512,
          "time": 42,
          "velocity": 0.23622047244094488
        },
        {
          "duration": 0.75,
          "durationTicks": 1152,
          "midi": 83,
          "name": "B5",
          "ticks": 64512,
          "time": 42,
          "velocity": 0.3937007874015748
        },
        {
          "duration": 0.25,
          "durationTicks": 384,
          "midi": 88,
          "name": "E6",
          "ticks": 65664,
          "time": 42.75,
          "velocity": 0.3937007874015748
        },
        {
          "duration": 0.25,
          "durationTicks": 384,
          "midi": 76,
          "name": "E5",
          "ticks": 65664,
          "time": 42.75,
          "velocity": 0.23622047244094488
        },
        {
          "duration": 2.75,
          "durationTicks": 4224,
          "midi": 88,
          "name": "E6",
          "ticks": 66048,
          "time": 43,
          "velocity": 0.3937007874015748
        },
        {
          "duration": 2.75,
          "durationTicks": 4224,
          "midi": 76,
          "name": "E5",
          "ticks": 66048,
          "time": 43,
          "velocity": 0.23622047244094488
        },
        {
          "duration": 1,
          "durationTicks": 1536,
          "midi": 74,
          "name": "D5",
          "ticks": 101376,
          "time": 66,
          "velocity": 0.3937007874015748
        },
        {
          "duration": 1,
          "durationTicks": 1536,
          "midi": 62,
          "name": "D4",
          "ticks": 101376,
          "time": 66,
          "velocity": 0.1968503937007874
        },
        {
          "duration": 1,
          "durationTicks": 1536,
          "midi": 64,
          "name": "E4",
          "ticks": 102912,
          "time": 67,
          "velocity": 0.1968503937007874
        },
        {
          "duration": 1,
          "durationTicks": 1536,
          "midi": 76,
          "name": "E5",
          "ticks": 102912,
          "time": 67,
          "velocity": 0.3937007874015748
        },
        {
          "duration": 0.375,
          "durationTicks": 576,
          "midi": 78,
          "name": "F#5",
          "ticks": 104448,
          "time": 68,
          "velocity": 0.3937007874015748
        },
        {
          "duration": 0.375,
          "durationTicks": 576,
          "midi": 66,
          "name": "F#4",
          "ticks": 104448,
          "time": 68,
          "velocity": 0.1968503937007874
        },
        {
          "duration": 0.375,
          "durationTicks": 576,
          "midi": 71,
          "name": "B4",
          "ticks": 105024,
          "time": 68.375,
          "velocity": 0.1968503937007874
        },
        {
          "duration": 0.375,
          "durationTicks": 576,
          "midi": 83,
          "name": "B5",
          "ticks": 105024,
          "time": 68.375,
          "velocity": 0.3937007874015748
        },
        {
          "duration": 0.25,
          "durationTicks": 384,
          "midi": 82,
          "name": "A#5",
          "ticks": 105600,
          "time": 68.75,
          "velocity": 0.3937007874015748
        },
        {
          "duration": 0.25,
          "durationTicks": 384,
          "midi": 70,
          "name": "A#4",
          "ticks": 105600,
          "time": 68.75,
          "velocity": 0.1968503937007874
        },
        {
          "duration": 0.375,
          "durationTicks": 576,
          "midi": 71,
          "name": "B4",
          "ticks": 105984,
          "time": 69,
          "velocity": 0.1968503937007874
        },
        {
          "duration": 0.375,
          "durationTicks": 576,
          "midi": 83,
          "name": "B5",
          "ticks": 105984,
          "time": 69,
          "velocity": 0.3937007874015748
        },
        {
          "duration": 0.375,
          "durationTicks": 576,
          "midi": 66,
          "name": "F#4",
          "ticks": 106560,
          "time": 69.375,
          "velocity": 0.1968503937007874
        },
        {
          "duration": 0.375,
          "durationTicks": 576,
          "midi": 78,
          "name": "F#5",
          "ticks": 106560,
          "time": 69.375,
          "velocity": 0.3937007874015748
        },
        {
          "duration": 0.25,
          "durationTicks": 384,
          "midi": 62,
          "name": "D4",
          "ticks": 107136,
          "time": 69.75,
          "velocity": 0.1968503937007874
        },
        {
          "duration": 0.25,
          "durationTicks": 384,
          "midi": 74,
          "name": "D5",
          "ticks": 107136,
          "time": 69.75,
          "velocity": 0.3937007874015748
        },
        {
          "duration": 0.375,
          "durationTicks": 576,
          "midi": 59,
          "name": "B3",
          "ticks": 107520,
          "time": 70,
          "velocity": 0.1968503937007874
        },
        {
          "duration": 0.375,
          "durationTicks": 576,
          "midi": 71,
          "name": "B4",
          "ticks": 107520,
          "time": 70,
          "velocity": 0.3937007874015748
        },
        {
          "duration": 0.375,
          "durationTicks": 576,
          "midi": 61,
          "name": "C#4",
          "ticks": 108096,
          "time": 70.375,
          "velocity": 0.1968503937007874
        },
        {
          "duration": 0.375,
          "durationTicks": 576,
          "midi": 73,
          "name": "C#5",
          "ticks": 108096,
          "time": 70.375,
          "velocity": 0.3937007874015748
        },
        {
          "duration": 0.25,
          "durationTicks": 384,
          "midi": 62,
          "name": "D4",
          "ticks": 108672,
          "time": 70.75,
          "velocity": 0.1968503937007874
        },
        {
          "duration": 0.25,
          "durationTicks": 384,
          "midi": 74,
          "name": "D5",
          "ticks": 108672,
          "time": 70.75,
          "velocity": 0.3937007874015748
        },
        {
          "duration": 3,
          "durationTicks": 4608,
          "midi": 73,
          "name": "C#5",
          "ticks": 109056,
          "time": 71,
          "velocity": 0.3937007874015748
        },
        {
          "duration": 3,
          "durationTicks": 4608,
          "midi": 61,
          "name": "C#4",
          "ticks": 109056,
          "time": 71,
          "velocity": 0.1968503937007874
        },
        {
          "duration": 1,
          "durationTicks": 1536,
          "midi": 74,
          "name": "D5",
          "ticks": 113664,
          "time": 74,
          "velocity": 0.3937007874015748
        },
        {
          "duration": 1,
          "durationTicks": 1536,
          "midi": 62,
          "name": "D4",
          "ticks": 113664,
          "time": 74,
          "velocity": 0.1968503937007874
        },
        {
          "duration": 0.75,
          "durationTicks": 1152,
          "midi": 64,
          "name": "E4",
          "ticks": 115200,
          "time": 75,
          "velocity": 0.1968503937007874
        },
        {
          "duration": 0.75,
          "durationTicks": 1152,
          "midi": 76,
          "name": "E5",
          "ticks": 115200,
          "time": 75,
          "velocity": 0.3937007874015748
        },
        {
          "duration": 0.125,
          "durationTicks": 192,
          "midi": 74,
          "name": "D5",
          "ticks": 116352,
          "time": 75.75,
          "velocity": 0.3937007874015748
        },
        {
          "duration": 0.125,
          "durationTicks": 192,
          "midi": 62,
          "name": "D4",
          "ticks": 116352,
          "time": 75.75,
          "velocity": 0.1968503937007874
        },
        {
          "duration": 0.125,
          "durationTicks": 192,
          "midi": 64,
          "name": "E4",
          "ticks": 116544,
          "time": 75.875,
          "velocity": 0.1968503937007874
        },
        {
          "duration": 0.125,
          "durationTicks": 192,
          "midi": 76,
          "name": "E5",
          "ticks": 116544,
          "time": 75.875,
          "velocity": 0.3937007874015748
        },
        {
          "duration": 0.375,
          "durationTicks": 576,
          "midi": 66,
          "name": "F#4",
          "ticks": 116736,
          "time": 76,
          "velocity": 0.1968503937007874
        },
        {
          "duration": 0.375,
          "durationTicks": 576,
          "midi": 78,
          "name": "F#5",
          "ticks": 116736,
          "time": 76,
          "velocity": 0.3937007874015748
        },
        {
          "duration": 0.375,
          "durationTicks": 576,
          "midi": 83,
          "name": "B5",
          "ticks": 117312,
          "time": 76.375,
          "velocity": 0.3937007874015748
        },
        {
          "duration": 0.375,
          "durationTicks": 576,
          "midi": 71,
          "name": "B4",
          "ticks": 117312,
          "time": 76.375,
          "velocity": 0.1968503937007874
        },
        {
          "duration": 0.25,
          "durationTicks": 384,
          "midi": 73,
          "name": "C#5",
          "ticks": 117888,
          "time": 76.75,
          "velocity": 0.1968503937007874
        },
        {
          "duration": 0.25,
          "durationTicks": 384,
          "midi": 85,
          "name": "C#6",
          "ticks": 117888,
          "time": 76.75,
          "velocity": 0.3937007874015748
        },
        {
          "duration": 0.75,
          "durationTicks": 1152,
          "midi": 71,
          "name": "B4",
          "ticks": 118272,
          "time": 77,
          "velocity": 0.1968503937007874
        },
        {
          "duration": 0.75,
          "durationTicks": 1152,
          "midi": 83,
          "name": "B5",
          "ticks": 118272,
          "time": 77,
          "velocity": 0.3937007874015748
        },
        {
          "duration": 0.125,
          "durationTicks": 192,
          "midi": 83,
          "name": "B5",
          "ticks": 119424,
          "time": 77.75,
          "velocity": 0.3937007874015748
        },
        {
          "duration": 0.125,
          "durationTicks": 192,
          "midi": 62,
          "name": "D4",
          "ticks": 119424,
          "time": 77.75,
          "velocity": 0.1968503937007874
        },
        {
          "duration": 0.125,
          "durationTicks": 192,
          "midi": 71,
          "name": "B4",
          "ticks": 119424,
          "time": 77.75,
          "velocity": 0.1968503937007874
        },
        {
          "duration": 0.125,
          "durationTicks": 192,
          "midi": 74,
          "name": "D5",
          "ticks": 119424,
          "time": 77.75,
          "velocity": 0.3937007874015748
        },
        {
          "duration": 0.125,
          "durationTicks": 192,
          "midi": 73,
          "name": "C#5",
          "ticks": 119616,
          "time": 77.875,
          "velocity": 0.1968503937007874
        },
        {
          "duration": 0.125,
          "durationTicks": 192,
          "midi": 85,
          "name": "C#6",
          "ticks": 119616,
          "time": 77.875,
          "velocity": 0.3937007874015748
        },
        {
          "duration": 0.125,
          "durationTicks": 192,
          "midi": 64,
          "name": "E4",
          "ticks": 119616,
          "time": 77.875,
          "velocity": 0.1968503937007874
        },
        {
          "duration": 0.125,
          "durationTicks": 192,
          "midi": 76,
          "name": "E5",
          "ticks": 119616,
          "time": 77.875,
          "velocity": 0.3937007874015748
        },
        {
          "duration": 0.375,
          "durationTicks": 576,
          "midi": 76,
          "name": "E5",
          "ticks": 119808,
          "time": 78,
          "velocity": 0.1968503937007874
        },
        {
          "duration": 0.375,
          "durationTicks": 576,
          "midi": 79,
          "name": "G5",
          "ticks": 119808,
          "time": 78,
          "velocity": 0.3937007874015748
        },
        {
          "duration": 0.375,
          "durationTicks": 576,
          "midi": 67,
          "name": "G4",
          "ticks": 119808,
          "time": 78,
          "velocity": 0.1968503937007874
        },
        {
          "duration": 0.375,
          "durationTicks": 576,
          "midi": 88,
          "name": "E6",
          "ticks": 119808,
          "time": 78,
          "velocity": 0.3937007874015748
        },
        {
          "duration": 0.375,
          "durationTicks": 576,
          "midi": 78,
          "name": "F#5",
          "ticks": 120384,
          "time": 78.375,
          "velocity": 0.3937007874015748
        },
        {
          "duration": 0.375,
          "durationTicks": 576,
          "midi": 66,
          "name": "F#4",
          "ticks": 120384,
          "time": 78.375,
          "velocity": 0.1968503937007874
        },
        {
          "duration": 0.375,
          "durationTicks": 576,
          "midi": 86,
          "name": "D6",
          "ticks": 120384,
          "time": 78.375,
          "velocity": 0.3937007874015748
        },
        {
          "duration": 0.375,
          "durationTicks": 576,
          "midi": 74,
          "name": "D5",
          "ticks": 120384,
          "time": 78.375,
          "velocity": 0.1968503937007874
        },
        {
          "duration": 0.25,
          "durationTicks": 384,
          "midi": 64,
          "name": "E4",
          "ticks": 120960,
          "time": 78.75,
          "velocity": 0.1968503937007874
        },
        {
          "duration": 0.25,
          "durationTicks": 384,
          "midi": 76,
          "name": "E5",
          "ticks": 120960,
          "time": 78.75,
          "velocity": 0.3937007874015748
        },
        {
          "duration": 0.25,
          "durationTicks": 384,
          "midi": 73,
          "name": "C#5",
          "ticks": 120960,
          "time": 78.75,
          "velocity": 0.1968503937007874
        },
        {
          "duration": 0.25,
          "durationTicks": 384,
          "midi": 85,
          "name": "C#6",
          "ticks": 120960,
          "time": 78.75,
          "velocity": 0.3937007874015748
        },
        {
          "duration": 0.5,
          "durationTicks": 768,
          "midi": 83,
          "name": "B5",
          "ticks": 121344,
          "time": 79,
          "velocity": 0.3937007874015748
        },
        {
          "duration": 0.5,
          "durationTicks": 768,
          "midi": 62,
          "name": "D4",
          "ticks": 121344,
          "time": 79,
          "velocity": 0.1968503937007874
        },
        {
          "duration": 0.5,
          "durationTicks": 768,
          "midi": 71,
          "name": "B4",
          "ticks": 121344,
          "time": 79,
          "velocity": 0.1968503937007874
        },
        {
          "duration": 0.5,
          "durationTicks": 768,
          "midi": 74,
          "name": "D5",
          "ticks": 121344,
          "time": 79,
          "velocity": 0.3937007874015748
        },
        {
          "duration": 0.25,
          "durationTicks": 384,
          "midi": 62,
          "name": "D4",
          "ticks": 122112,
          "time": 79.5,
          "velocity": 0.1968503937007874
        },
        {
          "duration": 0.25,
          "durationTicks": 384,
          "midi": 78,
          "name": "F#5",
          "ticks": 122112,
          "time": 79.5,
          "velocity": 0.3937007874015748
        },
        {
          "duration": 0.25,
          "durationTicks": 384,
          "midi": 74,
          "name": "D5",
          "ticks": 122112,
          "time": 79.5,
          "velocity": 0.3937007874015748
        },
        {
          "duration": 0.25,
          "durationTicks": 384,
          "midi": 66,
          "name": "F#4",
          "ticks": 122112,
          "time": 79.5,
          "velocity": 0.1968503937007874
        },
        {
          "duration": 0.5,
          "durationTicks": 768,
          "midi": 79,
          "name": "G5",
          "ticks": 122496,
          "time": 79.75,
          "velocity": 0.3937007874015748
        },
        {
          "duration": 0.5,
          "durationTicks": 768,
          "midi": 71,
          "name": "B4",
          "ticks": 122496,
          "time": 79.75,
          "velocity": 0.3937007874015748
        },
        {
          "duration": 0.5,
          "durationTicks": 768,
          "midi": 59,
          "name": "B3",
          "ticks": 122496,
          "time": 79.75,
          "velocity": 0.1968503937007874
        },
        {
          "duration": 0.5,
          "durationTicks": 768,
          "midi": 67,
          "name": "G4",
          "ticks": 122496,
          "time": 79.75,
          "velocity": 0.1968503937007874
        },
        {
          "duration": 0.25,
          "durationTicks": 384,
          "midi": 73,
          "name": "C#5",
          "ticks": 123264,
          "time": 80.25,
          "velocity": 0.1968503937007874
        },
        {
          "duration": 0.25,
          "durationTicks": 384,
          "midi": 85,
          "name": "C#6",
          "ticks": 123264,
          "time": 80.25,
          "velocity": 0.3937007874015748
        },
        {
          "duration": 0.25,
          "durationTicks": 384,
          "midi": 65,
          "name": "F4",
          "ticks": 123264,
          "time": 80.25,
          "velocity": 0.1968503937007874
        },
        {
          "duration": 0.25,
          "durationTicks": 384,
          "midi": 77,
          "name": "F5",
          "ticks": 123264,
          "time": 80.25,
          "velocity": 0.3937007874015748
        },
        {
          "duration": 1.25,
          "durationTicks": 1920,
          "midi": 73,
          "name": "C#5",
          "ticks": 123648,
          "time": 80.5,
          "velocity": 0.1968503937007874
        },
        {
          "duration": 1.25,
          "durationTicks": 1920,
          "midi": 85,
          "name": "C#6",
          "ticks": 123648,
          "time": 80.5,
          "velocity": 0.3937007874015748
        },
        {
          "duration": 1.25,
          "durationTicks": 1920,
          "midi": 65,
          "name": "F4",
          "ticks": 123648,
          "time": 80.5,
          "velocity": 0.1968503937007874
        },
        {
          "duration": 1.25,
          "durationTicks": 1920,
          "midi": 77,
          "name": "F5",
          "ticks": 123648,
          "time": 80.5,
          "velocity": 0.3937007874015748
        },
        {
          "duration": 0.125,
          "durationTicks": 192,
          "midi": 73,
          "name": "C#5",
          "ticks": 125568,
          "time": 81.75,
          "velocity": 0.23622047244094488
        },
        {
          "duration": 0.125,
          "durationTicks": 192,
          "midi": 85,
          "name": "C#6",
          "ticks": 125568,
          "time": 81.75,
          "velocity": 0.3937007874015748
        },
        {
          "duration": 0.125,
          "durationTicks": 192,
          "midi": 74,
          "name": "D5",
          "ticks": 125760,
          "time": 81.875,
          "velocity": 0.23622047244094488
        },
        {
          "duration": 0.125,
          "durationTicks": 192,
          "midi": 86,
          "name": "D6",
          "ticks": 125760,
          "time": 81.875,
          "velocity": 0.3937007874015748
        },
        {
          "duration": 0.375,
          "durationTicks": 576,
          "midi": 88,
          "name": "E6",
          "ticks": 125952,
          "time": 82,
          "velocity": 0.3937007874015748
        },
        {
          "duration": 0.375,
          "durationTicks": 576,
          "midi": 76,
          "name": "E5",
          "ticks": 125952,
          "time": 82,
          "velocity": 0.23622047244094488
        },
        {
          "duration": 0.375,
          "durationTicks": 576,
          "midi": 74,
          "name": "D5",
          "ticks": 126528,
          "time": 82.375,
          "velocity": 0.23622047244094488
        },
        {
          "duration": 0.375,
          "durationTicks": 576,
          "midi": 86,
          "name": "D6",
          "ticks": 126528,
          "time": 82.375,
          "velocity": 0.3937007874015748
        },
        {
          "duration": 0.25,
          "durationTicks": 384,
          "midi": 73,
          "name": "C#5",
          "ticks": 127104,
          "time": 82.75,
          "velocity": 0.23622047244094488
        },
        {
          "duration": 0.25,
          "durationTicks": 384,
          "midi": 85,
          "name": "C#6",
          "ticks": 127104,
          "time": 82.75,
          "velocity": 0.3937007874015748
        },
        {
          "duration": 0.5,
          "durationTicks": 768,
          "midi": 83,
          "name": "B5",
          "ticks": 127488,
          "time": 83,
          "velocity": 0.3937007874015748
        },
        {
          "duration": 0.5,
          "durationTicks": 768,
          "midi": 71,
          "name": "B4",
          "ticks": 127488,
          "time": 83,
          "velocity": 0.23622047244094488
        },
        {
          "duration": 2.25,
          "durationTicks": 3456,
          "midi": 78,
          "name": "F#5",
          "ticks": 128256,
          "time": 83.5,
          "velocity": 0.3937007874015748
        },
        {
          "duration": 2.25,
          "durationTicks": 3456,
          "midi": 66,
          "name": "F#4",
          "ticks": 128256,
          "time": 83.5,
          "velocity": 0.23622047244094488
        },
        {
          "duration": 0.125,
          "durationTicks": 192,
          "midi": 85,
          "name": "C#6",
          "ticks": 131712,
          "time": 85.75,
          "velocity": 0.3937007874015748
        },
        {
          "duration": 0.125,
          "durationTicks": 192,
          "midi": 73,
          "name": "C#5",
          "ticks": 131712,
          "time": 85.75,
          "velocity": 0.23622047244094488
        },
        {
          "duration": 0.125,
          "durationTicks": 192,
          "midi": 74,
          "name": "D5",
          "ticks": 131904,
          "time": 85.875,
          "velocity": 0.23622047244094488
        },
        {
          "duration": 0.125,
          "durationTicks": 192,
          "midi": 86,
          "name": "D6",
          "ticks": 131904,
          "time": 85.875,
          "velocity": 0.3937007874015748
        },
        {
          "duration": 0.375,
          "durationTicks": 576,
          "midi": 76,
          "name": "E5",
          "ticks": 132096,
          "time": 86,
          "velocity": 0.23622047244094488
        },
        {
          "duration": 0.375,
          "durationTicks": 576,
          "midi": 88,
          "name": "E6",
          "ticks": 132096,
          "time": 86,
          "velocity": 0.3937007874015748
        },
        {
          "duration": 0.375,
          "durationTicks": 576,
          "midi": 86,
          "name": "D6",
          "ticks": 132672,
          "time": 86.375,
          "velocity": 0.3937007874015748
        },
        {
          "duration": 0.375,
          "durationTicks": 576,
          "midi": 74,
          "name": "D5",
          "ticks": 132672,
          "time": 86.375,
          "velocity": 0.23622047244094488
        },
        {
          "duration": 0.25,
          "durationTicks": 384,
          "midi": 85,
          "name": "C#6",
          "ticks": 133248,
          "time": 86.75,
          "velocity": 0.3937007874015748
        },
        {
          "duration": 0.25,
          "durationTicks": 384,
          "midi": 73,
          "name": "C#5",
          "ticks": 133248,
          "time": 86.75,
          "velocity": 0.23622047244094488
        },
        {
          "duration": 0.5,
          "durationTicks": 768,
          "midi": 71,
          "name": "B4",
          "ticks": 133632,
          "time": 87,
          "velocity": 0.23622047244094488
        },
        {
          "duration": 0.5,
          "durationTicks": 768,
          "midi": 83,
          "name": "B5",
          "ticks": 133632,
          "time": 87,
          "velocity": 0.3937007874015748
        },
        {
          "duration": 2.25,
          "durationTicks": 3456,
          "midi": 90,
          "name": "F#6",
          "ticks": 134400,
          "time": 87.5,
          "velocity": 0.3937007874015748
        },
        {
          "duration": 2.25,
          "durationTicks": 3456,
          "midi": 78,
          "name": "F#5",
          "ticks": 134400,
          "time": 87.5,
          "velocity": 0.23622047244094488
        },
        {
          "duration": 0.125,
          "durationTicks": 192,
          "midi": 78,
          "name": "F#5",
          "ticks": 137856,
          "time": 89.75,
          "velocity": 0.23622047244094488
        },
        {
          "duration": 0.125,
          "durationTicks": 192,
          "midi": 81,
          "name": "A5",
          "ticks": 137856,
          "time": 89.75,
          "velocity": 0.15748031496062992
        },
        {
          "duration": 0.125,
          "durationTicks": 192,
          "midi": 90,
          "name": "F#6",
          "ticks": 137856,
          "time": 89.75,
          "velocity": 0.3937007874015748
        },
        {
          "duration": 0.125,
          "durationTicks": 192,
          "midi": 91,
          "name": "G6",
          "ticks": 138048,
          "time": 89.875,
          "velocity": 0.3937007874015748
        },
        {
          "duration": 0.125,
          "durationTicks": 192,
          "midi": 79,
          "name": "G5",
          "ticks": 138048,
          "time": 89.875,
          "velocity": 0.23622047244094488
        },
        {
          "duration": 0.125,
          "durationTicks": 192,
          "midi": 83,
          "name": "B5",
          "ticks": 138048,
          "time": 89.875,
          "velocity": 0.15748031496062992
        },
        {
          "duration": 0.375,
          "durationTicks": 576,
          "midi": 81,
          "name": "A5",
          "ticks": 138240,
          "time": 90,
          "velocity": 0.23622047244094488
        },
        {
          "duration": 0.375,
          "durationTicks": 576,
          "midi": 84,
          "name": "C6",
          "ticks": 138240,
          "time": 90,
          "velocity": 0.15748031496062992
        },
        {
          "duration": 0.375,
          "durationTicks": 576,
          "midi": 93,
          "name": "A6",
          "ticks": 138240,
          "time": 90,
          "velocity": 0.3937007874015748
        },
        {
          "duration": 0.375,
          "durationTicks": 576,
          "midi": 83,
          "name": "B5",
          "ticks": 138816,
          "time": 90.375,
          "velocity": 0.15748031496062992
        },
        {
          "duration": 0.375,
          "durationTicks": 576,
          "midi": 91,
          "name": "G6",
          "ticks": 138816,
          "time": 90.375,
          "velocity": 0.3937007874015748
        },
        {
          "duration": 0.375,
          "durationTicks": 576,
          "midi": 79,
          "name": "G5",
          "ticks": 138816,
          "time": 90.375,
          "velocity": 0.23622047244094488
        },
        {
          "duration": 0.25,
          "durationTicks": 384,
          "midi": 90,
          "name": "F#6",
          "ticks": 139392,
          "time": 90.75,
          "velocity": 0.3937007874015748
        },
        {
          "duration": 0.25,
          "durationTicks": 384,
          "midi": 81,
          "name": "A5",
          "ticks": 139392,
          "time": 90.75,
          "velocity": 0.15748031496062992
        },
        {
          "duration": 0.25,
          "durationTicks": 384,
          "midi": 78,
          "name": "F#5",
          "ticks": 139392,
          "time": 90.75,
          "velocity": 0.23622047244094488
        },
        {
          "duration": 1,
          "durationTicks": 1536,
          "midi": 88,
          "name": "E6",
          "ticks": 139776,
          "time": 91,
          "velocity": 0.3937007874015748
        },
        {
          "duration": 1,
          "durationTicks": 1536,
          "midi": 79,
          "name": "G5",
          "ticks": 139776,
          "time": 91,
          "velocity": 0.15748031496062992
        },
        {
          "duration": 1,
          "durationTicks": 1536,
          "midi": 76,
          "name": "E5",
          "ticks": 139776,
          "time": 91,
          "velocity": 0.23622047244094488
        },
        {
          "duration": 0.375,
          "durationTicks": 576,
          "midi": 91,
          "name": "G6",
          "ticks": 141312,
          "time": 92,
          "velocity": 0.3937007874015748
        },
        {
          "duration": 0.375,
          "durationTicks": 576,
          "midi": 79,
          "name": "G5",
          "ticks": 141312,
          "time": 92,
          "velocity": 0.23622047244094488
        },
        {
          "duration": 0.375,
          "durationTicks": 576,
          "midi": 82,
          "name": "A#5",
          "ticks": 141312,
          "time": 92,
          "velocity": 0.15748031496062992
        },
        {
          "duration": 0.375,
          "durationTicks": 576,
          "midi": 89,
          "name": "F6",
          "ticks": 141888,
          "time": 92.375,
          "velocity": 0.3937007874015748
        },
        {
          "duration": 0.375,
          "durationTicks": 576,
          "midi": 77,
          "name": "F5",
          "ticks": 141888,
          "time": 92.375,
          "velocity": 0.23622047244094488
        },
        {
          "duration": 0.375,
          "durationTicks": 576,
          "midi": 80,
          "name": "G#5",
          "ticks": 141888,
          "time": 92.375,
          "velocity": 0.15748031496062992
        },
        {
          "duration": 0.25,
          "durationTicks": 384,
          "midi": 79,
          "name": "G5",
          "ticks": 142464,
          "time": 92.75,
          "velocity": 0.15748031496062992
        },
        {
          "duration": 0.25,
          "durationTicks": 384,
          "midi": 88,
          "name": "E6",
          "ticks": 142464,
          "time": 92.75,
          "velocity": 0.3937007874015748
        },
        {
          "duration": 0.25,
          "durationTicks": 384,
          "midi": 76,
          "name": "E5",
          "ticks": 142464,
          "time": 92.75,
          "velocity": 0.23622047244094488
        },
        {
          "duration": 0.5,
          "durationTicks": 768,
          "midi": 74,
          "name": "D5",
          "ticks": 142848,
          "time": 93,
          "velocity": 0.23622047244094488
        },
        {
          "duration": 0.5,
          "durationTicks": 768,
          "midi": 77,
          "name": "F5",
          "ticks": 142848,
          "time": 93,
          "velocity": 0.15748031496062992
        },
        {
          "duration": 0.5,
          "durationTicks": 768,
          "midi": 86,
          "name": "D6",
          "ticks": 142848,
          "time": 93,
          "velocity": 0.3937007874015748
        },
        {
          "duration": 0.375,
          "durationTicks": 576,
          "midi": 89,
          "name": "F6",
          "ticks": 143616,
          "time": 93.5,
          "velocity": 0.3937007874015748
        },
        {
          "duration": 0.375,
          "durationTicks": 576,
          "midi": 77,
          "name": "F5",
          "ticks": 143616,
          "time": 93.5,
          "velocity": 0.23622047244094488
        },
        {
          "duration": 0.375,
          "durationTicks": 576,
          "midi": 75,
          "name": "D#5",
          "ticks": 144192,
          "time": 93.875,
          "velocity": 0.23622047244094488
        },
        {
          "duration": 0.375,
          "durationTicks": 576,
          "midi": 87,
          "name": "D#6",
          "ticks": 144192,
          "time": 93.875,
          "velocity": 0.3937007874015748
        },
        {
          "duration": 0.375,
          "durationTicks": 576,
          "midi": 86,
          "name": "D6",
          "ticks": 144768,
          "time": 94.25,
          "velocity": 0.3937007874015748
        },
        {
          "duration": 0.375,
          "durationTicks": 576,
          "midi": 74,
          "name": "D5",
          "ticks": 144768,
          "time": 94.25,
          "velocity": 0.23622047244094488
        },
        {
          "duration": 0.375,
          "durationTicks": 576,
          "midi": 72,
          "name": "C5",
          "ticks": 145344,
          "time": 94.625,
          "velocity": 0.23622047244094488
        },
        {
          "duration": 0.375,
          "durationTicks": 576,
          "midi": 84,
          "name": "C6",
          "ticks": 145344,
          "time": 94.625,
          "velocity": 0.3937007874015748
        },
        {
          "duration": 0.375,
          "durationTicks": 576,
          "midi": 79,
          "name": "G5",
          "ticks": 145920,
          "time": 95,
          "velocity": 0.3937007874015748
        },
        {
          "duration": 0.375,
          "durationTicks": 576,
          "midi": 67,
          "name": "G4",
          "ticks": 145920,
          "time": 95,
          "velocity": 0.23622047244094488
        },
        {
          "duration": 0.375,
          "durationTicks": 576,
          "midi": 63,
          "name": "D#4",
          "ticks": 146496,
          "time": 95.375,
          "velocity": 0.23622047244094488
        },
        {
          "duration": 0.375,
          "durationTicks": 576,
          "midi": 75,
          "name": "D#5",
          "ticks": 146496,
          "time": 95.375,
          "velocity": 0.3937007874015748
        },
        {
          "duration": 0.25,
          "durationTicks": 384,
          "midi": 72,
          "name": "C5",
          "ticks": 147072,
          "time": 95.75,
          "velocity": 0.3937007874015748
        },
        {
          "duration": 0.25,
          "durationTicks": 384,
          "midi": 60,
          "name": "C4",
          "ticks": 147072,
          "time": 95.75,
          "velocity": 0.23622047244094488
        },
        {
          "duration": 0.75,
          "durationTicks": 1152,
          "midi": 65,
          "name": "F4",
          "ticks": 147456,
          "time": 96,
          "velocity": 0.1968503937007874
        },
        {
          "duration": 0.75,
          "durationTicks": 1152,
          "midi": 77,
          "name": "F5",
          "ticks": 147456,
          "time": 96,
          "velocity": 0.3937007874015748
        },
        {
          "duration": 0.25,
          "durationTicks": 384,
          "midi": 68,
          "name": "G#4",
          "ticks": 148608,
          "time": 96.75,
          "velocity": 0.1968503937007874
        },
        {
          "duration": 0.25,
          "durationTicks": 384,
          "midi": 84,
          "name": "C6",
          "ticks": 148608,
          "time": 96.75,
          "velocity": 0.3937007874015748
        },
        {
          "duration": 0.25,
          "durationTicks": 384,
          "midi": 65,
          "name": "F4",
          "ticks": 148608,
          "time": 96.75,
          "velocity": 0.1968503937007874
        },
        {
          "duration": 0.25,
          "durationTicks": 384,
          "midi": 77,
          "name": "F5",
          "ticks": 148608,
          "time": 96.75,
          "velocity": 0.3937007874015748
        },
        {
          "duration": 0.25,
          "durationTicks": 384,
          "midi": 80,
          "name": "G#5",
          "ticks": 148608,
          "time": 96.75,
          "velocity": 0.3937007874015748
        },
        {
          "duration": 0.25,
          "durationTicks": 384,
          "midi": 72,
          "name": "C5",
          "ticks": 148608,
          "time": 96.75,
          "velocity": 0.1968503937007874
        },
        {
          "duration": 2.75,
          "durationTicks": 4224,
          "midi": 72,
          "name": "C5",
          "ticks": 148992,
          "time": 97,
          "velocity": 0.1968503937007874
        },
        {
          "duration": 2.75,
          "durationTicks": 4224,
          "midi": 80,
          "name": "G#5",
          "ticks": 148992,
          "time": 97,
          "velocity": 0.3937007874015748
        },
        {
          "duration": 2.75,
          "durationTicks": 4224,
          "midi": 84,
          "name": "C6",
          "ticks": 148992,
          "time": 97,
          "velocity": 0.3937007874015748
        },
        {
          "duration": 2.75,
          "durationTicks": 4224,
          "midi": 68,
          "name": "G#4",
          "ticks": 148992,
          "time": 97,
          "velocity": 0.1968503937007874
        },
        {
          "duration": 2.75,
          "durationTicks": 4224,
          "midi": 65,
          "name": "F4",
          "ticks": 148992,
          "time": 97,
          "velocity": 0.1968503937007874
        },
        {
          "duration": 2.75,
          "durationTicks": 4224,
          "midi": 77,
          "name": "F5",
          "ticks": 148992,
          "time": 97,
          "velocity": 0.3937007874015748
        },
        {
          "duration": 0.25,
          "durationTicks": 384,
          "midi": 81,
          "name": "A5",
          "ticks": 153216,
          "time": 99.75,
          "velocity": 0.3937007874015748
        },
        {
          "duration": 0.25,
          "durationTicks": 384,
          "midi": 69,
          "name": "A4",
          "ticks": 153216,
          "time": 99.75,
          "velocity": 0.23622047244094488
        },
        {
          "duration": 0.75,
          "durationTicks": 1152,
          "midi": 71,
          "name": "B4",
          "ticks": 153600,
          "time": 100,
          "velocity": 0.23622047244094488
        },
        {
          "duration": 0.75,
          "durationTicks": 1152,
          "midi": 83,
          "name": "B5",
          "ticks": 153600,
          "time": 100,
          "velocity": 0.3937007874015748
        },
        {
          "duration": 0.25,
          "durationTicks": 384,
          "midi": 76,
          "name": "E5",
          "ticks": 154752,
          "time": 100.75,
          "velocity": 0.23622047244094488
        },
        {
          "duration": 0.25,
          "durationTicks": 384,
          "midi": 88,
          "name": "E6",
          "ticks": 154752,
          "time": 100.75,
          "velocity": 0.3937007874015748
        },
        {
          "duration": 2.75,
          "durationTicks": 4224,
          "midi": 76,
          "name": "E5",
          "ticks": 155136,
          "time": 101,
          "velocity": 0.23622047244094488
        },
        {
          "duration": 2.75,
          "durationTicks": 4224,
          "midi": 88,
          "name": "E6",
          "ticks": 155136,
          "time": 101,
          "velocity": 0.3937007874015748
        },
        {
          "duration": 1,
          "durationTicks": 1536,
          "midi": 62,
          "name": "D4",
          "ticks": 190464,
          "time": 124,
          "velocity": 0.1968503937007874
        },
        {
          "duration": 1,
          "durationTicks": 1536,
          "midi": 74,
          "name": "D5",
          "ticks": 190464,
          "time": 124,
          "velocity": 0.3937007874015748
        },
        {
          "duration": 1,
          "durationTicks": 1536,
          "midi": 76,
          "name": "E5",
          "ticks": 192000,
          "time": 125,
          "velocity": 0.3937007874015748
        },
        {
          "duration": 1,
          "durationTicks": 1536,
          "midi": 64,
          "name": "E4",
          "ticks": 192000,
          "time": 125,
          "velocity": 0.1968503937007874
        },
        {
          "duration": 0.375,
          "durationTicks": 576,
          "midi": 66,
          "name": "F#4",
          "ticks": 193536,
          "time": 126,
          "velocity": 0.1968503937007874
        },
        {
          "duration": 0.375,
          "durationTicks": 576,
          "midi": 78,
          "name": "F#5",
          "ticks": 193536,
          "time": 126,
          "velocity": 0.3937007874015748
        },
        {
          "duration": 0.375,
          "durationTicks": 576,
          "midi": 83,
          "name": "B5",
          "ticks": 194112,
          "time": 126.375,
          "velocity": 0.3937007874015748
        },
        {
          "duration": 0.375,
          "durationTicks": 576,
          "midi": 71,
          "name": "B4",
          "ticks": 194112,
          "time": 126.375,
          "velocity": 0.1968503937007874
        },
        {
          "duration": 0.25,
          "durationTicks": 384,
          "midi": 70,
          "name": "A#4",
          "ticks": 194688,
          "time": 126.75,
          "velocity": 0.1968503937007874
        },
        {
          "duration": 0.25,
          "durationTicks": 384,
          "midi": 82,
          "name": "A#5",
          "ticks": 194688,
          "time": 126.75,
          "velocity": 0.3937007874015748
        },
        {
          "duration": 0.375,
          "durationTicks": 576,
          "midi": 83,
          "name": "B5",
          "ticks": 195072,
          "time": 127,
          "velocity": 0.3937007874015748
        },
        {
          "duration": 0.375,
          "durationTicks": 576,
          "midi": 71,
          "name": "B4",
          "ticks": 195072,
          "time": 127,
          "velocity": 0.1968503937007874
        },
        {
          "duration": 0.375,
          "durationTicks": 576,
          "midi": 78,
          "name": "F#5",
          "ticks": 195648,
          "time": 127.375,
          "velocity": 0.3937007874015748
        },
        {
          "duration": 0.375,
          "durationTicks": 576,
          "midi": 66,
          "name": "F#4",
          "ticks": 195648,
          "time": 127.375,
          "velocity": 0.1968503937007874
        },
        {
          "duration": 0.25,
          "durationTicks": 384,
          "midi": 62,
          "name": "D4",
          "ticks": 196224,
          "time": 127.75,
          "velocity": 0.1968503937007874
        },
        {
          "duration": 0.25,
          "durationTicks": 384,
          "midi": 74,
          "name": "D5",
          "ticks": 196224,
          "time": 127.75,
          "velocity": 0.3937007874015748
        },
        {
          "duration": 0.375,
          "durationTicks": 576,
          "midi": 59,
          "name": "B3",
          "ticks": 196608,
          "time": 128,
          "velocity": 0.1968503937007874
        },
        {
          "duration": 0.375,
          "durationTicks": 576,
          "midi": 71,
          "name": "B4",
          "ticks": 196608,
          "time": 128,
          "velocity": 0.3937007874015748
        },
        {
          "duration": 0.375,
          "durationTicks": 576,
          "midi": 73,
          "name": "C#5",
          "ticks": 197184,
          "time": 128.375,
          "velocity": 0.3937007874015748
        },
        {
          "duration": 0.375,
          "durationTicks": 576,
          "midi": 61,
          "name": "C#4",
          "ticks": 197184,
          "time": 128.375,
          "velocity": 0.1968503937007874
        },
        {
          "duration": 0.25,
          "durationTicks": 384,
          "midi": 74,
          "name": "D5",
          "ticks": 197760,
          "time": 128.75,
          "velocity": 0.3937007874015748
        },
        {
          "duration": 0.25,
          "durationTicks": 384,
          "midi": 62,
          "name": "D4",
          "ticks": 197760,
          "time": 128.75,
          "velocity": 0.1968503937007874
        },
        {
          "duration": 3,
          "durationTicks": 4608,
          "midi": 73,
          "name": "C#5",
          "ticks": 198144,
          "time": 129,
          "velocity": 0.3937007874015748
        },
        {
          "duration": 3,
          "durationTicks": 4608,
          "midi": 61,
          "name": "C#4",
          "ticks": 198144,
          "time": 129,
          "velocity": 0.1968503937007874
        },
        {
          "duration": 1,
          "durationTicks": 1536,
          "midi": 74,
          "name": "D5",
          "ticks": 202752,
          "time": 132,
          "velocity": 0.3937007874015748
        },
        {
          "duration": 1,
          "durationTicks": 1536,
          "midi": 62,
          "name": "D4",
          "ticks": 202752,
          "time": 132,
          "velocity": 0.1968503937007874
        }
      ],
      "endOfTrackTicks": 204288
    },
    {
      "channel": 9,
      "controlChanges": {},
      "pitchBends": [],
      "instrument": {
        "family": "drums",
        "number": 0,
        "name": "standard kit"
      },
      "name": "Drum Kit",
      "notes": [
        {
          "duration": 0.125,
          "durationTicks": 192,
          "midi": 34,
          "name": "A#1",
          "ticks": 3072,
          "time": 2,
          "velocity": 0.5354330708661418
        },
        {
          "duration": 0.0625,
          "durationTicks": 96,
          "midi": 52,
          "name": "E3",
          "ticks": 4224,
          "time": 2.75,
          "velocity": 0.5354330708661418
        },
        {
          "duration": 0.0625,
          "durationTicks": 96,
          "midi": 52,
          "name": "E3",
          "ticks": 4320,
          "time": 2.8125,
          "velocity": 0.5354330708661418
        },
        {
          "duration": 0.0625,
          "durationTicks": 96,
          "midi": 52,
          "name": "E3",
          "ticks": 4416,
          "time": 2.875,
          "velocity": 0.5354330708661418
        },
        {
          "duration": 0.0625,
          "durationTicks": 96,
          "midi": 52,
          "name": "E3",
          "ticks": 4512,
          "time": 2.9375,
          "velocity": 0.5354330708661418
        },
        {
          "duration": 0.0625,
          "durationTicks": 96,
          "midi": 52,
          "name": "E3",
          "ticks": 4608,
          "time": 3,
          "velocity": 0.5354330708661418
        },
        {
          "duration": 0.0625,
          "durationTicks": 96,
          "midi": 52,
          "name": "E3",
          "ticks": 4704,
          "time": 3.0625,
          "velocity": 0.5354330708661418
        },
        {
          "duration": 0.0625,
          "durationTicks": 96,
          "midi": 52,
          "name": "E3",
          "ticks": 4800,
          "time": 3.125,
          "velocity": 0.5354330708661418
        },
        {
          "duration": 0.0625,
          "durationTicks": 96,
          "midi": 52,
          "name": "E3",
          "ticks": 4896,
          "time": 3.1875,
          "velocity": 0.5354330708661418
        },
        {
          "duration": 0.0625,
          "durationTicks": 96,
          "midi": 52,
          "name": "E3",
          "ticks": 4992,
          "time": 3.25,
          "velocity": 0.5354330708661418
        },
        {
          "duration": 0.0625,
          "durationTicks": 96,
          "midi": 52,
          "name": "E3",
          "ticks": 5088,
          "time": 3.3125,
          "velocity": 0.5354330708661418
        },
        {
          "duration": 0.0625,
          "durationTicks": 96,
          "midi": 52,
          "name": "E3",
          "ticks": 5184,
          "time": 3.375,
          "velocity": 0.5354330708661418
        },
        {
          "duration": 0.0625,
          "durationTicks": 96,
          "midi": 52,
          "name": "E3",
          "ticks": 5280,
          "time": 3.4375,
          "velocity": 0.5354330708661418
        },
        {
          "duration": 0.0625,
          "durationTicks": 96,
          "midi": 52,
          "name": "E3",
          "ticks": 5376,
          "time": 3.5,
          "velocity": 0.5354330708661418
        },
        {
          "duration": 0.0625,
          "durationTicks": 96,
          "midi": 52,
          "name": "E3",
          "ticks": 5472,
          "time": 3.5625,
          "velocity": 0.5354330708661418
        },
        {
          "duration": 0.0625,
          "durationTicks": 96,
          "midi": 52,
          "name": "E3",
          "ticks": 5568,
          "time": 3.625,
          "velocity": 0.5354330708661418
        },
        {
          "duration": 0.0625,
          "durationTicks": 96,
          "midi": 52,
          "name": "E3",
          "ticks": 5664,
          "time": 3.6875,
          "velocity": 0.5354330708661418
        }
      ],
      "endOfTrackTicks": 5760
    },
    {
      "channel": 1,
      "controlChanges": {},
      "pitchBends": [],
      "instrument": {
        "family": "synth lead",
        "number": 80,
        "name": "lead 1 (square)"
      },
      "name": "Smooth Synth",
      "notes": [
        {
          "duration": 0.125,
          "durationTicks": 192,
          "midi": 52,
          "name": "E3",
          "ticks": 77568,
          "time": 50.5,
          "velocity": 0.3937007874015748
        },
        {
          "duration": 0.125,
          "durationTicks": 192,
          "midi": 57,
          "name": "A3",
          "ticks": 78336,
          "time": 51,
          "velocity": 0.3937007874015748
        },
        {
          "duration": 0.125,
          "durationTicks": 192,
          "midi": 64,
          "name": "E4",
          "ticks": 79104,
          "time": 51.5,
          "velocity": 0.3937007874015748
        },
        {
          "duration": 0.125,
          "durationTicks": 192,
          "midi": 60,
          "name": "C4",
          "ticks": 79872,
          "time": 52,
          "velocity": 0.3937007874015748
        },
        {
          "duration": 0.125,
          "durationTicks": 192,
          "midi": 60,
          "name": "C4",
          "ticks": 80064,
          "time": 52.125,
          "velocity": 0.3937007874015748
        },
        {
          "duration": 0.125,
          "durationTicks": 192,
          "midi": 60,
          "name": "C4",
          "ticks": 80256,
          "time": 52.25,
          "velocity": 0.3937007874015748
        },
        {
          "duration": 0.125,
          "durationTicks": 192,
          "midi": 60,
          "name": "C4",
          "ticks": 80448,
          "time": 52.375,
          "velocity": 0.3937007874015748
        },
        {
          "duration": 0.125,
          "durationTicks": 192,
          "midi": 60,
          "name": "C4",
          "ticks": 80640,
          "time": 52.5,
          "velocity": 0.3937007874015748
        },
        {
          "duration": 0.125,
          "durationTicks": 192,
          "midi": 60,
          "name": "C4",
          "ticks": 80832,
          "time": 52.625,
          "velocity": 0.3937007874015748
        },
        {
          "duration": 0.125,
          "durationTicks": 192,
          "midi": 60,
          "name": "C4",
          "ticks": 81024,
          "time": 52.75,
          "velocity": 0.3937007874015748
        },
        {
          "duration": 0.125,
          "durationTicks": 192,
          "midi": 60,
          "name": "C4",
          "ticks": 81216,
          "time": 52.875,
          "velocity": 0.3937007874015748
        },
        {
          "duration": 0.125,
          "durationTicks": 192,
          "midi": 60,
          "name": "C4",
          "ticks": 81408,
          "time": 53,
          "velocity": 0.3937007874015748
        },
        {
          "duration": 0.125,
          "durationTicks": 192,
          "midi": 60,
          "name": "C4",
          "ticks": 81600,
          "time": 53.125,
          "velocity": 0.3937007874015748
        },
        {
          "duration": 0.125,
          "durationTicks": 192,
          "midi": 60,
          "name": "C4",
          "ticks": 81792,
          "time": 53.25,
          "velocity": 0.3937007874015748
        },
        {
          "duration": 0.125,
          "durationTicks": 192,
          "midi": 60,
          "name": "C4",
          "ticks": 81984,
          "time": 53.375,
          "velocity": 0.3937007874015748
        },
        {
          "duration": 0.125,
          "durationTicks": 192,
          "midi": 60,
          "name": "C4",
          "ticks": 82176,
          "time": 53.5,
          "velocity": 0.3937007874015748
        },
        {
          "duration": 0.125,
          "durationTicks": 192,
          "midi": 60,
          "name": "C4",
          "ticks": 82368,
          "time": 53.625,
          "velocity": 0.3937007874015748
        },
        {
          "duration": 0.125,
          "durationTicks": 192,
          "midi": 60,
          "name": "C4",
          "ticks": 82560,
          "time": 53.75,
          "velocity": 0.3937007874015748
        },
        {
          "duration": 0.125,
          "durationTicks": 192,
          "midi": 60,
          "name": "C4",
          "ticks": 82752,
          "time": 53.875,
          "velocity": 0.3937007874015748
        },
        {
          "duration": 0.125,
          "durationTicks": 192,
          "midi": 60,
          "name": "C4",
          "ticks": 82944,
          "time": 54,
          "velocity": 0.3937007874015748
        },
        {
          "duration": 0.125,
          "durationTicks": 192,
          "midi": 60,
          "name": "C4",
          "ticks": 83136,
          "time": 54.125,
          "velocity": 0.3937007874015748
        },
        {
          "duration": 0.125,
          "durationTicks": 192,
          "midi": 60,
          "name": "C4",
          "ticks": 83328,
          "time": 54.25,
          "velocity": 0.3937007874015748
        },
        {
          "duration": 0.125,
          "durationTicks": 192,
          "midi": 60,
          "name": "C4",
          "ticks": 83520,
          "time": 54.375,
          "velocity": 0.3937007874015748
        },
        {
          "duration": 0.125,
          "durationTicks": 192,
          "midi": 60,
          "name": "C4",
          "ticks": 83712,
          "time": 54.5,
          "velocity": 0.3937007874015748
        },
        {
          "duration": 0.125,
          "durationTicks": 192,
          "midi": 60,
          "name": "C4",
          "ticks": 83904,
          "time": 54.625,
          "velocity": 0.3937007874015748
        },
        {
          "duration": 0.125,
          "durationTicks": 192,
          "midi": 60,
          "name": "C4",
          "ticks": 84096,
          "time": 54.75,
          "velocity": 0.3937007874015748
        },
        {
          "duration": 0.125,
          "durationTicks": 192,
          "midi": 60,
          "name": "C4",
          "ticks": 84288,
          "time": 54.875,
          "velocity": 0.3937007874015748
        },
        {
          "duration": 0.125,
          "durationTicks": 192,
          "midi": 49,
          "name": "C#3",
          "ticks": 84480,
          "time": 55,
          "velocity": 0.2677165354330709
        },
        {
          "duration": 0.125,
          "durationTicks": 192,
          "midi": 56,
          "name": "G#3",
          "ticks": 84480,
          "time": 55,
          "velocity": 0.3937007874015748
        },
        {
          "duration": 0.125,
          "durationTicks": 192,
          "midi": 52,
          "name": "E3",
          "ticks": 84480,
          "time": 55,
          "velocity": 0.3937007874015748
        },
        {
          "duration": 0.125,
          "durationTicks": 192,
          "midi": 49,
          "name": "C#3",
          "ticks": 84672,
          "time": 55.125,
          "velocity": 0.2677165354330709
        },
        {
          "duration": 0.125,
          "durationTicks": 192,
          "midi": 56,
          "name": "G#3",
          "ticks": 84672,
          "time": 55.125,
          "velocity": 0.3937007874015748
        },
        {
          "duration": 0.125,
          "durationTicks": 192,
          "midi": 52,
          "name": "E3",
          "ticks": 84672,
          "time": 55.125,
          "velocity": 0.3937007874015748
        },
        {
          "duration": 0.125,
          "durationTicks": 192,
          "midi": 49,
          "name": "C#3",
          "ticks": 84864,
          "time": 55.25,
          "velocity": 0.2677165354330709
        },
        {
          "duration": 0.125,
          "durationTicks": 192,
          "midi": 56,
          "name": "G#3",
          "ticks": 84864,
          "time": 55.25,
          "velocity": 0.3937007874015748
        },
        {
          "duration": 0.125,
          "durationTicks": 192,
          "midi": 52,
          "name": "E3",
          "ticks": 84864,
          "time": 55.25,
          "velocity": 0.3937007874015748
        },
        {
          "duration": 0.125,
          "durationTicks": 192,
          "midi": 49,
          "name": "C#3",
          "ticks": 85056,
          "time": 55.375,
          "velocity": 0.2677165354330709
        },
        {
          "duration": 0.125,
          "durationTicks": 192,
          "midi": 56,
          "name": "G#3",
          "ticks": 85056,
          "time": 55.375,
          "velocity": 0.3937007874015748
        },
        {
          "duration": 0.125,
          "durationTicks": 192,
          "midi": 52,
          "name": "E3",
          "ticks": 85056,
          "time": 55.375,
          "velocity": 0.3937007874015748
        },
        {
          "duration": 0.125,
          "durationTicks": 192,
          "midi": 49,
          "name": "C#3",
          "ticks": 85248,
          "time": 55.5,
          "velocity": 0.2677165354330709
        },
        {
          "duration": 0.125,
          "durationTicks": 192,
          "midi": 56,
          "name": "G#3",
          "ticks": 85248,
          "time": 55.5,
          "velocity": 0.3937007874015748
        },
        {
          "duration": 0.125,
          "durationTicks": 192,
          "midi": 52,
          "name": "E3",
          "ticks": 85248,
          "time": 55.5,
          "velocity": 0.3937007874015748
        },
        {
          "duration": 0.125,
          "durationTicks": 192,
          "midi": 52,
          "name": "E3",
          "ticks": 85440,
          "time": 55.625,
          "velocity": 0.3937007874015748
        },
        {
          "duration": 0.125,
          "durationTicks": 192,
          "midi": 49,
          "name": "C#3",
          "ticks": 85440,
          "time": 55.625,
          "velocity": 0.2677165354330709
        },
        {
          "duration": 0.125,
          "durationTicks": 192,
          "midi": 56,
          "name": "G#3",
          "ticks": 85440,
          "time": 55.625,
          "velocity": 0.3937007874015748
        },
        {
          "duration": 0.125,
          "durationTicks": 192,
          "midi": 56,
          "name": "G#3",
          "ticks": 85632,
          "time": 55.75,
          "velocity": 0.3937007874015748
        },
        {
          "duration": 0.125,
          "durationTicks": 192,
          "midi": 52,
          "name": "E3",
          "ticks": 85632,
          "time": 55.75,
          "velocity": 0.3937007874015748
        },
        {
          "duration": 0.125,
          "durationTicks": 192,
          "midi": 49,
          "name": "C#3",
          "ticks": 85632,
          "time": 55.75,
          "velocity": 0.2677165354330709
        },
        {
          "duration": 0.125,
          "durationTicks": 192,
          "midi": 56,
          "name": "G#3",
          "ticks": 85824,
          "time": 55.875,
          "velocity": 0.3937007874015748
        },
        {
          "duration": 0.125,
          "durationTicks": 192,
          "midi": 52,
          "name": "E3",
          "ticks": 85824,
          "time": 55.875,
          "velocity": 0.3937007874015748
        },
        {
          "duration": 0.125,
          "durationTicks": 192,
          "midi": 49,
          "name": "C#3",
          "ticks": 85824,
          "time": 55.875,
          "velocity": 0.2677165354330709
        },
        {
          "duration": 0.125,
          "durationTicks": 192,
          "midi": 52,
          "name": "E3",
          "ticks": 166656,
          "time": 108.5,
          "velocity": 0.3937007874015748
        },
        {
          "duration": 0.125,
          "durationTicks": 192,
          "midi": 57,
          "name": "A3",
          "ticks": 167424,
          "time": 109,
          "velocity": 0.3937007874015748
        },
        {
          "duration": 0.125,
          "durationTicks": 192,
          "midi": 64,
          "name": "E4",
          "ticks": 168192,
          "time": 109.5,
          "velocity": 0.3937007874015748
        },
        {
          "duration": 0.125,
          "durationTicks": 192,
          "midi": 60,
          "name": "C4",
          "ticks": 168960,
          "time": 110,
          "velocity": 0.3937007874015748
        },
        {
          "duration": 0.125,
          "durationTicks": 192,
          "midi": 60,
          "name": "C4",
          "ticks": 169152,
          "time": 110.125,
          "velocity": 0.3937007874015748
        },
        {
          "duration": 0.125,
          "durationTicks": 192,
          "midi": 60,
          "name": "C4",
          "ticks": 169344,
          "time": 110.25,
          "velocity": 0.3937007874015748
        },
        {
          "duration": 0.125,
          "durationTicks": 192,
          "midi": 60,
          "name": "C4",
          "ticks": 169536,
          "time": 110.375,
          "velocity": 0.3937007874015748
        },
        {
          "duration": 0.125,
          "durationTicks": 192,
          "midi": 60,
          "name": "C4",
          "ticks": 169728,
          "time": 110.5,
          "velocity": 0.3937007874015748
        },
        {
          "duration": 0.125,
          "durationTicks": 192,
          "midi": 60,
          "name": "C4",
          "ticks": 169920,
          "time": 110.625,
          "velocity": 0.3937007874015748
        },
        {
          "duration": 0.125,
          "durationTicks": 192,
          "midi": 60,
          "name": "C4",
          "ticks": 170112,
          "time": 110.75,
          "velocity": 0.3937007874015748
        },
        {
          "duration": 0.125,
          "durationTicks": 192,
          "midi": 60,
          "name": "C4",
          "ticks": 170304,
          "time": 110.875,
          "velocity": 0.3937007874015748
        },
        {
          "duration": 0.125,
          "durationTicks": 192,
          "midi": 60,
          "name": "C4",
          "ticks": 170496,
          "time": 111,
          "velocity": 0.3937007874015748
        },
        {
          "duration": 0.125,
          "durationTicks": 192,
          "midi": 60,
          "name": "C4",
          "ticks": 170688,
          "time": 111.125,
          "velocity": 0.3937007874015748
        },
        {
          "duration": 0.125,
          "durationTicks": 192,
          "midi": 60,
          "name": "C4",
          "ticks": 170880,
          "time": 111.25,
          "velocity": 0.3937007874015748
        },
        {
          "duration": 0.125,
          "durationTicks": 192,
          "midi": 60,
          "name": "C4",
          "ticks": 171072,
          "time": 111.375,
          "velocity": 0.3937007874015748
        },
        {
          "duration": 0.125,
          "durationTicks": 192,
          "midi": 60,
          "name": "C4",
          "ticks": 171264,
          "time": 111.5,
          "velocity": 0.3937007874015748
        },
        {
          "duration": 0.125,
          "durationTicks": 192,
          "midi": 60,
          "name": "C4",
          "ticks": 171456,
          "time": 111.625,
          "velocity": 0.3937007874015748
        },
        {
          "duration": 0.125,
          "durationTicks": 192,
          "midi": 60,
          "name": "C4",
          "ticks": 171648,
          "time": 111.75,
          "velocity": 0.3937007874015748
        },
        {
          "duration": 0.125,
          "durationTicks": 192,
          "midi": 60,
          "name": "C4",
          "ticks": 171840,
          "time": 111.875,
          "velocity": 0.3937007874015748
        },
        {
          "duration": 0.125,
          "durationTicks": 192,
          "midi": 60,
          "name": "C4",
          "ticks": 172032,
          "time": 112,
          "velocity": 0.3937007874015748
        },
        {
          "duration": 0.125,
          "durationTicks": 192,
          "midi": 60,
          "name": "C4",
          "ticks": 172224,
          "time": 112.125,
          "velocity": 0.3937007874015748
        },
        {
          "duration": 0.125,
          "durationTicks": 192,
          "midi": 60,
          "name": "C4",
          "ticks": 172416,
          "time": 112.25,
          "velocity": 0.3937007874015748
        },
        {
          "duration": 0.125,
          "durationTicks": 192,
          "midi": 60,
          "name": "C4",
          "ticks": 172608,
          "time": 112.375,
          "velocity": 0.3937007874015748
        },
        {
          "duration": 0.125,
          "durationTicks": 192,
          "midi": 60,
          "name": "C4",
          "ticks": 172800,
          "time": 112.5,
          "velocity": 0.3937007874015748
        },
        {
          "duration": 0.125,
          "durationTicks": 192,
          "midi": 60,
          "name": "C4",
          "ticks": 172992,
          "time": 112.625,
          "velocity": 0.3937007874015748
        },
        {
          "duration": 0.125,
          "durationTicks": 192,
          "midi": 60,
          "name": "C4",
          "ticks": 173184,
          "time": 112.75,
          "velocity": 0.3937007874015748
        },
        {
          "duration": 0.125,
          "durationTicks": 192,
          "midi": 60,
          "name": "C4",
          "ticks": 173376,
          "time": 112.875,
          "velocity": 0.3937007874015748
        },
        {
          "duration": 0.125,
          "durationTicks": 192,
          "midi": 49,
          "name": "C#3",
          "ticks": 173568,
          "time": 113,
          "velocity": 0.2677165354330709
        },
        {
          "duration": 0.125,
          "durationTicks": 192,
          "midi": 56,
          "name": "G#3",
          "ticks": 173568,
          "time": 113,
          "velocity": 0.3937007874015748
        },
        {
          "duration": 0.125,
          "durationTicks": 192,
          "midi": 52,
          "name": "E3",
          "ticks": 173568,
          "time": 113,
          "velocity": 0.3937007874015748
        },
        {
          "duration": 0.125,
          "durationTicks": 192,
          "midi": 52,
          "name": "E3",
          "ticks": 173760,
          "time": 113.125,
          "velocity": 0.3937007874015748
        },
        {
          "duration": 0.125,
          "durationTicks": 192,
          "midi": 56,
          "name": "G#3",
          "ticks": 173760,
          "time": 113.125,
          "velocity": 0.3937007874015748
        },
        {
          "duration": 0.125,
          "durationTicks": 192,
          "midi": 49,
          "name": "C#3",
          "ticks": 173760,
          "time": 113.125,
          "velocity": 0.2677165354330709
        },
        {
          "duration": 0.125,
          "durationTicks": 192,
          "midi": 52,
          "name": "E3",
          "ticks": 173952,
          "time": 113.25,
          "velocity": 0.3937007874015748
        },
        {
          "duration": 0.125,
          "durationTicks": 192,
          "midi": 49,
          "name": "C#3",
          "ticks": 173952,
          "time": 113.25,
          "velocity": 0.2677165354330709
        },
        {
          "duration": 0.125,
          "durationTicks": 192,
          "midi": 56,
          "name": "G#3",
          "ticks": 173952,
          "time": 113.25,
          "velocity": 0.3937007874015748
        },
        {
          "duration": 0.125,
          "durationTicks": 192,
          "midi": 56,
          "name": "G#3",
          "ticks": 174144,
          "time": 113.375,
          "velocity": 0.3937007874015748
        },
        {
          "duration": 0.125,
          "durationTicks": 192,
          "midi": 52,
          "name": "E3",
          "ticks": 174144,
          "time": 113.375,
          "velocity": 0.3937007874015748
        },
        {
          "duration": 0.125,
          "durationTicks": 192,
          "midi": 49,
          "name": "C#3",
          "ticks": 174144,
          "time": 113.375,
          "velocity": 0.2677165354330709
        },
        {
          "duration": 0.125,
          "durationTicks": 192,
          "midi": 49,
          "name": "C#3",
          "ticks": 174336,
          "time": 113.5,
          "velocity": 0.2677165354330709
        },
        {
          "duration": 0.125,
          "durationTicks": 192,
          "midi": 56,
          "name": "G#3",
          "ticks": 174336,
          "time": 113.5,
          "velocity": 0.3937007874015748
        },
        {
          "duration": 0.125,
          "durationTicks": 192,
          "midi": 52,
          "name": "E3",
          "ticks": 174336,
          "time": 113.5,
          "velocity": 0.3937007874015748
        },
        {
          "duration": 0.125,
          "durationTicks": 192,
          "midi": 52,
          "name": "E3",
          "ticks": 174528,
          "time": 113.625,
          "velocity": 0.3937007874015748
        },
        {
          "duration": 0.125,
          "durationTicks": 192,
          "midi": 49,
          "name": "C#3",
          "ticks": 174528,
          "time": 113.625,
          "velocity": 0.2677165354330709
        },
        {
          "duration": 0.125,
          "durationTicks": 192,
          "midi": 56,
          "name": "G#3",
          "ticks": 174528,
          "time": 113.625,
          "velocity": 0.3937007874015748
        },
        {
          "duration": 0.125,
          "durationTicks": 192,
          "midi": 56,
          "name": "G#3",
          "ticks": 174720,
          "time": 113.75,
          "velocity": 0.3937007874015748
        },
        {
          "duration": 0.125,
          "durationTicks": 192,
          "midi": 52,
          "name": "E3",
          "ticks": 174720,
          "time": 113.75,
          "velocity": 0.3937007874015748
        },
        {
          "duration": 0.125,
          "durationTicks": 192,
          "midi": 49,
          "name": "C#3",
          "ticks": 174720,
          "time": 113.75,
          "velocity": 0.2677165354330709
        },
        {
          "duration": 0.125,
          "durationTicks": 192,
          "midi": 56,
          "name": "G#3",
          "ticks": 174912,
          "time": 113.875,
          "velocity": 0.3937007874015748
        },
        {
          "duration": 0.125,
          "durationTicks": 192,
          "midi": 52,
          "name": "E3",
          "ticks": 174912,
          "time": 113.875,
          "velocity": 0.3937007874015748
        },
        {
          "duration": 0.125,
          "durationTicks": 192,
          "midi": 49,
          "name": "C#3",
          "ticks": 174912,
          "time": 113.875,
          "velocity": 0.2677165354330709
        }
      ],
      "endOfTrackTicks": 175104
    },
    {
      "channel": 2,
      "controlChanges": {},
      "pitchBends": [],
      "instrument": {
        "family": "bass",
        "number": 32,
        "name": "acoustic bass"
      },
      "name": "Bass (Classic)",
      "notes": [
        {
          "duration": 0.125,
          "durationTicks": 192,
          "midi": 26,
          "name": "D1",
          "ticks": 5376,
          "time": 3.5,
          "velocity": 0.3937007874015748
        },
        {
          "duration": 0.125,
          "durationTicks": 192,
          "midi": 26,
          "name": "D1",
          "ticks": 7680,
          "time": 5,
          "velocity": 0.3937007874015748
        },
        {
          "duration": 0.125,
          "durationTicks": 192,
          "midi": 26,
          "name": "D1",
          "ticks": 9984,
          "time": 6.5,
          "velocity": 0.3937007874015748
        }
      ],
      "endOfTrackTicks": 10176
    },
    {
      "channel": 3,
      "controlChanges": {},
      "pitchBends": [],
      "instrument": {
        "family": "synth lead",
        "number": 87,
        "name": "lead 8 (bass + lead)"
      },
      "name": "Synth Pluck",
      "notes": [
        {
          "duration": 0.125,
          "durationTicks": 192,
          "midi": 85,
          "name": "C#6",
          "ticks": 34560,
          "time": 22.5,
          "velocity": 0.5905511811023622
        },
        {
          "duration": 0.125,
          "durationTicks": 192,
          "midi": 73,
          "name": "C#5",
          "ticks": 34560,
          "time": 22.5,
          "velocity": 0.5905511811023622
        },
        {
          "duration": 0.125,
          "durationTicks": 192,
          "midi": 85,
          "name": "C#6",
          "ticks": 35328,
          "time": 23,
          "velocity": 0.5905511811023622
        },
        {
          "duration": 0.125,
          "durationTicks": 192,
          "midi": 73,
          "name": "C#5",
          "ticks": 35328,
          "time": 23,
          "velocity": 0.5905511811023622
        },
        {
          "duration": 0.125,
          "durationTicks": 192,
          "midi": 85,
          "name": "C#6",
          "ticks": 36096,
          "time": 23.5,
          "velocity": 0.5905511811023622
        },
        {
          "duration": 0.125,
          "durationTicks": 192,
          "midi": 73,
          "name": "C#5",
          "ticks": 36096,
          "time": 23.5,
          "velocity": 0.5905511811023622
        },
        {
          "duration": 0.125,
          "durationTicks": 192,
          "midi": 73,
          "name": "C#5",
          "ticks": 123648,
          "time": 80.5,
          "velocity": 0.5905511811023622
        },
        {
          "duration": 0.125,
          "durationTicks": 192,
          "midi": 85,
          "name": "C#6",
          "ticks": 123648,
          "time": 80.5,
          "velocity": 0.5905511811023622
        },
        {
          "duration": 0.125,
          "durationTicks": 192,
          "midi": 85,
          "name": "C#6",
          "ticks": 124416,
          "time": 81,
          "velocity": 0.5905511811023622
        },
        {
          "duration": 0.125,
          "durationTicks": 192,
          "midi": 73,
          "name": "C#5",
          "ticks": 124416,
          "time": 81,
          "velocity": 0.5905511811023622
        },
        {
          "duration": 0.125,
          "durationTicks": 192,
          "midi": 85,
          "name": "C#6",
          "ticks": 125184,
          "time": 81.5,
          "velocity": 0.5905511811023622
        },
        {
          "duration": 0.125,
          "durationTicks": 192,
          "midi": 73,
          "name": "C#5",
          "ticks": 125184,
          "time": 81.5,
          "velocity": 0.5905511811023622
        }
      ],
      "endOfTrackTicks": 125376
    },
    {
      "channel": 4,
      "controlChanges": {},
      "pitchBends": [],
      "instrument": {
        "family": "synth effects",
        "number": 99,
        "name": "fx 4 (atmosphere)"
      },
      "name": "Scifi",
      "notes": [
        {
          "duration": 0.0625,
          "durationTicks": 96,
          "midi": 75,
          "name": "D#5",
          "ticks": 83712,
          "time": 54.5,
          "velocity": 0.3937007874015748
        },
        {
          "duration": 0.0625,
          "durationTicks": 96,
          "midi": 97,
          "name": "C#7",
          "ticks": 84480,
          "time": 55,
          "velocity": 0.3937007874015748
        },
        {
          "duration": 0.0625,
          "durationTicks": 96,
          "midi": 73,
          "name": "C#5",
          "ticks": 84480,
          "time": 55,
          "velocity": 0.3937007874015748
        },
        {
          "duration": 0.0625,
          "durationTicks": 96,
          "midi": 75,
          "name": "D#5",
          "ticks": 172800,
          "time": 112.5,
          "velocity": 0.3937007874015748
        },
        {
          "duration": 0.0625,
          "durationTicks": 96,
          "midi": 97,
          "name": "C#7",
          "ticks": 173568,
          "time": 113,
          "velocity": 0.3937007874015748
        },
        {
          "duration": 0.0625,
          "durationTicks": 96,
          "midi": 73,
          "name": "C#5",
          "ticks": 173568,
          "time": 113,
          "velocity": 0.3937007874015748
        }
      ],
      "endOfTrackTicks": 173664
    },
    {
      "channel": 5,
      "controlChanges": {},
      "pitchBends": [],
      "instrument": {
        "family": "brass",
        "number": 60,
        "name": "french horn"
      },
      "name": "French Horn",
      "notes": [
        {
          "duration": 0.125,
          "durationTicks": 192,
          "midi": 36,
          "name": "C2",
          "ticks": 70656,
          "time": 46,
          "velocity": 0.3937007874015748
        },
        {
          "duration": 0.125,
          "durationTicks": 192,
          "midi": 36,
          "name": "C2",
          "ticks": 159744,
          "time": 104,
          "velocity": 0.3937007874015748
        }
      ],
      "endOfTrackTicks": 159936
    },
    {
      "channel": 6,
      "controlChanges": {},
      "pitchBends": [],
      "instrument": {
        "family": "strings",
        "number": 40,
        "name": "violin"
      },
      "name": "Violin",
      "notes": [
        {
          "duration": 0.125,
          "durationTicks": 192,
          "midi": 83,
          "name": "B5",
          "ticks": 36864,
          "time": 24,
          "velocity": 0.14173228346456693
        },
        {
          "duration": 0.125,
          "durationTicks": 192,
          "midi": 71,
          "name": "B4",
          "ticks": 36864,
          "time": 24,
          "velocity": 0.023622047244094488
        },
        {
          "duration": 0.125,
          "durationTicks": 192,
          "midi": 83,
          "name": "B5",
          "ticks": 37632,
          "time": 24.5,
          "velocity": 0.14173228346456693
        },
        {
          "duration": 0.125,
          "durationTicks": 192,
          "midi": 71,
          "name": "B4",
          "ticks": 37632,
          "time": 24.5,
          "velocity": 0.023622047244094488
        },
        {
          "duration": 0.125,
          "durationTicks": 192,
          "midi": 83,
          "name": "B5",
          "ticks": 38400,
          "time": 25,
          "velocity": 0.14173228346456693
        },
        {
          "duration": 0.125,
          "durationTicks": 192,
          "midi": 71,
          "name": "B4",
          "ticks": 38400,
          "time": 25,
          "velocity": 0.023622047244094488
        },
        {
          "duration": 0.125,
          "durationTicks": 192,
          "midi": 83,
          "name": "B5",
          "ticks": 39168,
          "time": 25.5,
          "velocity": 0.14173228346456693
        },
        {
          "duration": 0.125,
          "durationTicks": 192,
          "midi": 71,
          "name": "B4",
          "ticks": 39168,
          "time": 25.5,
          "velocity": 0.023622047244094488
        },
        {
          "duration": 0.125,
          "durationTicks": 192,
          "midi": 71,
          "name": "B4",
          "ticks": 39936,
          "time": 26,
          "velocity": 0.023622047244094488
        },
        {
          "duration": 0.125,
          "durationTicks": 192,
          "midi": 83,
          "name": "B5",
          "ticks": 39936,
          "time": 26,
          "velocity": 0.14173228346456693
        },
        {
          "duration": 0.125,
          "durationTicks": 192,
          "midi": 71,
          "name": "B4",
          "ticks": 40704,
          "time": 26.5,
          "velocity": 0.023622047244094488
        },
        {
          "duration": 0.125,
          "durationTicks": 192,
          "midi": 83,
          "name": "B5",
          "ticks": 40704,
          "time": 26.5,
          "velocity": 0.14173228346456693
        },
        {
          "duration": 0.125,
          "durationTicks": 192,
          "midi": 71,
          "name": "B4",
          "ticks": 41472,
          "time": 27,
          "velocity": 0.023622047244094488
        },
        {
          "duration": 0.125,
          "durationTicks": 192,
          "midi": 83,
          "name": "B5",
          "ticks": 41472,
          "time": 27,
          "velocity": 0.14173228346456693
        },
        {
          "duration": 0.125,
          "durationTicks": 192,
          "midi": 83,
          "name": "B5",
          "ticks": 42240,
          "time": 27.5,
          "velocity": 0.14173228346456693
        },
        {
          "duration": 0.125,
          "durationTicks": 192,
          "midi": 71,
          "name": "B4",
          "ticks": 42240,
          "time": 27.5,
          "velocity": 0.023622047244094488
        },
        {
          "duration": 0.125,
          "durationTicks": 192,
          "midi": 59,
          "name": "B3",
          "ticks": 48768,
          "time": 31.75,
          "velocity": 0.14173228346456693
        },
        {
          "duration": 0.125,
          "durationTicks": 192,
          "midi": 83,
          "name": "B5",
          "ticks": 125952,
          "time": 82,
          "velocity": 0.14173228346456693
        },
        {
          "duration": 0.125,
          "durationTicks": 192,
          "midi": 71,
          "name": "B4",
          "ticks": 125952,
          "time": 82,
          "velocity": 0.023622047244094488
        },
        {
          "duration": 0.125,
          "durationTicks": 192,
          "midi": 83,
          "name": "B5",
          "ticks": 126720,
          "time": 82.5,
          "velocity": 0.14173228346456693
        },
        {
          "duration": 0.125,
          "durationTicks": 192,
          "midi": 71,
          "name": "B4",
          "ticks": 126720,
          "time": 82.5,
          "velocity": 0.023622047244094488
        },
        {
          "duration": 0.125,
          "durationTicks": 192,
          "midi": 83,
          "name": "B5",
          "ticks": 127488,
          "time": 83,
          "velocity": 0.14173228346456693
        },
        {
          "duration": 0.125,
          "durationTicks": 192,
          "midi": 71,
          "name": "B4",
          "ticks": 127488,
          "time": 83,
          "velocity": 0.023622047244094488
        },
        {
          "duration": 0.125,
          "durationTicks": 192,
          "midi": 83,
          "name": "B5",
          "ticks": 128256,
          "time": 83.5,
          "velocity": 0.14173228346456693
        },
        {
          "duration": 0.125,
          "durationTicks": 192,
          "midi": 71,
          "name": "B4",
          "ticks": 128256,
          "time": 83.5,
          "velocity": 0.023622047244094488
        },
        {
          "duration": 0.125,
          "durationTicks": 192,
          "midi": 71,
          "name": "B4",
          "ticks": 129024,
          "time": 84,
          "velocity": 0.023622047244094488
        },
        {
          "duration": 0.125,
          "durationTicks": 192,
          "midi": 83,
          "name": "B5",
          "ticks": 129024,
          "time": 84,
          "velocity": 0.14173228346456693
        },
        {
          "duration": 0.125,
          "durationTicks": 192,
          "midi": 83,
          "name": "B5",
          "ticks": 129792,
          "time": 84.5,
          "velocity": 0.14173228346456693
        },
        {
          "duration": 0.125,
          "durationTicks": 192,
          "midi": 71,
          "name": "B4",
          "ticks": 129792,
          "time": 84.5,
          "velocity": 0.023622047244094488
        },
        {
          "duration": 0.125,
          "durationTicks": 192,
          "midi": 83,
          "name": "B5",
          "ticks": 130560,
          "time": 85,
          "velocity": 0.14173228346456693
        },
        {
          "duration": 0.125,
          "durationTicks": 192,
          "midi": 71,
          "name": "B4",
          "ticks": 130560,
          "time": 85,
          "velocity": 0.023622047244094488
        },
        {
          "duration": 0.125,
          "durationTicks": 192,
          "midi": 83,
          "name": "B5",
          "ticks": 131328,
          "time": 85.5,
          "velocity": 0.14173228346456693
        },
        {
          "duration": 0.125,
          "durationTicks": 192,
          "midi": 71,
          "name": "B4",
          "ticks": 131328,
          "time": 85.5,
          "velocity": 0.023622047244094488
        },
        {
          "duration": 0.125,
          "durationTicks": 192,
          "midi": 59,
          "name": "B3",
          "ticks": 137856,
          "time": 89.75,
          "velocity": 0.14173228346456693
        }
      ],
      "endOfTrackTicks": 138048
    },
    {
      "channel": 7,
      "controlChanges": {},
      "pitchBends": [],
      "instrument": {
        "family": "synth lead",
        "number": 82,
        "name": "lead 3 (calliope)"
      },
      "name": "8-Bit Sine",
      "notes": [
        {
          "duration": 0.125,
          "durationTicks": 192,
          "midi": 62,
          "name": "D4",
          "ticks": 2688,
          "time": 1.75,
          "velocity": 0.3937007874015748
        },
        {
          "duration": 0.125,
          "durationTicks": 192,
          "midi": 71,
          "name": "B4",
          "ticks": 2688,
          "time": 1.75,
          "velocity": 0.3937007874015748
        },
        {
          "duration": 0.125,
          "durationTicks": 192,
          "midi": 64,
          "name": "E4",
          "ticks": 2880,
          "time": 1.875,
          "velocity": 0.3937007874015748
        },
        {
          "duration": 0.125,
          "durationTicks": 192,
          "midi": 73,
          "name": "C#5",
          "ticks": 2880,
          "time": 1.875,
          "velocity": 0.3937007874015748
        },
        {
          "duration": 0.25,
          "durationTicks": 384,
          "midi": 76,
          "name": "E5",
          "ticks": 3072,
          "time": 2,
          "velocity": 0.3937007874015748
        },
        {
          "duration": 0.375,
          "durationTicks": 576,
          "midi": 67,
          "name": "G4",
          "ticks": 3072,
          "time": 2,
          "velocity": 0.3937007874015748
        },
        {
          "duration": 0.0625,
          "durationTicks": 96,
          "midi": 78,
          "name": "F#5",
          "ticks": 3456,
          "time": 2.25,
          "velocity": 0.3937007874015748
        },
        {
          "duration": 0.0625,
          "durationTicks": 96,
          "midi": 76,
          "name": "E5",
          "ticks": 3552,
          "time": 2.3125,
          "velocity": 0.3937007874015748
        },
        {
          "duration": 0.375,
          "durationTicks": 576,
          "midi": 66,
          "name": "F#4",
          "ticks": 3648,
          "time": 2.375,
          "velocity": 0.3937007874015748
        },
        {
          "duration": 0.375,
          "durationTicks": 576,
          "midi": 74,
          "name": "D5",
          "ticks": 3648,
          "time": 2.375,
          "velocity": 0.3937007874015748
        },
        {
          "duration": 0.25,
          "durationTicks": 384,
          "midi": 64,
          "name": "E4",
          "ticks": 4224,
          "time": 2.75,
          "velocity": 0.3937007874015748
        },
        {
          "duration": 0.25,
          "durationTicks": 384,
          "midi": 73,
          "name": "C#5",
          "ticks": 4224,
          "time": 2.75,
          "velocity": 0.3937007874015748
        },
        {
          "duration": 0.5,
          "durationTicks": 768,
          "midi": 62,
          "name": "D4",
          "ticks": 4608,
          "time": 3,
          "velocity": 0.3937007874015748
        },
        {
          "duration": 0.5,
          "durationTicks": 768,
          "midi": 71,
          "name": "B4",
          "ticks": 4608,
          "time": 3,
          "velocity": 0.3937007874015748
        },
        {
          "duration": 0.125,
          "durationTicks": 192,
          "midi": 59,
          "name": "B3",
          "ticks": 5376,
          "time": 3.5,
          "velocity": 0.3937007874015748
        },
        {
          "duration": 0.125,
          "durationTicks": 192,
          "midi": 66,
          "name": "F#4",
          "ticks": 5376,
          "time": 3.5,
          "velocity": 0.3937007874015748
        },
        {
          "duration": 0.125,
          "durationTicks": 192,
          "midi": 62,
          "name": "D4",
          "ticks": 5376,
          "time": 3.5,
          "velocity": 0.3937007874015748
        },
        {
          "duration": 0.125,
          "durationTicks": 192,
          "midi": 71,
          "name": "B4",
          "ticks": 5376,
          "time": 3.5,
          "velocity": 0.3937007874015748
        },
        {
          "duration": 0.125,
          "durationTicks": 192,
          "midi": 78,
          "name": "F#5",
          "ticks": 5376,
          "time": 3.5,
          "velocity": 0.3937007874015748
        },
        {
          "duration": 0.125,
          "durationTicks": 192,
          "midi": 78,
          "name": "F#5",
          "ticks": 5568,
          "time": 3.625,
          "velocity": 0.3937007874015748
        },
        {
          "duration": 0.125,
          "durationTicks": 192,
          "midi": 66,
          "name": "F#4",
          "ticks": 5568,
          "time": 3.625,
          "velocity": 0.3937007874015748
        },
        {
          "duration": 0.125,
          "durationTicks": 192,
          "midi": 62,
          "name": "D4",
          "ticks": 5568,
          "time": 3.625,
          "velocity": 0.3937007874015748
        },
        {
          "duration": 0.125,
          "durationTicks": 192,
          "midi": 59,
          "name": "B3",
          "ticks": 5568,
          "time": 3.625,
          "velocity": 0.3937007874015748
        },
        {
          "duration": 0.125,
          "durationTicks": 192,
          "midi": 71,
          "name": "B4",
          "ticks": 5568,
          "time": 3.625,
          "velocity": 0.3937007874015748
        },
        {
          "duration": 0.125,
          "durationTicks": 192,
          "midi": 71,
          "name": "B4",
          "ticks": 5760,
          "time": 3.75,
          "velocity": 0.3937007874015748
        },
        {
          "duration": 0.125,
          "durationTicks": 192,
          "midi": 78,
          "name": "F#5",
          "ticks": 5760,
          "time": 3.75,
          "velocity": 0.3937007874015748
        },
        {
          "duration": 0.125,
          "durationTicks": 192,
          "midi": 62,
          "name": "D4",
          "ticks": 5760,
          "time": 3.75,
          "velocity": 0.3937007874015748
        },
        {
          "duration": 0.125,
          "durationTicks": 192,
          "midi": 66,
          "name": "F#4",
          "ticks": 5760,
          "time": 3.75,
          "velocity": 0.3937007874015748
        },
        {
          "duration": 0.125,
          "durationTicks": 192,
          "midi": 59,
          "name": "B3",
          "ticks": 5760,
          "time": 3.75,
          "velocity": 0.3937007874015748
        },
        {
          "duration": 0.125,
          "durationTicks": 192,
          "midi": 71,
          "name": "B4",
          "ticks": 5952,
          "time": 3.875,
          "velocity": 0.3937007874015748
        },
        {
          "duration": 0.125,
          "durationTicks": 192,
          "midi": 62,
          "name": "D4",
          "ticks": 5952,
          "time": 3.875,
          "velocity": 0.3937007874015748
        },
        {
          "duration": 0.125,
          "durationTicks": 192,
          "midi": 66,
          "name": "F#4",
          "ticks": 5952,
          "time": 3.875,
          "velocity": 0.3937007874015748
        },
        {
          "duration": 0.125,
          "durationTicks": 192,
          "midi": 78,
          "name": "F#5",
          "ticks": 5952,
          "time": 3.875,
          "velocity": 0.3937007874015748
        },
        {
          "duration": 0.125,
          "durationTicks": 192,
          "midi": 59,
          "name": "B3",
          "ticks": 5952,
          "time": 3.875,
          "velocity": 0.3937007874015748
        },
        {
          "duration": 0.125,
          "durationTicks": 192,
          "midi": 66,
          "name": "F#4",
          "ticks": 6144,
          "time": 4,
          "velocity": 0.3937007874015748
        },
        {
          "duration": 0.125,
          "durationTicks": 192,
          "midi": 62,
          "name": "D4",
          "ticks": 6144,
          "time": 4,
          "velocity": 0.3937007874015748
        },
        {
          "duration": 0.125,
          "durationTicks": 192,
          "midi": 78,
          "name": "F#5",
          "ticks": 6144,
          "time": 4,
          "velocity": 0.3937007874015748
        },
        {
          "duration": 0.125,
          "durationTicks": 192,
          "midi": 71,
          "name": "B4",
          "ticks": 6144,
          "time": 4,
          "velocity": 0.3937007874015748
        },
        {
          "duration": 0.125,
          "durationTicks": 192,
          "midi": 59,
          "name": "B3",
          "ticks": 6144,
          "time": 4,
          "velocity": 0.3937007874015748
        },
        {
          "duration": 0.125,
          "durationTicks": 192,
          "midi": 66,
          "name": "F#4",
          "ticks": 6336,
          "time": 4.125,
          "velocity": 0.3937007874015748
        },
        {
          "duration": 0.125,
          "durationTicks": 192,
          "midi": 62,
          "name": "D4",
          "ticks": 6336,
          "time": 4.125,
          "velocity": 0.3937007874015748
        },
        {
          "duration": 0.125,
          "durationTicks": 192,
          "midi": 59,
          "name": "B3",
          "ticks": 6336,
          "time": 4.125,
          "velocity": 0.3937007874015748
        },
        {
          "duration": 0.125,
          "durationTicks": 192,
          "midi": 71,
          "name": "B4",
          "ticks": 6336,
          "time": 4.125,
          "velocity": 0.3937007874015748
        },
        {
          "duration": 0.125,
          "durationTicks": 192,
          "midi": 78,
          "name": "F#5",
          "ticks": 6336,
          "time": 4.125,
          "velocity": 0.3937007874015748
        },
        {
          "duration": 0.125,
          "durationTicks": 192,
          "midi": 71,
          "name": "B4",
          "ticks": 6528,
          "time": 4.25,
          "velocity": 0.3937007874015748
        },
        {
          "duration": 0.125,
          "durationTicks": 192,
          "midi": 59,
          "name": "B3",
          "ticks": 6528,
          "time": 4.25,
          "velocity": 0.3937007874015748
        },
        {
          "duration": 0.125,
          "durationTicks": 192,
          "midi": 78,
          "name": "F#5",
          "ticks": 6528,
          "time": 4.25,
          "velocity": 0.3937007874015748
        },
        {
          "duration": 0.125,
          "durationTicks": 192,
          "midi": 66,
          "name": "F#4",
          "ticks": 6528,
          "time": 4.25,
          "velocity": 0.3937007874015748
        },
        {
          "duration": 0.125,
          "durationTicks": 192,
          "midi": 62,
          "name": "D4",
          "ticks": 6528,
          "time": 4.25,
          "velocity": 0.3937007874015748
        },
        {
          "duration": 0.125,
          "durationTicks": 192,
          "midi": 78,
          "name": "F#5",
          "ticks": 6720,
          "time": 4.375,
          "velocity": 0.3937007874015748
        },
        {
          "duration": 0.125,
          "durationTicks": 192,
          "midi": 62,
          "name": "D4",
          "ticks": 6720,
          "time": 4.375,
          "velocity": 0.3937007874015748
        },
        {
          "duration": 0.125,
          "durationTicks": 192,
          "midi": 71,
          "name": "B4",
          "ticks": 6720,
          "time": 4.375,
          "velocity": 0.3937007874015748
        },
        {
          "duration": 0.125,
          "durationTicks": 192,
          "midi": 66,
          "name": "F#4",
          "ticks": 6720,
          "time": 4.375,
          "velocity": 0.3937007874015748
        },
        {
          "duration": 0.125,
          "durationTicks": 192,
          "midi": 59,
          "name": "B3",
          "ticks": 6720,
          "time": 4.375,
          "velocity": 0.3937007874015748
        },
        {
          "duration": 0.125,
          "durationTicks": 192,
          "midi": 66,
          "name": "F#4",
          "ticks": 6912,
          "time": 4.5,
          "velocity": 0.3937007874015748
        },
        {
          "duration": 0.125,
          "durationTicks": 192,
          "midi": 78,
          "name": "F#5",
          "ticks": 6912,
          "time": 4.5,
          "velocity": 0.3937007874015748
        },
        {
          "duration": 0.125,
          "durationTicks": 192,
          "midi": 62,
          "name": "D4",
          "ticks": 6912,
          "time": 4.5,
          "velocity": 0.3937007874015748
        },
        {
          "duration": 0.125,
          "durationTicks": 192,
          "midi": 71,
          "name": "B4",
          "ticks": 6912,
          "time": 4.5,
          "velocity": 0.3937007874015748
        },
        {
          "duration": 0.125,
          "durationTicks": 192,
          "midi": 59,
          "name": "B3",
          "ticks": 6912,
          "time": 4.5,
          "velocity": 0.3937007874015748
        },
        {
          "duration": 0.125,
          "durationTicks": 192,
          "midi": 59,
          "name": "B3",
          "ticks": 7104,
          "time": 4.625,
          "velocity": 0.3937007874015748
        },
        {
          "duration": 0.125,
          "durationTicks": 192,
          "midi": 71,
          "name": "B4",
          "ticks": 7104,
          "time": 4.625,
          "velocity": 0.3937007874015748
        },
        {
          "duration": 0.125,
          "durationTicks": 192,
          "midi": 66,
          "name": "F#4",
          "ticks": 7104,
          "time": 4.625,
          "velocity": 0.3937007874015748
        },
        {
          "duration": 0.125,
          "durationTicks": 192,
          "midi": 62,
          "name": "D4",
          "ticks": 7104,
          "time": 4.625,
          "velocity": 0.3937007874015748
        },
        {
          "duration": 0.125,
          "durationTicks": 192,
          "midi": 78,
          "name": "F#5",
          "ticks": 7104,
          "time": 4.625,
          "velocity": 0.3937007874015748
        },
        {
          "duration": 0.125,
          "durationTicks": 192,
          "midi": 59,
          "name": "B3",
          "ticks": 7296,
          "time": 4.75,
          "velocity": 0.3937007874015748
        },
        {
          "duration": 0.125,
          "durationTicks": 192,
          "midi": 66,
          "name": "F#4",
          "ticks": 7296,
          "time": 4.75,
          "velocity": 0.3937007874015748
        },
        {
          "duration": 0.125,
          "durationTicks": 192,
          "midi": 71,
          "name": "B4",
          "ticks": 7296,
          "time": 4.75,
          "velocity": 0.3937007874015748
        },
        {
          "duration": 0.125,
          "durationTicks": 192,
          "midi": 62,
          "name": "D4",
          "ticks": 7296,
          "time": 4.75,
          "velocity": 0.3937007874015748
        },
        {
          "duration": 0.125,
          "durationTicks": 192,
          "midi": 78,
          "name": "F#5",
          "ticks": 7296,
          "time": 4.75,
          "velocity": 0.3937007874015748
        },
        {
          "duration": 0.125,
          "durationTicks": 192,
          "midi": 71,
          "name": "B4",
          "ticks": 7488,
          "time": 4.875,
          "velocity": 0.3937007874015748
        },
        {
          "duration": 0.125,
          "durationTicks": 192,
          "midi": 78,
          "name": "F#5",
          "ticks": 7488,
          "time": 4.875,
          "velocity": 0.3937007874015748
        },
        {
          "duration": 0.125,
          "durationTicks": 192,
          "midi": 66,
          "name": "F#4",
          "ticks": 7488,
          "time": 4.875,
          "velocity": 0.3937007874015748
        },
        {
          "duration": 0.125,
          "durationTicks": 192,
          "midi": 62,
          "name": "D4",
          "ticks": 7488,
          "time": 4.875,
          "velocity": 0.3937007874015748
        },
        {
          "duration": 0.125,
          "durationTicks": 192,
          "midi": 59,
          "name": "B3",
          "ticks": 7488,
          "time": 4.875,
          "velocity": 0.3937007874015748
        },
        {
          "duration": 0.125,
          "durationTicks": 192,
          "midi": 71,
          "name": "B4",
          "ticks": 7680,
          "time": 5,
          "velocity": 0.3937007874015748
        },
        {
          "duration": 0.125,
          "durationTicks": 192,
          "midi": 62,
          "name": "D4",
          "ticks": 7680,
          "time": 5,
          "velocity": 0.3937007874015748
        },
        {
          "duration": 0.125,
          "durationTicks": 192,
          "midi": 59,
          "name": "B3",
          "ticks": 7680,
          "time": 5,
          "velocity": 0.3937007874015748
        },
        {
          "duration": 0.125,
          "durationTicks": 192,
          "midi": 66,
          "name": "F#4",
          "ticks": 7680,
          "time": 5,
          "velocity": 0.3937007874015748
        },
        {
          "duration": 0.125,
          "durationTicks": 192,
          "midi": 78,
          "name": "F#5",
          "ticks": 7680,
          "time": 5,
          "velocity": 0.3937007874015748
        },
        {
          "duration": 0.125,
          "durationTicks": 192,
          "midi": 59,
          "name": "B3",
          "ticks": 7872,
          "time": 5.125,
          "velocity": 0.3937007874015748
        },
        {
          "duration": 0.125,
          "durationTicks": 192,
          "midi": 66,
          "name": "F#4",
          "ticks": 7872,
          "time": 5.125,
          "velocity": 0.3937007874015748
        },
        {
          "duration": 0.125,
          "durationTicks": 192,
          "midi": 78,
          "name": "F#5",
          "ticks": 7872,
          "time": 5.125,
          "velocity": 0.3937007874015748
        },
        {
          "duration": 0.125,
          "durationTicks": 192,
          "midi": 71,
          "name": "B4",
          "ticks": 7872,
          "time": 5.125,
          "velocity": 0.3937007874015748
        },
        {
          "duration": 0.125,
          "durationTicks": 192,
          "midi": 62,
          "name": "D4",
          "ticks": 7872,
          "time": 5.125,
          "velocity": 0.3937007874015748
        },
        {
          "duration": 0.125,
          "durationTicks": 192,
          "midi": 78,
          "name": "F#5",
          "ticks": 8064,
          "time": 5.25,
          "velocity": 0.3937007874015748
        },
        {
          "duration": 0.125,
          "durationTicks": 192,
          "midi": 59,
          "name": "B3",
          "ticks": 8064,
          "time": 5.25,
          "velocity": 0.3937007874015748
        },
        {
          "duration": 0.125,
          "durationTicks": 192,
          "midi": 66,
          "name": "F#4",
          "ticks": 8064,
          "time": 5.25,
          "velocity": 0.3937007874015748
        },
        {
          "duration": 0.125,
          "durationTicks": 192,
          "midi": 71,
          "name": "B4",
          "ticks": 8064,
          "time": 5.25,
          "velocity": 0.3937007874015748
        },
        {
          "duration": 0.125,
          "durationTicks": 192,
          "midi": 62,
          "name": "D4",
          "ticks": 8064,
          "time": 5.25,
          "velocity": 0.3937007874015748
        },
        {
          "duration": 0.125,
          "durationTicks": 192,
          "midi": 66,
          "name": "F#4",
          "ticks": 8256,
          "time": 5.375,
          "velocity": 0.3937007874015748
        },
        {
          "duration": 0.125,
          "durationTicks": 192,
          "midi": 59,
          "name": "B3",
          "ticks": 8256,
          "time": 5.375,
          "velocity": 0.3937007874015748
        },
        {
          "duration": 0.125,
          "durationTicks": 192,
          "midi": 78,
          "name": "F#5",
          "ticks": 8256,
          "time": 5.375,
          "velocity": 0.3937007874015748
        },
        {
          "duration": 0.125,
          "durationTicks": 192,
          "midi": 62,
          "name": "D4",
          "ticks": 8256,
          "time": 5.375,
          "velocity": 0.3937007874015748
        },
        {
          "duration": 0.125,
          "durationTicks": 192,
          "midi": 71,
          "name": "B4",
          "ticks": 8256,
          "time": 5.375,
          "velocity": 0.3937007874015748
        },
        {
          "duration": 0.125,
          "durationTicks": 192,
          "midi": 62,
          "name": "D4",
          "ticks": 8448,
          "time": 5.5,
          "velocity": 0.3937007874015748
        },
        {
          "duration": 0.125,
          "durationTicks": 192,
          "midi": 78,
          "name": "F#5",
          "ticks": 8448,
          "time": 5.5,
          "velocity": 0.3937007874015748
        },
        {
          "duration": 0.125,
          "durationTicks": 192,
          "midi": 66,
          "name": "F#4",
          "ticks": 8448,
          "time": 5.5,
          "velocity": 0.3937007874015748
        },
        {
          "duration": 0.125,
          "durationTicks": 192,
          "midi": 59,
          "name": "B3",
          "ticks": 8448,
          "time": 5.5,
          "velocity": 0.3937007874015748
        },
        {
          "duration": 0.125,
          "durationTicks": 192,
          "midi": 71,
          "name": "B4",
          "ticks": 8448,
          "time": 5.5,
          "velocity": 0.3937007874015748
        },
        {
          "duration": 0.125,
          "durationTicks": 192,
          "midi": 59,
          "name": "B3",
          "ticks": 8640,
          "time": 5.625,
          "velocity": 0.3937007874015748
        },
        {
          "duration": 0.125,
          "durationTicks": 192,
          "midi": 66,
          "name": "F#4",
          "ticks": 8640,
          "time": 5.625,
          "velocity": 0.3937007874015748
        },
        {
          "duration": 0.125,
          "durationTicks": 192,
          "midi": 71,
          "name": "B4",
          "ticks": 8640,
          "time": 5.625,
          "velocity": 0.3937007874015748
        },
        {
          "duration": 0.125,
          "durationTicks": 192,
          "midi": 78,
          "name": "F#5",
          "ticks": 8640,
          "time": 5.625,
          "velocity": 0.3937007874015748
        },
        {
          "duration": 0.125,
          "durationTicks": 192,
          "midi": 62,
          "name": "D4",
          "ticks": 8640,
          "time": 5.625,
          "velocity": 0.3937007874015748
        },
        {
          "duration": 0.125,
          "durationTicks": 192,
          "midi": 59,
          "name": "B3",
          "ticks": 8832,
          "time": 5.75,
          "velocity": 0.3937007874015748
        },
        {
          "duration": 0.125,
          "durationTicks": 192,
          "midi": 71,
          "name": "B4",
          "ticks": 8832,
          "time": 5.75,
          "velocity": 0.3937007874015748
        },
        {
          "duration": 0.125,
          "durationTicks": 192,
          "midi": 66,
          "name": "F#4",
          "ticks": 8832,
          "time": 5.75,
          "velocity": 0.3937007874015748
        },
        {
          "duration": 0.125,
          "durationTicks": 192,
          "midi": 62,
          "name": "D4",
          "ticks": 8832,
          "time": 5.75,
          "velocity": 0.3937007874015748
        },
        {
          "duration": 0.125,
          "durationTicks": 192,
          "midi": 78,
          "name": "F#5",
          "ticks": 8832,
          "time": 5.75,
          "velocity": 0.3937007874015748
        },
        {
          "duration": 0.125,
          "durationTicks": 192,
          "midi": 62,
          "name": "D4",
          "ticks": 9024,
          "time": 5.875,
          "velocity": 0.3937007874015748
        },
        {
          "duration": 0.125,
          "durationTicks": 192,
          "midi": 71,
          "name": "B4",
          "ticks": 9024,
          "time": 5.875,
          "velocity": 0.3937007874015748
        },
        {
          "duration": 0.125,
          "durationTicks": 192,
          "midi": 78,
          "name": "F#5",
          "ticks": 9024,
          "time": 5.875,
          "velocity": 0.3937007874015748
        },
        {
          "duration": 0.125,
          "durationTicks": 192,
          "midi": 66,
          "name": "F#4",
          "ticks": 9024,
          "time": 5.875,
          "velocity": 0.3937007874015748
        },
        {
          "duration": 0.125,
          "durationTicks": 192,
          "midi": 59,
          "name": "B3",
          "ticks": 9024,
          "time": 5.875,
          "velocity": 0.3937007874015748
        },
        {
          "duration": 0.125,
          "durationTicks": 192,
          "midi": 71,
          "name": "B4",
          "ticks": 9216,
          "time": 6,
          "velocity": 0.3937007874015748
        },
        {
          "duration": 0.125,
          "durationTicks": 192,
          "midi": 62,
          "name": "D4",
          "ticks": 9216,
          "time": 6,
          "velocity": 0.3937007874015748
        },
        {
          "duration": 0.125,
          "durationTicks": 192,
          "midi": 66,
          "name": "F#4",
          "ticks": 9216,
          "time": 6,
          "velocity": 0.3937007874015748
        },
        {
          "duration": 0.125,
          "durationTicks": 192,
          "midi": 78,
          "name": "F#5",
          "ticks": 9216,
          "time": 6,
          "velocity": 0.3937007874015748
        },
        {
          "duration": 0.125,
          "durationTicks": 192,
          "midi": 59,
          "name": "B3",
          "ticks": 9216,
          "time": 6,
          "velocity": 0.3937007874015748
        },
        {
          "duration": 0.125,
          "durationTicks": 192,
          "midi": 78,
          "name": "F#5",
          "ticks": 9408,
          "time": 6.125,
          "velocity": 0.3937007874015748
        },
        {
          "duration": 0.125,
          "durationTicks": 192,
          "midi": 59,
          "name": "B3",
          "ticks": 9408,
          "time": 6.125,
          "velocity": 0.3937007874015748
        },
        {
          "duration": 0.125,
          "durationTicks": 192,
          "midi": 66,
          "name": "F#4",
          "ticks": 9408,
          "time": 6.125,
          "velocity": 0.3937007874015748
        },
        {
          "duration": 0.125,
          "durationTicks": 192,
          "midi": 71,
          "name": "B4",
          "ticks": 9408,
          "time": 6.125,
          "velocity": 0.3937007874015748
        },
        {
          "duration": 0.125,
          "durationTicks": 192,
          "midi": 62,
          "name": "D4",
          "ticks": 9408,
          "time": 6.125,
          "velocity": 0.3937007874015748
        },
        {
          "duration": 0.125,
          "durationTicks": 192,
          "midi": 66,
          "name": "F#4",
          "ticks": 9600,
          "time": 6.25,
          "velocity": 0.3937007874015748
        },
        {
          "duration": 0.125,
          "durationTicks": 192,
          "midi": 62,
          "name": "D4",
          "ticks": 9600,
          "time": 6.25,
          "velocity": 0.3937007874015748
        },
        {
          "duration": 0.125,
          "durationTicks": 192,
          "midi": 59,
          "name": "B3",
          "ticks": 9600,
          "time": 6.25,
          "velocity": 0.3937007874015748
        },
        {
          "duration": 0.125,
          "durationTicks": 192,
          "midi": 78,
          "name": "F#5",
          "ticks": 9600,
          "time": 6.25,
          "velocity": 0.3937007874015748
        },
        {
          "duration": 0.125,
          "durationTicks": 192,
          "midi": 71,
          "name": "B4",
          "ticks": 9600,
          "time": 6.25,
          "velocity": 0.3937007874015748
        },
        {
          "duration": 0.125,
          "durationTicks": 192,
          "midi": 62,
          "name": "D4",
          "ticks": 9792,
          "time": 6.375,
          "velocity": 0.3937007874015748
        },
        {
          "duration": 0.125,
          "durationTicks": 192,
          "midi": 66,
          "name": "F#4",
          "ticks": 9792,
          "time": 6.375,
          "velocity": 0.3937007874015748
        },
        {
          "duration": 0.125,
          "durationTicks": 192,
          "midi": 78,
          "name": "F#5",
          "ticks": 9792,
          "time": 6.375,
          "velocity": 0.3937007874015748
        },
        {
          "duration": 0.125,
          "durationTicks": 192,
          "midi": 71,
          "name": "B4",
          "ticks": 9792,
          "time": 6.375,
          "velocity": 0.3937007874015748
        },
        {
          "duration": 0.125,
          "durationTicks": 192,
          "midi": 59,
          "name": "B3",
          "ticks": 9792,
          "time": 6.375,
          "velocity": 0.3937007874015748
        },
        {
          "duration": 0.125,
          "durationTicks": 192,
          "midi": 71,
          "name": "B4",
          "ticks": 9984,
          "time": 6.5,
          "velocity": 0.3937007874015748
        },
        {
          "duration": 0.125,
          "durationTicks": 192,
          "midi": 66,
          "name": "F#4",
          "ticks": 9984,
          "time": 6.5,
          "velocity": 0.3937007874015748
        },
        {
          "duration": 0.125,
          "durationTicks": 192,
          "midi": 78,
          "name": "F#5",
          "ticks": 9984,
          "time": 6.5,
          "velocity": 0.3937007874015748
        },
        {
          "duration": 0.125,
          "durationTicks": 192,
          "midi": 62,
          "name": "D4",
          "ticks": 9984,
          "time": 6.5,
          "velocity": 0.3937007874015748
        },
        {
          "duration": 0.125,
          "durationTicks": 192,
          "midi": 59,
          "name": "B3",
          "ticks": 9984,
          "time": 6.5,
          "velocity": 0.3937007874015748
        },
        {
          "duration": 0.125,
          "durationTicks": 192,
          "midi": 59,
          "name": "B3",
          "ticks": 10176,
          "time": 6.625,
          "velocity": 0.3937007874015748
        },
        {
          "duration": 0.125,
          "durationTicks": 192,
          "midi": 78,
          "name": "F#5",
          "ticks": 10176,
          "time": 6.625,
          "velocity": 0.3937007874015748
        },
        {
          "duration": 0.125,
          "durationTicks": 192,
          "midi": 62,
          "name": "D4",
          "ticks": 10176,
          "time": 6.625,
          "velocity": 0.3937007874015748
        },
        {
          "duration": 0.125,
          "durationTicks": 192,
          "midi": 66,
          "name": "F#4",
          "ticks": 10176,
          "time": 6.625,
          "velocity": 0.3937007874015748
        },
        {
          "duration": 0.125,
          "durationTicks": 192,
          "midi": 71,
          "name": "B4",
          "ticks": 10176,
          "time": 6.625,
          "velocity": 0.3937007874015748
        },
        {
          "duration": 0.125,
          "durationTicks": 192,
          "midi": 78,
          "name": "F#5",
          "ticks": 10368,
          "time": 6.75,
          "velocity": 0.3937007874015748
        },
        {
          "duration": 0.125,
          "durationTicks": 192,
          "midi": 62,
          "name": "D4",
          "ticks": 10368,
          "time": 6.75,
          "velocity": 0.3937007874015748
        },
        {
          "duration": 0.125,
          "durationTicks": 192,
          "midi": 71,
          "name": "B4",
          "ticks": 10368,
          "time": 6.75,
          "velocity": 0.3937007874015748
        },
        {
          "duration": 0.125,
          "durationTicks": 192,
          "midi": 66,
          "name": "F#4",
          "ticks": 10368,
          "time": 6.75,
          "velocity": 0.3937007874015748
        },
        {
          "duration": 0.125,
          "durationTicks": 192,
          "midi": 59,
          "name": "B3",
          "ticks": 10368,
          "time": 6.75,
          "velocity": 0.3937007874015748
        },
        {
          "duration": 0.125,
          "durationTicks": 192,
          "midi": 62,
          "name": "D4",
          "ticks": 10560,
          "time": 6.875,
          "velocity": 0.3937007874015748
        },
        {
          "duration": 0.125,
          "durationTicks": 192,
          "midi": 59,
          "name": "B3",
          "ticks": 10560,
          "time": 6.875,
          "velocity": 0.3937007874015748
        },
        {
          "duration": 0.125,
          "durationTicks": 192,
          "midi": 78,
          "name": "F#5",
          "ticks": 10560,
          "time": 6.875,
          "velocity": 0.3937007874015748
        },
        {
          "duration": 0.125,
          "durationTicks": 192,
          "midi": 71,
          "name": "B4",
          "ticks": 10560,
          "time": 6.875,
          "velocity": 0.3937007874015748
        },
        {
          "duration": 0.125,
          "durationTicks": 192,
          "midi": 66,
          "name": "F#4",
          "ticks": 10560,
          "time": 6.875,
          "velocity": 0.3937007874015748
        },
        {
          "duration": 0.125,
          "durationTicks": 192,
          "midi": 62,
          "name": "D4",
          "ticks": 10752,
          "time": 7,
          "velocity": 0.3937007874015748
        },
        {
          "duration": 0.125,
          "durationTicks": 192,
          "midi": 59,
          "name": "B3",
          "ticks": 10752,
          "time": 7,
          "velocity": 0.3937007874015748
        },
        {
          "duration": 0.125,
          "durationTicks": 192,
          "midi": 66,
          "name": "F#4",
          "ticks": 10752,
          "time": 7,
          "velocity": 0.3937007874015748
        },
        {
          "duration": 0.125,
          "durationTicks": 192,
          "midi": 78,
          "name": "F#5",
          "ticks": 10752,
          "time": 7,
          "velocity": 0.3937007874015748
        },
        {
          "duration": 0.125,
          "durationTicks": 192,
          "midi": 71,
          "name": "B4",
          "ticks": 10752,
          "time": 7,
          "velocity": 0.3937007874015748
        },
        {
          "duration": 0.125,
          "durationTicks": 192,
          "midi": 71,
          "name": "B4",
          "ticks": 10944,
          "time": 7.125,
          "velocity": 0.3937007874015748
        },
        {
          "duration": 0.125,
          "durationTicks": 192,
          "midi": 62,
          "name": "D4",
          "ticks": 10944,
          "time": 7.125,
          "velocity": 0.3937007874015748
        },
        {
          "duration": 0.125,
          "durationTicks": 192,
          "midi": 59,
          "name": "B3",
          "ticks": 10944,
          "time": 7.125,
          "velocity": 0.3937007874015748
        },
        {
          "duration": 0.125,
          "durationTicks": 192,
          "midi": 66,
          "name": "F#4",
          "ticks": 10944,
          "time": 7.125,
          "velocity": 0.3937007874015748
        },
        {
          "duration": 0.125,
          "durationTicks": 192,
          "midi": 78,
          "name": "F#5",
          "ticks": 10944,
          "time": 7.125,
          "velocity": 0.3937007874015748
        },
        {
          "duration": 0.125,
          "durationTicks": 192,
          "midi": 59,
          "name": "B3",
          "ticks": 11136,
          "time": 7.25,
          "velocity": 0.3937007874015748
        },
        {
          "duration": 0.125,
          "durationTicks": 192,
          "midi": 66,
          "name": "F#4",
          "ticks": 11136,
          "time": 7.25,
          "velocity": 0.3937007874015748
        },
        {
          "duration": 0.125,
          "durationTicks": 192,
          "midi": 78,
          "name": "F#5",
          "ticks": 11136,
          "time": 7.25,
          "velocity": 0.3937007874015748
        },
        {
          "duration": 0.125,
          "durationTicks": 192,
          "midi": 62,
          "name": "D4",
          "ticks": 11136,
          "time": 7.25,
          "velocity": 0.3937007874015748
        },
        {
          "duration": 0.125,
          "durationTicks": 192,
          "midi": 71,
          "name": "B4",
          "ticks": 11136,
          "time": 7.25,
          "velocity": 0.3937007874015748
        },
        {
          "duration": 0.125,
          "durationTicks": 192,
          "midi": 66,
          "name": "F#4",
          "ticks": 11328,
          "time": 7.375,
          "velocity": 0.3937007874015748
        },
        {
          "duration": 0.125,
          "durationTicks": 192,
          "midi": 59,
          "name": "B3",
          "ticks": 11328,
          "time": 7.375,
          "velocity": 0.3937007874015748
        },
        {
          "duration": 0.125,
          "durationTicks": 192,
          "midi": 78,
          "name": "F#5",
          "ticks": 11328,
          "time": 7.375,
          "velocity": 0.3937007874015748
        },
        {
          "duration": 0.125,
          "durationTicks": 192,
          "midi": 71,
          "name": "B4",
          "ticks": 11328,
          "time": 7.375,
          "velocity": 0.3937007874015748
        },
        {
          "duration": 0.125,
          "durationTicks": 192,
          "midi": 62,
          "name": "D4",
          "ticks": 11328,
          "time": 7.375,
          "velocity": 0.3937007874015748
        },
        {
          "duration": 0.125,
          "durationTicks": 192,
          "midi": 66,
          "name": "F#4",
          "ticks": 11520,
          "time": 7.5,
          "velocity": 0.3937007874015748
        },
        {
          "duration": 0.125,
          "durationTicks": 192,
          "midi": 62,
          "name": "D4",
          "ticks": 11520,
          "time": 7.5,
          "velocity": 0.3937007874015748
        },
        {
          "duration": 0.125,
          "durationTicks": 192,
          "midi": 78,
          "name": "F#5",
          "ticks": 11520,
          "time": 7.5,
          "velocity": 0.3937007874015748
        },
        {
          "duration": 0.125,
          "durationTicks": 192,
          "midi": 71,
          "name": "B4",
          "ticks": 11520,
          "time": 7.5,
          "velocity": 0.3937007874015748
        },
        {
          "duration": 0.125,
          "durationTicks": 192,
          "midi": 59,
          "name": "B3",
          "ticks": 11520,
          "time": 7.5,
          "velocity": 0.3937007874015748
        },
        {
          "duration": 0.125,
          "durationTicks": 192,
          "midi": 66,
          "name": "F#4",
          "ticks": 11712,
          "time": 7.625,
          "velocity": 0.3937007874015748
        },
        {
          "duration": 0.125,
          "durationTicks": 192,
          "midi": 71,
          "name": "B4",
          "ticks": 11712,
          "time": 7.625,
          "velocity": 0.3937007874015748
        },
        {
          "duration": 0.125,
          "durationTicks": 192,
          "midi": 78,
          "name": "F#5",
          "ticks": 11712,
          "time": 7.625,
          "velocity": 0.3937007874015748
        },
        {
          "duration": 0.125,
          "durationTicks": 192,
          "midi": 62,
          "name": "D4",
          "ticks": 11712,
          "time": 7.625,
          "velocity": 0.3937007874015748
        },
        {
          "duration": 0.125,
          "durationTicks": 192,
          "midi": 59,
          "name": "B3",
          "ticks": 11712,
          "time": 7.625,
          "velocity": 0.3937007874015748
        },
        {
          "duration": 0.125,
          "durationTicks": 192,
          "midi": 62,
          "name": "D4",
          "ticks": 11904,
          "time": 7.75,
          "velocity": 0.3937007874015748
        },
        {
          "duration": 0.125,
          "durationTicks": 192,
          "midi": 66,
          "name": "F#4",
          "ticks": 11904,
          "time": 7.75,
          "velocity": 0.3937007874015748
        },
        {
          "duration": 0.125,
          "durationTicks": 192,
          "midi": 78,
          "name": "F#5",
          "ticks": 11904,
          "time": 7.75,
          "velocity": 0.3937007874015748
        },
        {
          "duration": 0.125,
          "durationTicks": 192,
          "midi": 71,
          "name": "B4",
          "ticks": 11904,
          "time": 7.75,
          "velocity": 0.3937007874015748
        },
        {
          "duration": 0.125,
          "durationTicks": 192,
          "midi": 59,
          "name": "B3",
          "ticks": 11904,
          "time": 7.75,
          "velocity": 0.3937007874015748
        },
        {
          "duration": 0.125,
          "durationTicks": 192,
          "midi": 71,
          "name": "B4",
          "ticks": 12096,
          "time": 7.875,
          "velocity": 0.3937007874015748
        },
        {
          "duration": 0.125,
          "durationTicks": 192,
          "midi": 78,
          "name": "F#5",
          "ticks": 12096,
          "time": 7.875,
          "velocity": 0.3937007874015748
        },
        {
          "duration": 0.125,
          "durationTicks": 192,
          "midi": 59,
          "name": "B3",
          "ticks": 12096,
          "time": 7.875,
          "velocity": 0.3937007874015748
        },
        {
          "duration": 0.125,
          "durationTicks": 192,
          "midi": 66,
          "name": "F#4",
          "ticks": 12096,
          "time": 7.875,
          "velocity": 0.3937007874015748
        },
        {
          "duration": 0.125,
          "durationTicks": 192,
          "midi": 62,
          "name": "D4",
          "ticks": 12096,
          "time": 7.875,
          "velocity": 0.3937007874015748
        },
        {
          "duration": 0.125,
          "durationTicks": 192,
          "midi": 74,
          "name": "D5",
          "ticks": 30336,
          "time": 19.75,
          "velocity": 0.3937007874015748
        },
        {
          "duration": 0.125,
          "durationTicks": 192,
          "midi": 83,
          "name": "B5",
          "ticks": 30336,
          "time": 19.75,
          "velocity": 0.3937007874015748
        },
        {
          "duration": 0.125,
          "durationTicks": 192,
          "midi": 76,
          "name": "E5",
          "ticks": 30528,
          "time": 19.875,
          "velocity": 0.3937007874015748
        },
        {
          "duration": 0.125,
          "durationTicks": 192,
          "midi": 85,
          "name": "C#6",
          "ticks": 30528,
          "time": 19.875,
          "velocity": 0.3937007874015748
        },
        {
          "duration": 0.375,
          "durationTicks": 576,
          "midi": 88,
          "name": "E6",
          "ticks": 30720,
          "time": 20,
          "velocity": 0.3937007874015748
        },
        {
          "duration": 0.375,
          "durationTicks": 576,
          "midi": 79,
          "name": "G5",
          "ticks": 30720,
          "time": 20,
          "velocity": 0.3937007874015748
        },
        {
          "duration": 0.375,
          "durationTicks": 576,
          "midi": 78,
          "name": "F#5",
          "ticks": 31296,
          "time": 20.375,
          "velocity": 0.3937007874015748
        },
        {
          "duration": 0.375,
          "durationTicks": 576,
          "midi": 86,
          "name": "D6",
          "ticks": 31296,
          "time": 20.375,
          "velocity": 0.3937007874015748
        },
        {
          "duration": 0.25,
          "durationTicks": 384,
          "midi": 76,
          "name": "E5",
          "ticks": 31872,
          "time": 20.75,
          "velocity": 0.3937007874015748
        },
        {
          "duration": 0.25,
          "durationTicks": 384,
          "midi": 85,
          "name": "C#6",
          "ticks": 31872,
          "time": 20.75,
          "velocity": 0.3937007874015748
        },
        {
          "duration": 0.5,
          "durationTicks": 768,
          "midi": 83,
          "name": "B5",
          "ticks": 32256,
          "time": 21,
          "velocity": 0.3937007874015748
        },
        {
          "duration": 0.5,
          "durationTicks": 768,
          "midi": 74,
          "name": "D5",
          "ticks": 32256,
          "time": 21,
          "velocity": 0.3937007874015748
        },
        {
          "duration": 0.25,
          "durationTicks": 384,
          "midi": 78,
          "name": "F#5",
          "ticks": 33024,
          "time": 21.5,
          "velocity": 0.3937007874015748
        },
        {
          "duration": 0.25,
          "durationTicks": 384,
          "midi": 74,
          "name": "D5",
          "ticks": 33024,
          "time": 21.5,
          "velocity": 0.3937007874015748
        },
        {
          "duration": 0.5,
          "durationTicks": 768,
          "midi": 71,
          "name": "B4",
          "ticks": 33408,
          "time": 21.75,
          "velocity": 0.3937007874015748
        },
        {
          "duration": 0.5,
          "durationTicks": 768,
          "midi": 79,
          "name": "G5",
          "ticks": 33408,
          "time": 21.75,
          "velocity": 0.3937007874015748
        },
        {
          "duration": 0.25,
          "durationTicks": 384,
          "midi": 85,
          "name": "C#6",
          "ticks": 34176,
          "time": 22.25,
          "velocity": 0.3937007874015748
        },
        {
          "duration": 0.25,
          "durationTicks": 384,
          "midi": 77,
          "name": "F5",
          "ticks": 34176,
          "time": 22.25,
          "velocity": 0.3937007874015748
        },
        {
          "duration": 1.25,
          "durationTicks": 1920,
          "midi": 85,
          "name": "C#6",
          "ticks": 34560,
          "time": 22.5,
          "velocity": 0.3937007874015748
        },
        {
          "duration": 1.25,
          "durationTicks": 1920,
          "midi": 77,
          "name": "F5",
          "ticks": 34560,
          "time": 22.5,
          "velocity": 0.3937007874015748
        },
        {
          "duration": 0.125,
          "durationTicks": 192,
          "midi": 85,
          "name": "C#6",
          "ticks": 36480,
          "time": 23.75,
          "velocity": 0.3937007874015748
        },
        {
          "duration": 0.125,
          "durationTicks": 192,
          "midi": 73,
          "name": "C#5",
          "ticks": 36480,
          "time": 23.75,
          "velocity": 0.3937007874015748
        },
        {
          "duration": 0.125,
          "durationTicks": 192,
          "midi": 86,
          "name": "D6",
          "ticks": 36672,
          "time": 23.875,
          "velocity": 0.3937007874015748
        },
        {
          "duration": 0.125,
          "durationTicks": 192,
          "midi": 74,
          "name": "D5",
          "ticks": 36672,
          "time": 23.875,
          "velocity": 0.3937007874015748
        },
        {
          "duration": 0.375,
          "durationTicks": 576,
          "midi": 76,
          "name": "E5",
          "ticks": 36864,
          "time": 24,
          "velocity": 0.3937007874015748
        },
        {
          "duration": 0.375,
          "durationTicks": 576,
          "midi": 88,
          "name": "E6",
          "ticks": 36864,
          "time": 24,
          "velocity": 0.3937007874015748
        },
        {
          "duration": 0.375,
          "durationTicks": 576,
          "midi": 86,
          "name": "D6",
          "ticks": 37440,
          "time": 24.375,
          "velocity": 0.3937007874015748
        },
        {
          "duration": 0.375,
          "durationTicks": 576,
          "midi": 74,
          "name": "D5",
          "ticks": 37440,
          "time": 24.375,
          "velocity": 0.3937007874015748
        },
        {
          "duration": 0.25,
          "durationTicks": 384,
          "midi": 85,
          "name": "C#6",
          "ticks": 38016,
          "time": 24.75,
          "velocity": 0.3937007874015748
        },
        {
          "duration": 0.25,
          "durationTicks": 384,
          "midi": 73,
          "name": "C#5",
          "ticks": 38016,
          "time": 24.75,
          "velocity": 0.3937007874015748
        },
        {
          "duration": 0.375,
          "durationTicks": 576,
          "midi": 83,
          "name": "B5",
          "ticks": 38400,
          "time": 25,
          "velocity": 0.3937007874015748
        },
        {
          "duration": 0.375,
          "durationTicks": 576,
          "midi": 71,
          "name": "B4",
          "ticks": 38400,
          "time": 25,
          "velocity": 0.3937007874015748
        },
        {
          "duration": 0.0625,
          "durationTicks": 96,
          "midi": 85,
          "name": "C#6",
          "ticks": 38976,
          "time": 25.375,
          "velocity": 0.3937007874015748
        },
        {
          "duration": 0.0625,
          "durationTicks": 96,
          "midi": 73,
          "name": "C#5",
          "ticks": 38976,
          "time": 25.375,
          "velocity": 0.3937007874015748
        },
        {
          "duration": 0.0625,
          "durationTicks": 96,
          "midi": 83,
          "name": "B5",
          "ticks": 39072,
          "time": 25.4375,
          "velocity": 0.3937007874015748
        },
        {
          "duration": 0.0625,
          "durationTicks": 96,
          "midi": 71,
          "name": "B4",
          "ticks": 39072,
          "time": 25.4375,
          "velocity": 0.3937007874015748
        },
        {
          "duration": 1,
          "durationTicks": 1536,
          "midi": 66,
          "name": "F#4",
          "ticks": 39168,
          "time": 25.5,
          "velocity": 0.3937007874015748
        },
        {
          "duration": 1,
          "durationTicks": 1536,
          "midi": 78,
          "name": "F#5",
          "ticks": 39168,
          "time": 25.5,
          "velocity": 0.3937007874015748
        },
        {
          "duration": 0.125,
          "durationTicks": 192,
          "midi": 85,
          "name": "C#6",
          "ticks": 42624,
          "time": 27.75,
          "velocity": 0.3937007874015748
        },
        {
          "duration": 0.125,
          "durationTicks": 192,
          "midi": 73,
          "name": "C#5",
          "ticks": 42624,
          "time": 27.75,
          "velocity": 0.3937007874015748
        },
        {
          "duration": 0.125,
          "durationTicks": 192,
          "midi": 86,
          "name": "D6",
          "ticks": 42816,
          "time": 27.875,
          "velocity": 0.3937007874015748
        },
        {
          "duration": 0.125,
          "durationTicks": 192,
          "midi": 74,
          "name": "D5",
          "ticks": 42816,
          "time": 27.875,
          "velocity": 0.3937007874015748
        },
        {
          "duration": 0.375,
          "durationTicks": 576,
          "midi": 88,
          "name": "E6",
          "ticks": 43008,
          "time": 28,
          "velocity": 0.3937007874015748
        },
        {
          "duration": 0.375,
          "durationTicks": 576,
          "midi": 76,
          "name": "E5",
          "ticks": 43008,
          "time": 28,
          "velocity": 0.3937007874015748
        },
        {
          "duration": 0.375,
          "durationTicks": 576,
          "midi": 86,
          "name": "D6",
          "ticks": 43584,
          "time": 28.375,
          "velocity": 0.3937007874015748
        },
        {
          "duration": 0.375,
          "durationTicks": 576,
          "midi": 74,
          "name": "D5",
          "ticks": 43584,
          "time": 28.375,
          "velocity": 0.3937007874015748
        },
        {
          "duration": 0.25,
          "durationTicks": 384,
          "midi": 85,
          "name": "C#6",
          "ticks": 44160,
          "time": 28.75,
          "velocity": 0.3937007874015748
        },
        {
          "duration": 0.25,
          "durationTicks": 384,
          "midi": 73,
          "name": "C#5",
          "ticks": 44160,
          "time": 28.75,
          "velocity": 0.3937007874015748
        },
        {
          "duration": 0.375,
          "durationTicks": 576,
          "midi": 71,
          "name": "B4",
          "ticks": 44544,
          "time": 29,
          "velocity": 0.3937007874015748
        },
        {
          "duration": 0.375,
          "durationTicks": 576,
          "midi": 83,
          "name": "B5",
          "ticks": 44544,
          "time": 29,
          "velocity": 0.3937007874015748
        },
        {
          "duration": 0.0625,
          "durationTicks": 96,
          "midi": 85,
          "name": "C#6",
          "ticks": 45120,
          "time": 29.375,
          "velocity": 0.3937007874015748
        },
        {
          "duration": 0.0625,
          "durationTicks": 96,
          "midi": 73,
          "name": "C#5",
          "ticks": 45120,
          "time": 29.375,
          "velocity": 0.3937007874015748
        },
        {
          "duration": 0.0625,
          "durationTicks": 96,
          "midi": 86,
          "name": "D6",
          "ticks": 45216,
          "time": 29.4375,
          "velocity": 0.3937007874015748
        },
        {
          "duration": 0.0625,
          "durationTicks": 96,
          "midi": 74,
          "name": "D5",
          "ticks": 45216,
          "time": 29.4375,
          "velocity": 0.3937007874015748
        },
        {
          "duration": 0.0625,
          "durationTicks": 96,
          "midi": 76,
          "name": "E5",
          "ticks": 45312,
          "time": 29.5,
          "velocity": 0.3937007874015748
        },
        {
          "duration": 0.0625,
          "durationTicks": 96,
          "midi": 88,
          "name": "E6",
          "ticks": 45312,
          "time": 29.5,
          "velocity": 0.3937007874015748
        },
        {
          "duration": 1.4375,
          "durationTicks": 2208,
          "midi": 78,
          "name": "F#5",
          "ticks": 45408,
          "time": 29.5625,
          "velocity": 0.3937007874015748
        },
        {
          "duration": 1.4375,
          "durationTicks": 2208,
          "midi": 90,
          "name": "F#6",
          "ticks": 45408,
          "time": 29.5625,
          "velocity": 0.3937007874015748
        },
        {
          "duration": 0.25,
          "durationTicks": 384,
          "midi": 81,
          "name": "A5",
          "ticks": 64128,
          "time": 41.75,
          "velocity": 0.3937007874015748
        },
        {
          "duration": 0.25,
          "durationTicks": 384,
          "midi": 69,
          "name": "A4",
          "ticks": 64128,
          "time": 41.75,
          "velocity": 0.23622047244094488
        },
        {
          "duration": 0.75,
          "durationTicks": 1152,
          "midi": 71,
          "name": "B4",
          "ticks": 64512,
          "time": 42,
          "velocity": 0.23622047244094488
        },
        {
          "duration": 0.75,
          "durationTicks": 1152,
          "midi": 83,
          "name": "B5",
          "ticks": 64512,
          "time": 42,
          "velocity": 0.3937007874015748
        },
        {
          "duration": 0.25,
          "durationTicks": 384,
          "midi": 88,
          "name": "E6",
          "ticks": 65664,
          "time": 42.75,
          "velocity": 0.3937007874015748
        },
        {
          "duration": 0.25,
          "durationTicks": 384,
          "midi": 76,
          "name": "E5",
          "ticks": 65664,
          "time": 42.75,
          "velocity": 0.23622047244094488
        },
        {
          "duration": 2,
          "durationTicks": 3072,
          "midi": 76,
          "name": "E5",
          "ticks": 66048,
          "time": 43,
          "velocity": 0.23622047244094488
        },
        {
          "duration": 2,
          "durationTicks": 3072,
          "midi": 88,
          "name": "E6",
          "ticks": 66048,
          "time": 43,
          "velocity": 0.3937007874015748
        },
        {
          "duration": 0.125,
          "durationTicks": 192,
          "midi": 83,
          "name": "B5",
          "ticks": 119424,
          "time": 77.75,
          "velocity": 0.3937007874015748
        },
        {
          "duration": 0.125,
          "durationTicks": 192,
          "midi": 74,
          "name": "D5",
          "ticks": 119424,
          "time": 77.75,
          "velocity": 0.3937007874015748
        },
        {
          "duration": 0.125,
          "durationTicks": 192,
          "midi": 85,
          "name": "C#6",
          "ticks": 119616,
          "time": 77.875,
          "velocity": 0.3937007874015748
        },
        {
          "duration": 0.125,
          "durationTicks": 192,
          "midi": 76,
          "name": "E5",
          "ticks": 119616,
          "time": 77.875,
          "velocity": 0.3937007874015748
        },
        {
          "duration": 0.375,
          "durationTicks": 576,
          "midi": 79,
          "name": "G5",
          "ticks": 119808,
          "time": 78,
          "velocity": 0.3937007874015748
        },
        {
          "duration": 0.375,
          "durationTicks": 576,
          "midi": 88,
          "name": "E6",
          "ticks": 119808,
          "time": 78,
          "velocity": 0.3937007874015748
        },
        {
          "duration": 0.375,
          "durationTicks": 576,
          "midi": 86,
          "name": "D6",
          "ticks": 120384,
          "time": 78.375,
          "velocity": 0.3937007874015748
        },
        {
          "duration": 0.375,
          "durationTicks": 576,
          "midi": 78,
          "name": "F#5",
          "ticks": 120384,
          "time": 78.375,
          "velocity": 0.3937007874015748
        },
        {
          "duration": 0.25,
          "durationTicks": 384,
          "midi": 76,
          "name": "E5",
          "ticks": 120960,
          "time": 78.75,
          "velocity": 0.3937007874015748
        },
        {
          "duration": 0.25,
          "durationTicks": 384,
          "midi": 85,
          "name": "C#6",
          "ticks": 120960,
          "time": 78.75,
          "velocity": 0.3937007874015748
        },
        {
          "duration": 0.5,
          "durationTicks": 768,
          "midi": 74,
          "name": "D5",
          "ticks": 121344,
          "time": 79,
          "velocity": 0.3937007874015748
        },
        {
          "duration": 0.5,
          "durationTicks": 768,
          "midi": 83,
          "name": "B5",
          "ticks": 121344,
          "time": 79,
          "velocity": 0.3937007874015748
        },
        {
          "duration": 0.25,
          "durationTicks": 384,
          "midi": 78,
          "name": "F#5",
          "ticks": 122112,
          "time": 79.5,
          "velocity": 0.3937007874015748
        },
        {
          "duration": 0.25,
          "durationTicks": 384,
          "midi": 74,
          "name": "D5",
          "ticks": 122112,
          "time": 79.5,
          "velocity": 0.3937007874015748
        },
        {
          "duration": 0.5,
          "durationTicks": 768,
          "midi": 71,
          "name": "B4",
          "ticks": 122496,
          "time": 79.75,
          "velocity": 0.3937007874015748
        },
        {
          "duration": 0.5,
          "durationTicks": 768,
          "midi": 79,
          "name": "G5",
          "ticks": 122496,
          "time": 79.75,
          "velocity": 0.3937007874015748
        },
        {
          "duration": 0.25,
          "durationTicks": 384,
          "midi": 85,
          "name": "C#6",
          "ticks": 123264,
          "time": 80.25,
          "velocity": 0.3937007874015748
        },
        {
          "duration": 0.25,
          "durationTicks": 384,
          "midi": 77,
          "name": "F5",
          "ticks": 123264,
          "time": 80.25,
          "velocity": 0.3937007874015748
        },
        {
          "duration": 1.25,
          "durationTicks": 1920,
          "midi": 85,
          "name": "C#6",
          "ticks": 123648,
          "time": 80.5,
          "velocity": 0.3937007874015748
        },
        {
          "duration": 1.25,
          "durationTicks": 1920,
          "midi": 77,
          "name": "F5",
          "ticks": 123648,
          "time": 80.5,
          "velocity": 0.3937007874015748
        },
        {
          "duration": 0.125,
          "durationTicks": 192,
          "midi": 85,
          "name": "C#6",
          "ticks": 125568,
          "time": 81.75,
          "velocity": 0.3937007874015748
        },
        {
          "duration": 0.125,
          "durationTicks": 192,
          "midi": 73,
          "name": "C#5",
          "ticks": 125568,
          "time": 81.75,
          "velocity": 0.3937007874015748
        },
        {
          "duration": 0.125,
          "durationTicks": 192,
          "midi": 74,
          "name": "D5",
          "ticks": 125760,
          "time": 81.875,
          "velocity": 0.3937007874015748
        },
        {
          "duration": 0.125,
          "durationTicks": 192,
          "midi": 86,
          "name": "D6",
          "ticks": 125760,
          "time": 81.875,
          "velocity": 0.3937007874015748
        },
        {
          "duration": 0.375,
          "durationTicks": 576,
          "midi": 76,
          "name": "E5",
          "ticks": 125952,
          "time": 82,
          "velocity": 0.3937007874015748
        },
        {
          "duration": 0.375,
          "durationTicks": 576,
          "midi": 88,
          "name": "E6",
          "ticks": 125952,
          "time": 82,
          "velocity": 0.3937007874015748
        },
        {
          "duration": 0.375,
          "durationTicks": 576,
          "midi": 86,
          "name": "D6",
          "ticks": 126528,
          "time": 82.375,
          "velocity": 0.3937007874015748
        },
        {
          "duration": 0.375,
          "durationTicks": 576,
          "midi": 74,
          "name": "D5",
          "ticks": 126528,
          "time": 82.375,
          "velocity": 0.3937007874015748
        },
        {
          "duration": 0.25,
          "durationTicks": 384,
          "midi": 73,
          "name": "C#5",
          "ticks": 127104,
          "time": 82.75,
          "velocity": 0.3937007874015748
        },
        {
          "duration": 0.25,
          "durationTicks": 384,
          "midi": 85,
          "name": "C#6",
          "ticks": 127104,
          "time": 82.75,
          "velocity": 0.3937007874015748
        },
        {
          "duration": 0.375,
          "durationTicks": 576,
          "midi": 71,
          "name": "B4",
          "ticks": 127488,
          "time": 83,
          "velocity": 0.3937007874015748
        },
        {
          "duration": 0.375,
          "durationTicks": 576,
          "midi": 83,
          "name": "B5",
          "ticks": 127488,
          "time": 83,
          "velocity": 0.3937007874015748
        },
        {
          "duration": 0.0625,
          "durationTicks": 96,
          "midi": 73,
          "name": "C#5",
          "ticks": 128064,
          "time": 83.375,
          "velocity": 0.3937007874015748
        },
        {
          "duration": 0.0625,
          "durationTicks": 96,
          "midi": 85,
          "name": "C#6",
          "ticks": 128064,
          "time": 83.375,
          "velocity": 0.3937007874015748
        },
        {
          "duration": 0.0625,
          "durationTicks": 96,
          "midi": 71,
          "name": "B4",
          "ticks": 128160,
          "time": 83.4375,
          "velocity": 0.3937007874015748
        },
        {
          "duration": 0.0625,
          "durationTicks": 96,
          "midi": 83,
          "name": "B5",
          "ticks": 128160,
          "time": 83.4375,
          "velocity": 0.3937007874015748
        },
        {
          "duration": 1,
          "durationTicks": 1536,
          "midi": 66,
          "name": "F#4",
          "ticks": 128256,
          "time": 83.5,
          "velocity": 0.3937007874015748
        },
        {
          "duration": 1,
          "durationTicks": 1536,
          "midi": 78,
          "name": "F#5",
          "ticks": 128256,
          "time": 83.5,
          "velocity": 0.3937007874015748
        },
        {
          "duration": 0.125,
          "durationTicks": 192,
          "midi": 85,
          "name": "C#6",
          "ticks": 131712,
          "time": 85.75,
          "velocity": 0.3937007874015748
        },
        {
          "duration": 0.125,
          "durationTicks": 192,
          "midi": 73,
          "name": "C#5",
          "ticks": 131712,
          "time": 85.75,
          "velocity": 0.3937007874015748
        },
        {
          "duration": 0.125,
          "durationTicks": 192,
          "midi": 74,
          "name": "D5",
          "ticks": 131904,
          "time": 85.875,
          "velocity": 0.3937007874015748
        },
        {
          "duration": 0.125,
          "durationTicks": 192,
          "midi": 86,
          "name": "D6",
          "ticks": 131904,
          "time": 85.875,
          "velocity": 0.3937007874015748
        },
        {
          "duration": 0.375,
          "durationTicks": 576,
          "midi": 88,
          "name": "E6",
          "ticks": 132096,
          "time": 86,
          "velocity": 0.3937007874015748
        },
        {
          "duration": 0.375,
          "durationTicks": 576,
          "midi": 76,
          "name": "E5",
          "ticks": 132096,
          "time": 86,
          "velocity": 0.3937007874015748
        },
        {
          "duration": 0.375,
          "durationTicks": 576,
          "midi": 86,
          "name": "D6",
          "ticks": 132672,
          "time": 86.375,
          "velocity": 0.3937007874015748
        },
        {
          "duration": 0.375,
          "durationTicks": 576,
          "midi": 74,
          "name": "D5",
          "ticks": 132672,
          "time": 86.375,
          "velocity": 0.3937007874015748
        },
        {
          "duration": 0.25,
          "durationTicks": 384,
          "midi": 85,
          "name": "C#6",
          "ticks": 133248,
          "time": 86.75,
          "velocity": 0.3937007874015748
        },
        {
          "duration": 0.25,
          "durationTicks": 384,
          "midi": 73,
          "name": "C#5",
          "ticks": 133248,
          "time": 86.75,
          "velocity": 0.3937007874015748
        },
        {
          "duration": 0.375,
          "durationTicks": 576,
          "midi": 71,
          "name": "B4",
          "ticks": 133632,
          "time": 87,
          "velocity": 0.3937007874015748
        },
        {
          "duration": 0.375,
          "durationTicks": 576,
          "midi": 83,
          "name": "B5",
          "ticks": 133632,
          "time": 87,
          "velocity": 0.3937007874015748
        },
        {
          "duration": 0.0625,
          "durationTicks": 96,
          "midi": 73,
          "name": "C#5",
          "ticks": 134208,
          "time": 87.375,
          "velocity": 0.3937007874015748
        },
        {
          "duration": 0.0625,
          "durationTicks": 96,
          "midi": 85,
          "name": "C#6",
          "ticks": 134208,
          "time": 87.375,
          "velocity": 0.3937007874015748
        },
        {
          "duration": 0.0625,
          "durationTicks": 96,
          "midi": 86,
          "name": "D6",
          "ticks": 134304,
          "time": 87.4375,
          "velocity": 0.3937007874015748
        },
        {
          "duration": 0.0625,
          "durationTicks": 96,
          "midi": 74,
          "name": "D5",
          "ticks": 134304,
          "time": 87.4375,
          "velocity": 0.3937007874015748
        },
        {
          "duration": 0.0625,
          "durationTicks": 96,
          "midi": 76,
          "name": "E5",
          "ticks": 134400,
          "time": 87.5,
          "velocity": 0.3937007874015748
        },
        {
          "duration": 0.0625,
          "durationTicks": 96,
          "midi": 88,
          "name": "E6",
          "ticks": 134400,
          "time": 87.5,
          "velocity": 0.3937007874015748
        },
        {
          "duration": 1.4375,
          "durationTicks": 2208,
          "midi": 90,
          "name": "F#6",
          "ticks": 134496,
          "time": 87.5625,
          "velocity": 0.3937007874015748
        },
        {
          "duration": 1.4375,
          "durationTicks": 2208,
          "midi": 78,
          "name": "F#5",
          "ticks": 134496,
          "time": 87.5625,
          "velocity": 0.3937007874015748
        },
        {
          "duration": 0.25,
          "durationTicks": 384,
          "midi": 81,
          "name": "A5",
          "ticks": 153216,
          "time": 99.75,
          "velocity": 0.3937007874015748
        },
        {
          "duration": 0.25,
          "durationTicks": 384,
          "midi": 69,
          "name": "A4",
          "ticks": 153216,
          "time": 99.75,
          "velocity": 0.23622047244094488
        },
        {
          "duration": 0.75,
          "durationTicks": 1152,
          "midi": 71,
          "name": "B4",
          "ticks": 153600,
          "time": 100,
          "velocity": 0.23622047244094488
        },
        {
          "duration": 0.75,
          "durationTicks": 1152,
          "midi": 83,
          "name": "B5",
          "ticks": 153600,
          "time": 100,
          "velocity": 0.3937007874015748
        },
        {
          "duration": 0.25,
          "durationTicks": 384,
          "midi": 88,
          "name": "E6",
          "ticks": 154752,
          "time": 100.75,
          "velocity": 0.3937007874015748
        },
        {
          "duration": 0.25,
          "durationTicks": 384,
          "midi": 76,
          "name": "E5",
          "ticks": 154752,
          "time": 100.75,
          "velocity": 0.23622047244094488
        },
        {
          "duration": 2,
          "durationTicks": 3072,
          "midi": 88,
          "name": "E6",
          "ticks": 155136,
          "time": 101,
          "velocity": 0.3937007874015748
        },
        {
          "duration": 2,
          "durationTicks": 3072,
          "midi": 76,
          "name": "E5",
          "ticks": 155136,
          "time": 101,
          "velocity": 0.23622047244094488
        }
      ],
      "endOfTrackTicks": 158208
    },
    {
      "channel": 8,
      "controlChanges": {},
      "pitchBends": [],
      "instrument": {
        "family": "synth lead",
        "number": 80,
        "name": "lead 1 (square)"
      },
      "name": "8-Bit Square",
      "notes": [
        {
          "duration": 0.125,
          "durationTicks": 192,
          "midi": 52,
          "name": "E3",
          "ticks": 68352,
          "time": 44.5,
          "velocity": 0.7874015748031497
        },
        {
          "duration": 0.125,
          "durationTicks": 192,
          "midi": 44,
          "name": "G#2",
          "ticks": 68352,
          "time": 44.5,
          "velocity": 0.7874015748031497
        },
        {
          "duration": 0.125,
          "durationTicks": 192,
          "midi": 54,
          "name": "F#3",
          "ticks": 68544,
          "time": 44.625,
          "velocity": 0.7874015748031497
        },
        {
          "duration": 0.125,
          "durationTicks": 192,
          "midi": 47,
          "name": "B2",
          "ticks": 68544,
          "time": 44.625,
          "velocity": 0.7874015748031497
        },
        {
          "duration": 0.125,
          "durationTicks": 192,
          "midi": 56,
          "name": "G#3",
          "ticks": 68736,
          "time": 44.75,
          "velocity": 0.7874015748031497
        },
        {
          "duration": 0.125,
          "durationTicks": 192,
          "midi": 50,
          "name": "D3",
          "ticks": 68736,
          "time": 44.75,
          "velocity": 0.7874015748031497
        },
        {
          "duration": 0.125,
          "durationTicks": 192,
          "midi": 59,
          "name": "B3",
          "ticks": 68928,
          "time": 44.875,
          "velocity": 0.7874015748031497
        },
        {
          "duration": 0.125,
          "durationTicks": 192,
          "midi": 52,
          "name": "E3",
          "ticks": 68928,
          "time": 44.875,
          "velocity": 0.7874015748031497
        },
        {
          "duration": 0.125,
          "durationTicks": 192,
          "midi": 47,
          "name": "B2",
          "ticks": 69120,
          "time": 45,
          "velocity": 0.7874015748031497
        },
        {
          "duration": 0.125,
          "durationTicks": 192,
          "midi": 56,
          "name": "G#3",
          "ticks": 69120,
          "time": 45,
          "velocity": 0.7874015748031497
        },
        {
          "duration": 0.125,
          "durationTicks": 192,
          "midi": 57,
          "name": "A3",
          "ticks": 69312,
          "time": 45.125,
          "velocity": 0.7874015748031497
        },
        {
          "duration": 0.125,
          "durationTicks": 192,
          "midi": 50,
          "name": "D3",
          "ticks": 69312,
          "time": 45.125,
          "velocity": 0.7874015748031497
        },
        {
          "duration": 0.125,
          "durationTicks": 192,
          "midi": 59,
          "name": "B3",
          "ticks": 69504,
          "time": 45.25,
          "velocity": 0.7874015748031497
        },
        {
          "duration": 0.125,
          "durationTicks": 192,
          "midi": 52,
          "name": "E3",
          "ticks": 69504,
          "time": 45.25,
          "velocity": 0.7874015748031497
        },
        {
          "duration": 0.125,
          "durationTicks": 192,
          "midi": 64,
          "name": "E4",
          "ticks": 69696,
          "time": 45.375,
          "velocity": 0.7874015748031497
        },
        {
          "duration": 0.125,
          "durationTicks": 192,
          "midi": 56,
          "name": "G#3",
          "ticks": 69696,
          "time": 45.375,
          "velocity": 0.7874015748031497
        },
        {
          "duration": 0.125,
          "durationTicks": 192,
          "midi": 60,
          "name": "C4",
          "ticks": 69888,
          "time": 45.5,
          "velocity": 0.7874015748031497
        },
        {
          "duration": 0.125,
          "durationTicks": 192,
          "midi": 52,
          "name": "E3",
          "ticks": 69888,
          "time": 45.5,
          "velocity": 0.7874015748031497
        },
        {
          "duration": 0.125,
          "durationTicks": 192,
          "midi": 56,
          "name": "G#3",
          "ticks": 70080,
          "time": 45.625,
          "velocity": 0.7874015748031497
        },
        {
          "duration": 0.125,
          "durationTicks": 192,
          "midi": 62,
          "name": "D4",
          "ticks": 70080,
          "time": 45.625,
          "velocity": 0.7874015748031497
        },
        {
          "duration": 0.125,
          "durationTicks": 192,
          "midi": 64,
          "name": "E4",
          "ticks": 70272,
          "time": 45.75,
          "velocity": 0.7874015748031497
        },
        {
          "duration": 0.125,
          "durationTicks": 192,
          "midi": 59,
          "name": "B3",
          "ticks": 70272,
          "time": 45.75,
          "velocity": 0.7874015748031497
        },
        {
          "duration": 0.125,
          "durationTicks": 192,
          "midi": 71,
          "name": "B4",
          "ticks": 70464,
          "time": 45.875,
          "velocity": 0.7874015748031497
        },
        {
          "duration": 0.125,
          "durationTicks": 192,
          "midi": 62,
          "name": "D4",
          "ticks": 70464,
          "time": 45.875,
          "velocity": 0.7874015748031497
        },
        {
          "duration": 3,
          "durationTicks": 4608,
          "midi": 69,
          "name": "A4",
          "ticks": 70656,
          "time": 46,
          "velocity": 0.7874015748031497
        },
        {
          "duration": 3,
          "durationTicks": 4608,
          "midi": 64,
          "name": "E4",
          "ticks": 70656,
          "time": 46,
          "velocity": 0.7874015748031497
        },
        {
          "duration": 0.125,
          "durationTicks": 192,
          "midi": 52,
          "name": "E3",
          "ticks": 157440,
          "time": 102.5,
          "velocity": 0.7874015748031497
        },
        {
          "duration": 0.125,
          "durationTicks": 192,
          "midi": 44,
          "name": "G#2",
          "ticks": 157440,
          "time": 102.5,
          "velocity": 0.7874015748031497
        },
        {
          "duration": 0.125,
          "durationTicks": 192,
          "midi": 47,
          "name": "B2",
          "ticks": 157632,
          "time": 102.625,
          "velocity": 0.7874015748031497
        },
        {
          "duration": 0.125,
          "durationTicks": 192,
          "midi": 54,
          "name": "F#3",
          "ticks": 157632,
          "time": 102.625,
          "velocity": 0.7874015748031497
        },
        {
          "duration": 0.125,
          "durationTicks": 192,
          "midi": 50,
          "name": "D3",
          "ticks": 157824,
          "time": 102.75,
          "velocity": 0.7874015748031497
        },
        {
          "duration": 0.125,
          "durationTicks": 192,
          "midi": 56,
          "name": "G#3",
          "ticks": 157824,
          "time": 102.75,
          "velocity": 0.7874015748031497
        },
        {
          "duration": 0.125,
          "durationTicks": 192,
          "midi": 59,
          "name": "B3",
          "ticks": 158016,
          "time": 102.875,
          "velocity": 0.7874015748031497
        },
        {
          "duration": 0.125,
          "durationTicks": 192,
          "midi": 52,
          "name": "E3",
          "ticks": 158016,
          "time": 102.875,
          "velocity": 0.7874015748031497
        },
        {
          "duration": 0.125,
          "durationTicks": 192,
          "midi": 47,
          "name": "B2",
          "ticks": 158208,
          "time": 103,
          "velocity": 0.7874015748031497
        },
        {
          "duration": 0.125,
          "durationTicks": 192,
          "midi": 56,
          "name": "G#3",
          "ticks": 158208,
          "time": 103,
          "velocity": 0.7874015748031497
        },
        {
          "duration": 0.125,
          "durationTicks": 192,
          "midi": 50,
          "name": "D3",
          "ticks": 158400,
          "time": 103.125,
          "velocity": 0.7874015748031497
        },
        {
          "duration": 0.125,
          "durationTicks": 192,
          "midi": 57,
          "name": "A3",
          "ticks": 158400,
          "time": 103.125,
          "velocity": 0.7874015748031497
        },
        {
          "duration": 0.125,
          "durationTicks": 192,
          "midi": 59,
          "name": "B3",
          "ticks": 158592,
          "time": 103.25,
          "velocity": 0.7874015748031497
        },
        {
          "duration": 0.125,
          "durationTicks": 192,
          "midi": 52,
          "name": "E3",
          "ticks": 158592,
          "time": 103.25,
          "velocity": 0.7874015748031497
        },
        {
          "duration": 0.125,
          "durationTicks": 192,
          "midi": 56,
          "name": "G#3",
          "ticks": 158784,
          "time": 103.375,
          "velocity": 0.7874015748031497
        },
        {
          "duration": 0.125,
          "durationTicks": 192,
          "midi": 64,
          "name": "E4",
          "ticks": 158784,
          "time": 103.375,
          "velocity": 0.7874015748031497
        },
        {
          "duration": 0.125,
          "durationTicks": 192,
          "midi": 60,
          "name": "C4",
          "ticks": 158976,
          "time": 103.5,
          "velocity": 0.7874015748031497
        },
        {
          "duration": 0.125,
          "durationTicks": 192,
          "midi": 52,
          "name": "E3",
          "ticks": 158976,
          "time": 103.5,
          "velocity": 0.7874015748031497
        },
        {
          "duration": 0.125,
          "durationTicks": 192,
          "midi": 56,
          "name": "G#3",
          "ticks": 159168,
          "time": 103.625,
          "velocity": 0.7874015748031497
        },
        {
          "duration": 0.125,
          "durationTicks": 192,
          "midi": 62,
          "name": "D4",
          "ticks": 159168,
          "time": 103.625,
          "velocity": 0.7874015748031497
        },
        {
          "duration": 0.125,
          "durationTicks": 192,
          "midi": 64,
          "name": "E4",
          "ticks": 159360,
          "time": 103.75,
          "velocity": 0.7874015748031497
        },
        {
          "duration": 0.125,
          "durationTicks": 192,
          "midi": 59,
          "name": "B3",
          "ticks": 159360,
          "time": 103.75,
          "velocity": 0.7874015748031497
        },
        {
          "duration": 0.125,
          "durationTicks": 192,
          "midi": 71,
          "name": "B4",
          "ticks": 159552,
          "time": 103.875,
          "velocity": 0.7874015748031497
        },
        {
          "duration": 0.125,
          "durationTicks": 192,
          "midi": 62,
          "name": "D4",
          "ticks": 159552,
          "time": 103.875,
          "velocity": 0.7874015748031497
        },
        {
          "duration": 3,
          "durationTicks": 4608,
          "midi": 69,
          "name": "A4",
          "ticks": 159744,
          "time": 104,
          "velocity": 0.7874015748031497
        },
        {
          "duration": 3,
          "durationTicks": 4608,
          "midi": 64,
          "name": "E4",
          "ticks": 159744,
          "time": 104,
          "velocity": 0.7874015748031497
        }
      ],
      "endOfTrackTicks": 164352
    },
    {
      "channel": 10,
      "controlChanges": {},
      "pitchBends": [],
      "instrument": {
        "family": "synth lead",
        "number": 81,
        "name": "lead 2 (sawtooth)"
      },
      "name": "8-Bit Sawtooth",
      "notes": [
        {
          "duration": 0.125,
          "durationTicks": 192,
          "midi": 68,
          "name": "G#4",
          "ticks": 61056,
          "time": 39.75,
          "velocity": 0.3937007874015748
        },
        {
          "duration": 0.125,
          "durationTicks": 192,
          "midi": 56,
          "name": "G#3",
          "ticks": 61056,
          "time": 39.75,
          "velocity": 0.3937007874015748
        },
        {
          "duration": 0.125,
          "durationTicks": 192,
          "midi": 58,
          "name": "A#3",
          "ticks": 61248,
          "time": 39.875,
          "velocity": 0.3937007874015748
        },
        {
          "duration": 0.125,
          "durationTicks": 192,
          "midi": 70,
          "name": "A#4",
          "ticks": 61248,
          "time": 39.875,
          "velocity": 0.3937007874015748
        },
        {
          "duration": 0.875,
          "durationTicks": 1344,
          "midi": 60,
          "name": "C4",
          "ticks": 61440,
          "time": 40,
          "velocity": 0.3937007874015748
        },
        {
          "duration": 0.875,
          "durationTicks": 1344,
          "midi": 72,
          "name": "C5",
          "ticks": 61440,
          "time": 40,
          "velocity": 0.3937007874015748
        },
        {
          "duration": 0.0625,
          "durationTicks": 96,
          "midi": 74,
          "name": "D5",
          "ticks": 62784,
          "time": 40.875,
          "velocity": 0.3937007874015748
        },
        {
          "duration": 0.0625,
          "durationTicks": 96,
          "midi": 62,
          "name": "D4",
          "ticks": 62784,
          "time": 40.875,
          "velocity": 0.3937007874015748
        },
        {
          "duration": 0.0625,
          "durationTicks": 96,
          "midi": 60,
          "name": "C4",
          "ticks": 62880,
          "time": 40.9375,
          "velocity": 0.3937007874015748
        },
        {
          "duration": 0.0625,
          "durationTicks": 96,
          "midi": 72,
          "name": "C5",
          "ticks": 62880,
          "time": 40.9375,
          "velocity": 0.3937007874015748
        },
        {
          "duration": 1,
          "durationTicks": 1536,
          "midi": 55,
          "name": "G3",
          "ticks": 62976,
          "time": 41,
          "velocity": 0.3937007874015748
        },
        {
          "duration": 1,
          "durationTicks": 1536,
          "midi": 67,
          "name": "G4",
          "ticks": 62976,
          "time": 41,
          "velocity": 0.3937007874015748
        },
        {
          "duration": 0.125,
          "durationTicks": 192,
          "midi": 56,
          "name": "G#3",
          "ticks": 150144,
          "time": 97.75,
          "velocity": 0.3937007874015748
        },
        {
          "duration": 0.125,
          "durationTicks": 192,
          "midi": 68,
          "name": "G#4",
          "ticks": 150144,
          "time": 97.75,
          "velocity": 0.3937007874015748
        },
        {
          "duration": 0.125,
          "durationTicks": 192,
          "midi": 58,
          "name": "A#3",
          "ticks": 150336,
          "time": 97.875,
          "velocity": 0.3937007874015748
        },
        {
          "duration": 0.125,
          "durationTicks": 192,
          "midi": 70,
          "name": "A#4",
          "ticks": 150336,
          "time": 97.875,
          "velocity": 0.3937007874015748
        },
        {
          "duration": 0.875,
          "durationTicks": 1344,
          "midi": 60,
          "name": "C4",
          "ticks": 150528,
          "time": 98,
          "velocity": 0.3937007874015748
        },
        {
          "duration": 0.875,
          "durationTicks": 1344,
          "midi": 72,
          "name": "C5",
          "ticks": 150528,
          "time": 98,
          "velocity": 0.3937007874015748
        },
        {
          "duration": 0.0625,
          "durationTicks": 96,
          "midi": 74,
          "name": "D5",
          "ticks": 151872,
          "time": 98.875,
          "velocity": 0.3937007874015748
        },
        {
          "duration": 0.0625,
          "durationTicks": 96,
          "midi": 62,
          "name": "D4",
          "ticks": 151872,
          "time": 98.875,
          "velocity": 0.3937007874015748
        },
        {
          "duration": 0.0625,
          "durationTicks": 96,
          "midi": 60,
          "name": "C4",
          "ticks": 151968,
          "time": 98.9375,
          "velocity": 0.3937007874015748
        },
        {
          "duration": 0.0625,
          "durationTicks": 96,
          "midi": 72,
          "name": "C5",
          "ticks": 151968,
          "time": 98.9375,
          "velocity": 0.3937007874015748
        },
        {
          "duration": 1,
          "durationTicks": 1536,
          "midi": 55,
          "name": "G3",
          "ticks": 152064,
          "time": 99,
          "velocity": 0.3937007874015748
        },
        {
          "duration": 1,
          "durationTicks": 1536,
          "midi": 67,
          "name": "G4",
          "ticks": 152064,
          "time": 99,
          "velocity": 0.3937007874015748
        }
      ],
      "endOfTrackTicks": 153600
    },
    {
      "channel": 11,
      "controlChanges": {},
      "pitchBends": [],
      "instrument": {
        "family": "synth lead",
        "number": 87,
        "name": "lead 8 (bass + lead)"
      },
      "name": "8-Bit Triangle",
      "notes": [
        {
          "duration": 0.375,
          "durationTicks": 576,
          "midi": 23,
          "name": "B0",
          "ticks": 12288,
          "time": 8,
          "velocity": 0.3937007874015748
        },
        {
          "duration": 0.375,
          "durationTicks": 576,
          "midi": 23,
          "name": "B0",
          "ticks": 13056,
          "time": 8.5,
          "velocity": 0.3937007874015748
        },
        {
          "duration": 0.25,
          "durationTicks": 384,
          "midi": 25,
          "name": "C#1",
          "ticks": 13632,
          "time": 8.875,
          "velocity": 0.3937007874015748
        },
        {
          "duration": 0.25,
          "durationTicks": 384,
          "midi": 25,
          "name": "C#1",
          "ticks": 14208,
          "time": 9.25,
          "velocity": 0.3937007874015748
        },
        {
          "duration": 0.25,
          "durationTicks": 384,
          "midi": 25,
          "name": "C#1",
          "ticks": 14784,
          "time": 9.625,
          "velocity": 0.3937007874015748
        },
        {
          "duration": 0.375,
          "durationTicks": 576,
          "midi": 26,
          "name": "D1",
          "ticks": 15360,
          "time": 10,
          "velocity": 0.3937007874015748
        },
        {
          "duration": 0.375,
          "durationTicks": 576,
          "midi": 26,
          "name": "D1",
          "ticks": 16128,
          "time": 10.5,
          "velocity": 0.3937007874015748
        },
        {
          "duration": 0.25,
          "durationTicks": 384,
          "midi": 31,
          "name": "G1",
          "ticks": 16704,
          "time": 10.875,
          "velocity": 0.3937007874015748
        },
        {
          "duration": 0.25,
          "durationTicks": 384,
          "midi": 31,
          "name": "G1",
          "ticks": 17280,
          "time": 11.25,
          "velocity": 0.3937007874015748
        },
        {
          "duration": 0.25,
          "durationTicks": 384,
          "midi": 31,
          "name": "G1",
          "ticks": 17856,
          "time": 11.625,
          "velocity": 0.3937007874015748
        },
        {
          "duration": 0.375,
          "durationTicks": 576,
          "midi": 31,
          "name": "G1",
          "ticks": 18432,
          "time": 12,
          "velocity": 0.3937007874015748
        },
        {
          "duration": 0.375,
          "durationTicks": 576,
          "midi": 31,
          "name": "G1",
          "ticks": 19200,
          "time": 12.5,
          "velocity": 0.3937007874015748
        },
        {
          "duration": 0.25,
          "durationTicks": 384,
          "midi": 34,
          "name": "A#1",
          "ticks": 19776,
          "time": 12.875,
          "velocity": 0.3937007874015748
        },
        {
          "duration": 0.25,
          "durationTicks": 384,
          "midi": 34,
          "name": "A#1",
          "ticks": 20352,
          "time": 13.25,
          "velocity": 0.3937007874015748
        },
        {
          "duration": 0.25,
          "durationTicks": 384,
          "midi": 34,
          "name": "A#1",
          "ticks": 20928,
          "time": 13.625,
          "velocity": 0.3937007874015748
        },
        {
          "duration": 0.375,
          "durationTicks": 576,
          "midi": 26,
          "name": "D1",
          "ticks": 21504,
          "time": 14,
          "velocity": 0.3937007874015748
        },
        {
          "duration": 0.375,
          "durationTicks": 576,
          "midi": 26,
          "name": "D1",
          "ticks": 22272,
          "time": 14.5,
          "velocity": 0.3937007874015748
        },
        {
          "duration": 0.25,
          "durationTicks": 384,
          "midi": 28,
          "name": "E1",
          "ticks": 22848,
          "time": 14.875,
          "velocity": 0.3937007874015748
        },
        {
          "duration": 0.25,
          "durationTicks": 384,
          "midi": 28,
          "name": "E1",
          "ticks": 23424,
          "time": 15.25,
          "velocity": 0.3937007874015748
        },
        {
          "duration": 0.25,
          "durationTicks": 384,
          "midi": 28,
          "name": "E1",
          "ticks": 24000,
          "time": 15.625,
          "velocity": 0.3937007874015748
        },
        {
          "duration": 0.375,
          "durationTicks": 576,
          "midi": 30,
          "name": "F#1",
          "ticks": 24576,
          "time": 16,
          "velocity": 0.3937007874015748
        },
        {
          "duration": 0.375,
          "durationTicks": 576,
          "midi": 30,
          "name": "F#1",
          "ticks": 25344,
          "time": 16.5,
          "velocity": 0.3937007874015748
        },
        {
          "duration": 0.25,
          "durationTicks": 384,
          "midi": 31,
          "name": "G1",
          "ticks": 25920,
          "time": 16.875,
          "velocity": 0.3937007874015748
        },
        {
          "duration": 0.25,
          "durationTicks": 384,
          "midi": 31,
          "name": "G1",
          "ticks": 26496,
          "time": 17.25,
          "velocity": 0.3937007874015748
        },
        {
          "duration": 0.25,
          "durationTicks": 384,
          "midi": 31,
          "name": "G1",
          "ticks": 27072,
          "time": 17.625,
          "velocity": 0.3937007874015748
        },
        {
          "duration": 0.375,
          "durationTicks": 576,
          "midi": 34,
          "name": "A#1",
          "ticks": 27648,
          "time": 18,
          "velocity": 0.3937007874015748
        },
        {
          "duration": 0.375,
          "durationTicks": 576,
          "midi": 34,
          "name": "A#1",
          "ticks": 28416,
          "time": 18.5,
          "velocity": 0.3937007874015748
        },
        {
          "duration": 0.25,
          "durationTicks": 384,
          "midi": 30,
          "name": "F#1",
          "ticks": 28992,
          "time": 18.875,
          "velocity": 0.3937007874015748
        },
        {
          "duration": 0.25,
          "durationTicks": 384,
          "midi": 30,
          "name": "F#1",
          "ticks": 29568,
          "time": 19.25,
          "velocity": 0.3937007874015748
        },
        {
          "duration": 0.25,
          "durationTicks": 384,
          "midi": 30,
          "name": "F#1",
          "ticks": 30144,
          "time": 19.625,
          "velocity": 0.3937007874015748
        },
        {
          "duration": 0.375,
          "durationTicks": 576,
          "midi": 31,
          "name": "G1",
          "ticks": 30720,
          "time": 20,
          "velocity": 0.3937007874015748
        },
        {
          "duration": 0.375,
          "durationTicks": 576,
          "midi": 31,
          "name": "G1",
          "ticks": 31488,
          "time": 20.5,
          "velocity": 0.3937007874015748
        },
        {
          "duration": 0.25,
          "durationTicks": 384,
          "midi": 30,
          "name": "F#1",
          "ticks": 32064,
          "time": 20.875,
          "velocity": 0.3937007874015748
        },
        {
          "duration": 0.25,
          "durationTicks": 384,
          "midi": 30,
          "name": "F#1",
          "ticks": 32640,
          "time": 21.25,
          "velocity": 0.3937007874015748
        },
        {
          "duration": 0.25,
          "durationTicks": 384,
          "midi": 30,
          "name": "F#1",
          "ticks": 33216,
          "time": 21.625,
          "velocity": 0.3937007874015748
        },
        {
          "duration": 0.375,
          "durationTicks": 576,
          "midi": 29,
          "name": "F1",
          "ticks": 33792,
          "time": 22,
          "velocity": 0.3937007874015748
        },
        {
          "duration": 0.375,
          "durationTicks": 576,
          "midi": 29,
          "name": "F1",
          "ticks": 34560,
          "time": 22.5,
          "velocity": 0.3937007874015748
        },
        {
          "duration": 0.25,
          "durationTicks": 384,
          "midi": 29,
          "name": "F1",
          "ticks": 35136,
          "time": 22.875,
          "velocity": 0.3937007874015748
        },
        {
          "duration": 0.25,
          "durationTicks": 384,
          "midi": 29,
          "name": "F1",
          "ticks": 35712,
          "time": 23.25,
          "velocity": 0.3937007874015748
        },
        {
          "duration": 0.25,
          "durationTicks": 384,
          "midi": 29,
          "name": "F1",
          "ticks": 36288,
          "time": 23.625,
          "velocity": 0.3937007874015748
        },
        {
          "duration": 0.375,
          "durationTicks": 576,
          "midi": 28,
          "name": "E1",
          "ticks": 36864,
          "time": 24,
          "velocity": 0.3937007874015748
        },
        {
          "duration": 0.375,
          "durationTicks": 576,
          "midi": 28,
          "name": "E1",
          "ticks": 37632,
          "time": 24.5,
          "velocity": 0.3937007874015748
        },
        {
          "duration": 0.375,
          "durationTicks": 576,
          "midi": 28,
          "name": "E1",
          "ticks": 38400,
          "time": 25,
          "velocity": 0.3937007874015748
        },
        {
          "duration": 0.375,
          "durationTicks": 576,
          "midi": 28,
          "name": "E1",
          "ticks": 39168,
          "time": 25.5,
          "velocity": 0.3937007874015748
        },
        {
          "duration": 0.375,
          "durationTicks": 576,
          "midi": 26,
          "name": "D1",
          "ticks": 39936,
          "time": 26,
          "velocity": 0.3937007874015748
        },
        {
          "duration": 0.375,
          "durationTicks": 576,
          "midi": 26,
          "name": "D1",
          "ticks": 40704,
          "time": 26.5,
          "velocity": 0.3937007874015748
        },
        {
          "duration": 0.125,
          "durationTicks": 192,
          "midi": 26,
          "name": "D1",
          "ticks": 41280,
          "time": 26.875,
          "velocity": 0.3937007874015748
        },
        {
          "duration": 0.375,
          "durationTicks": 576,
          "midi": 26,
          "name": "D1",
          "ticks": 41856,
          "time": 27.25,
          "velocity": 0.3937007874015748
        },
        {
          "duration": 0.375,
          "durationTicks": 576,
          "midi": 26,
          "name": "D1",
          "ticks": 42432,
          "time": 27.625,
          "velocity": 0.3937007874015748
        },
        {
          "duration": 0.375,
          "durationTicks": 576,
          "midi": 31,
          "name": "G1",
          "ticks": 43008,
          "time": 28,
          "velocity": 0.3937007874015748
        },
        {
          "duration": 0.375,
          "durationTicks": 576,
          "midi": 31,
          "name": "G1",
          "ticks": 43776,
          "time": 28.5,
          "velocity": 0.3937007874015748
        },
        {
          "duration": 0.375,
          "durationTicks": 576,
          "midi": 31,
          "name": "G1",
          "ticks": 44544,
          "time": 29,
          "velocity": 0.3937007874015748
        },
        {
          "duration": 0.375,
          "durationTicks": 576,
          "midi": 31,
          "name": "G1",
          "ticks": 45312,
          "time": 29.5,
          "velocity": 0.3937007874015748
        },
        {
          "duration": 0.375,
          "durationTicks": 576,
          "midi": 30,
          "name": "F#1",
          "ticks": 46080,
          "time": 30,
          "velocity": 0.3937007874015748
        },
        {
          "duration": 0.375,
          "durationTicks": 576,
          "midi": 30,
          "name": "F#1",
          "ticks": 46848,
          "time": 30.5,
          "velocity": 0.3937007874015748
        },
        {
          "duration": 0.125,
          "durationTicks": 192,
          "midi": 30,
          "name": "F#1",
          "ticks": 47424,
          "time": 30.875,
          "velocity": 0.3937007874015748
        },
        {
          "duration": 0.375,
          "durationTicks": 576,
          "midi": 30,
          "name": "F#1",
          "ticks": 48000,
          "time": 31.25,
          "velocity": 0.3937007874015748
        },
        {
          "duration": 0.375,
          "durationTicks": 576,
          "midi": 30,
          "name": "F#1",
          "ticks": 48576,
          "time": 31.625,
          "velocity": 0.3937007874015748
        },
        {
          "duration": 0.375,
          "durationTicks": 576,
          "midi": 30,
          "name": "F#1",
          "ticks": 49152,
          "time": 32,
          "velocity": 0.3937007874015748
        },
        {
          "duration": 0.375,
          "durationTicks": 576,
          "midi": 30,
          "name": "F#1",
          "ticks": 49920,
          "time": 32.5,
          "velocity": 0.3937007874015748
        },
        {
          "duration": 0.375,
          "durationTicks": 576,
          "midi": 31,
          "name": "G1",
          "ticks": 50688,
          "time": 33,
          "velocity": 0.3937007874015748
        },
        {
          "duration": 0.375,
          "durationTicks": 576,
          "midi": 31,
          "name": "G1",
          "ticks": 51456,
          "time": 33.5,
          "velocity": 0.3937007874015748
        },
        {
          "duration": 0.375,
          "durationTicks": 576,
          "midi": 33,
          "name": "A1",
          "ticks": 52224,
          "time": 34,
          "velocity": 0.3937007874015748
        },
        {
          "duration": 0.375,
          "durationTicks": 576,
          "midi": 33,
          "name": "A1",
          "ticks": 52992,
          "time": 34.5,
          "velocity": 0.3937007874015748
        },
        {
          "duration": 0.375,
          "durationTicks": 576,
          "midi": 34,
          "name": "A#1",
          "ticks": 53760,
          "time": 35,
          "velocity": 0.3937007874015748
        },
        {
          "duration": 0.375,
          "durationTicks": 576,
          "midi": 24,
          "name": "C1",
          "ticks": 54528,
          "time": 35.5,
          "velocity": 0.3937007874015748
        },
        {
          "duration": 0.375,
          "durationTicks": 576,
          "midi": 24,
          "name": "C1",
          "ticks": 55296,
          "time": 36,
          "velocity": 0.3937007874015748
        },
        {
          "duration": 0.375,
          "durationTicks": 576,
          "midi": 24,
          "name": "C1",
          "ticks": 56064,
          "time": 36.5,
          "velocity": 0.3937007874015748
        },
        {
          "duration": 0.375,
          "durationTicks": 576,
          "midi": 28,
          "name": "E1",
          "ticks": 56832,
          "time": 37,
          "velocity": 0.3937007874015748
        },
        {
          "duration": 0.375,
          "durationTicks": 576,
          "midi": 31,
          "name": "G1",
          "ticks": 57600,
          "time": 37.5,
          "velocity": 0.3937007874015748
        },
        {
          "duration": 0.375,
          "durationTicks": 576,
          "midi": 32,
          "name": "G#1",
          "ticks": 58368,
          "time": 38,
          "velocity": 0.3937007874015748
        },
        {
          "duration": 0.375,
          "durationTicks": 576,
          "midi": 32,
          "name": "G#1",
          "ticks": 59136,
          "time": 38.5,
          "velocity": 0.3937007874015748
        },
        {
          "duration": 0.125,
          "durationTicks": 192,
          "midi": 32,
          "name": "G#1",
          "ticks": 59712,
          "time": 38.875,
          "velocity": 0.3937007874015748
        },
        {
          "duration": 0.375,
          "durationTicks": 576,
          "midi": 32,
          "name": "G#1",
          "ticks": 60288,
          "time": 39.25,
          "velocity": 0.3937007874015748
        },
        {
          "duration": 0.375,
          "durationTicks": 576,
          "midi": 32,
          "name": "G#1",
          "ticks": 60864,
          "time": 39.625,
          "velocity": 0.3937007874015748
        },
        {
          "duration": 0.375,
          "durationTicks": 576,
          "midi": 31,
          "name": "G1",
          "ticks": 61440,
          "time": 40,
          "velocity": 0.3937007874015748
        },
        {
          "duration": 0.375,
          "durationTicks": 576,
          "midi": 31,
          "name": "G1",
          "ticks": 62208,
          "time": 40.5,
          "velocity": 0.3937007874015748
        },
        {
          "duration": 0.375,
          "durationTicks": 576,
          "midi": 29,
          "name": "F1",
          "ticks": 62976,
          "time": 41,
          "velocity": 0.3937007874015748
        },
        {
          "duration": 0.375,
          "durationTicks": 576,
          "midi": 29,
          "name": "F1",
          "ticks": 63744,
          "time": 41.5,
          "velocity": 0.3937007874015748
        },
        {
          "duration": 0.375,
          "durationTicks": 576,
          "midi": 28,
          "name": "E1",
          "ticks": 64512,
          "time": 42,
          "velocity": 0.3937007874015748
        },
        {
          "duration": 0.375,
          "durationTicks": 576,
          "midi": 28,
          "name": "E1",
          "ticks": 65280,
          "time": 42.5,
          "velocity": 0.3937007874015748
        },
        {
          "duration": 0.375,
          "durationTicks": 576,
          "midi": 28,
          "name": "E1",
          "ticks": 66048,
          "time": 43,
          "velocity": 0.3937007874015748
        },
        {
          "duration": 0.375,
          "durationTicks": 576,
          "midi": 28,
          "name": "E1",
          "ticks": 66816,
          "time": 43.5,
          "velocity": 0.3937007874015748
        },
        {
          "duration": 0.375,
          "durationTicks": 576,
          "midi": 28,
          "name": "E1",
          "ticks": 67584,
          "time": 44,
          "velocity": 0.3937007874015748
        },
        {
          "duration": 0.375,
          "durationTicks": 576,
          "midi": 28,
          "name": "E1",
          "ticks": 68352,
          "time": 44.5,
          "velocity": 0.3937007874015748
        },
        {
          "duration": 0.375,
          "durationTicks": 576,
          "midi": 26,
          "name": "D1",
          "ticks": 69120,
          "time": 45,
          "velocity": 0.3937007874015748
        },
        {
          "duration": 0.375,
          "durationTicks": 576,
          "midi": 26,
          "name": "D1",
          "ticks": 69888,
          "time": 45.5,
          "velocity": 0.3937007874015748
        },
        {
          "duration": 0.375,
          "durationTicks": 576,
          "midi": 24,
          "name": "C1",
          "ticks": 70656,
          "time": 46,
          "velocity": 0.3937007874015748
        },
        {
          "duration": 0.375,
          "durationTicks": 576,
          "midi": 24,
          "name": "C1",
          "ticks": 71424,
          "time": 46.5,
          "velocity": 0.3937007874015748
        },
        {
          "duration": 0.125,
          "durationTicks": 192,
          "midi": 24,
          "name": "C1",
          "ticks": 72000,
          "time": 46.875,
          "velocity": 0.3937007874015748
        },
        {
          "duration": 0.25,
          "durationTicks": 384,
          "midi": 24,
          "name": "C1",
          "ticks": 72576,
          "time": 47.25,
          "velocity": 0.3937007874015748
        },
        {
          "duration": 0.375,
          "durationTicks": 576,
          "midi": 24,
          "name": "C1",
          "ticks": 73152,
          "time": 47.625,
          "velocity": 0.3937007874015748
        },
        {
          "duration": 0.375,
          "durationTicks": 576,
          "midi": 26,
          "name": "D1",
          "ticks": 73728,
          "time": 48,
          "velocity": 0.3937007874015748
        },
        {
          "duration": 0.375,
          "durationTicks": 576,
          "midi": 26,
          "name": "D1",
          "ticks": 74496,
          "time": 48.5,
          "velocity": 0.3937007874015748
        },
        {
          "duration": 0.125,
          "durationTicks": 192,
          "midi": 26,
          "name": "D1",
          "ticks": 75072,
          "time": 48.875,
          "velocity": 0.3937007874015748
        },
        {
          "duration": 0.25,
          "durationTicks": 384,
          "midi": 26,
          "name": "D1",
          "ticks": 75648,
          "time": 49.25,
          "velocity": 0.3937007874015748
        },
        {
          "duration": 0.375,
          "durationTicks": 576,
          "midi": 26,
          "name": "D1",
          "ticks": 76224,
          "time": 49.625,
          "velocity": 0.3937007874015748
        },
        {
          "duration": 0.375,
          "durationTicks": 576,
          "midi": 25,
          "name": "C#1",
          "ticks": 76800,
          "time": 50,
          "velocity": 0.3937007874015748
        },
        {
          "duration": 0.375,
          "durationTicks": 576,
          "midi": 25,
          "name": "C#1",
          "ticks": 77568,
          "time": 50.5,
          "velocity": 0.3937007874015748
        },
        {
          "duration": 0.125,
          "durationTicks": 192,
          "midi": 25,
          "name": "C#1",
          "ticks": 78144,
          "time": 50.875,
          "velocity": 0.3937007874015748
        },
        {
          "duration": 0.25,
          "durationTicks": 384,
          "midi": 25,
          "name": "C#1",
          "ticks": 78720,
          "time": 51.25,
          "velocity": 0.3937007874015748
        },
        {
          "duration": 0.375,
          "durationTicks": 576,
          "midi": 25,
          "name": "C#1",
          "ticks": 79296,
          "time": 51.625,
          "velocity": 0.3937007874015748
        },
        {
          "duration": 0.375,
          "durationTicks": 576,
          "midi": 29,
          "name": "F1",
          "ticks": 79872,
          "time": 52,
          "velocity": 0.3937007874015748
        },
        {
          "duration": 0.375,
          "durationTicks": 576,
          "midi": 29,
          "name": "F1",
          "ticks": 80640,
          "time": 52.5,
          "velocity": 0.3937007874015748
        },
        {
          "duration": 0.125,
          "durationTicks": 192,
          "midi": 29,
          "name": "F1",
          "ticks": 81216,
          "time": 52.875,
          "velocity": 0.3937007874015748
        },
        {
          "duration": 0.25,
          "durationTicks": 384,
          "midi": 29,
          "name": "F1",
          "ticks": 81792,
          "time": 53.25,
          "velocity": 0.3937007874015748
        },
        {
          "duration": 0.375,
          "durationTicks": 576,
          "midi": 29,
          "name": "F1",
          "ticks": 82368,
          "time": 53.625,
          "velocity": 0.3937007874015748
        },
        {
          "duration": 0.375,
          "durationTicks": 576,
          "midi": 29,
          "name": "F1",
          "ticks": 82944,
          "time": 54,
          "velocity": 0.3937007874015748
        },
        {
          "duration": 0.375,
          "durationTicks": 576,
          "midi": 29,
          "name": "F1",
          "ticks": 83712,
          "time": 54.5,
          "velocity": 0.3937007874015748
        },
        {
          "duration": 0.125,
          "durationTicks": 192,
          "midi": 25,
          "name": "C#1",
          "ticks": 84288,
          "time": 54.875,
          "velocity": 0.3937007874015748
        },
        {
          "duration": 0.25,
          "durationTicks": 384,
          "midi": 25,
          "name": "C#1",
          "ticks": 84864,
          "time": 55.25,
          "velocity": 0.3937007874015748
        },
        {
          "duration": 0.375,
          "durationTicks": 576,
          "midi": 25,
          "name": "C#1",
          "ticks": 85440,
          "time": 55.625,
          "velocity": 0.3937007874015748
        },
        {
          "duration": 0.375,
          "durationTicks": 576,
          "midi": 27,
          "name": "D#1",
          "ticks": 86016,
          "time": 56,
          "velocity": 0.3937007874015748
        },
        {
          "duration": 0.375,
          "durationTicks": 576,
          "midi": 27,
          "name": "D#1",
          "ticks": 86784,
          "time": 56.5,
          "velocity": 0.3937007874015748
        },
        {
          "duration": 0.375,
          "durationTicks": 576,
          "midi": 27,
          "name": "D#1",
          "ticks": 87552,
          "time": 57,
          "velocity": 0.3937007874015748
        },
        {
          "duration": 0.375,
          "durationTicks": 576,
          "midi": 27,
          "name": "D#1",
          "ticks": 88320,
          "time": 57.5,
          "velocity": 0.3937007874015748
        },
        {
          "duration": 0.375,
          "durationTicks": 576,
          "midi": 27,
          "name": "D#1",
          "ticks": 89088,
          "time": 58,
          "velocity": 0.3937007874015748
        },
        {
          "duration": 0.375,
          "durationTicks": 576,
          "midi": 27,
          "name": "D#1",
          "ticks": 89856,
          "time": 58.5,
          "velocity": 0.3937007874015748
        },
        {
          "duration": 0.125,
          "durationTicks": 192,
          "midi": 27,
          "name": "D#1",
          "ticks": 90432,
          "time": 58.875,
          "velocity": 0.3937007874015748
        },
        {
          "duration": 0.25,
          "durationTicks": 384,
          "midi": 27,
          "name": "D#1",
          "ticks": 91008,
          "time": 59.25,
          "velocity": 0.3937007874015748
        },
        {
          "duration": 0.375,
          "durationTicks": 576,
          "midi": 27,
          "name": "D#1",
          "ticks": 91584,
          "time": 59.625,
          "velocity": 0.3937007874015748
        },
        {
          "duration": 0.375,
          "durationTicks": 576,
          "midi": 32,
          "name": "G#1",
          "ticks": 92160,
          "time": 60,
          "velocity": 0.3937007874015748
        },
        {
          "duration": 0.375,
          "durationTicks": 576,
          "midi": 32,
          "name": "G#1",
          "ticks": 92928,
          "time": 60.5,
          "velocity": 0.3937007874015748
        },
        {
          "duration": 0.375,
          "durationTicks": 576,
          "midi": 32,
          "name": "G#1",
          "ticks": 93696,
          "time": 61,
          "velocity": 0.3937007874015748
        },
        {
          "duration": 0.375,
          "durationTicks": 576,
          "midi": 32,
          "name": "G#1",
          "ticks": 94464,
          "time": 61.5,
          "velocity": 0.3937007874015748
        },
        {
          "duration": 0.375,
          "durationTicks": 576,
          "midi": 26,
          "name": "D1",
          "ticks": 95232,
          "time": 62,
          "velocity": 0.3937007874015748
        },
        {
          "duration": 0.375,
          "durationTicks": 576,
          "midi": 26,
          "name": "D1",
          "ticks": 96000,
          "time": 62.5,
          "velocity": 0.3937007874015748
        },
        {
          "duration": 0.125,
          "durationTicks": 192,
          "midi": 26,
          "name": "D1",
          "ticks": 96576,
          "time": 62.875,
          "velocity": 0.3937007874015748
        },
        {
          "duration": 0.25,
          "durationTicks": 384,
          "midi": 26,
          "name": "D1",
          "ticks": 97152,
          "time": 63.25,
          "velocity": 0.3937007874015748
        },
        {
          "duration": 0.375,
          "durationTicks": 576,
          "midi": 26,
          "name": "D1",
          "ticks": 97728,
          "time": 63.625,
          "velocity": 0.3937007874015748
        },
        {
          "duration": 0.375,
          "durationTicks": 576,
          "midi": 30,
          "name": "F#1",
          "ticks": 98304,
          "time": 64,
          "velocity": 0.3937007874015748
        },
        {
          "duration": 0.375,
          "durationTicks": 576,
          "midi": 30,
          "name": "F#1",
          "ticks": 99072,
          "time": 64.5,
          "velocity": 0.3937007874015748
        },
        {
          "duration": 0.125,
          "durationTicks": 192,
          "midi": 30,
          "name": "F#1",
          "ticks": 99648,
          "time": 64.875,
          "velocity": 0.3937007874015748
        },
        {
          "duration": 0.25,
          "durationTicks": 384,
          "midi": 30,
          "name": "F#1",
          "ticks": 100224,
          "time": 65.25,
          "velocity": 0.3937007874015748
        },
        {
          "duration": 0.375,
          "durationTicks": 576,
          "midi": 30,
          "name": "F#1",
          "ticks": 100800,
          "time": 65.625,
          "velocity": 0.3937007874015748
        },
        {
          "duration": 0.375,
          "durationTicks": 576,
          "midi": 23,
          "name": "B0",
          "ticks": 101376,
          "time": 66,
          "velocity": 0.3937007874015748
        },
        {
          "duration": 0.375,
          "durationTicks": 576,
          "midi": 23,
          "name": "B0",
          "ticks": 102144,
          "time": 66.5,
          "velocity": 0.3937007874015748
        },
        {
          "duration": 0.25,
          "durationTicks": 384,
          "midi": 25,
          "name": "C#1",
          "ticks": 102720,
          "time": 66.875,
          "velocity": 0.3937007874015748
        },
        {
          "duration": 0.25,
          "durationTicks": 384,
          "midi": 25,
          "name": "C#1",
          "ticks": 103296,
          "time": 67.25,
          "velocity": 0.3937007874015748
        },
        {
          "duration": 0.25,
          "durationTicks": 384,
          "midi": 25,
          "name": "C#1",
          "ticks": 103872,
          "time": 67.625,
          "velocity": 0.3937007874015748
        },
        {
          "duration": 0.375,
          "durationTicks": 576,
          "midi": 26,
          "name": "D1",
          "ticks": 104448,
          "time": 68,
          "velocity": 0.3937007874015748
        },
        {
          "duration": 0.375,
          "durationTicks": 576,
          "midi": 26,
          "name": "D1",
          "ticks": 105216,
          "time": 68.5,
          "velocity": 0.3937007874015748
        },
        {
          "duration": 0.25,
          "durationTicks": 384,
          "midi": 31,
          "name": "G1",
          "ticks": 105792,
          "time": 68.875,
          "velocity": 0.3937007874015748
        },
        {
          "duration": 0.25,
          "durationTicks": 384,
          "midi": 31,
          "name": "G1",
          "ticks": 106368,
          "time": 69.25,
          "velocity": 0.3937007874015748
        },
        {
          "duration": 0.25,
          "durationTicks": 384,
          "midi": 31,
          "name": "G1",
          "ticks": 106944,
          "time": 69.625,
          "velocity": 0.3937007874015748
        },
        {
          "duration": 0.375,
          "durationTicks": 576,
          "midi": 31,
          "name": "G1",
          "ticks": 107520,
          "time": 70,
          "velocity": 0.3937007874015748
        },
        {
          "duration": 0.375,
          "durationTicks": 576,
          "midi": 31,
          "name": "G1",
          "ticks": 108288,
          "time": 70.5,
          "velocity": 0.3937007874015748
        },
        {
          "duration": 0.25,
          "durationTicks": 384,
          "midi": 34,
          "name": "A#1",
          "ticks": 108864,
          "time": 70.875,
          "velocity": 0.3937007874015748
        },
        {
          "duration": 0.25,
          "durationTicks": 384,
          "midi": 34,
          "name": "A#1",
          "ticks": 109440,
          "time": 71.25,
          "velocity": 0.3937007874015748
        },
        {
          "duration": 0.25,
          "durationTicks": 384,
          "midi": 34,
          "name": "A#1",
          "ticks": 110016,
          "time": 71.625,
          "velocity": 0.3937007874015748
        },
        {
          "duration": 0.375,
          "durationTicks": 576,
          "midi": 26,
          "name": "D1",
          "ticks": 110592,
          "time": 72,
          "velocity": 0.3937007874015748
        },
        {
          "duration": 0.375,
          "durationTicks": 576,
          "midi": 26,
          "name": "D1",
          "ticks": 111360,
          "time": 72.5,
          "velocity": 0.3937007874015748
        },
        {
          "duration": 0.25,
          "durationTicks": 384,
          "midi": 28,
          "name": "E1",
          "ticks": 111936,
          "time": 72.875,
          "velocity": 0.3937007874015748
        },
        {
          "duration": 0.25,
          "durationTicks": 384,
          "midi": 28,
          "name": "E1",
          "ticks": 112512,
          "time": 73.25,
          "velocity": 0.3937007874015748
        },
        {
          "duration": 0.25,
          "durationTicks": 384,
          "midi": 28,
          "name": "E1",
          "ticks": 113088,
          "time": 73.625,
          "velocity": 0.3937007874015748
        },
        {
          "duration": 0.375,
          "durationTicks": 576,
          "midi": 30,
          "name": "F#1",
          "ticks": 113664,
          "time": 74,
          "velocity": 0.3937007874015748
        },
        {
          "duration": 0.375,
          "durationTicks": 576,
          "midi": 30,
          "name": "F#1",
          "ticks": 114432,
          "time": 74.5,
          "velocity": 0.3937007874015748
        },
        {
          "duration": 0.25,
          "durationTicks": 384,
          "midi": 31,
          "name": "G1",
          "ticks": 115008,
          "time": 74.875,
          "velocity": 0.3937007874015748
        },
        {
          "duration": 0.25,
          "durationTicks": 384,
          "midi": 31,
          "name": "G1",
          "ticks": 115584,
          "time": 75.25,
          "velocity": 0.3937007874015748
        },
        {
          "duration": 0.25,
          "durationTicks": 384,
          "midi": 31,
          "name": "G1",
          "ticks": 116160,
          "time": 75.625,
          "velocity": 0.3937007874015748
        },
        {
          "duration": 0.375,
          "durationTicks": 576,
          "midi": 34,
          "name": "A#1",
          "ticks": 116736,
          "time": 76,
          "velocity": 0.3937007874015748
        },
        {
          "duration": 0.375,
          "durationTicks": 576,
          "midi": 34,
          "name": "A#1",
          "ticks": 117504,
          "time": 76.5,
          "velocity": 0.3937007874015748
        },
        {
          "duration": 0.25,
          "durationTicks": 384,
          "midi": 30,
          "name": "F#1",
          "ticks": 118080,
          "time": 76.875,
          "velocity": 0.3937007874015748
        },
        {
          "duration": 0.25,
          "durationTicks": 384,
          "midi": 30,
          "name": "F#1",
          "ticks": 118656,
          "time": 77.25,
          "velocity": 0.3937007874015748
        },
        {
          "duration": 0.25,
          "durationTicks": 384,
          "midi": 30,
          "name": "F#1",
          "ticks": 119232,
          "time": 77.625,
          "velocity": 0.3937007874015748
        },
        {
          "duration": 0.375,
          "durationTicks": 576,
          "midi": 31,
          "name": "G1",
          "ticks": 119808,
          "time": 78,
          "velocity": 0.3937007874015748
        },
        {
          "duration": 0.375,
          "durationTicks": 576,
          "midi": 31,
          "name": "G1",
          "ticks": 120576,
          "time": 78.5,
          "velocity": 0.3937007874015748
        },
        {
          "duration": 0.25,
          "durationTicks": 384,
          "midi": 30,
          "name": "F#1",
          "ticks": 121152,
          "time": 78.875,
          "velocity": 0.3937007874015748
        },
        {
          "duration": 0.25,
          "durationTicks": 384,
          "midi": 30,
          "name": "F#1",
          "ticks": 121728,
          "time": 79.25,
          "velocity": 0.3937007874015748
        },
        {
          "duration": 0.25,
          "durationTicks": 384,
          "midi": 30,
          "name": "F#1",
          "ticks": 122304,
          "time": 79.625,
          "velocity": 0.3937007874015748
        },
        {
          "duration": 0.375,
          "durationTicks": 576,
          "midi": 29,
          "name": "F1",
          "ticks": 122880,
          "time": 80,
          "velocity": 0.3937007874015748
        },
        {
          "duration": 0.375,
          "durationTicks": 576,
          "midi": 29,
          "name": "F1",
          "ticks": 123648,
          "time": 80.5,
          "velocity": 0.3937007874015748
        },
        {
          "duration": 0.25,
          "durationTicks": 384,
          "midi": 29,
          "name": "F1",
          "ticks": 124224,
          "time": 80.875,
          "velocity": 0.3937007874015748
        },
        {
          "duration": 0.25,
          "durationTicks": 384,
          "midi": 29,
          "name": "F1",
          "ticks": 124800,
          "time": 81.25,
          "velocity": 0.3937007874015748
        },
        {
          "duration": 0.25,
          "durationTicks": 384,
          "midi": 29,
          "name": "F1",
          "ticks": 125376,
          "time": 81.625,
          "velocity": 0.3937007874015748
        },
        {
          "duration": 0.375,
          "durationTicks": 576,
          "midi": 28,
          "name": "E1",
          "ticks": 125952,
          "time": 82,
          "velocity": 0.3937007874015748
        },
        {
          "duration": 0.375,
          "durationTicks": 576,
          "midi": 28,
          "name": "E1",
          "ticks": 126720,
          "time": 82.5,
          "velocity": 0.3937007874015748
        },
        {
          "duration": 0.375,
          "durationTicks": 576,
          "midi": 28,
          "name": "E1",
          "ticks": 127488,
          "time": 83,
          "velocity": 0.3937007874015748
        },
        {
          "duration": 0.375,
          "durationTicks": 576,
          "midi": 28,
          "name": "E1",
          "ticks": 128256,
          "time": 83.5,
          "velocity": 0.3937007874015748
        },
        {
          "duration": 0.375,
          "durationTicks": 576,
          "midi": 26,
          "name": "D1",
          "ticks": 129024,
          "time": 84,
          "velocity": 0.3937007874015748
        },
        {
          "duration": 0.375,
          "durationTicks": 576,
          "midi": 26,
          "name": "D1",
          "ticks": 129792,
          "time": 84.5,
          "velocity": 0.3937007874015748
        },
        {
          "duration": 0.125,
          "durationTicks": 192,
          "midi": 26,
          "name": "D1",
          "ticks": 130368,
          "time": 84.875,
          "velocity": 0.3937007874015748
        },
        {
          "duration": 0.375,
          "durationTicks": 576,
          "midi": 26,
          "name": "D1",
          "ticks": 130944,
          "time": 85.25,
          "velocity": 0.3937007874015748
        },
        {
          "duration": 0.375,
          "durationTicks": 576,
          "midi": 26,
          "name": "D1",
          "ticks": 131520,
          "time": 85.625,
          "velocity": 0.3937007874015748
        },
        {
          "duration": 0.375,
          "durationTicks": 576,
          "midi": 31,
          "name": "G1",
          "ticks": 132096,
          "time": 86,
          "velocity": 0.3937007874015748
        },
        {
          "duration": 0.375,
          "durationTicks": 576,
          "midi": 31,
          "name": "G1",
          "ticks": 132864,
          "time": 86.5,
          "velocity": 0.3937007874015748
        },
        {
          "duration": 0.375,
          "durationTicks": 576,
          "midi": 31,
          "name": "G1",
          "ticks": 133632,
          "time": 87,
          "velocity": 0.3937007874015748
        },
        {
          "duration": 0.375,
          "durationTicks": 576,
          "midi": 31,
          "name": "G1",
          "ticks": 134400,
          "time": 87.5,
          "velocity": 0.3937007874015748
        },
        {
          "duration": 0.375,
          "durationTicks": 576,
          "midi": 30,
          "name": "F#1",
          "ticks": 135168,
          "time": 88,
          "velocity": 0.3937007874015748
        },
        {
          "duration": 0.375,
          "durationTicks": 576,
          "midi": 30,
          "name": "F#1",
          "ticks": 135936,
          "time": 88.5,
          "velocity": 0.3937007874015748
        },
        {
          "duration": 0.125,
          "durationTicks": 192,
          "midi": 30,
          "name": "F#1",
          "ticks": 136512,
          "time": 88.875,
          "velocity": 0.3937007874015748
        },
        {
          "duration": 0.375,
          "durationTicks": 576,
          "midi": 30,
          "name": "F#1",
          "ticks": 137088,
          "time": 89.25,
          "velocity": 0.3937007874015748
        },
        {
          "duration": 0.375,
          "durationTicks": 576,
          "midi": 30,
          "name": "F#1",
          "ticks": 137664,
          "time": 89.625,
          "velocity": 0.3937007874015748
        },
        {
          "duration": 0.375,
          "durationTicks": 576,
          "midi": 30,
          "name": "F#1",
          "ticks": 138240,
          "time": 90,
          "velocity": 0.3937007874015748
        },
        {
          "duration": 0.375,
          "durationTicks": 576,
          "midi": 30,
          "name": "F#1",
          "ticks": 139008,
          "time": 90.5,
          "velocity": 0.3937007874015748
        },
        {
          "duration": 0.375,
          "durationTicks": 576,
          "midi": 31,
          "name": "G1",
          "ticks": 139776,
          "time": 91,
          "velocity": 0.3937007874015748
        },
        {
          "duration": 0.375,
          "durationTicks": 576,
          "midi": 31,
          "name": "G1",
          "ticks": 140544,
          "time": 91.5,
          "velocity": 0.3937007874015748
        },
        {
          "duration": 0.375,
          "durationTicks": 576,
          "midi": 33,
          "name": "A1",
          "ticks": 141312,
          "time": 92,
          "velocity": 0.3937007874015748
        },
        {
          "duration": 0.375,
          "durationTicks": 576,
          "midi": 33,
          "name": "A1",
          "ticks": 142080,
          "time": 92.5,
          "velocity": 0.3937007874015748
        },
        {
          "duration": 0.375,
          "durationTicks": 576,
          "midi": 34,
          "name": "A#1",
          "ticks": 142848,
          "time": 93,
          "velocity": 0.3937007874015748
        },
        {
          "duration": 0.375,
          "durationTicks": 576,
          "midi": 24,
          "name": "C1",
          "ticks": 143616,
          "time": 93.5,
          "velocity": 0.3937007874015748
        },
        {
          "duration": 0.375,
          "durationTicks": 576,
          "midi": 24,
          "name": "C1",
          "ticks": 144384,
          "time": 94,
          "velocity": 0.3937007874015748
        },
        {
          "duration": 0.375,
          "durationTicks": 576,
          "midi": 24,
          "name": "C1",
          "ticks": 145152,
          "time": 94.5,
          "velocity": 0.3937007874015748
        },
        {
          "duration": 0.375,
          "durationTicks": 576,
          "midi": 28,
          "name": "E1",
          "ticks": 145920,
          "time": 95,
          "velocity": 0.3937007874015748
        },
        {
          "duration": 0.375,
          "durationTicks": 576,
          "midi": 31,
          "name": "G1",
          "ticks": 146688,
          "time": 95.5,
          "velocity": 0.3937007874015748
        },
        {
          "duration": 0.375,
          "durationTicks": 576,
          "midi": 32,
          "name": "G#1",
          "ticks": 147456,
          "time": 96,
          "velocity": 0.3937007874015748
        },
        {
          "duration": 0.375,
          "durationTicks": 576,
          "midi": 32,
          "name": "G#1",
          "ticks": 148224,
          "time": 96.5,
          "velocity": 0.3937007874015748
        },
        {
          "duration": 0.125,
          "durationTicks": 192,
          "midi": 32,
          "name": "G#1",
          "ticks": 148800,
          "time": 96.875,
          "velocity": 0.3937007874015748
        },
        {
          "duration": 0.375,
          "durationTicks": 576,
          "midi": 32,
          "name": "G#1",
          "ticks": 149376,
          "time": 97.25,
          "velocity": 0.3937007874015748
        },
        {
          "duration": 0.375,
          "durationTicks": 576,
          "midi": 32,
          "name": "G#1",
          "ticks": 149952,
          "time": 97.625,
          "velocity": 0.3937007874015748
        },
        {
          "duration": 0.375,
          "durationTicks": 576,
          "midi": 31,
          "name": "G1",
          "ticks": 150528,
          "time": 98,
          "velocity": 0.3937007874015748
        },
        {
          "duration": 0.375,
          "durationTicks": 576,
          "midi": 31,
          "name": "G1",
          "ticks": 151296,
          "time": 98.5,
          "velocity": 0.3937007874015748
        },
        {
          "duration": 0.375,
          "durationTicks": 576,
          "midi": 29,
          "name": "F1",
          "ticks": 152064,
          "time": 99,
          "velocity": 0.3937007874015748
        },
        {
          "duration": 0.375,
          "durationTicks": 576,
          "midi": 29,
          "name": "F1",
          "ticks": 152832,
          "time": 99.5,
          "velocity": 0.3937007874015748
        },
        {
          "duration": 0.375,
          "durationTicks": 576,
          "midi": 28,
          "name": "E1",
          "ticks": 153600,
          "time": 100,
          "velocity": 0.3937007874015748
        },
        {
          "duration": 0.375,
          "durationTicks": 576,
          "midi": 28,
          "name": "E1",
          "ticks": 154368,
          "time": 100.5,
          "velocity": 0.3937007874015748
        },
        {
          "duration": 0.375,
          "durationTicks": 576,
          "midi": 28,
          "name": "E1",
          "ticks": 155136,
          "time": 101,
          "velocity": 0.3937007874015748
        },
        {
          "duration": 0.375,
          "durationTicks": 576,
          "midi": 28,
          "name": "E1",
          "ticks": 155904,
          "time": 101.5,
          "velocity": 0.3937007874015748
        },
        {
          "duration": 0.375,
          "durationTicks": 576,
          "midi": 28,
          "name": "E1",
          "ticks": 156672,
          "time": 102,
          "velocity": 0.3937007874015748
        },
        {
          "duration": 0.375,
          "durationTicks": 576,
          "midi": 28,
          "name": "E1",
          "ticks": 157440,
          "time": 102.5,
          "velocity": 0.3937007874015748
        },
        {
          "duration": 0.375,
          "durationTicks": 576,
          "midi": 26,
          "name": "D1",
          "ticks": 158208,
          "time": 103,
          "velocity": 0.3937007874015748
        },
        {
          "duration": 0.375,
          "durationTicks": 576,
          "midi": 26,
          "name": "D1",
          "ticks": 158976,
          "time": 103.5,
          "velocity": 0.3937007874015748
        },
        {
          "duration": 0.375,
          "durationTicks": 576,
          "midi": 24,
          "name": "C1",
          "ticks": 159744,
          "time": 104,
          "velocity": 0.3937007874015748
        },
        {
          "duration": 0.375,
          "durationTicks": 576,
          "midi": 24,
          "name": "C1",
          "ticks": 160512,
          "time": 104.5,
          "velocity": 0.3937007874015748
        },
        {
          "duration": 0.125,
          "durationTicks": 192,
          "midi": 24,
          "name": "C1",
          "ticks": 161088,
          "time": 104.875,
          "velocity": 0.3937007874015748
        },
        {
          "duration": 0.25,
          "durationTicks": 384,
          "midi": 24,
          "name": "C1",
          "ticks": 161664,
          "time": 105.25,
          "velocity": 0.3937007874015748
        },
        {
          "duration": 0.375,
          "durationTicks": 576,
          "midi": 24,
          "name": "C1",
          "ticks": 162240,
          "time": 105.625,
          "velocity": 0.3937007874015748
        },
        {
          "duration": 0.375,
          "durationTicks": 576,
          "midi": 26,
          "name": "D1",
          "ticks": 162816,
          "time": 106,
          "velocity": 0.3937007874015748
        },
        {
          "duration": 0.375,
          "durationTicks": 576,
          "midi": 26,
          "name": "D1",
          "ticks": 163584,
          "time": 106.5,
          "velocity": 0.3937007874015748
        },
        {
          "duration": 0.125,
          "durationTicks": 192,
          "midi": 26,
          "name": "D1",
          "ticks": 164160,
          "time": 106.875,
          "velocity": 0.3937007874015748
        },
        {
          "duration": 0.25,
          "durationTicks": 384,
          "midi": 26,
          "name": "D1",
          "ticks": 164736,
          "time": 107.25,
          "velocity": 0.3937007874015748
        },
        {
          "duration": 0.375,
          "durationTicks": 576,
          "midi": 26,
          "name": "D1",
          "ticks": 165312,
          "time": 107.625,
          "velocity": 0.3937007874015748
        },
        {
          "duration": 0.375,
          "durationTicks": 576,
          "midi": 25,
          "name": "C#1",
          "ticks": 165888,
          "time": 108,
          "velocity": 0.3937007874015748
        },
        {
          "duration": 0.375,
          "durationTicks": 576,
          "midi": 25,
          "name": "C#1",
          "ticks": 166656,
          "time": 108.5,
          "velocity": 0.3937007874015748
        },
        {
          "duration": 0.125,
          "durationTicks": 192,
          "midi": 25,
          "name": "C#1",
          "ticks": 167232,
          "time": 108.875,
          "velocity": 0.3937007874015748
        },
        {
          "duration": 0.25,
          "durationTicks": 384,
          "midi": 25,
          "name": "C#1",
          "ticks": 167808,
          "time": 109.25,
          "velocity": 0.3937007874015748
        },
        {
          "duration": 0.375,
          "durationTicks": 576,
          "midi": 25,
          "name": "C#1",
          "ticks": 168384,
          "time": 109.625,
          "velocity": 0.3937007874015748
        },
        {
          "duration": 0.375,
          "durationTicks": 576,
          "midi": 29,
          "name": "F1",
          "ticks": 168960,
          "time": 110,
          "velocity": 0.3937007874015748
        },
        {
          "duration": 0.375,
          "durationTicks": 576,
          "midi": 29,
          "name": "F1",
          "ticks": 169728,
          "time": 110.5,
          "velocity": 0.3937007874015748
        },
        {
          "duration": 0.125,
          "durationTicks": 192,
          "midi": 29,
          "name": "F1",
          "ticks": 170304,
          "time": 110.875,
          "velocity": 0.3937007874015748
        },
        {
          "duration": 0.25,
          "durationTicks": 384,
          "midi": 29,
          "name": "F1",
          "ticks": 170880,
          "time": 111.25,
          "velocity": 0.3937007874015748
        },
        {
          "duration": 0.375,
          "durationTicks": 576,
          "midi": 29,
          "name": "F1",
          "ticks": 171456,
          "time": 111.625,
          "velocity": 0.3937007874015748
        },
        {
          "duration": 0.375,
          "durationTicks": 576,
          "midi": 29,
          "name": "F1",
          "ticks": 172032,
          "time": 112,
          "velocity": 0.3937007874015748
        },
        {
          "duration": 0.375,
          "durationTicks": 576,
          "midi": 29,
          "name": "F1",
          "ticks": 172800,
          "time": 112.5,
          "velocity": 0.3937007874015748
        },
        {
          "duration": 0.125,
          "durationTicks": 192,
          "midi": 25,
          "name": "C#1",
          "ticks": 173376,
          "time": 112.875,
          "velocity": 0.3937007874015748
        },
        {
          "duration": 0.25,
          "durationTicks": 384,
          "midi": 25,
          "name": "C#1",
          "ticks": 173952,
          "time": 113.25,
          "velocity": 0.3937007874015748
        },
        {
          "duration": 0.375,
          "durationTicks": 576,
          "midi": 25,
          "name": "C#1",
          "ticks": 174528,
          "time": 113.625,
          "velocity": 0.3937007874015748
        },
        {
          "duration": 0.375,
          "durationTicks": 576,
          "midi": 27,
          "name": "D#1",
          "ticks": 175104,
          "time": 114,
          "velocity": 0.3937007874015748
        },
        {
          "duration": 0.375,
          "durationTicks": 576,
          "midi": 27,
          "name": "D#1",
          "ticks": 175872,
          "time": 114.5,
          "velocity": 0.3937007874015748
        },
        {
          "duration": 0.375,
          "durationTicks": 576,
          "midi": 27,
          "name": "D#1",
          "ticks": 176640,
          "time": 115,
          "velocity": 0.3937007874015748
        },
        {
          "duration": 0.375,
          "durationTicks": 576,
          "midi": 27,
          "name": "D#1",
          "ticks": 177408,
          "time": 115.5,
          "velocity": 0.3937007874015748
        },
        {
          "duration": 0.375,
          "durationTicks": 576,
          "midi": 27,
          "name": "D#1",
          "ticks": 178176,
          "time": 116,
          "velocity": 0.3937007874015748
        },
        {
          "duration": 0.375,
          "durationTicks": 576,
          "midi": 27,
          "name": "D#1",
          "ticks": 178944,
          "time": 116.5,
          "velocity": 0.3937007874015748
        },
        {
          "duration": 0.125,
          "durationTicks": 192,
          "midi": 27,
          "name": "D#1",
          "ticks": 179520,
          "time": 116.875,
          "velocity": 0.3937007874015748
        },
        {
          "duration": 0.25,
          "durationTicks": 384,
          "midi": 27,
          "name": "D#1",
          "ticks": 180096,
          "time": 117.25,
          "velocity": 0.3937007874015748
        },
        {
          "duration": 0.375,
          "durationTicks": 576,
          "midi": 27,
          "name": "D#1",
          "ticks": 180672,
          "time": 117.625,
          "velocity": 0.3937007874015748
        },
        {
          "duration": 0.375,
          "durationTicks": 576,
          "midi": 32,
          "name": "G#1",
          "ticks": 181248,
          "time": 118,
          "velocity": 0.3937007874015748
        },
        {
          "duration": 0.375,
          "durationTicks": 576,
          "midi": 32,
          "name": "G#1",
          "ticks": 182016,
          "time": 118.5,
          "velocity": 0.3937007874015748
        },
        {
          "duration": 0.375,
          "durationTicks": 576,
          "midi": 32,
          "name": "G#1",
          "ticks": 182784,
          "time": 119,
          "velocity": 0.3937007874015748
        },
        {
          "duration": 0.375,
          "durationTicks": 576,
          "midi": 32,
          "name": "G#1",
          "ticks": 183552,
          "time": 119.5,
          "velocity": 0.3937007874015748
        },
        {
          "duration": 0.375,
          "durationTicks": 576,
          "midi": 26,
          "name": "D1",
          "ticks": 184320,
          "time": 120,
          "velocity": 0.3937007874015748
        },
        {
          "duration": 0.375,
          "durationTicks": 576,
          "midi": 26,
          "name": "D1",
          "ticks": 185088,
          "time": 120.5,
          "velocity": 0.3937007874015748
        },
        {
          "duration": 0.125,
          "durationTicks": 192,
          "midi": 26,
          "name": "D1",
          "ticks": 185664,
          "time": 120.875,
          "velocity": 0.3937007874015748
        },
        {
          "duration": 0.25,
          "durationTicks": 384,
          "midi": 26,
          "name": "D1",
          "ticks": 186240,
          "time": 121.25,
          "velocity": 0.3937007874015748
        },
        {
          "duration": 0.375,
          "durationTicks": 576,
          "midi": 26,
          "name": "D1",
          "ticks": 186816,
          "time": 121.625,
          "velocity": 0.3937007874015748
        },
        {
          "duration": 0.375,
          "durationTicks": 576,
          "midi": 30,
          "name": "F#1",
          "ticks": 187392,
          "time": 122,
          "velocity": 0.3937007874015748
        },
        {
          "duration": 0.375,
          "durationTicks": 576,
          "midi": 30,
          "name": "F#1",
          "ticks": 188160,
          "time": 122.5,
          "velocity": 0.3937007874015748
        },
        {
          "duration": 0.125,
          "durationTicks": 192,
          "midi": 30,
          "name": "F#1",
          "ticks": 188736,
          "time": 122.875,
          "velocity": 0.3937007874015748
        },
        {
          "duration": 0.25,
          "durationTicks": 384,
          "midi": 30,
          "name": "F#1",
          "ticks": 189312,
          "time": 123.25,
          "velocity": 0.3937007874015748
        },
        {
          "duration": 0.375,
          "durationTicks": 576,
          "midi": 30,
          "name": "F#1",
          "ticks": 189888,
          "time": 123.625,
          "velocity": 0.3937007874015748
        },
        {
          "duration": 0.375,
          "durationTicks": 576,
          "midi": 23,
          "name": "B0",
          "ticks": 190464,
          "time": 124,
          "velocity": 0.3937007874015748
        },
        {
          "duration": 0.375,
          "durationTicks": 576,
          "midi": 23,
          "name": "B0",
          "ticks": 191232,
          "time": 124.5,
          "velocity": 0.3937007874015748
        },
        {
          "duration": 0.25,
          "durationTicks": 384,
          "midi": 25,
          "name": "C#1",
          "ticks": 191808,
          "time": 124.875,
          "velocity": 0.3937007874015748
        },
        {
          "duration": 0.25,
          "durationTicks": 384,
          "midi": 25,
          "name": "C#1",
          "ticks": 192384,
          "time": 125.25,
          "velocity": 0.3937007874015748
        },
        {
          "duration": 0.25,
          "durationTicks": 384,
          "midi": 25,
          "name": "C#1",
          "ticks": 192960,
          "time": 125.625,
          "velocity": 0.3937007874015748
        },
        {
          "duration": 0.375,
          "durationTicks": 576,
          "midi": 26,
          "name": "D1",
          "ticks": 193536,
          "time": 126,
          "velocity": 0.3937007874015748
        },
        {
          "duration": 0.375,
          "durationTicks": 576,
          "midi": 26,
          "name": "D1",
          "ticks": 194304,
          "time": 126.5,
          "velocity": 0.3937007874015748
        },
        {
          "duration": 0.25,
          "durationTicks": 384,
          "midi": 31,
          "name": "G1",
          "ticks": 194880,
          "time": 126.875,
          "velocity": 0.3937007874015748
        },
        {
          "duration": 0.25,
          "durationTicks": 384,
          "midi": 31,
          "name": "G1",
          "ticks": 195456,
          "time": 127.25,
          "velocity": 0.3937007874015748
        },
        {
          "duration": 0.25,
          "durationTicks": 384,
          "midi": 31,
          "name": "G1",
          "ticks": 196032,
          "time": 127.625,
          "velocity": 0.3937007874015748
        },
        {
          "duration": 0.375,
          "durationTicks": 576,
          "midi": 31,
          "name": "G1",
          "ticks": 196608,
          "time": 128,
          "velocity": 0.3937007874015748
        },
        {
          "duration": 0.375,
          "durationTicks": 576,
          "midi": 31,
          "name": "G1",
          "ticks": 197376,
          "time": 128.5,
          "velocity": 0.3937007874015748
        },
        {
          "duration": 0.25,
          "durationTicks": 384,
          "midi": 34,
          "name": "A#1",
          "ticks": 197952,
          "time": 128.875,
          "velocity": 0.3937007874015748
        },
        {
          "duration": 0.25,
          "durationTicks": 384,
          "midi": 34,
          "name": "A#1",
          "ticks": 198528,
          "time": 129.25,
          "velocity": 0.3937007874015748
        },
        {
          "duration": 0.25,
          "durationTicks": 384,
          "midi": 34,
          "name": "A#1",
          "ticks": 199104,
          "time": 129.625,
          "velocity": 0.3937007874015748
        },
        {
          "duration": 0.375,
          "durationTicks": 576,
          "midi": 26,
          "name": "D1",
          "ticks": 199680,
          "time": 130,
          "velocity": 0.3937007874015748
        },
        {
          "duration": 0.375,
          "durationTicks": 576,
          "midi": 26,
          "name": "D1",
          "ticks": 200448,
          "time": 130.5,
          "velocity": 0.3937007874015748
        },
        {
          "duration": 0.25,
          "durationTicks": 384,
          "midi": 28,
          "name": "E1",
          "ticks": 201024,
          "time": 130.875,
          "velocity": 0.3937007874015748
        },
        {
          "duration": 0.25,
          "durationTicks": 384,
          "midi": 28,
          "name": "E1",
          "ticks": 201600,
          "time": 131.25,
          "velocity": 0.3937007874015748
        },
        {
          "duration": 0.25,
          "durationTicks": 384,
          "midi": 28,
          "name": "E1",
          "ticks": 202176,
          "time": 131.625,
          "velocity": 0.3937007874015748
        },
        {
          "duration": 0.375,
          "durationTicks": 576,
          "midi": 30,
          "name": "F#1",
          "ticks": 202752,
          "time": 132,
          "velocity": 0.3937007874015748
        },
        {
          "duration": 0.375,
          "durationTicks": 576,
          "midi": 30,
          "name": "F#1",
          "ticks": 203520,
          "time": 132.5,
          "velocity": 0.3937007874015748
        }
      ],
      "endOfTrackTicks": 204096
    },
    {
      "channel": 12,
      "controlChanges": {},
      "pitchBends": [],
      "instrument": {
        "family": "piano",
        "number": 6,
        "name": "harpsichord"
      },
      "name": "Harpsichord",
      "notes": [
        {
          "duration": 0.0625,
          "durationTicks": 96,
          "midi": 62,
          "name": "D4",
          "ticks": 2688,
          "time": 1.75,
          "velocity": 0.1732283464566929
        },
        {
          "duration": 0.0625,
          "durationTicks": 96,
          "midi": 59,
          "name": "B3",
          "ticks": 2688,
          "time": 1.75,
          "velocity": 0.1732283464566929
        },
        {
          "duration": 0.0625,
          "durationTicks": 96,
          "midi": 61,
          "name": "C#4",
          "ticks": 2880,
          "time": 1.875,
          "velocity": 0.1732283464566929
        },
        {
          "duration": 0.0625,
          "durationTicks": 96,
          "midi": 64,
          "name": "E4",
          "ticks": 2880,
          "time": 1.875,
          "velocity": 0.1732283464566929
        },
        {
          "duration": 0.0625,
          "durationTicks": 96,
          "midi": 67,
          "name": "G4",
          "ticks": 3072,
          "time": 2,
          "velocity": 0.1732283464566929
        },
        {
          "duration": 0.0625,
          "durationTicks": 96,
          "midi": 64,
          "name": "E4",
          "ticks": 3072,
          "time": 2,
          "velocity": 0.1732283464566929
        },
        {
          "duration": 0.0625,
          "durationTicks": 96,
          "midi": 62,
          "name": "D4",
          "ticks": 3648,
          "time": 2.375,
          "velocity": 0.1732283464566929
        },
        {
          "duration": 0.0625,
          "durationTicks": 96,
          "midi": 66,
          "name": "F#4",
          "ticks": 3648,
          "time": 2.375,
          "velocity": 0.1732283464566929
        },
        {
          "duration": 0.0625,
          "durationTicks": 96,
          "midi": 64,
          "name": "E4",
          "ticks": 4224,
          "time": 2.75,
          "velocity": 0.1732283464566929
        },
        {
          "duration": 0.0625,
          "durationTicks": 96,
          "midi": 61,
          "name": "C#4",
          "ticks": 4224,
          "time": 2.75,
          "velocity": 0.1732283464566929
        },
        {
          "duration": 0.0625,
          "durationTicks": 96,
          "midi": 62,
          "name": "D4",
          "ticks": 4608,
          "time": 3,
          "velocity": 0.1732283464566929
        },
        {
          "duration": 0.0625,
          "durationTicks": 96,
          "midi": 59,
          "name": "B3",
          "ticks": 4608,
          "time": 3,
          "velocity": 0.1732283464566929
        },
        {
          "duration": 0.0625,
          "durationTicks": 96,
          "midi": 59,
          "name": "B3",
          "ticks": 5376,
          "time": 3.5,
          "velocity": 0.1732283464566929
        },
        {
          "duration": 0.0625,
          "durationTicks": 96,
          "midi": 54,
          "name": "F#3",
          "ticks": 5376,
          "time": 3.5,
          "velocity": 0.1732283464566929
        },
        {
          "duration": 0.25,
          "durationTicks": 384,
          "midi": 81,
          "name": "A5",
          "ticks": 64128,
          "time": 41.75,
          "velocity": 0.1732283464566929
        },
        {
          "duration": 0.25,
          "durationTicks": 384,
          "midi": 69,
          "name": "A4",
          "ticks": 64128,
          "time": 41.75,
          "velocity": 0.10236220472440945
        },
        {
          "duration": 0.75,
          "durationTicks": 1152,
          "midi": 71,
          "name": "B4",
          "ticks": 64512,
          "time": 42,
          "velocity": 0.10236220472440945
        },
        {
          "duration": 0.75,
          "durationTicks": 1152,
          "midi": 83,
          "name": "B5",
          "ticks": 64512,
          "time": 42,
          "velocity": 0.1732283464566929
        },
        {
          "duration": 0.25,
          "durationTicks": 384,
          "midi": 88,
          "name": "E6",
          "ticks": 65664,
          "time": 42.75,
          "velocity": 0.1732283464566929
        },
        {
          "duration": 0.25,
          "durationTicks": 384,
          "midi": 76,
          "name": "E5",
          "ticks": 65664,
          "time": 42.75,
          "velocity": 0.10236220472440945
        },
        {
          "duration": 2,
          "durationTicks": 3072,
          "midi": 88,
          "name": "E6",
          "ticks": 66048,
          "time": 43,
          "velocity": 0.1732283464566929
        },
        {
          "duration": 2,
          "durationTicks": 3072,
          "midi": 76,
          "name": "E5",
          "ticks": 66048,
          "time": 43,
          "velocity": 0.10236220472440945
        },
        {
          "duration": 0.25,
          "durationTicks": 384,
          "midi": 69,
          "name": "A4",
          "ticks": 153216,
          "time": 99.75,
          "velocity": 0.10236220472440945
        },
        {
          "duration": 0.25,
          "durationTicks": 384,
          "midi": 81,
          "name": "A5",
          "ticks": 153216,
          "time": 99.75,
          "velocity": 0.1732283464566929
        },
        {
          "duration": 0.75,
          "durationTicks": 1152,
          "midi": 83,
          "name": "B5",
          "ticks": 153600,
          "time": 100,
          "velocity": 0.1732283464566929
        },
        {
          "duration": 0.75,
          "durationTicks": 1152,
          "midi": 71,
          "name": "B4",
          "ticks": 153600,
          "time": 100,
          "velocity": 0.10236220472440945
        },
        {
          "duration": 0.25,
          "durationTicks": 384,
          "midi": 88,
          "name": "E6",
          "ticks": 154752,
          "time": 100.75,
          "velocity": 0.1732283464566929
        },
        {
          "duration": 0.25,
          "durationTicks": 384,
          "midi": 76,
          "name": "E5",
          "ticks": 154752,
          "time": 100.75,
          "velocity": 0.10236220472440945
        },
        {
          "duration": 2,
          "durationTicks": 3072,
          "midi": 88,
          "name": "E6",
          "ticks": 155136,
          "time": 101,
          "velocity": 0.1732283464566929
        },
        {
          "duration": 2,
          "durationTicks": 3072,
          "midi": 76,
          "name": "E5",
          "ticks": 155136,
          "time": 101,
          "velocity": 0.10236220472440945
        }
      ],
      "endOfTrackTicks": 158208
    },
    {
      "channel": 13,
      "controlChanges": {},
      "pitchBends": [],
      "instrument": {
        "family": "strings",
        "number": 45,
        "name": "pizzicato strings"
      },
      "name": "Concert Harp",
      "notes": [
        {
          "duration": 0.0625,
          "durationTicks": 96,
          "midi": 74,
          "name": "D5",
          "ticks": 66240,
          "time": 43.125,
          "velocity": 0.1968503937007874
        },
        {
          "duration": 0.0625,
          "durationTicks": 96,
          "midi": 62,
          "name": "D4",
          "ticks": 66240,
          "time": 43.125,
          "velocity": 0.3937007874015748
        },
        {
          "duration": 0.0625,
          "durationTicks": 96,
          "midi": 65,
          "name": "F4",
          "ticks": 66336,
          "time": 43.1875,
          "velocity": 0.3937007874015748
        },
        {
          "duration": 0.0625,
          "durationTicks": 96,
          "midi": 77,
          "name": "F5",
          "ticks": 66336,
          "time": 43.1875,
          "velocity": 0.1968503937007874
        },
        {
          "duration": 0.0625,
          "durationTicks": 96,
          "midi": 69,
          "name": "A4",
          "ticks": 66432,
          "time": 43.25,
          "velocity": 0.3937007874015748
        },
        {
          "duration": 0.0625,
          "durationTicks": 96,
          "midi": 81,
          "name": "A5",
          "ticks": 66432,
          "time": 43.25,
          "velocity": 0.1968503937007874
        },
        {
          "duration": 0.0625,
          "durationTicks": 96,
          "midi": 74,
          "name": "D5",
          "ticks": 66528,
          "time": 43.3125,
          "velocity": 0.3937007874015748
        },
        {
          "duration": 0.0625,
          "durationTicks": 96,
          "midi": 86,
          "name": "D6",
          "ticks": 66528,
          "time": 43.3125,
          "velocity": 0.1968503937007874
        },
        {
          "duration": 0.0625,
          "durationTicks": 96,
          "midi": 83,
          "name": "B5",
          "ticks": 66720,
          "time": 43.4375,
          "velocity": 0.1968503937007874
        },
        {
          "duration": 0.0625,
          "durationTicks": 96,
          "midi": 71,
          "name": "B4",
          "ticks": 66720,
          "time": 43.4375,
          "velocity": 0.3937007874015748
        },
        {
          "duration": 0.0625,
          "durationTicks": 96,
          "midi": 76,
          "name": "E5",
          "ticks": 66912,
          "time": 43.5625,
          "velocity": 0.3937007874015748
        },
        {
          "duration": 0.0625,
          "durationTicks": 96,
          "midi": 88,
          "name": "E6",
          "ticks": 66912,
          "time": 43.5625,
          "velocity": 0.1968503937007874
        },
        {
          "duration": 0.0625,
          "durationTicks": 96,
          "midi": 81,
          "name": "A5",
          "ticks": 67104,
          "time": 43.6875,
          "velocity": 0.3937007874015748
        },
        {
          "duration": 0.0625,
          "durationTicks": 96,
          "midi": 93,
          "name": "A6",
          "ticks": 67104,
          "time": 43.6875,
          "velocity": 0.1968503937007874
        },
        {
          "duration": 0.0625,
          "durationTicks": 96,
          "midi": 86,
          "name": "D6",
          "ticks": 67200,
          "time": 43.75,
          "velocity": 0.3937007874015748
        },
        {
          "duration": 0.0625,
          "durationTicks": 96,
          "midi": 98,
          "name": "D7",
          "ticks": 67200,
          "time": 43.75,
          "velocity": 0.1968503937007874
        },
        {
          "duration": 0.0625,
          "durationTicks": 96,
          "midi": 62,
          "name": "D4",
          "ticks": 155328,
          "time": 101.125,
          "velocity": 0.3937007874015748
        },
        {
          "duration": 0.0625,
          "durationTicks": 96,
          "midi": 74,
          "name": "D5",
          "ticks": 155328,
          "time": 101.125,
          "velocity": 0.1968503937007874
        },
        {
          "duration": 0.0625,
          "durationTicks": 96,
          "midi": 65,
          "name": "F4",
          "ticks": 155424,
          "time": 101.1875,
          "velocity": 0.3937007874015748
        },
        {
          "duration": 0.0625,
          "durationTicks": 96,
          "midi": 77,
          "name": "F5",
          "ticks": 155424,
          "time": 101.1875,
          "velocity": 0.1968503937007874
        },
        {
          "duration": 0.0625,
          "durationTicks": 96,
          "midi": 69,
          "name": "A4",
          "ticks": 155520,
          "time": 101.25,
          "velocity": 0.3937007874015748
        },
        {
          "duration": 0.0625,
          "durationTicks": 96,
          "midi": 81,
          "name": "A5",
          "ticks": 155520,
          "time": 101.25,
          "velocity": 0.1968503937007874
        },
        {
          "duration": 0.0625,
          "durationTicks": 96,
          "midi": 74,
          "name": "D5",
          "ticks": 155616,
          "time": 101.3125,
          "velocity": 0.3937007874015748
        },
        {
          "duration": 0.0625,
          "durationTicks": 96,
          "midi": 86,
          "name": "D6",
          "ticks": 155616,
          "time": 101.3125,
          "velocity": 0.1968503937007874
        },
        {
          "duration": 0.0625,
          "durationTicks": 96,
          "midi": 83,
          "name": "B5",
          "ticks": 155808,
          "time": 101.4375,
          "velocity": 0.1968503937007874
        },
        {
          "duration": 0.0625,
          "durationTicks": 96,
          "midi": 71,
          "name": "B4",
          "ticks": 155808,
          "time": 101.4375,
          "velocity": 0.3937007874015748
        },
        {
          "duration": 0.0625,
          "durationTicks": 96,
          "midi": 76,
          "name": "E5",
          "ticks": 156000,
          "time": 101.5625,
          "velocity": 0.3937007874015748
        },
        {
          "duration": 0.0625,
          "durationTicks": 96,
          "midi": 88,
          "name": "E6",
          "ticks": 156000,
          "time": 101.5625,
          "velocity": 0.1968503937007874
        },
        {
          "duration": 0.0625,
          "durationTicks": 96,
          "midi": 81,
          "name": "A5",
          "ticks": 156192,
          "time": 101.6875,
          "velocity": 0.3937007874015748
        },
        {
          "duration": 0.0625,
          "durationTicks": 96,
          "midi": 93,
          "name": "A6",
          "ticks": 156192,
          "time": 101.6875,
          "velocity": 0.1968503937007874
        },
        {
          "duration": 0.0625,
          "durationTicks": 96,
          "midi": 86,
          "name": "D6",
          "ticks": 156288,
          "time": 101.75,
          "velocity": 0.3937007874015748
        },
        {
          "duration": 0.0625,
          "durationTicks": 96,
          "midi": 98,
          "name": "D7",
          "ticks": 156288,
          "time": 101.75,
          "velocity": 0.1968503937007874
        }
      ],
      "endOfTrackTicks": 156384
    },
    {
      "channel": 14,
      "controlChanges": {},
      "pitchBends": [],
      "instrument": {
        "family": "percussive",
        "number": 114,
        "name": "steel drums"
      },
      "name": "Steel Drums",
      "notes": [
        {
          "duration": 0.375,
          "durationTicks": 576,
          "midi": 59,
          "name": "B3",
          "ticks": 12288,
          "time": 8,
          "velocity": 0.3937007874015748
        },
        {
          "duration": 0.375,
          "durationTicks": 576,
          "midi": 62,
          "name": "D4",
          "ticks": 12288,
          "time": 8,
          "velocity": 0.3937007874015748
        },
        {
          "duration": 0.375,
          "durationTicks": 576,
          "midi": 66,
          "name": "F#4",
          "ticks": 12288,
          "time": 8,
          "velocity": 0.3937007874015748
        },
        {
          "duration": 0.375,
          "durationTicks": 576,
          "midi": 71,
          "name": "B4",
          "ticks": 12288,
          "time": 8,
          "velocity": 0.23622047244094488
        },
        {
          "duration": 0.375,
          "durationTicks": 576,
          "midi": 61,
          "name": "C#4",
          "ticks": 12288,
          "time": 8,
          "velocity": 0.23622047244094488
        },
        {
          "duration": 0.375,
          "durationTicks": 576,
          "midi": 71,
          "name": "B4",
          "ticks": 13056,
          "time": 8.5,
          "velocity": 0.23622047244094488
        },
        {
          "duration": 0.375,
          "durationTicks": 576,
          "midi": 59,
          "name": "B3",
          "ticks": 13056,
          "time": 8.5,
          "velocity": 0.3937007874015748
        },
        {
          "duration": 0.375,
          "durationTicks": 576,
          "midi": 61,
          "name": "C#4",
          "ticks": 13056,
          "time": 8.5,
          "velocity": 0.23622047244094488
        },
        {
          "duration": 0.375,
          "durationTicks": 576,
          "midi": 66,
          "name": "F#4",
          "ticks": 13056,
          "time": 8.5,
          "velocity": 0.3937007874015748
        },
        {
          "duration": 0.375,
          "durationTicks": 576,
          "midi": 62,
          "name": "D4",
          "ticks": 13056,
          "time": 8.5,
          "velocity": 0.3937007874015748
        },
        {
          "duration": 0.125,
          "durationTicks": 192,
          "midi": 59,
          "name": "B3",
          "ticks": 13632,
          "time": 8.875,
          "velocity": 0.3937007874015748
        },
        {
          "duration": 0.125,
          "durationTicks": 192,
          "midi": 62,
          "name": "D4",
          "ticks": 13632,
          "time": 8.875,
          "velocity": 0.3937007874015748
        },
        {
          "duration": 0.125,
          "durationTicks": 192,
          "midi": 71,
          "name": "B4",
          "ticks": 13632,
          "time": 8.875,
          "velocity": 0.23622047244094488
        },
        {
          "duration": 0.125,
          "durationTicks": 192,
          "midi": 66,
          "name": "F#4",
          "ticks": 13632,
          "time": 8.875,
          "velocity": 0.3937007874015748
        },
        {
          "duration": 0.125,
          "durationTicks": 192,
          "midi": 64,
          "name": "E4",
          "ticks": 13632,
          "time": 8.875,
          "velocity": 0.2677165354330709
        },
        {
          "duration": 0.25,
          "durationTicks": 384,
          "midi": 66,
          "name": "F#4",
          "ticks": 14208,
          "time": 9.25,
          "velocity": 0.3937007874015748
        },
        {
          "duration": 0.25,
          "durationTicks": 384,
          "midi": 64,
          "name": "E4",
          "ticks": 14208,
          "time": 9.25,
          "velocity": 0.1968503937007874
        },
        {
          "duration": 0.25,
          "durationTicks": 384,
          "midi": 71,
          "name": "B4",
          "ticks": 14208,
          "time": 9.25,
          "velocity": 0.23622047244094488
        },
        {
          "duration": 0.25,
          "durationTicks": 384,
          "midi": 59,
          "name": "B3",
          "ticks": 14208,
          "time": 9.25,
          "velocity": 0.3937007874015748
        },
        {
          "duration": 0.25,
          "durationTicks": 384,
          "midi": 62,
          "name": "D4",
          "ticks": 14208,
          "time": 9.25,
          "velocity": 0.3937007874015748
        },
        {
          "duration": 0.125,
          "durationTicks": 192,
          "midi": 62,
          "name": "D4",
          "ticks": 14592,
          "time": 9.5,
          "velocity": 0.1968503937007874
        },
        {
          "duration": 0.125,
          "durationTicks": 192,
          "midi": 59,
          "name": "B3",
          "ticks": 14592,
          "time": 9.5,
          "velocity": 0.1968503937007874
        },
        {
          "duration": 0.125,
          "durationTicks": 192,
          "midi": 66,
          "name": "F#4",
          "ticks": 14592,
          "time": 9.5,
          "velocity": 0.1968503937007874
        },
        {
          "duration": 0.125,
          "durationTicks": 192,
          "midi": 71,
          "name": "B4",
          "ticks": 14592,
          "time": 9.5,
          "velocity": 0.03937007874015748
        },
        {
          "duration": 0.25,
          "durationTicks": 384,
          "midi": 66,
          "name": "F#4",
          "ticks": 14784,
          "time": 9.625,
          "velocity": 0.3937007874015748
        },
        {
          "duration": 0.25,
          "durationTicks": 384,
          "midi": 59,
          "name": "B3",
          "ticks": 14784,
          "time": 9.625,
          "velocity": 0.3937007874015748
        },
        {
          "duration": 0.25,
          "durationTicks": 384,
          "midi": 71,
          "name": "B4",
          "ticks": 14784,
          "time": 9.625,
          "velocity": 0.23622047244094488
        },
        {
          "duration": 0,
          "durationTicks": 0,
          "midi": 64,
          "name": "E4",
          "ticks": 14784,
          "time": 9.625,
          "velocity": 0.1968503937007874
        },
        {
          "duration": 0.25,
          "durationTicks": 384,
          "midi": 62,
          "name": "D4",
          "ticks": 14784,
          "time": 9.625,
          "velocity": 0.3937007874015748
        },
        {
          "duration": 0.125,
          "durationTicks": 192,
          "midi": 71,
          "name": "B4",
          "ticks": 15168,
          "time": 9.875,
          "velocity": 0.11811023622047244
        },
        {
          "duration": 0.125,
          "durationTicks": 192,
          "midi": 66,
          "name": "F#4",
          "ticks": 15168,
          "time": 9.875,
          "velocity": 0.2677165354330709
        },
        {
          "duration": 0,
          "durationTicks": 0,
          "midi": 64,
          "name": "E4",
          "ticks": 15168,
          "time": 9.875,
          "velocity": 0.07874015748031496
        },
        {
          "duration": 0.125,
          "durationTicks": 192,
          "midi": 59,
          "name": "B3",
          "ticks": 15168,
          "time": 9.875,
          "velocity": 0.2677165354330709
        },
        {
          "duration": 0.125,
          "durationTicks": 192,
          "midi": 62,
          "name": "D4",
          "ticks": 15168,
          "time": 9.875,
          "velocity": 0.2677165354330709
        },
        {
          "duration": 0.375,
          "durationTicks": 576,
          "midi": 66,
          "name": "F#4",
          "ticks": 15360,
          "time": 10,
          "velocity": 0.3937007874015748
        },
        {
          "duration": 0.375,
          "durationTicks": 576,
          "midi": 62,
          "name": "D4",
          "ticks": 15360,
          "time": 10,
          "velocity": 0.1968503937007874
        },
        {
          "duration": 0.375,
          "durationTicks": 576,
          "midi": 71,
          "name": "B4",
          "ticks": 15360,
          "time": 10,
          "velocity": 0.23622047244094488
        },
        {
          "duration": 0.375,
          "durationTicks": 576,
          "midi": 61,
          "name": "C#4",
          "ticks": 15360,
          "time": 10,
          "velocity": 0.3937007874015748
        },
        {
          "duration": 0.375,
          "durationTicks": 576,
          "midi": 59,
          "name": "B3",
          "ticks": 15360,
          "time": 10,
          "velocity": 0.3937007874015748
        },
        {
          "duration": 0.375,
          "durationTicks": 576,
          "midi": 62,
          "name": "D4",
          "ticks": 16128,
          "time": 10.5,
          "velocity": 0.1968503937007874
        },
        {
          "duration": 0.375,
          "durationTicks": 576,
          "midi": 59,
          "name": "B3",
          "ticks": 16128,
          "time": 10.5,
          "velocity": 0.3937007874015748
        },
        {
          "duration": 0.375,
          "durationTicks": 576,
          "midi": 71,
          "name": "B4",
          "ticks": 16128,
          "time": 10.5,
          "velocity": 0.23622047244094488
        },
        {
          "duration": 0.375,
          "durationTicks": 576,
          "midi": 61,
          "name": "C#4",
          "ticks": 16128,
          "time": 10.5,
          "velocity": 0.3937007874015748
        },
        {
          "duration": 0.375,
          "durationTicks": 576,
          "midi": 66,
          "name": "F#4",
          "ticks": 16128,
          "time": 10.5,
          "velocity": 0.3937007874015748
        },
        {
          "duration": 0.125,
          "durationTicks": 192,
          "midi": 71,
          "name": "B4",
          "ticks": 16704,
          "time": 10.875,
          "velocity": 0.23622047244094488
        },
        {
          "duration": 0.125,
          "durationTicks": 192,
          "midi": 66,
          "name": "F#4",
          "ticks": 16704,
          "time": 10.875,
          "velocity": 0.3937007874015748
        },
        {
          "duration": 0.125,
          "durationTicks": 192,
          "midi": 59,
          "name": "B3",
          "ticks": 16704,
          "time": 10.875,
          "velocity": 0.3937007874015748
        },
        {
          "duration": 0.125,
          "durationTicks": 192,
          "midi": 62,
          "name": "D4",
          "ticks": 16704,
          "time": 10.875,
          "velocity": 0.3937007874015748
        },
        {
          "duration": 0.25,
          "durationTicks": 384,
          "midi": 71,
          "name": "B4",
          "ticks": 17280,
          "time": 11.25,
          "velocity": 0.23622047244094488
        },
        {
          "duration": 0.25,
          "durationTicks": 384,
          "midi": 59,
          "name": "B3",
          "ticks": 17280,
          "time": 11.25,
          "velocity": 0.3937007874015748
        },
        {
          "duration": 0.25,
          "durationTicks": 384,
          "midi": 62,
          "name": "D4",
          "ticks": 17280,
          "time": 11.25,
          "velocity": 0.3937007874015748
        },
        {
          "duration": 0.25,
          "durationTicks": 384,
          "midi": 66,
          "name": "F#4",
          "ticks": 17280,
          "time": 11.25,
          "velocity": 0.3937007874015748
        },
        {
          "duration": 0.125,
          "durationTicks": 192,
          "midi": 62,
          "name": "D4",
          "ticks": 17664,
          "time": 11.5,
          "velocity": 0.1968503937007874
        },
        {
          "duration": 0.125,
          "durationTicks": 192,
          "midi": 71,
          "name": "B4",
          "ticks": 17664,
          "time": 11.5,
          "velocity": 0.03937007874015748
        },
        {
          "duration": 0.125,
          "durationTicks": 192,
          "midi": 59,
          "name": "B3",
          "ticks": 17664,
          "time": 11.5,
          "velocity": 0.1968503937007874
        },
        {
          "duration": 0.125,
          "durationTicks": 192,
          "midi": 66,
          "name": "F#4",
          "ticks": 17664,
          "time": 11.5,
          "velocity": 0.1968503937007874
        },
        {
          "duration": 0.25,
          "durationTicks": 384,
          "midi": 66,
          "name": "F#4",
          "ticks": 17856,
          "time": 11.625,
          "velocity": 0.3937007874015748
        },
        {
          "duration": 0.25,
          "durationTicks": 384,
          "midi": 59,
          "name": "B3",
          "ticks": 17856,
          "time": 11.625,
          "velocity": 0.3937007874015748
        },
        {
          "duration": 0.25,
          "durationTicks": 384,
          "midi": 71,
          "name": "B4",
          "ticks": 17856,
          "time": 11.625,
          "velocity": 0.23622047244094488
        },
        {
          "duration": 0.25,
          "durationTicks": 384,
          "midi": 62,
          "name": "D4",
          "ticks": 17856,
          "time": 11.625,
          "velocity": 0.3937007874015748
        },
        {
          "duration": 0.125,
          "durationTicks": 192,
          "midi": 66,
          "name": "F#4",
          "ticks": 18240,
          "time": 11.875,
          "velocity": 0.2677165354330709
        },
        {
          "duration": 0.125,
          "durationTicks": 192,
          "midi": 71,
          "name": "B4",
          "ticks": 18240,
          "time": 11.875,
          "velocity": 0.11811023622047244
        },
        {
          "duration": 0.125,
          "durationTicks": 192,
          "midi": 59,
          "name": "B3",
          "ticks": 18240,
          "time": 11.875,
          "velocity": 0.2677165354330709
        },
        {
          "duration": 0.125,
          "durationTicks": 192,
          "midi": 62,
          "name": "D4",
          "ticks": 18240,
          "time": 11.875,
          "velocity": 0.2677165354330709
        },
        {
          "duration": 0.375,
          "durationTicks": 576,
          "midi": 61,
          "name": "C#4",
          "ticks": 18432,
          "time": 12,
          "velocity": 0.07874015748031496
        },
        {
          "duration": 0.375,
          "durationTicks": 576,
          "midi": 66,
          "name": "F#4",
          "ticks": 18432,
          "time": 12,
          "velocity": 0.3937007874015748
        },
        {
          "duration": 0.375,
          "durationTicks": 576,
          "midi": 62,
          "name": "D4",
          "ticks": 18432,
          "time": 12,
          "velocity": 0.3937007874015748
        },
        {
          "duration": 0.375,
          "durationTicks": 576,
          "midi": 59,
          "name": "B3",
          "ticks": 18432,
          "time": 12,
          "velocity": 0.3937007874015748
        },
        {
          "duration": 0.375,
          "durationTicks": 576,
          "midi": 71,
          "name": "B4",
          "ticks": 18432,
          "time": 12,
          "velocity": 0.23622047244094488
        },
        {
          "duration": 0.375,
          "durationTicks": 576,
          "midi": 59,
          "name": "B3",
          "ticks": 19200,
          "time": 12.5,
          "velocity": 0.3937007874015748
        },
        {
          "duration": 0.375,
          "durationTicks": 576,
          "midi": 62,
          "name": "D4",
          "ticks": 19200,
          "time": 12.5,
          "velocity": 0.31496062992125984
        },
        {
          "duration": 0.375,
          "durationTicks": 576,
          "midi": 66,
          "name": "F#4",
          "ticks": 19200,
          "time": 12.5,
          "velocity": 0.3937007874015748
        },
        {
          "duration": 0.375,
          "durationTicks": 576,
          "midi": 71,
          "name": "B4",
          "ticks": 19200,
          "time": 12.5,
          "velocity": 0.23622047244094488
        },
        {
          "duration": 0.375,
          "durationTicks": 576,
          "midi": 61,
          "name": "C#4",
          "ticks": 19200,
          "time": 12.5,
          "velocity": 0.11811023622047244
        },
        {
          "duration": 0.125,
          "durationTicks": 192,
          "midi": 59,
          "name": "B3",
          "ticks": 19776,
          "time": 12.875,
          "velocity": 0.3937007874015748
        },
        {
          "duration": 0.125,
          "durationTicks": 192,
          "midi": 62,
          "name": "D4",
          "ticks": 19776,
          "time": 12.875,
          "velocity": 0.1968503937007874
        },
        {
          "duration": 0.125,
          "durationTicks": 192,
          "midi": 71,
          "name": "B4",
          "ticks": 19776,
          "time": 12.875,
          "velocity": 0.23622047244094488
        },
        {
          "duration": 0.125,
          "durationTicks": 192,
          "midi": 64,
          "name": "E4",
          "ticks": 19776,
          "time": 12.875,
          "velocity": 0.3937007874015748
        },
        {
          "duration": 0.25,
          "durationTicks": 384,
          "midi": 64,
          "name": "E4",
          "ticks": 20352,
          "time": 13.25,
          "velocity": 0.3937007874015748
        },
        {
          "duration": 0.25,
          "durationTicks": 384,
          "midi": 62,
          "name": "D4",
          "ticks": 20352,
          "time": 13.25,
          "velocity": 0.23622047244094488
        },
        {
          "duration": 0.25,
          "durationTicks": 384,
          "midi": 59,
          "name": "B3",
          "ticks": 20352,
          "time": 13.25,
          "velocity": 0.3937007874015748
        },
        {
          "duration": 0.25,
          "durationTicks": 384,
          "midi": 71,
          "name": "B4",
          "ticks": 20352,
          "time": 13.25,
          "velocity": 0.23622047244094488
        },
        {
          "duration": 0.125,
          "durationTicks": 192,
          "midi": 59,
          "name": "B3",
          "ticks": 20736,
          "time": 13.5,
          "velocity": 0.1968503937007874
        },
        {
          "duration": 0.125,
          "durationTicks": 192,
          "midi": 71,
          "name": "B4",
          "ticks": 20736,
          "time": 13.5,
          "velocity": 0.03937007874015748
        },
        {
          "duration": 0.125,
          "durationTicks": 192,
          "midi": 62,
          "name": "D4",
          "ticks": 20736,
          "time": 13.5,
          "velocity": 0.07874015748031496
        },
        {
          "duration": 0.125,
          "durationTicks": 192,
          "midi": 64,
          "name": "E4",
          "ticks": 20736,
          "time": 13.5,
          "velocity": 0.1968503937007874
        },
        {
          "duration": 0.25,
          "durationTicks": 384,
          "midi": 71,
          "name": "B4",
          "ticks": 20928,
          "time": 13.625,
          "velocity": 0.23622047244094488
        },
        {
          "duration": 0.25,
          "durationTicks": 384,
          "midi": 64,
          "name": "E4",
          "ticks": 20928,
          "time": 13.625,
          "velocity": 0.3937007874015748
        },
        {
          "duration": 0.25,
          "durationTicks": 384,
          "midi": 59,
          "name": "B3",
          "ticks": 20928,
          "time": 13.625,
          "velocity": 0.3937007874015748
        },
        {
          "duration": 0.25,
          "durationTicks": 384,
          "midi": 62,
          "name": "D4",
          "ticks": 20928,
          "time": 13.625,
          "velocity": 0.23622047244094488
        },
        {
          "duration": 0.125,
          "durationTicks": 192,
          "midi": 64,
          "name": "E4",
          "ticks": 21312,
          "time": 13.875,
          "velocity": 0.2677165354330709
        },
        {
          "duration": 0.125,
          "durationTicks": 192,
          "midi": 62,
          "name": "D4",
          "ticks": 21312,
          "time": 13.875,
          "velocity": 0.15748031496062992
        },
        {
          "duration": 0.125,
          "durationTicks": 192,
          "midi": 59,
          "name": "B3",
          "ticks": 21312,
          "time": 13.875,
          "velocity": 0.2677165354330709
        },
        {
          "duration": 0.125,
          "durationTicks": 192,
          "midi": 71,
          "name": "B4",
          "ticks": 21312,
          "time": 13.875,
          "velocity": 0.11811023622047244
        },
        {
          "duration": 0.3125,
          "durationTicks": 480,
          "midi": 62,
          "name": "D4",
          "ticks": 21504,
          "time": 14,
          "velocity": 0.3937007874015748
        },
        {
          "duration": 0.3125,
          "durationTicks": 480,
          "midi": 71,
          "name": "B4",
          "ticks": 21504,
          "time": 14,
          "velocity": 0.23622047244094488
        },
        {
          "duration": 0.3125,
          "durationTicks": 480,
          "midi": 59,
          "name": "B3",
          "ticks": 21504,
          "time": 14,
          "velocity": 0.3937007874015748
        },
        {
          "duration": 0.3125,
          "durationTicks": 480,
          "midi": 61,
          "name": "C#4",
          "ticks": 21504,
          "time": 14,
          "velocity": 0.15748031496062992
        },
        {
          "duration": 0.3125,
          "durationTicks": 480,
          "midi": 66,
          "name": "F#4",
          "ticks": 21504,
          "time": 14,
          "velocity": 0.3937007874015748
        },
        {
          "duration": 0.125,
          "durationTicks": 192,
          "midi": 62,
          "name": "D4",
          "ticks": 22080,
          "time": 14.375,
          "velocity": 0.23622047244094488
        },
        {
          "duration": 0.125,
          "durationTicks": 192,
          "midi": 71,
          "name": "B4",
          "ticks": 22080,
          "time": 14.375,
          "velocity": 0.07874015748031496
        },
        {
          "duration": 0.125,
          "durationTicks": 192,
          "midi": 61,
          "name": "C#4",
          "ticks": 22080,
          "time": 14.375,
          "velocity": 0.03937007874015748
        },
        {
          "duration": 0.125,
          "durationTicks": 192,
          "midi": 66,
          "name": "F#4",
          "ticks": 22080,
          "time": 14.375,
          "velocity": 0.23622047244094488
        },
        {
          "duration": 0.125,
          "durationTicks": 192,
          "midi": 59,
          "name": "B3",
          "ticks": 22080,
          "time": 14.375,
          "velocity": 0.23622047244094488
        },
        {
          "duration": 0.375,
          "durationTicks": 576,
          "midi": 66,
          "name": "F#4",
          "ticks": 22272,
          "time": 14.5,
          "velocity": 0.3937007874015748
        },
        {
          "duration": 0.375,
          "durationTicks": 576,
          "midi": 62,
          "name": "D4",
          "ticks": 22272,
          "time": 14.5,
          "velocity": 0.31496062992125984
        },
        {
          "duration": 0.375,
          "durationTicks": 576,
          "midi": 71,
          "name": "B4",
          "ticks": 22272,
          "time": 14.5,
          "velocity": 0.23622047244094488
        },
        {
          "duration": 0.375,
          "durationTicks": 576,
          "midi": 61,
          "name": "C#4",
          "ticks": 22272,
          "time": 14.5,
          "velocity": 0.1968503937007874
        },
        {
          "duration": 0.375,
          "durationTicks": 576,
          "midi": 59,
          "name": "B3",
          "ticks": 22272,
          "time": 14.5,
          "velocity": 0.3937007874015748
        },
        {
          "duration": 0.125,
          "durationTicks": 192,
          "midi": 64,
          "name": "E4",
          "ticks": 22848,
          "time": 14.875,
          "velocity": 0.3937007874015748
        },
        {
          "duration": 0.125,
          "durationTicks": 192,
          "midi": 59,
          "name": "B3",
          "ticks": 22848,
          "time": 14.875,
          "velocity": 0.3937007874015748
        },
        {
          "duration": 0.125,
          "durationTicks": 192,
          "midi": 71,
          "name": "B4",
          "ticks": 22848,
          "time": 14.875,
          "velocity": 0.23622047244094488
        },
        {
          "duration": 0.125,
          "durationTicks": 192,
          "midi": 62,
          "name": "D4",
          "ticks": 22848,
          "time": 14.875,
          "velocity": 0.1968503937007874
        },
        {
          "duration": 0.25,
          "durationTicks": 384,
          "midi": 62,
          "name": "D4",
          "ticks": 23424,
          "time": 15.25,
          "velocity": 0.23622047244094488
        },
        {
          "duration": 0.25,
          "durationTicks": 384,
          "midi": 71,
          "name": "B4",
          "ticks": 23424,
          "time": 15.25,
          "velocity": 0.23622047244094488
        },
        {
          "duration": 0.25,
          "durationTicks": 384,
          "midi": 64,
          "name": "E4",
          "ticks": 23424,
          "time": 15.25,
          "velocity": 0.3937007874015748
        },
        {
          "duration": 0.25,
          "durationTicks": 384,
          "midi": 59,
          "name": "B3",
          "ticks": 23424,
          "time": 15.25,
          "velocity": 0.3937007874015748
        },
        {
          "duration": 0.125,
          "durationTicks": 192,
          "midi": 71,
          "name": "B4",
          "ticks": 23808,
          "time": 15.5,
          "velocity": 0.03937007874015748
        },
        {
          "duration": 0.125,
          "durationTicks": 192,
          "midi": 64,
          "name": "E4",
          "ticks": 23808,
          "time": 15.5,
          "velocity": 0.1968503937007874
        },
        {
          "duration": 0.125,
          "durationTicks": 192,
          "midi": 62,
          "name": "D4",
          "ticks": 23808,
          "time": 15.5,
          "velocity": 0.07874015748031496
        },
        {
          "duration": 0.125,
          "durationTicks": 192,
          "midi": 59,
          "name": "B3",
          "ticks": 23808,
          "time": 15.5,
          "velocity": 0.1968503937007874
        },
        {
          "duration": 0.25,
          "durationTicks": 384,
          "midi": 62,
          "name": "D4",
          "ticks": 24000,
          "time": 15.625,
          "velocity": 0.23622047244094488
        },
        {
          "duration": 0.25,
          "durationTicks": 384,
          "midi": 71,
          "name": "B4",
          "ticks": 24000,
          "time": 15.625,
          "velocity": 0.23622047244094488
        },
        {
          "duration": 0.25,
          "durationTicks": 384,
          "midi": 64,
          "name": "E4",
          "ticks": 24000,
          "time": 15.625,
          "velocity": 0.3937007874015748
        },
        {
          "duration": 0.25,
          "durationTicks": 384,
          "midi": 59,
          "name": "B3",
          "ticks": 24000,
          "time": 15.625,
          "velocity": 0.3937007874015748
        },
        {
          "duration": 0.125,
          "durationTicks": 192,
          "midi": 71,
          "name": "B4",
          "ticks": 24384,
          "time": 15.875,
          "velocity": 0.11811023622047244
        },
        {
          "duration": 0.125,
          "durationTicks": 192,
          "midi": 59,
          "name": "B3",
          "ticks": 24384,
          "time": 15.875,
          "velocity": 0.2677165354330709
        },
        {
          "duration": 0.125,
          "durationTicks": 192,
          "midi": 64,
          "name": "E4",
          "ticks": 24384,
          "time": 15.875,
          "velocity": 0.2677165354330709
        },
        {
          "duration": 0.125,
          "durationTicks": 192,
          "midi": 62,
          "name": "D4",
          "ticks": 24384,
          "time": 15.875,
          "velocity": 0.15748031496062992
        },
        {
          "duration": 0.375,
          "durationTicks": 576,
          "midi": 66,
          "name": "F#4",
          "ticks": 24576,
          "time": 16,
          "velocity": 0.3937007874015748
        },
        {
          "duration": 0.375,
          "durationTicks": 576,
          "midi": 61,
          "name": "C#4",
          "ticks": 24576,
          "time": 16,
          "velocity": 0.23622047244094488
        },
        {
          "duration": 0.375,
          "durationTicks": 576,
          "midi": 71,
          "name": "B4",
          "ticks": 24576,
          "time": 16,
          "velocity": 0.23622047244094488
        },
        {
          "duration": 0.375,
          "durationTicks": 576,
          "midi": 59,
          "name": "B3",
          "ticks": 24576,
          "time": 16,
          "velocity": 0.3937007874015748
        },
        {
          "duration": 0.375,
          "durationTicks": 576,
          "midi": 62,
          "name": "D4",
          "ticks": 24576,
          "time": 16,
          "velocity": 0.3937007874015748
        },
        {
          "duration": 0.375,
          "durationTicks": 576,
          "midi": 71,
          "name": "B4",
          "ticks": 25344,
          "time": 16.5,
          "velocity": 0.23622047244094488
        },
        {
          "duration": 0.375,
          "durationTicks": 576,
          "midi": 61,
          "name": "C#4",
          "ticks": 25344,
          "time": 16.5,
          "velocity": 0.23622047244094488
        },
        {
          "duration": 0.375,
          "durationTicks": 576,
          "midi": 66,
          "name": "F#4",
          "ticks": 25344,
          "time": 16.5,
          "velocity": 0.3937007874015748
        },
        {
          "duration": 0.375,
          "durationTicks": 576,
          "midi": 62,
          "name": "D4",
          "ticks": 25344,
          "time": 16.5,
          "velocity": 0.3937007874015748
        },
        {
          "duration": 0.375,
          "durationTicks": 576,
          "midi": 59,
          "name": "B3",
          "ticks": 25344,
          "time": 16.5,
          "velocity": 0.3937007874015748
        },
        {
          "duration": 0.125,
          "durationTicks": 192,
          "midi": 59,
          "name": "B3",
          "ticks": 25920,
          "time": 16.875,
          "velocity": 0.3937007874015748
        },
        {
          "duration": 0.125,
          "durationTicks": 192,
          "midi": 71,
          "name": "B4",
          "ticks": 25920,
          "time": 16.875,
          "velocity": 0.23622047244094488
        },
        {
          "duration": 0.125,
          "durationTicks": 192,
          "midi": 62,
          "name": "D4",
          "ticks": 25920,
          "time": 16.875,
          "velocity": 0.3937007874015748
        },
        {
          "duration": 0.125,
          "durationTicks": 192,
          "midi": 66,
          "name": "F#4",
          "ticks": 25920,
          "time": 16.875,
          "velocity": 0.3937007874015748
        },
        {
          "duration": 0.125,
          "durationTicks": 192,
          "midi": 64,
          "name": "E4",
          "ticks": 25920,
          "time": 16.875,
          "velocity": 0.2677165354330709
        },
        {
          "duration": 0.25,
          "durationTicks": 384,
          "midi": 66,
          "name": "F#4",
          "ticks": 26496,
          "time": 17.25,
          "velocity": 0.3937007874015748
        },
        {
          "duration": 0.25,
          "durationTicks": 384,
          "midi": 59,
          "name": "B3",
          "ticks": 26496,
          "time": 17.25,
          "velocity": 0.3937007874015748
        },
        {
          "duration": 0.25,
          "durationTicks": 384,
          "midi": 71,
          "name": "B4",
          "ticks": 26496,
          "time": 17.25,
          "velocity": 0.23622047244094488
        },
        {
          "duration": 0.25,
          "durationTicks": 384,
          "midi": 62,
          "name": "D4",
          "ticks": 26496,
          "time": 17.25,
          "velocity": 0.3937007874015748
        },
        {
          "duration": 0.25,
          "durationTicks": 384,
          "midi": 64,
          "name": "E4",
          "ticks": 26496,
          "time": 17.25,
          "velocity": 0.1968503937007874
        },
        {
          "duration": 0.125,
          "durationTicks": 192,
          "midi": 66,
          "name": "F#4",
          "ticks": 26880,
          "time": 17.5,
          "velocity": 0.1968503937007874
        },
        {
          "duration": 0.125,
          "durationTicks": 192,
          "midi": 71,
          "name": "B4",
          "ticks": 26880,
          "time": 17.5,
          "velocity": 0.03937007874015748
        },
        {
          "duration": 0.125,
          "durationTicks": 192,
          "midi": 59,
          "name": "B3",
          "ticks": 26880,
          "time": 17.5,
          "velocity": 0.1968503937007874
        },
        {
          "duration": 0.125,
          "durationTicks": 192,
          "midi": 62,
          "name": "D4",
          "ticks": 26880,
          "time": 17.5,
          "velocity": 0.1968503937007874
        },
        {
          "duration": 0.25,
          "durationTicks": 384,
          "midi": 71,
          "name": "B4",
          "ticks": 27072,
          "time": 17.625,
          "velocity": 0.23622047244094488
        },
        {
          "duration": 0.25,
          "durationTicks": 384,
          "midi": 62,
          "name": "D4",
          "ticks": 27072,
          "time": 17.625,
          "velocity": 0.3937007874015748
        },
        {
          "duration": 0.25,
          "durationTicks": 384,
          "midi": 59,
          "name": "B3",
          "ticks": 27072,
          "time": 17.625,
          "velocity": 0.3937007874015748
        },
        {
          "duration": 0.25,
          "durationTicks": 384,
          "midi": 66,
          "name": "F#4",
          "ticks": 27072,
          "time": 17.625,
          "velocity": 0.3937007874015748
        },
        {
          "duration": 0,
          "durationTicks": 0,
          "midi": 64,
          "name": "E4",
          "ticks": 27072,
          "time": 17.625,
          "velocity": 0.1968503937007874
        },
        {
          "duration": 0.125,
          "durationTicks": 192,
          "midi": 62,
          "name": "D4",
          "ticks": 27456,
          "time": 17.875,
          "velocity": 0.2677165354330709
        },
        {
          "duration": 0.125,
          "durationTicks": 192,
          "midi": 59,
          "name": "B3",
          "ticks": 27456,
          "time": 17.875,
          "velocity": 0.2677165354330709
        },
        {
          "duration": 0.125,
          "durationTicks": 192,
          "midi": 71,
          "name": "B4",
          "ticks": 27456,
          "time": 17.875,
          "velocity": 0.11811023622047244
        },
        {
          "duration": 0.125,
          "durationTicks": 192,
          "midi": 66,
          "name": "F#4",
          "ticks": 27456,
          "time": 17.875,
          "velocity": 0.2677165354330709
        },
        {
          "duration": 0,
          "durationTicks": 0,
          "midi": 64,
          "name": "E4",
          "ticks": 27456,
          "time": 17.875,
          "velocity": 0.07874015748031496
        },
        {
          "duration": 0.375,
          "durationTicks": 576,
          "midi": 61,
          "name": "C#4",
          "ticks": 27648,
          "time": 18,
          "velocity": 0.3937007874015748
        },
        {
          "duration": 0.375,
          "durationTicks": 576,
          "midi": 59,
          "name": "B3",
          "ticks": 27648,
          "time": 18,
          "velocity": 0.3937007874015748
        },
        {
          "duration": 0.375,
          "durationTicks": 576,
          "midi": 66,
          "name": "F#4",
          "ticks": 27648,
          "time": 18,
          "velocity": 0.3937007874015748
        },
        {
          "duration": 0.375,
          "durationTicks": 576,
          "midi": 71,
          "name": "B4",
          "ticks": 27648,
          "time": 18,
          "velocity": 0.23622047244094488
        },
        {
          "duration": 0.375,
          "durationTicks": 576,
          "midi": 62,
          "name": "D4",
          "ticks": 27648,
          "time": 18,
          "velocity": 0.1968503937007874
        },
        {
          "duration": 0.375,
          "durationTicks": 576,
          "midi": 61,
          "name": "C#4",
          "ticks": 28416,
          "time": 18.5,
          "velocity": 0.3937007874015748
        },
        {
          "duration": 0.375,
          "durationTicks": 576,
          "midi": 66,
          "name": "F#4",
          "ticks": 28416,
          "time": 18.5,
          "velocity": 0.3937007874015748
        },
        {
          "duration": 0.375,
          "durationTicks": 576,
          "midi": 62,
          "name": "D4",
          "ticks": 28416,
          "time": 18.5,
          "velocity": 0.1968503937007874
        },
        {
          "duration": 0.375,
          "durationTicks": 576,
          "midi": 59,
          "name": "B3",
          "ticks": 28416,
          "time": 18.5,
          "velocity": 0.3937007874015748
        },
        {
          "duration": 0.375,
          "durationTicks": 576,
          "midi": 71,
          "name": "B4",
          "ticks": 28416,
          "time": 18.5,
          "velocity": 0.23622047244094488
        },
        {
          "duration": 0.125,
          "durationTicks": 192,
          "midi": 62,
          "name": "D4",
          "ticks": 28992,
          "time": 18.875,
          "velocity": 0.3937007874015748
        },
        {
          "duration": 0.125,
          "durationTicks": 192,
          "midi": 66,
          "name": "F#4",
          "ticks": 28992,
          "time": 18.875,
          "velocity": 0.3937007874015748
        },
        {
          "duration": 0.125,
          "durationTicks": 192,
          "midi": 71,
          "name": "B4",
          "ticks": 28992,
          "time": 18.875,
          "velocity": 0.23622047244094488
        },
        {
          "duration": 0.125,
          "durationTicks": 192,
          "midi": 59,
          "name": "B3",
          "ticks": 28992,
          "time": 18.875,
          "velocity": 0.3937007874015748
        },
        {
          "duration": 0.25,
          "durationTicks": 384,
          "midi": 59,
          "name": "B3",
          "ticks": 29568,
          "time": 19.25,
          "velocity": 0.3937007874015748
        },
        {
          "duration": 0.25,
          "durationTicks": 384,
          "midi": 62,
          "name": "D4",
          "ticks": 29568,
          "time": 19.25,
          "velocity": 0.3937007874015748
        },
        {
          "duration": 0.25,
          "durationTicks": 384,
          "midi": 66,
          "name": "F#4",
          "ticks": 29568,
          "time": 19.25,
          "velocity": 0.3937007874015748
        },
        {
          "duration": 0.25,
          "durationTicks": 384,
          "midi": 71,
          "name": "B4",
          "ticks": 29568,
          "time": 19.25,
          "velocity": 0.23622047244094488
        },
        {
          "duration": 0.125,
          "durationTicks": 192,
          "midi": 66,
          "name": "F#4",
          "ticks": 29952,
          "time": 19.5,
          "velocity": 0.1968503937007874
        },
        {
          "duration": 0.125,
          "durationTicks": 192,
          "midi": 62,
          "name": "D4",
          "ticks": 29952,
          "time": 19.5,
          "velocity": 0.1968503937007874
        },
        {
          "duration": 0.125,
          "durationTicks": 192,
          "midi": 59,
          "name": "B3",
          "ticks": 29952,
          "time": 19.5,
          "velocity": 0.1968503937007874
        },
        {
          "duration": 0.125,
          "durationTicks": 192,
          "midi": 71,
          "name": "B4",
          "ticks": 29952,
          "time": 19.5,
          "velocity": 0.03937007874015748
        },
        {
          "duration": 0.25,
          "durationTicks": 384,
          "midi": 66,
          "name": "F#4",
          "ticks": 30144,
          "time": 19.625,
          "velocity": 0.3937007874015748
        },
        {
          "duration": 0.25,
          "durationTicks": 384,
          "midi": 62,
          "name": "D4",
          "ticks": 30144,
          "time": 19.625,
          "velocity": 0.3937007874015748
        },
        {
          "duration": 0.25,
          "durationTicks": 384,
          "midi": 59,
          "name": "B3",
          "ticks": 30144,
          "time": 19.625,
          "velocity": 0.3937007874015748
        },
        {
          "duration": 0.25,
          "durationTicks": 384,
          "midi": 71,
          "name": "B4",
          "ticks": 30144,
          "time": 19.625,
          "velocity": 0.23622047244094488
        },
        {
          "duration": 0.125,
          "durationTicks": 192,
          "midi": 59,
          "name": "B3",
          "ticks": 30528,
          "time": 19.875,
          "velocity": 0.2677165354330709
        },
        {
          "duration": 0.125,
          "durationTicks": 192,
          "midi": 62,
          "name": "D4",
          "ticks": 30528,
          "time": 19.875,
          "velocity": 0.2677165354330709
        },
        {
          "duration": 0.125,
          "durationTicks": 192,
          "midi": 71,
          "name": "B4",
          "ticks": 30528,
          "time": 19.875,
          "velocity": 0.11811023622047244
        },
        {
          "duration": 0.125,
          "durationTicks": 192,
          "midi": 66,
          "name": "F#4",
          "ticks": 30528,
          "time": 19.875,
          "velocity": 0.2677165354330709
        },
        {
          "duration": 0.375,
          "durationTicks": 576,
          "midi": 71,
          "name": "B4",
          "ticks": 30720,
          "time": 20,
          "velocity": 0.23622047244094488
        },
        {
          "duration": 0.375,
          "durationTicks": 576,
          "midi": 61,
          "name": "C#4",
          "ticks": 30720,
          "time": 20,
          "velocity": 0.07874015748031496
        },
        {
          "duration": 0.375,
          "durationTicks": 576,
          "midi": 59,
          "name": "B3",
          "ticks": 30720,
          "time": 20,
          "velocity": 0.3937007874015748
        },
        {
          "duration": 0.375,
          "durationTicks": 576,
          "midi": 66,
          "name": "F#4",
          "ticks": 30720,
          "time": 20,
          "velocity": 0.3937007874015748
        },
        {
          "duration": 0.375,
          "durationTicks": 576,
          "midi": 62,
          "name": "D4",
          "ticks": 30720,
          "time": 20,
          "velocity": 0.3937007874015748
        },
        {
          "duration": 0.375,
          "durationTicks": 576,
          "midi": 62,
          "name": "D4",
          "ticks": 31488,
          "time": 20.5,
          "velocity": 0.31496062992125984
        },
        {
          "duration": 0.375,
          "durationTicks": 576,
          "midi": 66,
          "name": "F#4",
          "ticks": 31488,
          "time": 20.5,
          "velocity": 0.3937007874015748
        },
        {
          "duration": 0.375,
          "durationTicks": 576,
          "midi": 59,
          "name": "B3",
          "ticks": 31488,
          "time": 20.5,
          "velocity": 0.3937007874015748
        },
        {
          "duration": 0.375,
          "durationTicks": 576,
          "midi": 61,
          "name": "C#4",
          "ticks": 31488,
          "time": 20.5,
          "velocity": 0.11811023622047244
        },
        {
          "duration": 0.375,
          "durationTicks": 576,
          "midi": 71,
          "name": "B4",
          "ticks": 31488,
          "time": 20.5,
          "velocity": 0.23622047244094488
        },
        {
          "duration": 0.125,
          "durationTicks": 192,
          "midi": 64,
          "name": "E4",
          "ticks": 32064,
          "time": 20.875,
          "velocity": 0.3937007874015748
        },
        {
          "duration": 0.125,
          "durationTicks": 192,
          "midi": 59,
          "name": "B3",
          "ticks": 32064,
          "time": 20.875,
          "velocity": 0.3937007874015748
        },
        {
          "duration": 0.125,
          "durationTicks": 192,
          "midi": 71,
          "name": "B4",
          "ticks": 32064,
          "time": 20.875,
          "velocity": 0.23622047244094488
        },
        {
          "duration": 0.125,
          "durationTicks": 192,
          "midi": 62,
          "name": "D4",
          "ticks": 32064,
          "time": 20.875,
          "velocity": 0.1968503937007874
        },
        {
          "duration": 0.25,
          "durationTicks": 384,
          "midi": 59,
          "name": "B3",
          "ticks": 32640,
          "time": 21.25,
          "velocity": 0.3937007874015748
        },
        {
          "duration": 0.25,
          "durationTicks": 384,
          "midi": 71,
          "name": "B4",
          "ticks": 32640,
          "time": 21.25,
          "velocity": 0.23622047244094488
        },
        {
          "duration": 0.25,
          "durationTicks": 384,
          "midi": 64,
          "name": "E4",
          "ticks": 32640,
          "time": 21.25,
          "velocity": 0.3937007874015748
        },
        {
          "duration": 0.25,
          "durationTicks": 384,
          "midi": 62,
          "name": "D4",
          "ticks": 32640,
          "time": 21.25,
          "velocity": 0.23622047244094488
        },
        {
          "duration": 0.125,
          "durationTicks": 192,
          "midi": 59,
          "name": "B3",
          "ticks": 33024,
          "time": 21.5,
          "velocity": 0.1968503937007874
        },
        {
          "duration": 0.125,
          "durationTicks": 192,
          "midi": 64,
          "name": "E4",
          "ticks": 33024,
          "time": 21.5,
          "velocity": 0.1968503937007874
        },
        {
          "duration": 0.125,
          "durationTicks": 192,
          "midi": 62,
          "name": "D4",
          "ticks": 33024,
          "time": 21.5,
          "velocity": 0.07874015748031496
        },
        {
          "duration": 0.125,
          "durationTicks": 192,
          "midi": 71,
          "name": "B4",
          "ticks": 33024,
          "time": 21.5,
          "velocity": 0.03937007874015748
        },
        {
          "duration": 0.25,
          "durationTicks": 384,
          "midi": 59,
          "name": "B3",
          "ticks": 33216,
          "time": 21.625,
          "velocity": 0.3937007874015748
        },
        {
          "duration": 0.25,
          "durationTicks": 384,
          "midi": 71,
          "name": "B4",
          "ticks": 33216,
          "time": 21.625,
          "velocity": 0.23622047244094488
        },
        {
          "duration": 0.25,
          "durationTicks": 384,
          "midi": 62,
          "name": "D4",
          "ticks": 33216,
          "time": 21.625,
          "velocity": 0.23622047244094488
        },
        {
          "duration": 0.25,
          "durationTicks": 384,
          "midi": 64,
          "name": "E4",
          "ticks": 33216,
          "time": 21.625,
          "velocity": 0.3937007874015748
        },
        {
          "duration": 0.125,
          "durationTicks": 192,
          "midi": 62,
          "name": "D4",
          "ticks": 33600,
          "time": 21.875,
          "velocity": 0.15748031496062992
        },
        {
          "duration": 0.125,
          "durationTicks": 192,
          "midi": 64,
          "name": "E4",
          "ticks": 33600,
          "time": 21.875,
          "velocity": 0.2677165354330709
        },
        {
          "duration": 0.125,
          "durationTicks": 192,
          "midi": 71,
          "name": "B4",
          "ticks": 33600,
          "time": 21.875,
          "velocity": 0.11811023622047244
        },
        {
          "duration": 0.125,
          "durationTicks": 192,
          "midi": 59,
          "name": "B3",
          "ticks": 33600,
          "time": 21.875,
          "velocity": 0.2677165354330709
        },
        {
          "duration": 0.3125,
          "durationTicks": 480,
          "midi": 66,
          "name": "F#4",
          "ticks": 33792,
          "time": 22,
          "velocity": 0.3937007874015748
        },
        {
          "duration": 0.3125,
          "durationTicks": 480,
          "midi": 59,
          "name": "B3",
          "ticks": 33792,
          "time": 22,
          "velocity": 0.3937007874015748
        },
        {
          "duration": 0.3125,
          "durationTicks": 480,
          "midi": 62,
          "name": "D4",
          "ticks": 33792,
          "time": 22,
          "velocity": 0.3937007874015748
        },
        {
          "duration": 0.3125,
          "durationTicks": 480,
          "midi": 71,
          "name": "B4",
          "ticks": 33792,
          "time": 22,
          "velocity": 0.23622047244094488
        },
        {
          "duration": 0.3125,
          "durationTicks": 480,
          "midi": 61,
          "name": "C#4",
          "ticks": 33792,
          "time": 22,
          "velocity": 0.15748031496062992
        },
        {
          "duration": 0.125,
          "durationTicks": 192,
          "midi": 71,
          "name": "B4",
          "ticks": 34368,
          "time": 22.375,
          "velocity": 0.07874015748031496
        },
        {
          "duration": 0.125,
          "durationTicks": 192,
          "midi": 59,
          "name": "B3",
          "ticks": 34368,
          "time": 22.375,
          "velocity": 0.23622047244094488
        },
        {
          "duration": 0.125,
          "durationTicks": 192,
          "midi": 61,
          "name": "C#4",
          "ticks": 34368,
          "time": 22.375,
          "velocity": 0.03937007874015748
        },
        {
          "duration": 0.125,
          "durationTicks": 192,
          "midi": 66,
          "name": "F#4",
          "ticks": 34368,
          "time": 22.375,
          "velocity": 0.23622047244094488
        },
        {
          "duration": 0.125,
          "durationTicks": 192,
          "midi": 62,
          "name": "D4",
          "ticks": 34368,
          "time": 22.375,
          "velocity": 0.23622047244094488
        },
        {
          "duration": 0.375,
          "durationTicks": 576,
          "midi": 71,
          "name": "B4",
          "ticks": 34560,
          "time": 22.5,
          "velocity": 0.23622047244094488
        },
        {
          "duration": 0.375,
          "durationTicks": 576,
          "midi": 66,
          "name": "F#4",
          "ticks": 34560,
          "time": 22.5,
          "velocity": 0.3937007874015748
        },
        {
          "duration": 0.375,
          "durationTicks": 576,
          "midi": 61,
          "name": "C#4",
          "ticks": 34560,
          "time": 22.5,
          "velocity": 0.1968503937007874
        },
        {
          "duration": 0.375,
          "durationTicks": 576,
          "midi": 62,
          "name": "D4",
          "ticks": 34560,
          "time": 22.5,
          "velocity": 0.31496062992125984
        },
        {
          "duration": 0.375,
          "durationTicks": 576,
          "midi": 59,
          "name": "B3",
          "ticks": 34560,
          "time": 22.5,
          "velocity": 0.3937007874015748
        },
        {
          "duration": 0.125,
          "durationTicks": 192,
          "midi": 71,
          "name": "B4",
          "ticks": 35136,
          "time": 22.875,
          "velocity": 0.23622047244094488
        },
        {
          "duration": 0.125,
          "durationTicks": 192,
          "midi": 59,
          "name": "B3",
          "ticks": 35136,
          "time": 22.875,
          "velocity": 0.3937007874015748
        },
        {
          "duration": 0.125,
          "durationTicks": 192,
          "midi": 64,
          "name": "E4",
          "ticks": 35136,
          "time": 22.875,
          "velocity": 0.3937007874015748
        },
        {
          "duration": 0.125,
          "durationTicks": 192,
          "midi": 62,
          "name": "D4",
          "ticks": 35136,
          "time": 22.875,
          "velocity": 0.1968503937007874
        },
        {
          "duration": 0.25,
          "durationTicks": 384,
          "midi": 64,
          "name": "E4",
          "ticks": 35712,
          "time": 23.25,
          "velocity": 0.3937007874015748
        },
        {
          "duration": 0.25,
          "durationTicks": 384,
          "midi": 71,
          "name": "B4",
          "ticks": 35712,
          "time": 23.25,
          "velocity": 0.23622047244094488
        },
        {
          "duration": 0.25,
          "durationTicks": 384,
          "midi": 59,
          "name": "B3",
          "ticks": 35712,
          "time": 23.25,
          "velocity": 0.3937007874015748
        },
        {
          "duration": 0.25,
          "durationTicks": 384,
          "midi": 62,
          "name": "D4",
          "ticks": 35712,
          "time": 23.25,
          "velocity": 0.23622047244094488
        },
        {
          "duration": 0.125,
          "durationTicks": 192,
          "midi": 64,
          "name": "E4",
          "ticks": 36096,
          "time": 23.5,
          "velocity": 0.1968503937007874
        },
        {
          "duration": 0.125,
          "durationTicks": 192,
          "midi": 59,
          "name": "B3",
          "ticks": 36096,
          "time": 23.5,
          "velocity": 0.1968503937007874
        },
        {
          "duration": 0.125,
          "durationTicks": 192,
          "midi": 62,
          "name": "D4",
          "ticks": 36096,
          "time": 23.5,
          "velocity": 0.07874015748031496
        },
        {
          "duration": 0.125,
          "durationTicks": 192,
          "midi": 71,
          "name": "B4",
          "ticks": 36096,
          "time": 23.5,
          "velocity": 0.03937007874015748
        },
        {
          "duration": 0.25,
          "durationTicks": 384,
          "midi": 62,
          "name": "D4",
          "ticks": 36288,
          "time": 23.625,
          "velocity": 0.23622047244094488
        },
        {
          "duration": 0.25,
          "durationTicks": 384,
          "midi": 64,
          "name": "E4",
          "ticks": 36288,
          "time": 23.625,
          "velocity": 0.3937007874015748
        },
        {
          "duration": 0.25,
          "durationTicks": 384,
          "midi": 71,
          "name": "B4",
          "ticks": 36288,
          "time": 23.625,
          "velocity": 0.23622047244094488
        },
        {
          "duration": 0.25,
          "durationTicks": 384,
          "midi": 59,
          "name": "B3",
          "ticks": 36288,
          "time": 23.625,
          "velocity": 0.3937007874015748
        },
        {
          "duration": 0.125,
          "durationTicks": 192,
          "midi": 71,
          "name": "B4",
          "ticks": 36672,
          "time": 23.875,
          "velocity": 0.11811023622047244
        },
        {
          "duration": 0.125,
          "durationTicks": 192,
          "midi": 62,
          "name": "D4",
          "ticks": 36672,
          "time": 23.875,
          "velocity": 0.15748031496062992
        },
        {
          "duration": 0.125,
          "durationTicks": 192,
          "midi": 59,
          "name": "B3",
          "ticks": 36672,
          "time": 23.875,
          "velocity": 0.2677165354330709
        },
        {
          "duration": 0.125,
          "durationTicks": 192,
          "midi": 64,
          "name": "E4",
          "ticks": 36672,
          "time": 23.875,
          "velocity": 0.2677165354330709
        },
        {
          "duration": 0.375,
          "durationTicks": 576,
          "midi": 66,
          "name": "F#4",
          "ticks": 36864,
          "time": 24,
          "velocity": 0.3937007874015748
        },
        {
          "duration": 0.375,
          "durationTicks": 576,
          "midi": 59,
          "name": "B3",
          "ticks": 36864,
          "time": 24,
          "velocity": 0.3937007874015748
        },
        {
          "duration": 0.375,
          "durationTicks": 576,
          "midi": 62,
          "name": "D4",
          "ticks": 36864,
          "time": 24,
          "velocity": 0.3937007874015748
        },
        {
          "duration": 0.375,
          "durationTicks": 576,
          "midi": 61,
          "name": "C#4",
          "ticks": 36864,
          "time": 24,
          "velocity": 0.23622047244094488
        },
        {
          "duration": 0.375,
          "durationTicks": 576,
          "midi": 71,
          "name": "B4",
          "ticks": 36864,
          "time": 24,
          "velocity": 0.23622047244094488
        },
        {
          "duration": 0.375,
          "durationTicks": 576,
          "midi": 71,
          "name": "B4",
          "ticks": 37632,
          "time": 24.5,
          "velocity": 0.23622047244094488
        },
        {
          "duration": 0.375,
          "durationTicks": 576,
          "midi": 66,
          "name": "F#4",
          "ticks": 37632,
          "time": 24.5,
          "velocity": 0.3937007874015748
        },
        {
          "duration": 0.375,
          "durationTicks": 576,
          "midi": 59,
          "name": "B3",
          "ticks": 37632,
          "time": 24.5,
          "velocity": 0.3937007874015748
        },
        {
          "duration": 0.375,
          "durationTicks": 576,
          "midi": 62,
          "name": "D4",
          "ticks": 37632,
          "time": 24.5,
          "velocity": 0.3937007874015748
        },
        {
          "duration": 0.375,
          "durationTicks": 576,
          "midi": 61,
          "name": "C#4",
          "ticks": 37632,
          "time": 24.5,
          "velocity": 0.23622047244094488
        },
        {
          "duration": 0.125,
          "durationTicks": 192,
          "midi": 66,
          "name": "F#4",
          "ticks": 38208,
          "time": 24.875,
          "velocity": 0.3937007874015748
        },
        {
          "duration": 0.125,
          "durationTicks": 192,
          "midi": 64,
          "name": "E4",
          "ticks": 38208,
          "time": 24.875,
          "velocity": 0.2677165354330709
        },
        {
          "duration": 0.125,
          "durationTicks": 192,
          "midi": 71,
          "name": "B4",
          "ticks": 38208,
          "time": 24.875,
          "velocity": 0.23622047244094488
        },
        {
          "duration": 0.125,
          "durationTicks": 192,
          "midi": 59,
          "name": "B3",
          "ticks": 38208,
          "time": 24.875,
          "velocity": 0.3937007874015748
        },
        {
          "duration": 0.125,
          "durationTicks": 192,
          "midi": 62,
          "name": "D4",
          "ticks": 38208,
          "time": 24.875,
          "velocity": 0.3937007874015748
        },
        {
          "duration": 0.25,
          "durationTicks": 384,
          "midi": 64,
          "name": "E4",
          "ticks": 38784,
          "time": 25.25,
          "velocity": 0.1968503937007874
        },
        {
          "duration": 0.25,
          "durationTicks": 384,
          "midi": 71,
          "name": "B4",
          "ticks": 38784,
          "time": 25.25,
          "velocity": 0.23622047244094488
        },
        {
          "duration": 0.25,
          "durationTicks": 384,
          "midi": 59,
          "name": "B3",
          "ticks": 38784,
          "time": 25.25,
          "velocity": 0.3937007874015748
        },
        {
          "duration": 0.25,
          "durationTicks": 384,
          "midi": 62,
          "name": "D4",
          "ticks": 38784,
          "time": 25.25,
          "velocity": 0.3937007874015748
        },
        {
          "duration": 0.25,
          "durationTicks": 384,
          "midi": 66,
          "name": "F#4",
          "ticks": 38784,
          "time": 25.25,
          "velocity": 0.3937007874015748
        },
        {
          "duration": 0.125,
          "durationTicks": 192,
          "midi": 59,
          "name": "B3",
          "ticks": 39168,
          "time": 25.5,
          "velocity": 0.1968503937007874
        },
        {
          "duration": 0.125,
          "durationTicks": 192,
          "midi": 66,
          "name": "F#4",
          "ticks": 39168,
          "time": 25.5,
          "velocity": 0.1968503937007874
        },
        {
          "duration": 0.125,
          "durationTicks": 192,
          "midi": 71,
          "name": "B4",
          "ticks": 39168,
          "time": 25.5,
          "velocity": 0.03937007874015748
        },
        {
          "duration": 0.125,
          "durationTicks": 192,
          "midi": 62,
          "name": "D4",
          "ticks": 39168,
          "time": 25.5,
          "velocity": 0.1968503937007874
        },
        {
          "duration": 0,
          "durationTicks": 0,
          "midi": 64,
          "name": "E4",
          "ticks": 39360,
          "time": 25.625,
          "velocity": 0.1968503937007874
        },
        {
          "duration": 0.25,
          "durationTicks": 384,
          "midi": 71,
          "name": "B4",
          "ticks": 39360,
          "time": 25.625,
          "velocity": 0.23622047244094488
        },
        {
          "duration": 0.25,
          "durationTicks": 384,
          "midi": 62,
          "name": "D4",
          "ticks": 39360,
          "time": 25.625,
          "velocity": 0.3937007874015748
        },
        {
          "duration": 0.25,
          "durationTicks": 384,
          "midi": 59,
          "name": "B3",
          "ticks": 39360,
          "time": 25.625,
          "velocity": 0.3937007874015748
        },
        {
          "duration": 0.25,
          "durationTicks": 384,
          "midi": 66,
          "name": "F#4",
          "ticks": 39360,
          "time": 25.625,
          "velocity": 0.3937007874015748
        },
        {
          "duration": 0.125,
          "durationTicks": 192,
          "midi": 71,
          "name": "B4",
          "ticks": 39744,
          "time": 25.875,
          "velocity": 0.11811023622047244
        },
        {
          "duration": 0.125,
          "durationTicks": 192,
          "midi": 66,
          "name": "F#4",
          "ticks": 39744,
          "time": 25.875,
          "velocity": 0.2677165354330709
        },
        {
          "duration": 0.125,
          "durationTicks": 192,
          "midi": 59,
          "name": "B3",
          "ticks": 39744,
          "time": 25.875,
          "velocity": 0.2677165354330709
        },
        {
          "duration": 0,
          "durationTicks": 0,
          "midi": 64,
          "name": "E4",
          "ticks": 39744,
          "time": 25.875,
          "velocity": 0.07874015748031496
        },
        {
          "duration": 0.125,
          "durationTicks": 192,
          "midi": 62,
          "name": "D4",
          "ticks": 39744,
          "time": 25.875,
          "velocity": 0.2677165354330709
        },
        {
          "duration": 0.375,
          "durationTicks": 576,
          "midi": 66,
          "name": "F#4",
          "ticks": 39936,
          "time": 26,
          "velocity": 0.3937007874015748
        },
        {
          "duration": 0.375,
          "durationTicks": 576,
          "midi": 62,
          "name": "D4",
          "ticks": 39936,
          "time": 26,
          "velocity": 0.1968503937007874
        },
        {
          "duration": 0.375,
          "durationTicks": 576,
          "midi": 59,
          "name": "B3",
          "ticks": 39936,
          "time": 26,
          "velocity": 0.3937007874015748
        },
        {
          "duration": 0.375,
          "durationTicks": 576,
          "midi": 71,
          "name": "B4",
          "ticks": 39936,
          "time": 26,
          "velocity": 0.23622047244094488
        },
        {
          "duration": 0.375,
          "durationTicks": 576,
          "midi": 61,
          "name": "C#4",
          "ticks": 39936,
          "time": 26,
          "velocity": 0.3937007874015748
        },
        {
          "duration": 0.375,
          "durationTicks": 576,
          "midi": 61,
          "name": "C#4",
          "ticks": 40704,
          "time": 26.5,
          "velocity": 0.3937007874015748
        },
        {
          "duration": 0.375,
          "durationTicks": 576,
          "midi": 66,
          "name": "F#4",
          "ticks": 40704,
          "time": 26.5,
          "velocity": 0.3937007874015748
        },
        {
          "duration": 0.375,
          "durationTicks": 576,
          "midi": 62,
          "name": "D4",
          "ticks": 40704,
          "time": 26.5,
          "velocity": 0.1968503937007874
        },
        {
          "duration": 0.375,
          "durationTicks": 576,
          "midi": 59,
          "name": "B3",
          "ticks": 40704,
          "time": 26.5,
          "velocity": 0.3937007874015748
        },
        {
          "duration": 0.375,
          "durationTicks": 576,
          "midi": 71,
          "name": "B4",
          "ticks": 40704,
          "time": 26.5,
          "velocity": 0.23622047244094488
        },
        {
          "duration": 0.125,
          "durationTicks": 192,
          "midi": 62,
          "name": "D4",
          "ticks": 41280,
          "time": 26.875,
          "velocity": 0.3937007874015748
        },
        {
          "duration": 0.125,
          "durationTicks": 192,
          "midi": 71,
          "name": "B4",
          "ticks": 41280,
          "time": 26.875,
          "velocity": 0.23622047244094488
        },
        {
          "duration": 0.125,
          "durationTicks": 192,
          "midi": 66,
          "name": "F#4",
          "ticks": 41280,
          "time": 26.875,
          "velocity": 0.3937007874015748
        },
        {
          "duration": 0.125,
          "durationTicks": 192,
          "midi": 59,
          "name": "B3",
          "ticks": 41280,
          "time": 26.875,
          "velocity": 0.3937007874015748
        },
        {
          "duration": 0.25,
          "durationTicks": 384,
          "midi": 59,
          "name": "B3",
          "ticks": 41856,
          "time": 27.25,
          "velocity": 0.3937007874015748
        },
        {
          "duration": 0.25,
          "durationTicks": 384,
          "midi": 62,
          "name": "D4",
          "ticks": 41856,
          "time": 27.25,
          "velocity": 0.3937007874015748
        },
        {
          "duration": 0.25,
          "durationTicks": 384,
          "midi": 66,
          "name": "F#4",
          "ticks": 41856,
          "time": 27.25,
          "velocity": 0.3937007874015748
        },
        {
          "duration": 0.25,
          "durationTicks": 384,
          "midi": 71,
          "name": "B4",
          "ticks": 41856,
          "time": 27.25,
          "velocity": 0.23622047244094488
        },
        {
          "duration": 0.125,
          "durationTicks": 192,
          "midi": 71,
          "name": "B4",
          "ticks": 42240,
          "time": 27.5,
          "velocity": 0.03937007874015748
        },
        {
          "duration": 0.125,
          "durationTicks": 192,
          "midi": 66,
          "name": "F#4",
          "ticks": 42240,
          "time": 27.5,
          "velocity": 0.1968503937007874
        },
        {
          "duration": 0.125,
          "durationTicks": 192,
          "midi": 62,
          "name": "D4",
          "ticks": 42240,
          "time": 27.5,
          "velocity": 0.1968503937007874
        },
        {
          "duration": 0.125,
          "durationTicks": 192,
          "midi": 59,
          "name": "B3",
          "ticks": 42240,
          "time": 27.5,
          "velocity": 0.1968503937007874
        },
        {
          "duration": 0.25,
          "durationTicks": 384,
          "midi": 71,
          "name": "B4",
          "ticks": 42432,
          "time": 27.625,
          "velocity": 0.23622047244094488
        },
        {
          "duration": 0.25,
          "durationTicks": 384,
          "midi": 62,
          "name": "D4",
          "ticks": 42432,
          "time": 27.625,
          "velocity": 0.3937007874015748
        },
        {
          "duration": 0.25,
          "durationTicks": 384,
          "midi": 59,
          "name": "B3",
          "ticks": 42432,
          "time": 27.625,
          "velocity": 0.3937007874015748
        },
        {
          "duration": 0.25,
          "durationTicks": 384,
          "midi": 66,
          "name": "F#4",
          "ticks": 42432,
          "time": 27.625,
          "velocity": 0.3937007874015748
        },
        {
          "duration": 0.125,
          "durationTicks": 192,
          "midi": 66,
          "name": "F#4",
          "ticks": 42816,
          "time": 27.875,
          "velocity": 0.2677165354330709
        },
        {
          "duration": 0.125,
          "durationTicks": 192,
          "midi": 62,
          "name": "D4",
          "ticks": 42816,
          "time": 27.875,
          "velocity": 0.2677165354330709
        },
        {
          "duration": 0.125,
          "durationTicks": 192,
          "midi": 71,
          "name": "B4",
          "ticks": 42816,
          "time": 27.875,
          "velocity": 0.11811023622047244
        },
        {
          "duration": 0.125,
          "durationTicks": 192,
          "midi": 59,
          "name": "B3",
          "ticks": 42816,
          "time": 27.875,
          "velocity": 0.2677165354330709
        },
        {
          "duration": 0.375,
          "durationTicks": 576,
          "midi": 71,
          "name": "B4",
          "ticks": 43008,
          "time": 28,
          "velocity": 0.23622047244094488
        },
        {
          "duration": 0.375,
          "durationTicks": 576,
          "midi": 66,
          "name": "F#4",
          "ticks": 43008,
          "time": 28,
          "velocity": 0.3937007874015748
        },
        {
          "duration": 0.375,
          "durationTicks": 576,
          "midi": 61,
          "name": "C#4",
          "ticks": 43008,
          "time": 28,
          "velocity": 0.07874015748031496
        },
        {
          "duration": 0.375,
          "durationTicks": 576,
          "midi": 59,
          "name": "B3",
          "ticks": 43008,
          "time": 28,
          "velocity": 0.3937007874015748
        },
        {
          "duration": 0.375,
          "durationTicks": 576,
          "midi": 62,
          "name": "D4",
          "ticks": 43008,
          "time": 28,
          "velocity": 0.3937007874015748
        },
        {
          "duration": 0.375,
          "durationTicks": 576,
          "midi": 71,
          "name": "B4",
          "ticks": 43776,
          "time": 28.5,
          "velocity": 0.23622047244094488
        },
        {
          "duration": 0.375,
          "durationTicks": 576,
          "midi": 61,
          "name": "C#4",
          "ticks": 43776,
          "time": 28.5,
          "velocity": 0.11811023622047244
        },
        {
          "duration": 0.375,
          "durationTicks": 576,
          "midi": 62,
          "name": "D4",
          "ticks": 43776,
          "time": 28.5,
          "velocity": 0.31496062992125984
        },
        {
          "duration": 0.375,
          "durationTicks": 576,
          "midi": 66,
          "name": "F#4",
          "ticks": 43776,
          "time": 28.5,
          "velocity": 0.3937007874015748
        },
        {
          "duration": 0.375,
          "durationTicks": 576,
          "midi": 59,
          "name": "B3",
          "ticks": 43776,
          "time": 28.5,
          "velocity": 0.3937007874015748
        },
        {
          "duration": 0.125,
          "durationTicks": 192,
          "midi": 59,
          "name": "B3",
          "ticks": 44352,
          "time": 28.875,
          "velocity": 0.3937007874015748
        },
        {
          "duration": 0.125,
          "durationTicks": 192,
          "midi": 64,
          "name": "E4",
          "ticks": 44352,
          "time": 28.875,
          "velocity": 0.3937007874015748
        },
        {
          "duration": 0.125,
          "durationTicks": 192,
          "midi": 71,
          "name": "B4",
          "ticks": 44352,
          "time": 28.875,
          "velocity": 0.23622047244094488
        },
        {
          "duration": 0.125,
          "durationTicks": 192,
          "midi": 62,
          "name": "D4",
          "ticks": 44352,
          "time": 28.875,
          "velocity": 0.1968503937007874
        },
        {
          "duration": 0.25,
          "durationTicks": 384,
          "midi": 71,
          "name": "B4",
          "ticks": 44928,
          "time": 29.25,
          "velocity": 0.23622047244094488
        },
        {
          "duration": 0.25,
          "durationTicks": 384,
          "midi": 59,
          "name": "B3",
          "ticks": 44928,
          "time": 29.25,
          "velocity": 0.3937007874015748
        },
        {
          "duration": 0.25,
          "durationTicks": 384,
          "midi": 64,
          "name": "E4",
          "ticks": 44928,
          "time": 29.25,
          "velocity": 0.3937007874015748
        },
        {
          "duration": 0.25,
          "durationTicks": 384,
          "midi": 62,
          "name": "D4",
          "ticks": 44928,
          "time": 29.25,
          "velocity": 0.23622047244094488
        },
        {
          "duration": 0.125,
          "durationTicks": 192,
          "midi": 62,
          "name": "D4",
          "ticks": 45312,
          "time": 29.5,
          "velocity": 0.07874015748031496
        },
        {
          "duration": 0.125,
          "durationTicks": 192,
          "midi": 59,
          "name": "B3",
          "ticks": 45312,
          "time": 29.5,
          "velocity": 0.1968503937007874
        },
        {
          "duration": 0.125,
          "durationTicks": 192,
          "midi": 64,
          "name": "E4",
          "ticks": 45312,
          "time": 29.5,
          "velocity": 0.1968503937007874
        },
        {
          "duration": 0.125,
          "durationTicks": 192,
          "midi": 71,
          "name": "B4",
          "ticks": 45312,
          "time": 29.5,
          "velocity": 0.03937007874015748
        },
        {
          "duration": 0.25,
          "durationTicks": 384,
          "midi": 59,
          "name": "B3",
          "ticks": 45504,
          "time": 29.625,
          "velocity": 0.3937007874015748
        },
        {
          "duration": 0.25,
          "durationTicks": 384,
          "midi": 62,
          "name": "D4",
          "ticks": 45504,
          "time": 29.625,
          "velocity": 0.23622047244094488
        },
        {
          "duration": 0.25,
          "durationTicks": 384,
          "midi": 71,
          "name": "B4",
          "ticks": 45504,
          "time": 29.625,
          "velocity": 0.23622047244094488
        },
        {
          "duration": 0.25,
          "durationTicks": 384,
          "midi": 64,
          "name": "E4",
          "ticks": 45504,
          "time": 29.625,
          "velocity": 0.3937007874015748
        },
        {
          "duration": 0.125,
          "durationTicks": 192,
          "midi": 62,
          "name": "D4",
          "ticks": 45888,
          "time": 29.875,
          "velocity": 0.15748031496062992
        },
        {
          "duration": 0.125,
          "durationTicks": 192,
          "midi": 71,
          "name": "B4",
          "ticks": 45888,
          "time": 29.875,
          "velocity": 0.11811023622047244
        },
        {
          "duration": 0.125,
          "durationTicks": 192,
          "midi": 59,
          "name": "B3",
          "ticks": 45888,
          "time": 29.875,
          "velocity": 0.2677165354330709
        },
        {
          "duration": 0.125,
          "durationTicks": 192,
          "midi": 64,
          "name": "E4",
          "ticks": 45888,
          "time": 29.875,
          "velocity": 0.2677165354330709
        },
        {
          "duration": 0.3125,
          "durationTicks": 480,
          "midi": 71,
          "name": "B4",
          "ticks": 46080,
          "time": 30,
          "velocity": 0.23622047244094488
        },
        {
          "duration": 0.3125,
          "durationTicks": 480,
          "midi": 62,
          "name": "D4",
          "ticks": 46080,
          "time": 30,
          "velocity": 0.3937007874015748
        },
        {
          "duration": 0.3125,
          "durationTicks": 480,
          "midi": 59,
          "name": "B3",
          "ticks": 46080,
          "time": 30,
          "velocity": 0.3937007874015748
        },
        {
          "duration": 0.3125,
          "durationTicks": 480,
          "midi": 67,
          "name": "G4",
          "ticks": 46080,
          "time": 30,
          "velocity": 0.3937007874015748
        },
        {
          "duration": 0.3125,
          "durationTicks": 480,
          "midi": 61,
          "name": "C#4",
          "ticks": 46080,
          "time": 30,
          "velocity": 0.15748031496062992
        },
        {
          "duration": 0.125,
          "durationTicks": 192,
          "midi": 59,
          "name": "B3",
          "ticks": 46656,
          "time": 30.375,
          "velocity": 0.23622047244094488
        },
        {
          "duration": 0.125,
          "durationTicks": 192,
          "midi": 71,
          "name": "B4",
          "ticks": 46656,
          "time": 30.375,
          "velocity": 0.07874015748031496
        },
        {
          "duration": 0.125,
          "durationTicks": 192,
          "midi": 61,
          "name": "C#4",
          "ticks": 46656,
          "time": 30.375,
          "velocity": 0.03937007874015748
        },
        {
          "duration": 0.125,
          "durationTicks": 192,
          "midi": 62,
          "name": "D4",
          "ticks": 46656,
          "time": 30.375,
          "velocity": 0.23622047244094488
        },
        {
          "duration": 0.125,
          "durationTicks": 192,
          "midi": 67,
          "name": "G4",
          "ticks": 46656,
          "time": 30.375,
          "velocity": 0.23622047244094488
        },
        {
          "duration": 0.375,
          "durationTicks": 576,
          "midi": 59,
          "name": "B3",
          "ticks": 46848,
          "time": 30.5,
          "velocity": 0.3937007874015748
        },
        {
          "duration": 0.375,
          "durationTicks": 576,
          "midi": 67,
          "name": "G4",
          "ticks": 46848,
          "time": 30.5,
          "velocity": 0.3937007874015748
        },
        {
          "duration": 0.375,
          "durationTicks": 576,
          "midi": 61,
          "name": "C#4",
          "ticks": 46848,
          "time": 30.5,
          "velocity": 0.1968503937007874
        },
        {
          "duration": 0.375,
          "durationTicks": 576,
          "midi": 71,
          "name": "B4",
          "ticks": 46848,
          "time": 30.5,
          "velocity": 0.23622047244094488
        },
        {
          "duration": 0.375,
          "durationTicks": 576,
          "midi": 62,
          "name": "D4",
          "ticks": 46848,
          "time": 30.5,
          "velocity": 0.31496062992125984
        },
        {
          "duration": 0.125,
          "durationTicks": 192,
          "midi": 62,
          "name": "D4",
          "ticks": 47424,
          "time": 30.875,
          "velocity": 0.1968503937007874
        },
        {
          "duration": 0.125,
          "durationTicks": 192,
          "midi": 58,
          "name": "A#3",
          "ticks": 47424,
          "time": 30.875,
          "velocity": 0.3937007874015748
        },
        {
          "duration": 0.125,
          "durationTicks": 192,
          "midi": 66,
          "name": "F#4",
          "ticks": 47424,
          "time": 30.875,
          "velocity": 0.1968503937007874
        },
        {
          "duration": 0.125,
          "durationTicks": 192,
          "midi": 70,
          "name": "A#4",
          "ticks": 47424,
          "time": 30.875,
          "velocity": 0.23622047244094488
        },
        {
          "duration": 0.125,
          "durationTicks": 192,
          "midi": 64,
          "name": "E4",
          "ticks": 47424,
          "time": 30.875,
          "velocity": 0.3937007874015748
        },
        {
          "duration": 0.125,
          "durationTicks": 192,
          "midi": 58,
          "name": "A#3",
          "ticks": 47808,
          "time": 31.125,
          "velocity": 0.23622047244094488
        },
        {
          "duration": 0.125,
          "durationTicks": 192,
          "midi": 62,
          "name": "D4",
          "ticks": 47808,
          "time": 31.125,
          "velocity": 0.15748031496062992
        },
        {
          "duration": 0.125,
          "durationTicks": 192,
          "midi": 64,
          "name": "E4",
          "ticks": 47808,
          "time": 31.125,
          "velocity": 0.11811023622047244
        },
        {
          "duration": 0.125,
          "durationTicks": 192,
          "midi": 66,
          "name": "F#4",
          "ticks": 47808,
          "time": 31.125,
          "velocity": 0.23622047244094488
        },
        {
          "duration": 0.125,
          "durationTicks": 192,
          "midi": 70,
          "name": "A#4",
          "ticks": 47808,
          "time": 31.125,
          "velocity": 0.07874015748031496
        },
        {
          "duration": 0.25,
          "durationTicks": 384,
          "midi": 66,
          "name": "F#4",
          "ticks": 48000,
          "time": 31.25,
          "velocity": 0.3937007874015748
        },
        {
          "duration": 0.25,
          "durationTicks": 384,
          "midi": 64,
          "name": "E4",
          "ticks": 48000,
          "time": 31.25,
          "velocity": 0.15748031496062992
        },
        {
          "duration": 0.25,
          "durationTicks": 384,
          "midi": 62,
          "name": "D4",
          "ticks": 48000,
          "time": 31.25,
          "velocity": 0.23622047244094488
        },
        {
          "duration": 0.25,
          "durationTicks": 384,
          "midi": 58,
          "name": "A#3",
          "ticks": 48000,
          "time": 31.25,
          "velocity": 0.3937007874015748
        },
        {
          "duration": 0.25,
          "durationTicks": 384,
          "midi": 70,
          "name": "A#4",
          "ticks": 48000,
          "time": 31.25,
          "velocity": 0.23622047244094488
        },
        {
          "duration": 0.125,
          "durationTicks": 192,
          "midi": 58,
          "name": "A#3",
          "ticks": 48384,
          "time": 31.5,
          "velocity": 0.1968503937007874
        },
        {
          "duration": 0.125,
          "durationTicks": 192,
          "midi": 62,
          "name": "D4",
          "ticks": 48384,
          "time": 31.5,
          "velocity": 0.07874015748031496
        },
        {
          "duration": 0.125,
          "durationTicks": 192,
          "midi": 66,
          "name": "F#4",
          "ticks": 48384,
          "time": 31.5,
          "velocity": 0.1968503937007874
        },
        {
          "duration": 0.125,
          "durationTicks": 192,
          "midi": 70,
          "name": "A#4",
          "ticks": 48384,
          "time": 31.5,
          "velocity": 0.03937007874015748
        },
        {
          "duration": 0.25,
          "durationTicks": 384,
          "midi": 66,
          "name": "F#4",
          "ticks": 48576,
          "time": 31.625,
          "velocity": 0.3937007874015748
        },
        {
          "duration": 0,
          "durationTicks": 0,
          "midi": 64,
          "name": "E4",
          "ticks": 48576,
          "time": 31.625,
          "velocity": 0.15748031496062992
        },
        {
          "duration": 0.25,
          "durationTicks": 384,
          "midi": 58,
          "name": "A#3",
          "ticks": 48576,
          "time": 31.625,
          "velocity": 0.3937007874015748
        },
        {
          "duration": 0.25,
          "durationTicks": 384,
          "midi": 70,
          "name": "A#4",
          "ticks": 48576,
          "time": 31.625,
          "velocity": 0.23622047244094488
        },
        {
          "duration": 0.25,
          "durationTicks": 384,
          "midi": 62,
          "name": "D4",
          "ticks": 48576,
          "time": 31.625,
          "velocity": 0.23622047244094488
        },
        {
          "duration": 0.125,
          "durationTicks": 192,
          "midi": 58,
          "name": "A#3",
          "ticks": 48960,
          "time": 31.875,
          "velocity": 0.2677165354330709
        },
        {
          "duration": 0.125,
          "durationTicks": 192,
          "midi": 70,
          "name": "A#4",
          "ticks": 48960,
          "time": 31.875,
          "velocity": 0.11811023622047244
        },
        {
          "duration": 0.125,
          "durationTicks": 192,
          "midi": 62,
          "name": "D4",
          "ticks": 48960,
          "time": 31.875,
          "velocity": 0.15748031496062992
        },
        {
          "duration": 0,
          "durationTicks": 0,
          "midi": 64,
          "name": "E4",
          "ticks": 48960,
          "time": 31.875,
          "velocity": 0.03937007874015748
        },
        {
          "duration": 0.125,
          "durationTicks": 192,
          "midi": 66,
          "name": "F#4",
          "ticks": 48960,
          "time": 31.875,
          "velocity": 0.2677165354330709
        },
        {
          "duration": 0,
          "durationTicks": 0,
          "midi": 64,
          "name": "E4",
          "ticks": 49152,
          "time": 32,
          "velocity": 0.3937007874015748
        },
        {
          "duration": 0.375,
          "durationTicks": 576,
          "midi": 69,
          "name": "A4",
          "ticks": 49152,
          "time": 32,
          "velocity": 0.23622047244094488
        },
        {
          "duration": 0.375,
          "durationTicks": 576,
          "midi": 60,
          "name": "C4",
          "ticks": 49152,
          "time": 32,
          "velocity": 0.3937007874015748
        },
        {
          "duration": 0.375,
          "durationTicks": 576,
          "midi": 59,
          "name": "B3",
          "ticks": 49152,
          "time": 32,
          "velocity": 0.23622047244094488
        },
        {
          "duration": 0.375,
          "durationTicks": 576,
          "midi": 57,
          "name": "A3",
          "ticks": 49152,
          "time": 32,
          "velocity": 0.3937007874015748
        },
        {
          "duration": 0.375,
          "durationTicks": 576,
          "midi": 59,
          "name": "B3",
          "ticks": 49920,
          "time": 32.5,
          "velocity": 0.23622047244094488
        },
        {
          "duration": 0.375,
          "durationTicks": 576,
          "midi": 57,
          "name": "A3",
          "ticks": 49920,
          "time": 32.5,
          "velocity": 0.3937007874015748
        },
        {
          "duration": 0.375,
          "durationTicks": 576,
          "midi": 64,
          "name": "E4",
          "ticks": 49920,
          "time": 32.5,
          "velocity": 0.3937007874015748
        },
        {
          "duration": 0.375,
          "durationTicks": 576,
          "midi": 69,
          "name": "A4",
          "ticks": 49920,
          "time": 32.5,
          "velocity": 0.23622047244094488
        },
        {
          "duration": 0.375,
          "durationTicks": 576,
          "midi": 60,
          "name": "C4",
          "ticks": 49920,
          "time": 32.5,
          "velocity": 0.3937007874015748
        },
        {
          "duration": 0.125,
          "durationTicks": 192,
          "midi": 59,
          "name": "B3",
          "ticks": 50496,
          "time": 32.875,
          "velocity": 0.3937007874015748
        },
        {
          "duration": 0.125,
          "durationTicks": 192,
          "midi": 61,
          "name": "C#4",
          "ticks": 50496,
          "time": 32.875,
          "velocity": 0.2677165354330709
        },
        {
          "duration": 0.125,
          "durationTicks": 192,
          "midi": 55,
          "name": "G3",
          "ticks": 50496,
          "time": 32.875,
          "velocity": 0.3937007874015748
        },
        {
          "duration": 0.125,
          "durationTicks": 192,
          "midi": 63,
          "name": "D#4",
          "ticks": 50496,
          "time": 32.875,
          "velocity": 0.3937007874015748
        },
        {
          "duration": 0.125,
          "durationTicks": 192,
          "midi": 67,
          "name": "G4",
          "ticks": 50496,
          "time": 32.875,
          "velocity": 0.23622047244094488
        },
        {
          "duration": 0.25,
          "durationTicks": 384,
          "midi": 63,
          "name": "D#4",
          "ticks": 51072,
          "time": 33.25,
          "velocity": 0.3937007874015748
        },
        {
          "duration": 0.25,
          "durationTicks": 384,
          "midi": 67,
          "name": "G4",
          "ticks": 51072,
          "time": 33.25,
          "velocity": 0.23622047244094488
        },
        {
          "duration": 0.25,
          "durationTicks": 384,
          "midi": 61,
          "name": "C#4",
          "ticks": 51072,
          "time": 33.25,
          "velocity": 0.1968503937007874
        },
        {
          "duration": 0.25,
          "durationTicks": 384,
          "midi": 59,
          "name": "B3",
          "ticks": 51072,
          "time": 33.25,
          "velocity": 0.3937007874015748
        },
        {
          "duration": 0.25,
          "durationTicks": 384,
          "midi": 55,
          "name": "G3",
          "ticks": 51072,
          "time": 33.25,
          "velocity": 0.3937007874015748
        },
        {
          "duration": 0.125,
          "durationTicks": 192,
          "midi": 56,
          "name": "G#3",
          "ticks": 51456,
          "time": 33.5,
          "velocity": 0.1968503937007874
        },
        {
          "duration": 0.125,
          "durationTicks": 192,
          "midi": 63,
          "name": "D#4",
          "ticks": 51456,
          "time": 33.5,
          "velocity": 0.1968503937007874
        },
        {
          "duration": 0.125,
          "durationTicks": 192,
          "midi": 59,
          "name": "B3",
          "ticks": 51456,
          "time": 33.5,
          "velocity": 0.1968503937007874
        },
        {
          "duration": 0.125,
          "durationTicks": 192,
          "midi": 67,
          "name": "G4",
          "ticks": 51456,
          "time": 33.5,
          "velocity": 0.03937007874015748
        },
        {
          "duration": 0.25,
          "durationTicks": 384,
          "midi": 67,
          "name": "G4",
          "ticks": 51648,
          "time": 33.625,
          "velocity": 0.23622047244094488
        },
        {
          "duration": 0.25,
          "durationTicks": 384,
          "midi": 59,
          "name": "B3",
          "ticks": 51648,
          "time": 33.625,
          "velocity": 0.3937007874015748
        },
        {
          "duration": 0,
          "durationTicks": 0,
          "midi": 61,
          "name": "C#4",
          "ticks": 51648,
          "time": 33.625,
          "velocity": 0.1968503937007874
        },
        {
          "duration": 0.25,
          "durationTicks": 384,
          "midi": 63,
          "name": "D#4",
          "ticks": 51648,
          "time": 33.625,
          "velocity": 0.3937007874015748
        },
        {
          "duration": 0.25,
          "durationTicks": 384,
          "midi": 55,
          "name": "G3",
          "ticks": 51648,
          "time": 33.625,
          "velocity": 0.3937007874015748
        },
        {
          "duration": 0,
          "durationTicks": 0,
          "midi": 61,
          "name": "C#4",
          "ticks": 52032,
          "time": 33.875,
          "velocity": 0.07874015748031496
        },
        {
          "duration": 0.125,
          "durationTicks": 192,
          "midi": 63,
          "name": "D#4",
          "ticks": 52032,
          "time": 33.875,
          "velocity": 0.2677165354330709
        },
        {
          "duration": 0.125,
          "durationTicks": 192,
          "midi": 59,
          "name": "B3",
          "ticks": 52032,
          "time": 33.875,
          "velocity": 0.2677165354330709
        },
        {
          "duration": 0.125,
          "durationTicks": 192,
          "midi": 67,
          "name": "G4",
          "ticks": 52032,
          "time": 33.875,
          "velocity": 0.11811023622047244
        },
        {
          "duration": 0.125,
          "durationTicks": 192,
          "midi": 55,
          "name": "G3",
          "ticks": 52032,
          "time": 33.875,
          "velocity": 0.2677165354330709
        },
        {
          "duration": 0.375,
          "durationTicks": 576,
          "midi": 58,
          "name": "A#3",
          "ticks": 52224,
          "time": 34,
          "velocity": 0.1968503937007874
        },
        {
          "duration": 0.375,
          "durationTicks": 576,
          "midi": 57,
          "name": "A3",
          "ticks": 52224,
          "time": 34,
          "velocity": 0.3937007874015748
        },
        {
          "duration": 0.375,
          "durationTicks": 576,
          "midi": 62,
          "name": "D4",
          "ticks": 52224,
          "time": 34,
          "velocity": 0.3937007874015748
        },
        {
          "duration": 0.375,
          "durationTicks": 576,
          "midi": 55,
          "name": "G3",
          "ticks": 52224,
          "time": 34,
          "velocity": 0.3937007874015748
        },
        {
          "duration": 0.375,
          "durationTicks": 576,
          "midi": 67,
          "name": "G4",
          "ticks": 52224,
          "time": 34,
          "velocity": 0.23622047244094488
        },
        {
          "duration": 0.375,
          "durationTicks": 576,
          "midi": 67,
          "name": "G4",
          "ticks": 52992,
          "time": 34.5,
          "velocity": 0.23622047244094488
        },
        {
          "duration": 0.375,
          "durationTicks": 576,
          "midi": 57,
          "name": "A3",
          "ticks": 52992,
          "time": 34.5,
          "velocity": 0.3937007874015748
        },
        {
          "duration": 0.375,
          "durationTicks": 576,
          "midi": 58,
          "name": "A#3",
          "ticks": 52992,
          "time": 34.5,
          "velocity": 0.1968503937007874
        },
        {
          "duration": 0.375,
          "durationTicks": 576,
          "midi": 62,
          "name": "D4",
          "ticks": 52992,
          "time": 34.5,
          "velocity": 0.3937007874015748
        },
        {
          "duration": 0.375,
          "durationTicks": 576,
          "midi": 55,
          "name": "G3",
          "ticks": 52992,
          "time": 34.5,
          "velocity": 0.3937007874015748
        },
        {
          "duration": 0.125,
          "durationTicks": 192,
          "midi": 62,
          "name": "D4",
          "ticks": 53568,
          "time": 34.875,
          "velocity": 0.3937007874015748
        },
        {
          "duration": 0.125,
          "durationTicks": 192,
          "midi": 67,
          "name": "G4",
          "ticks": 53568,
          "time": 34.875,
          "velocity": 0.23622047244094488
        },
        {
          "duration": 0.125,
          "durationTicks": 192,
          "midi": 58,
          "name": "A#3",
          "ticks": 53568,
          "time": 34.875,
          "velocity": 0.3937007874015748
        },
        {
          "duration": 0.125,
          "durationTicks": 192,
          "midi": 55,
          "name": "G3",
          "ticks": 53568,
          "time": 34.875,
          "velocity": 0.3937007874015748
        },
        {
          "duration": 0.25,
          "durationTicks": 384,
          "midi": 55,
          "name": "G3",
          "ticks": 54144,
          "time": 35.25,
          "velocity": 0.3937007874015748
        },
        {
          "duration": 0.25,
          "durationTicks": 384,
          "midi": 67,
          "name": "G4",
          "ticks": 54144,
          "time": 35.25,
          "velocity": 0.23622047244094488
        },
        {
          "duration": 0.25,
          "durationTicks": 384,
          "midi": 62,
          "name": "D4",
          "ticks": 54144,
          "time": 35.25,
          "velocity": 0.3937007874015748
        },
        {
          "duration": 0.25,
          "durationTicks": 384,
          "midi": 58,
          "name": "A#3",
          "ticks": 54144,
          "time": 35.25,
          "velocity": 0.3937007874015748
        },
        {
          "duration": 0.125,
          "durationTicks": 192,
          "midi": 67,
          "name": "G4",
          "ticks": 54528,
          "time": 35.5,
          "velocity": 0.03937007874015748
        },
        {
          "duration": 0.125,
          "durationTicks": 192,
          "midi": 55,
          "name": "G3",
          "ticks": 54528,
          "time": 35.5,
          "velocity": 0.1968503937007874
        },
        {
          "duration": 0.125,
          "durationTicks": 192,
          "midi": 58,
          "name": "A#3",
          "ticks": 54528,
          "time": 35.5,
          "velocity": 0.1968503937007874
        },
        {
          "duration": 0.125,
          "durationTicks": 192,
          "midi": 62,
          "name": "D4",
          "ticks": 54528,
          "time": 35.5,
          "velocity": 0.1968503937007874
        },
        {
          "duration": 0.25,
          "durationTicks": 384,
          "midi": 62,
          "name": "D4",
          "ticks": 54720,
          "time": 35.625,
          "velocity": 0.3937007874015748
        },
        {
          "duration": 0.25,
          "durationTicks": 384,
          "midi": 58,
          "name": "A#3",
          "ticks": 54720,
          "time": 35.625,
          "velocity": 0.3937007874015748
        },
        {
          "duration": 0.25,
          "durationTicks": 384,
          "midi": 55,
          "name": "G3",
          "ticks": 54720,
          "time": 35.625,
          "velocity": 0.3937007874015748
        },
        {
          "duration": 0.25,
          "durationTicks": 384,
          "midi": 67,
          "name": "G4",
          "ticks": 54720,
          "time": 35.625,
          "velocity": 0.23622047244094488
        },
        {
          "duration": 0.125,
          "durationTicks": 192,
          "midi": 58,
          "name": "A#3",
          "ticks": 55104,
          "time": 35.875,
          "velocity": 0.2677165354330709
        },
        {
          "duration": 0.125,
          "durationTicks": 192,
          "midi": 62,
          "name": "D4",
          "ticks": 55104,
          "time": 35.875,
          "velocity": 0.2677165354330709
        },
        {
          "duration": 0.125,
          "durationTicks": 192,
          "midi": 55,
          "name": "G3",
          "ticks": 55104,
          "time": 35.875,
          "velocity": 0.2677165354330709
        },
        {
          "duration": 0.125,
          "durationTicks": 192,
          "midi": 67,
          "name": "G4",
          "ticks": 55104,
          "time": 35.875,
          "velocity": 0.11811023622047244
        },
        {
          "duration": 0.375,
          "durationTicks": 576,
          "midi": 57,
          "name": "A3",
          "ticks": 55296,
          "time": 36,
          "velocity": 0.07874015748031496
        },
        {
          "duration": 0.375,
          "durationTicks": 576,
          "midi": 58,
          "name": "A#3",
          "ticks": 55296,
          "time": 36,
          "velocity": 0.3937007874015748
        },
        {
          "duration": 0.375,
          "durationTicks": 576,
          "midi": 55,
          "name": "G3",
          "ticks": 55296,
          "time": 36,
          "velocity": 0.3937007874015748
        },
        {
          "duration": 0.375,
          "durationTicks": 576,
          "midi": 62,
          "name": "D4",
          "ticks": 55296,
          "time": 36,
          "velocity": 0.3937007874015748
        },
        {
          "duration": 0.375,
          "durationTicks": 576,
          "midi": 67,
          "name": "G4",
          "ticks": 55296,
          "time": 36,
          "velocity": 0.23622047244094488
        },
        {
          "duration": 0.375,
          "durationTicks": 576,
          "midi": 55,
          "name": "G3",
          "ticks": 56064,
          "time": 36.5,
          "velocity": 0.3937007874015748
        },
        {
          "duration": 0.375,
          "durationTicks": 576,
          "midi": 58,
          "name": "A#3",
          "ticks": 56064,
          "time": 36.5,
          "velocity": 0.31496062992125984
        },
        {
          "duration": 0.375,
          "durationTicks": 576,
          "midi": 62,
          "name": "D4",
          "ticks": 56064,
          "time": 36.5,
          "velocity": 0.3937007874015748
        },
        {
          "duration": 0.375,
          "durationTicks": 576,
          "midi": 57,
          "name": "A3",
          "ticks": 56064,
          "time": 36.5,
          "velocity": 0.11811023622047244
        },
        {
          "duration": 0.375,
          "durationTicks": 576,
          "midi": 67,
          "name": "G4",
          "ticks": 56064,
          "time": 36.5,
          "velocity": 0.23622047244094488
        },
        {
          "duration": 0.125,
          "durationTicks": 192,
          "midi": 55,
          "name": "G3",
          "ticks": 56640,
          "time": 36.875,
          "velocity": 0.3937007874015748
        },
        {
          "duration": 0.125,
          "durationTicks": 192,
          "midi": 67,
          "name": "G4",
          "ticks": 56640,
          "time": 36.875,
          "velocity": 0.23622047244094488
        },
        {
          "duration": 0.125,
          "durationTicks": 192,
          "midi": 58,
          "name": "A#3",
          "ticks": 56640,
          "time": 36.875,
          "velocity": 0.1968503937007874
        },
        {
          "duration": 0.125,
          "durationTicks": 192,
          "midi": 60,
          "name": "C4",
          "ticks": 56640,
          "time": 36.875,
          "velocity": 0.3937007874015748
        },
        {
          "duration": 0.25,
          "durationTicks": 384,
          "midi": 55,
          "name": "G3",
          "ticks": 57216,
          "time": 37.25,
          "velocity": 0.3937007874015748
        },
        {
          "duration": 0.25,
          "durationTicks": 384,
          "midi": 60,
          "name": "C4",
          "ticks": 57216,
          "time": 37.25,
          "velocity": 0.3937007874015748
        },
        {
          "duration": 0.25,
          "durationTicks": 384,
          "midi": 67,
          "name": "G4",
          "ticks": 57216,
          "time": 37.25,
          "velocity": 0.23622047244094488
        },
        {
          "duration": 0.25,
          "durationTicks": 384,
          "midi": 58,
          "name": "A#3",
          "ticks": 57216,
          "time": 37.25,
          "velocity": 0.23622047244094488
        },
        {
          "duration": 0.125,
          "durationTicks": 192,
          "midi": 55,
          "name": "G3",
          "ticks": 57600,
          "time": 37.5,
          "velocity": 0.1968503937007874
        },
        {
          "duration": 0.125,
          "durationTicks": 192,
          "midi": 67,
          "name": "G4",
          "ticks": 57600,
          "time": 37.5,
          "velocity": 0.03937007874015748
        },
        {
          "duration": 0.125,
          "durationTicks": 192,
          "midi": 58,
          "name": "A#3",
          "ticks": 57600,
          "time": 37.5,
          "velocity": 0.07874015748031496
        },
        {
          "duration": 0.125,
          "durationTicks": 192,
          "midi": 60,
          "name": "C4",
          "ticks": 57600,
          "time": 37.5,
          "velocity": 0.1968503937007874
        },
        {
          "duration": 0.25,
          "durationTicks": 384,
          "midi": 60,
          "name": "C4",
          "ticks": 57792,
          "time": 37.625,
          "velocity": 0.3937007874015748
        },
        {
          "duration": 0.25,
          "durationTicks": 384,
          "midi": 58,
          "name": "A#3",
          "ticks": 57792,
          "time": 37.625,
          "velocity": 0.23622047244094488
        },
        {
          "duration": 0.25,
          "durationTicks": 384,
          "midi": 55,
          "name": "G3",
          "ticks": 57792,
          "time": 37.625,
          "velocity": 0.3937007874015748
        },
        {
          "duration": 0.25,
          "durationTicks": 384,
          "midi": 67,
          "name": "G4",
          "ticks": 57792,
          "time": 37.625,
          "velocity": 0.23622047244094488
        },
        {
          "duration": 0.125,
          "durationTicks": 192,
          "midi": 58,
          "name": "A#3",
          "ticks": 58176,
          "time": 37.875,
          "velocity": 0.15748031496062992
        },
        {
          "duration": 0.125,
          "durationTicks": 192,
          "midi": 60,
          "name": "C4",
          "ticks": 58176,
          "time": 37.875,
          "velocity": 0.2677165354330709
        },
        {
          "duration": 0.125,
          "durationTicks": 192,
          "midi": 55,
          "name": "G3",
          "ticks": 58176,
          "time": 37.875,
          "velocity": 0.2677165354330709
        },
        {
          "duration": 0.125,
          "durationTicks": 192,
          "midi": 67,
          "name": "G4",
          "ticks": 58176,
          "time": 37.875,
          "velocity": 0.11811023622047244
        },
        {
          "duration": 0.3125,
          "durationTicks": 480,
          "midi": 60,
          "name": "C4",
          "ticks": 58368,
          "time": 38,
          "velocity": 0.3937007874015748
        },
        {
          "duration": 0.3125,
          "durationTicks": 480,
          "midi": 65,
          "name": "F4",
          "ticks": 58368,
          "time": 38,
          "velocity": 0.23622047244094488
        },
        {
          "duration": 0.3125,
          "durationTicks": 480,
          "midi": 53,
          "name": "F3",
          "ticks": 58368,
          "time": 38,
          "velocity": 0.3937007874015748
        },
        {
          "duration": 0.3125,
          "durationTicks": 480,
          "midi": 67,
          "name": "G4",
          "ticks": 58368,
          "time": 38,
          "velocity": 0.15748031496062992
        },
        {
          "duration": 0.3125,
          "durationTicks": 480,
          "midi": 68,
          "name": "G#4",
          "ticks": 58368,
          "time": 38,
          "velocity": 0.3937007874015748
        },
        {
          "duration": 0.125,
          "durationTicks": 192,
          "midi": 60,
          "name": "C4",
          "ticks": 58944,
          "time": 38.375,
          "velocity": 0.23622047244094488
        },
        {
          "duration": 0.125,
          "durationTicks": 192,
          "midi": 65,
          "name": "F4",
          "ticks": 58944,
          "time": 38.375,
          "velocity": 0.07874015748031496
        },
        {
          "duration": 0.125,
          "durationTicks": 192,
          "midi": 67,
          "name": "G4",
          "ticks": 58944,
          "time": 38.375,
          "velocity": 0.03937007874015748
        },
        {
          "duration": 0.125,
          "durationTicks": 192,
          "midi": 68,
          "name": "G#4",
          "ticks": 58944,
          "time": 38.375,
          "velocity": 0.23622047244094488
        },
        {
          "duration": 0.125,
          "durationTicks": 192,
          "midi": 53,
          "name": "F3",
          "ticks": 58944,
          "time": 38.375,
          "velocity": 0.23622047244094488
        },
        {
          "duration": 0.375,
          "durationTicks": 576,
          "midi": 67,
          "name": "G4",
          "ticks": 59136,
          "time": 38.5,
          "velocity": 0.1968503937007874
        },
        {
          "duration": 0.375,
          "durationTicks": 576,
          "midi": 53,
          "name": "F3",
          "ticks": 59136,
          "time": 38.5,
          "velocity": 0.3937007874015748
        },
        {
          "duration": 0.375,
          "durationTicks": 576,
          "midi": 68,
          "name": "G#4",
          "ticks": 59136,
          "time": 38.5,
          "velocity": 0.31496062992125984
        },
        {
          "duration": 0.375,
          "durationTicks": 576,
          "midi": 60,
          "name": "C4",
          "ticks": 59136,
          "time": 38.5,
          "velocity": 0.3937007874015748
        },
        {
          "duration": 0.375,
          "durationTicks": 576,
          "midi": 65,
          "name": "F4",
          "ticks": 59136,
          "time": 38.5,
          "velocity": 0.23622047244094488
        },
        {
          "duration": 0.125,
          "durationTicks": 192,
          "midi": 60,
          "name": "C4",
          "ticks": 59712,
          "time": 38.875,
          "velocity": 0.3937007874015748
        },
        {
          "duration": 0.125,
          "durationTicks": 192,
          "midi": 65,
          "name": "F4",
          "ticks": 59712,
          "time": 38.875,
          "velocity": 0.23622047244094488
        },
        {
          "duration": 0.125,
          "durationTicks": 192,
          "midi": 68,
          "name": "G#4",
          "ticks": 59712,
          "time": 38.875,
          "velocity": 0.1968503937007874
        },
        {
          "duration": 0.125,
          "durationTicks": 192,
          "midi": 53,
          "name": "F3",
          "ticks": 59712,
          "time": 38.875,
          "velocity": 0.3937007874015748
        },
        {
          "duration": 0.25,
          "durationTicks": 384,
          "midi": 65,
          "name": "F4",
          "ticks": 60288,
          "time": 39.25,
          "velocity": 0.23622047244094488
        },
        {
          "duration": 0.25,
          "durationTicks": 384,
          "midi": 68,
          "name": "G#4",
          "ticks": 60288,
          "time": 39.25,
          "velocity": 0.23622047244094488
        },
        {
          "duration": 0.25,
          "durationTicks": 384,
          "midi": 53,
          "name": "F3",
          "ticks": 60288,
          "time": 39.25,
          "velocity": 0.3937007874015748
        },
        {
          "duration": 0.25,
          "durationTicks": 384,
          "midi": 60,
          "name": "C4",
          "ticks": 60288,
          "time": 39.25,
          "velocity": 0.3937007874015748
        },
        {
          "duration": 0.125,
          "durationTicks": 192,
          "midi": 65,
          "name": "F4",
          "ticks": 60672,
          "time": 39.5,
          "velocity": 0.03937007874015748
        },
        {
          "duration": 0.125,
          "durationTicks": 192,
          "midi": 60,
          "name": "C4",
          "ticks": 60672,
          "time": 39.5,
          "velocity": 0.1968503937007874
        },
        {
          "duration": 0.125,
          "durationTicks": 192,
          "midi": 53,
          "name": "F3",
          "ticks": 60672,
          "time": 39.5,
          "velocity": 0.1968503937007874
        },
        {
          "duration": 0.125,
          "durationTicks": 192,
          "midi": 68,
          "name": "G#4",
          "ticks": 60672,
          "time": 39.5,
          "velocity": 0.07874015748031496
        },
        {
          "duration": 0.25,
          "durationTicks": 384,
          "midi": 68,
          "name": "G#4",
          "ticks": 60864,
          "time": 39.625,
          "velocity": 0.23622047244094488
        },
        {
          "duration": 0.25,
          "durationTicks": 384,
          "midi": 53,
          "name": "F3",
          "ticks": 60864,
          "time": 39.625,
          "velocity": 0.3937007874015748
        },
        {
          "duration": 0.25,
          "durationTicks": 384,
          "midi": 60,
          "name": "C4",
          "ticks": 60864,
          "time": 39.625,
          "velocity": 0.3937007874015748
        },
        {
          "duration": 0.25,
          "durationTicks": 384,
          "midi": 65,
          "name": "F4",
          "ticks": 60864,
          "time": 39.625,
          "velocity": 0.23622047244094488
        },
        {
          "duration": 0.125,
          "durationTicks": 192,
          "midi": 68,
          "name": "G#4",
          "ticks": 61248,
          "time": 39.875,
          "velocity": 0.15748031496062992
        },
        {
          "duration": 0.125,
          "durationTicks": 192,
          "midi": 53,
          "name": "F3",
          "ticks": 61248,
          "time": 39.875,
          "velocity": 0.2677165354330709
        },
        {
          "duration": 0.125,
          "durationTicks": 192,
          "midi": 65,
          "name": "F4",
          "ticks": 61248,
          "time": 39.875,
          "velocity": 0.11811023622047244
        },
        {
          "duration": 0.125,
          "durationTicks": 192,
          "midi": 60,
          "name": "C4",
          "ticks": 61248,
          "time": 39.875,
          "velocity": 0.2677165354330709
        },
        {
          "duration": 0.3125,
          "durationTicks": 480,
          "midi": 62,
          "name": "D4",
          "ticks": 61440,
          "time": 40,
          "velocity": 0.07874015748031496
        },
        {
          "duration": 0.3125,
          "durationTicks": 480,
          "midi": 65,
          "name": "F4",
          "ticks": 61440,
          "time": 40,
          "velocity": 0.07874015748031496
        },
        {
          "duration": 0.3125,
          "durationTicks": 480,
          "midi": 67,
          "name": "G4",
          "ticks": 61440,
          "time": 40,
          "velocity": 0.3937007874015748
        },
        {
          "duration": 0.3125,
          "durationTicks": 480,
          "midi": 53,
          "name": "F3",
          "ticks": 61440,
          "time": 40,
          "velocity": 0.3937007874015748
        },
        {
          "duration": 0.3125,
          "durationTicks": 480,
          "midi": 60,
          "name": "C4",
          "ticks": 61440,
          "time": 40,
          "velocity": 0.3464566929133858
        },
        {
          "duration": 0.125,
          "durationTicks": 192,
          "midi": 62,
          "name": "D4",
          "ticks": 62016,
          "time": 40.375,
          "velocity": 0.07874015748031496
        },
        {
          "duration": 0.125,
          "durationTicks": 192,
          "midi": 53,
          "name": "F3",
          "ticks": 62016,
          "time": 40.375,
          "velocity": 0.23622047244094488
        },
        {
          "duration": 0.125,
          "durationTicks": 192,
          "midi": 65,
          "name": "F4",
          "ticks": 62016,
          "time": 40.375,
          "velocity": 0.03937007874015748
        },
        {
          "duration": 0.125,
          "durationTicks": 192,
          "midi": 60,
          "name": "C4",
          "ticks": 62016,
          "time": 40.375,
          "velocity": 0.1968503937007874
        },
        {
          "duration": 0.125,
          "durationTicks": 192,
          "midi": 67,
          "name": "G4",
          "ticks": 62016,
          "time": 40.375,
          "velocity": 0.23622047244094488
        },
        {
          "duration": 0.375,
          "durationTicks": 576,
          "midi": 67,
          "name": "G4",
          "ticks": 62208,
          "time": 40.5,
          "velocity": 0.31496062992125984
        },
        {
          "duration": 0.375,
          "durationTicks": 576,
          "midi": 53,
          "name": "F3",
          "ticks": 62208,
          "time": 40.5,
          "velocity": 0.3937007874015748
        },
        {
          "duration": 0.375,
          "durationTicks": 576,
          "midi": 62,
          "name": "D4",
          "ticks": 62208,
          "time": 40.5,
          "velocity": 0.07874015748031496
        },
        {
          "duration": 0.375,
          "durationTicks": 576,
          "midi": 65,
          "name": "F4",
          "ticks": 62208,
          "time": 40.5,
          "velocity": 0.07874015748031496
        },
        {
          "duration": 0.375,
          "durationTicks": 576,
          "midi": 60,
          "name": "C4",
          "ticks": 62208,
          "time": 40.5,
          "velocity": 0.3464566929133858
        },
        {
          "duration": 0.125,
          "durationTicks": 192,
          "midi": 62,
          "name": "D4",
          "ticks": 62784,
          "time": 40.875,
          "velocity": 0.3464566929133858
        },
        {
          "duration": 0.125,
          "durationTicks": 192,
          "midi": 53,
          "name": "F3",
          "ticks": 62784,
          "time": 40.875,
          "velocity": 0.3937007874015748
        },
        {
          "duration": 0.125,
          "durationTicks": 192,
          "midi": 65,
          "name": "F4",
          "ticks": 62784,
          "time": 40.875,
          "velocity": 0.07874015748031496
        },
        {
          "duration": 0.125,
          "durationTicks": 192,
          "midi": 60,
          "name": "C4",
          "ticks": 62784,
          "time": 40.875,
          "velocity": 0.1968503937007874
        },
        {
          "duration": 0.125,
          "durationTicks": 192,
          "midi": 67,
          "name": "G4",
          "ticks": 62784,
          "time": 40.875,
          "velocity": 0.1968503937007874
        },
        {
          "duration": 0.25,
          "durationTicks": 384,
          "midi": 65,
          "name": "F4",
          "ticks": 63360,
          "time": 41.25,
          "velocity": 0.07874015748031496
        },
        {
          "duration": 0.25,
          "durationTicks": 384,
          "midi": 53,
          "name": "F3",
          "ticks": 63360,
          "time": 41.25,
          "velocity": 0.3937007874015748
        },
        {
          "duration": 0.25,
          "durationTicks": 384,
          "midi": 67,
          "name": "G4",
          "ticks": 63360,
          "time": 41.25,
          "velocity": 0.23622047244094488
        },
        {
          "duration": 0.25,
          "durationTicks": 384,
          "midi": 60,
          "name": "C4",
          "ticks": 63360,
          "time": 41.25,
          "velocity": 0.1968503937007874
        },
        {
          "duration": 0.25,
          "durationTicks": 384,
          "midi": 62,
          "name": "D4",
          "ticks": 63360,
          "time": 41.25,
          "velocity": 0.2677165354330709
        },
        {
          "duration": 0.125,
          "durationTicks": 192,
          "midi": 65,
          "name": "F4",
          "ticks": 63744,
          "time": 41.5,
          "velocity": 0.03937007874015748
        },
        {
          "duration": 0.125,
          "durationTicks": 192,
          "midi": 67,
          "name": "G4",
          "ticks": 63744,
          "time": 41.5,
          "velocity": 0.07874015748031496
        },
        {
          "duration": 0.125,
          "durationTicks": 192,
          "midi": 62,
          "name": "D4",
          "ticks": 63744,
          "time": 41.5,
          "velocity": 0.2677165354330709
        },
        {
          "duration": 0.125,
          "durationTicks": 192,
          "midi": 53,
          "name": "F3",
          "ticks": 63744,
          "time": 41.5,
          "velocity": 0.1968503937007874
        },
        {
          "duration": 0.25,
          "durationTicks": 384,
          "midi": 62,
          "name": "D4",
          "ticks": 63936,
          "time": 41.625,
          "velocity": 0.2677165354330709
        },
        {
          "duration": 0.25,
          "durationTicks": 384,
          "midi": 53,
          "name": "F3",
          "ticks": 63936,
          "time": 41.625,
          "velocity": 0.3937007874015748
        },
        {
          "duration": 0.25,
          "durationTicks": 384,
          "midi": 65,
          "name": "F4",
          "ticks": 63936,
          "time": 41.625,
          "velocity": 0.07874015748031496
        },
        {
          "duration": 0.25,
          "durationTicks": 384,
          "midi": 67,
          "name": "G4",
          "ticks": 63936,
          "time": 41.625,
          "velocity": 0.23622047244094488
        },
        {
          "duration": 0,
          "durationTicks": 0,
          "midi": 60,
          "name": "C4",
          "ticks": 63936,
          "time": 41.625,
          "velocity": 0.1968503937007874
        },
        {
          "duration": 0.125,
          "durationTicks": 192,
          "midi": 62,
          "name": "D4",
          "ticks": 64320,
          "time": 41.875,
          "velocity": 0.2677165354330709
        },
        {
          "duration": 0.125,
          "durationTicks": 192,
          "midi": 65,
          "name": "F4",
          "ticks": 64320,
          "time": 41.875,
          "velocity": 0.03937007874015748
        },
        {
          "duration": 0,
          "durationTicks": 0,
          "midi": 60,
          "name": "C4",
          "ticks": 64320,
          "time": 41.875,
          "velocity": 0.07874015748031496
        },
        {
          "duration": 0.125,
          "durationTicks": 192,
          "midi": 53,
          "name": "F3",
          "ticks": 64320,
          "time": 41.875,
          "velocity": 0.2677165354330709
        },
        {
          "duration": 0.125,
          "durationTicks": 192,
          "midi": 67,
          "name": "G4",
          "ticks": 64320,
          "time": 41.875,
          "velocity": 0.15748031496062992
        },
        {
          "duration": 0.3125,
          "durationTicks": 480,
          "midi": 64,
          "name": "E4",
          "ticks": 64512,
          "time": 42,
          "velocity": 0.2677165354330709
        },
        {
          "duration": 0.3125,
          "durationTicks": 480,
          "midi": 57,
          "name": "A3",
          "ticks": 64512,
          "time": 42,
          "velocity": 0.1968503937007874
        },
        {
          "duration": 0.3125,
          "durationTicks": 480,
          "midi": 53,
          "name": "F3",
          "ticks": 64512,
          "time": 42,
          "velocity": 0.3937007874015748
        },
        {
          "duration": 0.3125,
          "durationTicks": 480,
          "midi": 59,
          "name": "B3",
          "ticks": 64512,
          "time": 42,
          "velocity": 0.1968503937007874
        },
        {
          "duration": 0.3125,
          "durationTicks": 480,
          "midi": 67,
          "name": "G4",
          "ticks": 64512,
          "time": 42,
          "velocity": 0.2677165354330709
        },
        {
          "duration": 0.125,
          "durationTicks": 192,
          "midi": 53,
          "name": "F3",
          "ticks": 65088,
          "time": 42.375,
          "velocity": 0.23622047244094488
        },
        {
          "duration": 0.125,
          "durationTicks": 192,
          "midi": 57,
          "name": "A3",
          "ticks": 65088,
          "time": 42.375,
          "velocity": 0.15748031496062992
        },
        {
          "duration": 0.125,
          "durationTicks": 192,
          "midi": 67,
          "name": "G4",
          "ticks": 65088,
          "time": 42.375,
          "velocity": 0.11811023622047244
        },
        {
          "duration": 0.125,
          "durationTicks": 192,
          "midi": 59,
          "name": "B3",
          "ticks": 65088,
          "time": 42.375,
          "velocity": 0.15748031496062992
        },
        {
          "duration": 0.125,
          "durationTicks": 192,
          "midi": 64,
          "name": "E4",
          "ticks": 65088,
          "time": 42.375,
          "velocity": 0.23622047244094488
        },
        {
          "duration": 0.375,
          "durationTicks": 576,
          "midi": 64,
          "name": "E4",
          "ticks": 65280,
          "time": 42.5,
          "velocity": 0.2677165354330709
        },
        {
          "duration": 0.375,
          "durationTicks": 576,
          "midi": 67,
          "name": "G4",
          "ticks": 65280,
          "time": 42.5,
          "velocity": 0.1968503937007874
        },
        {
          "duration": 0.375,
          "durationTicks": 576,
          "midi": 59,
          "name": "B3",
          "ticks": 65280,
          "time": 42.5,
          "velocity": 0.1968503937007874
        },
        {
          "duration": 0.375,
          "durationTicks": 576,
          "midi": 53,
          "name": "F3",
          "ticks": 65280,
          "time": 42.5,
          "velocity": 0.3937007874015748
        },
        {
          "duration": 0.375,
          "durationTicks": 576,
          "midi": 57,
          "name": "A3",
          "ticks": 65280,
          "time": 42.5,
          "velocity": 0.1968503937007874
        },
        {
          "duration": 0.125,
          "durationTicks": 192,
          "midi": 64,
          "name": "E4",
          "ticks": 65856,
          "time": 42.875,
          "velocity": 0.2677165354330709
        },
        {
          "duration": 0.125,
          "durationTicks": 192,
          "midi": 67,
          "name": "G4",
          "ticks": 65856,
          "time": 42.875,
          "velocity": 0.07874015748031496
        },
        {
          "duration": 0.125,
          "durationTicks": 192,
          "midi": 57,
          "name": "A3",
          "ticks": 65856,
          "time": 42.875,
          "velocity": 0.1968503937007874
        },
        {
          "duration": 0.125,
          "durationTicks": 192,
          "midi": 53,
          "name": "F3",
          "ticks": 65856,
          "time": 42.875,
          "velocity": 0.3937007874015748
        },
        {
          "duration": 0.125,
          "durationTicks": 192,
          "midi": 59,
          "name": "B3",
          "ticks": 65856,
          "time": 42.875,
          "velocity": 0.1968503937007874
        },
        {
          "duration": 0.25,
          "durationTicks": 384,
          "midi": 53,
          "name": "F3",
          "ticks": 66432,
          "time": 43.25,
          "velocity": 0.3937007874015748
        },
        {
          "duration": 0.25,
          "durationTicks": 384,
          "midi": 67,
          "name": "G4",
          "ticks": 66432,
          "time": 43.25,
          "velocity": 0.11811023622047244
        },
        {
          "duration": 0.25,
          "durationTicks": 384,
          "midi": 64,
          "name": "E4",
          "ticks": 66432,
          "time": 43.25,
          "velocity": 0.2677165354330709
        },
        {
          "duration": 0.25,
          "durationTicks": 384,
          "midi": 57,
          "name": "A3",
          "ticks": 66432,
          "time": 43.25,
          "velocity": 0.1968503937007874
        },
        {
          "duration": 0.25,
          "durationTicks": 384,
          "midi": 59,
          "name": "B3",
          "ticks": 66432,
          "time": 43.25,
          "velocity": 0.1968503937007874
        },
        {
          "duration": 0.125,
          "durationTicks": 192,
          "midi": 64,
          "name": "E4",
          "ticks": 66816,
          "time": 43.5,
          "velocity": 0.23622047244094488
        },
        {
          "duration": 0.125,
          "durationTicks": 192,
          "midi": 57,
          "name": "A3",
          "ticks": 66816,
          "time": 43.5,
          "velocity": 0.15748031496062992
        },
        {
          "duration": 0.125,
          "durationTicks": 192,
          "midi": 59,
          "name": "B3",
          "ticks": 66816,
          "time": 43.5,
          "velocity": 0.15748031496062992
        },
        {
          "duration": 0.125,
          "durationTicks": 192,
          "midi": 53,
          "name": "F3",
          "ticks": 66816,
          "time": 43.5,
          "velocity": 0.1968503937007874
        },
        {
          "duration": 0.25,
          "durationTicks": 384,
          "midi": 59,
          "name": "B3",
          "ticks": 67008,
          "time": 43.625,
          "velocity": 0.1968503937007874
        },
        {
          "duration": 0.25,
          "durationTicks": 384,
          "midi": 53,
          "name": "F3",
          "ticks": 67008,
          "time": 43.625,
          "velocity": 0.3937007874015748
        },
        {
          "duration": 0.25,
          "durationTicks": 384,
          "midi": 57,
          "name": "A3",
          "ticks": 67008,
          "time": 43.625,
          "velocity": 0.1968503937007874
        },
        {
          "duration": 0.25,
          "durationTicks": 384,
          "midi": 64,
          "name": "E4",
          "ticks": 67008,
          "time": 43.625,
          "velocity": 0.2677165354330709
        },
        {
          "duration": 0,
          "durationTicks": 0,
          "midi": 67,
          "name": "G4",
          "ticks": 67008,
          "time": 43.625,
          "velocity": 0.11811023622047244
        },
        {
          "duration": 0.125,
          "durationTicks": 192,
          "midi": 64,
          "name": "E4",
          "ticks": 67392,
          "time": 43.875,
          "velocity": 0.23622047244094488
        },
        {
          "duration": 0.125,
          "durationTicks": 192,
          "midi": 59,
          "name": "B3",
          "ticks": 67392,
          "time": 43.875,
          "velocity": 0.15748031496062992
        },
        {
          "duration": 0.125,
          "durationTicks": 192,
          "midi": 57,
          "name": "A3",
          "ticks": 67392,
          "time": 43.875,
          "velocity": 0.15748031496062992
        },
        {
          "duration": 0,
          "durationTicks": 0,
          "midi": 67,
          "name": "G4",
          "ticks": 67392,
          "time": 43.875,
          "velocity": 0.03937007874015748
        },
        {
          "duration": 0.125,
          "durationTicks": 192,
          "midi": 53,
          "name": "F3",
          "ticks": 67392,
          "time": 43.875,
          "velocity": 0.2677165354330709
        },
        {
          "duration": 0.3125,
          "durationTicks": 480,
          "midi": 57,
          "name": "A3",
          "ticks": 67584,
          "time": 44,
          "velocity": 0.1968503937007874
        },
        {
          "duration": 0.3125,
          "durationTicks": 480,
          "midi": 55,
          "name": "G3",
          "ticks": 67584,
          "time": 44,
          "velocity": 0.3937007874015748
        },
        {
          "duration": 0.3125,
          "durationTicks": 480,
          "midi": 59,
          "name": "B3",
          "ticks": 67584,
          "time": 44,
          "velocity": 0.1968503937007874
        },
        {
          "duration": 0.3125,
          "durationTicks": 480,
          "midi": 64,
          "name": "E4",
          "ticks": 67584,
          "time": 44,
          "velocity": 0.2677165354330709
        },
        {
          "duration": 0.125,
          "durationTicks": 192,
          "midi": 55,
          "name": "G3",
          "ticks": 68160,
          "time": 44.375,
          "velocity": 0.23622047244094488
        },
        {
          "duration": 0.125,
          "durationTicks": 192,
          "midi": 64,
          "name": "E4",
          "ticks": 68160,
          "time": 44.375,
          "velocity": 0.23622047244094488
        },
        {
          "duration": 0.125,
          "durationTicks": 192,
          "midi": 57,
          "name": "A3",
          "ticks": 68160,
          "time": 44.375,
          "velocity": 0.15748031496062992
        },
        {
          "duration": 0.125,
          "durationTicks": 192,
          "midi": 59,
          "name": "B3",
          "ticks": 68160,
          "time": 44.375,
          "velocity": 0.15748031496062992
        },
        {
          "duration": 0.375,
          "durationTicks": 576,
          "midi": 57,
          "name": "A3",
          "ticks": 68352,
          "time": 44.5,
          "velocity": 0.1968503937007874
        },
        {
          "duration": 0.375,
          "durationTicks": 576,
          "midi": 55,
          "name": "G3",
          "ticks": 68352,
          "time": 44.5,
          "velocity": 0.3937007874015748
        },
        {
          "duration": 0.375,
          "durationTicks": 576,
          "midi": 64,
          "name": "E4",
          "ticks": 68352,
          "time": 44.5,
          "velocity": 0.2677165354330709
        },
        {
          "duration": 0.375,
          "durationTicks": 576,
          "midi": 59,
          "name": "B3",
          "ticks": 68352,
          "time": 44.5,
          "velocity": 0.1968503937007874
        },
        {
          "duration": 0.125,
          "durationTicks": 192,
          "midi": 57,
          "name": "A3",
          "ticks": 68928,
          "time": 44.875,
          "velocity": 0.1968503937007874
        },
        {
          "duration": 0.125,
          "durationTicks": 192,
          "midi": 64,
          "name": "E4",
          "ticks": 68928,
          "time": 44.875,
          "velocity": 0.2677165354330709
        },
        {
          "duration": 0.125,
          "durationTicks": 192,
          "midi": 52,
          "name": "E3",
          "ticks": 68928,
          "time": 44.875,
          "velocity": 0.1968503937007874
        },
        {
          "duration": 0.125,
          "durationTicks": 192,
          "midi": 59,
          "name": "B3",
          "ticks": 68928,
          "time": 44.875,
          "velocity": 0.1968503937007874
        },
        {
          "duration": 0.25,
          "durationTicks": 384,
          "midi": 52,
          "name": "E3",
          "ticks": 69504,
          "time": 45.25,
          "velocity": 0.2677165354330709
        },
        {
          "duration": 0.25,
          "durationTicks": 384,
          "midi": 57,
          "name": "A3",
          "ticks": 69504,
          "time": 45.25,
          "velocity": 0.1968503937007874
        },
        {
          "duration": 0.25,
          "durationTicks": 384,
          "midi": 59,
          "name": "B3",
          "ticks": 69504,
          "time": 45.25,
          "velocity": 0.1968503937007874
        },
        {
          "duration": 0.25,
          "durationTicks": 384,
          "midi": 64,
          "name": "E4",
          "ticks": 69504,
          "time": 45.25,
          "velocity": 0.2677165354330709
        },
        {
          "duration": 0.125,
          "durationTicks": 192,
          "midi": 59,
          "name": "B3",
          "ticks": 69888,
          "time": 45.5,
          "velocity": 0.15748031496062992
        },
        {
          "duration": 0.125,
          "durationTicks": 192,
          "midi": 64,
          "name": "E4",
          "ticks": 69888,
          "time": 45.5,
          "velocity": 0.23622047244094488
        },
        {
          "duration": 0.125,
          "durationTicks": 192,
          "midi": 57,
          "name": "A3",
          "ticks": 69888,
          "time": 45.5,
          "velocity": 0.15748031496062992
        },
        {
          "duration": 0.125,
          "durationTicks": 192,
          "midi": 52,
          "name": "E3",
          "ticks": 69888,
          "time": 45.5,
          "velocity": 0.07874015748031496
        },
        {
          "duration": 0.25,
          "durationTicks": 384,
          "midi": 59,
          "name": "B3",
          "ticks": 70080,
          "time": 45.625,
          "velocity": 0.1968503937007874
        },
        {
          "duration": 0.25,
          "durationTicks": 384,
          "midi": 52,
          "name": "E3",
          "ticks": 70080,
          "time": 45.625,
          "velocity": 0.2677165354330709
        },
        {
          "duration": 0.25,
          "durationTicks": 384,
          "midi": 57,
          "name": "A3",
          "ticks": 70080,
          "time": 45.625,
          "velocity": 0.1968503937007874
        },
        {
          "duration": 0.25,
          "durationTicks": 384,
          "midi": 64,
          "name": "E4",
          "ticks": 70080,
          "time": 45.625,
          "velocity": 0.2677165354330709
        },
        {
          "duration": 0.125,
          "durationTicks": 192,
          "midi": 59,
          "name": "B3",
          "ticks": 70464,
          "time": 45.875,
          "velocity": 0.15748031496062992
        },
        {
          "duration": 0.125,
          "durationTicks": 192,
          "midi": 57,
          "name": "A3",
          "ticks": 70464,
          "time": 45.875,
          "velocity": 0.15748031496062992
        },
        {
          "duration": 0.125,
          "durationTicks": 192,
          "midi": 52,
          "name": "E3",
          "ticks": 70464,
          "time": 45.875,
          "velocity": 0.15748031496062992
        },
        {
          "duration": 0.125,
          "durationTicks": 192,
          "midi": 64,
          "name": "E4",
          "ticks": 70464,
          "time": 45.875,
          "velocity": 0.23622047244094488
        },
        {
          "duration": 0.3125,
          "durationTicks": 480,
          "midi": 48,
          "name": "C3",
          "ticks": 70656,
          "time": 46,
          "velocity": 0.3937007874015748
        },
        {
          "duration": 0.3125,
          "durationTicks": 480,
          "midi": 57,
          "name": "A3",
          "ticks": 70656,
          "time": 46,
          "velocity": 0.1968503937007874
        },
        {
          "duration": 0.3125,
          "durationTicks": 480,
          "midi": 60,
          "name": "C4",
          "ticks": 70656,
          "time": 46,
          "velocity": 0.31496062992125984
        },
        {
          "duration": 0.3125,
          "durationTicks": 480,
          "midi": 59,
          "name": "B3",
          "ticks": 70656,
          "time": 46,
          "velocity": 0.11811023622047244
        },
        {
          "duration": 0.125,
          "durationTicks": 192,
          "midi": 57,
          "name": "A3",
          "ticks": 71232,
          "time": 46.375,
          "velocity": 0.15748031496062992
        },
        {
          "duration": 0.125,
          "durationTicks": 192,
          "midi": 60,
          "name": "C4",
          "ticks": 71232,
          "time": 46.375,
          "velocity": 0.2677165354330709
        },
        {
          "duration": 0.125,
          "durationTicks": 192,
          "midi": 59,
          "name": "B3",
          "ticks": 71232,
          "time": 46.375,
          "velocity": 0.07874015748031496
        },
        {
          "duration": 0.125,
          "durationTicks": 192,
          "midi": 48,
          "name": "C3",
          "ticks": 71232,
          "time": 46.375,
          "velocity": 0.23622047244094488
        },
        {
          "duration": 0.375,
          "durationTicks": 576,
          "midi": 57,
          "name": "A3",
          "ticks": 71424,
          "time": 46.5,
          "velocity": 0.1968503937007874
        },
        {
          "duration": 0.375,
          "durationTicks": 576,
          "midi": 60,
          "name": "C4",
          "ticks": 71424,
          "time": 46.5,
          "velocity": 0.31496062992125984
        },
        {
          "duration": 0.375,
          "durationTicks": 576,
          "midi": 48,
          "name": "C3",
          "ticks": 71424,
          "time": 46.5,
          "velocity": 0.3937007874015748
        },
        {
          "duration": 0.375,
          "durationTicks": 576,
          "midi": 59,
          "name": "B3",
          "ticks": 71424,
          "time": 46.5,
          "velocity": 0.11811023622047244
        },
        {
          "duration": 0.125,
          "durationTicks": 192,
          "midi": 60,
          "name": "C4",
          "ticks": 72000,
          "time": 46.875,
          "velocity": 0.31496062992125984
        },
        {
          "duration": 0.125,
          "durationTicks": 192,
          "midi": 57,
          "name": "A3",
          "ticks": 72000,
          "time": 46.875,
          "velocity": 0.1968503937007874
        },
        {
          "duration": 0.125,
          "durationTicks": 192,
          "midi": 48,
          "name": "C3",
          "ticks": 72000,
          "time": 46.875,
          "velocity": 0.1968503937007874
        },
        {
          "duration": 0.125,
          "durationTicks": 192,
          "midi": 59,
          "name": "B3",
          "ticks": 72000,
          "time": 46.875,
          "velocity": 0.11811023622047244
        },
        {
          "duration": 0.25,
          "durationTicks": 384,
          "midi": 48,
          "name": "C3",
          "ticks": 72576,
          "time": 47.25,
          "velocity": 0.2677165354330709
        },
        {
          "duration": 0.25,
          "durationTicks": 384,
          "midi": 59,
          "name": "B3",
          "ticks": 72576,
          "time": 47.25,
          "velocity": 0.11811023622047244
        },
        {
          "duration": 0.25,
          "durationTicks": 384,
          "midi": 60,
          "name": "C4",
          "ticks": 72576,
          "time": 47.25,
          "velocity": 0.31496062992125984
        },
        {
          "duration": 0.25,
          "durationTicks": 384,
          "midi": 57,
          "name": "A3",
          "ticks": 72576,
          "time": 47.25,
          "velocity": 0.1968503937007874
        },
        {
          "duration": 0.125,
          "durationTicks": 192,
          "midi": 59,
          "name": "B3",
          "ticks": 72960,
          "time": 47.5,
          "velocity": 0.07874015748031496
        },
        {
          "duration": 0.125,
          "durationTicks": 192,
          "midi": 57,
          "name": "A3",
          "ticks": 72960,
          "time": 47.5,
          "velocity": 0.15748031496062992
        },
        {
          "duration": 0.125,
          "durationTicks": 192,
          "midi": 60,
          "name": "C4",
          "ticks": 72960,
          "time": 47.5,
          "velocity": 0.2677165354330709
        },
        {
          "duration": 0.125,
          "durationTicks": 192,
          "midi": 48,
          "name": "C3",
          "ticks": 72960,
          "time": 47.5,
          "velocity": 0.07874015748031496
        },
        {
          "duration": 0.25,
          "durationTicks": 384,
          "midi": 59,
          "name": "B3",
          "ticks": 73152,
          "time": 47.625,
          "velocity": 0.11811023622047244
        },
        {
          "duration": 0.25,
          "durationTicks": 384,
          "midi": 48,
          "name": "C3",
          "ticks": 73152,
          "time": 47.625,
          "velocity": 0.2677165354330709
        },
        {
          "duration": 0.25,
          "durationTicks": 384,
          "midi": 57,
          "name": "A3",
          "ticks": 73152,
          "time": 47.625,
          "velocity": 0.1968503937007874
        },
        {
          "duration": 0.25,
          "durationTicks": 384,
          "midi": 60,
          "name": "C4",
          "ticks": 73152,
          "time": 47.625,
          "velocity": 0.31496062992125984
        },
        {
          "duration": 0.125,
          "durationTicks": 192,
          "midi": 48,
          "name": "C3",
          "ticks": 73536,
          "time": 47.875,
          "velocity": 0.15748031496062992
        },
        {
          "duration": 0.125,
          "durationTicks": 192,
          "midi": 57,
          "name": "A3",
          "ticks": 73536,
          "time": 47.875,
          "velocity": 0.15748031496062992
        },
        {
          "duration": 0.125,
          "durationTicks": 192,
          "midi": 60,
          "name": "C4",
          "ticks": 73536,
          "time": 47.875,
          "velocity": 0.23622047244094488
        },
        {
          "duration": 0.125,
          "durationTicks": 192,
          "midi": 59,
          "name": "B3",
          "ticks": 73536,
          "time": 47.875,
          "velocity": 0.07874015748031496
        },
        {
          "duration": 0.3125,
          "durationTicks": 480,
          "midi": 59,
          "name": "B3",
          "ticks": 73728,
          "time": 48,
          "velocity": 0.1968503937007874
        },
        {
          "duration": 0.3125,
          "durationTicks": 480,
          "midi": 60,
          "name": "C4",
          "ticks": 73728,
          "time": 48,
          "velocity": 0.11811023622047244
        },
        {
          "duration": 0.3125,
          "durationTicks": 480,
          "midi": 62,
          "name": "D4",
          "ticks": 73728,
          "time": 48,
          "velocity": 0.31496062992125984
        },
        {
          "duration": 0.3125,
          "durationTicks": 480,
          "midi": 52,
          "name": "E3",
          "ticks": 73728,
          "time": 48,
          "velocity": 0.3937007874015748
        },
        {
          "duration": 0.125,
          "durationTicks": 192,
          "midi": 60,
          "name": "C4",
          "ticks": 74304,
          "time": 48.375,
          "velocity": 0.07874015748031496
        },
        {
          "duration": 0.125,
          "durationTicks": 192,
          "midi": 59,
          "name": "B3",
          "ticks": 74304,
          "time": 48.375,
          "velocity": 0.15748031496062992
        },
        {
          "duration": 0.125,
          "durationTicks": 192,
          "midi": 52,
          "name": "E3",
          "ticks": 74304,
          "time": 48.375,
          "velocity": 0.23622047244094488
        },
        {
          "duration": 0.125,
          "durationTicks": 192,
          "midi": 62,
          "name": "D4",
          "ticks": 74304,
          "time": 48.375,
          "velocity": 0.2677165354330709
        },
        {
          "duration": 0.375,
          "durationTicks": 576,
          "midi": 60,
          "name": "C4",
          "ticks": 74496,
          "time": 48.5,
          "velocity": 0.11811023622047244
        },
        {
          "duration": 0.375,
          "durationTicks": 576,
          "midi": 59,
          "name": "B3",
          "ticks": 74496,
          "time": 48.5,
          "velocity": 0.1968503937007874
        },
        {
          "duration": 0.375,
          "durationTicks": 576,
          "midi": 62,
          "name": "D4",
          "ticks": 74496,
          "time": 48.5,
          "velocity": 0.31496062992125984
        },
        {
          "duration": 0.375,
          "durationTicks": 576,
          "midi": 52,
          "name": "E3",
          "ticks": 74496,
          "time": 48.5,
          "velocity": 0.3937007874015748
        },
        {
          "duration": 0.125,
          "durationTicks": 192,
          "midi": 59,
          "name": "B3",
          "ticks": 75072,
          "time": 48.875,
          "velocity": 0.1968503937007874
        },
        {
          "duration": 0.125,
          "durationTicks": 192,
          "midi": 62,
          "name": "D4",
          "ticks": 75072,
          "time": 48.875,
          "velocity": 0.31496062992125984
        },
        {
          "duration": 0.125,
          "durationTicks": 192,
          "midi": 52,
          "name": "E3",
          "ticks": 75072,
          "time": 48.875,
          "velocity": 0.1968503937007874
        },
        {
          "duration": 0.125,
          "durationTicks": 192,
          "midi": 60,
          "name": "C4",
          "ticks": 75072,
          "time": 48.875,
          "velocity": 0.11811023622047244
        },
        {
          "duration": 0.25,
          "durationTicks": 384,
          "midi": 59,
          "name": "B3",
          "ticks": 75648,
          "time": 49.25,
          "velocity": 0.1968503937007874
        },
        {
          "duration": 0.25,
          "durationTicks": 384,
          "midi": 60,
          "name": "C4",
          "ticks": 75648,
          "time": 49.25,
          "velocity": 0.11811023622047244
        },
        {
          "duration": 0.25,
          "durationTicks": 384,
          "midi": 52,
          "name": "E3",
          "ticks": 75648,
          "time": 49.25,
          "velocity": 0.2677165354330709
        },
        {
          "duration": 0.25,
          "durationTicks": 384,
          "midi": 62,
          "name": "D4",
          "ticks": 75648,
          "time": 49.25,
          "velocity": 0.31496062992125984
        },
        {
          "duration": 0.125,
          "durationTicks": 192,
          "midi": 52,
          "name": "E3",
          "ticks": 76032,
          "time": 49.5,
          "velocity": 0.07874015748031496
        },
        {
          "duration": 0.125,
          "durationTicks": 192,
          "midi": 59,
          "name": "B3",
          "ticks": 76032,
          "time": 49.5,
          "velocity": 0.15748031496062992
        },
        {
          "duration": 0.125,
          "durationTicks": 192,
          "midi": 62,
          "name": "D4",
          "ticks": 76032,
          "time": 49.5,
          "velocity": 0.2677165354330709
        },
        {
          "duration": 0.125,
          "durationTicks": 192,
          "midi": 60,
          "name": "C4",
          "ticks": 76032,
          "time": 49.5,
          "velocity": 0.07874015748031496
        },
        {
          "duration": 0.25,
          "durationTicks": 384,
          "midi": 60,
          "name": "C4",
          "ticks": 76224,
          "time": 49.625,
          "velocity": 0.11811023622047244
        },
        {
          "duration": 0.25,
          "durationTicks": 384,
          "midi": 52,
          "name": "E3",
          "ticks": 76224,
          "time": 49.625,
          "velocity": 0.2677165354330709
        },
        {
          "duration": 0.25,
          "durationTicks": 384,
          "midi": 59,
          "name": "B3",
          "ticks": 76224,
          "time": 49.625,
          "velocity": 0.1968503937007874
        },
        {
          "duration": 0.25,
          "durationTicks": 384,
          "midi": 62,
          "name": "D4",
          "ticks": 76224,
          "time": 49.625,
          "velocity": 0.31496062992125984
        },
        {
          "duration": 0.125,
          "durationTicks": 192,
          "midi": 52,
          "name": "E3",
          "ticks": 76608,
          "time": 49.875,
          "velocity": 0.15748031496062992
        },
        {
          "duration": 0.125,
          "durationTicks": 192,
          "midi": 60,
          "name": "C4",
          "ticks": 76608,
          "time": 49.875,
          "velocity": 0.07874015748031496
        },
        {
          "duration": 0.125,
          "durationTicks": 192,
          "midi": 62,
          "name": "D4",
          "ticks": 76608,
          "time": 49.875,
          "velocity": 0.23622047244094488
        },
        {
          "duration": 0.125,
          "durationTicks": 192,
          "midi": 59,
          "name": "B3",
          "ticks": 76608,
          "time": 49.875,
          "velocity": 0.15748031496062992
        },
        {
          "duration": 0.3125,
          "durationTicks": 480,
          "midi": 57,
          "name": "A3",
          "ticks": 76800,
          "time": 50,
          "velocity": 0.1968503937007874
        },
        {
          "duration": 0.3125,
          "durationTicks": 480,
          "midi": 48,
          "name": "C3",
          "ticks": 76800,
          "time": 50,
          "velocity": 0.3937007874015748
        },
        {
          "duration": 0.3125,
          "durationTicks": 480,
          "midi": 60,
          "name": "C4",
          "ticks": 76800,
          "time": 50,
          "velocity": 0.31496062992125984
        },
        {
          "duration": 0.3125,
          "durationTicks": 480,
          "midi": 59,
          "name": "B3",
          "ticks": 76800,
          "time": 50,
          "velocity": 0.11811023622047244
        },
        {
          "duration": 0.125,
          "durationTicks": 192,
          "midi": 48,
          "name": "C3",
          "ticks": 77376,
          "time": 50.375,
          "velocity": 0.23622047244094488
        },
        {
          "duration": 0.125,
          "durationTicks": 192,
          "midi": 60,
          "name": "C4",
          "ticks": 77376,
          "time": 50.375,
          "velocity": 0.2677165354330709
        },
        {
          "duration": 0.125,
          "durationTicks": 192,
          "midi": 57,
          "name": "A3",
          "ticks": 77376,
          "time": 50.375,
          "velocity": 0.15748031496062992
        },
        {
          "duration": 0.125,
          "durationTicks": 192,
          "midi": 59,
          "name": "B3",
          "ticks": 77376,
          "time": 50.375,
          "velocity": 0.07874015748031496
        },
        {
          "duration": 0.375,
          "durationTicks": 576,
          "midi": 59,
          "name": "B3",
          "ticks": 77568,
          "time": 50.5,
          "velocity": 0.11811023622047244
        },
        {
          "duration": 0.375,
          "durationTicks": 576,
          "midi": 60,
          "name": "C4",
          "ticks": 77568,
          "time": 50.5,
          "velocity": 0.31496062992125984
        },
        {
          "duration": 0.375,
          "durationTicks": 576,
          "midi": 48,
          "name": "C3",
          "ticks": 77568,
          "time": 50.5,
          "velocity": 0.3937007874015748
        },
        {
          "duration": 0.375,
          "durationTicks": 576,
          "midi": 57,
          "name": "A3",
          "ticks": 77568,
          "time": 50.5,
          "velocity": 0.1968503937007874
        },
        {
          "duration": 0.125,
          "durationTicks": 192,
          "midi": 57,
          "name": "A3",
          "ticks": 78144,
          "time": 50.875,
          "velocity": 0.1968503937007874
        },
        {
          "duration": 0.125,
          "durationTicks": 192,
          "midi": 60,
          "name": "C4",
          "ticks": 78144,
          "time": 50.875,
          "velocity": 0.31496062992125984
        },
        {
          "duration": 0.125,
          "durationTicks": 192,
          "midi": 48,
          "name": "C3",
          "ticks": 78144,
          "time": 50.875,
          "velocity": 0.1968503937007874
        },
        {
          "duration": 0.125,
          "durationTicks": 192,
          "midi": 59,
          "name": "B3",
          "ticks": 78144,
          "time": 50.875,
          "velocity": 0.11811023622047244
        },
        {
          "duration": 0.25,
          "durationTicks": 384,
          "midi": 57,
          "name": "A3",
          "ticks": 78720,
          "time": 51.25,
          "velocity": 0.1968503937007874
        },
        {
          "duration": 0.25,
          "durationTicks": 384,
          "midi": 48,
          "name": "C3",
          "ticks": 78720,
          "time": 51.25,
          "velocity": 0.2677165354330709
        },
        {
          "duration": 0.25,
          "durationTicks": 384,
          "midi": 60,
          "name": "C4",
          "ticks": 78720,
          "time": 51.25,
          "velocity": 0.31496062992125984
        },
        {
          "duration": 0.25,
          "durationTicks": 384,
          "midi": 59,
          "name": "B3",
          "ticks": 78720,
          "time": 51.25,
          "velocity": 0.11811023622047244
        },
        {
          "duration": 0.125,
          "durationTicks": 192,
          "midi": 48,
          "name": "C3",
          "ticks": 79104,
          "time": 51.5,
          "velocity": 0.07874015748031496
        },
        {
          "duration": 0.125,
          "durationTicks": 192,
          "midi": 59,
          "name": "B3",
          "ticks": 79104,
          "time": 51.5,
          "velocity": 0.07874015748031496
        },
        {
          "duration": 0.125,
          "durationTicks": 192,
          "midi": 60,
          "name": "C4",
          "ticks": 79104,
          "time": 51.5,
          "velocity": 0.2677165354330709
        },
        {
          "duration": 0.125,
          "durationTicks": 192,
          "midi": 57,
          "name": "A3",
          "ticks": 79104,
          "time": 51.5,
          "velocity": 0.15748031496062992
        },
        {
          "duration": 0.25,
          "durationTicks": 384,
          "midi": 59,
          "name": "B3",
          "ticks": 79296,
          "time": 51.625,
          "velocity": 0.11811023622047244
        },
        {
          "duration": 0.25,
          "durationTicks": 384,
          "midi": 60,
          "name": "C4",
          "ticks": 79296,
          "time": 51.625,
          "velocity": 0.31496062992125984
        },
        {
          "duration": 0.25,
          "durationTicks": 384,
          "midi": 48,
          "name": "C3",
          "ticks": 79296,
          "time": 51.625,
          "velocity": 0.2677165354330709
        },
        {
          "duration": 0.25,
          "durationTicks": 384,
          "midi": 57,
          "name": "A3",
          "ticks": 79296,
          "time": 51.625,
          "velocity": 0.1968503937007874
        },
        {
          "duration": 0.125,
          "durationTicks": 192,
          "midi": 60,
          "name": "C4",
          "ticks": 79680,
          "time": 51.875,
          "velocity": 0.23622047244094488
        },
        {
          "duration": 0.125,
          "durationTicks": 192,
          "midi": 57,
          "name": "A3",
          "ticks": 79680,
          "time": 51.875,
          "velocity": 0.15748031496062992
        },
        {
          "duration": 0.125,
          "durationTicks": 192,
          "midi": 59,
          "name": "B3",
          "ticks": 79680,
          "time": 51.875,
          "velocity": 0.07874015748031496
        },
        {
          "duration": 0.125,
          "durationTicks": 192,
          "midi": 48,
          "name": "C3",
          "ticks": 79680,
          "time": 51.875,
          "velocity": 0.15748031496062992
        },
        {
          "duration": 0.3125,
          "durationTicks": 480,
          "midi": 57,
          "name": "A3",
          "ticks": 79872,
          "time": 52,
          "velocity": 0.11811023622047244
        },
        {
          "duration": 0.3125,
          "durationTicks": 480,
          "midi": 60,
          "name": "C4",
          "ticks": 79872,
          "time": 52,
          "velocity": 0.31496062992125984
        },
        {
          "duration": 0.3125,
          "durationTicks": 480,
          "midi": 53,
          "name": "F3",
          "ticks": 79872,
          "time": 52,
          "velocity": 0.1968503937007874
        },
        {
          "duration": 0.3125,
          "durationTicks": 480,
          "midi": 47,
          "name": "B2",
          "ticks": 79872,
          "time": 52,
          "velocity": 0.3937007874015748
        },
        {
          "duration": 0.375,
          "durationTicks": 576,
          "midi": 60,
          "name": "C4",
          "ticks": 80640,
          "time": 52.5,
          "velocity": 0.31496062992125984
        },
        {
          "duration": 0.375,
          "durationTicks": 576,
          "midi": 57,
          "name": "A3",
          "ticks": 80640,
          "time": 52.5,
          "velocity": 0.11811023622047244
        },
        {
          "duration": 0.375,
          "durationTicks": 576,
          "midi": 47,
          "name": "B2",
          "ticks": 80640,
          "time": 52.5,
          "velocity": 0.3937007874015748
        },
        {
          "duration": 0.375,
          "durationTicks": 576,
          "midi": 53,
          "name": "F3",
          "ticks": 80640,
          "time": 52.5,
          "velocity": 0.1968503937007874
        },
        {
          "duration": 0.125,
          "durationTicks": 192,
          "midi": 56,
          "name": "G#3",
          "ticks": 81216,
          "time": 52.875,
          "velocity": 0.31496062992125984
        },
        {
          "duration": 0.125,
          "durationTicks": 192,
          "midi": 60,
          "name": "C4",
          "ticks": 81216,
          "time": 52.875,
          "velocity": 0.31496062992125984
        },
        {
          "duration": 0.125,
          "durationTicks": 192,
          "midi": 53,
          "name": "F3",
          "ticks": 81216,
          "time": 52.875,
          "velocity": 0.1968503937007874
        },
        {
          "duration": 0.125,
          "durationTicks": 192,
          "midi": 47,
          "name": "B2",
          "ticks": 81216,
          "time": 52.875,
          "velocity": 0.1968503937007874
        },
        {
          "duration": 0.25,
          "durationTicks": 384,
          "midi": 56,
          "name": "G#3",
          "ticks": 81792,
          "time": 53.25,
          "velocity": 0.31496062992125984
        },
        {
          "duration": 0.25,
          "durationTicks": 384,
          "midi": 53,
          "name": "F3",
          "ticks": 81792,
          "time": 53.25,
          "velocity": 0.1968503937007874
        },
        {
          "duration": 0.25,
          "durationTicks": 384,
          "midi": 60,
          "name": "C4",
          "ticks": 81792,
          "time": 53.25,
          "velocity": 0.31496062992125984
        },
        {
          "duration": 0.25,
          "durationTicks": 384,
          "midi": 48,
          "name": "C3",
          "ticks": 81792,
          "time": 53.25,
          "velocity": 0.2677165354330709
        },
        {
          "duration": 0.125,
          "durationTicks": 192,
          "midi": 56,
          "name": "G#3",
          "ticks": 82176,
          "time": 53.5,
          "velocity": 0.2677165354330709
        },
        {
          "duration": 0.125,
          "durationTicks": 192,
          "midi": 48,
          "name": "C3",
          "ticks": 82176,
          "time": 53.5,
          "velocity": 0.07874015748031496
        },
        {
          "duration": 0.125,
          "durationTicks": 192,
          "midi": 60,
          "name": "C4",
          "ticks": 82176,
          "time": 53.5,
          "velocity": 0.2677165354330709
        },
        {
          "duration": 0.125,
          "durationTicks": 192,
          "midi": 53,
          "name": "F3",
          "ticks": 82176,
          "time": 53.5,
          "velocity": 0.15748031496062992
        },
        {
          "duration": 0.25,
          "durationTicks": 384,
          "midi": 56,
          "name": "G#3",
          "ticks": 82368,
          "time": 53.625,
          "velocity": 0.31496062992125984
        },
        {
          "duration": 0.25,
          "durationTicks": 384,
          "midi": 60,
          "name": "C4",
          "ticks": 82368,
          "time": 53.625,
          "velocity": 0.31496062992125984
        },
        {
          "duration": 0.25,
          "durationTicks": 384,
          "midi": 48,
          "name": "C3",
          "ticks": 82368,
          "time": 53.625,
          "velocity": 0.2677165354330709
        },
        {
          "duration": 0.25,
          "durationTicks": 384,
          "midi": 53,
          "name": "F3",
          "ticks": 82368,
          "time": 53.625,
          "velocity": 0.1968503937007874
        },
        {
          "duration": 0.125,
          "durationTicks": 192,
          "midi": 53,
          "name": "F3",
          "ticks": 82752,
          "time": 53.875,
          "velocity": 0.15748031496062992
        },
        {
          "duration": 0.125,
          "durationTicks": 192,
          "midi": 56,
          "name": "G#3",
          "ticks": 82752,
          "time": 53.875,
          "velocity": 0.2677165354330709
        },
        {
          "duration": 0.125,
          "durationTicks": 192,
          "midi": 48,
          "name": "C3",
          "ticks": 82752,
          "time": 53.875,
          "velocity": 0.15748031496062992
        },
        {
          "duration": 0.125,
          "durationTicks": 192,
          "midi": 60,
          "name": "C4",
          "ticks": 82752,
          "time": 53.875,
          "velocity": 0.23622047244094488
        },
        {
          "duration": 0.3125,
          "durationTicks": 480,
          "midi": 53,
          "name": "F3",
          "ticks": 82944,
          "time": 54,
          "velocity": 0.31496062992125984
        },
        {
          "duration": 0.3125,
          "durationTicks": 480,
          "midi": 48,
          "name": "C3",
          "ticks": 82944,
          "time": 54,
          "velocity": 0.5039370078740157
        },
        {
          "duration": 0.3125,
          "durationTicks": 480,
          "midi": 56,
          "name": "G#3",
          "ticks": 82944,
          "time": 54,
          "velocity": 0.23622047244094488
        },
        {
          "duration": 0.3125,
          "durationTicks": 480,
          "midi": 60,
          "name": "C4",
          "ticks": 82944,
          "time": 54,
          "velocity": 0.23622047244094488
        },
        {
          "duration": 0.375,
          "durationTicks": 576,
          "midi": 48,
          "name": "C3",
          "ticks": 83712,
          "time": 54.5,
          "velocity": 0.5039370078740157
        },
        {
          "duration": 0.375,
          "durationTicks": 576,
          "midi": 60,
          "name": "C4",
          "ticks": 83712,
          "time": 54.5,
          "velocity": 0.23622047244094488
        },
        {
          "duration": 0.375,
          "durationTicks": 576,
          "midi": 53,
          "name": "F3",
          "ticks": 83712,
          "time": 54.5,
          "velocity": 0.31496062992125984
        },
        {
          "duration": 0.375,
          "durationTicks": 576,
          "midi": 56,
          "name": "G#3",
          "ticks": 83712,
          "time": 54.5,
          "velocity": 0.23622047244094488
        },
        {
          "duration": 0.125,
          "durationTicks": 192,
          "midi": 56,
          "name": "G#3",
          "ticks": 84288,
          "time": 54.875,
          "velocity": 0.4330708661417323
        },
        {
          "duration": 0.125,
          "durationTicks": 192,
          "midi": 60,
          "name": "C4",
          "ticks": 84288,
          "time": 54.875,
          "velocity": 0.23622047244094488
        },
        {
          "duration": 0.125,
          "durationTicks": 192,
          "midi": 52,
          "name": "E3",
          "ticks": 84288,
          "time": 54.875,
          "velocity": 0.31496062992125984
        },
        {
          "duration": 0.125,
          "durationTicks": 192,
          "midi": 48,
          "name": "C3",
          "ticks": 84288,
          "time": 54.875,
          "velocity": 0.31496062992125984
        },
        {
          "duration": 0.25,
          "durationTicks": 384,
          "midi": 52,
          "name": "E3",
          "ticks": 84864,
          "time": 55.25,
          "velocity": 0.4330708661417323
        },
        {
          "duration": 0.25,
          "durationTicks": 384,
          "midi": 60,
          "name": "C4",
          "ticks": 84864,
          "time": 55.25,
          "velocity": 0.2677165354330709
        },
        {
          "duration": 0.25,
          "durationTicks": 384,
          "midi": 53,
          "name": "F3",
          "ticks": 84864,
          "time": 55.25,
          "velocity": 0.31496062992125984
        },
        {
          "duration": 0.25,
          "durationTicks": 384,
          "midi": 56,
          "name": "G#3",
          "ticks": 84864,
          "time": 55.25,
          "velocity": 0.1968503937007874
        },
        {
          "duration": 0.25,
          "durationTicks": 384,
          "midi": 48,
          "name": "C3",
          "ticks": 84864,
          "time": 55.25,
          "velocity": 0.3937007874015748
        },
        {
          "duration": 0.125,
          "durationTicks": 192,
          "midi": 52,
          "name": "E3",
          "ticks": 85248,
          "time": 55.5,
          "velocity": 0.3937007874015748
        },
        {
          "duration": 0.125,
          "durationTicks": 192,
          "midi": 56,
          "name": "G#3",
          "ticks": 85248,
          "time": 55.5,
          "velocity": 0.15748031496062992
        },
        {
          "duration": 0.125,
          "durationTicks": 192,
          "midi": 53,
          "name": "F3",
          "ticks": 85248,
          "time": 55.5,
          "velocity": 0.2677165354330709
        },
        {
          "duration": 0.125,
          "durationTicks": 192,
          "midi": 60,
          "name": "C4",
          "ticks": 85248,
          "time": 55.5,
          "velocity": 0.23622047244094488
        },
        {
          "duration": 0.125,
          "durationTicks": 192,
          "midi": 48,
          "name": "C3",
          "ticks": 85248,
          "time": 55.5,
          "velocity": 0.1968503937007874
        },
        {
          "duration": 0.25,
          "durationTicks": 384,
          "midi": 60,
          "name": "C4",
          "ticks": 85440,
          "time": 55.625,
          "velocity": 0.2677165354330709
        },
        {
          "duration": 0.25,
          "durationTicks": 384,
          "midi": 48,
          "name": "C3",
          "ticks": 85440,
          "time": 55.625,
          "velocity": 0.3937007874015748
        },
        {
          "duration": 0.25,
          "durationTicks": 384,
          "midi": 56,
          "name": "G#3",
          "ticks": 85440,
          "time": 55.625,
          "velocity": 0.1968503937007874
        },
        {
          "duration": 0.25,
          "durationTicks": 384,
          "midi": 52,
          "name": "E3",
          "ticks": 85440,
          "time": 55.625,
          "velocity": 0.4330708661417323
        },
        {
          "duration": 0.25,
          "durationTicks": 384,
          "midi": 53,
          "name": "F3",
          "ticks": 85440,
          "time": 55.625,
          "velocity": 0.31496062992125984
        },
        {
          "duration": 0.125,
          "durationTicks": 192,
          "midi": 53,
          "name": "F3",
          "ticks": 85824,
          "time": 55.875,
          "velocity": 0.2677165354330709
        },
        {
          "duration": 0.125,
          "durationTicks": 192,
          "midi": 56,
          "name": "G#3",
          "ticks": 85824,
          "time": 55.875,
          "velocity": 0.15748031496062992
        },
        {
          "duration": 0.125,
          "durationTicks": 192,
          "midi": 52,
          "name": "E3",
          "ticks": 85824,
          "time": 55.875,
          "velocity": 0.3464566929133858
        },
        {
          "duration": 0.125,
          "durationTicks": 192,
          "midi": 48,
          "name": "C3",
          "ticks": 85824,
          "time": 55.875,
          "velocity": 0.2677165354330709
        },
        {
          "duration": 0.125,
          "durationTicks": 192,
          "midi": 60,
          "name": "C4",
          "ticks": 85824,
          "time": 55.875,
          "velocity": 0.23622047244094488
        },
        {
          "duration": 0.3125,
          "durationTicks": 480,
          "midi": 56,
          "name": "G#3",
          "ticks": 86016,
          "time": 56,
          "velocity": 0.23622047244094488
        },
        {
          "duration": 0.3125,
          "durationTicks": 480,
          "midi": 61,
          "name": "C#4",
          "ticks": 86016,
          "time": 56,
          "velocity": 0.31496062992125984
        },
        {
          "duration": 0.3125,
          "durationTicks": 480,
          "midi": 66,
          "name": "F#4",
          "ticks": 86016,
          "time": 56,
          "velocity": 0.23622047244094488
        },
        {
          "duration": 0.3125,
          "durationTicks": 480,
          "midi": 49,
          "name": "C#3",
          "ticks": 86016,
          "time": 56,
          "velocity": 0.5039370078740157
        },
        {
          "duration": 0.375,
          "durationTicks": 576,
          "midi": 66,
          "name": "F#4",
          "ticks": 86784,
          "time": 56.5,
          "velocity": 0.23622047244094488
        },
        {
          "duration": 0.375,
          "durationTicks": 576,
          "midi": 61,
          "name": "C#4",
          "ticks": 86784,
          "time": 56.5,
          "velocity": 0.31496062992125984
        },
        {
          "duration": 0.375,
          "durationTicks": 576,
          "midi": 56,
          "name": "G#3",
          "ticks": 86784,
          "time": 56.5,
          "velocity": 0.23622047244094488
        },
        {
          "duration": 0.375,
          "durationTicks": 576,
          "midi": 49,
          "name": "C#3",
          "ticks": 86784,
          "time": 56.5,
          "velocity": 0.5039370078740157
        },
        {
          "duration": 0.125,
          "durationTicks": 192,
          "midi": 49,
          "name": "C#3",
          "ticks": 87360,
          "time": 56.875,
          "velocity": 0.31496062992125984
        },
        {
          "duration": 0.125,
          "durationTicks": 192,
          "midi": 66,
          "name": "F#4",
          "ticks": 87360,
          "time": 56.875,
          "velocity": 0.23622047244094488
        },
        {
          "duration": 0.125,
          "durationTicks": 192,
          "midi": 52,
          "name": "E3",
          "ticks": 87360,
          "time": 56.875,
          "velocity": 0.31496062992125984
        },
        {
          "duration": 0.125,
          "durationTicks": 192,
          "midi": 56,
          "name": "G#3",
          "ticks": 87360,
          "time": 56.875,
          "velocity": 0.4330708661417323
        },
        {
          "duration": 0.25,
          "durationTicks": 384,
          "midi": 49,
          "name": "C#3",
          "ticks": 87936,
          "time": 57.25,
          "velocity": 0.3937007874015748
        },
        {
          "duration": 0.25,
          "durationTicks": 384,
          "midi": 52,
          "name": "E3",
          "ticks": 87936,
          "time": 57.25,
          "velocity": 0.4330708661417323
        },
        {
          "duration": 0.25,
          "durationTicks": 384,
          "midi": 56,
          "name": "G#3",
          "ticks": 87936,
          "time": 57.25,
          "velocity": 0.1968503937007874
        },
        {
          "duration": 0.25,
          "durationTicks": 384,
          "midi": 61,
          "name": "C#4",
          "ticks": 87936,
          "time": 57.25,
          "velocity": 0.31496062992125984
        },
        {
          "duration": 0.25,
          "durationTicks": 384,
          "midi": 66,
          "name": "F#4",
          "ticks": 87936,
          "time": 57.25,
          "velocity": 0.2677165354330709
        },
        {
          "duration": 0.125,
          "durationTicks": 192,
          "midi": 52,
          "name": "E3",
          "ticks": 88320,
          "time": 57.5,
          "velocity": 0.3937007874015748
        },
        {
          "duration": 0.125,
          "durationTicks": 192,
          "midi": 66,
          "name": "F#4",
          "ticks": 88320,
          "time": 57.5,
          "velocity": 0.23622047244094488
        },
        {
          "duration": 0.125,
          "durationTicks": 192,
          "midi": 56,
          "name": "G#3",
          "ticks": 88320,
          "time": 57.5,
          "velocity": 0.15748031496062992
        },
        {
          "duration": 0.125,
          "durationTicks": 192,
          "midi": 61,
          "name": "C#4",
          "ticks": 88320,
          "time": 57.5,
          "velocity": 0.2677165354330709
        },
        {
          "duration": 0.125,
          "durationTicks": 192,
          "midi": 49,
          "name": "C#3",
          "ticks": 88320,
          "time": 57.5,
          "velocity": 0.1968503937007874
        },
        {
          "duration": 0.25,
          "durationTicks": 384,
          "midi": 52,
          "name": "E3",
          "ticks": 88512,
          "time": 57.625,
          "velocity": 0.4330708661417323
        },
        {
          "duration": 0.25,
          "durationTicks": 384,
          "midi": 61,
          "name": "C#4",
          "ticks": 88512,
          "time": 57.625,
          "velocity": 0.31496062992125984
        },
        {
          "duration": 0.25,
          "durationTicks": 384,
          "midi": 56,
          "name": "G#3",
          "ticks": 88512,
          "time": 57.625,
          "velocity": 0.1968503937007874
        },
        {
          "duration": 0.25,
          "durationTicks": 384,
          "midi": 49,
          "name": "C#3",
          "ticks": 88512,
          "time": 57.625,
          "velocity": 0.3937007874015748
        },
        {
          "duration": 0.25,
          "durationTicks": 384,
          "midi": 66,
          "name": "F#4",
          "ticks": 88512,
          "time": 57.625,
          "velocity": 0.2677165354330709
        },
        {
          "duration": 0.125,
          "durationTicks": 192,
          "midi": 49,
          "name": "C#3",
          "ticks": 88896,
          "time": 57.875,
          "velocity": 0.2677165354330709
        },
        {
          "duration": 0.125,
          "durationTicks": 192,
          "midi": 61,
          "name": "C#4",
          "ticks": 88896,
          "time": 57.875,
          "velocity": 0.2677165354330709
        },
        {
          "duration": 0.125,
          "durationTicks": 192,
          "midi": 52,
          "name": "E3",
          "ticks": 88896,
          "time": 57.875,
          "velocity": 0.3464566929133858
        },
        {
          "duration": 0.125,
          "durationTicks": 192,
          "midi": 66,
          "name": "F#4",
          "ticks": 88896,
          "time": 57.875,
          "velocity": 0.23622047244094488
        },
        {
          "duration": 0.125,
          "durationTicks": 192,
          "midi": 56,
          "name": "G#3",
          "ticks": 88896,
          "time": 57.875,
          "velocity": 0.15748031496062992
        },
        {
          "duration": 0.3125,
          "durationTicks": 480,
          "midi": 61,
          "name": "C#4",
          "ticks": 89088,
          "time": 58,
          "velocity": 0.31496062992125984
        },
        {
          "duration": 0.3125,
          "durationTicks": 480,
          "midi": 56,
          "name": "G#3",
          "ticks": 89088,
          "time": 58,
          "velocity": 0.23622047244094488
        },
        {
          "duration": 0.3125,
          "durationTicks": 480,
          "midi": 49,
          "name": "C#3",
          "ticks": 89088,
          "time": 58,
          "velocity": 0.5039370078740157
        },
        {
          "duration": 0.3125,
          "durationTicks": 480,
          "midi": 66,
          "name": "F#4",
          "ticks": 89088,
          "time": 58,
          "velocity": 0.23622047244094488
        },
        {
          "duration": 0.375,
          "durationTicks": 576,
          "midi": 61,
          "name": "C#4",
          "ticks": 89856,
          "time": 58.5,
          "velocity": 0.31496062992125984
        },
        {
          "duration": 0.375,
          "durationTicks": 576,
          "midi": 66,
          "name": "F#4",
          "ticks": 89856,
          "time": 58.5,
          "velocity": 0.23622047244094488
        },
        {
          "duration": 0.375,
          "durationTicks": 576,
          "midi": 49,
          "name": "C#3",
          "ticks": 89856,
          "time": 58.5,
          "velocity": 0.5039370078740157
        },
        {
          "duration": 0.375,
          "durationTicks": 576,
          "midi": 56,
          "name": "G#3",
          "ticks": 89856,
          "time": 58.5,
          "velocity": 0.23622047244094488
        },
        {
          "duration": 0.125,
          "durationTicks": 192,
          "midi": 56,
          "name": "G#3",
          "ticks": 90432,
          "time": 58.875,
          "velocity": 0.4330708661417323
        },
        {
          "duration": 0.125,
          "durationTicks": 192,
          "midi": 66,
          "name": "F#4",
          "ticks": 90432,
          "time": 58.875,
          "velocity": 0.23622047244094488
        },
        {
          "duration": 0.125,
          "durationTicks": 192,
          "midi": 52,
          "name": "E3",
          "ticks": 90432,
          "time": 58.875,
          "velocity": 0.31496062992125984
        },
        {
          "duration": 0.125,
          "durationTicks": 192,
          "midi": 49,
          "name": "C#3",
          "ticks": 90432,
          "time": 58.875,
          "velocity": 0.31496062992125984
        },
        {
          "duration": 0.25,
          "durationTicks": 384,
          "midi": 61,
          "name": "C#4",
          "ticks": 91008,
          "time": 59.25,
          "velocity": 0.31496062992125984
        },
        {
          "duration": 0.25,
          "durationTicks": 384,
          "midi": 66,
          "name": "F#4",
          "ticks": 91008,
          "time": 59.25,
          "velocity": 0.2677165354330709
        },
        {
          "duration": 0.25,
          "durationTicks": 384,
          "midi": 49,
          "name": "C#3",
          "ticks": 91008,
          "time": 59.25,
          "velocity": 0.3937007874015748
        },
        {
          "duration": 0.25,
          "durationTicks": 384,
          "midi": 56,
          "name": "G#3",
          "ticks": 91008,
          "time": 59.25,
          "velocity": 0.1968503937007874
        },
        {
          "duration": 0.25,
          "durationTicks": 384,
          "midi": 52,
          "name": "E3",
          "ticks": 91008,
          "time": 59.25,
          "velocity": 0.4330708661417323
        },
        {
          "duration": 0.125,
          "durationTicks": 192,
          "midi": 61,
          "name": "C#4",
          "ticks": 91392,
          "time": 59.5,
          "velocity": 0.2677165354330709
        },
        {
          "duration": 0.125,
          "durationTicks": 192,
          "midi": 49,
          "name": "C#3",
          "ticks": 91392,
          "time": 59.5,
          "velocity": 0.1968503937007874
        },
        {
          "duration": 0.125,
          "durationTicks": 192,
          "midi": 66,
          "name": "F#4",
          "ticks": 91392,
          "time": 59.5,
          "velocity": 0.23622047244094488
        },
        {
          "duration": 0.125,
          "durationTicks": 192,
          "midi": 56,
          "name": "G#3",
          "ticks": 91392,
          "time": 59.5,
          "velocity": 0.15748031496062992
        },
        {
          "duration": 0.125,
          "durationTicks": 192,
          "midi": 52,
          "name": "E3",
          "ticks": 91392,
          "time": 59.5,
          "velocity": 0.3937007874015748
        },
        {
          "duration": 0.25,
          "durationTicks": 384,
          "midi": 61,
          "name": "C#4",
          "ticks": 91584,
          "time": 59.625,
          "velocity": 0.31496062992125984
        },
        {
          "duration": 0.25,
          "durationTicks": 384,
          "midi": 56,
          "name": "G#3",
          "ticks": 91584,
          "time": 59.625,
          "velocity": 0.1968503937007874
        },
        {
          "duration": 0.25,
          "durationTicks": 384,
          "midi": 52,
          "name": "E3",
          "ticks": 91584,
          "time": 59.625,
          "velocity": 0.4330708661417323
        },
        {
          "duration": 0.25,
          "durationTicks": 384,
          "midi": 49,
          "name": "C#3",
          "ticks": 91584,
          "time": 59.625,
          "velocity": 0.3937007874015748
        },
        {
          "duration": 0.25,
          "durationTicks": 384,
          "midi": 66,
          "name": "F#4",
          "ticks": 91584,
          "time": 59.625,
          "velocity": 0.2677165354330709
        },
        {
          "duration": 0.125,
          "durationTicks": 192,
          "midi": 49,
          "name": "C#3",
          "ticks": 91968,
          "time": 59.875,
          "velocity": 0.2677165354330709
        },
        {
          "duration": 0.125,
          "durationTicks": 192,
          "midi": 61,
          "name": "C#4",
          "ticks": 91968,
          "time": 59.875,
          "velocity": 0.2677165354330709
        },
        {
          "duration": 0.125,
          "durationTicks": 192,
          "midi": 66,
          "name": "F#4",
          "ticks": 91968,
          "time": 59.875,
          "velocity": 0.23622047244094488
        },
        {
          "duration": 0.125,
          "durationTicks": 192,
          "midi": 52,
          "name": "E3",
          "ticks": 91968,
          "time": 59.875,
          "velocity": 0.3464566929133858
        },
        {
          "duration": 0.125,
          "durationTicks": 192,
          "midi": 56,
          "name": "G#3",
          "ticks": 91968,
          "time": 59.875,
          "velocity": 0.15748031496062992
        },
        {
          "duration": 0.3125,
          "durationTicks": 480,
          "midi": 68,
          "name": "G#4",
          "ticks": 92160,
          "time": 60,
          "velocity": 0.23622047244094488
        },
        {
          "duration": 0.3125,
          "durationTicks": 480,
          "midi": 49,
          "name": "C#3",
          "ticks": 92160,
          "time": 60,
          "velocity": 0.5039370078740157
        },
        {
          "duration": 0.3125,
          "durationTicks": 480,
          "midi": 69,
          "name": "A4",
          "ticks": 92160,
          "time": 60,
          "velocity": 0.11811023622047244
        },
        {
          "duration": 0.3125,
          "durationTicks": 480,
          "midi": 61,
          "name": "C#4",
          "ticks": 92160,
          "time": 60,
          "velocity": 0.31496062992125984
        },
        {
          "duration": 0.3125,
          "durationTicks": 480,
          "midi": 56,
          "name": "G#3",
          "ticks": 92160,
          "time": 60,
          "velocity": 0.23622047244094488
        },
        {
          "duration": 0.375,
          "durationTicks": 576,
          "midi": 68,
          "name": "G#4",
          "ticks": 92928,
          "time": 60.5,
          "velocity": 0.23622047244094488
        },
        {
          "duration": 0.375,
          "durationTicks": 576,
          "midi": 69,
          "name": "A4",
          "ticks": 92928,
          "time": 60.5,
          "velocity": 0.11811023622047244
        },
        {
          "duration": 0.375,
          "durationTicks": 576,
          "midi": 49,
          "name": "C#3",
          "ticks": 92928,
          "time": 60.5,
          "velocity": 0.5039370078740157
        },
        {
          "duration": 0.375,
          "durationTicks": 576,
          "midi": 61,
          "name": "C#4",
          "ticks": 92928,
          "time": 60.5,
          "velocity": 0.31496062992125984
        },
        {
          "duration": 0.375,
          "durationTicks": 576,
          "midi": 56,
          "name": "G#3",
          "ticks": 92928,
          "time": 60.5,
          "velocity": 0.23622047244094488
        },
        {
          "duration": 0.125,
          "durationTicks": 192,
          "midi": 56,
          "name": "G#3",
          "ticks": 93504,
          "time": 60.875,
          "velocity": 0.4330708661417323
        },
        {
          "duration": 0.125,
          "durationTicks": 192,
          "midi": 69,
          "name": "A4",
          "ticks": 93504,
          "time": 60.875,
          "velocity": 0.11811023622047244
        },
        {
          "duration": 0.125,
          "durationTicks": 192,
          "midi": 51,
          "name": "D#3",
          "ticks": 93504,
          "time": 60.875,
          "velocity": 0.31496062992125984
        },
        {
          "duration": 0.125,
          "durationTicks": 192,
          "midi": 68,
          "name": "G#4",
          "ticks": 93504,
          "time": 60.875,
          "velocity": 0.23622047244094488
        },
        {
          "duration": 0.125,
          "durationTicks": 192,
          "midi": 49,
          "name": "C#3",
          "ticks": 93504,
          "time": 60.875,
          "velocity": 0.31496062992125984
        },
        {
          "duration": 0.25,
          "durationTicks": 384,
          "midi": 51,
          "name": "D#3",
          "ticks": 94080,
          "time": 61.25,
          "velocity": 0.4330708661417323
        },
        {
          "duration": 0.25,
          "durationTicks": 384,
          "midi": 61,
          "name": "C#4",
          "ticks": 94080,
          "time": 61.25,
          "velocity": 0.31496062992125984
        },
        {
          "duration": 0.25,
          "durationTicks": 384,
          "midi": 56,
          "name": "G#3",
          "ticks": 94080,
          "time": 61.25,
          "velocity": 0.1968503937007874
        },
        {
          "duration": 0.25,
          "durationTicks": 384,
          "midi": 69,
          "name": "A4",
          "ticks": 94080,
          "time": 61.25,
          "velocity": 0.15748031496062992
        },
        {
          "duration": 0.25,
          "durationTicks": 384,
          "midi": 49,
          "name": "C#3",
          "ticks": 94080,
          "time": 61.25,
          "velocity": 0.3937007874015748
        },
        {
          "duration": 0.25,
          "durationTicks": 384,
          "midi": 68,
          "name": "G#4",
          "ticks": 94080,
          "time": 61.25,
          "velocity": 0.2677165354330709
        },
        {
          "duration": 0.125,
          "durationTicks": 192,
          "midi": 61,
          "name": "C#4",
          "ticks": 94464,
          "time": 61.5,
          "velocity": 0.2677165354330709
        },
        {
          "duration": 0.125,
          "durationTicks": 192,
          "midi": 56,
          "name": "G#3",
          "ticks": 94464,
          "time": 61.5,
          "velocity": 0.15748031496062992
        },
        {
          "duration": 0.125,
          "durationTicks": 192,
          "midi": 49,
          "name": "C#3",
          "ticks": 94464,
          "time": 61.5,
          "velocity": 0.1968503937007874
        },
        {
          "duration": 0.125,
          "durationTicks": 192,
          "midi": 51,
          "name": "D#3",
          "ticks": 94464,
          "time": 61.5,
          "velocity": 0.3937007874015748
        },
        {
          "duration": 0.125,
          "durationTicks": 192,
          "midi": 68,
          "name": "G#4",
          "ticks": 94464,
          "time": 61.5,
          "velocity": 0.23622047244094488
        },
        {
          "duration": 0.125,
          "durationTicks": 192,
          "midi": 69,
          "name": "A4",
          "ticks": 94464,
          "time": 61.5,
          "velocity": 0.11811023622047244
        },
        {
          "duration": 0.25,
          "durationTicks": 384,
          "midi": 69,
          "name": "A4",
          "ticks": 94656,
          "time": 61.625,
          "velocity": 0.15748031496062992
        },
        {
          "duration": 0.25,
          "durationTicks": 384,
          "midi": 61,
          "name": "C#4",
          "ticks": 94656,
          "time": 61.625,
          "velocity": 0.31496062992125984
        },
        {
          "duration": 0.25,
          "durationTicks": 384,
          "midi": 51,
          "name": "D#3",
          "ticks": 94656,
          "time": 61.625,
          "velocity": 0.4330708661417323
        },
        {
          "duration": 0.25,
          "durationTicks": 384,
          "midi": 68,
          "name": "G#4",
          "ticks": 94656,
          "time": 61.625,
          "velocity": 0.2677165354330709
        },
        {
          "duration": 0.25,
          "durationTicks": 384,
          "midi": 56,
          "name": "G#3",
          "ticks": 94656,
          "time": 61.625,
          "velocity": 0.1968503937007874
        },
        {
          "duration": 0.25,
          "durationTicks": 384,
          "midi": 49,
          "name": "C#3",
          "ticks": 94656,
          "time": 61.625,
          "velocity": 0.3937007874015748
        },
        {
          "duration": 0.125,
          "durationTicks": 192,
          "midi": 69,
          "name": "A4",
          "ticks": 95040,
          "time": 61.875,
          "velocity": 0.11811023622047244
        },
        {
          "duration": 0.125,
          "durationTicks": 192,
          "midi": 56,
          "name": "G#3",
          "ticks": 95040,
          "time": 61.875,
          "velocity": 0.15748031496062992
        },
        {
          "duration": 0.125,
          "durationTicks": 192,
          "midi": 68,
          "name": "G#4",
          "ticks": 95040,
          "time": 61.875,
          "velocity": 0.23622047244094488
        },
        {
          "duration": 0.125,
          "durationTicks": 192,
          "midi": 49,
          "name": "C#3",
          "ticks": 95040,
          "time": 61.875,
          "velocity": 0.2677165354330709
        },
        {
          "duration": 0.125,
          "durationTicks": 192,
          "midi": 61,
          "name": "C#4",
          "ticks": 95040,
          "time": 61.875,
          "velocity": 0.2677165354330709
        },
        {
          "duration": 0.125,
          "durationTicks": 192,
          "midi": 51,
          "name": "D#3",
          "ticks": 95040,
          "time": 61.875,
          "velocity": 0.3464566929133858
        },
        {
          "duration": 0.3125,
          "durationTicks": 480,
          "midi": 67,
          "name": "G4",
          "ticks": 95232,
          "time": 62,
          "velocity": 0.15748031496062992
        },
        {
          "duration": 0.3125,
          "durationTicks": 480,
          "midi": 69,
          "name": "A4",
          "ticks": 95232,
          "time": 62,
          "velocity": 0.1968503937007874
        },
        {
          "duration": 0.3125,
          "durationTicks": 480,
          "midi": 57,
          "name": "A3",
          "ticks": 95232,
          "time": 62,
          "velocity": 0.23622047244094488
        },
        {
          "duration": 0.3125,
          "durationTicks": 480,
          "midi": 62,
          "name": "D4",
          "ticks": 95232,
          "time": 62,
          "velocity": 0.31496062992125984
        },
        {
          "duration": 0.3125,
          "durationTicks": 480,
          "midi": 50,
          "name": "D3",
          "ticks": 95232,
          "time": 62,
          "velocity": 0.5039370078740157
        },
        {
          "duration": 0.375,
          "durationTicks": 576,
          "midi": 62,
          "name": "D4",
          "ticks": 96000,
          "time": 62.5,
          "velocity": 0.31496062992125984
        },
        {
          "duration": 0.375,
          "durationTicks": 576,
          "midi": 69,
          "name": "A4",
          "ticks": 96000,
          "time": 62.5,
          "velocity": 0.1968503937007874
        },
        {
          "duration": 0.375,
          "durationTicks": 576,
          "midi": 50,
          "name": "D3",
          "ticks": 96000,
          "time": 62.5,
          "velocity": 0.5039370078740157
        },
        {
          "duration": 0.375,
          "durationTicks": 576,
          "midi": 67,
          "name": "G4",
          "ticks": 96000,
          "time": 62.5,
          "velocity": 0.15748031496062992
        },
        {
          "duration": 0.375,
          "durationTicks": 576,
          "midi": 57,
          "name": "A3",
          "ticks": 96000,
          "time": 62.5,
          "velocity": 0.23622047244094488
        },
        {
          "duration": 0.125,
          "durationTicks": 192,
          "midi": 50,
          "name": "D3",
          "ticks": 96576,
          "time": 62.875,
          "velocity": 0.31496062992125984
        },
        {
          "duration": 0.125,
          "durationTicks": 192,
          "midi": 69,
          "name": "A4",
          "ticks": 96576,
          "time": 62.875,
          "velocity": 0.1968503937007874
        },
        {
          "duration": 0.125,
          "durationTicks": 192,
          "midi": 57,
          "name": "A3",
          "ticks": 96576,
          "time": 62.875,
          "velocity": 0.4330708661417323
        },
        {
          "duration": 0.125,
          "durationTicks": 192,
          "midi": 62,
          "name": "D4",
          "ticks": 96576,
          "time": 62.875,
          "velocity": 0.31496062992125984
        },
        {
          "duration": 0.125,
          "durationTicks": 192,
          "midi": 67,
          "name": "G4",
          "ticks": 96576,
          "time": 62.875,
          "velocity": 0.15748031496062992
        },
        {
          "duration": 0.25,
          "durationTicks": 384,
          "midi": 69,
          "name": "A4",
          "ticks": 97152,
          "time": 63.25,
          "velocity": 0.15748031496062992
        },
        {
          "duration": 0.25,
          "durationTicks": 384,
          "midi": 54,
          "name": "F#3",
          "ticks": 97152,
          "time": 63.25,
          "velocity": 0.4330708661417323
        },
        {
          "duration": 0.25,
          "durationTicks": 384,
          "midi": 67,
          "name": "G4",
          "ticks": 97152,
          "time": 63.25,
          "velocity": 0.2677165354330709
        },
        {
          "duration": 0.25,
          "durationTicks": 384,
          "midi": 57,
          "name": "A3",
          "ticks": 97152,
          "time": 63.25,
          "velocity": 0.1968503937007874
        },
        {
          "duration": 0.25,
          "durationTicks": 384,
          "midi": 50,
          "name": "D3",
          "ticks": 97152,
          "time": 63.25,
          "velocity": 0.3937007874015748
        },
        {
          "duration": 0.25,
          "durationTicks": 384,
          "midi": 62,
          "name": "D4",
          "ticks": 97152,
          "time": 63.25,
          "velocity": 0.31496062992125984
        },
        {
          "duration": 0.125,
          "durationTicks": 192,
          "midi": 57,
          "name": "A3",
          "ticks": 97536,
          "time": 63.5,
          "velocity": 0.15748031496062992
        },
        {
          "duration": 0.125,
          "durationTicks": 192,
          "midi": 54,
          "name": "F#3",
          "ticks": 97536,
          "time": 63.5,
          "velocity": 0.3937007874015748
        },
        {
          "duration": 0.125,
          "durationTicks": 192,
          "midi": 62,
          "name": "D4",
          "ticks": 97536,
          "time": 63.5,
          "velocity": 0.2677165354330709
        },
        {
          "duration": 0.125,
          "durationTicks": 192,
          "midi": 69,
          "name": "A4",
          "ticks": 97536,
          "time": 63.5,
          "velocity": 0.11811023622047244
        },
        {
          "duration": 0.125,
          "durationTicks": 192,
          "midi": 50,
          "name": "D3",
          "ticks": 97536,
          "time": 63.5,
          "velocity": 0.1968503937007874
        },
        {
          "duration": 0.125,
          "durationTicks": 192,
          "midi": 67,
          "name": "G4",
          "ticks": 97536,
          "time": 63.5,
          "velocity": 0.23622047244094488
        },
        {
          "duration": 0.25,
          "durationTicks": 384,
          "midi": 54,
          "name": "F#3",
          "ticks": 97728,
          "time": 63.625,
          "velocity": 0.4330708661417323
        },
        {
          "duration": 0.25,
          "durationTicks": 384,
          "midi": 50,
          "name": "D3",
          "ticks": 97728,
          "time": 63.625,
          "velocity": 0.3937007874015748
        },
        {
          "duration": 0.25,
          "durationTicks": 384,
          "midi": 62,
          "name": "D4",
          "ticks": 97728,
          "time": 63.625,
          "velocity": 0.31496062992125984
        },
        {
          "duration": 0.25,
          "durationTicks": 384,
          "midi": 67,
          "name": "G4",
          "ticks": 97728,
          "time": 63.625,
          "velocity": 0.2677165354330709
        },
        {
          "duration": 0.25,
          "durationTicks": 384,
          "midi": 69,
          "name": "A4",
          "ticks": 97728,
          "time": 63.625,
          "velocity": 0.15748031496062992
        },
        {
          "duration": 0.25,
          "durationTicks": 384,
          "midi": 57,
          "name": "A3",
          "ticks": 97728,
          "time": 63.625,
          "velocity": 0.1968503937007874
        },
        {
          "duration": 0.125,
          "durationTicks": 192,
          "midi": 62,
          "name": "D4",
          "ticks": 98112,
          "time": 63.875,
          "velocity": 0.2677165354330709
        },
        {
          "duration": 0.125,
          "durationTicks": 192,
          "midi": 69,
          "name": "A4",
          "ticks": 98112,
          "time": 63.875,
          "velocity": 0.11811023622047244
        },
        {
          "duration": 0.125,
          "durationTicks": 192,
          "midi": 57,
          "name": "A3",
          "ticks": 98112,
          "time": 63.875,
          "velocity": 0.15748031496062992
        },
        {
          "duration": 0.125,
          "durationTicks": 192,
          "midi": 67,
          "name": "G4",
          "ticks": 98112,
          "time": 63.875,
          "velocity": 0.23622047244094488
        },
        {
          "duration": 0.125,
          "durationTicks": 192,
          "midi": 50,
          "name": "D3",
          "ticks": 98112,
          "time": 63.875,
          "velocity": 0.2677165354330709
        },
        {
          "duration": 0.125,
          "durationTicks": 192,
          "midi": 54,
          "name": "F#3",
          "ticks": 98112,
          "time": 63.875,
          "velocity": 0.3464566929133858
        },
        {
          "duration": 0.3125,
          "durationTicks": 480,
          "midi": 61,
          "name": "C#4",
          "ticks": 98304,
          "time": 64,
          "velocity": 0.31496062992125984
        },
        {
          "duration": 0.3125,
          "durationTicks": 480,
          "midi": 57,
          "name": "A3",
          "ticks": 98304,
          "time": 64,
          "velocity": 0.23622047244094488
        },
        {
          "duration": 0.3125,
          "durationTicks": 480,
          "midi": 68,
          "name": "G#4",
          "ticks": 98304,
          "time": 64,
          "velocity": 0.07874015748031496
        },
        {
          "duration": 0.3125,
          "durationTicks": 480,
          "midi": 64,
          "name": "E4",
          "ticks": 98304,
          "time": 64,
          "velocity": 0.31496062992125984
        },
        {
          "duration": 0.3125,
          "durationTicks": 480,
          "midi": 49,
          "name": "C#3",
          "ticks": 98304,
          "time": 64,
          "velocity": 0.5039370078740157
        },
        {
          "duration": 0.375,
          "durationTicks": 576,
          "midi": 61,
          "name": "C#4",
          "ticks": 99072,
          "time": 64.5,
          "velocity": 0.31496062992125984
        },
        {
          "duration": 0.375,
          "durationTicks": 576,
          "midi": 68,
          "name": "G#4",
          "ticks": 99072,
          "time": 64.5,
          "velocity": 0.07874015748031496
        },
        {
          "duration": 0.375,
          "durationTicks": 576,
          "midi": 49,
          "name": "C#3",
          "ticks": 99072,
          "time": 64.5,
          "velocity": 0.5039370078740157
        },
        {
          "duration": 0.375,
          "durationTicks": 576,
          "midi": 57,
          "name": "A3",
          "ticks": 99072,
          "time": 64.5,
          "velocity": 0.23622047244094488
        },
        {
          "duration": 0.375,
          "durationTicks": 576,
          "midi": 64,
          "name": "E4",
          "ticks": 99072,
          "time": 64.5,
          "velocity": 0.31496062992125984
        },
        {
          "duration": 0.125,
          "durationTicks": 192,
          "midi": 68,
          "name": "G#4",
          "ticks": 99648,
          "time": 64.875,
          "velocity": 0.07874015748031496
        },
        {
          "duration": 0.125,
          "durationTicks": 192,
          "midi": 64,
          "name": "E4",
          "ticks": 99648,
          "time": 64.875,
          "velocity": 0.31496062992125984
        },
        {
          "duration": 0.125,
          "durationTicks": 192,
          "midi": 49,
          "name": "C#3",
          "ticks": 99648,
          "time": 64.875,
          "velocity": 0.31496062992125984
        },
        {
          "duration": 0.125,
          "durationTicks": 192,
          "midi": 52,
          "name": "E3",
          "ticks": 99648,
          "time": 64.875,
          "velocity": 0.31496062992125984
        },
        {
          "duration": 0.125,
          "durationTicks": 192,
          "midi": 57,
          "name": "A3",
          "ticks": 99648,
          "time": 64.875,
          "velocity": 0.4330708661417323
        },
        {
          "duration": 0.25,
          "durationTicks": 384,
          "midi": 68,
          "name": "G#4",
          "ticks": 100224,
          "time": 65.25,
          "velocity": 0.11811023622047244
        },
        {
          "duration": 0.25,
          "durationTicks": 384,
          "midi": 64,
          "name": "E4",
          "ticks": 100224,
          "time": 65.25,
          "velocity": 0.3464566929133858
        },
        {
          "duration": 0.25,
          "durationTicks": 384,
          "midi": 52,
          "name": "E3",
          "ticks": 100224,
          "time": 65.25,
          "velocity": 0.4330708661417323
        },
        {
          "duration": 0.25,
          "durationTicks": 384,
          "midi": 57,
          "name": "A3",
          "ticks": 100224,
          "time": 65.25,
          "velocity": 0.1968503937007874
        },
        {
          "duration": 0.25,
          "durationTicks": 384,
          "midi": 61,
          "name": "C#4",
          "ticks": 100224,
          "time": 65.25,
          "velocity": 0.31496062992125984
        },
        {
          "duration": 0.25,
          "durationTicks": 384,
          "midi": 49,
          "name": "C#3",
          "ticks": 100224,
          "time": 65.25,
          "velocity": 0.3937007874015748
        },
        {
          "duration": 0.125,
          "durationTicks": 192,
          "midi": 64,
          "name": "E4",
          "ticks": 100608,
          "time": 65.5,
          "velocity": 0.31496062992125984
        },
        {
          "duration": 0.125,
          "durationTicks": 192,
          "midi": 68,
          "name": "G#4",
          "ticks": 100608,
          "time": 65.5,
          "velocity": 0.07874015748031496
        },
        {
          "duration": 0.125,
          "durationTicks": 192,
          "midi": 52,
          "name": "E3",
          "ticks": 100608,
          "time": 65.5,
          "velocity": 0.3937007874015748
        },
        {
          "duration": 0.125,
          "durationTicks": 192,
          "midi": 49,
          "name": "C#3",
          "ticks": 100608,
          "time": 65.5,
          "velocity": 0.1968503937007874
        },
        {
          "duration": 0.125,
          "durationTicks": 192,
          "midi": 61,
          "name": "C#4",
          "ticks": 100608,
          "time": 65.5,
          "velocity": 0.2677165354330709
        },
        {
          "duration": 0.125,
          "durationTicks": 192,
          "midi": 57,
          "name": "A3",
          "ticks": 100608,
          "time": 65.5,
          "velocity": 0.15748031496062992
        },
        {
          "duration": 0.25,
          "durationTicks": 384,
          "midi": 68,
          "name": "G#4",
          "ticks": 100800,
          "time": 65.625,
          "velocity": 0.11811023622047244
        },
        {
          "duration": 0.25,
          "durationTicks": 384,
          "midi": 49,
          "name": "C#3",
          "ticks": 100800,
          "time": 65.625,
          "velocity": 0.3937007874015748
        },
        {
          "duration": 0.25,
          "durationTicks": 384,
          "midi": 57,
          "name": "A3",
          "ticks": 100800,
          "time": 65.625,
          "velocity": 0.1968503937007874
        },
        {
          "duration": 0.25,
          "durationTicks": 384,
          "midi": 52,
          "name": "E3",
          "ticks": 100800,
          "time": 65.625,
          "velocity": 0.4330708661417323
        },
        {
          "duration": 0.25,
          "durationTicks": 384,
          "midi": 64,
          "name": "E4",
          "ticks": 100800,
          "time": 65.625,
          "velocity": 0.3464566929133858
        },
        {
          "duration": 0.25,
          "durationTicks": 384,
          "midi": 61,
          "name": "C#4",
          "ticks": 100800,
          "time": 65.625,
          "velocity": 0.31496062992125984
        },
        {
          "duration": 0.125,
          "durationTicks": 192,
          "midi": 61,
          "name": "C#4",
          "ticks": 101184,
          "time": 65.875,
          "velocity": 0.2677165354330709
        },
        {
          "duration": 0.125,
          "durationTicks": 192,
          "midi": 68,
          "name": "G#4",
          "ticks": 101184,
          "time": 65.875,
          "velocity": 0.07874015748031496
        },
        {
          "duration": 0.125,
          "durationTicks": 192,
          "midi": 49,
          "name": "C#3",
          "ticks": 101184,
          "time": 65.875,
          "velocity": 0.2677165354330709
        },
        {
          "duration": 0.125,
          "durationTicks": 192,
          "midi": 64,
          "name": "E4",
          "ticks": 101184,
          "time": 65.875,
          "velocity": 0.31496062992125984
        },
        {
          "duration": 0.125,
          "durationTicks": 192,
          "midi": 52,
          "name": "E3",
          "ticks": 101184,
          "time": 65.875,
          "velocity": 0.3464566929133858
        },
        {
          "duration": 0.125,
          "durationTicks": 192,
          "midi": 57,
          "name": "A3",
          "ticks": 101184,
          "time": 65.875,
          "velocity": 0.15748031496062992
        },
        {
          "duration": 0.375,
          "durationTicks": 576,
          "midi": 59,
          "name": "B3",
          "ticks": 101376,
          "time": 66,
          "velocity": 0.3937007874015748
        },
        {
          "duration": 0.375,
          "durationTicks": 576,
          "midi": 71,
          "name": "B4",
          "ticks": 101376,
          "time": 66,
          "velocity": 0.23622047244094488
        },
        {
          "duration": 0.375,
          "durationTicks": 576,
          "midi": 62,
          "name": "D4",
          "ticks": 101376,
          "time": 66,
          "velocity": 0.3937007874015748
        },
        {
          "duration": 0.375,
          "durationTicks": 576,
          "midi": 66,
          "name": "F#4",
          "ticks": 101376,
          "time": 66,
          "velocity": 0.3937007874015748
        },
        {
          "duration": 0.375,
          "durationTicks": 576,
          "midi": 61,
          "name": "C#4",
          "ticks": 101376,
          "time": 66,
          "velocity": 0.23622047244094488
        },
        {
          "duration": 0.375,
          "durationTicks": 576,
          "midi": 59,
          "name": "B3",
          "ticks": 102144,
          "time": 66.5,
          "velocity": 0.3937007874015748
        },
        {
          "duration": 0.375,
          "durationTicks": 576,
          "midi": 71,
          "name": "B4",
          "ticks": 102144,
          "time": 66.5,
          "velocity": 0.23622047244094488
        },
        {
          "duration": 0.375,
          "durationTicks": 576,
          "midi": 66,
          "name": "F#4",
          "ticks": 102144,
          "time": 66.5,
          "velocity": 0.3937007874015748
        },
        {
          "duration": 0.375,
          "durationTicks": 576,
          "midi": 61,
          "name": "C#4",
          "ticks": 102144,
          "time": 66.5,
          "velocity": 0.23622047244094488
        },
        {
          "duration": 0.375,
          "durationTicks": 576,
          "midi": 62,
          "name": "D4",
          "ticks": 102144,
          "time": 66.5,
          "velocity": 0.3937007874015748
        },
        {
          "duration": 0.125,
          "durationTicks": 192,
          "midi": 66,
          "name": "F#4",
          "ticks": 102720,
          "time": 66.875,
          "velocity": 0.3937007874015748
        },
        {
          "duration": 0.125,
          "durationTicks": 192,
          "midi": 59,
          "name": "B3",
          "ticks": 102720,
          "time": 66.875,
          "velocity": 0.3937007874015748
        },
        {
          "duration": 0.125,
          "durationTicks": 192,
          "midi": 62,
          "name": "D4",
          "ticks": 102720,
          "time": 66.875,
          "velocity": 0.3937007874015748
        },
        {
          "duration": 0.125,
          "durationTicks": 192,
          "midi": 64,
          "name": "E4",
          "ticks": 102720,
          "time": 66.875,
          "velocity": 0.2677165354330709
        },
        {
          "duration": 0.125,
          "durationTicks": 192,
          "midi": 71,
          "name": "B4",
          "ticks": 102720,
          "time": 66.875,
          "velocity": 0.23622047244094488
        },
        {
          "duration": 0.25,
          "durationTicks": 384,
          "midi": 62,
          "name": "D4",
          "ticks": 103296,
          "time": 67.25,
          "velocity": 0.3937007874015748
        },
        {
          "duration": 0.25,
          "durationTicks": 384,
          "midi": 64,
          "name": "E4",
          "ticks": 103296,
          "time": 67.25,
          "velocity": 0.1968503937007874
        },
        {
          "duration": 0.25,
          "durationTicks": 384,
          "midi": 71,
          "name": "B4",
          "ticks": 103296,
          "time": 67.25,
          "velocity": 0.23622047244094488
        },
        {
          "duration": 0.25,
          "durationTicks": 384,
          "midi": 59,
          "name": "B3",
          "ticks": 103296,
          "time": 67.25,
          "velocity": 0.3937007874015748
        },
        {
          "duration": 0.25,
          "durationTicks": 384,
          "midi": 66,
          "name": "F#4",
          "ticks": 103296,
          "time": 67.25,
          "velocity": 0.3937007874015748
        },
        {
          "duration": 0.125,
          "durationTicks": 192,
          "midi": 71,
          "name": "B4",
          "ticks": 103680,
          "time": 67.5,
          "velocity": 0.03937007874015748
        },
        {
          "duration": 0.125,
          "durationTicks": 192,
          "midi": 66,
          "name": "F#4",
          "ticks": 103680,
          "time": 67.5,
          "velocity": 0.1968503937007874
        },
        {
          "duration": 0.125,
          "durationTicks": 192,
          "midi": 62,
          "name": "D4",
          "ticks": 103680,
          "time": 67.5,
          "velocity": 0.1968503937007874
        },
        {
          "duration": 0.125,
          "durationTicks": 192,
          "midi": 59,
          "name": "B3",
          "ticks": 103680,
          "time": 67.5,
          "velocity": 0.1968503937007874
        },
        {
          "duration": 0.25,
          "durationTicks": 384,
          "midi": 66,
          "name": "F#4",
          "ticks": 103872,
          "time": 67.625,
          "velocity": 0.3937007874015748
        },
        {
          "duration": 0,
          "durationTicks": 0,
          "midi": 64,
          "name": "E4",
          "ticks": 103872,
          "time": 67.625,
          "velocity": 0.1968503937007874
        },
        {
          "duration": 0.25,
          "durationTicks": 384,
          "midi": 62,
          "name": "D4",
          "ticks": 103872,
          "time": 67.625,
          "velocity": 0.3937007874015748
        },
        {
          "duration": 0.25,
          "durationTicks": 384,
          "midi": 71,
          "name": "B4",
          "ticks": 103872,
          "time": 67.625,
          "velocity": 0.23622047244094488
        },
        {
          "duration": 0.25,
          "durationTicks": 384,
          "midi": 59,
          "name": "B3",
          "ticks": 103872,
          "time": 67.625,
          "velocity": 0.3937007874015748
        },
        {
          "duration": 0.125,
          "durationTicks": 192,
          "midi": 62,
          "name": "D4",
          "ticks": 104256,
          "time": 67.875,
          "velocity": 0.2677165354330709
        },
        {
          "duration": 0.125,
          "durationTicks": 192,
          "midi": 71,
          "name": "B4",
          "ticks": 104256,
          "time": 67.875,
          "velocity": 0.11811023622047244
        },
        {
          "duration": 0,
          "durationTicks": 0,
          "midi": 64,
          "name": "E4",
          "ticks": 104256,
          "time": 67.875,
          "velocity": 0.07874015748031496
        },
        {
          "duration": 0.125,
          "durationTicks": 192,
          "midi": 59,
          "name": "B3",
          "ticks": 104256,
          "time": 67.875,
          "velocity": 0.2677165354330709
        },
        {
          "duration": 0.125,
          "durationTicks": 192,
          "midi": 66,
          "name": "F#4",
          "ticks": 104256,
          "time": 67.875,
          "velocity": 0.2677165354330709
        },
        {
          "duration": 0.375,
          "durationTicks": 576,
          "midi": 71,
          "name": "B4",
          "ticks": 104448,
          "time": 68,
          "velocity": 0.23622047244094488
        },
        {
          "duration": 0.375,
          "durationTicks": 576,
          "midi": 66,
          "name": "F#4",
          "ticks": 104448,
          "time": 68,
          "velocity": 0.3937007874015748
        },
        {
          "duration": 0.375,
          "durationTicks": 576,
          "midi": 62,
          "name": "D4",
          "ticks": 104448,
          "time": 68,
          "velocity": 0.1968503937007874
        },
        {
          "duration": 0.375,
          "durationTicks": 576,
          "midi": 61,
          "name": "C#4",
          "ticks": 104448,
          "time": 68,
          "velocity": 0.3937007874015748
        },
        {
          "duration": 0.375,
          "durationTicks": 576,
          "midi": 59,
          "name": "B3",
          "ticks": 104448,
          "time": 68,
          "velocity": 0.3937007874015748
        },
        {
          "duration": 0.375,
          "durationTicks": 576,
          "midi": 59,
          "name": "B3",
          "ticks": 105216,
          "time": 68.5,
          "velocity": 0.3937007874015748
        },
        {
          "duration": 0.375,
          "durationTicks": 576,
          "midi": 62,
          "name": "D4",
          "ticks": 105216,
          "time": 68.5,
          "velocity": 0.1968503937007874
        },
        {
          "duration": 0.375,
          "durationTicks": 576,
          "midi": 66,
          "name": "F#4",
          "ticks": 105216,
          "time": 68.5,
          "velocity": 0.3937007874015748
        },
        {
          "duration": 0.375,
          "durationTicks": 576,
          "midi": 71,
          "name": "B4",
          "ticks": 105216,
          "time": 68.5,
          "velocity": 0.23622047244094488
        },
        {
          "duration": 0.375,
          "durationTicks": 576,
          "midi": 61,
          "name": "C#4",
          "ticks": 105216,
          "time": 68.5,
          "velocity": 0.3937007874015748
        },
        {
          "duration": 0.125,
          "durationTicks": 192,
          "midi": 62,
          "name": "D4",
          "ticks": 105792,
          "time": 68.875,
          "velocity": 0.3937007874015748
        },
        {
          "duration": 0.125,
          "durationTicks": 192,
          "midi": 66,
          "name": "F#4",
          "ticks": 105792,
          "time": 68.875,
          "velocity": 0.3937007874015748
        },
        {
          "duration": 0.125,
          "durationTicks": 192,
          "midi": 71,
          "name": "B4",
          "ticks": 105792,
          "time": 68.875,
          "velocity": 0.23622047244094488
        },
        {
          "duration": 0.125,
          "durationTicks": 192,
          "midi": 59,
          "name": "B3",
          "ticks": 105792,
          "time": 68.875,
          "velocity": 0.3937007874015748
        },
        {
          "duration": 0.25,
          "durationTicks": 384,
          "midi": 59,
          "name": "B3",
          "ticks": 106368,
          "time": 69.25,
          "velocity": 0.3937007874015748
        },
        {
          "duration": 0.25,
          "durationTicks": 384,
          "midi": 62,
          "name": "D4",
          "ticks": 106368,
          "time": 69.25,
          "velocity": 0.3937007874015748
        },
        {
          "duration": 0.25,
          "durationTicks": 384,
          "midi": 66,
          "name": "F#4",
          "ticks": 106368,
          "time": 69.25,
          "velocity": 0.3937007874015748
        },
        {
          "duration": 0.25,
          "durationTicks": 384,
          "midi": 71,
          "name": "B4",
          "ticks": 106368,
          "time": 69.25,
          "velocity": 0.23622047244094488
        },
        {
          "duration": 0.125,
          "durationTicks": 192,
          "midi": 59,
          "name": "B3",
          "ticks": 106752,
          "time": 69.5,
          "velocity": 0.1968503937007874
        },
        {
          "duration": 0.125,
          "durationTicks": 192,
          "midi": 66,
          "name": "F#4",
          "ticks": 106752,
          "time": 69.5,
          "velocity": 0.1968503937007874
        },
        {
          "duration": 0.125,
          "durationTicks": 192,
          "midi": 71,
          "name": "B4",
          "ticks": 106752,
          "time": 69.5,
          "velocity": 0.03937007874015748
        },
        {
          "duration": 0.125,
          "durationTicks": 192,
          "midi": 62,
          "name": "D4",
          "ticks": 106752,
          "time": 69.5,
          "velocity": 0.1968503937007874
        },
        {
          "duration": 0.25,
          "durationTicks": 384,
          "midi": 59,
          "name": "B3",
          "ticks": 106944,
          "time": 69.625,
          "velocity": 0.3937007874015748
        },
        {
          "duration": 0.25,
          "durationTicks": 384,
          "midi": 62,
          "name": "D4",
          "ticks": 106944,
          "time": 69.625,
          "velocity": 0.3937007874015748
        },
        {
          "duration": 0.25,
          "durationTicks": 384,
          "midi": 71,
          "name": "B4",
          "ticks": 106944,
          "time": 69.625,
          "velocity": 0.23622047244094488
        },
        {
          "duration": 0.25,
          "durationTicks": 384,
          "midi": 66,
          "name": "F#4",
          "ticks": 106944,
          "time": 69.625,
          "velocity": 0.3937007874015748
        },
        {
          "duration": 0.125,
          "durationTicks": 192,
          "midi": 62,
          "name": "D4",
          "ticks": 107328,
          "time": 69.875,
          "velocity": 0.2677165354330709
        },
        {
          "duration": 0.125,
          "durationTicks": 192,
          "midi": 66,
          "name": "F#4",
          "ticks": 107328,
          "time": 69.875,
          "velocity": 0.2677165354330709
        },
        {
          "duration": 0.125,
          "durationTicks": 192,
          "midi": 71,
          "name": "B4",
          "ticks": 107328,
          "time": 69.875,
          "velocity": 0.11811023622047244
        },
        {
          "duration": 0.125,
          "durationTicks": 192,
          "midi": 59,
          "name": "B3",
          "ticks": 107328,
          "time": 69.875,
          "velocity": 0.2677165354330709
        },
        {
          "duration": 0.375,
          "durationTicks": 576,
          "midi": 62,
          "name": "D4",
          "ticks": 107520,
          "time": 70,
          "velocity": 0.3937007874015748
        },
        {
          "duration": 0.375,
          "durationTicks": 576,
          "midi": 59,
          "name": "B3",
          "ticks": 107520,
          "time": 70,
          "velocity": 0.3937007874015748
        },
        {
          "duration": 0.375,
          "durationTicks": 576,
          "midi": 61,
          "name": "C#4",
          "ticks": 107520,
          "time": 70,
          "velocity": 0.07874015748031496
        },
        {
          "duration": 0.375,
          "durationTicks": 576,
          "midi": 71,
          "name": "B4",
          "ticks": 107520,
          "time": 70,
          "velocity": 0.23622047244094488
        },
        {
          "duration": 0.375,
          "durationTicks": 576,
          "midi": 66,
          "name": "F#4",
          "ticks": 107520,
          "time": 70,
          "velocity": 0.3937007874015748
        },
        {
          "duration": 0.375,
          "durationTicks": 576,
          "midi": 59,
          "name": "B3",
          "ticks": 108288,
          "time": 70.5,
          "velocity": 0.3937007874015748
        },
        {
          "duration": 0.375,
          "durationTicks": 576,
          "midi": 66,
          "name": "F#4",
          "ticks": 108288,
          "time": 70.5,
          "velocity": 0.3937007874015748
        },
        {
          "duration": 0.375,
          "durationTicks": 576,
          "midi": 71,
          "name": "B4",
          "ticks": 108288,
          "time": 70.5,
          "velocity": 0.23622047244094488
        },
        {
          "duration": 0.375,
          "durationTicks": 576,
          "midi": 61,
          "name": "C#4",
          "ticks": 108288,
          "time": 70.5,
          "velocity": 0.11811023622047244
        },
        {
          "duration": 0.375,
          "durationTicks": 576,
          "midi": 62,
          "name": "D4",
          "ticks": 108288,
          "time": 70.5,
          "velocity": 0.31496062992125984
        },
        {
          "duration": 0.125,
          "durationTicks": 192,
          "midi": 64,
          "name": "E4",
          "ticks": 108864,
          "time": 70.875,
          "velocity": 0.3937007874015748
        },
        {
          "duration": 0.125,
          "durationTicks": 192,
          "midi": 62,
          "name": "D4",
          "ticks": 108864,
          "time": 70.875,
          "velocity": 0.1968503937007874
        },
        {
          "duration": 0.125,
          "durationTicks": 192,
          "midi": 71,
          "name": "B4",
          "ticks": 108864,
          "time": 70.875,
          "velocity": 0.23622047244094488
        },
        {
          "duration": 0.125,
          "durationTicks": 192,
          "midi": 59,
          "name": "B3",
          "ticks": 108864,
          "time": 70.875,
          "velocity": 0.3937007874015748
        },
        {
          "duration": 0.25,
          "durationTicks": 384,
          "midi": 64,
          "name": "E4",
          "ticks": 109440,
          "time": 71.25,
          "velocity": 0.3937007874015748
        },
        {
          "duration": 0.25,
          "durationTicks": 384,
          "midi": 59,
          "name": "B3",
          "ticks": 109440,
          "time": 71.25,
          "velocity": 0.3937007874015748
        },
        {
          "duration": 0.25,
          "durationTicks": 384,
          "midi": 62,
          "name": "D4",
          "ticks": 109440,
          "time": 71.25,
          "velocity": 0.23622047244094488
        },
        {
          "duration": 0.25,
          "durationTicks": 384,
          "midi": 71,
          "name": "B4",
          "ticks": 109440,
          "time": 71.25,
          "velocity": 0.23622047244094488
        },
        {
          "duration": 0.125,
          "durationTicks": 192,
          "midi": 71,
          "name": "B4",
          "ticks": 109824,
          "time": 71.5,
          "velocity": 0.03937007874015748
        },
        {
          "duration": 0.125,
          "durationTicks": 192,
          "midi": 64,
          "name": "E4",
          "ticks": 109824,
          "time": 71.5,
          "velocity": 0.1968503937007874
        },
        {
          "duration": 0.125,
          "durationTicks": 192,
          "midi": 59,
          "name": "B3",
          "ticks": 109824,
          "time": 71.5,
          "velocity": 0.1968503937007874
        },
        {
          "duration": 0.125,
          "durationTicks": 192,
          "midi": 62,
          "name": "D4",
          "ticks": 109824,
          "time": 71.5,
          "velocity": 0.07874015748031496
        },
        {
          "duration": 0.25,
          "durationTicks": 384,
          "midi": 71,
          "name": "B4",
          "ticks": 110016,
          "time": 71.625,
          "velocity": 0.23622047244094488
        },
        {
          "duration": 0.25,
          "durationTicks": 384,
          "midi": 59,
          "name": "B3",
          "ticks": 110016,
          "time": 71.625,
          "velocity": 0.3937007874015748
        },
        {
          "duration": 0.25,
          "durationTicks": 384,
          "midi": 62,
          "name": "D4",
          "ticks": 110016,
          "time": 71.625,
          "velocity": 0.23622047244094488
        },
        {
          "duration": 0.25,
          "durationTicks": 384,
          "midi": 64,
          "name": "E4",
          "ticks": 110016,
          "time": 71.625,
          "velocity": 0.3937007874015748
        },
        {
          "duration": 0.125,
          "durationTicks": 192,
          "midi": 71,
          "name": "B4",
          "ticks": 110400,
          "time": 71.875,
          "velocity": 0.11811023622047244
        },
        {
          "duration": 0.125,
          "durationTicks": 192,
          "midi": 62,
          "name": "D4",
          "ticks": 110400,
          "time": 71.875,
          "velocity": 0.15748031496062992
        },
        {
          "duration": 0.125,
          "durationTicks": 192,
          "midi": 59,
          "name": "B3",
          "ticks": 110400,
          "time": 71.875,
          "velocity": 0.2677165354330709
        },
        {
          "duration": 0.125,
          "durationTicks": 192,
          "midi": 64,
          "name": "E4",
          "ticks": 110400,
          "time": 71.875,
          "velocity": 0.2677165354330709
        },
        {
          "duration": 0.3125,
          "durationTicks": 480,
          "midi": 61,
          "name": "C#4",
          "ticks": 110592,
          "time": 72,
          "velocity": 0.15748031496062992
        },
        {
          "duration": 0.3125,
          "durationTicks": 480,
          "midi": 62,
          "name": "D4",
          "ticks": 110592,
          "time": 72,
          "velocity": 0.3937007874015748
        },
        {
          "duration": 0.3125,
          "durationTicks": 480,
          "midi": 59,
          "name": "B3",
          "ticks": 110592,
          "time": 72,
          "velocity": 0.3937007874015748
        },
        {
          "duration": 0.3125,
          "durationTicks": 480,
          "midi": 71,
          "name": "B4",
          "ticks": 110592,
          "time": 72,
          "velocity": 0.23622047244094488
        },
        {
          "duration": 0.3125,
          "durationTicks": 480,
          "midi": 66,
          "name": "F#4",
          "ticks": 110592,
          "time": 72,
          "velocity": 0.3937007874015748
        },
        {
          "duration": 0.125,
          "durationTicks": 192,
          "midi": 59,
          "name": "B3",
          "ticks": 111168,
          "time": 72.375,
          "velocity": 0.23622047244094488
        },
        {
          "duration": 0.125,
          "durationTicks": 192,
          "midi": 71,
          "name": "B4",
          "ticks": 111168,
          "time": 72.375,
          "velocity": 0.07874015748031496
        },
        {
          "duration": 0.125,
          "durationTicks": 192,
          "midi": 62,
          "name": "D4",
          "ticks": 111168,
          "time": 72.375,
          "velocity": 0.23622047244094488
        },
        {
          "duration": 0.125,
          "durationTicks": 192,
          "midi": 61,
          "name": "C#4",
          "ticks": 111168,
          "time": 72.375,
          "velocity": 0.03937007874015748
        },
        {
          "duration": 0.125,
          "durationTicks": 192,
          "midi": 66,
          "name": "F#4",
          "ticks": 111168,
          "time": 72.375,
          "velocity": 0.23622047244094488
        },
        {
          "duration": 0.375,
          "durationTicks": 576,
          "midi": 66,
          "name": "F#4",
          "ticks": 111360,
          "time": 72.5,
          "velocity": 0.3937007874015748
        },
        {
          "duration": 0.375,
          "durationTicks": 576,
          "midi": 59,
          "name": "B3",
          "ticks": 111360,
          "time": 72.5,
          "velocity": 0.3937007874015748
        },
        {
          "duration": 0.375,
          "durationTicks": 576,
          "midi": 71,
          "name": "B4",
          "ticks": 111360,
          "time": 72.5,
          "velocity": 0.23622047244094488
        },
        {
          "duration": 0.375,
          "durationTicks": 576,
          "midi": 61,
          "name": "C#4",
          "ticks": 111360,
          "time": 72.5,
          "velocity": 0.1968503937007874
        },
        {
          "duration": 0.375,
          "durationTicks": 576,
          "midi": 62,
          "name": "D4",
          "ticks": 111360,
          "time": 72.5,
          "velocity": 0.31496062992125984
        },
        {
          "duration": 0.125,
          "durationTicks": 192,
          "midi": 62,
          "name": "D4",
          "ticks": 111936,
          "time": 72.875,
          "velocity": 0.1968503937007874
        },
        {
          "duration": 0.125,
          "durationTicks": 192,
          "midi": 71,
          "name": "B4",
          "ticks": 111936,
          "time": 72.875,
          "velocity": 0.23622047244094488
        },
        {
          "duration": 0.125,
          "durationTicks": 192,
          "midi": 59,
          "name": "B3",
          "ticks": 111936,
          "time": 72.875,
          "velocity": 0.3937007874015748
        },
        {
          "duration": 0.125,
          "durationTicks": 192,
          "midi": 64,
          "name": "E4",
          "ticks": 111936,
          "time": 72.875,
          "velocity": 0.3937007874015748
        },
        {
          "duration": 0.25,
          "durationTicks": 384,
          "midi": 71,
          "name": "B4",
          "ticks": 112512,
          "time": 73.25,
          "velocity": 0.23622047244094488
        },
        {
          "duration": 0.25,
          "durationTicks": 384,
          "midi": 62,
          "name": "D4",
          "ticks": 112512,
          "time": 73.25,
          "velocity": 0.23622047244094488
        },
        {
          "duration": 0.25,
          "durationTicks": 384,
          "midi": 59,
          "name": "B3",
          "ticks": 112512,
          "time": 73.25,
          "velocity": 0.3937007874015748
        },
        {
          "duration": 0.25,
          "durationTicks": 384,
          "midi": 64,
          "name": "E4",
          "ticks": 112512,
          "time": 73.25,
          "velocity": 0.3937007874015748
        },
        {
          "duration": 0.125,
          "durationTicks": 192,
          "midi": 71,
          "name": "B4",
          "ticks": 112896,
          "time": 73.5,
          "velocity": 0.03937007874015748
        },
        {
          "duration": 0.125,
          "durationTicks": 192,
          "midi": 64,
          "name": "E4",
          "ticks": 112896,
          "time": 73.5,
          "velocity": 0.1968503937007874
        },
        {
          "duration": 0.125,
          "durationTicks": 192,
          "midi": 59,
          "name": "B3",
          "ticks": 112896,
          "time": 73.5,
          "velocity": 0.1968503937007874
        },
        {
          "duration": 0.125,
          "durationTicks": 192,
          "midi": 62,
          "name": "D4",
          "ticks": 112896,
          "time": 73.5,
          "velocity": 0.07874015748031496
        },
        {
          "duration": 0.25,
          "durationTicks": 384,
          "midi": 64,
          "name": "E4",
          "ticks": 113088,
          "time": 73.625,
          "velocity": 0.3937007874015748
        },
        {
          "duration": 0.25,
          "durationTicks": 384,
          "midi": 59,
          "name": "B3",
          "ticks": 113088,
          "time": 73.625,
          "velocity": 0.3937007874015748
        },
        {
          "duration": 0.25,
          "durationTicks": 384,
          "midi": 62,
          "name": "D4",
          "ticks": 113088,
          "time": 73.625,
          "velocity": 0.23622047244094488
        },
        {
          "duration": 0.25,
          "durationTicks": 384,
          "midi": 71,
          "name": "B4",
          "ticks": 113088,
          "time": 73.625,
          "velocity": 0.23622047244094488
        },
        {
          "duration": 0.125,
          "durationTicks": 192,
          "midi": 64,
          "name": "E4",
          "ticks": 113472,
          "time": 73.875,
          "velocity": 0.2677165354330709
        },
        {
          "duration": 0.125,
          "durationTicks": 192,
          "midi": 71,
          "name": "B4",
          "ticks": 113472,
          "time": 73.875,
          "velocity": 0.11811023622047244
        },
        {
          "duration": 0.125,
          "durationTicks": 192,
          "midi": 59,
          "name": "B3",
          "ticks": 113472,
          "time": 73.875,
          "velocity": 0.2677165354330709
        },
        {
          "duration": 0.125,
          "durationTicks": 192,
          "midi": 62,
          "name": "D4",
          "ticks": 113472,
          "time": 73.875,
          "velocity": 0.15748031496062992
        },
        {
          "duration": 0.375,
          "durationTicks": 576,
          "midi": 59,
          "name": "B3",
          "ticks": 113664,
          "time": 74,
          "velocity": 0.3937007874015748
        },
        {
          "duration": 0.375,
          "durationTicks": 576,
          "midi": 71,
          "name": "B4",
          "ticks": 113664,
          "time": 74,
          "velocity": 0.23622047244094488
        },
        {
          "duration": 0.375,
          "durationTicks": 576,
          "midi": 61,
          "name": "C#4",
          "ticks": 113664,
          "time": 74,
          "velocity": 0.23622047244094488
        },
        {
          "duration": 0.375,
          "durationTicks": 576,
          "midi": 62,
          "name": "D4",
          "ticks": 113664,
          "time": 74,
          "velocity": 0.3937007874015748
        },
        {
          "duration": 0.375,
          "durationTicks": 576,
          "midi": 66,
          "name": "F#4",
          "ticks": 113664,
          "time": 74,
          "velocity": 0.3937007874015748
        },
        {
          "duration": 0.375,
          "durationTicks": 576,
          "midi": 71,
          "name": "B4",
          "ticks": 114432,
          "time": 74.5,
          "velocity": 0.23622047244094488
        },
        {
          "duration": 0.375,
          "durationTicks": 576,
          "midi": 62,
          "name": "D4",
          "ticks": 114432,
          "time": 74.5,
          "velocity": 0.3937007874015748
        },
        {
          "duration": 0.375,
          "durationTicks": 576,
          "midi": 61,
          "name": "C#4",
          "ticks": 114432,
          "time": 74.5,
          "velocity": 0.23622047244094488
        },
        {
          "duration": 0.375,
          "durationTicks": 576,
          "midi": 66,
          "name": "F#4",
          "ticks": 114432,
          "time": 74.5,
          "velocity": 0.3937007874015748
        },
        {
          "duration": 0.375,
          "durationTicks": 576,
          "midi": 59,
          "name": "B3",
          "ticks": 114432,
          "time": 74.5,
          "velocity": 0.3937007874015748
        },
        {
          "duration": 0.125,
          "durationTicks": 192,
          "midi": 66,
          "name": "F#4",
          "ticks": 115008,
          "time": 74.875,
          "velocity": 0.3937007874015748
        },
        {
          "duration": 0.125,
          "durationTicks": 192,
          "midi": 59,
          "name": "B3",
          "ticks": 115008,
          "time": 74.875,
          "velocity": 0.3937007874015748
        },
        {
          "duration": 0.125,
          "durationTicks": 192,
          "midi": 64,
          "name": "E4",
          "ticks": 115008,
          "time": 74.875,
          "velocity": 0.2677165354330709
        },
        {
          "duration": 0.125,
          "durationTicks": 192,
          "midi": 71,
          "name": "B4",
          "ticks": 115008,
          "time": 74.875,
          "velocity": 0.23622047244094488
        },
        {
          "duration": 0.125,
          "durationTicks": 192,
          "midi": 62,
          "name": "D4",
          "ticks": 115008,
          "time": 74.875,
          "velocity": 0.3937007874015748
        },
        {
          "duration": 0.25,
          "durationTicks": 384,
          "midi": 64,
          "name": "E4",
          "ticks": 115584,
          "time": 75.25,
          "velocity": 0.1968503937007874
        },
        {
          "duration": 0.25,
          "durationTicks": 384,
          "midi": 71,
          "name": "B4",
          "ticks": 115584,
          "time": 75.25,
          "velocity": 0.23622047244094488
        },
        {
          "duration": 0.25,
          "durationTicks": 384,
          "midi": 66,
          "name": "F#4",
          "ticks": 115584,
          "time": 75.25,
          "velocity": 0.3937007874015748
        },
        {
          "duration": 0.25,
          "durationTicks": 384,
          "midi": 62,
          "name": "D4",
          "ticks": 115584,
          "time": 75.25,
          "velocity": 0.3937007874015748
        },
        {
          "duration": 0.25,
          "durationTicks": 384,
          "midi": 59,
          "name": "B3",
          "ticks": 115584,
          "time": 75.25,
          "velocity": 0.3937007874015748
        },
        {
          "duration": 0.125,
          "durationTicks": 192,
          "midi": 59,
          "name": "B3",
          "ticks": 115968,
          "time": 75.5,
          "velocity": 0.1968503937007874
        },
        {
          "duration": 0.125,
          "durationTicks": 192,
          "midi": 66,
          "name": "F#4",
          "ticks": 115968,
          "time": 75.5,
          "velocity": 0.1968503937007874
        },
        {
          "duration": 0.125,
          "durationTicks": 192,
          "midi": 71,
          "name": "B4",
          "ticks": 115968,
          "time": 75.5,
          "velocity": 0.03937007874015748
        },
        {
          "duration": 0.125,
          "durationTicks": 192,
          "midi": 62,
          "name": "D4",
          "ticks": 115968,
          "time": 75.5,
          "velocity": 0.1968503937007874
        },
        {
          "duration": 0.25,
          "durationTicks": 384,
          "midi": 62,
          "name": "D4",
          "ticks": 116160,
          "time": 75.625,
          "velocity": 0.3937007874015748
        },
        {
          "duration": 0.25,
          "durationTicks": 384,
          "midi": 71,
          "name": "B4",
          "ticks": 116160,
          "time": 75.625,
          "velocity": 0.23622047244094488
        },
        {
          "duration": 0.25,
          "durationTicks": 384,
          "midi": 66,
          "name": "F#4",
          "ticks": 116160,
          "time": 75.625,
          "velocity": 0.3937007874015748
        },
        {
          "duration": 0.25,
          "durationTicks": 384,
          "midi": 59,
          "name": "B3",
          "ticks": 116160,
          "time": 75.625,
          "velocity": 0.3937007874015748
        },
        {
          "duration": 0,
          "durationTicks": 0,
          "midi": 64,
          "name": "E4",
          "ticks": 116160,
          "time": 75.625,
          "velocity": 0.1968503937007874
        },
        {
          "duration": 0.125,
          "durationTicks": 192,
          "midi": 66,
          "name": "F#4",
          "ticks": 116544,
          "time": 75.875,
          "velocity": 0.2677165354330709
        },
        {
          "duration": 0,
          "durationTicks": 0,
          "midi": 64,
          "name": "E4",
          "ticks": 116544,
          "time": 75.875,
          "velocity": 0.07874015748031496
        },
        {
          "duration": 0.125,
          "durationTicks": 192,
          "midi": 62,
          "name": "D4",
          "ticks": 116544,
          "time": 75.875,
          "velocity": 0.2677165354330709
        },
        {
          "duration": 0.125,
          "durationTicks": 192,
          "midi": 71,
          "name": "B4",
          "ticks": 116544,
          "time": 75.875,
          "velocity": 0.11811023622047244
        },
        {
          "duration": 0.125,
          "durationTicks": 192,
          "midi": 59,
          "name": "B3",
          "ticks": 116544,
          "time": 75.875,
          "velocity": 0.2677165354330709
        },
        {
          "duration": 0.375,
          "durationTicks": 576,
          "midi": 71,
          "name": "B4",
          "ticks": 116736,
          "time": 76,
          "velocity": 0.23622047244094488
        },
        {
          "duration": 0.375,
          "durationTicks": 576,
          "midi": 59,
          "name": "B3",
          "ticks": 116736,
          "time": 76,
          "velocity": 0.3937007874015748
        },
        {
          "duration": 0.375,
          "durationTicks": 576,
          "midi": 66,
          "name": "F#4",
          "ticks": 116736,
          "time": 76,
          "velocity": 0.3937007874015748
        },
        {
          "duration": 0.375,
          "durationTicks": 576,
          "midi": 62,
          "name": "D4",
          "ticks": 116736,
          "time": 76,
          "velocity": 0.1968503937007874
        },
        {
          "duration": 0.375,
          "durationTicks": 576,
          "midi": 61,
          "name": "C#4",
          "ticks": 116736,
          "time": 76,
          "velocity": 0.3937007874015748
        },
        {
          "duration": 0.375,
          "durationTicks": 576,
          "midi": 71,
          "name": "B4",
          "ticks": 117504,
          "time": 76.5,
          "velocity": 0.23622047244094488
        },
        {
          "duration": 0.375,
          "durationTicks": 576,
          "midi": 61,
          "name": "C#4",
          "ticks": 117504,
          "time": 76.5,
          "velocity": 0.3937007874015748
        },
        {
          "duration": 0.375,
          "durationTicks": 576,
          "midi": 59,
          "name": "B3",
          "ticks": 117504,
          "time": 76.5,
          "velocity": 0.3937007874015748
        },
        {
          "duration": 0.375,
          "durationTicks": 576,
          "midi": 62,
          "name": "D4",
          "ticks": 117504,
          "time": 76.5,
          "velocity": 0.1968503937007874
        },
        {
          "duration": 0.375,
          "durationTicks": 576,
          "midi": 66,
          "name": "F#4",
          "ticks": 117504,
          "time": 76.5,
          "velocity": 0.3937007874015748
        },
        {
          "duration": 0.125,
          "durationTicks": 192,
          "midi": 71,
          "name": "B4",
          "ticks": 118080,
          "time": 76.875,
          "velocity": 0.23622047244094488
        },
        {
          "duration": 0.125,
          "durationTicks": 192,
          "midi": 62,
          "name": "D4",
          "ticks": 118080,
          "time": 76.875,
          "velocity": 0.3937007874015748
        },
        {
          "duration": 0.125,
          "durationTicks": 192,
          "midi": 59,
          "name": "B3",
          "ticks": 118080,
          "time": 76.875,
          "velocity": 0.3937007874015748
        },
        {
          "duration": 0.125,
          "durationTicks": 192,
          "midi": 66,
          "name": "F#4",
          "ticks": 118080,
          "time": 76.875,
          "velocity": 0.3937007874015748
        },
        {
          "duration": 0.25,
          "durationTicks": 384,
          "midi": 59,
          "name": "B3",
          "ticks": 118656,
          "time": 77.25,
          "velocity": 0.3937007874015748
        },
        {
          "duration": 0.25,
          "durationTicks": 384,
          "midi": 62,
          "name": "D4",
          "ticks": 118656,
          "time": 77.25,
          "velocity": 0.3937007874015748
        },
        {
          "duration": 0.25,
          "durationTicks": 384,
          "midi": 71,
          "name": "B4",
          "ticks": 118656,
          "time": 77.25,
          "velocity": 0.23622047244094488
        },
        {
          "duration": 0.25,
          "durationTicks": 384,
          "midi": 66,
          "name": "F#4",
          "ticks": 118656,
          "time": 77.25,
          "velocity": 0.3937007874015748
        },
        {
          "duration": 0.125,
          "durationTicks": 192,
          "midi": 59,
          "name": "B3",
          "ticks": 119040,
          "time": 77.5,
          "velocity": 0.1968503937007874
        },
        {
          "duration": 0.125,
          "durationTicks": 192,
          "midi": 66,
          "name": "F#4",
          "ticks": 119040,
          "time": 77.5,
          "velocity": 0.1968503937007874
        },
        {
          "duration": 0.125,
          "durationTicks": 192,
          "midi": 71,
          "name": "B4",
          "ticks": 119040,
          "time": 77.5,
          "velocity": 0.03937007874015748
        },
        {
          "duration": 0.125,
          "durationTicks": 192,
          "midi": 62,
          "name": "D4",
          "ticks": 119040,
          "time": 77.5,
          "velocity": 0.1968503937007874
        },
        {
          "duration": 0.25,
          "durationTicks": 384,
          "midi": 66,
          "name": "F#4",
          "ticks": 119232,
          "time": 77.625,
          "velocity": 0.3937007874015748
        },
        {
          "duration": 0.25,
          "durationTicks": 384,
          "midi": 62,
          "name": "D4",
          "ticks": 119232,
          "time": 77.625,
          "velocity": 0.3937007874015748
        },
        {
          "duration": 0.25,
          "durationTicks": 384,
          "midi": 71,
          "name": "B4",
          "ticks": 119232,
          "time": 77.625,
          "velocity": 0.23622047244094488
        },
        {
          "duration": 0.25,
          "durationTicks": 384,
          "midi": 59,
          "name": "B3",
          "ticks": 119232,
          "time": 77.625,
          "velocity": 0.3937007874015748
        },
        {
          "duration": 0.125,
          "durationTicks": 192,
          "midi": 71,
          "name": "B4",
          "ticks": 119616,
          "time": 77.875,
          "velocity": 0.11811023622047244
        },
        {
          "duration": 0.125,
          "durationTicks": 192,
          "midi": 62,
          "name": "D4",
          "ticks": 119616,
          "time": 77.875,
          "velocity": 0.2677165354330709
        },
        {
          "duration": 0.125,
          "durationTicks": 192,
          "midi": 66,
          "name": "F#4",
          "ticks": 119616,
          "time": 77.875,
          "velocity": 0.2677165354330709
        },
        {
          "duration": 0.125,
          "durationTicks": 192,
          "midi": 59,
          "name": "B3",
          "ticks": 119616,
          "time": 77.875,
          "velocity": 0.2677165354330709
        },
        {
          "duration": 0.375,
          "durationTicks": 576,
          "midi": 66,
          "name": "F#4",
          "ticks": 119808,
          "time": 78,
          "velocity": 0.3937007874015748
        },
        {
          "duration": 0.375,
          "durationTicks": 576,
          "midi": 59,
          "name": "B3",
          "ticks": 119808,
          "time": 78,
          "velocity": 0.3937007874015748
        },
        {
          "duration": 0.375,
          "durationTicks": 576,
          "midi": 61,
          "name": "C#4",
          "ticks": 119808,
          "time": 78,
          "velocity": 0.07874015748031496
        },
        {
          "duration": 0.375,
          "durationTicks": 576,
          "midi": 62,
          "name": "D4",
          "ticks": 119808,
          "time": 78,
          "velocity": 0.3937007874015748
        },
        {
          "duration": 0.375,
          "durationTicks": 576,
          "midi": 71,
          "name": "B4",
          "ticks": 119808,
          "time": 78,
          "velocity": 0.23622047244094488
        },
        {
          "duration": 0.375,
          "durationTicks": 576,
          "midi": 62,
          "name": "D4",
          "ticks": 120576,
          "time": 78.5,
          "velocity": 0.31496062992125984
        },
        {
          "duration": 0.375,
          "durationTicks": 576,
          "midi": 71,
          "name": "B4",
          "ticks": 120576,
          "time": 78.5,
          "velocity": 0.23622047244094488
        },
        {
          "duration": 0.375,
          "durationTicks": 576,
          "midi": 59,
          "name": "B3",
          "ticks": 120576,
          "time": 78.5,
          "velocity": 0.3937007874015748
        },
        {
          "duration": 0.375,
          "durationTicks": 576,
          "midi": 66,
          "name": "F#4",
          "ticks": 120576,
          "time": 78.5,
          "velocity": 0.3937007874015748
        },
        {
          "duration": 0.375,
          "durationTicks": 576,
          "midi": 61,
          "name": "C#4",
          "ticks": 120576,
          "time": 78.5,
          "velocity": 0.11811023622047244
        },
        {
          "duration": 0.125,
          "durationTicks": 192,
          "midi": 64,
          "name": "E4",
          "ticks": 121152,
          "time": 78.875,
          "velocity": 0.3937007874015748
        },
        {
          "duration": 0.125,
          "durationTicks": 192,
          "midi": 71,
          "name": "B4",
          "ticks": 121152,
          "time": 78.875,
          "velocity": 0.23622047244094488
        },
        {
          "duration": 0.125,
          "durationTicks": 192,
          "midi": 59,
          "name": "B3",
          "ticks": 121152,
          "time": 78.875,
          "velocity": 0.3937007874015748
        },
        {
          "duration": 0.125,
          "durationTicks": 192,
          "midi": 62,
          "name": "D4",
          "ticks": 121152,
          "time": 78.875,
          "velocity": 0.1968503937007874
        },
        {
          "duration": 0.25,
          "durationTicks": 384,
          "midi": 62,
          "name": "D4",
          "ticks": 121728,
          "time": 79.25,
          "velocity": 0.23622047244094488
        },
        {
          "duration": 0.25,
          "durationTicks": 384,
          "midi": 64,
          "name": "E4",
          "ticks": 121728,
          "time": 79.25,
          "velocity": 0.3937007874015748
        },
        {
          "duration": 0.25,
          "durationTicks": 384,
          "midi": 59,
          "name": "B3",
          "ticks": 121728,
          "time": 79.25,
          "velocity": 0.3937007874015748
        },
        {
          "duration": 0.25,
          "durationTicks": 384,
          "midi": 71,
          "name": "B4",
          "ticks": 121728,
          "time": 79.25,
          "velocity": 0.23622047244094488
        },
        {
          "duration": 0.125,
          "durationTicks": 192,
          "midi": 71,
          "name": "B4",
          "ticks": 122112,
          "time": 79.5,
          "velocity": 0.03937007874015748
        },
        {
          "duration": 0.125,
          "durationTicks": 192,
          "midi": 59,
          "name": "B3",
          "ticks": 122112,
          "time": 79.5,
          "velocity": 0.1968503937007874
        },
        {
          "duration": 0.125,
          "durationTicks": 192,
          "midi": 62,
          "name": "D4",
          "ticks": 122112,
          "time": 79.5,
          "velocity": 0.07874015748031496
        },
        {
          "duration": 0.125,
          "durationTicks": 192,
          "midi": 64,
          "name": "E4",
          "ticks": 122112,
          "time": 79.5,
          "velocity": 0.1968503937007874
        },
        {
          "duration": 0.25,
          "durationTicks": 384,
          "midi": 71,
          "name": "B4",
          "ticks": 122304,
          "time": 79.625,
          "velocity": 0.23622047244094488
        },
        {
          "duration": 0.25,
          "durationTicks": 384,
          "midi": 62,
          "name": "D4",
          "ticks": 122304,
          "time": 79.625,
          "velocity": 0.23622047244094488
        },
        {
          "duration": 0.25,
          "durationTicks": 384,
          "midi": 59,
          "name": "B3",
          "ticks": 122304,
          "time": 79.625,
          "velocity": 0.3937007874015748
        },
        {
          "duration": 0.25,
          "durationTicks": 384,
          "midi": 64,
          "name": "E4",
          "ticks": 122304,
          "time": 79.625,
          "velocity": 0.3937007874015748
        },
        {
          "duration": 0.125,
          "durationTicks": 192,
          "midi": 59,
          "name": "B3",
          "ticks": 122688,
          "time": 79.875,
          "velocity": 0.2677165354330709
        },
        {
          "duration": 0.125,
          "durationTicks": 192,
          "midi": 64,
          "name": "E4",
          "ticks": 122688,
          "time": 79.875,
          "velocity": 0.2677165354330709
        },
        {
          "duration": 0.125,
          "durationTicks": 192,
          "midi": 71,
          "name": "B4",
          "ticks": 122688,
          "time": 79.875,
          "velocity": 0.11811023622047244
        },
        {
          "duration": 0.125,
          "durationTicks": 192,
          "midi": 62,
          "name": "D4",
          "ticks": 122688,
          "time": 79.875,
          "velocity": 0.15748031496062992
        },
        {
          "duration": 0.3125,
          "durationTicks": 480,
          "midi": 61,
          "name": "C#4",
          "ticks": 122880,
          "time": 80,
          "velocity": 0.15748031496062992
        },
        {
          "duration": 0.3125,
          "durationTicks": 480,
          "midi": 71,
          "name": "B4",
          "ticks": 122880,
          "time": 80,
          "velocity": 0.23622047244094488
        },
        {
          "duration": 0.3125,
          "durationTicks": 480,
          "midi": 62,
          "name": "D4",
          "ticks": 122880,
          "time": 80,
          "velocity": 0.3937007874015748
        },
        {
          "duration": 0.3125,
          "durationTicks": 480,
          "midi": 66,
          "name": "F#4",
          "ticks": 122880,
          "time": 80,
          "velocity": 0.3937007874015748
        },
        {
          "duration": 0.3125,
          "durationTicks": 480,
          "midi": 59,
          "name": "B3",
          "ticks": 122880,
          "time": 80,
          "velocity": 0.3937007874015748
        },
        {
          "duration": 0.125,
          "durationTicks": 192,
          "midi": 61,
          "name": "C#4",
          "ticks": 123456,
          "time": 80.375,
          "velocity": 0.03937007874015748
        },
        {
          "duration": 0.125,
          "durationTicks": 192,
          "midi": 59,
          "name": "B3",
          "ticks": 123456,
          "time": 80.375,
          "velocity": 0.23622047244094488
        },
        {
          "duration": 0.125,
          "durationTicks": 192,
          "midi": 66,
          "name": "F#4",
          "ticks": 123456,
          "time": 80.375,
          "velocity": 0.23622047244094488
        },
        {
          "duration": 0.125,
          "durationTicks": 192,
          "midi": 62,
          "name": "D4",
          "ticks": 123456,
          "time": 80.375,
          "velocity": 0.23622047244094488
        },
        {
          "duration": 0.125,
          "durationTicks": 192,
          "midi": 71,
          "name": "B4",
          "ticks": 123456,
          "time": 80.375,
          "velocity": 0.07874015748031496
        },
        {
          "duration": 0.375,
          "durationTicks": 576,
          "midi": 71,
          "name": "B4",
          "ticks": 123648,
          "time": 80.5,
          "velocity": 0.23622047244094488
        },
        {
          "duration": 0.375,
          "durationTicks": 576,
          "midi": 59,
          "name": "B3",
          "ticks": 123648,
          "time": 80.5,
          "velocity": 0.3937007874015748
        },
        {
          "duration": 0.375,
          "durationTicks": 576,
          "midi": 62,
          "name": "D4",
          "ticks": 123648,
          "time": 80.5,
          "velocity": 0.31496062992125984
        },
        {
          "duration": 0.375,
          "durationTicks": 576,
          "midi": 66,
          "name": "F#4",
          "ticks": 123648,
          "time": 80.5,
          "velocity": 0.3937007874015748
        },
        {
          "duration": 0.375,
          "durationTicks": 576,
          "midi": 61,
          "name": "C#4",
          "ticks": 123648,
          "time": 80.5,
          "velocity": 0.1968503937007874
        },
        {
          "duration": 0.125,
          "durationTicks": 192,
          "midi": 62,
          "name": "D4",
          "ticks": 124224,
          "time": 80.875,
          "velocity": 0.1968503937007874
        },
        {
          "duration": 0.125,
          "durationTicks": 192,
          "midi": 64,
          "name": "E4",
          "ticks": 124224,
          "time": 80.875,
          "velocity": 0.3937007874015748
        },
        {
          "duration": 0.125,
          "durationTicks": 192,
          "midi": 71,
          "name": "B4",
          "ticks": 124224,
          "time": 80.875,
          "velocity": 0.23622047244094488
        },
        {
          "duration": 0.125,
          "durationTicks": 192,
          "midi": 59,
          "name": "B3",
          "ticks": 124224,
          "time": 80.875,
          "velocity": 0.3937007874015748
        },
        {
          "duration": 0.25,
          "durationTicks": 384,
          "midi": 62,
          "name": "D4",
          "ticks": 124800,
          "time": 81.25,
          "velocity": 0.23622047244094488
        },
        {
          "duration": 0.25,
          "durationTicks": 384,
          "midi": 59,
          "name": "B3",
          "ticks": 124800,
          "time": 81.25,
          "velocity": 0.3937007874015748
        },
        {
          "duration": 0.25,
          "durationTicks": 384,
          "midi": 71,
          "name": "B4",
          "ticks": 124800,
          "time": 81.25,
          "velocity": 0.23622047244094488
        },
        {
          "duration": 0.25,
          "durationTicks": 384,
          "midi": 64,
          "name": "E4",
          "ticks": 124800,
          "time": 81.25,
          "velocity": 0.3937007874015748
        },
        {
          "duration": 0.125,
          "durationTicks": 192,
          "midi": 62,
          "name": "D4",
          "ticks": 125184,
          "time": 81.5,
          "velocity": 0.07874015748031496
        },
        {
          "duration": 0.125,
          "durationTicks": 192,
          "midi": 64,
          "name": "E4",
          "ticks": 125184,
          "time": 81.5,
          "velocity": 0.1968503937007874
        },
        {
          "duration": 0.125,
          "durationTicks": 192,
          "midi": 59,
          "name": "B3",
          "ticks": 125184,
          "time": 81.5,
          "velocity": 0.1968503937007874
        },
        {
          "duration": 0.125,
          "durationTicks": 192,
          "midi": 71,
          "name": "B4",
          "ticks": 125184,
          "time": 81.5,
          "velocity": 0.03937007874015748
        },
        {
          "duration": 0.25,
          "durationTicks": 384,
          "midi": 62,
          "name": "D4",
          "ticks": 125376,
          "time": 81.625,
          "velocity": 0.23622047244094488
        },
        {
          "duration": 0.25,
          "durationTicks": 384,
          "midi": 71,
          "name": "B4",
          "ticks": 125376,
          "time": 81.625,
          "velocity": 0.23622047244094488
        },
        {
          "duration": 0.25,
          "durationTicks": 384,
          "midi": 64,
          "name": "E4",
          "ticks": 125376,
          "time": 81.625,
          "velocity": 0.3937007874015748
        },
        {
          "duration": 0.25,
          "durationTicks": 384,
          "midi": 59,
          "name": "B3",
          "ticks": 125376,
          "time": 81.625,
          "velocity": 0.3937007874015748
        },
        {
          "duration": 0.125,
          "durationTicks": 192,
          "midi": 59,
          "name": "B3",
          "ticks": 125760,
          "time": 81.875,
          "velocity": 0.2677165354330709
        },
        {
          "duration": 0.125,
          "durationTicks": 192,
          "midi": 71,
          "name": "B4",
          "ticks": 125760,
          "time": 81.875,
          "velocity": 0.11811023622047244
        },
        {
          "duration": 0.125,
          "durationTicks": 192,
          "midi": 62,
          "name": "D4",
          "ticks": 125760,
          "time": 81.875,
          "velocity": 0.15748031496062992
        },
        {
          "duration": 0.125,
          "durationTicks": 192,
          "midi": 64,
          "name": "E4",
          "ticks": 125760,
          "time": 81.875,
          "velocity": 0.2677165354330709
        },
        {
          "duration": 0.375,
          "durationTicks": 576,
          "midi": 62,
          "name": "D4",
          "ticks": 125952,
          "time": 82,
          "velocity": 0.3937007874015748
        },
        {
          "duration": 0.375,
          "durationTicks": 576,
          "midi": 71,
          "name": "B4",
          "ticks": 125952,
          "time": 82,
          "velocity": 0.23622047244094488
        },
        {
          "duration": 0.375,
          "durationTicks": 576,
          "midi": 59,
          "name": "B3",
          "ticks": 125952,
          "time": 82,
          "velocity": 0.3937007874015748
        },
        {
          "duration": 0.375,
          "durationTicks": 576,
          "midi": 66,
          "name": "F#4",
          "ticks": 125952,
          "time": 82,
          "velocity": 0.3937007874015748
        },
        {
          "duration": 0.375,
          "durationTicks": 576,
          "midi": 61,
          "name": "C#4",
          "ticks": 125952,
          "time": 82,
          "velocity": 0.23622047244094488
        },
        {
          "duration": 0.375,
          "durationTicks": 576,
          "midi": 71,
          "name": "B4",
          "ticks": 126720,
          "time": 82.5,
          "velocity": 0.23622047244094488
        },
        {
          "duration": 0.375,
          "durationTicks": 576,
          "midi": 59,
          "name": "B3",
          "ticks": 126720,
          "time": 82.5,
          "velocity": 0.3937007874015748
        },
        {
          "duration": 0.375,
          "durationTicks": 576,
          "midi": 66,
          "name": "F#4",
          "ticks": 126720,
          "time": 82.5,
          "velocity": 0.3937007874015748
        },
        {
          "duration": 0.375,
          "durationTicks": 576,
          "midi": 62,
          "name": "D4",
          "ticks": 126720,
          "time": 82.5,
          "velocity": 0.3937007874015748
        },
        {
          "duration": 0.375,
          "durationTicks": 576,
          "midi": 61,
          "name": "C#4",
          "ticks": 126720,
          "time": 82.5,
          "velocity": 0.23622047244094488
        },
        {
          "duration": 0.125,
          "durationTicks": 192,
          "midi": 59,
          "name": "B3",
          "ticks": 127296,
          "time": 82.875,
          "velocity": 0.3937007874015748
        },
        {
          "duration": 0.125,
          "durationTicks": 192,
          "midi": 62,
          "name": "D4",
          "ticks": 127296,
          "time": 82.875,
          "velocity": 0.3937007874015748
        },
        {
          "duration": 0.125,
          "durationTicks": 192,
          "midi": 71,
          "name": "B4",
          "ticks": 127296,
          "time": 82.875,
          "velocity": 0.23622047244094488
        },
        {
          "duration": 0.125,
          "durationTicks": 192,
          "midi": 66,
          "name": "F#4",
          "ticks": 127296,
          "time": 82.875,
          "velocity": 0.3937007874015748
        },
        {
          "duration": 0.125,
          "durationTicks": 192,
          "midi": 64,
          "name": "E4",
          "ticks": 127296,
          "time": 82.875,
          "velocity": 0.2677165354330709
        },
        {
          "duration": 0.25,
          "durationTicks": 384,
          "midi": 66,
          "name": "F#4",
          "ticks": 127872,
          "time": 83.25,
          "velocity": 0.3937007874015748
        },
        {
          "duration": 0.25,
          "durationTicks": 384,
          "midi": 64,
          "name": "E4",
          "ticks": 127872,
          "time": 83.25,
          "velocity": 0.1968503937007874
        },
        {
          "duration": 0.25,
          "durationTicks": 384,
          "midi": 71,
          "name": "B4",
          "ticks": 127872,
          "time": 83.25,
          "velocity": 0.23622047244094488
        },
        {
          "duration": 0.25,
          "durationTicks": 384,
          "midi": 59,
          "name": "B3",
          "ticks": 127872,
          "time": 83.25,
          "velocity": 0.3937007874015748
        },
        {
          "duration": 0.25,
          "durationTicks": 384,
          "midi": 62,
          "name": "D4",
          "ticks": 127872,
          "time": 83.25,
          "velocity": 0.3937007874015748
        },
        {
          "duration": 0.125,
          "durationTicks": 192,
          "midi": 62,
          "name": "D4",
          "ticks": 128256,
          "time": 83.5,
          "velocity": 0.1968503937007874
        },
        {
          "duration": 0.125,
          "durationTicks": 192,
          "midi": 59,
          "name": "B3",
          "ticks": 128256,
          "time": 83.5,
          "velocity": 0.1968503937007874
        },
        {
          "duration": 0.125,
          "durationTicks": 192,
          "midi": 66,
          "name": "F#4",
          "ticks": 128256,
          "time": 83.5,
          "velocity": 0.1968503937007874
        },
        {
          "duration": 0.125,
          "durationTicks": 192,
          "midi": 71,
          "name": "B4",
          "ticks": 128256,
          "time": 83.5,
          "velocity": 0.03937007874015748
        },
        {
          "duration": 0,
          "durationTicks": 0,
          "midi": 64,
          "name": "E4",
          "ticks": 128448,
          "time": 83.625,
          "velocity": 0.1968503937007874
        },
        {
          "duration": 0.25,
          "durationTicks": 384,
          "midi": 62,
          "name": "D4",
          "ticks": 128448,
          "time": 83.625,
          "velocity": 0.3937007874015748
        },
        {
          "duration": 0.25,
          "durationTicks": 384,
          "midi": 66,
          "name": "F#4",
          "ticks": 128448,
          "time": 83.625,
          "velocity": 0.3937007874015748
        },
        {
          "duration": 0.25,
          "durationTicks": 384,
          "midi": 59,
          "name": "B3",
          "ticks": 128448,
          "time": 83.625,
          "velocity": 0.3937007874015748
        },
        {
          "duration": 0.25,
          "durationTicks": 384,
          "midi": 71,
          "name": "B4",
          "ticks": 128448,
          "time": 83.625,
          "velocity": 0.23622047244094488
        },
        {
          "duration": 0.125,
          "durationTicks": 192,
          "midi": 59,
          "name": "B3",
          "ticks": 128832,
          "time": 83.875,
          "velocity": 0.2677165354330709
        },
        {
          "duration": 0.125,
          "durationTicks": 192,
          "midi": 66,
          "name": "F#4",
          "ticks": 128832,
          "time": 83.875,
          "velocity": 0.2677165354330709
        },
        {
          "duration": 0.125,
          "durationTicks": 192,
          "midi": 71,
          "name": "B4",
          "ticks": 128832,
          "time": 83.875,
          "velocity": 0.11811023622047244
        },
        {
          "duration": 0.125,
          "durationTicks": 192,
          "midi": 62,
          "name": "D4",
          "ticks": 128832,
          "time": 83.875,
          "velocity": 0.2677165354330709
        },
        {
          "duration": 0,
          "durationTicks": 0,
          "midi": 64,
          "name": "E4",
          "ticks": 128832,
          "time": 83.875,
          "velocity": 0.07874015748031496
        },
        {
          "duration": 0.375,
          "durationTicks": 576,
          "midi": 59,
          "name": "B3",
          "ticks": 129024,
          "time": 84,
          "velocity": 0.3937007874015748
        },
        {
          "duration": 0.375,
          "durationTicks": 576,
          "midi": 71,
          "name": "B4",
          "ticks": 129024,
          "time": 84,
          "velocity": 0.23622047244094488
        },
        {
          "duration": 0.375,
          "durationTicks": 576,
          "midi": 62,
          "name": "D4",
          "ticks": 129024,
          "time": 84,
          "velocity": 0.1968503937007874
        },
        {
          "duration": 0.375,
          "durationTicks": 576,
          "midi": 66,
          "name": "F#4",
          "ticks": 129024,
          "time": 84,
          "velocity": 0.3937007874015748
        },
        {
          "duration": 0.375,
          "durationTicks": 576,
          "midi": 61,
          "name": "C#4",
          "ticks": 129024,
          "time": 84,
          "velocity": 0.3937007874015748
        },
        {
          "duration": 0.375,
          "durationTicks": 576,
          "midi": 61,
          "name": "C#4",
          "ticks": 129792,
          "time": 84.5,
          "velocity": 0.3937007874015748
        },
        {
          "duration": 0.375,
          "durationTicks": 576,
          "midi": 66,
          "name": "F#4",
          "ticks": 129792,
          "time": 84.5,
          "velocity": 0.3937007874015748
        },
        {
          "duration": 0.375,
          "durationTicks": 576,
          "midi": 59,
          "name": "B3",
          "ticks": 129792,
          "time": 84.5,
          "velocity": 0.3937007874015748
        },
        {
          "duration": 0.375,
          "durationTicks": 576,
          "midi": 71,
          "name": "B4",
          "ticks": 129792,
          "time": 84.5,
          "velocity": 0.23622047244094488
        },
        {
          "duration": 0.375,
          "durationTicks": 576,
          "midi": 62,
          "name": "D4",
          "ticks": 129792,
          "time": 84.5,
          "velocity": 0.1968503937007874
        },
        {
          "duration": 0.125,
          "durationTicks": 192,
          "midi": 59,
          "name": "B3",
          "ticks": 130368,
          "time": 84.875,
          "velocity": 0.3937007874015748
        },
        {
          "duration": 0.125,
          "durationTicks": 192,
          "midi": 71,
          "name": "B4",
          "ticks": 130368,
          "time": 84.875,
          "velocity": 0.23622047244094488
        },
        {
          "duration": 0.125,
          "durationTicks": 192,
          "midi": 66,
          "name": "F#4",
          "ticks": 130368,
          "time": 84.875,
          "velocity": 0.3937007874015748
        },
        {
          "duration": 0.125,
          "durationTicks": 192,
          "midi": 62,
          "name": "D4",
          "ticks": 130368,
          "time": 84.875,
          "velocity": 0.3937007874015748
        },
        {
          "duration": 0.25,
          "durationTicks": 384,
          "midi": 66,
          "name": "F#4",
          "ticks": 130944,
          "time": 85.25,
          "velocity": 0.3937007874015748
        },
        {
          "duration": 0.25,
          "durationTicks": 384,
          "midi": 62,
          "name": "D4",
          "ticks": 130944,
          "time": 85.25,
          "velocity": 0.3937007874015748
        },
        {
          "duration": 0.25,
          "durationTicks": 384,
          "midi": 59,
          "name": "B3",
          "ticks": 130944,
          "time": 85.25,
          "velocity": 0.3937007874015748
        },
        {
          "duration": 0.25,
          "durationTicks": 384,
          "midi": 71,
          "name": "B4",
          "ticks": 130944,
          "time": 85.25,
          "velocity": 0.23622047244094488
        },
        {
          "duration": 0.125,
          "durationTicks": 192,
          "midi": 71,
          "name": "B4",
          "ticks": 131328,
          "time": 85.5,
          "velocity": 0.03937007874015748
        },
        {
          "duration": 0.125,
          "durationTicks": 192,
          "midi": 66,
          "name": "F#4",
          "ticks": 131328,
          "time": 85.5,
          "velocity": 0.1968503937007874
        },
        {
          "duration": 0.125,
          "durationTicks": 192,
          "midi": 62,
          "name": "D4",
          "ticks": 131328,
          "time": 85.5,
          "velocity": 0.1968503937007874
        },
        {
          "duration": 0.125,
          "durationTicks": 192,
          "midi": 59,
          "name": "B3",
          "ticks": 131328,
          "time": 85.5,
          "velocity": 0.1968503937007874
        },
        {
          "duration": 0.25,
          "durationTicks": 384,
          "midi": 59,
          "name": "B3",
          "ticks": 131520,
          "time": 85.625,
          "velocity": 0.3937007874015748
        },
        {
          "duration": 0.25,
          "durationTicks": 384,
          "midi": 71,
          "name": "B4",
          "ticks": 131520,
          "time": 85.625,
          "velocity": 0.23622047244094488
        },
        {
          "duration": 0.25,
          "durationTicks": 384,
          "midi": 62,
          "name": "D4",
          "ticks": 131520,
          "time": 85.625,
          "velocity": 0.3937007874015748
        },
        {
          "duration": 0.25,
          "durationTicks": 384,
          "midi": 66,
          "name": "F#4",
          "ticks": 131520,
          "time": 85.625,
          "velocity": 0.3937007874015748
        },
        {
          "duration": 0.125,
          "durationTicks": 192,
          "midi": 66,
          "name": "F#4",
          "ticks": 131904,
          "time": 85.875,
          "velocity": 0.2677165354330709
        },
        {
          "duration": 0.125,
          "durationTicks": 192,
          "midi": 59,
          "name": "B3",
          "ticks": 131904,
          "time": 85.875,
          "velocity": 0.2677165354330709
        },
        {
          "duration": 0.125,
          "durationTicks": 192,
          "midi": 71,
          "name": "B4",
          "ticks": 131904,
          "time": 85.875,
          "velocity": 0.11811023622047244
        },
        {
          "duration": 0.125,
          "durationTicks": 192,
          "midi": 62,
          "name": "D4",
          "ticks": 131904,
          "time": 85.875,
          "velocity": 0.2677165354330709
        },
        {
          "duration": 0.375,
          "durationTicks": 576,
          "midi": 61,
          "name": "C#4",
          "ticks": 132096,
          "time": 86,
          "velocity": 0.07874015748031496
        },
        {
          "duration": 0.375,
          "durationTicks": 576,
          "midi": 62,
          "name": "D4",
          "ticks": 132096,
          "time": 86,
          "velocity": 0.3937007874015748
        },
        {
          "duration": 0.375,
          "durationTicks": 576,
          "midi": 59,
          "name": "B3",
          "ticks": 132096,
          "time": 86,
          "velocity": 0.3937007874015748
        },
        {
          "duration": 0.375,
          "durationTicks": 576,
          "midi": 71,
          "name": "B4",
          "ticks": 132096,
          "time": 86,
          "velocity": 0.23622047244094488
        },
        {
          "duration": 0.375,
          "durationTicks": 576,
          "midi": 66,
          "name": "F#4",
          "ticks": 132096,
          "time": 86,
          "velocity": 0.3937007874015748
        },
        {
          "duration": 0.375,
          "durationTicks": 576,
          "midi": 59,
          "name": "B3",
          "ticks": 132864,
          "time": 86.5,
          "velocity": 0.3937007874015748
        },
        {
          "duration": 0.375,
          "durationTicks": 576,
          "midi": 62,
          "name": "D4",
          "ticks": 132864,
          "time": 86.5,
          "velocity": 0.31496062992125984
        },
        {
          "duration": 0.375,
          "durationTicks": 576,
          "midi": 71,
          "name": "B4",
          "ticks": 132864,
          "time": 86.5,
          "velocity": 0.23622047244094488
        },
        {
          "duration": 0.375,
          "durationTicks": 576,
          "midi": 61,
          "name": "C#4",
          "ticks": 132864,
          "time": 86.5,
          "velocity": 0.11811023622047244
        },
        {
          "duration": 0.375,
          "durationTicks": 576,
          "midi": 66,
          "name": "F#4",
          "ticks": 132864,
          "time": 86.5,
          "velocity": 0.3937007874015748
        },
        {
          "duration": 0.125,
          "durationTicks": 192,
          "midi": 62,
          "name": "D4",
          "ticks": 133440,
          "time": 86.875,
          "velocity": 0.1968503937007874
        },
        {
          "duration": 0.125,
          "durationTicks": 192,
          "midi": 59,
          "name": "B3",
          "ticks": 133440,
          "time": 86.875,
          "velocity": 0.3937007874015748
        },
        {
          "duration": 0.125,
          "durationTicks": 192,
          "midi": 71,
          "name": "B4",
          "ticks": 133440,
          "time": 86.875,
          "velocity": 0.23622047244094488
        },
        {
          "duration": 0.125,
          "durationTicks": 192,
          "midi": 64,
          "name": "E4",
          "ticks": 133440,
          "time": 86.875,
          "velocity": 0.3937007874015748
        },
        {
          "duration": 0.25,
          "durationTicks": 384,
          "midi": 71,
          "name": "B4",
          "ticks": 134016,
          "time": 87.25,
          "velocity": 0.23622047244094488
        },
        {
          "duration": 0.25,
          "durationTicks": 384,
          "midi": 59,
          "name": "B3",
          "ticks": 134016,
          "time": 87.25,
          "velocity": 0.3937007874015748
        },
        {
          "duration": 0.25,
          "durationTicks": 384,
          "midi": 62,
          "name": "D4",
          "ticks": 134016,
          "time": 87.25,
          "velocity": 0.23622047244094488
        },
        {
          "duration": 0.25,
          "durationTicks": 384,
          "midi": 64,
          "name": "E4",
          "ticks": 134016,
          "time": 87.25,
          "velocity": 0.3937007874015748
        },
        {
          "duration": 0.125,
          "durationTicks": 192,
          "midi": 71,
          "name": "B4",
          "ticks": 134400,
          "time": 87.5,
          "velocity": 0.03937007874015748
        },
        {
          "duration": 0.125,
          "durationTicks": 192,
          "midi": 64,
          "name": "E4",
          "ticks": 134400,
          "time": 87.5,
          "velocity": 0.1968503937007874
        },
        {
          "duration": 0.125,
          "durationTicks": 192,
          "midi": 62,
          "name": "D4",
          "ticks": 134400,
          "time": 87.5,
          "velocity": 0.07874015748031496
        },
        {
          "duration": 0.125,
          "durationTicks": 192,
          "midi": 59,
          "name": "B3",
          "ticks": 134400,
          "time": 87.5,
          "velocity": 0.1968503937007874
        },
        {
          "duration": 0.25,
          "durationTicks": 384,
          "midi": 62,
          "name": "D4",
          "ticks": 134592,
          "time": 87.625,
          "velocity": 0.23622047244094488
        },
        {
          "duration": 0.25,
          "durationTicks": 384,
          "midi": 59,
          "name": "B3",
          "ticks": 134592,
          "time": 87.625,
          "velocity": 0.3937007874015748
        },
        {
          "duration": 0.25,
          "durationTicks": 384,
          "midi": 71,
          "name": "B4",
          "ticks": 134592,
          "time": 87.625,
          "velocity": 0.23622047244094488
        },
        {
          "duration": 0.25,
          "durationTicks": 384,
          "midi": 64,
          "name": "E4",
          "ticks": 134592,
          "time": 87.625,
          "velocity": 0.3937007874015748
        },
        {
          "duration": 0.125,
          "durationTicks": 192,
          "midi": 62,
          "name": "D4",
          "ticks": 134976,
          "time": 87.875,
          "velocity": 0.15748031496062992
        },
        {
          "duration": 0.125,
          "durationTicks": 192,
          "midi": 64,
          "name": "E4",
          "ticks": 134976,
          "time": 87.875,
          "velocity": 0.2677165354330709
        },
        {
          "duration": 0.125,
          "durationTicks": 192,
          "midi": 59,
          "name": "B3",
          "ticks": 134976,
          "time": 87.875,
          "velocity": 0.2677165354330709
        },
        {
          "duration": 0.125,
          "durationTicks": 192,
          "midi": 71,
          "name": "B4",
          "ticks": 134976,
          "time": 87.875,
          "velocity": 0.11811023622047244
        },
        {
          "duration": 0.3125,
          "durationTicks": 480,
          "midi": 59,
          "name": "B3",
          "ticks": 135168,
          "time": 88,
          "velocity": 0.3937007874015748
        },
        {
          "duration": 0.3125,
          "durationTicks": 480,
          "midi": 67,
          "name": "G4",
          "ticks": 135168,
          "time": 88,
          "velocity": 0.3937007874015748
        },
        {
          "duration": 0.3125,
          "durationTicks": 480,
          "midi": 62,
          "name": "D4",
          "ticks": 135168,
          "time": 88,
          "velocity": 0.3937007874015748
        },
        {
          "duration": 0.3125,
          "durationTicks": 480,
          "midi": 71,
          "name": "B4",
          "ticks": 135168,
          "time": 88,
          "velocity": 0.23622047244094488
        },
        {
          "duration": 0.3125,
          "durationTicks": 480,
          "midi": 61,
          "name": "C#4",
          "ticks": 135168,
          "time": 88,
          "velocity": 0.15748031496062992
        },
        {
          "duration": 0.125,
          "durationTicks": 192,
          "midi": 59,
          "name": "B3",
          "ticks": 135744,
          "time": 88.375,
          "velocity": 0.23622047244094488
        },
        {
          "duration": 0.125,
          "durationTicks": 192,
          "midi": 62,
          "name": "D4",
          "ticks": 135744,
          "time": 88.375,
          "velocity": 0.23622047244094488
        },
        {
          "duration": 0.125,
          "durationTicks": 192,
          "midi": 61,
          "name": "C#4",
          "ticks": 135744,
          "time": 88.375,
          "velocity": 0.03937007874015748
        },
        {
          "duration": 0.125,
          "durationTicks": 192,
          "midi": 71,
          "name": "B4",
          "ticks": 135744,
          "time": 88.375,
          "velocity": 0.07874015748031496
        },
        {
          "duration": 0.125,
          "durationTicks": 192,
          "midi": 67,
          "name": "G4",
          "ticks": 135744,
          "time": 88.375,
          "velocity": 0.23622047244094488
        },
        {
          "duration": 0.375,
          "durationTicks": 576,
          "midi": 62,
          "name": "D4",
          "ticks": 135936,
          "time": 88.5,
          "velocity": 0.31496062992125984
        },
        {
          "duration": 0.375,
          "durationTicks": 576,
          "midi": 59,
          "name": "B3",
          "ticks": 135936,
          "time": 88.5,
          "velocity": 0.3937007874015748
        },
        {
          "duration": 0.375,
          "durationTicks": 576,
          "midi": 61,
          "name": "C#4",
          "ticks": 135936,
          "time": 88.5,
          "velocity": 0.1968503937007874
        },
        {
          "duration": 0.375,
          "durationTicks": 576,
          "midi": 67,
          "name": "G4",
          "ticks": 135936,
          "time": 88.5,
          "velocity": 0.3937007874015748
        },
        {
          "duration": 0.375,
          "durationTicks": 576,
          "midi": 71,
          "name": "B4",
          "ticks": 135936,
          "time": 88.5,
          "velocity": 0.23622047244094488
        },
        {
          "duration": 0.125,
          "durationTicks": 192,
          "midi": 62,
          "name": "D4",
          "ticks": 136512,
          "time": 88.875,
          "velocity": 0.1968503937007874
        },
        {
          "duration": 0.125,
          "durationTicks": 192,
          "midi": 66,
          "name": "F#4",
          "ticks": 136512,
          "time": 88.875,
          "velocity": 0.1968503937007874
        },
        {
          "duration": 0.125,
          "durationTicks": 192,
          "midi": 64,
          "name": "E4",
          "ticks": 136512,
          "time": 88.875,
          "velocity": 0.3937007874015748
        },
        {
          "duration": 0.125,
          "durationTicks": 192,
          "midi": 58,
          "name": "A#3",
          "ticks": 136512,
          "time": 88.875,
          "velocity": 0.3937007874015748
        },
        {
          "duration": 0.125,
          "durationTicks": 192,
          "midi": 70,
          "name": "A#4",
          "ticks": 136512,
          "time": 88.875,
          "velocity": 0.23622047244094488
        },
        {
          "duration": 0.125,
          "durationTicks": 192,
          "midi": 66,
          "name": "F#4",
          "ticks": 136896,
          "time": 89.125,
          "velocity": 0.23622047244094488
        },
        {
          "duration": 0.125,
          "durationTicks": 192,
          "midi": 70,
          "name": "A#4",
          "ticks": 136896,
          "time": 89.125,
          "velocity": 0.07874015748031496
        },
        {
          "duration": 0.125,
          "durationTicks": 192,
          "midi": 64,
          "name": "E4",
          "ticks": 136896,
          "time": 89.125,
          "velocity": 0.11811023622047244
        },
        {
          "duration": 0.125,
          "durationTicks": 192,
          "midi": 58,
          "name": "A#3",
          "ticks": 136896,
          "time": 89.125,
          "velocity": 0.23622047244094488
        },
        {
          "duration": 0.125,
          "durationTicks": 192,
          "midi": 62,
          "name": "D4",
          "ticks": 136896,
          "time": 89.125,
          "velocity": 0.15748031496062992
        },
        {
          "duration": 0.25,
          "durationTicks": 384,
          "midi": 64,
          "name": "E4",
          "ticks": 137088,
          "time": 89.25,
          "velocity": 0.15748031496062992
        },
        {
          "duration": 0.25,
          "durationTicks": 384,
          "midi": 66,
          "name": "F#4",
          "ticks": 137088,
          "time": 89.25,
          "velocity": 0.3937007874015748
        },
        {
          "duration": 0.25,
          "durationTicks": 384,
          "midi": 58,
          "name": "A#3",
          "ticks": 137088,
          "time": 89.25,
          "velocity": 0.3937007874015748
        },
        {
          "duration": 0.25,
          "durationTicks": 384,
          "midi": 70,
          "name": "A#4",
          "ticks": 137088,
          "time": 89.25,
          "velocity": 0.23622047244094488
        },
        {
          "duration": 0.25,
          "durationTicks": 384,
          "midi": 62,
          "name": "D4",
          "ticks": 137088,
          "time": 89.25,
          "velocity": 0.23622047244094488
        },
        {
          "duration": 0.125,
          "durationTicks": 192,
          "midi": 58,
          "name": "A#3",
          "ticks": 137472,
          "time": 89.5,
          "velocity": 0.1968503937007874
        },
        {
          "duration": 0.125,
          "durationTicks": 192,
          "midi": 70,
          "name": "A#4",
          "ticks": 137472,
          "time": 89.5,
          "velocity": 0.03937007874015748
        },
        {
          "duration": 0.125,
          "durationTicks": 192,
          "midi": 66,
          "name": "F#4",
          "ticks": 137472,
          "time": 89.5,
          "velocity": 0.1968503937007874
        },
        {
          "duration": 0.125,
          "durationTicks": 192,
          "midi": 62,
          "name": "D4",
          "ticks": 137472,
          "time": 89.5,
          "velocity": 0.07874015748031496
        },
        {
          "duration": 0.25,
          "durationTicks": 384,
          "midi": 62,
          "name": "D4",
          "ticks": 137664,
          "time": 89.625,
          "velocity": 0.23622047244094488
        },
        {
          "duration": 0.25,
          "durationTicks": 384,
          "midi": 70,
          "name": "A#4",
          "ticks": 137664,
          "time": 89.625,
          "velocity": 0.23622047244094488
        },
        {
          "duration": 0,
          "durationTicks": 0,
          "midi": 64,
          "name": "E4",
          "ticks": 137664,
          "time": 89.625,
          "velocity": 0.15748031496062992
        },
        {
          "duration": 0.25,
          "durationTicks": 384,
          "midi": 66,
          "name": "F#4",
          "ticks": 137664,
          "time": 89.625,
          "velocity": 0.3937007874015748
        },
        {
          "duration": 0.25,
          "durationTicks": 384,
          "midi": 58,
          "name": "A#3",
          "ticks": 137664,
          "time": 89.625,
          "velocity": 0.3937007874015748
        },
        {
          "duration": 0.125,
          "durationTicks": 192,
          "midi": 70,
          "name": "A#4",
          "ticks": 138048,
          "time": 89.875,
          "velocity": 0.11811023622047244
        },
        {
          "duration": 0.125,
          "durationTicks": 192,
          "midi": 62,
          "name": "D4",
          "ticks": 138048,
          "time": 89.875,
          "velocity": 0.15748031496062992
        },
        {
          "duration": 0.125,
          "durationTicks": 192,
          "midi": 58,
          "name": "A#3",
          "ticks": 138048,
          "time": 89.875,
          "velocity": 0.2677165354330709
        },
        {
          "duration": 0.125,
          "durationTicks": 192,
          "midi": 66,
          "name": "F#4",
          "ticks": 138048,
          "time": 89.875,
          "velocity": 0.2677165354330709
        },
        {
          "duration": 0,
          "durationTicks": 0,
          "midi": 64,
          "name": "E4",
          "ticks": 138048,
          "time": 89.875,
          "velocity": 0.03937007874015748
        },
        {
          "duration": 0.375,
          "durationTicks": 576,
          "midi": 59,
          "name": "B3",
          "ticks": 138240,
          "time": 90,
          "velocity": 0.23622047244094488
        },
        {
          "duration": 0,
          "durationTicks": 0,
          "midi": 64,
          "name": "E4",
          "ticks": 138240,
          "time": 90,
          "velocity": 0.3937007874015748
        },
        {
          "duration": 0.375,
          "durationTicks": 576,
          "midi": 69,
          "name": "A4",
          "ticks": 138240,
          "time": 90,
          "velocity": 0.23622047244094488
        },
        {
          "duration": 0.375,
          "durationTicks": 576,
          "midi": 60,
          "name": "C4",
          "ticks": 138240,
          "time": 90,
          "velocity": 0.3937007874015748
        },
        {
          "duration": 0.375,
          "durationTicks": 576,
          "midi": 57,
          "name": "A3",
          "ticks": 138240,
          "time": 90,
          "velocity": 0.3937007874015748
        },
        {
          "duration": 0.375,
          "durationTicks": 576,
          "midi": 69,
          "name": "A4",
          "ticks": 139008,
          "time": 90.5,
          "velocity": 0.23622047244094488
        },
        {
          "duration": 0.375,
          "durationTicks": 576,
          "midi": 59,
          "name": "B3",
          "ticks": 139008,
          "time": 90.5,
          "velocity": 0.23622047244094488
        },
        {
          "duration": 0.375,
          "durationTicks": 576,
          "midi": 60,
          "name": "C4",
          "ticks": 139008,
          "time": 90.5,
          "velocity": 0.3937007874015748
        },
        {
          "duration": 0.375,
          "durationTicks": 576,
          "midi": 57,
          "name": "A3",
          "ticks": 139008,
          "time": 90.5,
          "velocity": 0.3937007874015748
        },
        {
          "duration": 0.375,
          "durationTicks": 576,
          "midi": 64,
          "name": "E4",
          "ticks": 139008,
          "time": 90.5,
          "velocity": 0.3937007874015748
        },
        {
          "duration": 0.125,
          "durationTicks": 192,
          "midi": 61,
          "name": "C#4",
          "ticks": 139584,
          "time": 90.875,
          "velocity": 0.2677165354330709
        },
        {
          "duration": 0.125,
          "durationTicks": 192,
          "midi": 67,
          "name": "G4",
          "ticks": 139584,
          "time": 90.875,
          "velocity": 0.23622047244094488
        },
        {
          "duration": 0.125,
          "durationTicks": 192,
          "midi": 55,
          "name": "G3",
          "ticks": 139584,
          "time": 90.875,
          "velocity": 0.3937007874015748
        },
        {
          "duration": 0.125,
          "durationTicks": 192,
          "midi": 63,
          "name": "D#4",
          "ticks": 139584,
          "time": 90.875,
          "velocity": 0.3937007874015748
        },
        {
          "duration": 0.125,
          "durationTicks": 192,
          "midi": 59,
          "name": "B3",
          "ticks": 139584,
          "time": 90.875,
          "velocity": 0.3937007874015748
        },
        {
          "duration": 0.25,
          "durationTicks": 384,
          "midi": 63,
          "name": "D#4",
          "ticks": 140160,
          "time": 91.25,
          "velocity": 0.3937007874015748
        },
        {
          "duration": 0.25,
          "durationTicks": 384,
          "midi": 67,
          "name": "G4",
          "ticks": 140160,
          "time": 91.25,
          "velocity": 0.23622047244094488
        },
        {
          "duration": 0.25,
          "durationTicks": 384,
          "midi": 55,
          "name": "G3",
          "ticks": 140160,
          "time": 91.25,
          "velocity": 0.3937007874015748
        },
        {
          "duration": 0.25,
          "durationTicks": 384,
          "midi": 59,
          "name": "B3",
          "ticks": 140160,
          "time": 91.25,
          "velocity": 0.3937007874015748
        },
        {
          "duration": 0.25,
          "durationTicks": 384,
          "midi": 61,
          "name": "C#4",
          "ticks": 140160,
          "time": 91.25,
          "velocity": 0.1968503937007874
        },
        {
          "duration": 0.125,
          "durationTicks": 192,
          "midi": 67,
          "name": "G4",
          "ticks": 140544,
          "time": 91.5,
          "velocity": 0.03937007874015748
        },
        {
          "duration": 0.125,
          "durationTicks": 192,
          "midi": 63,
          "name": "D#4",
          "ticks": 140544,
          "time": 91.5,
          "velocity": 0.1968503937007874
        },
        {
          "duration": 0.125,
          "durationTicks": 192,
          "midi": 56,
          "name": "G#3",
          "ticks": 140544,
          "time": 91.5,
          "velocity": 0.1968503937007874
        },
        {
          "duration": 0.125,
          "durationTicks": 192,
          "midi": 59,
          "name": "B3",
          "ticks": 140544,
          "time": 91.5,
          "velocity": 0.1968503937007874
        },
        {
          "duration": 0.25,
          "durationTicks": 384,
          "midi": 67,
          "name": "G4",
          "ticks": 140736,
          "time": 91.625,
          "velocity": 0.23622047244094488
        },
        {
          "duration": 0.25,
          "durationTicks": 384,
          "midi": 63,
          "name": "D#4",
          "ticks": 140736,
          "time": 91.625,
          "velocity": 0.3937007874015748
        },
        {
          "duration": 0,
          "durationTicks": 0,
          "midi": 61,
          "name": "C#4",
          "ticks": 140736,
          "time": 91.625,
          "velocity": 0.1968503937007874
        },
        {
          "duration": 0.25,
          "durationTicks": 384,
          "midi": 59,
          "name": "B3",
          "ticks": 140736,
          "time": 91.625,
          "velocity": 0.3937007874015748
        },
        {
          "duration": 0.25,
          "durationTicks": 384,
          "midi": 55,
          "name": "G3",
          "ticks": 140736,
          "time": 91.625,
          "velocity": 0.3937007874015748
        },
        {
          "duration": 0.125,
          "durationTicks": 192,
          "midi": 67,
          "name": "G4",
          "ticks": 141120,
          "time": 91.875,
          "velocity": 0.11811023622047244
        },
        {
          "duration": 0.125,
          "durationTicks": 192,
          "midi": 59,
          "name": "B3",
          "ticks": 141120,
          "time": 91.875,
          "velocity": 0.2677165354330709
        },
        {
          "duration": 0.125,
          "durationTicks": 192,
          "midi": 63,
          "name": "D#4",
          "ticks": 141120,
          "time": 91.875,
          "velocity": 0.2677165354330709
        },
        {
          "duration": 0,
          "durationTicks": 0,
          "midi": 61,
          "name": "C#4",
          "ticks": 141120,
          "time": 91.875,
          "velocity": 0.07874015748031496
        },
        {
          "duration": 0.125,
          "durationTicks": 192,
          "midi": 55,
          "name": "G3",
          "ticks": 141120,
          "time": 91.875,
          "velocity": 0.2677165354330709
        },
        {
          "duration": 0.375,
          "durationTicks": 576,
          "midi": 58,
          "name": "A#3",
          "ticks": 141312,
          "time": 92,
          "velocity": 0.1968503937007874
        },
        {
          "duration": 0.375,
          "durationTicks": 576,
          "midi": 67,
          "name": "G4",
          "ticks": 141312,
          "time": 92,
          "velocity": 0.23622047244094488
        },
        {
          "duration": 0.375,
          "durationTicks": 576,
          "midi": 57,
          "name": "A3",
          "ticks": 141312,
          "time": 92,
          "velocity": 0.3937007874015748
        },
        {
          "duration": 0.375,
          "durationTicks": 576,
          "midi": 55,
          "name": "G3",
          "ticks": 141312,
          "time": 92,
          "velocity": 0.3937007874015748
        },
        {
          "duration": 0.375,
          "durationTicks": 576,
          "midi": 62,
          "name": "D4",
          "ticks": 141312,
          "time": 92,
          "velocity": 0.3937007874015748
        },
        {
          "duration": 0.375,
          "durationTicks": 576,
          "midi": 67,
          "name": "G4",
          "ticks": 142080,
          "time": 92.5,
          "velocity": 0.23622047244094488
        },
        {
          "duration": 0.375,
          "durationTicks": 576,
          "midi": 62,
          "name": "D4",
          "ticks": 142080,
          "time": 92.5,
          "velocity": 0.3937007874015748
        },
        {
          "duration": 0.375,
          "durationTicks": 576,
          "midi": 58,
          "name": "A#3",
          "ticks": 142080,
          "time": 92.5,
          "velocity": 0.1968503937007874
        },
        {
          "duration": 0.375,
          "durationTicks": 576,
          "midi": 55,
          "name": "G3",
          "ticks": 142080,
          "time": 92.5,
          "velocity": 0.3937007874015748
        },
        {
          "duration": 0.375,
          "durationTicks": 576,
          "midi": 57,
          "name": "A3",
          "ticks": 142080,
          "time": 92.5,
          "velocity": 0.3937007874015748
        },
        {
          "duration": 0.125,
          "durationTicks": 192,
          "midi": 58,
          "name": "A#3",
          "ticks": 142656,
          "time": 92.875,
          "velocity": 0.3937007874015748
        },
        {
          "duration": 0.125,
          "durationTicks": 192,
          "midi": 55,
          "name": "G3",
          "ticks": 142656,
          "time": 92.875,
          "velocity": 0.3937007874015748
        },
        {
          "duration": 0.125,
          "durationTicks": 192,
          "midi": 62,
          "name": "D4",
          "ticks": 142656,
          "time": 92.875,
          "velocity": 0.3937007874015748
        },
        {
          "duration": 0.125,
          "durationTicks": 192,
          "midi": 67,
          "name": "G4",
          "ticks": 142656,
          "time": 92.875,
          "velocity": 0.23622047244094488
        },
        {
          "duration": 0.25,
          "durationTicks": 384,
          "midi": 62,
          "name": "D4",
          "ticks": 143232,
          "time": 93.25,
          "velocity": 0.3937007874015748
        },
        {
          "duration": 0.25,
          "durationTicks": 384,
          "midi": 55,
          "name": "G3",
          "ticks": 143232,
          "time": 93.25,
          "velocity": 0.3937007874015748
        },
        {
          "duration": 0.25,
          "durationTicks": 384,
          "midi": 58,
          "name": "A#3",
          "ticks": 143232,
          "time": 93.25,
          "velocity": 0.3937007874015748
        },
        {
          "duration": 0.25,
          "durationTicks": 384,
          "midi": 67,
          "name": "G4",
          "ticks": 143232,
          "time": 93.25,
          "velocity": 0.23622047244094488
        },
        {
          "duration": 0.125,
          "durationTicks": 192,
          "midi": 55,
          "name": "G3",
          "ticks": 143616,
          "time": 93.5,
          "velocity": 0.1968503937007874
        },
        {
          "duration": 0.125,
          "durationTicks": 192,
          "midi": 62,
          "name": "D4",
          "ticks": 143616,
          "time": 93.5,
          "velocity": 0.1968503937007874
        },
        {
          "duration": 0.125,
          "durationTicks": 192,
          "midi": 58,
          "name": "A#3",
          "ticks": 143616,
          "time": 93.5,
          "velocity": 0.1968503937007874
        },
        {
          "duration": 0.125,
          "durationTicks": 192,
          "midi": 67,
          "name": "G4",
          "ticks": 143616,
          "time": 93.5,
          "velocity": 0.03937007874015748
        },
        {
          "duration": 0.25,
          "durationTicks": 384,
          "midi": 67,
          "name": "G4",
          "ticks": 143808,
          "time": 93.625,
          "velocity": 0.23622047244094488
        },
        {
          "duration": 0.25,
          "durationTicks": 384,
          "midi": 58,
          "name": "A#3",
          "ticks": 143808,
          "time": 93.625,
          "velocity": 0.3937007874015748
        },
        {
          "duration": 0.25,
          "durationTicks": 384,
          "midi": 62,
          "name": "D4",
          "ticks": 143808,
          "time": 93.625,
          "velocity": 0.3937007874015748
        },
        {
          "duration": 0.25,
          "durationTicks": 384,
          "midi": 55,
          "name": "G3",
          "ticks": 143808,
          "time": 93.625,
          "velocity": 0.3937007874015748
        },
        {
          "duration": 0.125,
          "durationTicks": 192,
          "midi": 62,
          "name": "D4",
          "ticks": 144192,
          "time": 93.875,
          "velocity": 0.2677165354330709
        },
        {
          "duration": 0.125,
          "durationTicks": 192,
          "midi": 55,
          "name": "G3",
          "ticks": 144192,
          "time": 93.875,
          "velocity": 0.2677165354330709
        },
        {
          "duration": 0.125,
          "durationTicks": 192,
          "midi": 67,
          "name": "G4",
          "ticks": 144192,
          "time": 93.875,
          "velocity": 0.11811023622047244
        },
        {
          "duration": 0.125,
          "durationTicks": 192,
          "midi": 58,
          "name": "A#3",
          "ticks": 144192,
          "time": 93.875,
          "velocity": 0.2677165354330709
        },
        {
          "duration": 0.375,
          "durationTicks": 576,
          "midi": 67,
          "name": "G4",
          "ticks": 144384,
          "time": 94,
          "velocity": 0.23622047244094488
        },
        {
          "duration": 0.375,
          "durationTicks": 576,
          "midi": 58,
          "name": "A#3",
          "ticks": 144384,
          "time": 94,
          "velocity": 0.3937007874015748
        },
        {
          "duration": 0.375,
          "durationTicks": 576,
          "midi": 62,
          "name": "D4",
          "ticks": 144384,
          "time": 94,
          "velocity": 0.3937007874015748
        },
        {
          "duration": 0.375,
          "durationTicks": 576,
          "midi": 57,
          "name": "A3",
          "ticks": 144384,
          "time": 94,
          "velocity": 0.07874015748031496
        },
        {
          "duration": 0.375,
          "durationTicks": 576,
          "midi": 55,
          "name": "G3",
          "ticks": 144384,
          "time": 94,
          "velocity": 0.3937007874015748
        },
        {
          "duration": 0.375,
          "durationTicks": 576,
          "midi": 55,
          "name": "G3",
          "ticks": 145152,
          "time": 94.5,
          "velocity": 0.3937007874015748
        },
        {
          "duration": 0.375,
          "durationTicks": 576,
          "midi": 58,
          "name": "A#3",
          "ticks": 145152,
          "time": 94.5,
          "velocity": 0.31496062992125984
        },
        {
          "duration": 0.375,
          "durationTicks": 576,
          "midi": 62,
          "name": "D4",
          "ticks": 145152,
          "time": 94.5,
          "velocity": 0.3937007874015748
        },
        {
          "duration": 0.375,
          "durationTicks": 576,
          "midi": 67,
          "name": "G4",
          "ticks": 145152,
          "time": 94.5,
          "velocity": 0.23622047244094488
        },
        {
          "duration": 0.375,
          "durationTicks": 576,
          "midi": 57,
          "name": "A3",
          "ticks": 145152,
          "time": 94.5,
          "velocity": 0.11811023622047244
        },
        {
          "duration": 0.125,
          "durationTicks": 192,
          "midi": 55,
          "name": "G3",
          "ticks": 145728,
          "time": 94.875,
          "velocity": 0.3937007874015748
        },
        {
          "duration": 0.125,
          "durationTicks": 192,
          "midi": 67,
          "name": "G4",
          "ticks": 145728,
          "time": 94.875,
          "velocity": 0.23622047244094488
        },
        {
          "duration": 0.125,
          "durationTicks": 192,
          "midi": 60,
          "name": "C4",
          "ticks": 145728,
          "time": 94.875,
          "velocity": 0.3937007874015748
        },
        {
          "duration": 0.125,
          "durationTicks": 192,
          "midi": 58,
          "name": "A#3",
          "ticks": 145728,
          "time": 94.875,
          "velocity": 0.1968503937007874
        },
        {
          "duration": 0.25,
          "durationTicks": 384,
          "midi": 58,
          "name": "A#3",
          "ticks": 146304,
          "time": 95.25,
          "velocity": 0.23622047244094488
        },
        {
          "duration": 0.25,
          "durationTicks": 384,
          "midi": 55,
          "name": "G3",
          "ticks": 146304,
          "time": 95.25,
          "velocity": 0.3937007874015748
        },
        {
          "duration": 0.25,
          "durationTicks": 384,
          "midi": 67,
          "name": "G4",
          "ticks": 146304,
          "time": 95.25,
          "velocity": 0.23622047244094488
        },
        {
          "duration": 0.25,
          "durationTicks": 384,
          "midi": 60,
          "name": "C4",
          "ticks": 146304,
          "time": 95.25,
          "velocity": 0.3937007874015748
        },
        {
          "duration": 0.125,
          "durationTicks": 192,
          "midi": 67,
          "name": "G4",
          "ticks": 146688,
          "time": 95.5,
          "velocity": 0.03937007874015748
        },
        {
          "duration": 0.125,
          "durationTicks": 192,
          "midi": 58,
          "name": "A#3",
          "ticks": 146688,
          "time": 95.5,
          "velocity": 0.07874015748031496
        },
        {
          "duration": 0.125,
          "durationTicks": 192,
          "midi": 60,
          "name": "C4",
          "ticks": 146688,
          "time": 95.5,
          "velocity": 0.1968503937007874
        },
        {
          "duration": 0.125,
          "durationTicks": 192,
          "midi": 55,
          "name": "G3",
          "ticks": 146688,
          "time": 95.5,
          "velocity": 0.1968503937007874
        },
        {
          "duration": 0.25,
          "durationTicks": 384,
          "midi": 58,
          "name": "A#3",
          "ticks": 146880,
          "time": 95.625,
          "velocity": 0.23622047244094488
        },
        {
          "duration": 0.25,
          "durationTicks": 384,
          "midi": 67,
          "name": "G4",
          "ticks": 146880,
          "time": 95.625,
          "velocity": 0.23622047244094488
        },
        {
          "duration": 0.25,
          "durationTicks": 384,
          "midi": 60,
          "name": "C4",
          "ticks": 146880,
          "time": 95.625,
          "velocity": 0.3937007874015748
        },
        {
          "duration": 0.25,
          "durationTicks": 384,
          "midi": 55,
          "name": "G3",
          "ticks": 146880,
          "time": 95.625,
          "velocity": 0.3937007874015748
        },
        {
          "duration": 0.125,
          "durationTicks": 192,
          "midi": 55,
          "name": "G3",
          "ticks": 147264,
          "time": 95.875,
          "velocity": 0.2677165354330709
        },
        {
          "duration": 0.125,
          "durationTicks": 192,
          "midi": 58,
          "name": "A#3",
          "ticks": 147264,
          "time": 95.875,
          "velocity": 0.15748031496062992
        },
        {
          "duration": 0.125,
          "durationTicks": 192,
          "midi": 60,
          "name": "C4",
          "ticks": 147264,
          "time": 95.875,
          "velocity": 0.2677165354330709
        },
        {
          "duration": 0.125,
          "durationTicks": 192,
          "midi": 67,
          "name": "G4",
          "ticks": 147264,
          "time": 95.875,
          "velocity": 0.11811023622047244
        },
        {
          "duration": 0.3125,
          "durationTicks": 480,
          "midi": 68,
          "name": "G#4",
          "ticks": 147456,
          "time": 96,
          "velocity": 0.3937007874015748
        },
        {
          "duration": 0.3125,
          "durationTicks": 480,
          "midi": 53,
          "name": "F3",
          "ticks": 147456,
          "time": 96,
          "velocity": 0.3937007874015748
        },
        {
          "duration": 0.3125,
          "durationTicks": 480,
          "midi": 65,
          "name": "F4",
          "ticks": 147456,
          "time": 96,
          "velocity": 0.23622047244094488
        },
        {
          "duration": 0.3125,
          "durationTicks": 480,
          "midi": 60,
          "name": "C4",
          "ticks": 147456,
          "time": 96,
          "velocity": 0.3937007874015748
        },
        {
          "duration": 0.3125,
          "durationTicks": 480,
          "midi": 67,
          "name": "G4",
          "ticks": 147456,
          "time": 96,
          "velocity": 0.15748031496062992
        },
        {
          "duration": 0.125,
          "durationTicks": 192,
          "midi": 53,
          "name": "F3",
          "ticks": 148032,
          "time": 96.375,
          "velocity": 0.23622047244094488
        },
        {
          "duration": 0.125,
          "durationTicks": 192,
          "midi": 65,
          "name": "F4",
          "ticks": 148032,
          "time": 96.375,
          "velocity": 0.07874015748031496
        },
        {
          "duration": 0.125,
          "durationTicks": 192,
          "midi": 67,
          "name": "G4",
          "ticks": 148032,
          "time": 96.375,
          "velocity": 0.03937007874015748
        },
        {
          "duration": 0.125,
          "durationTicks": 192,
          "midi": 60,
          "name": "C4",
          "ticks": 148032,
          "time": 96.375,
          "velocity": 0.23622047244094488
        },
        {
          "duration": 0.125,
          "durationTicks": 192,
          "midi": 68,
          "name": "G#4",
          "ticks": 148032,
          "time": 96.375,
          "velocity": 0.23622047244094488
        },
        {
          "duration": 0.375,
          "durationTicks": 576,
          "midi": 60,
          "name": "C4",
          "ticks": 148224,
          "time": 96.5,
          "velocity": 0.3937007874015748
        },
        {
          "duration": 0.375,
          "durationTicks": 576,
          "midi": 68,
          "name": "G#4",
          "ticks": 148224,
          "time": 96.5,
          "velocity": 0.31496062992125984
        },
        {
          "duration": 0.375,
          "durationTicks": 576,
          "midi": 53,
          "name": "F3",
          "ticks": 148224,
          "time": 96.5,
          "velocity": 0.3937007874015748
        },
        {
          "duration": 0.375,
          "durationTicks": 576,
          "midi": 65,
          "name": "F4",
          "ticks": 148224,
          "time": 96.5,
          "velocity": 0.23622047244094488
        },
        {
          "duration": 0.375,
          "durationTicks": 576,
          "midi": 67,
          "name": "G4",
          "ticks": 148224,
          "time": 96.5,
          "velocity": 0.1968503937007874
        },
        {
          "duration": 0.125,
          "durationTicks": 192,
          "midi": 53,
          "name": "F3",
          "ticks": 148800,
          "time": 96.875,
          "velocity": 0.3937007874015748
        },
        {
          "duration": 0.125,
          "durationTicks": 192,
          "midi": 60,
          "name": "C4",
          "ticks": 148800,
          "time": 96.875,
          "velocity": 0.3937007874015748
        },
        {
          "duration": 0.125,
          "durationTicks": 192,
          "midi": 65,
          "name": "F4",
          "ticks": 148800,
          "time": 96.875,
          "velocity": 0.23622047244094488
        },
        {
          "duration": 0.125,
          "durationTicks": 192,
          "midi": 68,
          "name": "G#4",
          "ticks": 148800,
          "time": 96.875,
          "velocity": 0.1968503937007874
        },
        {
          "duration": 0.25,
          "durationTicks": 384,
          "midi": 60,
          "name": "C4",
          "ticks": 149376,
          "time": 97.25,
          "velocity": 0.3937007874015748
        },
        {
          "duration": 0.25,
          "durationTicks": 384,
          "midi": 65,
          "name": "F4",
          "ticks": 149376,
          "time": 97.25,
          "velocity": 0.23622047244094488
        },
        {
          "duration": 0.25,
          "durationTicks": 384,
          "midi": 68,
          "name": "G#4",
          "ticks": 149376,
          "time": 97.25,
          "velocity": 0.23622047244094488
        },
        {
          "duration": 0.25,
          "durationTicks": 384,
          "midi": 53,
          "name": "F3",
          "ticks": 149376,
          "time": 97.25,
          "velocity": 0.3937007874015748
        },
        {
          "duration": 0.125,
          "durationTicks": 192,
          "midi": 68,
          "name": "G#4",
          "ticks": 149760,
          "time": 97.5,
          "velocity": 0.07874015748031496
        },
        {
          "duration": 0.125,
          "durationTicks": 192,
          "midi": 65,
          "name": "F4",
          "ticks": 149760,
          "time": 97.5,
          "velocity": 0.03937007874015748
        },
        {
          "duration": 0.125,
          "durationTicks": 192,
          "midi": 60,
          "name": "C4",
          "ticks": 149760,
          "time": 97.5,
          "velocity": 0.1968503937007874
        },
        {
          "duration": 0.125,
          "durationTicks": 192,
          "midi": 53,
          "name": "F3",
          "ticks": 149760,
          "time": 97.5,
          "velocity": 0.1968503937007874
        },
        {
          "duration": 0.25,
          "durationTicks": 384,
          "midi": 60,
          "name": "C4",
          "ticks": 149952,
          "time": 97.625,
          "velocity": 0.3937007874015748
        },
        {
          "duration": 0.25,
          "durationTicks": 384,
          "midi": 68,
          "name": "G#4",
          "ticks": 149952,
          "time": 97.625,
          "velocity": 0.23622047244094488
        },
        {
          "duration": 0.25,
          "durationTicks": 384,
          "midi": 65,
          "name": "F4",
          "ticks": 149952,
          "time": 97.625,
          "velocity": 0.23622047244094488
        },
        {
          "duration": 0.25,
          "durationTicks": 384,
          "midi": 53,
          "name": "F3",
          "ticks": 149952,
          "time": 97.625,
          "velocity": 0.3937007874015748
        },
        {
          "duration": 0.125,
          "durationTicks": 192,
          "midi": 53,
          "name": "F3",
          "ticks": 150336,
          "time": 97.875,
          "velocity": 0.2677165354330709
        },
        {
          "duration": 0.125,
          "durationTicks": 192,
          "midi": 60,
          "name": "C4",
          "ticks": 150336,
          "time": 97.875,
          "velocity": 0.2677165354330709
        },
        {
          "duration": 0.125,
          "durationTicks": 192,
          "midi": 65,
          "name": "F4",
          "ticks": 150336,
          "time": 97.875,
          "velocity": 0.11811023622047244
        },
        {
          "duration": 0.125,
          "durationTicks": 192,
          "midi": 68,
          "name": "G#4",
          "ticks": 150336,
          "time": 97.875,
          "velocity": 0.15748031496062992
        },
        {
          "duration": 0.3125,
          "durationTicks": 480,
          "midi": 60,
          "name": "C4",
          "ticks": 150528,
          "time": 98,
          "velocity": 0.3464566929133858
        },
        {
          "duration": 0.3125,
          "durationTicks": 480,
          "midi": 65,
          "name": "F4",
          "ticks": 150528,
          "time": 98,
          "velocity": 0.07874015748031496
        },
        {
          "duration": 0.3125,
          "durationTicks": 480,
          "midi": 62,
          "name": "D4",
          "ticks": 150528,
          "time": 98,
          "velocity": 0.07874015748031496
        },
        {
          "duration": 0.3125,
          "durationTicks": 480,
          "midi": 67,
          "name": "G4",
          "ticks": 150528,
          "time": 98,
          "velocity": 0.3937007874015748
        },
        {
          "duration": 0.3125,
          "durationTicks": 480,
          "midi": 53,
          "name": "F3",
          "ticks": 150528,
          "time": 98,
          "velocity": 0.3937007874015748
        },
        {
          "duration": 0.125,
          "durationTicks": 192,
          "midi": 60,
          "name": "C4",
          "ticks": 151104,
          "time": 98.375,
          "velocity": 0.1968503937007874
        },
        {
          "duration": 0.125,
          "durationTicks": 192,
          "midi": 53,
          "name": "F3",
          "ticks": 151104,
          "time": 98.375,
          "velocity": 0.23622047244094488
        },
        {
          "duration": 0.125,
          "durationTicks": 192,
          "midi": 65,
          "name": "F4",
          "ticks": 151104,
          "time": 98.375,
          "velocity": 0.03937007874015748
        },
        {
          "duration": 0.125,
          "durationTicks": 192,
          "midi": 62,
          "name": "D4",
          "ticks": 151104,
          "time": 98.375,
          "velocity": 0.07874015748031496
        },
        {
          "duration": 0.125,
          "durationTicks": 192,
          "midi": 67,
          "name": "G4",
          "ticks": 151104,
          "time": 98.375,
          "velocity": 0.23622047244094488
        },
        {
          "duration": 0.375,
          "durationTicks": 576,
          "midi": 53,
          "name": "F3",
          "ticks": 151296,
          "time": 98.5,
          "velocity": 0.3937007874015748
        },
        {
          "duration": 0.375,
          "durationTicks": 576,
          "midi": 62,
          "name": "D4",
          "ticks": 151296,
          "time": 98.5,
          "velocity": 0.07874015748031496
        },
        {
          "duration": 0.375,
          "durationTicks": 576,
          "midi": 67,
          "name": "G4",
          "ticks": 151296,
          "time": 98.5,
          "velocity": 0.31496062992125984
        },
        {
          "duration": 0.375,
          "durationTicks": 576,
          "midi": 65,
          "name": "F4",
          "ticks": 151296,
          "time": 98.5,
          "velocity": 0.07874015748031496
        },
        {
          "duration": 0.375,
          "durationTicks": 576,
          "midi": 60,
          "name": "C4",
          "ticks": 151296,
          "time": 98.5,
          "velocity": 0.3464566929133858
        },
        {
          "duration": 0.125,
          "durationTicks": 192,
          "midi": 67,
          "name": "G4",
          "ticks": 151872,
          "time": 98.875,
          "velocity": 0.1968503937007874
        },
        {
          "duration": 0.125,
          "durationTicks": 192,
          "midi": 65,
          "name": "F4",
          "ticks": 151872,
          "time": 98.875,
          "velocity": 0.07874015748031496
        },
        {
          "duration": 0.125,
          "durationTicks": 192,
          "midi": 60,
          "name": "C4",
          "ticks": 151872,
          "time": 98.875,
          "velocity": 0.1968503937007874
        },
        {
          "duration": 0.125,
          "durationTicks": 192,
          "midi": 53,
          "name": "F3",
          "ticks": 151872,
          "time": 98.875,
          "velocity": 0.3937007874015748
        },
        {
          "duration": 0.125,
          "durationTicks": 192,
          "midi": 62,
          "name": "D4",
          "ticks": 151872,
          "time": 98.875,
          "velocity": 0.3464566929133858
        },
        {
          "duration": 0.25,
          "durationTicks": 384,
          "midi": 60,
          "name": "C4",
          "ticks": 152448,
          "time": 99.25,
          "velocity": 0.1968503937007874
        },
        {
          "duration": 0.25,
          "durationTicks": 384,
          "midi": 53,
          "name": "F3",
          "ticks": 152448,
          "time": 99.25,
          "velocity": 0.3937007874015748
        },
        {
          "duration": 0.25,
          "durationTicks": 384,
          "midi": 65,
          "name": "F4",
          "ticks": 152448,
          "time": 99.25,
          "velocity": 0.07874015748031496
        },
        {
          "duration": 0.25,
          "durationTicks": 384,
          "midi": 67,
          "name": "G4",
          "ticks": 152448,
          "time": 99.25,
          "velocity": 0.23622047244094488
        },
        {
          "duration": 0.25,
          "durationTicks": 384,
          "midi": 62,
          "name": "D4",
          "ticks": 152448,
          "time": 99.25,
          "velocity": 0.2677165354330709
        },
        {
          "duration": 0.125,
          "durationTicks": 192,
          "midi": 67,
          "name": "G4",
          "ticks": 152832,
          "time": 99.5,
          "velocity": 0.07874015748031496
        },
        {
          "duration": 0.125,
          "durationTicks": 192,
          "midi": 65,
          "name": "F4",
          "ticks": 152832,
          "time": 99.5,
          "velocity": 0.03937007874015748
        },
        {
          "duration": 0.125,
          "durationTicks": 192,
          "midi": 62,
          "name": "D4",
          "ticks": 152832,
          "time": 99.5,
          "velocity": 0.2677165354330709
        },
        {
          "duration": 0.125,
          "durationTicks": 192,
          "midi": 53,
          "name": "F3",
          "ticks": 152832,
          "time": 99.5,
          "velocity": 0.1968503937007874
        },
        {
          "duration": 0.25,
          "durationTicks": 384,
          "midi": 53,
          "name": "F3",
          "ticks": 153024,
          "time": 99.625,
          "velocity": 0.3937007874015748
        },
        {
          "duration": 0.25,
          "durationTicks": 384,
          "midi": 67,
          "name": "G4",
          "ticks": 153024,
          "time": 99.625,
          "velocity": 0.23622047244094488
        },
        {
          "duration": 0.25,
          "durationTicks": 384,
          "midi": 65,
          "name": "F4",
          "ticks": 153024,
          "time": 99.625,
          "velocity": 0.07874015748031496
        },
        {
          "duration": 0.25,
          "durationTicks": 384,
          "midi": 62,
          "name": "D4",
          "ticks": 153024,
          "time": 99.625,
          "velocity": 0.2677165354330709
        },
        {
          "duration": 0,
          "durationTicks": 0,
          "midi": 60,
          "name": "C4",
          "ticks": 153024,
          "time": 99.625,
          "velocity": 0.1968503937007874
        },
        {
          "duration": 0.125,
          "durationTicks": 192,
          "midi": 62,
          "name": "D4",
          "ticks": 153408,
          "time": 99.875,
          "velocity": 0.2677165354330709
        },
        {
          "duration": 0,
          "durationTicks": 0,
          "midi": 60,
          "name": "C4",
          "ticks": 153408,
          "time": 99.875,
          "velocity": 0.07874015748031496
        },
        {
          "duration": 0.125,
          "durationTicks": 192,
          "midi": 67,
          "name": "G4",
          "ticks": 153408,
          "time": 99.875,
          "velocity": 0.15748031496062992
        },
        {
          "duration": 0.125,
          "durationTicks": 192,
          "midi": 53,
          "name": "F3",
          "ticks": 153408,
          "time": 99.875,
          "velocity": 0.2677165354330709
        },
        {
          "duration": 0.125,
          "durationTicks": 192,
          "midi": 65,
          "name": "F4",
          "ticks": 153408,
          "time": 99.875,
          "velocity": 0.03937007874015748
        },
        {
          "duration": 0.3125,
          "durationTicks": 480,
          "midi": 59,
          "name": "B3",
          "ticks": 153600,
          "time": 100,
          "velocity": 0.1968503937007874
        },
        {
          "duration": 0.3125,
          "durationTicks": 480,
          "midi": 53,
          "name": "F3",
          "ticks": 153600,
          "time": 100,
          "velocity": 0.3937007874015748
        },
        {
          "duration": 0.3125,
          "durationTicks": 480,
          "midi": 67,
          "name": "G4",
          "ticks": 153600,
          "time": 100,
          "velocity": 0.2677165354330709
        },
        {
          "duration": 0.3125,
          "durationTicks": 480,
          "midi": 57,
          "name": "A3",
          "ticks": 153600,
          "time": 100,
          "velocity": 0.1968503937007874
        },
        {
          "duration": 0.3125,
          "durationTicks": 480,
          "midi": 64,
          "name": "E4",
          "ticks": 153600,
          "time": 100,
          "velocity": 0.2677165354330709
        },
        {
          "duration": 0.125,
          "durationTicks": 192,
          "midi": 57,
          "name": "A3",
          "ticks": 154176,
          "time": 100.375,
          "velocity": 0.15748031496062992
        },
        {
          "duration": 0.125,
          "durationTicks": 192,
          "midi": 53,
          "name": "F3",
          "ticks": 154176,
          "time": 100.375,
          "velocity": 0.23622047244094488
        },
        {
          "duration": 0.125,
          "durationTicks": 192,
          "midi": 64,
          "name": "E4",
          "ticks": 154176,
          "time": 100.375,
          "velocity": 0.23622047244094488
        },
        {
          "duration": 0.125,
          "durationTicks": 192,
          "midi": 59,
          "name": "B3",
          "ticks": 154176,
          "time": 100.375,
          "velocity": 0.15748031496062992
        },
        {
          "duration": 0.125,
          "durationTicks": 192,
          "midi": 67,
          "name": "G4",
          "ticks": 154176,
          "time": 100.375,
          "velocity": 0.11811023622047244
        },
        {
          "duration": 0.375,
          "durationTicks": 576,
          "midi": 57,
          "name": "A3",
          "ticks": 154368,
          "time": 100.5,
          "velocity": 0.1968503937007874
        },
        {
          "duration": 0.375,
          "durationTicks": 576,
          "midi": 59,
          "name": "B3",
          "ticks": 154368,
          "time": 100.5,
          "velocity": 0.1968503937007874
        },
        {
          "duration": 0.375,
          "durationTicks": 576,
          "midi": 64,
          "name": "E4",
          "ticks": 154368,
          "time": 100.5,
          "velocity": 0.2677165354330709
        },
        {
          "duration": 0.375,
          "durationTicks": 576,
          "midi": 67,
          "name": "G4",
          "ticks": 154368,
          "time": 100.5,
          "velocity": 0.1968503937007874
        },
        {
          "duration": 0.375,
          "durationTicks": 576,
          "midi": 53,
          "name": "F3",
          "ticks": 154368,
          "time": 100.5,
          "velocity": 0.3937007874015748
        },
        {
          "duration": 0.125,
          "durationTicks": 192,
          "midi": 53,
          "name": "F3",
          "ticks": 154944,
          "time": 100.875,
          "velocity": 0.3937007874015748
        },
        {
          "duration": 0.125,
          "durationTicks": 192,
          "midi": 59,
          "name": "B3",
          "ticks": 154944,
          "time": 100.875,
          "velocity": 0.1968503937007874
        },
        {
          "duration": 0.125,
          "durationTicks": 192,
          "midi": 57,
          "name": "A3",
          "ticks": 154944,
          "time": 100.875,
          "velocity": 0.1968503937007874
        },
        {
          "duration": 0.125,
          "durationTicks": 192,
          "midi": 67,
          "name": "G4",
          "ticks": 154944,
          "time": 100.875,
          "velocity": 0.07874015748031496
        },
        {
          "duration": 0.125,
          "durationTicks": 192,
          "midi": 64,
          "name": "E4",
          "ticks": 154944,
          "time": 100.875,
          "velocity": 0.2677165354330709
        },
        {
          "duration": 0.25,
          "durationTicks": 384,
          "midi": 53,
          "name": "F3",
          "ticks": 155520,
          "time": 101.25,
          "velocity": 0.3937007874015748
        },
        {
          "duration": 0.25,
          "durationTicks": 384,
          "midi": 57,
          "name": "A3",
          "ticks": 155520,
          "time": 101.25,
          "velocity": 0.1968503937007874
        },
        {
          "duration": 0.25,
          "durationTicks": 384,
          "midi": 59,
          "name": "B3",
          "ticks": 155520,
          "time": 101.25,
          "velocity": 0.1968503937007874
        },
        {
          "duration": 0.25,
          "durationTicks": 384,
          "midi": 64,
          "name": "E4",
          "ticks": 155520,
          "time": 101.25,
          "velocity": 0.2677165354330709
        },
        {
          "duration": 0.25,
          "durationTicks": 384,
          "midi": 67,
          "name": "G4",
          "ticks": 155520,
          "time": 101.25,
          "velocity": 0.11811023622047244
        },
        {
          "duration": 0.125,
          "durationTicks": 192,
          "midi": 53,
          "name": "F3",
          "ticks": 155904,
          "time": 101.5,
          "velocity": 0.1968503937007874
        },
        {
          "duration": 0.125,
          "durationTicks": 192,
          "midi": 64,
          "name": "E4",
          "ticks": 155904,
          "time": 101.5,
          "velocity": 0.23622047244094488
        },
        {
          "duration": 0.125,
          "durationTicks": 192,
          "midi": 57,
          "name": "A3",
          "ticks": 155904,
          "time": 101.5,
          "velocity": 0.15748031496062992
        },
        {
          "duration": 0.125,
          "durationTicks": 192,
          "midi": 59,
          "name": "B3",
          "ticks": 155904,
          "time": 101.5,
          "velocity": 0.15748031496062992
        },
        {
          "duration": 0.25,
          "durationTicks": 384,
          "midi": 53,
          "name": "F3",
          "ticks": 156096,
          "time": 101.625,
          "velocity": 0.3937007874015748
        },
        {
          "duration": 0,
          "durationTicks": 0,
          "midi": 67,
          "name": "G4",
          "ticks": 156096,
          "time": 101.625,
          "velocity": 0.11811023622047244
        },
        {
          "duration": 0.25,
          "durationTicks": 384,
          "midi": 64,
          "name": "E4",
          "ticks": 156096,
          "time": 101.625,
          "velocity": 0.2677165354330709
        },
        {
          "duration": 0.25,
          "durationTicks": 384,
          "midi": 59,
          "name": "B3",
          "ticks": 156096,
          "time": 101.625,
          "velocity": 0.1968503937007874
        },
        {
          "duration": 0.25,
          "durationTicks": 384,
          "midi": 57,
          "name": "A3",
          "ticks": 156096,
          "time": 101.625,
          "velocity": 0.1968503937007874
        },
        {
          "duration": 0,
          "durationTicks": 0,
          "midi": 67,
          "name": "G4",
          "ticks": 156480,
          "time": 101.875,
          "velocity": 0.03937007874015748
        },
        {
          "duration": 0.125,
          "durationTicks": 192,
          "midi": 53,
          "name": "F3",
          "ticks": 156480,
          "time": 101.875,
          "velocity": 0.2677165354330709
        },
        {
          "duration": 0.125,
          "durationTicks": 192,
          "midi": 59,
          "name": "B3",
          "ticks": 156480,
          "time": 101.875,
          "velocity": 0.15748031496062992
        },
        {
          "duration": 0.125,
          "durationTicks": 192,
          "midi": 64,
          "name": "E4",
          "ticks": 156480,
          "time": 101.875,
          "velocity": 0.23622047244094488
        },
        {
          "duration": 0.125,
          "durationTicks": 192,
          "midi": 57,
          "name": "A3",
          "ticks": 156480,
          "time": 101.875,
          "velocity": 0.15748031496062992
        },
        {
          "duration": 0.3125,
          "durationTicks": 480,
          "midi": 64,
          "name": "E4",
          "ticks": 156672,
          "time": 102,
          "velocity": 0.2677165354330709
        },
        {
          "duration": 0.3125,
          "durationTicks": 480,
          "midi": 59,
          "name": "B3",
          "ticks": 156672,
          "time": 102,
          "velocity": 0.1968503937007874
        },
        {
          "duration": 0.3125,
          "durationTicks": 480,
          "midi": 57,
          "name": "A3",
          "ticks": 156672,
          "time": 102,
          "velocity": 0.1968503937007874
        },
        {
          "duration": 0.3125,
          "durationTicks": 480,
          "midi": 55,
          "name": "G3",
          "ticks": 156672,
          "time": 102,
          "velocity": 0.3937007874015748
        },
        {
          "duration": 0.125,
          "durationTicks": 192,
          "midi": 59,
          "name": "B3",
          "ticks": 157248,
          "time": 102.375,
          "velocity": 0.15748031496062992
        },
        {
          "duration": 0.125,
          "durationTicks": 192,
          "midi": 64,
          "name": "E4",
          "ticks": 157248,
          "time": 102.375,
          "velocity": 0.23622047244094488
        },
        {
          "duration": 0.125,
          "durationTicks": 192,
          "midi": 57,
          "name": "A3",
          "ticks": 157248,
          "time": 102.375,
          "velocity": 0.15748031496062992
        },
        {
          "duration": 0.125,
          "durationTicks": 192,
          "midi": 55,
          "name": "G3",
          "ticks": 157248,
          "time": 102.375,
          "velocity": 0.23622047244094488
        },
        {
          "duration": 0.375,
          "durationTicks": 576,
          "midi": 57,
          "name": "A3",
          "ticks": 157440,
          "time": 102.5,
          "velocity": 0.1968503937007874
        },
        {
          "duration": 0.375,
          "durationTicks": 576,
          "midi": 59,
          "name": "B3",
          "ticks": 157440,
          "time": 102.5,
          "velocity": 0.1968503937007874
        },
        {
          "duration": 0.375,
          "durationTicks": 576,
          "midi": 64,
          "name": "E4",
          "ticks": 157440,
          "time": 102.5,
          "velocity": 0.2677165354330709
        },
        {
          "duration": 0.375,
          "durationTicks": 576,
          "midi": 55,
          "name": "G3",
          "ticks": 157440,
          "time": 102.5,
          "velocity": 0.3937007874015748
        },
        {
          "duration": 0.125,
          "durationTicks": 192,
          "midi": 59,
          "name": "B3",
          "ticks": 158016,
          "time": 102.875,
          "velocity": 0.1968503937007874
        },
        {
          "duration": 0.125,
          "durationTicks": 192,
          "midi": 57,
          "name": "A3",
          "ticks": 158016,
          "time": 102.875,
          "velocity": 0.1968503937007874
        },
        {
          "duration": 0.125,
          "durationTicks": 192,
          "midi": 64,
          "name": "E4",
          "ticks": 158016,
          "time": 102.875,
          "velocity": 0.2677165354330709
        },
        {
          "duration": 0.125,
          "durationTicks": 192,
          "midi": 52,
          "name": "E3",
          "ticks": 158016,
          "time": 102.875,
          "velocity": 0.1968503937007874
        },
        {
          "duration": 0.25,
          "durationTicks": 384,
          "midi": 59,
          "name": "B3",
          "ticks": 158592,
          "time": 103.25,
          "velocity": 0.1968503937007874
        },
        {
          "duration": 0.25,
          "durationTicks": 384,
          "midi": 52,
          "name": "E3",
          "ticks": 158592,
          "time": 103.25,
          "velocity": 0.2677165354330709
        },
        {
          "duration": 0.25,
          "durationTicks": 384,
          "midi": 64,
          "name": "E4",
          "ticks": 158592,
          "time": 103.25,
          "velocity": 0.2677165354330709
        },
        {
          "duration": 0.25,
          "durationTicks": 384,
          "midi": 57,
          "name": "A3",
          "ticks": 158592,
          "time": 103.25,
          "velocity": 0.1968503937007874
        },
        {
          "duration": 0.125,
          "durationTicks": 192,
          "midi": 59,
          "name": "B3",
          "ticks": 158976,
          "time": 103.5,
          "velocity": 0.15748031496062992
        },
        {
          "duration": 0.125,
          "durationTicks": 192,
          "midi": 57,
          "name": "A3",
          "ticks": 158976,
          "time": 103.5,
          "velocity": 0.15748031496062992
        },
        {
          "duration": 0.125,
          "durationTicks": 192,
          "midi": 52,
          "name": "E3",
          "ticks": 158976,
          "time": 103.5,
          "velocity": 0.07874015748031496
        },
        {
          "duration": 0.125,
          "durationTicks": 192,
          "midi": 64,
          "name": "E4",
          "ticks": 158976,
          "time": 103.5,
          "velocity": 0.23622047244094488
        },
        {
          "duration": 0.25,
          "durationTicks": 384,
          "midi": 59,
          "name": "B3",
          "ticks": 159168,
          "time": 103.625,
          "velocity": 0.1968503937007874
        },
        {
          "duration": 0.25,
          "durationTicks": 384,
          "midi": 52,
          "name": "E3",
          "ticks": 159168,
          "time": 103.625,
          "velocity": 0.2677165354330709
        },
        {
          "duration": 0.25,
          "durationTicks": 384,
          "midi": 57,
          "name": "A3",
          "ticks": 159168,
          "time": 103.625,
          "velocity": 0.1968503937007874
        },
        {
          "duration": 0.25,
          "durationTicks": 384,
          "midi": 64,
          "name": "E4",
          "ticks": 159168,
          "time": 103.625,
          "velocity": 0.2677165354330709
        },
        {
          "duration": 0.125,
          "durationTicks": 192,
          "midi": 57,
          "name": "A3",
          "ticks": 159552,
          "time": 103.875,
          "velocity": 0.15748031496062992
        },
        {
          "duration": 0.125,
          "durationTicks": 192,
          "midi": 59,
          "name": "B3",
          "ticks": 159552,
          "time": 103.875,
          "velocity": 0.15748031496062992
        },
        {
          "duration": 0.125,
          "durationTicks": 192,
          "midi": 64,
          "name": "E4",
          "ticks": 159552,
          "time": 103.875,
          "velocity": 0.23622047244094488
        },
        {
          "duration": 0.125,
          "durationTicks": 192,
          "midi": 52,
          "name": "E3",
          "ticks": 159552,
          "time": 103.875,
          "velocity": 0.15748031496062992
        },
        {
          "duration": 0.3125,
          "durationTicks": 480,
          "midi": 48,
          "name": "C3",
          "ticks": 159744,
          "time": 104,
          "velocity": 0.3937007874015748
        },
        {
          "duration": 0.3125,
          "durationTicks": 480,
          "midi": 59,
          "name": "B3",
          "ticks": 159744,
          "time": 104,
          "velocity": 0.11811023622047244
        },
        {
          "duration": 0.3125,
          "durationTicks": 480,
          "midi": 57,
          "name": "A3",
          "ticks": 159744,
          "time": 104,
          "velocity": 0.1968503937007874
        },
        {
          "duration": 0.3125,
          "durationTicks": 480,
          "midi": 60,
          "name": "C4",
          "ticks": 159744,
          "time": 104,
          "velocity": 0.31496062992125984
        },
        {
          "duration": 0.125,
          "durationTicks": 192,
          "midi": 60,
          "name": "C4",
          "ticks": 160320,
          "time": 104.375,
          "velocity": 0.2677165354330709
        },
        {
          "duration": 0.125,
          "durationTicks": 192,
          "midi": 59,
          "name": "B3",
          "ticks": 160320,
          "time": 104.375,
          "velocity": 0.07874015748031496
        },
        {
          "duration": 0.125,
          "durationTicks": 192,
          "midi": 48,
          "name": "C3",
          "ticks": 160320,
          "time": 104.375,
          "velocity": 0.23622047244094488
        },
        {
          "duration": 0.125,
          "durationTicks": 192,
          "midi": 57,
          "name": "A3",
          "ticks": 160320,
          "time": 104.375,
          "velocity": 0.15748031496062992
        },
        {
          "duration": 0.375,
          "durationTicks": 576,
          "midi": 59,
          "name": "B3",
          "ticks": 160512,
          "time": 104.5,
          "velocity": 0.11811023622047244
        },
        {
          "duration": 0.375,
          "durationTicks": 576,
          "midi": 60,
          "name": "C4",
          "ticks": 160512,
          "time": 104.5,
          "velocity": 0.31496062992125984
        },
        {
          "duration": 0.375,
          "durationTicks": 576,
          "midi": 48,
          "name": "C3",
          "ticks": 160512,
          "time": 104.5,
          "velocity": 0.3937007874015748
        },
        {
          "duration": 0.375,
          "durationTicks": 576,
          "midi": 57,
          "name": "A3",
          "ticks": 160512,
          "time": 104.5,
          "velocity": 0.1968503937007874
        },
        {
          "duration": 0.125,
          "durationTicks": 192,
          "midi": 48,
          "name": "C3",
          "ticks": 161088,
          "time": 104.875,
          "velocity": 0.1968503937007874
        },
        {
          "duration": 0.125,
          "durationTicks": 192,
          "midi": 57,
          "name": "A3",
          "ticks": 161088,
          "time": 104.875,
          "velocity": 0.1968503937007874
        },
        {
          "duration": 0.125,
          "durationTicks": 192,
          "midi": 60,
          "name": "C4",
          "ticks": 161088,
          "time": 104.875,
          "velocity": 0.31496062992125984
        },
        {
          "duration": 0.125,
          "durationTicks": 192,
          "midi": 59,
          "name": "B3",
          "ticks": 161088,
          "time": 104.875,
          "velocity": 0.11811023622047244
        },
        {
          "duration": 0.25,
          "durationTicks": 384,
          "midi": 59,
          "name": "B3",
          "ticks": 161664,
          "time": 105.25,
          "velocity": 0.11811023622047244
        },
        {
          "duration": 0.25,
          "durationTicks": 384,
          "midi": 60,
          "name": "C4",
          "ticks": 161664,
          "time": 105.25,
          "velocity": 0.31496062992125984
        },
        {
          "duration": 0.25,
          "durationTicks": 384,
          "midi": 48,
          "name": "C3",
          "ticks": 161664,
          "time": 105.25,
          "velocity": 0.2677165354330709
        },
        {
          "duration": 0.25,
          "durationTicks": 384,
          "midi": 57,
          "name": "A3",
          "ticks": 161664,
          "time": 105.25,
          "velocity": 0.1968503937007874
        },
        {
          "duration": 0.125,
          "durationTicks": 192,
          "midi": 48,
          "name": "C3",
          "ticks": 162048,
          "time": 105.5,
          "velocity": 0.07874015748031496
        },
        {
          "duration": 0.125,
          "durationTicks": 192,
          "midi": 59,
          "name": "B3",
          "ticks": 162048,
          "time": 105.5,
          "velocity": 0.07874015748031496
        },
        {
          "duration": 0.125,
          "durationTicks": 192,
          "midi": 57,
          "name": "A3",
          "ticks": 162048,
          "time": 105.5,
          "velocity": 0.15748031496062992
        },
        {
          "duration": 0.125,
          "durationTicks": 192,
          "midi": 60,
          "name": "C4",
          "ticks": 162048,
          "time": 105.5,
          "velocity": 0.2677165354330709
        },
        {
          "duration": 0.25,
          "durationTicks": 384,
          "midi": 59,
          "name": "B3",
          "ticks": 162240,
          "time": 105.625,
          "velocity": 0.11811023622047244
        },
        {
          "duration": 0.25,
          "durationTicks": 384,
          "midi": 60,
          "name": "C4",
          "ticks": 162240,
          "time": 105.625,
          "velocity": 0.31496062992125984
        },
        {
          "duration": 0.25,
          "durationTicks": 384,
          "midi": 48,
          "name": "C3",
          "ticks": 162240,
          "time": 105.625,
          "velocity": 0.2677165354330709
        },
        {
          "duration": 0.25,
          "durationTicks": 384,
          "midi": 57,
          "name": "A3",
          "ticks": 162240,
          "time": 105.625,
          "velocity": 0.1968503937007874
        },
        {
          "duration": 0.125,
          "durationTicks": 192,
          "midi": 60,
          "name": "C4",
          "ticks": 162624,
          "time": 105.875,
          "velocity": 0.23622047244094488
        },
        {
          "duration": 0.125,
          "durationTicks": 192,
          "midi": 57,
          "name": "A3",
          "ticks": 162624,
          "time": 105.875,
          "velocity": 0.15748031496062992
        },
        {
          "duration": 0.125,
          "durationTicks": 192,
          "midi": 48,
          "name": "C3",
          "ticks": 162624,
          "time": 105.875,
          "velocity": 0.15748031496062992
        },
        {
          "duration": 0.125,
          "durationTicks": 192,
          "midi": 59,
          "name": "B3",
          "ticks": 162624,
          "time": 105.875,
          "velocity": 0.07874015748031496
        },
        {
          "duration": 0.3125,
          "durationTicks": 480,
          "midi": 52,
          "name": "E3",
          "ticks": 162816,
          "time": 106,
          "velocity": 0.3937007874015748
        },
        {
          "duration": 0.3125,
          "durationTicks": 480,
          "midi": 60,
          "name": "C4",
          "ticks": 162816,
          "time": 106,
          "velocity": 0.11811023622047244
        },
        {
          "duration": 0.3125,
          "durationTicks": 480,
          "midi": 62,
          "name": "D4",
          "ticks": 162816,
          "time": 106,
          "velocity": 0.31496062992125984
        },
        {
          "duration": 0.3125,
          "durationTicks": 480,
          "midi": 59,
          "name": "B3",
          "ticks": 162816,
          "time": 106,
          "velocity": 0.1968503937007874
        },
        {
          "duration": 0.125,
          "durationTicks": 192,
          "midi": 60,
          "name": "C4",
          "ticks": 163392,
          "time": 106.375,
          "velocity": 0.07874015748031496
        },
        {
          "duration": 0.125,
          "durationTicks": 192,
          "midi": 59,
          "name": "B3",
          "ticks": 163392,
          "time": 106.375,
          "velocity": 0.15748031496062992
        },
        {
          "duration": 0.125,
          "durationTicks": 192,
          "midi": 62,
          "name": "D4",
          "ticks": 163392,
          "time": 106.375,
          "velocity": 0.2677165354330709
        },
        {
          "duration": 0.125,
          "durationTicks": 192,
          "midi": 52,
          "name": "E3",
          "ticks": 163392,
          "time": 106.375,
          "velocity": 0.23622047244094488
        },
        {
          "duration": 0.375,
          "durationTicks": 576,
          "midi": 59,
          "name": "B3",
          "ticks": 163584,
          "time": 106.5,
          "velocity": 0.1968503937007874
        },
        {
          "duration": 0.375,
          "durationTicks": 576,
          "midi": 60,
          "name": "C4",
          "ticks": 163584,
          "time": 106.5,
          "velocity": 0.11811023622047244
        },
        {
          "duration": 0.375,
          "durationTicks": 576,
          "midi": 62,
          "name": "D4",
          "ticks": 163584,
          "time": 106.5,
          "velocity": 0.31496062992125984
        },
        {
          "duration": 0.375,
          "durationTicks": 576,
          "midi": 52,
          "name": "E3",
          "ticks": 163584,
          "time": 106.5,
          "velocity": 0.3937007874015748
        },
        {
          "duration": 0.125,
          "durationTicks": 192,
          "midi": 52,
          "name": "E3",
          "ticks": 164160,
          "time": 106.875,
          "velocity": 0.1968503937007874
        },
        {
          "duration": 0.125,
          "durationTicks": 192,
          "midi": 59,
          "name": "B3",
          "ticks": 164160,
          "time": 106.875,
          "velocity": 0.1968503937007874
        },
        {
          "duration": 0.125,
          "durationTicks": 192,
          "midi": 62,
          "name": "D4",
          "ticks": 164160,
          "time": 106.875,
          "velocity": 0.31496062992125984
        },
        {
          "duration": 0.125,
          "durationTicks": 192,
          "midi": 60,
          "name": "C4",
          "ticks": 164160,
          "time": 106.875,
          "velocity": 0.11811023622047244
        },
        {
          "duration": 0.25,
          "durationTicks": 384,
          "midi": 62,
          "name": "D4",
          "ticks": 164736,
          "time": 107.25,
          "velocity": 0.31496062992125984
        },
        {
          "duration": 0.25,
          "durationTicks": 384,
          "midi": 60,
          "name": "C4",
          "ticks": 164736,
          "time": 107.25,
          "velocity": 0.11811023622047244
        },
        {
          "duration": 0.25,
          "durationTicks": 384,
          "midi": 59,
          "name": "B3",
          "ticks": 164736,
          "time": 107.25,
          "velocity": 0.1968503937007874
        },
        {
          "duration": 0.25,
          "durationTicks": 384,
          "midi": 52,
          "name": "E3",
          "ticks": 164736,
          "time": 107.25,
          "velocity": 0.2677165354330709
        },
        {
          "duration": 0.125,
          "durationTicks": 192,
          "midi": 60,
          "name": "C4",
          "ticks": 165120,
          "time": 107.5,
          "velocity": 0.07874015748031496
        },
        {
          "duration": 0.125,
          "durationTicks": 192,
          "midi": 52,
          "name": "E3",
          "ticks": 165120,
          "time": 107.5,
          "velocity": 0.07874015748031496
        },
        {
          "duration": 0.125,
          "durationTicks": 192,
          "midi": 59,
          "name": "B3",
          "ticks": 165120,
          "time": 107.5,
          "velocity": 0.15748031496062992
        },
        {
          "duration": 0.125,
          "durationTicks": 192,
          "midi": 62,
          "name": "D4",
          "ticks": 165120,
          "time": 107.5,
          "velocity": 0.2677165354330709
        },
        {
          "duration": 0.25,
          "durationTicks": 384,
          "midi": 52,
          "name": "E3",
          "ticks": 165312,
          "time": 107.625,
          "velocity": 0.2677165354330709
        },
        {
          "duration": 0.25,
          "durationTicks": 384,
          "midi": 62,
          "name": "D4",
          "ticks": 165312,
          "time": 107.625,
          "velocity": 0.31496062992125984
        },
        {
          "duration": 0.25,
          "durationTicks": 384,
          "midi": 59,
          "name": "B3",
          "ticks": 165312,
          "time": 107.625,
          "velocity": 0.1968503937007874
        },
        {
          "duration": 0.25,
          "durationTicks": 384,
          "midi": 60,
          "name": "C4",
          "ticks": 165312,
          "time": 107.625,
          "velocity": 0.11811023622047244
        },
        {
          "duration": 0.125,
          "durationTicks": 192,
          "midi": 59,
          "name": "B3",
          "ticks": 165696,
          "time": 107.875,
          "velocity": 0.15748031496062992
        },
        {
          "duration": 0.125,
          "durationTicks": 192,
          "midi": 62,
          "name": "D4",
          "ticks": 165696,
          "time": 107.875,
          "velocity": 0.23622047244094488
        },
        {
          "duration": 0.125,
          "durationTicks": 192,
          "midi": 60,
          "name": "C4",
          "ticks": 165696,
          "time": 107.875,
          "velocity": 0.07874015748031496
        },
        {
          "duration": 0.125,
          "durationTicks": 192,
          "midi": 52,
          "name": "E3",
          "ticks": 165696,
          "time": 107.875,
          "velocity": 0.15748031496062992
        },
        {
          "duration": 0.3125,
          "durationTicks": 480,
          "midi": 60,
          "name": "C4",
          "ticks": 165888,
          "time": 108,
          "velocity": 0.31496062992125984
        },
        {
          "duration": 0.3125,
          "durationTicks": 480,
          "midi": 57,
          "name": "A3",
          "ticks": 165888,
          "time": 108,
          "velocity": 0.1968503937007874
        },
        {
          "duration": 0.3125,
          "durationTicks": 480,
          "midi": 48,
          "name": "C3",
          "ticks": 165888,
          "time": 108,
          "velocity": 0.3937007874015748
        },
        {
          "duration": 0.3125,
          "durationTicks": 480,
          "midi": 59,
          "name": "B3",
          "ticks": 165888,
          "time": 108,
          "velocity": 0.11811023622047244
        },
        {
          "duration": 0.125,
          "durationTicks": 192,
          "midi": 57,
          "name": "A3",
          "ticks": 166464,
          "time": 108.375,
          "velocity": 0.15748031496062992
        },
        {
          "duration": 0.125,
          "durationTicks": 192,
          "midi": 48,
          "name": "C3",
          "ticks": 166464,
          "time": 108.375,
          "velocity": 0.23622047244094488
        },
        {
          "duration": 0.125,
          "durationTicks": 192,
          "midi": 59,
          "name": "B3",
          "ticks": 166464,
          "time": 108.375,
          "velocity": 0.07874015748031496
        },
        {
          "duration": 0.125,
          "durationTicks": 192,
          "midi": 60,
          "name": "C4",
          "ticks": 166464,
          "time": 108.375,
          "velocity": 0.2677165354330709
        },
        {
          "duration": 0.375,
          "durationTicks": 576,
          "midi": 48,
          "name": "C3",
          "ticks": 166656,
          "time": 108.5,
          "velocity": 0.3937007874015748
        },
        {
          "duration": 0.375,
          "durationTicks": 576,
          "midi": 57,
          "name": "A3",
          "ticks": 166656,
          "time": 108.5,
          "velocity": 0.1968503937007874
        },
        {
          "duration": 0.375,
          "durationTicks": 576,
          "midi": 59,
          "name": "B3",
          "ticks": 166656,
          "time": 108.5,
          "velocity": 0.11811023622047244
        },
        {
          "duration": 0.375,
          "durationTicks": 576,
          "midi": 60,
          "name": "C4",
          "ticks": 166656,
          "time": 108.5,
          "velocity": 0.31496062992125984
        },
        {
          "duration": 0.125,
          "durationTicks": 192,
          "midi": 59,
          "name": "B3",
          "ticks": 167232,
          "time": 108.875,
          "velocity": 0.11811023622047244
        },
        {
          "duration": 0.125,
          "durationTicks": 192,
          "midi": 57,
          "name": "A3",
          "ticks": 167232,
          "time": 108.875,
          "velocity": 0.1968503937007874
        },
        {
          "duration": 0.125,
          "durationTicks": 192,
          "midi": 60,
          "name": "C4",
          "ticks": 167232,
          "time": 108.875,
          "velocity": 0.31496062992125984
        },
        {
          "duration": 0.125,
          "durationTicks": 192,
          "midi": 48,
          "name": "C3",
          "ticks": 167232,
          "time": 108.875,
          "velocity": 0.1968503937007874
        },
        {
          "duration": 0.25,
          "durationTicks": 384,
          "midi": 57,
          "name": "A3",
          "ticks": 167808,
          "time": 109.25,
          "velocity": 0.1968503937007874
        },
        {
          "duration": 0.25,
          "durationTicks": 384,
          "midi": 60,
          "name": "C4",
          "ticks": 167808,
          "time": 109.25,
          "velocity": 0.31496062992125984
        },
        {
          "duration": 0.25,
          "durationTicks": 384,
          "midi": 48,
          "name": "C3",
          "ticks": 167808,
          "time": 109.25,
          "velocity": 0.2677165354330709
        },
        {
          "duration": 0.25,
          "durationTicks": 384,
          "midi": 59,
          "name": "B3",
          "ticks": 167808,
          "time": 109.25,
          "velocity": 0.11811023622047244
        },
        {
          "duration": 0.125,
          "durationTicks": 192,
          "midi": 57,
          "name": "A3",
          "ticks": 168192,
          "time": 109.5,
          "velocity": 0.15748031496062992
        },
        {
          "duration": 0.125,
          "durationTicks": 192,
          "midi": 59,
          "name": "B3",
          "ticks": 168192,
          "time": 109.5,
          "velocity": 0.07874015748031496
        },
        {
          "duration": 0.125,
          "durationTicks": 192,
          "midi": 48,
          "name": "C3",
          "ticks": 168192,
          "time": 109.5,
          "velocity": 0.07874015748031496
        },
        {
          "duration": 0.125,
          "durationTicks": 192,
          "midi": 60,
          "name": "C4",
          "ticks": 168192,
          "time": 109.5,
          "velocity": 0.2677165354330709
        },
        {
          "duration": 0.25,
          "durationTicks": 384,
          "midi": 59,
          "name": "B3",
          "ticks": 168384,
          "time": 109.625,
          "velocity": 0.11811023622047244
        },
        {
          "duration": 0.25,
          "durationTicks": 384,
          "midi": 48,
          "name": "C3",
          "ticks": 168384,
          "time": 109.625,
          "velocity": 0.2677165354330709
        },
        {
          "duration": 0.25,
          "durationTicks": 384,
          "midi": 57,
          "name": "A3",
          "ticks": 168384,
          "time": 109.625,
          "velocity": 0.1968503937007874
        },
        {
          "duration": 0.25,
          "durationTicks": 384,
          "midi": 60,
          "name": "C4",
          "ticks": 168384,
          "time": 109.625,
          "velocity": 0.31496062992125984
        },
        {
          "duration": 0.125,
          "durationTicks": 192,
          "midi": 57,
          "name": "A3",
          "ticks": 168768,
          "time": 109.875,
          "velocity": 0.15748031496062992
        },
        {
          "duration": 0.125,
          "durationTicks": 192,
          "midi": 59,
          "name": "B3",
          "ticks": 168768,
          "time": 109.875,
          "velocity": 0.07874015748031496
        },
        {
          "duration": 0.125,
          "durationTicks": 192,
          "midi": 60,
          "name": "C4",
          "ticks": 168768,
          "time": 109.875,
          "velocity": 0.23622047244094488
        },
        {
          "duration": 0.125,
          "durationTicks": 192,
          "midi": 48,
          "name": "C3",
          "ticks": 168768,
          "time": 109.875,
          "velocity": 0.15748031496062992
        },
        {
          "duration": 0.3125,
          "durationTicks": 480,
          "midi": 60,
          "name": "C4",
          "ticks": 168960,
          "time": 110,
          "velocity": 0.31496062992125984
        },
        {
          "duration": 0.3125,
          "durationTicks": 480,
          "midi": 53,
          "name": "F3",
          "ticks": 168960,
          "time": 110,
          "velocity": 0.1968503937007874
        },
        {
          "duration": 0.3125,
          "durationTicks": 480,
          "midi": 47,
          "name": "B2",
          "ticks": 168960,
          "time": 110,
          "velocity": 0.3937007874015748
        },
        {
          "duration": 0.3125,
          "durationTicks": 480,
          "midi": 57,
          "name": "A3",
          "ticks": 168960,
          "time": 110,
          "velocity": 0.11811023622047244
        },
        {
          "duration": 0.375,
          "durationTicks": 576,
          "midi": 60,
          "name": "C4",
          "ticks": 169728,
          "time": 110.5,
          "velocity": 0.31496062992125984
        },
        {
          "duration": 0.375,
          "durationTicks": 576,
          "midi": 53,
          "name": "F3",
          "ticks": 169728,
          "time": 110.5,
          "velocity": 0.1968503937007874
        },
        {
          "duration": 0.375,
          "durationTicks": 576,
          "midi": 47,
          "name": "B2",
          "ticks": 169728,
          "time": 110.5,
          "velocity": 0.3937007874015748
        },
        {
          "duration": 0.375,
          "durationTicks": 576,
          "midi": 57,
          "name": "A3",
          "ticks": 169728,
          "time": 110.5,
          "velocity": 0.11811023622047244
        },
        {
          "duration": 0.125,
          "durationTicks": 192,
          "midi": 47,
          "name": "B2",
          "ticks": 170304,
          "time": 110.875,
          "velocity": 0.1968503937007874
        },
        {
          "duration": 0.125,
          "durationTicks": 192,
          "midi": 60,
          "name": "C4",
          "ticks": 170304,
          "time": 110.875,
          "velocity": 0.31496062992125984
        },
        {
          "duration": 0.125,
          "durationTicks": 192,
          "midi": 56,
          "name": "G#3",
          "ticks": 170304,
          "time": 110.875,
          "velocity": 0.31496062992125984
        },
        {
          "duration": 0.125,
          "durationTicks": 192,
          "midi": 53,
          "name": "F3",
          "ticks": 170304,
          "time": 110.875,
          "velocity": 0.1968503937007874
        },
        {
          "duration": 0.25,
          "durationTicks": 384,
          "midi": 48,
          "name": "C3",
          "ticks": 170880,
          "time": 111.25,
          "velocity": 0.2677165354330709
        },
        {
          "duration": 0.25,
          "durationTicks": 384,
          "midi": 53,
          "name": "F3",
          "ticks": 170880,
          "time": 111.25,
          "velocity": 0.1968503937007874
        },
        {
          "duration": 0.25,
          "durationTicks": 384,
          "midi": 56,
          "name": "G#3",
          "ticks": 170880,
          "time": 111.25,
          "velocity": 0.31496062992125984
        },
        {
          "duration": 0.25,
          "durationTicks": 384,
          "midi": 60,
          "name": "C4",
          "ticks": 170880,
          "time": 111.25,
          "velocity": 0.31496062992125984
        },
        {
          "duration": 0.125,
          "durationTicks": 192,
          "midi": 56,
          "name": "G#3",
          "ticks": 171264,
          "time": 111.5,
          "velocity": 0.2677165354330709
        },
        {
          "duration": 0.125,
          "durationTicks": 192,
          "midi": 48,
          "name": "C3",
          "ticks": 171264,
          "time": 111.5,
          "velocity": 0.07874015748031496
        },
        {
          "duration": 0.125,
          "durationTicks": 192,
          "midi": 60,
          "name": "C4",
          "ticks": 171264,
          "time": 111.5,
          "velocity": 0.2677165354330709
        },
        {
          "duration": 0.125,
          "durationTicks": 192,
          "midi": 53,
          "name": "F3",
          "ticks": 171264,
          "time": 111.5,
          "velocity": 0.15748031496062992
        },
        {
          "duration": 0.25,
          "durationTicks": 384,
          "midi": 48,
          "name": "C3",
          "ticks": 171456,
          "time": 111.625,
          "velocity": 0.2677165354330709
        },
        {
          "duration": 0.25,
          "durationTicks": 384,
          "midi": 53,
          "name": "F3",
          "ticks": 171456,
          "time": 111.625,
          "velocity": 0.1968503937007874
        },
        {
          "duration": 0.25,
          "durationTicks": 384,
          "midi": 56,
          "name": "G#3",
          "ticks": 171456,
          "time": 111.625,
          "velocity": 0.31496062992125984
        },
        {
          "duration": 0.25,
          "durationTicks": 384,
          "midi": 60,
          "name": "C4",
          "ticks": 171456,
          "time": 111.625,
          "velocity": 0.31496062992125984
        },
        {
          "duration": 0.125,
          "durationTicks": 192,
          "midi": 53,
          "name": "F3",
          "ticks": 171840,
          "time": 111.875,
          "velocity": 0.15748031496062992
        },
        {
          "duration": 0.125,
          "durationTicks": 192,
          "midi": 56,
          "name": "G#3",
          "ticks": 171840,
          "time": 111.875,
          "velocity": 0.2677165354330709
        },
        {
          "duration": 0.125,
          "durationTicks": 192,
          "midi": 60,
          "name": "C4",
          "ticks": 171840,
          "time": 111.875,
          "velocity": 0.23622047244094488
        },
        {
          "duration": 0.125,
          "durationTicks": 192,
          "midi": 48,
          "name": "C3",
          "ticks": 171840,
          "time": 111.875,
          "velocity": 0.15748031496062992
        },
        {
          "duration": 0.3125,
          "durationTicks": 480,
          "midi": 53,
          "name": "F3",
          "ticks": 172032,
          "time": 112,
          "velocity": 0.31496062992125984
        },
        {
          "duration": 0.3125,
          "durationTicks": 480,
          "midi": 56,
          "name": "G#3",
          "ticks": 172032,
          "time": 112,
          "velocity": 0.23622047244094488
        },
        {
          "duration": 0.3125,
          "durationTicks": 480,
          "midi": 60,
          "name": "C4",
          "ticks": 172032,
          "time": 112,
          "velocity": 0.23622047244094488
        },
        {
          "duration": 0.3125,
          "durationTicks": 480,
          "midi": 48,
          "name": "C3",
          "ticks": 172032,
          "time": 112,
          "velocity": 0.5039370078740157
        },
        {
          "duration": 0.375,
          "durationTicks": 576,
          "midi": 60,
          "name": "C4",
          "ticks": 172800,
          "time": 112.5,
          "velocity": 0.23622047244094488
        },
        {
          "duration": 0.375,
          "durationTicks": 576,
          "midi": 48,
          "name": "C3",
          "ticks": 172800,
          "time": 112.5,
          "velocity": 0.5039370078740157
        },
        {
          "duration": 0.375,
          "durationTicks": 576,
          "midi": 53,
          "name": "F3",
          "ticks": 172800,
          "time": 112.5,
          "velocity": 0.31496062992125984
        },
        {
          "duration": 0.375,
          "durationTicks": 576,
          "midi": 56,
          "name": "G#3",
          "ticks": 172800,
          "time": 112.5,
          "velocity": 0.23622047244094488
        },
        {
          "duration": 0.125,
          "durationTicks": 192,
          "midi": 56,
          "name": "G#3",
          "ticks": 173376,
          "time": 112.875,
          "velocity": 0.4330708661417323
        },
        {
          "duration": 0.125,
          "durationTicks": 192,
          "midi": 60,
          "name": "C4",
          "ticks": 173376,
          "time": 112.875,
          "velocity": 0.23622047244094488
        },
        {
          "duration": 0.125,
          "durationTicks": 192,
          "midi": 52,
          "name": "E3",
          "ticks": 173376,
          "time": 112.875,
          "velocity": 0.31496062992125984
        },
        {
          "duration": 0.125,
          "durationTicks": 192,
          "midi": 48,
          "name": "C3",
          "ticks": 173376,
          "time": 112.875,
          "velocity": 0.31496062992125984
        },
        {
          "duration": 0.25,
          "durationTicks": 384,
          "midi": 53,
          "name": "F3",
          "ticks": 173952,
          "time": 113.25,
          "velocity": 0.31496062992125984
        },
        {
          "duration": 0.25,
          "durationTicks": 384,
          "midi": 52,
          "name": "E3",
          "ticks": 173952,
          "time": 113.25,
          "velocity": 0.4330708661417323
        },
        {
          "duration": 0.25,
          "durationTicks": 384,
          "midi": 60,
          "name": "C4",
          "ticks": 173952,
          "time": 113.25,
          "velocity": 0.2677165354330709
        },
        {
          "duration": 0.25,
          "durationTicks": 384,
          "midi": 48,
          "name": "C3",
          "ticks": 173952,
          "time": 113.25,
          "velocity": 0.3937007874015748
        },
        {
          "duration": 0.25,
          "durationTicks": 384,
          "midi": 56,
          "name": "G#3",
          "ticks": 173952,
          "time": 113.25,
          "velocity": 0.1968503937007874
        },
        {
          "duration": 0.125,
          "durationTicks": 192,
          "midi": 56,
          "name": "G#3",
          "ticks": 174336,
          "time": 113.5,
          "velocity": 0.15748031496062992
        },
        {
          "duration": 0.125,
          "durationTicks": 192,
          "midi": 53,
          "name": "F3",
          "ticks": 174336,
          "time": 113.5,
          "velocity": 0.2677165354330709
        },
        {
          "duration": 0.125,
          "durationTicks": 192,
          "midi": 52,
          "name": "E3",
          "ticks": 174336,
          "time": 113.5,
          "velocity": 0.3937007874015748
        },
        {
          "duration": 0.125,
          "durationTicks": 192,
          "midi": 48,
          "name": "C3",
          "ticks": 174336,
          "time": 113.5,
          "velocity": 0.1968503937007874
        },
        {
          "duration": 0.125,
          "durationTicks": 192,
          "midi": 60,
          "name": "C4",
          "ticks": 174336,
          "time": 113.5,
          "velocity": 0.23622047244094488
        },
        {
          "duration": 0.25,
          "durationTicks": 384,
          "midi": 52,
          "name": "E3",
          "ticks": 174528,
          "time": 113.625,
          "velocity": 0.4330708661417323
        },
        {
          "duration": 0.25,
          "durationTicks": 384,
          "midi": 56,
          "name": "G#3",
          "ticks": 174528,
          "time": 113.625,
          "velocity": 0.1968503937007874
        },
        {
          "duration": 0.25,
          "durationTicks": 384,
          "midi": 48,
          "name": "C3",
          "ticks": 174528,
          "time": 113.625,
          "velocity": 0.3937007874015748
        },
        {
          "duration": 0.25,
          "durationTicks": 384,
          "midi": 60,
          "name": "C4",
          "ticks": 174528,
          "time": 113.625,
          "velocity": 0.2677165354330709
        },
        {
          "duration": 0.25,
          "durationTicks": 384,
          "midi": 53,
          "name": "F3",
          "ticks": 174528,
          "time": 113.625,
          "velocity": 0.31496062992125984
        },
        {
          "duration": 0.125,
          "durationTicks": 192,
          "midi": 60,
          "name": "C4",
          "ticks": 174912,
          "time": 113.875,
          "velocity": 0.23622047244094488
        },
        {
          "duration": 0.125,
          "durationTicks": 192,
          "midi": 52,
          "name": "E3",
          "ticks": 174912,
          "time": 113.875,
          "velocity": 0.3464566929133858
        },
        {
          "duration": 0.125,
          "durationTicks": 192,
          "midi": 56,
          "name": "G#3",
          "ticks": 174912,
          "time": 113.875,
          "velocity": 0.15748031496062992
        },
        {
          "duration": 0.125,
          "durationTicks": 192,
          "midi": 53,
          "name": "F3",
          "ticks": 174912,
          "time": 113.875,
          "velocity": 0.2677165354330709
        },
        {
          "duration": 0.125,
          "durationTicks": 192,
          "midi": 48,
          "name": "C3",
          "ticks": 174912,
          "time": 113.875,
          "velocity": 0.2677165354330709
        },
        {
          "duration": 0.3125,
          "durationTicks": 480,
          "midi": 66,
          "name": "F#4",
          "ticks": 175104,
          "time": 114,
          "velocity": 0.23622047244094488
        },
        {
          "duration": 0.3125,
          "durationTicks": 480,
          "midi": 56,
          "name": "G#3",
          "ticks": 175104,
          "time": 114,
          "velocity": 0.23622047244094488
        },
        {
          "duration": 0.3125,
          "durationTicks": 480,
          "midi": 49,
          "name": "C#3",
          "ticks": 175104,
          "time": 114,
          "velocity": 0.5039370078740157
        },
        {
          "duration": 0.3125,
          "durationTicks": 480,
          "midi": 61,
          "name": "C#4",
          "ticks": 175104,
          "time": 114,
          "velocity": 0.31496062992125984
        },
        {
          "duration": 0.375,
          "durationTicks": 576,
          "midi": 66,
          "name": "F#4",
          "ticks": 175872,
          "time": 114.5,
          "velocity": 0.23622047244094488
        },
        {
          "duration": 0.375,
          "durationTicks": 576,
          "midi": 61,
          "name": "C#4",
          "ticks": 175872,
          "time": 114.5,
          "velocity": 0.31496062992125984
        },
        {
          "duration": 0.375,
          "durationTicks": 576,
          "midi": 49,
          "name": "C#3",
          "ticks": 175872,
          "time": 114.5,
          "velocity": 0.5039370078740157
        },
        {
          "duration": 0.375,
          "durationTicks": 576,
          "midi": 56,
          "name": "G#3",
          "ticks": 175872,
          "time": 114.5,
          "velocity": 0.23622047244094488
        },
        {
          "duration": 0.125,
          "durationTicks": 192,
          "midi": 52,
          "name": "E3",
          "ticks": 176448,
          "time": 114.875,
          "velocity": 0.31496062992125984
        },
        {
          "duration": 0.125,
          "durationTicks": 192,
          "midi": 66,
          "name": "F#4",
          "ticks": 176448,
          "time": 114.875,
          "velocity": 0.23622047244094488
        },
        {
          "duration": 0.125,
          "durationTicks": 192,
          "midi": 56,
          "name": "G#3",
          "ticks": 176448,
          "time": 114.875,
          "velocity": 0.4330708661417323
        },
        {
          "duration": 0.125,
          "durationTicks": 192,
          "midi": 49,
          "name": "C#3",
          "ticks": 176448,
          "time": 114.875,
          "velocity": 0.31496062992125984
        },
        {
          "duration": 0.25,
          "durationTicks": 384,
          "midi": 56,
          "name": "G#3",
          "ticks": 177024,
          "time": 115.25,
          "velocity": 0.1968503937007874
        },
        {
          "duration": 0.25,
          "durationTicks": 384,
          "midi": 61,
          "name": "C#4",
          "ticks": 177024,
          "time": 115.25,
          "velocity": 0.31496062992125984
        },
        {
          "duration": 0.25,
          "durationTicks": 384,
          "midi": 49,
          "name": "C#3",
          "ticks": 177024,
          "time": 115.25,
          "velocity": 0.3937007874015748
        },
        {
          "duration": 0.25,
          "durationTicks": 384,
          "midi": 52,
          "name": "E3",
          "ticks": 177024,
          "time": 115.25,
          "velocity": 0.4330708661417323
        },
        {
          "duration": 0.25,
          "durationTicks": 384,
          "midi": 66,
          "name": "F#4",
          "ticks": 177024,
          "time": 115.25,
          "velocity": 0.2677165354330709
        },
        {
          "duration": 0.125,
          "durationTicks": 192,
          "midi": 52,
          "name": "E3",
          "ticks": 177408,
          "time": 115.5,
          "velocity": 0.3937007874015748
        },
        {
          "duration": 0.125,
          "durationTicks": 192,
          "midi": 61,
          "name": "C#4",
          "ticks": 177408,
          "time": 115.5,
          "velocity": 0.2677165354330709
        },
        {
          "duration": 0.125,
          "durationTicks": 192,
          "midi": 49,
          "name": "C#3",
          "ticks": 177408,
          "time": 115.5,
          "velocity": 0.1968503937007874
        },
        {
          "duration": 0.125,
          "durationTicks": 192,
          "midi": 66,
          "name": "F#4",
          "ticks": 177408,
          "time": 115.5,
          "velocity": 0.23622047244094488
        },
        {
          "duration": 0.125,
          "durationTicks": 192,
          "midi": 56,
          "name": "G#3",
          "ticks": 177408,
          "time": 115.5,
          "velocity": 0.15748031496062992
        },
        {
          "duration": 0.25,
          "durationTicks": 384,
          "midi": 52,
          "name": "E3",
          "ticks": 177600,
          "time": 115.625,
          "velocity": 0.4330708661417323
        },
        {
          "duration": 0.25,
          "durationTicks": 384,
          "midi": 66,
          "name": "F#4",
          "ticks": 177600,
          "time": 115.625,
          "velocity": 0.2677165354330709
        },
        {
          "duration": 0.25,
          "durationTicks": 384,
          "midi": 49,
          "name": "C#3",
          "ticks": 177600,
          "time": 115.625,
          "velocity": 0.3937007874015748
        },
        {
          "duration": 0.25,
          "durationTicks": 384,
          "midi": 61,
          "name": "C#4",
          "ticks": 177600,
          "time": 115.625,
          "velocity": 0.31496062992125984
        },
        {
          "duration": 0.25,
          "durationTicks": 384,
          "midi": 56,
          "name": "G#3",
          "ticks": 177600,
          "time": 115.625,
          "velocity": 0.1968503937007874
        },
        {
          "duration": 0.125,
          "durationTicks": 192,
          "midi": 56,
          "name": "G#3",
          "ticks": 177984,
          "time": 115.875,
          "velocity": 0.15748031496062992
        },
        {
          "duration": 0.125,
          "durationTicks": 192,
          "midi": 52,
          "name": "E3",
          "ticks": 177984,
          "time": 115.875,
          "velocity": 0.3464566929133858
        },
        {
          "duration": 0.125,
          "durationTicks": 192,
          "midi": 66,
          "name": "F#4",
          "ticks": 177984,
          "time": 115.875,
          "velocity": 0.23622047244094488
        },
        {
          "duration": 0.125,
          "durationTicks": 192,
          "midi": 49,
          "name": "C#3",
          "ticks": 177984,
          "time": 115.875,
          "velocity": 0.2677165354330709
        },
        {
          "duration": 0.125,
          "durationTicks": 192,
          "midi": 61,
          "name": "C#4",
          "ticks": 177984,
          "time": 115.875,
          "velocity": 0.2677165354330709
        },
        {
          "duration": 0.3125,
          "durationTicks": 480,
          "midi": 61,
          "name": "C#4",
          "ticks": 178176,
          "time": 116,
          "velocity": 0.31496062992125984
        },
        {
          "duration": 0.3125,
          "durationTicks": 480,
          "midi": 49,
          "name": "C#3",
          "ticks": 178176,
          "time": 116,
          "velocity": 0.5039370078740157
        },
        {
          "duration": 0.3125,
          "durationTicks": 480,
          "midi": 56,
          "name": "G#3",
          "ticks": 178176,
          "time": 116,
          "velocity": 0.23622047244094488
        },
        {
          "duration": 0.3125,
          "durationTicks": 480,
          "midi": 66,
          "name": "F#4",
          "ticks": 178176,
          "time": 116,
          "velocity": 0.23622047244094488
        },
        {
          "duration": 0.375,
          "durationTicks": 576,
          "midi": 66,
          "name": "F#4",
          "ticks": 178944,
          "time": 116.5,
          "velocity": 0.23622047244094488
        },
        {
          "duration": 0.375,
          "durationTicks": 576,
          "midi": 49,
          "name": "C#3",
          "ticks": 178944,
          "time": 116.5,
          "velocity": 0.5039370078740157
        },
        {
          "duration": 0.375,
          "durationTicks": 576,
          "midi": 61,
          "name": "C#4",
          "ticks": 178944,
          "time": 116.5,
          "velocity": 0.31496062992125984
        },
        {
          "duration": 0.375,
          "durationTicks": 576,
          "midi": 56,
          "name": "G#3",
          "ticks": 178944,
          "time": 116.5,
          "velocity": 0.23622047244094488
        },
        {
          "duration": 0.125,
          "durationTicks": 192,
          "midi": 56,
          "name": "G#3",
          "ticks": 179520,
          "time": 116.875,
          "velocity": 0.4330708661417323
        },
        {
          "duration": 0.125,
          "durationTicks": 192,
          "midi": 49,
          "name": "C#3",
          "ticks": 179520,
          "time": 116.875,
          "velocity": 0.31496062992125984
        },
        {
          "duration": 0.125,
          "durationTicks": 192,
          "midi": 66,
          "name": "F#4",
          "ticks": 179520,
          "time": 116.875,
          "velocity": 0.23622047244094488
        },
        {
          "duration": 0.125,
          "durationTicks": 192,
          "midi": 52,
          "name": "E3",
          "ticks": 179520,
          "time": 116.875,
          "velocity": 0.31496062992125984
        },
        {
          "duration": 0.25,
          "durationTicks": 384,
          "midi": 56,
          "name": "G#3",
          "ticks": 180096,
          "time": 117.25,
          "velocity": 0.1968503937007874
        },
        {
          "duration": 0.25,
          "durationTicks": 384,
          "midi": 66,
          "name": "F#4",
          "ticks": 180096,
          "time": 117.25,
          "velocity": 0.2677165354330709
        },
        {
          "duration": 0.25,
          "durationTicks": 384,
          "midi": 61,
          "name": "C#4",
          "ticks": 180096,
          "time": 117.25,
          "velocity": 0.31496062992125984
        },
        {
          "duration": 0.25,
          "durationTicks": 384,
          "midi": 52,
          "name": "E3",
          "ticks": 180096,
          "time": 117.25,
          "velocity": 0.4330708661417323
        },
        {
          "duration": 0.25,
          "durationTicks": 384,
          "midi": 49,
          "name": "C#3",
          "ticks": 180096,
          "time": 117.25,
          "velocity": 0.3937007874015748
        },
        {
          "duration": 0.125,
          "durationTicks": 192,
          "midi": 52,
          "name": "E3",
          "ticks": 180480,
          "time": 117.5,
          "velocity": 0.3937007874015748
        },
        {
          "duration": 0.125,
          "durationTicks": 192,
          "midi": 61,
          "name": "C#4",
          "ticks": 180480,
          "time": 117.5,
          "velocity": 0.2677165354330709
        },
        {
          "duration": 0.125,
          "durationTicks": 192,
          "midi": 66,
          "name": "F#4",
          "ticks": 180480,
          "time": 117.5,
          "velocity": 0.23622047244094488
        },
        {
          "duration": 0.125,
          "durationTicks": 192,
          "midi": 56,
          "name": "G#3",
          "ticks": 180480,
          "time": 117.5,
          "velocity": 0.15748031496062992
        },
        {
          "duration": 0.125,
          "durationTicks": 192,
          "midi": 49,
          "name": "C#3",
          "ticks": 180480,
          "time": 117.5,
          "velocity": 0.1968503937007874
        },
        {
          "duration": 0.25,
          "durationTicks": 384,
          "midi": 56,
          "name": "G#3",
          "ticks": 180672,
          "time": 117.625,
          "velocity": 0.1968503937007874
        },
        {
          "duration": 0.25,
          "durationTicks": 384,
          "midi": 49,
          "name": "C#3",
          "ticks": 180672,
          "time": 117.625,
          "velocity": 0.3937007874015748
        },
        {
          "duration": 0.25,
          "durationTicks": 384,
          "midi": 52,
          "name": "E3",
          "ticks": 180672,
          "time": 117.625,
          "velocity": 0.4330708661417323
        },
        {
          "duration": 0.25,
          "durationTicks": 384,
          "midi": 66,
          "name": "F#4",
          "ticks": 180672,
          "time": 117.625,
          "velocity": 0.2677165354330709
        },
        {
          "duration": 0.25,
          "durationTicks": 384,
          "midi": 61,
          "name": "C#4",
          "ticks": 180672,
          "time": 117.625,
          "velocity": 0.31496062992125984
        },
        {
          "duration": 0.125,
          "durationTicks": 192,
          "midi": 56,
          "name": "G#3",
          "ticks": 181056,
          "time": 117.875,
          "velocity": 0.15748031496062992
        },
        {
          "duration": 0.125,
          "durationTicks": 192,
          "midi": 52,
          "name": "E3",
          "ticks": 181056,
          "time": 117.875,
          "velocity": 0.3464566929133858
        },
        {
          "duration": 0.125,
          "durationTicks": 192,
          "midi": 66,
          "name": "F#4",
          "ticks": 181056,
          "time": 117.875,
          "velocity": 0.23622047244094488
        },
        {
          "duration": 0.125,
          "durationTicks": 192,
          "midi": 49,
          "name": "C#3",
          "ticks": 181056,
          "time": 117.875,
          "velocity": 0.2677165354330709
        },
        {
          "duration": 0.125,
          "durationTicks": 192,
          "midi": 61,
          "name": "C#4",
          "ticks": 181056,
          "time": 117.875,
          "velocity": 0.2677165354330709
        },
        {
          "duration": 0.3125,
          "durationTicks": 480,
          "midi": 56,
          "name": "G#3",
          "ticks": 181248,
          "time": 118,
          "velocity": 0.23622047244094488
        },
        {
          "duration": 0.3125,
          "durationTicks": 480,
          "midi": 61,
          "name": "C#4",
          "ticks": 181248,
          "time": 118,
          "velocity": 0.31496062992125984
        },
        {
          "duration": 0.3125,
          "durationTicks": 480,
          "midi": 49,
          "name": "C#3",
          "ticks": 181248,
          "time": 118,
          "velocity": 0.5039370078740157
        },
        {
          "duration": 0.3125,
          "durationTicks": 480,
          "midi": 68,
          "name": "G#4",
          "ticks": 181248,
          "time": 118,
          "velocity": 0.23622047244094488
        },
        {
          "duration": 0.3125,
          "durationTicks": 480,
          "midi": 69,
          "name": "A4",
          "ticks": 181248,
          "time": 118,
          "velocity": 0.11811023622047244
        },
        {
          "duration": 0.375,
          "durationTicks": 576,
          "midi": 68,
          "name": "G#4",
          "ticks": 182016,
          "time": 118.5,
          "velocity": 0.23622047244094488
        },
        {
          "duration": 0.375,
          "durationTicks": 576,
          "midi": 69,
          "name": "A4",
          "ticks": 182016,
          "time": 118.5,
          "velocity": 0.11811023622047244
        },
        {
          "duration": 0.375,
          "durationTicks": 576,
          "midi": 49,
          "name": "C#3",
          "ticks": 182016,
          "time": 118.5,
          "velocity": 0.5039370078740157
        },
        {
          "duration": 0.375,
          "durationTicks": 576,
          "midi": 56,
          "name": "G#3",
          "ticks": 182016,
          "time": 118.5,
          "velocity": 0.23622047244094488
        },
        {
          "duration": 0.375,
          "durationTicks": 576,
          "midi": 61,
          "name": "C#4",
          "ticks": 182016,
          "time": 118.5,
          "velocity": 0.31496062992125984
        },
        {
          "duration": 0.125,
          "durationTicks": 192,
          "midi": 51,
          "name": "D#3",
          "ticks": 182592,
          "time": 118.875,
          "velocity": 0.31496062992125984
        },
        {
          "duration": 0.125,
          "durationTicks": 192,
          "midi": 69,
          "name": "A4",
          "ticks": 182592,
          "time": 118.875,
          "velocity": 0.11811023622047244
        },
        {
          "duration": 0.125,
          "durationTicks": 192,
          "midi": 49,
          "name": "C#3",
          "ticks": 182592,
          "time": 118.875,
          "velocity": 0.31496062992125984
        },
        {
          "duration": 0.125,
          "durationTicks": 192,
          "midi": 68,
          "name": "G#4",
          "ticks": 182592,
          "time": 118.875,
          "velocity": 0.23622047244094488
        },
        {
          "duration": 0.125,
          "durationTicks": 192,
          "midi": 56,
          "name": "G#3",
          "ticks": 182592,
          "time": 118.875,
          "velocity": 0.4330708661417323
        },
        {
          "duration": 0.25,
          "durationTicks": 384,
          "midi": 61,
          "name": "C#4",
          "ticks": 183168,
          "time": 119.25,
          "velocity": 0.31496062992125984
        },
        {
          "duration": 0.25,
          "durationTicks": 384,
          "midi": 69,
          "name": "A4",
          "ticks": 183168,
          "time": 119.25,
          "velocity": 0.15748031496062992
        },
        {
          "duration": 0.25,
          "durationTicks": 384,
          "midi": 51,
          "name": "D#3",
          "ticks": 183168,
          "time": 119.25,
          "velocity": 0.4330708661417323
        },
        {
          "duration": 0.25,
          "durationTicks": 384,
          "midi": 56,
          "name": "G#3",
          "ticks": 183168,
          "time": 119.25,
          "velocity": 0.1968503937007874
        },
        {
          "duration": 0.25,
          "durationTicks": 384,
          "midi": 68,
          "name": "G#4",
          "ticks": 183168,
          "time": 119.25,
          "velocity": 0.2677165354330709
        },
        {
          "duration": 0.25,
          "durationTicks": 384,
          "midi": 49,
          "name": "C#3",
          "ticks": 183168,
          "time": 119.25,
          "velocity": 0.3937007874015748
        },
        {
          "duration": 0.125,
          "durationTicks": 192,
          "midi": 69,
          "name": "A4",
          "ticks": 183552,
          "time": 119.5,
          "velocity": 0.11811023622047244
        },
        {
          "duration": 0.125,
          "durationTicks": 192,
          "midi": 51,
          "name": "D#3",
          "ticks": 183552,
          "time": 119.5,
          "velocity": 0.3937007874015748
        },
        {
          "duration": 0.125,
          "durationTicks": 192,
          "midi": 68,
          "name": "G#4",
          "ticks": 183552,
          "time": 119.5,
          "velocity": 0.23622047244094488
        },
        {
          "duration": 0.125,
          "durationTicks": 192,
          "midi": 61,
          "name": "C#4",
          "ticks": 183552,
          "time": 119.5,
          "velocity": 0.2677165354330709
        },
        {
          "duration": 0.125,
          "durationTicks": 192,
          "midi": 56,
          "name": "G#3",
          "ticks": 183552,
          "time": 119.5,
          "velocity": 0.15748031496062992
        },
        {
          "duration": 0.125,
          "durationTicks": 192,
          "midi": 49,
          "name": "C#3",
          "ticks": 183552,
          "time": 119.5,
          "velocity": 0.1968503937007874
        },
        {
          "duration": 0.25,
          "durationTicks": 384,
          "midi": 49,
          "name": "C#3",
          "ticks": 183744,
          "time": 119.625,
          "velocity": 0.3937007874015748
        },
        {
          "duration": 0.25,
          "durationTicks": 384,
          "midi": 61,
          "name": "C#4",
          "ticks": 183744,
          "time": 119.625,
          "velocity": 0.31496062992125984
        },
        {
          "duration": 0.25,
          "durationTicks": 384,
          "midi": 69,
          "name": "A4",
          "ticks": 183744,
          "time": 119.625,
          "velocity": 0.15748031496062992
        },
        {
          "duration": 0.25,
          "durationTicks": 384,
          "midi": 68,
          "name": "G#4",
          "ticks": 183744,
          "time": 119.625,
          "velocity": 0.2677165354330709
        },
        {
          "duration": 0.25,
          "durationTicks": 384,
          "midi": 56,
          "name": "G#3",
          "ticks": 183744,
          "time": 119.625,
          "velocity": 0.1968503937007874
        },
        {
          "duration": 0.25,
          "durationTicks": 384,
          "midi": 51,
          "name": "D#3",
          "ticks": 183744,
          "time": 119.625,
          "velocity": 0.4330708661417323
        },
        {
          "duration": 0.125,
          "durationTicks": 192,
          "midi": 49,
          "name": "C#3",
          "ticks": 184128,
          "time": 119.875,
          "velocity": 0.2677165354330709
        },
        {
          "duration": 0.125,
          "durationTicks": 192,
          "midi": 61,
          "name": "C#4",
          "ticks": 184128,
          "time": 119.875,
          "velocity": 0.2677165354330709
        },
        {
          "duration": 0.125,
          "durationTicks": 192,
          "midi": 68,
          "name": "G#4",
          "ticks": 184128,
          "time": 119.875,
          "velocity": 0.23622047244094488
        },
        {
          "duration": 0.125,
          "durationTicks": 192,
          "midi": 56,
          "name": "G#3",
          "ticks": 184128,
          "time": 119.875,
          "velocity": 0.15748031496062992
        },
        {
          "duration": 0.125,
          "durationTicks": 192,
          "midi": 69,
          "name": "A4",
          "ticks": 184128,
          "time": 119.875,
          "velocity": 0.11811023622047244
        },
        {
          "duration": 0.125,
          "durationTicks": 192,
          "midi": 51,
          "name": "D#3",
          "ticks": 184128,
          "time": 119.875,
          "velocity": 0.3464566929133858
        },
        {
          "duration": 0.3125,
          "durationTicks": 480,
          "midi": 62,
          "name": "D4",
          "ticks": 184320,
          "time": 120,
          "velocity": 0.31496062992125984
        },
        {
          "duration": 0.3125,
          "durationTicks": 480,
          "midi": 57,
          "name": "A3",
          "ticks": 184320,
          "time": 120,
          "velocity": 0.23622047244094488
        },
        {
          "duration": 0.3125,
          "durationTicks": 480,
          "midi": 69,
          "name": "A4",
          "ticks": 184320,
          "time": 120,
          "velocity": 0.1968503937007874
        },
        {
          "duration": 0.3125,
          "durationTicks": 480,
          "midi": 67,
          "name": "G4",
          "ticks": 184320,
          "time": 120,
          "velocity": 0.15748031496062992
        },
        {
          "duration": 0.3125,
          "durationTicks": 480,
          "midi": 50,
          "name": "D3",
          "ticks": 184320,
          "time": 120,
          "velocity": 0.5039370078740157
        },
        {
          "duration": 0.375,
          "durationTicks": 576,
          "midi": 67,
          "name": "G4",
          "ticks": 185088,
          "time": 120.5,
          "velocity": 0.15748031496062992
        },
        {
          "duration": 0.375,
          "durationTicks": 576,
          "midi": 50,
          "name": "D3",
          "ticks": 185088,
          "time": 120.5,
          "velocity": 0.5039370078740157
        },
        {
          "duration": 0.375,
          "durationTicks": 576,
          "midi": 57,
          "name": "A3",
          "ticks": 185088,
          "time": 120.5,
          "velocity": 0.23622047244094488
        },
        {
          "duration": 0.375,
          "durationTicks": 576,
          "midi": 69,
          "name": "A4",
          "ticks": 185088,
          "time": 120.5,
          "velocity": 0.1968503937007874
        },
        {
          "duration": 0.375,
          "durationTicks": 576,
          "midi": 62,
          "name": "D4",
          "ticks": 185088,
          "time": 120.5,
          "velocity": 0.31496062992125984
        },
        {
          "duration": 0.125,
          "durationTicks": 192,
          "midi": 69,
          "name": "A4",
          "ticks": 185664,
          "time": 120.875,
          "velocity": 0.1968503937007874
        },
        {
          "duration": 0.125,
          "durationTicks": 192,
          "midi": 50,
          "name": "D3",
          "ticks": 185664,
          "time": 120.875,
          "velocity": 0.31496062992125984
        },
        {
          "duration": 0.125,
          "durationTicks": 192,
          "midi": 62,
          "name": "D4",
          "ticks": 185664,
          "time": 120.875,
          "velocity": 0.31496062992125984
        },
        {
          "duration": 0.125,
          "durationTicks": 192,
          "midi": 67,
          "name": "G4",
          "ticks": 185664,
          "time": 120.875,
          "velocity": 0.15748031496062992
        },
        {
          "duration": 0.125,
          "durationTicks": 192,
          "midi": 57,
          "name": "A3",
          "ticks": 185664,
          "time": 120.875,
          "velocity": 0.4330708661417323
        },
        {
          "duration": 0.25,
          "durationTicks": 384,
          "midi": 57,
          "name": "A3",
          "ticks": 186240,
          "time": 121.25,
          "velocity": 0.1968503937007874
        },
        {
          "duration": 0.25,
          "durationTicks": 384,
          "midi": 67,
          "name": "G4",
          "ticks": 186240,
          "time": 121.25,
          "velocity": 0.2677165354330709
        },
        {
          "duration": 0.25,
          "durationTicks": 384,
          "midi": 62,
          "name": "D4",
          "ticks": 186240,
          "time": 121.25,
          "velocity": 0.31496062992125984
        },
        {
          "duration": 0.25,
          "durationTicks": 384,
          "midi": 50,
          "name": "D3",
          "ticks": 186240,
          "time": 121.25,
          "velocity": 0.3937007874015748
        },
        {
          "duration": 0.25,
          "durationTicks": 384,
          "midi": 54,
          "name": "F#3",
          "ticks": 186240,
          "time": 121.25,
          "velocity": 0.4330708661417323
        },
        {
          "duration": 0.25,
          "durationTicks": 384,
          "midi": 69,
          "name": "A4",
          "ticks": 186240,
          "time": 121.25,
          "velocity": 0.15748031496062992
        },
        {
          "duration": 0.125,
          "durationTicks": 192,
          "midi": 54,
          "name": "F#3",
          "ticks": 186624,
          "time": 121.5,
          "velocity": 0.3937007874015748
        },
        {
          "duration": 0.125,
          "durationTicks": 192,
          "midi": 50,
          "name": "D3",
          "ticks": 186624,
          "time": 121.5,
          "velocity": 0.1968503937007874
        },
        {
          "duration": 0.125,
          "durationTicks": 192,
          "midi": 69,
          "name": "A4",
          "ticks": 186624,
          "time": 121.5,
          "velocity": 0.11811023622047244
        },
        {
          "duration": 0.125,
          "durationTicks": 192,
          "midi": 62,
          "name": "D4",
          "ticks": 186624,
          "time": 121.5,
          "velocity": 0.2677165354330709
        },
        {
          "duration": 0.125,
          "durationTicks": 192,
          "midi": 57,
          "name": "A3",
          "ticks": 186624,
          "time": 121.5,
          "velocity": 0.15748031496062992
        },
        {
          "duration": 0.125,
          "durationTicks": 192,
          "midi": 67,
          "name": "G4",
          "ticks": 186624,
          "time": 121.5,
          "velocity": 0.23622047244094488
        },
        {
          "duration": 0.25,
          "durationTicks": 384,
          "midi": 69,
          "name": "A4",
          "ticks": 186816,
          "time": 121.625,
          "velocity": 0.15748031496062992
        },
        {
          "duration": 0.25,
          "durationTicks": 384,
          "midi": 67,
          "name": "G4",
          "ticks": 186816,
          "time": 121.625,
          "velocity": 0.2677165354330709
        },
        {
          "duration": 0.25,
          "durationTicks": 384,
          "midi": 50,
          "name": "D3",
          "ticks": 186816,
          "time": 121.625,
          "velocity": 0.3937007874015748
        },
        {
          "duration": 0.25,
          "durationTicks": 384,
          "midi": 57,
          "name": "A3",
          "ticks": 186816,
          "time": 121.625,
          "velocity": 0.1968503937007874
        },
        {
          "duration": 0.25,
          "durationTicks": 384,
          "midi": 54,
          "name": "F#3",
          "ticks": 186816,
          "time": 121.625,
          "velocity": 0.4330708661417323
        },
        {
          "duration": 0.25,
          "durationTicks": 384,
          "midi": 62,
          "name": "D4",
          "ticks": 186816,
          "time": 121.625,
          "velocity": 0.31496062992125984
        },
        {
          "duration": 0.125,
          "durationTicks": 192,
          "midi": 69,
          "name": "A4",
          "ticks": 187200,
          "time": 121.875,
          "velocity": 0.11811023622047244
        },
        {
          "duration": 0.125,
          "durationTicks": 192,
          "midi": 57,
          "name": "A3",
          "ticks": 187200,
          "time": 121.875,
          "velocity": 0.15748031496062992
        },
        {
          "duration": 0.125,
          "durationTicks": 192,
          "midi": 50,
          "name": "D3",
          "ticks": 187200,
          "time": 121.875,
          "velocity": 0.2677165354330709
        },
        {
          "duration": 0.125,
          "durationTicks": 192,
          "midi": 67,
          "name": "G4",
          "ticks": 187200,
          "time": 121.875,
          "velocity": 0.23622047244094488
        },
        {
          "duration": 0.125,
          "durationTicks": 192,
          "midi": 54,
          "name": "F#3",
          "ticks": 187200,
          "time": 121.875,
          "velocity": 0.3464566929133858
        },
        {
          "duration": 0.125,
          "durationTicks": 192,
          "midi": 62,
          "name": "D4",
          "ticks": 187200,
          "time": 121.875,
          "velocity": 0.2677165354330709
        },
        {
          "duration": 0.3125,
          "durationTicks": 480,
          "midi": 68,
          "name": "G#4",
          "ticks": 187392,
          "time": 122,
          "velocity": 0.07874015748031496
        },
        {
          "duration": 0.3125,
          "durationTicks": 480,
          "midi": 57,
          "name": "A3",
          "ticks": 187392,
          "time": 122,
          "velocity": 0.23622047244094488
        },
        {
          "duration": 0.3125,
          "durationTicks": 480,
          "midi": 49,
          "name": "C#3",
          "ticks": 187392,
          "time": 122,
          "velocity": 0.5039370078740157
        },
        {
          "duration": 0.3125,
          "durationTicks": 480,
          "midi": 64,
          "name": "E4",
          "ticks": 187392,
          "time": 122,
          "velocity": 0.31496062992125984
        },
        {
          "duration": 0.3125,
          "durationTicks": 480,
          "midi": 61,
          "name": "C#4",
          "ticks": 187392,
          "time": 122,
          "velocity": 0.31496062992125984
        },
        {
          "duration": 0.375,
          "durationTicks": 576,
          "midi": 68,
          "name": "G#4",
          "ticks": 188160,
          "time": 122.5,
          "velocity": 0.07874015748031496
        },
        {
          "duration": 0.375,
          "durationTicks": 576,
          "midi": 57,
          "name": "A3",
          "ticks": 188160,
          "time": 122.5,
          "velocity": 0.23622047244094488
        },
        {
          "duration": 0.375,
          "durationTicks": 576,
          "midi": 64,
          "name": "E4",
          "ticks": 188160,
          "time": 122.5,
          "velocity": 0.31496062992125984
        },
        {
          "duration": 0.375,
          "durationTicks": 576,
          "midi": 49,
          "name": "C#3",
          "ticks": 188160,
          "time": 122.5,
          "velocity": 0.5039370078740157
        },
        {
          "duration": 0.375,
          "durationTicks": 576,
          "midi": 61,
          "name": "C#4",
          "ticks": 188160,
          "time": 122.5,
          "velocity": 0.31496062992125984
        },
        {
          "duration": 0.125,
          "durationTicks": 192,
          "midi": 64,
          "name": "E4",
          "ticks": 188736,
          "time": 122.875,
          "velocity": 0.31496062992125984
        },
        {
          "duration": 0.125,
          "durationTicks": 192,
          "midi": 49,
          "name": "C#3",
          "ticks": 188736,
          "time": 122.875,
          "velocity": 0.31496062992125984
        },
        {
          "duration": 0.125,
          "durationTicks": 192,
          "midi": 57,
          "name": "A3",
          "ticks": 188736,
          "time": 122.875,
          "velocity": 0.4330708661417323
        },
        {
          "duration": 0.125,
          "durationTicks": 192,
          "midi": 52,
          "name": "E3",
          "ticks": 188736,
          "time": 122.875,
          "velocity": 0.31496062992125984
        },
        {
          "duration": 0.125,
          "durationTicks": 192,
          "midi": 68,
          "name": "G#4",
          "ticks": 188736,
          "time": 122.875,
          "velocity": 0.07874015748031496
        },
        {
          "duration": 0.25,
          "durationTicks": 384,
          "midi": 57,
          "name": "A3",
          "ticks": 189312,
          "time": 123.25,
          "velocity": 0.1968503937007874
        },
        {
          "duration": 0.25,
          "durationTicks": 384,
          "midi": 49,
          "name": "C#3",
          "ticks": 189312,
          "time": 123.25,
          "velocity": 0.3937007874015748
        },
        {
          "duration": 0.25,
          "durationTicks": 384,
          "midi": 52,
          "name": "E3",
          "ticks": 189312,
          "time": 123.25,
          "velocity": 0.4330708661417323
        },
        {
          "duration": 0.25,
          "durationTicks": 384,
          "midi": 68,
          "name": "G#4",
          "ticks": 189312,
          "time": 123.25,
          "velocity": 0.11811023622047244
        },
        {
          "duration": 0.25,
          "durationTicks": 384,
          "midi": 61,
          "name": "C#4",
          "ticks": 189312,
          "time": 123.25,
          "velocity": 0.31496062992125984
        },
        {
          "duration": 0.25,
          "durationTicks": 384,
          "midi": 64,
          "name": "E4",
          "ticks": 189312,
          "time": 123.25,
          "velocity": 0.3464566929133858
        },
        {
          "duration": 0.125,
          "durationTicks": 192,
          "midi": 52,
          "name": "E3",
          "ticks": 189696,
          "time": 123.5,
          "velocity": 0.3937007874015748
        },
        {
          "duration": 0.125,
          "durationTicks": 192,
          "midi": 57,
          "name": "A3",
          "ticks": 189696,
          "time": 123.5,
          "velocity": 0.15748031496062992
        },
        {
          "duration": 0.125,
          "durationTicks": 192,
          "midi": 61,
          "name": "C#4",
          "ticks": 189696,
          "time": 123.5,
          "velocity": 0.2677165354330709
        },
        {
          "duration": 0.125,
          "durationTicks": 192,
          "midi": 68,
          "name": "G#4",
          "ticks": 189696,
          "time": 123.5,
          "velocity": 0.07874015748031496
        },
        {
          "duration": 0.125,
          "durationTicks": 192,
          "midi": 49,
          "name": "C#3",
          "ticks": 189696,
          "time": 123.5,
          "velocity": 0.1968503937007874
        },
        {
          "duration": 0.125,
          "durationTicks": 192,
          "midi": 64,
          "name": "E4",
          "ticks": 189696,
          "time": 123.5,
          "velocity": 0.31496062992125984
        },
        {
          "duration": 0.25,
          "durationTicks": 384,
          "midi": 52,
          "name": "E3",
          "ticks": 189888,
          "time": 123.625,
          "velocity": 0.4330708661417323
        },
        {
          "duration": 0.25,
          "durationTicks": 384,
          "midi": 49,
          "name": "C#3",
          "ticks": 189888,
          "time": 123.625,
          "velocity": 0.3937007874015748
        },
        {
          "duration": 0.25,
          "durationTicks": 384,
          "midi": 61,
          "name": "C#4",
          "ticks": 189888,
          "time": 123.625,
          "velocity": 0.31496062992125984
        },
        {
          "duration": 0.25,
          "durationTicks": 384,
          "midi": 68,
          "name": "G#4",
          "ticks": 189888,
          "time": 123.625,
          "velocity": 0.11811023622047244
        },
        {
          "duration": 0.25,
          "durationTicks": 384,
          "midi": 57,
          "name": "A3",
          "ticks": 189888,
          "time": 123.625,
          "velocity": 0.1968503937007874
        },
        {
          "duration": 0.25,
          "durationTicks": 384,
          "midi": 64,
          "name": "E4",
          "ticks": 189888,
          "time": 123.625,
          "velocity": 0.3464566929133858
        },
        {
          "duration": 0.125,
          "durationTicks": 192,
          "midi": 64,
          "name": "E4",
          "ticks": 190272,
          "time": 123.875,
          "velocity": 0.31496062992125984
        },
        {
          "duration": 0.125,
          "durationTicks": 192,
          "midi": 61,
          "name": "C#4",
          "ticks": 190272,
          "time": 123.875,
          "velocity": 0.2677165354330709
        },
        {
          "duration": 0.125,
          "durationTicks": 192,
          "midi": 68,
          "name": "G#4",
          "ticks": 190272,
          "time": 123.875,
          "velocity": 0.07874015748031496
        },
        {
          "duration": 0.125,
          "durationTicks": 192,
          "midi": 52,
          "name": "E3",
          "ticks": 190272,
          "time": 123.875,
          "velocity": 0.3464566929133858
        },
        {
          "duration": 0.125,
          "durationTicks": 192,
          "midi": 57,
          "name": "A3",
          "ticks": 190272,
          "time": 123.875,
          "velocity": 0.15748031496062992
        },
        {
          "duration": 0.125,
          "durationTicks": 192,
          "midi": 49,
          "name": "C#3",
          "ticks": 190272,
          "time": 123.875,
          "velocity": 0.2677165354330709
        },
        {
          "duration": 0.375,
          "durationTicks": 576,
          "midi": 66,
          "name": "F#4",
          "ticks": 190464,
          "time": 124,
          "velocity": 0.3937007874015748
        },
        {
          "duration": 0.375,
          "durationTicks": 576,
          "midi": 59,
          "name": "B3",
          "ticks": 190464,
          "time": 124,
          "velocity": 0.3937007874015748
        },
        {
          "duration": 0.375,
          "durationTicks": 576,
          "midi": 71,
          "name": "B4",
          "ticks": 190464,
          "time": 124,
          "velocity": 0.23622047244094488
        },
        {
          "duration": 0.375,
          "durationTicks": 576,
          "midi": 62,
          "name": "D4",
          "ticks": 190464,
          "time": 124,
          "velocity": 0.3937007874015748
        },
        {
          "duration": 0.375,
          "durationTicks": 576,
          "midi": 61,
          "name": "C#4",
          "ticks": 190464,
          "time": 124,
          "velocity": 0.23622047244094488
        },
        {
          "duration": 0.375,
          "durationTicks": 576,
          "midi": 62,
          "name": "D4",
          "ticks": 191232,
          "time": 124.5,
          "velocity": 0.3937007874015748
        },
        {
          "duration": 0.375,
          "durationTicks": 576,
          "midi": 61,
          "name": "C#4",
          "ticks": 191232,
          "time": 124.5,
          "velocity": 0.23622047244094488
        },
        {
          "duration": 0.375,
          "durationTicks": 576,
          "midi": 66,
          "name": "F#4",
          "ticks": 191232,
          "time": 124.5,
          "velocity": 0.3937007874015748
        },
        {
          "duration": 0.375,
          "durationTicks": 576,
          "midi": 71,
          "name": "B4",
          "ticks": 191232,
          "time": 124.5,
          "velocity": 0.23622047244094488
        },
        {
          "duration": 0.375,
          "durationTicks": 576,
          "midi": 59,
          "name": "B3",
          "ticks": 191232,
          "time": 124.5,
          "velocity": 0.3937007874015748
        },
        {
          "duration": 0.125,
          "durationTicks": 192,
          "midi": 66,
          "name": "F#4",
          "ticks": 191808,
          "time": 124.875,
          "velocity": 0.3937007874015748
        },
        {
          "duration": 0.125,
          "durationTicks": 192,
          "midi": 71,
          "name": "B4",
          "ticks": 191808,
          "time": 124.875,
          "velocity": 0.23622047244094488
        },
        {
          "duration": 0.125,
          "durationTicks": 192,
          "midi": 64,
          "name": "E4",
          "ticks": 191808,
          "time": 124.875,
          "velocity": 0.2677165354330709
        },
        {
          "duration": 0.125,
          "durationTicks": 192,
          "midi": 62,
          "name": "D4",
          "ticks": 191808,
          "time": 124.875,
          "velocity": 0.3937007874015748
        },
        {
          "duration": 0.125,
          "durationTicks": 192,
          "midi": 59,
          "name": "B3",
          "ticks": 191808,
          "time": 124.875,
          "velocity": 0.3937007874015748
        },
        {
          "duration": 0.25,
          "durationTicks": 384,
          "midi": 64,
          "name": "E4",
          "ticks": 192384,
          "time": 125.25,
          "velocity": 0.1968503937007874
        },
        {
          "duration": 0.25,
          "durationTicks": 384,
          "midi": 59,
          "name": "B3",
          "ticks": 192384,
          "time": 125.25,
          "velocity": 0.3937007874015748
        },
        {
          "duration": 0.25,
          "durationTicks": 384,
          "midi": 66,
          "name": "F#4",
          "ticks": 192384,
          "time": 125.25,
          "velocity": 0.3937007874015748
        },
        {
          "duration": 0.25,
          "durationTicks": 384,
          "midi": 71,
          "name": "B4",
          "ticks": 192384,
          "time": 125.25,
          "velocity": 0.23622047244094488
        },
        {
          "duration": 0.25,
          "durationTicks": 384,
          "midi": 62,
          "name": "D4",
          "ticks": 192384,
          "time": 125.25,
          "velocity": 0.3937007874015748
        },
        {
          "duration": 0.125,
          "durationTicks": 192,
          "midi": 71,
          "name": "B4",
          "ticks": 192768,
          "time": 125.5,
          "velocity": 0.03937007874015748
        },
        {
          "duration": 0.125,
          "durationTicks": 192,
          "midi": 66,
          "name": "F#4",
          "ticks": 192768,
          "time": 125.5,
          "velocity": 0.1968503937007874
        },
        {
          "duration": 0.125,
          "durationTicks": 192,
          "midi": 62,
          "name": "D4",
          "ticks": 192768,
          "time": 125.5,
          "velocity": 0.1968503937007874
        },
        {
          "duration": 0.125,
          "durationTicks": 192,
          "midi": 59,
          "name": "B3",
          "ticks": 192768,
          "time": 125.5,
          "velocity": 0.1968503937007874
        },
        {
          "duration": 0,
          "durationTicks": 0,
          "midi": 64,
          "name": "E4",
          "ticks": 192960,
          "time": 125.625,
          "velocity": 0.1968503937007874
        },
        {
          "duration": 0.25,
          "durationTicks": 384,
          "midi": 71,
          "name": "B4",
          "ticks": 192960,
          "time": 125.625,
          "velocity": 0.23622047244094488
        },
        {
          "duration": 0.25,
          "durationTicks": 384,
          "midi": 59,
          "name": "B3",
          "ticks": 192960,
          "time": 125.625,
          "velocity": 0.3937007874015748
        },
        {
          "duration": 0.25,
          "durationTicks": 384,
          "midi": 66,
          "name": "F#4",
          "ticks": 192960,
          "time": 125.625,
          "velocity": 0.3937007874015748
        },
        {
          "duration": 0.25,
          "durationTicks": 384,
          "midi": 62,
          "name": "D4",
          "ticks": 192960,
          "time": 125.625,
          "velocity": 0.3937007874015748
        },
        {
          "duration": 0,
          "durationTicks": 0,
          "midi": 64,
          "name": "E4",
          "ticks": 193344,
          "time": 125.875,
          "velocity": 0.07874015748031496
        },
        {
          "duration": 0.125,
          "durationTicks": 192,
          "midi": 62,
          "name": "D4",
          "ticks": 193344,
          "time": 125.875,
          "velocity": 0.2677165354330709
        },
        {
          "duration": 0.125,
          "durationTicks": 192,
          "midi": 66,
          "name": "F#4",
          "ticks": 193344,
          "time": 125.875,
          "velocity": 0.2677165354330709
        },
        {
          "duration": 0.125,
          "durationTicks": 192,
          "midi": 71,
          "name": "B4",
          "ticks": 193344,
          "time": 125.875,
          "velocity": 0.11811023622047244
        },
        {
          "duration": 0.125,
          "durationTicks": 192,
          "midi": 59,
          "name": "B3",
          "ticks": 193344,
          "time": 125.875,
          "velocity": 0.2677165354330709
        },
        {
          "duration": 0.375,
          "durationTicks": 576,
          "midi": 61,
          "name": "C#4",
          "ticks": 193536,
          "time": 126,
          "velocity": 0.3937007874015748
        },
        {
          "duration": 0.375,
          "durationTicks": 576,
          "midi": 71,
          "name": "B4",
          "ticks": 193536,
          "time": 126,
          "velocity": 0.23622047244094488
        },
        {
          "duration": 0.375,
          "durationTicks": 576,
          "midi": 66,
          "name": "F#4",
          "ticks": 193536,
          "time": 126,
          "velocity": 0.3937007874015748
        },
        {
          "duration": 0.375,
          "durationTicks": 576,
          "midi": 62,
          "name": "D4",
          "ticks": 193536,
          "time": 126,
          "velocity": 0.1968503937007874
        },
        {
          "duration": 0.375,
          "durationTicks": 576,
          "midi": 59,
          "name": "B3",
          "ticks": 193536,
          "time": 126,
          "velocity": 0.3937007874015748
        },
        {
          "duration": 0.375,
          "durationTicks": 576,
          "midi": 62,
          "name": "D4",
          "ticks": 194304,
          "time": 126.5,
          "velocity": 0.1968503937007874
        },
        {
          "duration": 0.375,
          "durationTicks": 576,
          "midi": 61,
          "name": "C#4",
          "ticks": 194304,
          "time": 126.5,
          "velocity": 0.3937007874015748
        },
        {
          "duration": 0.375,
          "durationTicks": 576,
          "midi": 59,
          "name": "B3",
          "ticks": 194304,
          "time": 126.5,
          "velocity": 0.3937007874015748
        },
        {
          "duration": 0.375,
          "durationTicks": 576,
          "midi": 71,
          "name": "B4",
          "ticks": 194304,
          "time": 126.5,
          "velocity": 0.23622047244094488
        },
        {
          "duration": 0.375,
          "durationTicks": 576,
          "midi": 66,
          "name": "F#4",
          "ticks": 194304,
          "time": 126.5,
          "velocity": 0.3937007874015748
        },
        {
          "duration": 0.125,
          "durationTicks": 192,
          "midi": 66,
          "name": "F#4",
          "ticks": 194880,
          "time": 126.875,
          "velocity": 0.3937007874015748
        },
        {
          "duration": 0.125,
          "durationTicks": 192,
          "midi": 59,
          "name": "B3",
          "ticks": 194880,
          "time": 126.875,
          "velocity": 0.3937007874015748
        },
        {
          "duration": 0.125,
          "durationTicks": 192,
          "midi": 71,
          "name": "B4",
          "ticks": 194880,
          "time": 126.875,
          "velocity": 0.23622047244094488
        },
        {
          "duration": 0.125,
          "durationTicks": 192,
          "midi": 62,
          "name": "D4",
          "ticks": 194880,
          "time": 126.875,
          "velocity": 0.3937007874015748
        },
        {
          "duration": 0.25,
          "durationTicks": 384,
          "midi": 71,
          "name": "B4",
          "ticks": 195456,
          "time": 127.25,
          "velocity": 0.23622047244094488
        },
        {
          "duration": 0.25,
          "durationTicks": 384,
          "midi": 59,
          "name": "B3",
          "ticks": 195456,
          "time": 127.25,
          "velocity": 0.3937007874015748
        },
        {
          "duration": 0.25,
          "durationTicks": 384,
          "midi": 62,
          "name": "D4",
          "ticks": 195456,
          "time": 127.25,
          "velocity": 0.3937007874015748
        },
        {
          "duration": 0.25,
          "durationTicks": 384,
          "midi": 66,
          "name": "F#4",
          "ticks": 195456,
          "time": 127.25,
          "velocity": 0.3937007874015748
        },
        {
          "duration": 0.125,
          "durationTicks": 192,
          "midi": 62,
          "name": "D4",
          "ticks": 195840,
          "time": 127.5,
          "velocity": 0.1968503937007874
        },
        {
          "duration": 0.125,
          "durationTicks": 192,
          "midi": 66,
          "name": "F#4",
          "ticks": 195840,
          "time": 127.5,
          "velocity": 0.1968503937007874
        },
        {
          "duration": 0.125,
          "durationTicks": 192,
          "midi": 71,
          "name": "B4",
          "ticks": 195840,
          "time": 127.5,
          "velocity": 0.03937007874015748
        },
        {
          "duration": 0.125,
          "durationTicks": 192,
          "midi": 59,
          "name": "B3",
          "ticks": 195840,
          "time": 127.5,
          "velocity": 0.1968503937007874
        },
        {
          "duration": 0.25,
          "durationTicks": 384,
          "midi": 71,
          "name": "B4",
          "ticks": 196032,
          "time": 127.625,
          "velocity": 0.23622047244094488
        },
        {
          "duration": 0.25,
          "durationTicks": 384,
          "midi": 66,
          "name": "F#4",
          "ticks": 196032,
          "time": 127.625,
          "velocity": 0.3937007874015748
        },
        {
          "duration": 0.25,
          "durationTicks": 384,
          "midi": 62,
          "name": "D4",
          "ticks": 196032,
          "time": 127.625,
          "velocity": 0.3937007874015748
        },
        {
          "duration": 0.25,
          "durationTicks": 384,
          "midi": 59,
          "name": "B3",
          "ticks": 196032,
          "time": 127.625,
          "velocity": 0.3937007874015748
        },
        {
          "duration": 0.125,
          "durationTicks": 192,
          "midi": 66,
          "name": "F#4",
          "ticks": 196416,
          "time": 127.875,
          "velocity": 0.2677165354330709
        },
        {
          "duration": 0.125,
          "durationTicks": 192,
          "midi": 59,
          "name": "B3",
          "ticks": 196416,
          "time": 127.875,
          "velocity": 0.2677165354330709
        },
        {
          "duration": 0.125,
          "durationTicks": 192,
          "midi": 71,
          "name": "B4",
          "ticks": 196416,
          "time": 127.875,
          "velocity": 0.11811023622047244
        },
        {
          "duration": 0.125,
          "durationTicks": 192,
          "midi": 62,
          "name": "D4",
          "ticks": 196416,
          "time": 127.875,
          "velocity": 0.2677165354330709
        },
        {
          "duration": 0.375,
          "durationTicks": 576,
          "midi": 59,
          "name": "B3",
          "ticks": 196608,
          "time": 128,
          "velocity": 0.3937007874015748
        },
        {
          "duration": 0.375,
          "durationTicks": 576,
          "midi": 66,
          "name": "F#4",
          "ticks": 196608,
          "time": 128,
          "velocity": 0.3937007874015748
        },
        {
          "duration": 0.375,
          "durationTicks": 576,
          "midi": 71,
          "name": "B4",
          "ticks": 196608,
          "time": 128,
          "velocity": 0.23622047244094488
        },
        {
          "duration": 0.375,
          "durationTicks": 576,
          "midi": 62,
          "name": "D4",
          "ticks": 196608,
          "time": 128,
          "velocity": 0.3937007874015748
        },
        {
          "duration": 0.375,
          "durationTicks": 576,
          "midi": 61,
          "name": "C#4",
          "ticks": 196608,
          "time": 128,
          "velocity": 0.07874015748031496
        },
        {
          "duration": 0.375,
          "durationTicks": 576,
          "midi": 59,
          "name": "B3",
          "ticks": 197376,
          "time": 128.5,
          "velocity": 0.3937007874015748
        },
        {
          "duration": 0.375,
          "durationTicks": 576,
          "midi": 61,
          "name": "C#4",
          "ticks": 197376,
          "time": 128.5,
          "velocity": 0.11811023622047244
        },
        {
          "duration": 0.375,
          "durationTicks": 576,
          "midi": 71,
          "name": "B4",
          "ticks": 197376,
          "time": 128.5,
          "velocity": 0.23622047244094488
        },
        {
          "duration": 0.375,
          "durationTicks": 576,
          "midi": 62,
          "name": "D4",
          "ticks": 197376,
          "time": 128.5,
          "velocity": 0.31496062992125984
        },
        {
          "duration": 0.375,
          "durationTicks": 576,
          "midi": 66,
          "name": "F#4",
          "ticks": 197376,
          "time": 128.5,
          "velocity": 0.3937007874015748
        },
        {
          "duration": 0.125,
          "durationTicks": 192,
          "midi": 71,
          "name": "B4",
          "ticks": 197952,
          "time": 128.875,
          "velocity": 0.23622047244094488
        },
        {
          "duration": 0.125,
          "durationTicks": 192,
          "midi": 64,
          "name": "E4",
          "ticks": 197952,
          "time": 128.875,
          "velocity": 0.3937007874015748
        },
        {
          "duration": 0.125,
          "durationTicks": 192,
          "midi": 59,
          "name": "B3",
          "ticks": 197952,
          "time": 128.875,
          "velocity": 0.3937007874015748
        },
        {
          "duration": 0.125,
          "durationTicks": 192,
          "midi": 62,
          "name": "D4",
          "ticks": 197952,
          "time": 128.875,
          "velocity": 0.1968503937007874
        },
        {
          "duration": 0.25,
          "durationTicks": 384,
          "midi": 71,
          "name": "B4",
          "ticks": 198528,
          "time": 129.25,
          "velocity": 0.23622047244094488
        },
        {
          "duration": 0.25,
          "durationTicks": 384,
          "midi": 64,
          "name": "E4",
          "ticks": 198528,
          "time": 129.25,
          "velocity": 0.3937007874015748
        },
        {
          "duration": 0.25,
          "durationTicks": 384,
          "midi": 62,
          "name": "D4",
          "ticks": 198528,
          "time": 129.25,
          "velocity": 0.23622047244094488
        },
        {
          "duration": 0.25,
          "durationTicks": 384,
          "midi": 59,
          "name": "B3",
          "ticks": 198528,
          "time": 129.25,
          "velocity": 0.3937007874015748
        },
        {
          "duration": 0.125,
          "durationTicks": 192,
          "midi": 59,
          "name": "B3",
          "ticks": 198912,
          "time": 129.5,
          "velocity": 0.1968503937007874
        },
        {
          "duration": 0.125,
          "durationTicks": 192,
          "midi": 71,
          "name": "B4",
          "ticks": 198912,
          "time": 129.5,
          "velocity": 0.03937007874015748
        },
        {
          "duration": 0.125,
          "durationTicks": 192,
          "midi": 64,
          "name": "E4",
          "ticks": 198912,
          "time": 129.5,
          "velocity": 0.1968503937007874
        },
        {
          "duration": 0.125,
          "durationTicks": 192,
          "midi": 62,
          "name": "D4",
          "ticks": 198912,
          "time": 129.5,
          "velocity": 0.07874015748031496
        },
        {
          "duration": 0.25,
          "durationTicks": 384,
          "midi": 64,
          "name": "E4",
          "ticks": 199104,
          "time": 129.625,
          "velocity": 0.3937007874015748
        },
        {
          "duration": 0.25,
          "durationTicks": 384,
          "midi": 71,
          "name": "B4",
          "ticks": 199104,
          "time": 129.625,
          "velocity": 0.23622047244094488
        },
        {
          "duration": 0.25,
          "durationTicks": 384,
          "midi": 59,
          "name": "B3",
          "ticks": 199104,
          "time": 129.625,
          "velocity": 0.3937007874015748
        },
        {
          "duration": 0.25,
          "durationTicks": 384,
          "midi": 62,
          "name": "D4",
          "ticks": 199104,
          "time": 129.625,
          "velocity": 0.23622047244094488
        },
        {
          "duration": 0.125,
          "durationTicks": 192,
          "midi": 59,
          "name": "B3",
          "ticks": 199488,
          "time": 129.875,
          "velocity": 0.2677165354330709
        },
        {
          "duration": 0.125,
          "durationTicks": 192,
          "midi": 62,
          "name": "D4",
          "ticks": 199488,
          "time": 129.875,
          "velocity": 0.15748031496062992
        },
        {
          "duration": 0.125,
          "durationTicks": 192,
          "midi": 71,
          "name": "B4",
          "ticks": 199488,
          "time": 129.875,
          "velocity": 0.11811023622047244
        },
        {
          "duration": 0.125,
          "durationTicks": 192,
          "midi": 64,
          "name": "E4",
          "ticks": 199488,
          "time": 129.875,
          "velocity": 0.2677165354330709
        },
        {
          "duration": 0.3125,
          "durationTicks": 480,
          "midi": 61,
          "name": "C#4",
          "ticks": 199680,
          "time": 130,
          "velocity": 0.15748031496062992
        },
        {
          "duration": 0.3125,
          "durationTicks": 480,
          "midi": 71,
          "name": "B4",
          "ticks": 199680,
          "time": 130,
          "velocity": 0.23622047244094488
        },
        {
          "duration": 0.3125,
          "durationTicks": 480,
          "midi": 59,
          "name": "B3",
          "ticks": 199680,
          "time": 130,
          "velocity": 0.3937007874015748
        },
        {
          "duration": 0.3125,
          "durationTicks": 480,
          "midi": 66,
          "name": "F#4",
          "ticks": 199680,
          "time": 130,
          "velocity": 0.3937007874015748
        },
        {
          "duration": 0.3125,
          "durationTicks": 480,
          "midi": 62,
          "name": "D4",
          "ticks": 199680,
          "time": 130,
          "velocity": 0.3937007874015748
        },
        {
          "duration": 0.125,
          "durationTicks": 192,
          "midi": 61,
          "name": "C#4",
          "ticks": 200256,
          "time": 130.375,
          "velocity": 0.03937007874015748
        },
        {
          "duration": 0.125,
          "durationTicks": 192,
          "midi": 59,
          "name": "B3",
          "ticks": 200256,
          "time": 130.375,
          "velocity": 0.23622047244094488
        },
        {
          "duration": 0.125,
          "durationTicks": 192,
          "midi": 71,
          "name": "B4",
          "ticks": 200256,
          "time": 130.375,
          "velocity": 0.07874015748031496
        },
        {
          "duration": 0.125,
          "durationTicks": 192,
          "midi": 62,
          "name": "D4",
          "ticks": 200256,
          "time": 130.375,
          "velocity": 0.23622047244094488
        },
        {
          "duration": 0.125,
          "durationTicks": 192,
          "midi": 66,
          "name": "F#4",
          "ticks": 200256,
          "time": 130.375,
          "velocity": 0.23622047244094488
        },
        {
          "duration": 0.375,
          "durationTicks": 576,
          "midi": 66,
          "name": "F#4",
          "ticks": 200448,
          "time": 130.5,
          "velocity": 0.3937007874015748
        },
        {
          "duration": 0.375,
          "durationTicks": 576,
          "midi": 62,
          "name": "D4",
          "ticks": 200448,
          "time": 130.5,
          "velocity": 0.31496062992125984
        },
        {
          "duration": 0.375,
          "durationTicks": 576,
          "midi": 61,
          "name": "C#4",
          "ticks": 200448,
          "time": 130.5,
          "velocity": 0.1968503937007874
        },
        {
          "duration": 0.375,
          "durationTicks": 576,
          "midi": 71,
          "name": "B4",
          "ticks": 200448,
          "time": 130.5,
          "velocity": 0.23622047244094488
        },
        {
          "duration": 0.375,
          "durationTicks": 576,
          "midi": 59,
          "name": "B3",
          "ticks": 200448,
          "time": 130.5,
          "velocity": 0.3937007874015748
        },
        {
          "duration": 0.125,
          "durationTicks": 192,
          "midi": 62,
          "name": "D4",
          "ticks": 201024,
          "time": 130.875,
          "velocity": 0.1968503937007874
        },
        {
          "duration": 0.125,
          "durationTicks": 192,
          "midi": 71,
          "name": "B4",
          "ticks": 201024,
          "time": 130.875,
          "velocity": 0.23622047244094488
        },
        {
          "duration": 0.125,
          "durationTicks": 192,
          "midi": 59,
          "name": "B3",
          "ticks": 201024,
          "time": 130.875,
          "velocity": 0.3937007874015748
        },
        {
          "duration": 0.125,
          "durationTicks": 192,
          "midi": 64,
          "name": "E4",
          "ticks": 201024,
          "time": 130.875,
          "velocity": 0.3937007874015748
        },
        {
          "duration": 0.25,
          "durationTicks": 384,
          "midi": 71,
          "name": "B4",
          "ticks": 201600,
          "time": 131.25,
          "velocity": 0.23622047244094488
        },
        {
          "duration": 0.25,
          "durationTicks": 384,
          "midi": 59,
          "name": "B3",
          "ticks": 201600,
          "time": 131.25,
          "velocity": 0.3937007874015748
        },
        {
          "duration": 0.25,
          "durationTicks": 384,
          "midi": 64,
          "name": "E4",
          "ticks": 201600,
          "time": 131.25,
          "velocity": 0.3937007874015748
        },
        {
          "duration": 0.25,
          "durationTicks": 384,
          "midi": 62,
          "name": "D4",
          "ticks": 201600,
          "time": 131.25,
          "velocity": 0.23622047244094488
        },
        {
          "duration": 0.125,
          "durationTicks": 192,
          "midi": 64,
          "name": "E4",
          "ticks": 201984,
          "time": 131.5,
          "velocity": 0.1968503937007874
        },
        {
          "duration": 0.125,
          "durationTicks": 192,
          "midi": 59,
          "name": "B3",
          "ticks": 201984,
          "time": 131.5,
          "velocity": 0.1968503937007874
        },
        {
          "duration": 0.125,
          "durationTicks": 192,
          "midi": 62,
          "name": "D4",
          "ticks": 201984,
          "time": 131.5,
          "velocity": 0.07874015748031496
        },
        {
          "duration": 0.125,
          "durationTicks": 192,
          "midi": 71,
          "name": "B4",
          "ticks": 201984,
          "time": 131.5,
          "velocity": 0.03937007874015748
        },
        {
          "duration": 0.25,
          "durationTicks": 384,
          "midi": 71,
          "name": "B4",
          "ticks": 202176,
          "time": 131.625,
          "velocity": 0.23622047244094488
        },
        {
          "duration": 0.25,
          "durationTicks": 384,
          "midi": 62,
          "name": "D4",
          "ticks": 202176,
          "time": 131.625,
          "velocity": 0.23622047244094488
        },
        {
          "duration": 0.25,
          "durationTicks": 384,
          "midi": 64,
          "name": "E4",
          "ticks": 202176,
          "time": 131.625,
          "velocity": 0.3937007874015748
        },
        {
          "duration": 0.25,
          "durationTicks": 384,
          "midi": 59,
          "name": "B3",
          "ticks": 202176,
          "time": 131.625,
          "velocity": 0.3937007874015748
        },
        {
          "duration": 0.125,
          "durationTicks": 192,
          "midi": 59,
          "name": "B3",
          "ticks": 202560,
          "time": 131.875,
          "velocity": 0.2677165354330709
        },
        {
          "duration": 0.125,
          "durationTicks": 192,
          "midi": 62,
          "name": "D4",
          "ticks": 202560,
          "time": 131.875,
          "velocity": 0.15748031496062992
        },
        {
          "duration": 0.125,
          "durationTicks": 192,
          "midi": 64,
          "name": "E4",
          "ticks": 202560,
          "time": 131.875,
          "velocity": 0.2677165354330709
        },
        {
          "duration": 0.125,
          "durationTicks": 192,
          "midi": 71,
          "name": "B4",
          "ticks": 202560,
          "time": 131.875,
          "velocity": 0.11811023622047244
        },
        {
          "duration": 0.375,
          "durationTicks": 576,
          "midi": 59,
          "name": "B3",
          "ticks": 202752,
          "time": 132,
          "velocity": 0.3937007874015748
        },
        {
          "duration": 0.375,
          "durationTicks": 576,
          "midi": 66,
          "name": "F#4",
          "ticks": 202752,
          "time": 132,
          "velocity": 0.3937007874015748
        },
        {
          "duration": 0.375,
          "durationTicks": 576,
          "midi": 71,
          "name": "B4",
          "ticks": 202752,
          "time": 132,
          "velocity": 0.23622047244094488
        },
        {
          "duration": 0.375,
          "durationTicks": 576,
          "midi": 61,
          "name": "C#4",
          "ticks": 202752,
          "time": 132,
          "velocity": 0.23622047244094488
        },
        {
          "duration": 0.375,
          "durationTicks": 576,
          "midi": 62,
          "name": "D4",
          "ticks": 202752,
          "time": 132,
          "velocity": 0.3937007874015748
        },
        {
          "duration": 0.375,
          "durationTicks": 576,
          "midi": 59,
          "name": "B3",
          "ticks": 203520,
          "time": 132.5,
          "velocity": 0.3937007874015748
        },
        {
          "duration": 0.375,
          "durationTicks": 576,
          "midi": 62,
          "name": "D4",
          "ticks": 203520,
          "time": 132.5,
          "velocity": 0.3937007874015748
        },
        {
          "duration": 0.375,
          "durationTicks": 576,
          "midi": 61,
          "name": "C#4",
          "ticks": 203520,
          "time": 132.5,
          "velocity": 0.23622047244094488
        },
        {
          "duration": 0.375,
          "durationTicks": 576,
          "midi": 66,
          "name": "F#4",
          "ticks": 203520,
          "time": 132.5,
          "velocity": 0.3937007874015748
        },
        {
          "duration": 0.375,
          "durationTicks": 576,
          "midi": 71,
          "name": "B4",
          "ticks": 203520,
          "time": 132.5,
          "velocity": 0.23622047244094488
        }
      ],
      "endOfTrackTicks": 204096
    },
    {
      "channel": 15,
      "controlChanges": {},
      "pitchBends": [],
      "instrument": {
        "family": "world",
        "number": 104,
        "name": "sitar"
      },
      "name": "Sitar",
      "notes": [
        {
          "duration": 0.0625,
          "durationTicks": 96,
          "midi": 30,
          "name": "F#1",
          "ticks": 5376,
          "time": 3.5,
          "velocity": 0.15748031496062992
        }
      ],
      "endOfTrackTicks": 5472
    },
    {
      "channel": 0,
      "controlChanges": {},
      "pitchBends": [],
      "instrument": {
        "family": "piano",
        "number": 0,
        "name": "acoustic grand piano"
      },
      "name": "Flute",
      "notes": [
        {
          "duration": 0.125,
          "durationTicks": 192,
          "midi": 71,
          "name": "B4",
          "ticks": 2688,
          "time": 1.75,
          "velocity": 0.5748031496062992
        },
        {
          "duration": 0.125,
          "durationTicks": 192,
          "midi": 83,
          "name": "B5",
          "ticks": 2688,
          "time": 1.75,
          "velocity": 0.5748031496062992
        },
        {
          "duration": 0.125,
          "durationTicks": 192,
          "midi": 85,
          "name": "C#6",
          "ticks": 2880,
          "time": 1.875,
          "velocity": 0.5748031496062992
        },
        {
          "duration": 0.125,
          "durationTicks": 192,
          "midi": 73,
          "name": "C#5",
          "ticks": 2880,
          "time": 1.875,
          "velocity": 0.5748031496062992
        },
        {
          "duration": 0.375,
          "durationTicks": 576,
          "midi": 76,
          "name": "E5",
          "ticks": 3072,
          "time": 2,
          "velocity": 0.5748031496062992
        },
        {
          "duration": 0.25,
          "durationTicks": 384,
          "midi": 88,
          "name": "E6",
          "ticks": 3072,
          "time": 2,
          "velocity": 0.5748031496062992
        },
        {
          "duration": 0.0625,
          "durationTicks": 96,
          "midi": 90,
          "name": "F#6",
          "ticks": 3456,
          "time": 2.25,
          "velocity": 0.4015748031496063
        },
        {
          "duration": 0.0625,
          "durationTicks": 96,
          "midi": 88,
          "name": "E6",
          "ticks": 3552,
          "time": 2.3125,
          "velocity": 0.4015748031496063
        },
        {
          "duration": 0.375,
          "durationTicks": 576,
          "midi": 74,
          "name": "D5",
          "ticks": 3648,
          "time": 2.375,
          "velocity": 0.5748031496062992
        },
        {
          "duration": 0.375,
          "durationTicks": 576,
          "midi": 86,
          "name": "D6",
          "ticks": 3648,
          "time": 2.375,
          "velocity": 0.5748031496062992
        },
        {
          "duration": 0.25,
          "durationTicks": 384,
          "midi": 85,
          "name": "C#6",
          "ticks": 4224,
          "time": 2.75,
          "velocity": 0.5748031496062992
        },
        {
          "duration": 0.25,
          "durationTicks": 384,
          "midi": 73,
          "name": "C#5",
          "ticks": 4224,
          "time": 2.75,
          "velocity": 0.5748031496062992
        },
        {
          "duration": 0.5,
          "durationTicks": 768,
          "midi": 83,
          "name": "B5",
          "ticks": 4608,
          "time": 3,
          "velocity": 0.5748031496062992
        },
        {
          "duration": 0.5,
          "durationTicks": 768,
          "midi": 71,
          "name": "B4",
          "ticks": 4608,
          "time": 3,
          "velocity": 0.5748031496062992
        },
        {
          "duration": 0.75,
          "durationTicks": 1152,
          "midi": 90,
          "name": "F#6",
          "ticks": 5376,
          "time": 3.5,
          "velocity": 0.5748031496062992
        },
        {
          "duration": 0.75,
          "durationTicks": 1152,
          "midi": 78,
          "name": "F#5",
          "ticks": 5376,
          "time": 3.5,
          "velocity": 0.5748031496062992
        },
        {
          "duration": 0.0625,
          "durationTicks": 96,
          "midi": 69,
          "name": "A4",
          "ticks": 64128,
          "time": 41.75,
          "velocity": 0.5748031496062992
        },
        {
          "duration": 0.0625,
          "durationTicks": 96,
          "midi": 81,
          "name": "A5",
          "ticks": 64128,
          "time": 41.75,
          "velocity": 0.5748031496062992
        },
        {
          "duration": 0.0625,
          "durationTicks": 96,
          "midi": 71,
          "name": "B4",
          "ticks": 64512,
          "time": 42,
          "velocity": 0.5748031496062992
        },
        {
          "duration": 0.0625,
          "durationTicks": 96,
          "midi": 83,
          "name": "B5",
          "ticks": 64512,
          "time": 42,
          "velocity": 0.5748031496062992
        },
        {
          "duration": 0.0625,
          "durationTicks": 96,
          "midi": 88,
          "name": "E6",
          "ticks": 65664,
          "time": 42.75,
          "velocity": 0.5748031496062992
        },
        {
          "duration": 0.0625,
          "durationTicks": 96,
          "midi": 76,
          "name": "E5",
          "ticks": 65664,
          "time": 42.75,
          "velocity": 0.5748031496062992
        },
        {
          "duration": 0.0625,
          "durationTicks": 96,
          "midi": 88,
          "name": "E6",
          "ticks": 66048,
          "time": 43,
          "velocity": 0.5748031496062992
        },
        {
          "duration": 0.0625,
          "durationTicks": 96,
          "midi": 76,
          "name": "E5",
          "ticks": 66048,
          "time": 43,
          "velocity": 0.5748031496062992
        },
        {
          "duration": 0.125,
          "durationTicks": 192,
          "midi": 87,
          "name": "D#6",
          "ticks": 85632,
          "time": 55.75,
          "velocity": 0.5748031496062992
        },
        {
          "duration": 0.125,
          "durationTicks": 192,
          "midi": 88,
          "name": "E6",
          "ticks": 85824,
          "time": 55.875,
          "velocity": 0.5748031496062992
        },
        {
          "duration": 0.375,
          "durationTicks": 576,
          "midi": 90,
          "name": "F#6",
          "ticks": 86016,
          "time": 56,
          "velocity": 0.5748031496062992
        },
        {
          "duration": 0.375,
          "durationTicks": 576,
          "midi": 88,
          "name": "E6",
          "ticks": 86592,
          "time": 56.375,
          "velocity": 0.5748031496062992
        },
        {
          "duration": 0.25,
          "durationTicks": 384,
          "midi": 87,
          "name": "D#6",
          "ticks": 87168,
          "time": 56.75,
          "velocity": 0.5748031496062992
        },
        {
          "duration": 0.375,
          "durationTicks": 576,
          "midi": 85,
          "name": "C#6",
          "ticks": 87552,
          "time": 57,
          "velocity": 0.5748031496062992
        },
        {
          "duration": 0.0625,
          "durationTicks": 96,
          "midi": 87,
          "name": "D#6",
          "ticks": 88128,
          "time": 57.375,
          "velocity": 0.5748031496062992
        },
        {
          "duration": 0.0625,
          "durationTicks": 96,
          "midi": 85,
          "name": "C#6",
          "ticks": 88224,
          "time": 57.4375,
          "velocity": 0.5748031496062992
        },
        {
          "duration": 1.5,
          "durationTicks": 2304,
          "midi": 92,
          "name": "G#6",
          "ticks": 88320,
          "time": 57.5,
          "velocity": 0.5748031496062992
        },
        {
          "duration": 0.125,
          "durationTicks": 192,
          "midi": 87,
          "name": "D#6",
          "ticks": 91776,
          "time": 59.75,
          "velocity": 0.5748031496062992
        },
        {
          "duration": 0.125,
          "durationTicks": 192,
          "midi": 88,
          "name": "E6",
          "ticks": 91968,
          "time": 59.875,
          "velocity": 0.5748031496062992
        },
        {
          "duration": 0.375,
          "durationTicks": 576,
          "midi": 90,
          "name": "F#6",
          "ticks": 92160,
          "time": 60,
          "velocity": 0.5748031496062992
        },
        {
          "duration": 0.375,
          "durationTicks": 576,
          "midi": 88,
          "name": "E6",
          "ticks": 92736,
          "time": 60.375,
          "velocity": 0.5748031496062992
        },
        {
          "duration": 0.25,
          "durationTicks": 384,
          "midi": 87,
          "name": "D#6",
          "ticks": 93312,
          "time": 60.75,
          "velocity": 0.5748031496062992
        },
        {
          "duration": 0.4583333333333357,
          "durationTicks": 704,
          "midi": 85,
          "name": "C#6",
          "ticks": 93696,
          "time": 61,
          "velocity": 0.5748031496062992
        },
        {
          "duration": 0.0416666666666643,
          "durationTicks": 64,
          "midi": 87,
          "name": "D#6",
          "ticks": 94400,
          "time": 61.458333333333336,
          "velocity": 0.5748031496062992
        },
        {
          "duration": 0.0416666666666643,
          "durationTicks": 64,
          "midi": 88,
          "name": "E6",
          "ticks": 94464,
          "time": 61.5,
          "velocity": 0.5748031496062992
        },
        {
          "duration": 0.041666666666671404,
          "durationTicks": 64,
          "midi": 90,
          "name": "F#6",
          "ticks": 94528,
          "time": 61.541666666666664,
          "velocity": 0.5748031496062992
        },
        {
          "duration": 1.4375,
          "durationTicks": 2208,
          "midi": 92,
          "name": "G#6",
          "ticks": 94560,
          "time": 61.5625,
          "velocity": 0.5748031496062992
        },
        {
          "duration": 0.875,
          "durationTicks": 1344,
          "midi": 91,
          "name": "G6",
          "ticks": 98304,
          "time": 64,
          "velocity": 0.5748031496062992
        },
        {
          "duration": 0.0625,
          "durationTicks": 96,
          "midi": 90,
          "name": "F#6",
          "ticks": 99648,
          "time": 64.875,
          "velocity": 0.5748031496062992
        },
        {
          "duration": 0.0625,
          "durationTicks": 96,
          "midi": 91,
          "name": "G6",
          "ticks": 99744,
          "time": 64.9375,
          "velocity": 0.5748031496062992
        },
        {
          "duration": 1,
          "durationTicks": 1536,
          "midi": 90,
          "name": "F#6",
          "ticks": 99840,
          "time": 65,
          "velocity": 0.5748031496062992
        },
        {
          "duration": 0.0625,
          "durationTicks": 96,
          "midi": 81,
          "name": "A5",
          "ticks": 153216,
          "time": 99.75,
          "velocity": 0.5748031496062992
        },
        {
          "duration": 0.0625,
          "durationTicks": 96,
          "midi": 69,
          "name": "A4",
          "ticks": 153216,
          "time": 99.75,
          "velocity": 0.5748031496062992
        },
        {
          "duration": 0.0625,
          "durationTicks": 96,
          "midi": 71,
          "name": "B4",
          "ticks": 153600,
          "time": 100,
          "velocity": 0.5748031496062992
        },
        {
          "duration": 0.0625,
          "durationTicks": 96,
          "midi": 83,
          "name": "B5",
          "ticks": 153600,
          "time": 100,
          "velocity": 0.5748031496062992
        },
        {
          "duration": 0.0625,
          "durationTicks": 96,
          "midi": 88,
          "name": "E6",
          "ticks": 154752,
          "time": 100.75,
          "velocity": 0.5748031496062992
        },
        {
          "duration": 0.0625,
          "durationTicks": 96,
          "midi": 76,
          "name": "E5",
          "ticks": 154752,
          "time": 100.75,
          "velocity": 0.5748031496062992
        },
        {
          "duration": 0.0625,
          "durationTicks": 96,
          "midi": 88,
          "name": "E6",
          "ticks": 155136,
          "time": 101,
          "velocity": 0.5748031496062992
        },
        {
          "duration": 0.0625,
          "durationTicks": 96,
          "midi": 76,
          "name": "E5",
          "ticks": 155136,
          "time": 101,
          "velocity": 0.5748031496062992
        },
        {
          "duration": 0.125,
          "durationTicks": 192,
          "midi": 87,
          "name": "D#6",
          "ticks": 174720,
          "time": 113.75,
          "velocity": 0.5748031496062992
        },
        {
          "duration": 0.125,
          "durationTicks": 192,
          "midi": 88,
          "name": "E6",
          "ticks": 174912,
          "time": 113.875,
          "velocity": 0.5748031496062992
        },
        {
          "duration": 0.375,
          "durationTicks": 576,
          "midi": 90,
          "name": "F#6",
          "ticks": 175104,
          "time": 114,
          "velocity": 0.5748031496062992
        },
        {
          "duration": 0.375,
          "durationTicks": 576,
          "midi": 88,
          "name": "E6",
          "ticks": 175680,
          "time": 114.375,
          "velocity": 0.5748031496062992
        },
        {
          "duration": 0.25,
          "durationTicks": 384,
          "midi": 87,
          "name": "D#6",
          "ticks": 176256,
          "time": 114.75,
          "velocity": 0.5748031496062992
        },
        {
          "duration": 0.375,
          "durationTicks": 576,
          "midi": 85,
          "name": "C#6",
          "ticks": 176640,
          "time": 115,
          "velocity": 0.5748031496062992
        },
        {
          "duration": 0.0625,
          "durationTicks": 96,
          "midi": 87,
          "name": "D#6",
          "ticks": 177216,
          "time": 115.375,
          "velocity": 0.5748031496062992
        },
        {
          "duration": 0.0625,
          "durationTicks": 96,
          "midi": 85,
          "name": "C#6",
          "ticks": 177312,
          "time": 115.4375,
          "velocity": 0.5748031496062992
        },
        {
          "duration": 1.5,
          "durationTicks": 2304,
          "midi": 92,
          "name": "G#6",
          "ticks": 177408,
          "time": 115.5,
          "velocity": 0.5748031496062992
        },
        {
          "duration": 0.125,
          "durationTicks": 192,
          "midi": 87,
          "name": "D#6",
          "ticks": 180864,
          "time": 117.75,
          "velocity": 0.5748031496062992
        },
        {
          "duration": 0.125,
          "durationTicks": 192,
          "midi": 88,
          "name": "E6",
          "ticks": 181056,
          "time": 117.875,
          "velocity": 0.5748031496062992
        },
        {
          "duration": 0.375,
          "durationTicks": 576,
          "midi": 90,
          "name": "F#6",
          "ticks": 181248,
          "time": 118,
          "velocity": 0.5748031496062992
        },
        {
          "duration": 0.375,
          "durationTicks": 576,
          "midi": 88,
          "name": "E6",
          "ticks": 181824,
          "time": 118.375,
          "velocity": 0.5748031496062992
        },
        {
          "duration": 0.25,
          "durationTicks": 384,
          "midi": 87,
          "name": "D#6",
          "ticks": 182400,
          "time": 118.75,
          "velocity": 0.5748031496062992
        },
        {
          "duration": 0.4583333333333286,
          "durationTicks": 704,
          "midi": 85,
          "name": "C#6",
          "ticks": 182784,
          "time": 119,
          "velocity": 0.5748031496062992
        },
        {
          "duration": 0.041666666666671404,
          "durationTicks": 64,
          "midi": 87,
          "name": "D#6",
          "ticks": 183488,
          "time": 119.45833333333333,
          "velocity": 0.5748031496062992
        },
        {
          "duration": 0.041666666666671404,
          "durationTicks": 64,
          "midi": 88,
          "name": "E6",
          "ticks": 183552,
          "time": 119.5,
          "velocity": 0.5748031496062992
        },
        {
          "duration": 0.04166666666665719,
          "durationTicks": 64,
          "midi": 90,
          "name": "F#6",
          "ticks": 183616,
          "time": 119.54166666666667,
          "velocity": 0.5748031496062992
        },
        {
          "duration": 1.4375,
          "durationTicks": 2208,
          "midi": 92,
          "name": "G#6",
          "ticks": 183648,
          "time": 119.5625,
          "velocity": 0.5748031496062992
        },
        {
          "duration": 0.875,
          "durationTicks": 1344,
          "midi": 91,
          "name": "G6",
          "ticks": 187392,
          "time": 122,
          "velocity": 0.5748031496062992
        },
        {
          "duration": 0.0625,
          "durationTicks": 96,
          "midi": 90,
          "name": "F#6",
          "ticks": 188736,
          "time": 122.875,
          "velocity": 0.5748031496062992
        },
        {
          "duration": 0.0625,
          "durationTicks": 96,
          "midi": 91,
          "name": "G6",
          "ticks": 188832,
          "time": 122.9375,
          "velocity": 0.5748031496062992
        },
        {
          "duration": 1,
          "durationTicks": 1536,
          "midi": 90,
          "name": "F#6",
          "ticks": 188928,
          "time": 123,
          "velocity": 0.5748031496062992
        }
      ],
      "endOfTrackTicks": 190464
    },
    {
      "channel": 1,
      "controlChanges": {},
      "pitchBends": [],
      "instrument": {
        "family": "piano",
        "number": 0,
        "name": "acoustic grand piano"
      },
      "name": "Ragtime Piano",
      "notes": [
        {
          "duration": 0.125,
          "durationTicks": 192,
          "midi": 97,
          "name": "C#7",
          "ticks": 5376,
          "time": 3.5,
          "velocity": 0.3937007874015748
        },
        {
          "duration": 0.125,
          "durationTicks": 192,
          "midi": 85,
          "name": "C#6",
          "ticks": 5376,
          "time": 3.5,
          "velocity": 0.3937007874015748
        },
        {
          "duration": 0.125,
          "durationTicks": 192,
          "midi": 109,
          "name": "C#8",
          "ticks": 5376,
          "time": 3.5,
          "velocity": 0.3937007874015748
        },
        {
          "duration": 0.125,
          "durationTicks": 192,
          "midi": 109,
          "name": "C#8",
          "ticks": 5376,
          "time": 3.5,
          "velocity": 0.3937007874015748
        },
        {
          "duration": 0.125,
          "durationTicks": 192,
          "midi": 85,
          "name": "C#6",
          "ticks": 5376,
          "time": 3.5,
          "velocity": 0.3937007874015748
        },
        {
          "duration": 0.125,
          "durationTicks": 192,
          "midi": 97,
          "name": "C#7",
          "ticks": 5376,
          "time": 3.5,
          "velocity": 0.3937007874015748
        },
        {
          "duration": 0.125,
          "durationTicks": 192,
          "midi": 95,
          "name": "B6",
          "ticks": 6144,
          "time": 4,
          "velocity": 0.3937007874015748
        },
        {
          "duration": 0.125,
          "durationTicks": 192,
          "midi": 107,
          "name": "B7",
          "ticks": 6144,
          "time": 4,
          "velocity": 0.3937007874015748
        },
        {
          "duration": 0.125,
          "durationTicks": 192,
          "midi": 83,
          "name": "B5",
          "ticks": 6144,
          "time": 4,
          "velocity": 0.3937007874015748
        },
        {
          "duration": 0.125,
          "durationTicks": 192,
          "midi": 107,
          "name": "B7",
          "ticks": 6144,
          "time": 4,
          "velocity": 0.3937007874015748
        },
        {
          "duration": 0.125,
          "durationTicks": 192,
          "midi": 83,
          "name": "B5",
          "ticks": 6144,
          "time": 4,
          "velocity": 0.3937007874015748
        },
        {
          "duration": 0.125,
          "durationTicks": 192,
          "midi": 95,
          "name": "B6",
          "ticks": 6144,
          "time": 4,
          "velocity": 0.3937007874015748
        },
        {
          "duration": 0.125,
          "durationTicks": 192,
          "midi": 90,
          "name": "F#6",
          "ticks": 6912,
          "time": 4.5,
          "velocity": 0.3937007874015748
        },
        {
          "duration": 0.125,
          "durationTicks": 192,
          "midi": 78,
          "name": "F#5",
          "ticks": 6912,
          "time": 4.5,
          "velocity": 0.3937007874015748
        },
        {
          "duration": 0.125,
          "durationTicks": 192,
          "midi": 90,
          "name": "F#6",
          "ticks": 6912,
          "time": 4.5,
          "velocity": 0.3937007874015748
        },
        {
          "duration": 0.125,
          "durationTicks": 192,
          "midi": 102,
          "name": "F#7",
          "ticks": 6912,
          "time": 4.5,
          "velocity": 0.3937007874015748
        },
        {
          "duration": 0.125,
          "durationTicks": 192,
          "midi": 102,
          "name": "F#7",
          "ticks": 6912,
          "time": 4.5,
          "velocity": 0.3937007874015748
        },
        {
          "duration": 0.125,
          "durationTicks": 192,
          "midi": 78,
          "name": "F#5",
          "ticks": 6912,
          "time": 4.5,
          "velocity": 0.3937007874015748
        },
        {
          "duration": 0.125,
          "durationTicks": 192,
          "midi": 97,
          "name": "C#7",
          "ticks": 7680,
          "time": 5,
          "velocity": 0.3937007874015748
        },
        {
          "duration": 0.125,
          "durationTicks": 192,
          "midi": 97,
          "name": "C#7",
          "ticks": 7680,
          "time": 5,
          "velocity": 0.3937007874015748
        },
        {
          "duration": 0.125,
          "durationTicks": 192,
          "midi": 109,
          "name": "C#8",
          "ticks": 7680,
          "time": 5,
          "velocity": 0.3937007874015748
        },
        {
          "duration": 0.125,
          "durationTicks": 192,
          "midi": 109,
          "name": "C#8",
          "ticks": 7680,
          "time": 5,
          "velocity": 0.3937007874015748
        },
        {
          "duration": 0.125,
          "durationTicks": 192,
          "midi": 85,
          "name": "C#6",
          "ticks": 7680,
          "time": 5,
          "velocity": 0.3937007874015748
        },
        {
          "duration": 0.125,
          "durationTicks": 192,
          "midi": 85,
          "name": "C#6",
          "ticks": 7680,
          "time": 5,
          "velocity": 0.3937007874015748
        },
        {
          "duration": 0.125,
          "durationTicks": 192,
          "midi": 83,
          "name": "B5",
          "ticks": 8448,
          "time": 5.5,
          "velocity": 0.3937007874015748
        },
        {
          "duration": 0.125,
          "durationTicks": 192,
          "midi": 95,
          "name": "B6",
          "ticks": 8448,
          "time": 5.5,
          "velocity": 0.3937007874015748
        },
        {
          "duration": 0.125,
          "durationTicks": 192,
          "midi": 83,
          "name": "B5",
          "ticks": 8448,
          "time": 5.5,
          "velocity": 0.3937007874015748
        },
        {
          "duration": 0.125,
          "durationTicks": 192,
          "midi": 95,
          "name": "B6",
          "ticks": 8448,
          "time": 5.5,
          "velocity": 0.3937007874015748
        },
        {
          "duration": 0.125,
          "durationTicks": 192,
          "midi": 107,
          "name": "B7",
          "ticks": 8448,
          "time": 5.5,
          "velocity": 0.3937007874015748
        },
        {
          "duration": 0.125,
          "durationTicks": 192,
          "midi": 107,
          "name": "B7",
          "ticks": 8448,
          "time": 5.5,
          "velocity": 0.3937007874015748
        },
        {
          "duration": 0.125,
          "durationTicks": 192,
          "midi": 78,
          "name": "F#5",
          "ticks": 9216,
          "time": 6,
          "velocity": 0.3937007874015748
        },
        {
          "duration": 0.125,
          "durationTicks": 192,
          "midi": 90,
          "name": "F#6",
          "ticks": 9216,
          "time": 6,
          "velocity": 0.3937007874015748
        },
        {
          "duration": 0.125,
          "durationTicks": 192,
          "midi": 102,
          "name": "F#7",
          "ticks": 9216,
          "time": 6,
          "velocity": 0.3937007874015748
        },
        {
          "duration": 0.125,
          "durationTicks": 192,
          "midi": 78,
          "name": "F#5",
          "ticks": 9216,
          "time": 6,
          "velocity": 0.3937007874015748
        },
        {
          "duration": 0.125,
          "durationTicks": 192,
          "midi": 102,
          "name": "F#7",
          "ticks": 9216,
          "time": 6,
          "velocity": 0.3937007874015748
        },
        {
          "duration": 0.125,
          "durationTicks": 192,
          "midi": 90,
          "name": "F#6",
          "ticks": 9216,
          "time": 6,
          "velocity": 0.3937007874015748
        },
        {
          "duration": 0.125,
          "durationTicks": 192,
          "midi": 109,
          "name": "C#8",
          "ticks": 9984,
          "time": 6.5,
          "velocity": 0.3937007874015748
        },
        {
          "duration": 0.125,
          "durationTicks": 192,
          "midi": 85,
          "name": "C#6",
          "ticks": 9984,
          "time": 6.5,
          "velocity": 0.3937007874015748
        },
        {
          "duration": 0.125,
          "durationTicks": 192,
          "midi": 109,
          "name": "C#8",
          "ticks": 9984,
          "time": 6.5,
          "velocity": 0.3937007874015748
        },
        {
          "duration": 0.125,
          "durationTicks": 192,
          "midi": 97,
          "name": "C#7",
          "ticks": 9984,
          "time": 6.5,
          "velocity": 0.3937007874015748
        },
        {
          "duration": 0.125,
          "durationTicks": 192,
          "midi": 85,
          "name": "C#6",
          "ticks": 9984,
          "time": 6.5,
          "velocity": 0.3937007874015748
        },
        {
          "duration": 0.125,
          "durationTicks": 192,
          "midi": 97,
          "name": "C#7",
          "ticks": 9984,
          "time": 6.5,
          "velocity": 0.3937007874015748
        },
        {
          "duration": 0.125,
          "durationTicks": 192,
          "midi": 107,
          "name": "B7",
          "ticks": 10752,
          "time": 7,
          "velocity": 0.3937007874015748
        },
        {
          "duration": 0.125,
          "durationTicks": 192,
          "midi": 83,
          "name": "B5",
          "ticks": 10752,
          "time": 7,
          "velocity": 0.3937007874015748
        },
        {
          "duration": 0.125,
          "durationTicks": 192,
          "midi": 83,
          "name": "B5",
          "ticks": 10752,
          "time": 7,
          "velocity": 0.3937007874015748
        },
        {
          "duration": 0.125,
          "durationTicks": 192,
          "midi": 95,
          "name": "B6",
          "ticks": 10752,
          "time": 7,
          "velocity": 0.3937007874015748
        },
        {
          "duration": 0.125,
          "durationTicks": 192,
          "midi": 95,
          "name": "B6",
          "ticks": 10752,
          "time": 7,
          "velocity": 0.3937007874015748
        },
        {
          "duration": 0.125,
          "durationTicks": 192,
          "midi": 107,
          "name": "B7",
          "ticks": 10752,
          "time": 7,
          "velocity": 0.3937007874015748
        },
        {
          "duration": 0.125,
          "durationTicks": 192,
          "midi": 102,
          "name": "F#7",
          "ticks": 11520,
          "time": 7.5,
          "velocity": 0.3937007874015748
        },
        {
          "duration": 0.125,
          "durationTicks": 192,
          "midi": 90,
          "name": "F#6",
          "ticks": 11520,
          "time": 7.5,
          "velocity": 0.3937007874015748
        },
        {
          "duration": 0.125,
          "durationTicks": 192,
          "midi": 78,
          "name": "F#5",
          "ticks": 11520,
          "time": 7.5,
          "velocity": 0.3937007874015748
        },
        {
          "duration": 0.125,
          "durationTicks": 192,
          "midi": 102,
          "name": "F#7",
          "ticks": 11520,
          "time": 7.5,
          "velocity": 0.3937007874015748
        },
        {
          "duration": 0.125,
          "durationTicks": 192,
          "midi": 78,
          "name": "F#5",
          "ticks": 11520,
          "time": 7.5,
          "velocity": 0.3937007874015748
        },
        {
          "duration": 0.125,
          "durationTicks": 192,
          "midi": 90,
          "name": "F#6",
          "ticks": 11520,
          "time": 7.5,
          "velocity": 0.3937007874015748
        }
      ],
      "endOfTrackTicks": 11712
    },
    {
      "channel": 2,
      "controlChanges": {},
      "pitchBends": [],
      "instrument": {
        "family": "piano",
        "number": 0,
        "name": "acoustic grand piano"
      },
      "name": "Church Organ",
      "notes": [
        {
          "duration": 0.1666666666666643,
          "durationTicks": 256,
          "midi": 52,
          "name": "E3",
          "ticks": 70656,
          "time": 46,
          "velocity": 0.29133858267716534
        },
        {
          "duration": 0.1666666666666643,
          "durationTicks": 256,
          "midi": 60,
          "name": "C4",
          "ticks": 70656,
          "time": 46,
          "velocity": 0.29133858267716534
        },
        {
          "duration": 0.1666666666666643,
          "durationTicks": 256,
          "midi": 57,
          "name": "A3",
          "ticks": 70656,
          "time": 46,
          "velocity": 0.29133858267716534
        },
        {
          "duration": 0.1666666666666714,
          "durationTicks": 256,
          "midi": 52,
          "name": "E3",
          "ticks": 70912,
          "time": 46.166666666666664,
          "velocity": 0.29133858267716534
        },
        {
          "duration": 0.1666666666666714,
          "durationTicks": 256,
          "midi": 57,
          "name": "A3",
          "ticks": 70912,
          "time": 46.166666666666664,
          "velocity": 0.29133858267716534
        },
        {
          "duration": 0.1666666666666714,
          "durationTicks": 256,
          "midi": 60,
          "name": "C4",
          "ticks": 70912,
          "time": 46.166666666666664,
          "velocity": 0.29133858267716534
        },
        {
          "duration": 0.1666666666666643,
          "durationTicks": 256,
          "midi": 52,
          "name": "E3",
          "ticks": 71168,
          "time": 46.333333333333336,
          "velocity": 0.29133858267716534
        },
        {
          "duration": 0.1666666666666643,
          "durationTicks": 256,
          "midi": 57,
          "name": "A3",
          "ticks": 71168,
          "time": 46.333333333333336,
          "velocity": 0.29133858267716534
        },
        {
          "duration": 0.1666666666666643,
          "durationTicks": 256,
          "midi": 60,
          "name": "C4",
          "ticks": 71168,
          "time": 46.333333333333336,
          "velocity": 0.29133858267716534
        },
        {
          "duration": 0.1666666666666643,
          "durationTicks": 256,
          "midi": 60,
          "name": "C4",
          "ticks": 71424,
          "time": 46.5,
          "velocity": 0.29133858267716534
        },
        {
          "duration": 0.1666666666666643,
          "durationTicks": 256,
          "midi": 52,
          "name": "E3",
          "ticks": 71424,
          "time": 46.5,
          "velocity": 0.29133858267716534
        },
        {
          "duration": 0.1666666666666643,
          "durationTicks": 256,
          "midi": 57,
          "name": "A3",
          "ticks": 71424,
          "time": 46.5,
          "velocity": 0.29133858267716534
        },
        {
          "duration": 0.1666666666666714,
          "durationTicks": 256,
          "midi": 57,
          "name": "A3",
          "ticks": 71680,
          "time": 46.666666666666664,
          "velocity": 0.29133858267716534
        },
        {
          "duration": 0.1666666666666714,
          "durationTicks": 256,
          "midi": 52,
          "name": "E3",
          "ticks": 71680,
          "time": 46.666666666666664,
          "velocity": 0.29133858267716534
        },
        {
          "duration": 0.1666666666666714,
          "durationTicks": 256,
          "midi": 60,
          "name": "C4",
          "ticks": 71680,
          "time": 46.666666666666664,
          "velocity": 0.29133858267716534
        },
        {
          "duration": 0.1666666666666643,
          "durationTicks": 256,
          "midi": 57,
          "name": "A3",
          "ticks": 71936,
          "time": 46.833333333333336,
          "velocity": 0.29133858267716534
        },
        {
          "duration": 0.1666666666666643,
          "durationTicks": 256,
          "midi": 52,
          "name": "E3",
          "ticks": 71936,
          "time": 46.833333333333336,
          "velocity": 0.29133858267716534
        },
        {
          "duration": 0.1666666666666643,
          "durationTicks": 256,
          "midi": 60,
          "name": "C4",
          "ticks": 71936,
          "time": 46.833333333333336,
          "velocity": 0.29133858267716534
        },
        {
          "duration": 0.1666666666666643,
          "durationTicks": 256,
          "midi": 52,
          "name": "E3",
          "ticks": 72192,
          "time": 47,
          "velocity": 0.29133858267716534
        },
        {
          "duration": 0.1666666666666643,
          "durationTicks": 256,
          "midi": 60,
          "name": "C4",
          "ticks": 72192,
          "time": 47,
          "velocity": 0.29133858267716534
        },
        {
          "duration": 0.1666666666666643,
          "durationTicks": 256,
          "midi": 57,
          "name": "A3",
          "ticks": 72192,
          "time": 47,
          "velocity": 0.29133858267716534
        },
        {
          "duration": 0.1666666666666714,
          "durationTicks": 256,
          "midi": 52,
          "name": "E3",
          "ticks": 72448,
          "time": 47.166666666666664,
          "velocity": 0.29133858267716534
        },
        {
          "duration": 0.1666666666666714,
          "durationTicks": 256,
          "midi": 60,
          "name": "C4",
          "ticks": 72448,
          "time": 47.166666666666664,
          "velocity": 0.29133858267716534
        },
        {
          "duration": 0.1666666666666714,
          "durationTicks": 256,
          "midi": 57,
          "name": "A3",
          "ticks": 72448,
          "time": 47.166666666666664,
          "velocity": 0.29133858267716534
        },
        {
          "duration": 0.1666666666666643,
          "durationTicks": 256,
          "midi": 50,
          "name": "D3",
          "ticks": 72704,
          "time": 47.333333333333336,
          "velocity": 0.29133858267716534
        },
        {
          "duration": 0.1666666666666643,
          "durationTicks": 256,
          "midi": 52,
          "name": "E3",
          "ticks": 72704,
          "time": 47.333333333333336,
          "velocity": 0.29133858267716534
        },
        {
          "duration": 0.1666666666666643,
          "durationTicks": 256,
          "midi": 60,
          "name": "C4",
          "ticks": 72704,
          "time": 47.333333333333336,
          "velocity": 0.29133858267716534
        },
        {
          "duration": 0.1666666666666643,
          "durationTicks": 256,
          "midi": 57,
          "name": "A3",
          "ticks": 72704,
          "time": 47.333333333333336,
          "velocity": 0.29133858267716534
        },
        {
          "duration": 0.1666666666666643,
          "durationTicks": 256,
          "midi": 60,
          "name": "C4",
          "ticks": 72960,
          "time": 47.5,
          "velocity": 0.29133858267716534
        },
        {
          "duration": 0.1666666666666643,
          "durationTicks": 256,
          "midi": 52,
          "name": "E3",
          "ticks": 72960,
          "time": 47.5,
          "velocity": 0.29133858267716534
        },
        {
          "duration": 0.1666666666666643,
          "durationTicks": 256,
          "midi": 57,
          "name": "A3",
          "ticks": 72960,
          "time": 47.5,
          "velocity": 0.29133858267716534
        },
        {
          "duration": 0.1666666666666643,
          "durationTicks": 256,
          "midi": 50,
          "name": "D3",
          "ticks": 72960,
          "time": 47.5,
          "velocity": 0.29133858267716534
        },
        {
          "duration": 0.1666666666666714,
          "durationTicks": 256,
          "midi": 60,
          "name": "C4",
          "ticks": 73216,
          "time": 47.666666666666664,
          "velocity": 0.29133858267716534
        },
        {
          "duration": 0.1666666666666714,
          "durationTicks": 256,
          "midi": 52,
          "name": "E3",
          "ticks": 73216,
          "time": 47.666666666666664,
          "velocity": 0.29133858267716534
        },
        {
          "duration": 0.1666666666666714,
          "durationTicks": 256,
          "midi": 50,
          "name": "D3",
          "ticks": 73216,
          "time": 47.666666666666664,
          "velocity": 0.29133858267716534
        },
        {
          "duration": 0.1666666666666714,
          "durationTicks": 256,
          "midi": 57,
          "name": "A3",
          "ticks": 73216,
          "time": 47.666666666666664,
          "velocity": 0.29133858267716534
        },
        {
          "duration": 0.1666666666666643,
          "durationTicks": 256,
          "midi": 52,
          "name": "E3",
          "ticks": 73472,
          "time": 47.833333333333336,
          "velocity": 0.29133858267716534
        },
        {
          "duration": 0.1666666666666643,
          "durationTicks": 256,
          "midi": 50,
          "name": "D3",
          "ticks": 73472,
          "time": 47.833333333333336,
          "velocity": 0.29133858267716534
        },
        {
          "duration": 0.1666666666666643,
          "durationTicks": 256,
          "midi": 57,
          "name": "A3",
          "ticks": 73472,
          "time": 47.833333333333336,
          "velocity": 0.29133858267716534
        },
        {
          "duration": 0.1666666666666643,
          "durationTicks": 256,
          "midi": 60,
          "name": "C4",
          "ticks": 73472,
          "time": 47.833333333333336,
          "velocity": 0.29133858267716534
        },
        {
          "duration": 0.1666666666666643,
          "durationTicks": 256,
          "midi": 60,
          "name": "C4",
          "ticks": 73728,
          "time": 48,
          "velocity": 0.29133858267716534
        },
        {
          "duration": 0.1666666666666643,
          "durationTicks": 256,
          "midi": 52,
          "name": "E3",
          "ticks": 73728,
          "time": 48,
          "velocity": 0.29133858267716534
        },
        {
          "duration": 0.1666666666666643,
          "durationTicks": 256,
          "midi": 57,
          "name": "A3",
          "ticks": 73728,
          "time": 48,
          "velocity": 0.29133858267716534
        },
        {
          "duration": 0.1666666666666643,
          "durationTicks": 256,
          "midi": 50,
          "name": "D3",
          "ticks": 73728,
          "time": 48,
          "velocity": 0.29133858267716534
        },
        {
          "duration": 0.1666666666666714,
          "durationTicks": 256,
          "midi": 52,
          "name": "E3",
          "ticks": 73984,
          "time": 48.166666666666664,
          "velocity": 0.23622047244094488
        },
        {
          "duration": 0.1666666666666714,
          "durationTicks": 256,
          "midi": 60,
          "name": "C4",
          "ticks": 73984,
          "time": 48.166666666666664,
          "velocity": 0.29133858267716534
        },
        {
          "duration": 0.1666666666666714,
          "durationTicks": 256,
          "midi": 57,
          "name": "A3",
          "ticks": 73984,
          "time": 48.166666666666664,
          "velocity": 0.2047244094488189
        },
        {
          "duration": 0.1666666666666714,
          "durationTicks": 256,
          "midi": 50,
          "name": "D3",
          "ticks": 73984,
          "time": 48.166666666666664,
          "velocity": 0.23622047244094488
        },
        {
          "duration": 0.1666666666666643,
          "durationTicks": 256,
          "midi": 60,
          "name": "C4",
          "ticks": 74240,
          "time": 48.333333333333336,
          "velocity": 0.29133858267716534
        },
        {
          "duration": 0.1666666666666643,
          "durationTicks": 256,
          "midi": 50,
          "name": "D3",
          "ticks": 74240,
          "time": 48.333333333333336,
          "velocity": 0.14173228346456693
        },
        {
          "duration": 0.1666666666666643,
          "durationTicks": 256,
          "midi": 57,
          "name": "A3",
          "ticks": 74240,
          "time": 48.333333333333336,
          "velocity": 0.1732283464566929
        },
        {
          "duration": 0.1666666666666643,
          "durationTicks": 256,
          "midi": 60,
          "name": "C4",
          "ticks": 74496,
          "time": 48.5,
          "velocity": 0.29133858267716534
        },
        {
          "duration": 0.1666666666666714,
          "durationTicks": 256,
          "midi": 60,
          "name": "C4",
          "ticks": 74752,
          "time": 48.666666666666664,
          "velocity": 0.29133858267716534
        },
        {
          "duration": 0.1666666666666643,
          "durationTicks": 256,
          "midi": 60,
          "name": "C4",
          "ticks": 75008,
          "time": 48.833333333333336,
          "velocity": 0.29133858267716534
        },
        {
          "duration": 0.1666666666666643,
          "durationTicks": 256,
          "midi": 60,
          "name": "C4",
          "ticks": 75264,
          "time": 49,
          "velocity": 0.29133858267716534
        },
        {
          "duration": 0.1666666666666714,
          "durationTicks": 256,
          "midi": 60,
          "name": "C4",
          "ticks": 75520,
          "time": 49.166666666666664,
          "velocity": 0.29133858267716534
        },
        {
          "duration": 0.1666666666666643,
          "durationTicks": 256,
          "midi": 60,
          "name": "C4",
          "ticks": 75776,
          "time": 49.333333333333336,
          "velocity": 0.29133858267716534
        },
        {
          "duration": 0.1666666666666643,
          "durationTicks": 256,
          "midi": 60,
          "name": "C4",
          "ticks": 76032,
          "time": 49.5,
          "velocity": 0.29133858267716534
        },
        {
          "duration": 0.1666666666666714,
          "durationTicks": 256,
          "midi": 60,
          "name": "C4",
          "ticks": 76288,
          "time": 49.666666666666664,
          "velocity": 0.29133858267716534
        },
        {
          "duration": 0.1666666666666643,
          "durationTicks": 256,
          "midi": 60,
          "name": "C4",
          "ticks": 76544,
          "time": 49.833333333333336,
          "velocity": 0.29133858267716534
        },
        {
          "duration": 0.1666666666666643,
          "durationTicks": 256,
          "midi": 60,
          "name": "C4",
          "ticks": 76800,
          "time": 50,
          "velocity": 0.29133858267716534
        },
        {
          "duration": 0.1666666666666714,
          "durationTicks": 256,
          "midi": 60,
          "name": "C4",
          "ticks": 77056,
          "time": 50.166666666666664,
          "velocity": 0.29133858267716534
        },
        {
          "duration": 0.1666666666666643,
          "durationTicks": 256,
          "midi": 60,
          "name": "C4",
          "ticks": 77312,
          "time": 50.333333333333336,
          "velocity": 0.29133858267716534
        },
        {
          "duration": 0.1666666666666643,
          "durationTicks": 256,
          "midi": 60,
          "name": "C4",
          "ticks": 77568,
          "time": 50.5,
          "velocity": 0.29133858267716534
        },
        {
          "duration": 0.1666666666666714,
          "durationTicks": 256,
          "midi": 60,
          "name": "C4",
          "ticks": 77824,
          "time": 50.666666666666664,
          "velocity": 0.29133858267716534
        },
        {
          "duration": 0.1666666666666643,
          "durationTicks": 256,
          "midi": 60,
          "name": "C4",
          "ticks": 78080,
          "time": 50.833333333333336,
          "velocity": 0.29133858267716534
        },
        {
          "duration": 0.1666666666666643,
          "durationTicks": 256,
          "midi": 59,
          "name": "B3",
          "ticks": 78336,
          "time": 51,
          "velocity": 0.29133858267716534
        },
        {
          "duration": 0.1666666666666714,
          "durationTicks": 256,
          "midi": 59,
          "name": "B3",
          "ticks": 78592,
          "time": 51.166666666666664,
          "velocity": 0.29133858267716534
        },
        {
          "duration": 0.1666666666666643,
          "durationTicks": 256,
          "midi": 59,
          "name": "B3",
          "ticks": 78848,
          "time": 51.333333333333336,
          "velocity": 0.29133858267716534
        },
        {
          "duration": 0.1666666666666643,
          "durationTicks": 256,
          "midi": 59,
          "name": "B3",
          "ticks": 79104,
          "time": 51.5,
          "velocity": 0.29133858267716534
        },
        {
          "duration": 0.1666666666666714,
          "durationTicks": 256,
          "midi": 59,
          "name": "B3",
          "ticks": 79360,
          "time": 51.666666666666664,
          "velocity": 0.29133858267716534
        },
        {
          "duration": 0.1666666666666643,
          "durationTicks": 256,
          "midi": 59,
          "name": "B3",
          "ticks": 79616,
          "time": 51.833333333333336,
          "velocity": 0.29133858267716534
        },
        {
          "duration": 0.1666666666666643,
          "durationTicks": 256,
          "midi": 58,
          "name": "A#3",
          "ticks": 79872,
          "time": 52,
          "velocity": 0.29133858267716534
        },
        {
          "duration": 0.1666666666666714,
          "durationTicks": 256,
          "midi": 58,
          "name": "A#3",
          "ticks": 80128,
          "time": 52.166666666666664,
          "velocity": 0.29133858267716534
        },
        {
          "duration": 0.1666666666666643,
          "durationTicks": 256,
          "midi": 58,
          "name": "A#3",
          "ticks": 80384,
          "time": 52.333333333333336,
          "velocity": 0.29133858267716534
        },
        {
          "duration": 0.1666666666666643,
          "durationTicks": 256,
          "midi": 58,
          "name": "A#3",
          "ticks": 80640,
          "time": 52.5,
          "velocity": 0.29133858267716534
        },
        {
          "duration": 0.1666666666666714,
          "durationTicks": 256,
          "midi": 58,
          "name": "A#3",
          "ticks": 80896,
          "time": 52.666666666666664,
          "velocity": 0.29133858267716534
        },
        {
          "duration": 0.1666666666666643,
          "durationTicks": 256,
          "midi": 58,
          "name": "A#3",
          "ticks": 81152,
          "time": 52.833333333333336,
          "velocity": 0.29133858267716534
        },
        {
          "duration": 0.1666666666666643,
          "durationTicks": 256,
          "midi": 59,
          "name": "B3",
          "ticks": 81408,
          "time": 53,
          "velocity": 0.29133858267716534
        },
        {
          "duration": 0.1666666666666714,
          "durationTicks": 256,
          "midi": 59,
          "name": "B3",
          "ticks": 81664,
          "time": 53.166666666666664,
          "velocity": 0.29133858267716534
        },
        {
          "duration": 0.1666666666666643,
          "durationTicks": 256,
          "midi": 59,
          "name": "B3",
          "ticks": 81920,
          "time": 53.333333333333336,
          "velocity": 0.29133858267716534
        },
        {
          "duration": 0.1666666666666643,
          "durationTicks": 256,
          "midi": 59,
          "name": "B3",
          "ticks": 82176,
          "time": 53.5,
          "velocity": 0.29133858267716534
        },
        {
          "duration": 0.1666666666666714,
          "durationTicks": 256,
          "midi": 59,
          "name": "B3",
          "ticks": 82432,
          "time": 53.666666666666664,
          "velocity": 0.29133858267716534
        },
        {
          "duration": 0.1666666666666643,
          "durationTicks": 256,
          "midi": 59,
          "name": "B3",
          "ticks": 82688,
          "time": 53.833333333333336,
          "velocity": 0.29133858267716534
        },
        {
          "duration": 0.1666666666666643,
          "durationTicks": 256,
          "midi": 54,
          "name": "F#3",
          "ticks": 82944,
          "time": 54,
          "velocity": 0.29133858267716534
        },
        {
          "duration": 0.1666666666666714,
          "durationTicks": 256,
          "midi": 54,
          "name": "F#3",
          "ticks": 83200,
          "time": 54.166666666666664,
          "velocity": 0.29133858267716534
        },
        {
          "duration": 0.1666666666666643,
          "durationTicks": 256,
          "midi": 54,
          "name": "F#3",
          "ticks": 83456,
          "time": 54.333333333333336,
          "velocity": 0.29133858267716534
        },
        {
          "duration": 0.1666666666666643,
          "durationTicks": 256,
          "midi": 54,
          "name": "F#3",
          "ticks": 83712,
          "time": 54.5,
          "velocity": 0.29133858267716534
        },
        {
          "duration": 0.1666666666666714,
          "durationTicks": 256,
          "midi": 54,
          "name": "F#3",
          "ticks": 83968,
          "time": 54.666666666666664,
          "velocity": 0.29133858267716534
        },
        {
          "duration": 0.1666666666666643,
          "durationTicks": 256,
          "midi": 54,
          "name": "F#3",
          "ticks": 84224,
          "time": 54.833333333333336,
          "velocity": 0.29133858267716534
        },
        {
          "duration": 0.1666666666666643,
          "durationTicks": 256,
          "midi": 52,
          "name": "E3",
          "ticks": 84480,
          "time": 55,
          "velocity": 0.29133858267716534
        },
        {
          "duration": 0.1666666666666714,
          "durationTicks": 256,
          "midi": 52,
          "name": "E3",
          "ticks": 84736,
          "time": 55.166666666666664,
          "velocity": 0.29133858267716534
        },
        {
          "duration": 0.1666666666666643,
          "durationTicks": 256,
          "midi": 52,
          "name": "E3",
          "ticks": 84992,
          "time": 55.333333333333336,
          "velocity": 0.29133858267716534
        },
        {
          "duration": 0.1666666666666643,
          "durationTicks": 256,
          "midi": 52,
          "name": "E3",
          "ticks": 85248,
          "time": 55.5,
          "velocity": 0.29133858267716534
        },
        {
          "duration": 0.1666666666666714,
          "durationTicks": 256,
          "midi": 52,
          "name": "E3",
          "ticks": 85504,
          "time": 55.666666666666664,
          "velocity": 0.29133858267716534
        },
        {
          "duration": 0.1666666666666643,
          "durationTicks": 256,
          "midi": 52,
          "name": "E3",
          "ticks": 85760,
          "time": 55.833333333333336,
          "velocity": 0.29133858267716534
        },
        {
          "duration": 0.1666666666666643,
          "durationTicks": 256,
          "midi": 64,
          "name": "E4",
          "ticks": 86016,
          "time": 56,
          "velocity": 0.14173228346456693
        },
        {
          "duration": 0.1666666666666714,
          "durationTicks": 256,
          "midi": 64,
          "name": "E4",
          "ticks": 86272,
          "time": 56.166666666666664,
          "velocity": 0.14173228346456693
        },
        {
          "duration": 0.1666666666666643,
          "durationTicks": 256,
          "midi": 64,
          "name": "E4",
          "ticks": 86528,
          "time": 56.333333333333336,
          "velocity": 0.14173228346456693
        },
        {
          "duration": 0.1666666666666643,
          "durationTicks": 256,
          "midi": 64,
          "name": "E4",
          "ticks": 86784,
          "time": 56.5,
          "velocity": 0.14173228346456693
        },
        {
          "duration": 0.1666666666666714,
          "durationTicks": 256,
          "midi": 64,
          "name": "E4",
          "ticks": 87040,
          "time": 56.666666666666664,
          "velocity": 0.14173228346456693
        },
        {
          "duration": 0.1666666666666643,
          "durationTicks": 256,
          "midi": 64,
          "name": "E4",
          "ticks": 87296,
          "time": 56.833333333333336,
          "velocity": 0.14173228346456693
        },
        {
          "duration": 0.1666666666666643,
          "durationTicks": 256,
          "midi": 64,
          "name": "E4",
          "ticks": 87552,
          "time": 57,
          "velocity": 0.14173228346456693
        },
        {
          "duration": 0.1666666666666714,
          "durationTicks": 256,
          "midi": 64,
          "name": "E4",
          "ticks": 87808,
          "time": 57.166666666666664,
          "velocity": 0.14173228346456693
        },
        {
          "duration": 0.1666666666666643,
          "durationTicks": 256,
          "midi": 64,
          "name": "E4",
          "ticks": 88064,
          "time": 57.333333333333336,
          "velocity": 0.14173228346456693
        },
        {
          "duration": 0.1666666666666643,
          "durationTicks": 256,
          "midi": 64,
          "name": "E4",
          "ticks": 88320,
          "time": 57.5,
          "velocity": 0.14173228346456693
        },
        {
          "duration": 0.1666666666666714,
          "durationTicks": 256,
          "midi": 64,
          "name": "E4",
          "ticks": 88576,
          "time": 57.666666666666664,
          "velocity": 0.14173228346456693
        },
        {
          "duration": 0.1666666666666643,
          "durationTicks": 256,
          "midi": 64,
          "name": "E4",
          "ticks": 88832,
          "time": 57.833333333333336,
          "velocity": 0.14173228346456693
        },
        {
          "duration": 0.25,
          "durationTicks": 384,
          "midi": 84,
          "name": "C6",
          "ticks": 89088,
          "time": 58,
          "velocity": 0.29133858267716534
        },
        {
          "duration": 0.25,
          "durationTicks": 384,
          "midi": 84,
          "name": "C6",
          "ticks": 89472,
          "time": 58.25,
          "velocity": 0.29133858267716534
        },
        {
          "duration": 0.25,
          "durationTicks": 384,
          "midi": 84,
          "name": "C6",
          "ticks": 89856,
          "time": 58.5,
          "velocity": 0.29133858267716534
        },
        {
          "duration": 0.25,
          "durationTicks": 384,
          "midi": 84,
          "name": "C6",
          "ticks": 90240,
          "time": 58.75,
          "velocity": 0.29133858267716534
        },
        {
          "duration": 0.25,
          "durationTicks": 384,
          "midi": 79,
          "name": "G5",
          "ticks": 91392,
          "time": 59.5,
          "velocity": 0.29133858267716534
        },
        {
          "duration": 0.25,
          "durationTicks": 384,
          "midi": 79,
          "name": "G5",
          "ticks": 91776,
          "time": 59.75,
          "velocity": 0.29133858267716534
        },
        {
          "duration": 0.25,
          "durationTicks": 384,
          "midi": 79,
          "name": "G5",
          "ticks": 92160,
          "time": 60,
          "velocity": 0.29133858267716534
        },
        {
          "duration": 0.25,
          "durationTicks": 384,
          "midi": 79,
          "name": "G5",
          "ticks": 92544,
          "time": 60.25,
          "velocity": 0.29133858267716534
        },
        {
          "duration": 0.25,
          "durationTicks": 384,
          "midi": 79,
          "name": "G5",
          "ticks": 92928,
          "time": 60.5,
          "velocity": 0.29133858267716534
        },
        {
          "duration": 0.25,
          "durationTicks": 384,
          "midi": 79,
          "name": "G5",
          "ticks": 93312,
          "time": 60.75,
          "velocity": 0.29133858267716534
        },
        {
          "duration": 0.25,
          "durationTicks": 384,
          "midi": 79,
          "name": "G5",
          "ticks": 93696,
          "time": 61,
          "velocity": 0.29133858267716534
        },
        {
          "duration": 0.25,
          "durationTicks": 384,
          "midi": 79,
          "name": "G5",
          "ticks": 94080,
          "time": 61.25,
          "velocity": 0.29133858267716534
        },
        {
          "duration": 0.1666666666666643,
          "durationTicks": 256,
          "midi": 79,
          "name": "G5",
          "ticks": 94464,
          "time": 61.5,
          "velocity": 0.29133858267716534
        },
        {
          "duration": 0.25,
          "durationTicks": 384,
          "midi": 77,
          "name": "F5",
          "ticks": 95232,
          "time": 62,
          "velocity": 0.29133858267716534
        },
        {
          "duration": 0.25,
          "durationTicks": 384,
          "midi": 77,
          "name": "F5",
          "ticks": 95616,
          "time": 62.25,
          "velocity": 0.29133858267716534
        },
        {
          "duration": 0.25,
          "durationTicks": 384,
          "midi": 77,
          "name": "F5",
          "ticks": 96000,
          "time": 62.5,
          "velocity": 0.29133858267716534
        },
        {
          "duration": 0.25,
          "durationTicks": 384,
          "midi": 77,
          "name": "F5",
          "ticks": 96384,
          "time": 62.75,
          "velocity": 0.29133858267716534
        },
        {
          "duration": 0.25,
          "durationTicks": 384,
          "midi": 77,
          "name": "F5",
          "ticks": 96768,
          "time": 63,
          "velocity": 0.29133858267716534
        },
        {
          "duration": 0.25,
          "durationTicks": 384,
          "midi": 77,
          "name": "F5",
          "ticks": 97152,
          "time": 63.25,
          "velocity": 0.29133858267716534
        },
        {
          "duration": 0.1666666666666714,
          "durationTicks": 256,
          "midi": 57,
          "name": "A3",
          "ticks": 159744,
          "time": 104,
          "velocity": 0.29133858267716534
        },
        {
          "duration": 0.1666666666666714,
          "durationTicks": 256,
          "midi": 60,
          "name": "C4",
          "ticks": 159744,
          "time": 104,
          "velocity": 0.29133858267716534
        },
        {
          "duration": 0.1666666666666714,
          "durationTicks": 256,
          "midi": 52,
          "name": "E3",
          "ticks": 159744,
          "time": 104,
          "velocity": 0.29133858267716534
        },
        {
          "duration": 0.1666666666666572,
          "durationTicks": 256,
          "midi": 57,
          "name": "A3",
          "ticks": 160000,
          "time": 104.16666666666667,
          "velocity": 0.29133858267716534
        },
        {
          "duration": 0.1666666666666572,
          "durationTicks": 256,
          "midi": 60,
          "name": "C4",
          "ticks": 160000,
          "time": 104.16666666666667,
          "velocity": 0.29133858267716534
        },
        {
          "duration": 0.1666666666666572,
          "durationTicks": 256,
          "midi": 52,
          "name": "E3",
          "ticks": 160000,
          "time": 104.16666666666667,
          "velocity": 0.29133858267716534
        },
        {
          "duration": 0.1666666666666714,
          "durationTicks": 256,
          "midi": 57,
          "name": "A3",
          "ticks": 160256,
          "time": 104.33333333333333,
          "velocity": 0.29133858267716534
        },
        {
          "duration": 0.1666666666666714,
          "durationTicks": 256,
          "midi": 52,
          "name": "E3",
          "ticks": 160256,
          "time": 104.33333333333333,
          "velocity": 0.29133858267716534
        },
        {
          "duration": 0.1666666666666714,
          "durationTicks": 256,
          "midi": 60,
          "name": "C4",
          "ticks": 160256,
          "time": 104.33333333333333,
          "velocity": 0.29133858267716534
        },
        {
          "duration": 0.1666666666666714,
          "durationTicks": 256,
          "midi": 57,
          "name": "A3",
          "ticks": 160512,
          "time": 104.5,
          "velocity": 0.29133858267716534
        },
        {
          "duration": 0.1666666666666714,
          "durationTicks": 256,
          "midi": 60,
          "name": "C4",
          "ticks": 160512,
          "time": 104.5,
          "velocity": 0.29133858267716534
        },
        {
          "duration": 0.1666666666666714,
          "durationTicks": 256,
          "midi": 52,
          "name": "E3",
          "ticks": 160512,
          "time": 104.5,
          "velocity": 0.29133858267716534
        },
        {
          "duration": 0.1666666666666572,
          "durationTicks": 256,
          "midi": 57,
          "name": "A3",
          "ticks": 160768,
          "time": 104.66666666666667,
          "velocity": 0.29133858267716534
        },
        {
          "duration": 0.1666666666666572,
          "durationTicks": 256,
          "midi": 52,
          "name": "E3",
          "ticks": 160768,
          "time": 104.66666666666667,
          "velocity": 0.29133858267716534
        },
        {
          "duration": 0.1666666666666572,
          "durationTicks": 256,
          "midi": 60,
          "name": "C4",
          "ticks": 160768,
          "time": 104.66666666666667,
          "velocity": 0.29133858267716534
        },
        {
          "duration": 0.1666666666666714,
          "durationTicks": 256,
          "midi": 60,
          "name": "C4",
          "ticks": 161024,
          "time": 104.83333333333333,
          "velocity": 0.29133858267716534
        },
        {
          "duration": 0.1666666666666714,
          "durationTicks": 256,
          "midi": 57,
          "name": "A3",
          "ticks": 161024,
          "time": 104.83333333333333,
          "velocity": 0.29133858267716534
        },
        {
          "duration": 0.1666666666666714,
          "durationTicks": 256,
          "midi": 52,
          "name": "E3",
          "ticks": 161024,
          "time": 104.83333333333333,
          "velocity": 0.29133858267716534
        },
        {
          "duration": 0.1666666666666714,
          "durationTicks": 256,
          "midi": 57,
          "name": "A3",
          "ticks": 161280,
          "time": 105,
          "velocity": 0.29133858267716534
        },
        {
          "duration": 0.1666666666666714,
          "durationTicks": 256,
          "midi": 52,
          "name": "E3",
          "ticks": 161280,
          "time": 105,
          "velocity": 0.29133858267716534
        },
        {
          "duration": 0.1666666666666714,
          "durationTicks": 256,
          "midi": 60,
          "name": "C4",
          "ticks": 161280,
          "time": 105,
          "velocity": 0.29133858267716534
        },
        {
          "duration": 0.1666666666666572,
          "durationTicks": 256,
          "midi": 57,
          "name": "A3",
          "ticks": 161536,
          "time": 105.16666666666667,
          "velocity": 0.29133858267716534
        },
        {
          "duration": 0.1666666666666572,
          "durationTicks": 256,
          "midi": 60,
          "name": "C4",
          "ticks": 161536,
          "time": 105.16666666666667,
          "velocity": 0.29133858267716534
        },
        {
          "duration": 0.1666666666666572,
          "durationTicks": 256,
          "midi": 52,
          "name": "E3",
          "ticks": 161536,
          "time": 105.16666666666667,
          "velocity": 0.29133858267716534
        },
        {
          "duration": 0.1666666666666714,
          "durationTicks": 256,
          "midi": 50,
          "name": "D3",
          "ticks": 161792,
          "time": 105.33333333333333,
          "velocity": 0.29133858267716534
        },
        {
          "duration": 0.1666666666666714,
          "durationTicks": 256,
          "midi": 57,
          "name": "A3",
          "ticks": 161792,
          "time": 105.33333333333333,
          "velocity": 0.29133858267716534
        },
        {
          "duration": 0.1666666666666714,
          "durationTicks": 256,
          "midi": 52,
          "name": "E3",
          "ticks": 161792,
          "time": 105.33333333333333,
          "velocity": 0.29133858267716534
        },
        {
          "duration": 0.1666666666666714,
          "durationTicks": 256,
          "midi": 60,
          "name": "C4",
          "ticks": 161792,
          "time": 105.33333333333333,
          "velocity": 0.29133858267716534
        },
        {
          "duration": 0.1666666666666714,
          "durationTicks": 256,
          "midi": 52,
          "name": "E3",
          "ticks": 162048,
          "time": 105.5,
          "velocity": 0.29133858267716534
        },
        {
          "duration": 0.1666666666666714,
          "durationTicks": 256,
          "midi": 60,
          "name": "C4",
          "ticks": 162048,
          "time": 105.5,
          "velocity": 0.29133858267716534
        },
        {
          "duration": 0.1666666666666714,
          "durationTicks": 256,
          "midi": 50,
          "name": "D3",
          "ticks": 162048,
          "time": 105.5,
          "velocity": 0.29133858267716534
        },
        {
          "duration": 0.1666666666666714,
          "durationTicks": 256,
          "midi": 57,
          "name": "A3",
          "ticks": 162048,
          "time": 105.5,
          "velocity": 0.29133858267716534
        },
        {
          "duration": 0.1666666666666572,
          "durationTicks": 256,
          "midi": 50,
          "name": "D3",
          "ticks": 162304,
          "time": 105.66666666666667,
          "velocity": 0.29133858267716534
        },
        {
          "duration": 0.1666666666666572,
          "durationTicks": 256,
          "midi": 60,
          "name": "C4",
          "ticks": 162304,
          "time": 105.66666666666667,
          "velocity": 0.29133858267716534
        },
        {
          "duration": 0.1666666666666572,
          "durationTicks": 256,
          "midi": 57,
          "name": "A3",
          "ticks": 162304,
          "time": 105.66666666666667,
          "velocity": 0.29133858267716534
        },
        {
          "duration": 0.1666666666666572,
          "durationTicks": 256,
          "midi": 52,
          "name": "E3",
          "ticks": 162304,
          "time": 105.66666666666667,
          "velocity": 0.29133858267716534
        },
        {
          "duration": 0.1666666666666714,
          "durationTicks": 256,
          "midi": 60,
          "name": "C4",
          "ticks": 162560,
          "time": 105.83333333333333,
          "velocity": 0.29133858267716534
        },
        {
          "duration": 0.1666666666666714,
          "durationTicks": 256,
          "midi": 57,
          "name": "A3",
          "ticks": 162560,
          "time": 105.83333333333333,
          "velocity": 0.29133858267716534
        },
        {
          "duration": 0.1666666666666714,
          "durationTicks": 256,
          "midi": 52,
          "name": "E3",
          "ticks": 162560,
          "time": 105.83333333333333,
          "velocity": 0.29133858267716534
        },
        {
          "duration": 0.1666666666666714,
          "durationTicks": 256,
          "midi": 50,
          "name": "D3",
          "ticks": 162560,
          "time": 105.83333333333333,
          "velocity": 0.29133858267716534
        },
        {
          "duration": 0.1666666666666714,
          "durationTicks": 256,
          "midi": 60,
          "name": "C4",
          "ticks": 162816,
          "time": 106,
          "velocity": 0.29133858267716534
        },
        {
          "duration": 0.1666666666666714,
          "durationTicks": 256,
          "midi": 52,
          "name": "E3",
          "ticks": 162816,
          "time": 106,
          "velocity": 0.29133858267716534
        },
        {
          "duration": 0.1666666666666714,
          "durationTicks": 256,
          "midi": 57,
          "name": "A3",
          "ticks": 162816,
          "time": 106,
          "velocity": 0.29133858267716534
        },
        {
          "duration": 0.1666666666666714,
          "durationTicks": 256,
          "midi": 50,
          "name": "D3",
          "ticks": 162816,
          "time": 106,
          "velocity": 0.29133858267716534
        },
        {
          "duration": 0.1666666666666572,
          "durationTicks": 256,
          "midi": 57,
          "name": "A3",
          "ticks": 163072,
          "time": 106.16666666666667,
          "velocity": 0.2047244094488189
        },
        {
          "duration": 0.1666666666666572,
          "durationTicks": 256,
          "midi": 52,
          "name": "E3",
          "ticks": 163072,
          "time": 106.16666666666667,
          "velocity": 0.23622047244094488
        },
        {
          "duration": 0.1666666666666572,
          "durationTicks": 256,
          "midi": 50,
          "name": "D3",
          "ticks": 163072,
          "time": 106.16666666666667,
          "velocity": 0.23622047244094488
        },
        {
          "duration": 0.1666666666666572,
          "durationTicks": 256,
          "midi": 60,
          "name": "C4",
          "ticks": 163072,
          "time": 106.16666666666667,
          "velocity": 0.29133858267716534
        },
        {
          "duration": 0.1666666666666714,
          "durationTicks": 256,
          "midi": 60,
          "name": "C4",
          "ticks": 163328,
          "time": 106.33333333333333,
          "velocity": 0.29133858267716534
        },
        {
          "duration": 0.1666666666666714,
          "durationTicks": 256,
          "midi": 50,
          "name": "D3",
          "ticks": 163328,
          "time": 106.33333333333333,
          "velocity": 0.14173228346456693
        },
        {
          "duration": 0.1666666666666714,
          "durationTicks": 256,
          "midi": 57,
          "name": "A3",
          "ticks": 163328,
          "time": 106.33333333333333,
          "velocity": 0.1732283464566929
        },
        {
          "duration": 0.1666666666666714,
          "durationTicks": 256,
          "midi": 60,
          "name": "C4",
          "ticks": 163584,
          "time": 106.5,
          "velocity": 0.29133858267716534
        },
        {
          "duration": 0.1666666666666572,
          "durationTicks": 256,
          "midi": 60,
          "name": "C4",
          "ticks": 163840,
          "time": 106.66666666666667,
          "velocity": 0.29133858267716534
        },
        {
          "duration": 0.1666666666666714,
          "durationTicks": 256,
          "midi": 60,
          "name": "C4",
          "ticks": 164096,
          "time": 106.83333333333333,
          "velocity": 0.29133858267716534
        },
        {
          "duration": 0.1666666666666714,
          "durationTicks": 256,
          "midi": 60,
          "name": "C4",
          "ticks": 164352,
          "time": 107,
          "velocity": 0.29133858267716534
        },
        {
          "duration": 0.1666666666666572,
          "durationTicks": 256,
          "midi": 60,
          "name": "C4",
          "ticks": 164608,
          "time": 107.16666666666667,
          "velocity": 0.29133858267716534
        },
        {
          "duration": 0.1666666666666714,
          "durationTicks": 256,
          "midi": 60,
          "name": "C4",
          "ticks": 164864,
          "time": 107.33333333333333,
          "velocity": 0.29133858267716534
        },
        {
          "duration": 0.1666666666666714,
          "durationTicks": 256,
          "midi": 60,
          "name": "C4",
          "ticks": 165120,
          "time": 107.5,
          "velocity": 0.29133858267716534
        },
        {
          "duration": 0.1666666666666572,
          "durationTicks": 256,
          "midi": 60,
          "name": "C4",
          "ticks": 165376,
          "time": 107.66666666666667,
          "velocity": 0.29133858267716534
        },
        {
          "duration": 0.1666666666666714,
          "durationTicks": 256,
          "midi": 60,
          "name": "C4",
          "ticks": 165632,
          "time": 107.83333333333333,
          "velocity": 0.29133858267716534
        },
        {
          "duration": 0.1666666666666714,
          "durationTicks": 256,
          "midi": 60,
          "name": "C4",
          "ticks": 165888,
          "time": 108,
          "velocity": 0.29133858267716534
        },
        {
          "duration": 0.1666666666666572,
          "durationTicks": 256,
          "midi": 60,
          "name": "C4",
          "ticks": 166144,
          "time": 108.16666666666667,
          "velocity": 0.29133858267716534
        },
        {
          "duration": 0.1666666666666714,
          "durationTicks": 256,
          "midi": 60,
          "name": "C4",
          "ticks": 166400,
          "time": 108.33333333333333,
          "velocity": 0.29133858267716534
        },
        {
          "duration": 0.1666666666666714,
          "durationTicks": 256,
          "midi": 60,
          "name": "C4",
          "ticks": 166656,
          "time": 108.5,
          "velocity": 0.29133858267716534
        },
        {
          "duration": 0.1666666666666572,
          "durationTicks": 256,
          "midi": 60,
          "name": "C4",
          "ticks": 166912,
          "time": 108.66666666666667,
          "velocity": 0.29133858267716534
        },
        {
          "duration": 0.1666666666666714,
          "durationTicks": 256,
          "midi": 60,
          "name": "C4",
          "ticks": 167168,
          "time": 108.83333333333333,
          "velocity": 0.29133858267716534
        },
        {
          "duration": 0.1666666666666714,
          "durationTicks": 256,
          "midi": 59,
          "name": "B3",
          "ticks": 167424,
          "time": 109,
          "velocity": 0.29133858267716534
        },
        {
          "duration": 0.1666666666666572,
          "durationTicks": 256,
          "midi": 59,
          "name": "B3",
          "ticks": 167680,
          "time": 109.16666666666667,
          "velocity": 0.29133858267716534
        },
        {
          "duration": 0.1666666666666714,
          "durationTicks": 256,
          "midi": 59,
          "name": "B3",
          "ticks": 167936,
          "time": 109.33333333333333,
          "velocity": 0.29133858267716534
        },
        {
          "duration": 0.1666666666666714,
          "durationTicks": 256,
          "midi": 59,
          "name": "B3",
          "ticks": 168192,
          "time": 109.5,
          "velocity": 0.29133858267716534
        },
        {
          "duration": 0.1666666666666572,
          "durationTicks": 256,
          "midi": 59,
          "name": "B3",
          "ticks": 168448,
          "time": 109.66666666666667,
          "velocity": 0.29133858267716534
        },
        {
          "duration": 0.1666666666666714,
          "durationTicks": 256,
          "midi": 59,
          "name": "B3",
          "ticks": 168704,
          "time": 109.83333333333333,
          "velocity": 0.29133858267716534
        },
        {
          "duration": 0.1666666666666714,
          "durationTicks": 256,
          "midi": 58,
          "name": "A#3",
          "ticks": 168960,
          "time": 110,
          "velocity": 0.29133858267716534
        },
        {
          "duration": 0.1666666666666572,
          "durationTicks": 256,
          "midi": 58,
          "name": "A#3",
          "ticks": 169216,
          "time": 110.16666666666667,
          "velocity": 0.29133858267716534
        },
        {
          "duration": 0.1666666666666714,
          "durationTicks": 256,
          "midi": 58,
          "name": "A#3",
          "ticks": 169472,
          "time": 110.33333333333333,
          "velocity": 0.29133858267716534
        },
        {
          "duration": 0.1666666666666714,
          "durationTicks": 256,
          "midi": 58,
          "name": "A#3",
          "ticks": 169728,
          "time": 110.5,
          "velocity": 0.29133858267716534
        },
        {
          "duration": 0.1666666666666572,
          "durationTicks": 256,
          "midi": 58,
          "name": "A#3",
          "ticks": 169984,
          "time": 110.66666666666667,
          "velocity": 0.29133858267716534
        },
        {
          "duration": 0.1666666666666714,
          "durationTicks": 256,
          "midi": 58,
          "name": "A#3",
          "ticks": 170240,
          "time": 110.83333333333333,
          "velocity": 0.29133858267716534
        },
        {
          "duration": 0.1666666666666714,
          "durationTicks": 256,
          "midi": 59,
          "name": "B3",
          "ticks": 170496,
          "time": 111,
          "velocity": 0.29133858267716534
        },
        {
          "duration": 0.1666666666666572,
          "durationTicks": 256,
          "midi": 59,
          "name": "B3",
          "ticks": 170752,
          "time": 111.16666666666667,
          "velocity": 0.29133858267716534
        },
        {
          "duration": 0.1666666666666714,
          "durationTicks": 256,
          "midi": 59,
          "name": "B3",
          "ticks": 171008,
          "time": 111.33333333333333,
          "velocity": 0.29133858267716534
        },
        {
          "duration": 0.1666666666666714,
          "durationTicks": 256,
          "midi": 59,
          "name": "B3",
          "ticks": 171264,
          "time": 111.5,
          "velocity": 0.29133858267716534
        },
        {
          "duration": 0.1666666666666572,
          "durationTicks": 256,
          "midi": 59,
          "name": "B3",
          "ticks": 171520,
          "time": 111.66666666666667,
          "velocity": 0.29133858267716534
        },
        {
          "duration": 0.1666666666666714,
          "durationTicks": 256,
          "midi": 59,
          "name": "B3",
          "ticks": 171776,
          "time": 111.83333333333333,
          "velocity": 0.29133858267716534
        },
        {
          "duration": 0.1666666666666714,
          "durationTicks": 256,
          "midi": 54,
          "name": "F#3",
          "ticks": 172032,
          "time": 112,
          "velocity": 0.29133858267716534
        },
        {
          "duration": 0.1666666666666572,
          "durationTicks": 256,
          "midi": 54,
          "name": "F#3",
          "ticks": 172288,
          "time": 112.16666666666667,
          "velocity": 0.29133858267716534
        },
        {
          "duration": 0.1666666666666714,
          "durationTicks": 256,
          "midi": 54,
          "name": "F#3",
          "ticks": 172544,
          "time": 112.33333333333333,
          "velocity": 0.29133858267716534
        },
        {
          "duration": 0.1666666666666714,
          "durationTicks": 256,
          "midi": 54,
          "name": "F#3",
          "ticks": 172800,
          "time": 112.5,
          "velocity": 0.29133858267716534
        },
        {
          "duration": 0.1666666666666572,
          "durationTicks": 256,
          "midi": 54,
          "name": "F#3",
          "ticks": 173056,
          "time": 112.66666666666667,
          "velocity": 0.29133858267716534
        },
        {
          "duration": 0.1666666666666714,
          "durationTicks": 256,
          "midi": 54,
          "name": "F#3",
          "ticks": 173312,
          "time": 112.83333333333333,
          "velocity": 0.29133858267716534
        },
        {
          "duration": 0.1666666666666714,
          "durationTicks": 256,
          "midi": 52,
          "name": "E3",
          "ticks": 173568,
          "time": 113,
          "velocity": 0.29133858267716534
        },
        {
          "duration": 0.1666666666666572,
          "durationTicks": 256,
          "midi": 52,
          "name": "E3",
          "ticks": 173824,
          "time": 113.16666666666667,
          "velocity": 0.29133858267716534
        },
        {
          "duration": 0.1666666666666714,
          "durationTicks": 256,
          "midi": 52,
          "name": "E3",
          "ticks": 174080,
          "time": 113.33333333333333,
          "velocity": 0.29133858267716534
        },
        {
          "duration": 0.1666666666666714,
          "durationTicks": 256,
          "midi": 52,
          "name": "E3",
          "ticks": 174336,
          "time": 113.5,
          "velocity": 0.29133858267716534
        },
        {
          "duration": 0.1666666666666572,
          "durationTicks": 256,
          "midi": 52,
          "name": "E3",
          "ticks": 174592,
          "time": 113.66666666666667,
          "velocity": 0.29133858267716534
        },
        {
          "duration": 0.1666666666666714,
          "durationTicks": 256,
          "midi": 52,
          "name": "E3",
          "ticks": 174848,
          "time": 113.83333333333333,
          "velocity": 0.29133858267716534
        },
        {
          "duration": 0.1666666666666714,
          "durationTicks": 256,
          "midi": 64,
          "name": "E4",
          "ticks": 175104,
          "time": 114,
          "velocity": 0.14173228346456693
        },
        {
          "duration": 0.1666666666666572,
          "durationTicks": 256,
          "midi": 64,
          "name": "E4",
          "ticks": 175360,
          "time": 114.16666666666667,
          "velocity": 0.14173228346456693
        },
        {
          "duration": 0.1666666666666714,
          "durationTicks": 256,
          "midi": 64,
          "name": "E4",
          "ticks": 175616,
          "time": 114.33333333333333,
          "velocity": 0.14173228346456693
        },
        {
          "duration": 0.1666666666666714,
          "durationTicks": 256,
          "midi": 64,
          "name": "E4",
          "ticks": 175872,
          "time": 114.5,
          "velocity": 0.14173228346456693
        },
        {
          "duration": 0.1666666666666572,
          "durationTicks": 256,
          "midi": 64,
          "name": "E4",
          "ticks": 176128,
          "time": 114.66666666666667,
          "velocity": 0.14173228346456693
        },
        {
          "duration": 0.1666666666666714,
          "durationTicks": 256,
          "midi": 64,
          "name": "E4",
          "ticks": 176384,
          "time": 114.83333333333333,
          "velocity": 0.14173228346456693
        },
        {
          "duration": 0.1666666666666714,
          "durationTicks": 256,
          "midi": 64,
          "name": "E4",
          "ticks": 176640,
          "time": 115,
          "velocity": 0.14173228346456693
        },
        {
          "duration": 0.1666666666666572,
          "durationTicks": 256,
          "midi": 64,
          "name": "E4",
          "ticks": 176896,
          "time": 115.16666666666667,
          "velocity": 0.14173228346456693
        },
        {
          "duration": 0.1666666666666714,
          "durationTicks": 256,
          "midi": 64,
          "name": "E4",
          "ticks": 177152,
          "time": 115.33333333333333,
          "velocity": 0.14173228346456693
        },
        {
          "duration": 0.1666666666666714,
          "durationTicks": 256,
          "midi": 64,
          "name": "E4",
          "ticks": 177408,
          "time": 115.5,
          "velocity": 0.14173228346456693
        },
        {
          "duration": 0.1666666666666572,
          "durationTicks": 256,
          "midi": 64,
          "name": "E4",
          "ticks": 177664,
          "time": 115.66666666666667,
          "velocity": 0.14173228346456693
        },
        {
          "duration": 0.1666666666666714,
          "durationTicks": 256,
          "midi": 64,
          "name": "E4",
          "ticks": 177920,
          "time": 115.83333333333333,
          "velocity": 0.14173228346456693
        },
        {
          "duration": 0.25,
          "durationTicks": 384,
          "midi": 84,
          "name": "C6",
          "ticks": 178176,
          "time": 116,
          "velocity": 0.29133858267716534
        },
        {
          "duration": 0.25,
          "durationTicks": 384,
          "midi": 84,
          "name": "C6",
          "ticks": 178560,
          "time": 116.25,
          "velocity": 0.29133858267716534
        },
        {
          "duration": 0.25,
          "durationTicks": 384,
          "midi": 84,
          "name": "C6",
          "ticks": 178944,
          "time": 116.5,
          "velocity": 0.29133858267716534
        },
        {
          "duration": 0.25,
          "durationTicks": 384,
          "midi": 84,
          "name": "C6",
          "ticks": 179328,
          "time": 116.75,
          "velocity": 0.29133858267716534
        },
        {
          "duration": 0.25,
          "durationTicks": 384,
          "midi": 79,
          "name": "G5",
          "ticks": 180480,
          "time": 117.5,
          "velocity": 0.29133858267716534
        },
        {
          "duration": 0.25,
          "durationTicks": 384,
          "midi": 79,
          "name": "G5",
          "ticks": 180864,
          "time": 117.75,
          "velocity": 0.29133858267716534
        },
        {
          "duration": 0.25,
          "durationTicks": 384,
          "midi": 79,
          "name": "G5",
          "ticks": 181248,
          "time": 118,
          "velocity": 0.29133858267716534
        },
        {
          "duration": 0.25,
          "durationTicks": 384,
          "midi": 79,
          "name": "G5",
          "ticks": 181632,
          "time": 118.25,
          "velocity": 0.29133858267716534
        },
        {
          "duration": 0.25,
          "durationTicks": 384,
          "midi": 79,
          "name": "G5",
          "ticks": 182016,
          "time": 118.5,
          "velocity": 0.29133858267716534
        },
        {
          "duration": 0.25,
          "durationTicks": 384,
          "midi": 79,
          "name": "G5",
          "ticks": 182400,
          "time": 118.75,
          "velocity": 0.29133858267716534
        },
        {
          "duration": 0.25,
          "durationTicks": 384,
          "midi": 79,
          "name": "G5",
          "ticks": 182784,
          "time": 119,
          "velocity": 0.29133858267716534
        },
        {
          "duration": 0.25,
          "durationTicks": 384,
          "midi": 79,
          "name": "G5",
          "ticks": 183168,
          "time": 119.25,
          "velocity": 0.29133858267716534
        },
        {
          "duration": 0.1666666666666714,
          "durationTicks": 256,
          "midi": 79,
          "name": "G5",
          "ticks": 183552,
          "time": 119.5,
          "velocity": 0.29133858267716534
        },
        {
          "duration": 0.25,
          "durationTicks": 384,
          "midi": 77,
          "name": "F5",
          "ticks": 184320,
          "time": 120,
          "velocity": 0.29133858267716534
        },
        {
          "duration": 0.25,
          "durationTicks": 384,
          "midi": 77,
          "name": "F5",
          "ticks": 184704,
          "time": 120.25,
          "velocity": 0.29133858267716534
        },
        {
          "duration": 0.25,
          "durationTicks": 384,
          "midi": 77,
          "name": "F5",
          "ticks": 185088,
          "time": 120.5,
          "velocity": 0.29133858267716534
        },
        {
          "duration": 0.25,
          "durationTicks": 384,
          "midi": 77,
          "name": "F5",
          "ticks": 185472,
          "time": 120.75,
          "velocity": 0.29133858267716534
        },
        {
          "duration": 0.25,
          "durationTicks": 384,
          "midi": 77,
          "name": "F5",
          "ticks": 185856,
          "time": 121,
          "velocity": 0.29133858267716534
        },
        {
          "duration": 0.25,
          "durationTicks": 384,
          "midi": 77,
          "name": "F5",
          "ticks": 186240,
          "time": 121.25,
          "velocity": 0.29133858267716534
        }
      ],
      "endOfTrackTicks": 186624
    },
    {
      "channel": 9,
      "controlChanges": {},
      "pitchBends": [],
      "instrument": {
        "family": "drums",
        "number": 0,
        "name": "standard kit"
      },
      "name": "Electric Drum Kit",
      "notes": [
        {
          "duration": 0.125,
          "durationTicks": 192,
          "midi": 44,
          "name": "G#2",
          "ticks": 12618,
          "time": 8.21484375,
          "velocity": 0.5590551181102362
        },
        {
          "duration": 0.125,
          "durationTicks": 192,
          "midi": 42,
          "name": "F#2",
          "ticks": 12618,
          "time": 8.21484375,
          "velocity": 0.6771653543307087
        },
        {
          "duration": 0.125,
          "durationTicks": 192,
          "midi": 38,
          "name": "D2",
          "ticks": 13056,
          "time": 8.5,
          "velocity": 0.3937007874015748
        },
        {
          "duration": 0.125,
          "durationTicks": 192,
          "midi": 42,
          "name": "F#2",
          "ticks": 13417,
          "time": 8.735026041666666,
          "velocity": 0.7952755905511811
        },
        {
          "duration": 0.125,
          "durationTicks": 192,
          "midi": 44,
          "name": "G#2",
          "ticks": 13417,
          "time": 8.735026041666666,
          "velocity": 0.6771653543307087
        },
        {
          "duration": 0.125,
          "durationTicks": 192,
          "midi": 44,
          "name": "G#2",
          "ticks": 14187,
          "time": 9.236328125,
          "velocity": 0.4330708661417323
        },
        {
          "duration": 0.125,
          "durationTicks": 192,
          "midi": 42,
          "name": "F#2",
          "ticks": 14187,
          "time": 9.236328125,
          "velocity": 0.5511811023622047
        },
        {
          "duration": 0.125,
          "durationTicks": 192,
          "midi": 38,
          "name": "D2",
          "ticks": 14592,
          "time": 9.5,
          "velocity": 0.3937007874015748
        },
        {
          "duration": 0.125,
          "durationTicks": 192,
          "midi": 42,
          "name": "F#2",
          "ticks": 14970,
          "time": 9.74609375,
          "velocity": 0.6220472440944882
        },
        {
          "duration": 0.125,
          "durationTicks": 192,
          "midi": 44,
          "name": "G#2",
          "ticks": 14970,
          "time": 9.74609375,
          "velocity": 0.5039370078740157
        },
        {
          "duration": 0.125,
          "durationTicks": 192,
          "midi": 42,
          "name": "F#2",
          "ticks": 15738,
          "time": 10.24609375,
          "velocity": 0.7637795275590551
        },
        {
          "duration": 0.125,
          "durationTicks": 192,
          "midi": 44,
          "name": "G#2",
          "ticks": 15738,
          "time": 10.24609375,
          "velocity": 0.6456692913385826
        },
        {
          "duration": 0.125,
          "durationTicks": 192,
          "midi": 38,
          "name": "D2",
          "ticks": 16128,
          "time": 10.5,
          "velocity": 0.3937007874015748
        },
        {
          "duration": 0.125,
          "durationTicks": 192,
          "midi": 42,
          "name": "F#2",
          "ticks": 16543,
          "time": 10.770182291666666,
          "velocity": 0.7637795275590551
        },
        {
          "duration": 0.125,
          "durationTicks": 192,
          "midi": 44,
          "name": "G#2",
          "ticks": 16543,
          "time": 10.770182291666666,
          "velocity": 0.6456692913385826
        },
        {
          "duration": 0.125,
          "durationTicks": 192,
          "midi": 42,
          "name": "F#2",
          "ticks": 17277,
          "time": 11.248046875,
          "velocity": 0.7007874015748031
        },
        {
          "duration": 0.125,
          "durationTicks": 192,
          "midi": 44,
          "name": "G#2",
          "ticks": 17277,
          "time": 11.248046875,
          "velocity": 0.5826771653543307
        },
        {
          "duration": 0.125,
          "durationTicks": 192,
          "midi": 38,
          "name": "D2",
          "ticks": 17665,
          "time": 11.500651041666666,
          "velocity": 0.3937007874015748
        },
        {
          "duration": 0.125,
          "durationTicks": 192,
          "midi": 42,
          "name": "F#2",
          "ticks": 18072,
          "time": 11.765625,
          "velocity": 0.6299212598425197
        },
        {
          "duration": 0.125,
          "durationTicks": 192,
          "midi": 44,
          "name": "G#2",
          "ticks": 18072,
          "time": 11.765625,
          "velocity": 0.5118110236220472
        },
        {
          "duration": 0.125,
          "durationTicks": 192,
          "midi": 44,
          "name": "G#2",
          "ticks": 18822,
          "time": 12.25390625,
          "velocity": 0.5275590551181102
        },
        {
          "duration": 0.125,
          "durationTicks": 192,
          "midi": 42,
          "name": "F#2",
          "ticks": 18822,
          "time": 12.25390625,
          "velocity": 0.6456692913385826
        },
        {
          "duration": 0.125,
          "durationTicks": 192,
          "midi": 38,
          "name": "D2",
          "ticks": 19201,
          "time": 12.500651041666666,
          "velocity": 0.3937007874015748
        },
        {
          "duration": 0.125,
          "durationTicks": 192,
          "midi": 42,
          "name": "F#2",
          "ticks": 19609,
          "time": 12.766276041666666,
          "velocity": 0.6062992125984252
        },
        {
          "duration": 0.125,
          "durationTicks": 192,
          "midi": 44,
          "name": "G#2",
          "ticks": 19609,
          "time": 12.766276041666666,
          "velocity": 0.4881889763779528
        },
        {
          "duration": 0.125,
          "durationTicks": 192,
          "midi": 44,
          "name": "G#2",
          "ticks": 20355,
          "time": 13.251953125,
          "velocity": 0.5433070866141733
        },
        {
          "duration": 0.125,
          "durationTicks": 192,
          "midi": 42,
          "name": "F#2",
          "ticks": 20355,
          "time": 13.251953125,
          "velocity": 0.6614173228346457
        },
        {
          "duration": 0.125,
          "durationTicks": 192,
          "midi": 38,
          "name": "D2",
          "ticks": 20737,
          "time": 13.500651041666666,
          "velocity": 0.3937007874015748
        },
        {
          "duration": 0.125,
          "durationTicks": 192,
          "midi": 44,
          "name": "G#2",
          "ticks": 21102,
          "time": 13.73828125,
          "velocity": 0.5826771653543307
        },
        {
          "duration": 0.125,
          "durationTicks": 192,
          "midi": 42,
          "name": "F#2",
          "ticks": 21102,
          "time": 13.73828125,
          "velocity": 0.7007874015748031
        },
        {
          "duration": 0.125,
          "durationTicks": 192,
          "midi": 42,
          "name": "F#2",
          "ticks": 21871,
          "time": 14.238932291666666,
          "velocity": 0.5984251968503937
        },
        {
          "duration": 0.125,
          "durationTicks": 192,
          "midi": 44,
          "name": "G#2",
          "ticks": 21871,
          "time": 14.238932291666666,
          "velocity": 0.48031496062992124
        },
        {
          "duration": 0.125,
          "durationTicks": 192,
          "midi": 38,
          "name": "D2",
          "ticks": 22273,
          "time": 14.500651041666666,
          "velocity": 0.3937007874015748
        },
        {
          "duration": 0.125,
          "durationTicks": 192,
          "midi": 42,
          "name": "F#2",
          "ticks": 22666,
          "time": 14.756510416666666,
          "velocity": 0.7244094488188977
        },
        {
          "duration": 0.125,
          "durationTicks": 192,
          "midi": 44,
          "name": "G#2",
          "ticks": 22666,
          "time": 14.756510416666666,
          "velocity": 0.6062992125984252
        },
        {
          "duration": 0.125,
          "durationTicks": 192,
          "midi": 44,
          "name": "G#2",
          "ticks": 23429,
          "time": 15.253255208333334,
          "velocity": 0.4645669291338583
        },
        {
          "duration": 0.125,
          "durationTicks": 192,
          "midi": 42,
          "name": "F#2",
          "ticks": 23429,
          "time": 15.253255208333334,
          "velocity": 0.5826771653543307
        },
        {
          "duration": 0.125,
          "durationTicks": 192,
          "midi": 38,
          "name": "D2",
          "ticks": 23809,
          "time": 15.500651041666666,
          "velocity": 0.3937007874015748
        },
        {
          "duration": 0.125,
          "durationTicks": 192,
          "midi": 42,
          "name": "F#2",
          "ticks": 24198,
          "time": 15.75390625,
          "velocity": 0.6614173228346457
        },
        {
          "duration": 0.125,
          "durationTicks": 192,
          "midi": 44,
          "name": "G#2",
          "ticks": 24198,
          "time": 15.75390625,
          "velocity": 0.5433070866141733
        },
        {
          "duration": 0.125,
          "durationTicks": 192,
          "midi": 42,
          "name": "F#2",
          "ticks": 24965,
          "time": 16.253255208333332,
          "velocity": 0.7007874015748031
        },
        {
          "duration": 0.125,
          "durationTicks": 192,
          "midi": 44,
          "name": "G#2",
          "ticks": 24965,
          "time": 16.253255208333332,
          "velocity": 0.5826771653543307
        },
        {
          "duration": 0.125,
          "durationTicks": 192,
          "midi": 38,
          "name": "D2",
          "ticks": 25345,
          "time": 16.500651041666668,
          "velocity": 0.3937007874015748
        },
        {
          "duration": 0.125,
          "durationTicks": 192,
          "midi": 42,
          "name": "F#2",
          "ticks": 25750,
          "time": 16.764322916666668,
          "velocity": 0.6062992125984252
        },
        {
          "duration": 0.125,
          "durationTicks": 192,
          "midi": 44,
          "name": "G#2",
          "ticks": 25750,
          "time": 16.764322916666668,
          "velocity": 0.4881889763779528
        },
        {
          "duration": 0.125,
          "durationTicks": 192,
          "midi": 44,
          "name": "G#2",
          "ticks": 26496,
          "time": 17.25,
          "velocity": 0.6062992125984252
        },
        {
          "duration": 0.125,
          "durationTicks": 192,
          "midi": 42,
          "name": "F#2",
          "ticks": 26496,
          "time": 17.25,
          "velocity": 0.7244094488188977
        },
        {
          "duration": 0.125,
          "durationTicks": 192,
          "midi": 38,
          "name": "D2",
          "ticks": 26881,
          "time": 17.500651041666668,
          "velocity": 0.3937007874015748
        },
        {
          "duration": 0.125,
          "durationTicks": 192,
          "midi": 44,
          "name": "G#2",
          "ticks": 27272,
          "time": 17.755208333333332,
          "velocity": 0.6377952755905512
        },
        {
          "duration": 0.125,
          "durationTicks": 192,
          "midi": 42,
          "name": "F#2",
          "ticks": 27272,
          "time": 17.755208333333332,
          "velocity": 0.7559055118110236
        },
        {
          "duration": 0.125,
          "durationTicks": 192,
          "midi": 42,
          "name": "F#2",
          "ticks": 28010,
          "time": 18.235677083333332,
          "velocity": 0.7165354330708661
        },
        {
          "duration": 0.125,
          "durationTicks": 192,
          "midi": 44,
          "name": "G#2",
          "ticks": 28010,
          "time": 18.235677083333332,
          "velocity": 0.5984251968503937
        },
        {
          "duration": 0.125,
          "durationTicks": 192,
          "midi": 38,
          "name": "D2",
          "ticks": 28416,
          "time": 18.5,
          "velocity": 0.3937007874015748
        },
        {
          "duration": 0.125,
          "durationTicks": 192,
          "midi": 44,
          "name": "G#2",
          "ticks": 28793,
          "time": 18.745442708333332,
          "velocity": 0.5748031496062992
        },
        {
          "duration": 0.125,
          "durationTicks": 192,
          "midi": 42,
          "name": "F#2",
          "ticks": 28793,
          "time": 18.745442708333332,
          "velocity": 0.6929133858267716
        },
        {
          "duration": 0.125,
          "durationTicks": 192,
          "midi": 44,
          "name": "G#2",
          "ticks": 29581,
          "time": 19.258463541666668,
          "velocity": 0.4094488188976378
        },
        {
          "duration": 0.125,
          "durationTicks": 192,
          "midi": 42,
          "name": "F#2",
          "ticks": 29581,
          "time": 19.258463541666668,
          "velocity": 0.5275590551181102
        },
        {
          "duration": 0.125,
          "durationTicks": 192,
          "midi": 38,
          "name": "D2",
          "ticks": 29952,
          "time": 19.5,
          "velocity": 0.3937007874015748
        },
        {
          "duration": 0.125,
          "durationTicks": 192,
          "midi": 42,
          "name": "F#2",
          "ticks": 30354,
          "time": 19.76171875,
          "velocity": 0.5669291338582677
        },
        {
          "duration": 0.125,
          "durationTicks": 192,
          "midi": 44,
          "name": "G#2",
          "ticks": 30354,
          "time": 19.76171875,
          "velocity": 0.44881889763779526
        },
        {
          "duration": 0.125,
          "durationTicks": 192,
          "midi": 44,
          "name": "G#2",
          "ticks": 31104,
          "time": 20.25,
          "velocity": 0.6850393700787402
        },
        {
          "duration": 0.125,
          "durationTicks": 192,
          "midi": 42,
          "name": "F#2",
          "ticks": 31104,
          "time": 20.25,
          "velocity": 0.8031496062992126
        },
        {
          "duration": 0.125,
          "durationTicks": 192,
          "midi": 38,
          "name": "D2",
          "ticks": 31489,
          "time": 20.500651041666668,
          "velocity": 0.3937007874015748
        },
        {
          "duration": 0.125,
          "durationTicks": 192,
          "midi": 42,
          "name": "F#2",
          "ticks": 31896,
          "time": 20.765625,
          "velocity": 0.6377952755905512
        },
        {
          "duration": 0.125,
          "durationTicks": 192,
          "midi": 44,
          "name": "G#2",
          "ticks": 31896,
          "time": 20.765625,
          "velocity": 0.5196850393700787
        },
        {
          "duration": 0.125,
          "durationTicks": 192,
          "midi": 42,
          "name": "F#2",
          "ticks": 32667,
          "time": 21.267578125,
          "velocity": 0.7401574803149606
        },
        {
          "duration": 0.125,
          "durationTicks": 192,
          "midi": 44,
          "name": "G#2",
          "ticks": 32667,
          "time": 21.267578125,
          "velocity": 0.6220472440944882
        },
        {
          "duration": 0.125,
          "durationTicks": 192,
          "midi": 38,
          "name": "D2",
          "ticks": 33025,
          "time": 21.500651041666668,
          "velocity": 0.3937007874015748
        },
        {
          "duration": 0.125,
          "durationTicks": 192,
          "midi": 42,
          "name": "F#2",
          "ticks": 33366,
          "time": 21.72265625,
          "velocity": 0.6929133858267716
        },
        {
          "duration": 0.125,
          "durationTicks": 192,
          "midi": 44,
          "name": "G#2",
          "ticks": 33366,
          "time": 21.72265625,
          "velocity": 0.5748031496062992
        },
        {
          "duration": 0.125,
          "durationTicks": 192,
          "midi": 42,
          "name": "F#2",
          "ticks": 34191,
          "time": 22.259765625,
          "velocity": 0.8031496062992126
        },
        {
          "duration": 0.125,
          "durationTicks": 192,
          "midi": 44,
          "name": "G#2",
          "ticks": 34191,
          "time": 22.259765625,
          "velocity": 0.6850393700787402
        },
        {
          "duration": 0.125,
          "durationTicks": 192,
          "midi": 38,
          "name": "D2",
          "ticks": 34561,
          "time": 22.500651041666668,
          "velocity": 0.3937007874015748
        },
        {
          "duration": 0.125,
          "durationTicks": 192,
          "midi": 42,
          "name": "F#2",
          "ticks": 34937,
          "time": 22.745442708333332,
          "velocity": 0.6535433070866141
        },
        {
          "duration": 0.125,
          "durationTicks": 192,
          "midi": 44,
          "name": "G#2",
          "ticks": 34937,
          "time": 22.745442708333332,
          "velocity": 0.5354330708661418
        },
        {
          "duration": 0.125,
          "durationTicks": 192,
          "midi": 44,
          "name": "G#2",
          "ticks": 35717,
          "time": 23.253255208333332,
          "velocity": 0.5905511811023622
        },
        {
          "duration": 0.125,
          "durationTicks": 192,
          "midi": 42,
          "name": "F#2",
          "ticks": 35717,
          "time": 23.253255208333332,
          "velocity": 0.7086614173228346
        },
        {
          "duration": 0.0833333333333357,
          "durationTicks": 128,
          "midi": 38,
          "name": "D2",
          "ticks": 35969,
          "time": 23.417317708333332,
          "velocity": 0.15748031496062992
        },
        {
          "duration": 0.125,
          "durationTicks": 192,
          "midi": 38,
          "name": "D2",
          "ticks": 36097,
          "time": 23.500651041666668,
          "velocity": 0.3937007874015748
        },
        {
          "duration": 0.0833333333333357,
          "durationTicks": 128,
          "midi": 38,
          "name": "D2",
          "ticks": 36353,
          "time": 23.667317708333332,
          "velocity": 0.31496062992125984
        },
        {
          "duration": 0.125,
          "durationTicks": 192,
          "midi": 44,
          "name": "G#2",
          "ticks": 36488,
          "time": 23.755208333333332,
          "velocity": 0.5196850393700787
        },
        {
          "duration": 0.125,
          "durationTicks": 192,
          "midi": 42,
          "name": "F#2",
          "ticks": 36488,
          "time": 23.755208333333332,
          "velocity": 0.6377952755905512
        },
        {
          "duration": 0.125,
          "durationTicks": 192,
          "midi": 42,
          "name": "F#2",
          "ticks": 37195,
          "time": 24.215494791666668,
          "velocity": 0.6771653543307087
        },
        {
          "duration": 0.125,
          "durationTicks": 192,
          "midi": 44,
          "name": "G#2",
          "ticks": 37195,
          "time": 24.215494791666668,
          "velocity": 0.5590551181102362
        },
        {
          "duration": 0.125,
          "durationTicks": 192,
          "midi": 38,
          "name": "D2",
          "ticks": 37632,
          "time": 24.5,
          "velocity": 0.3937007874015748
        },
        {
          "duration": 0.125,
          "durationTicks": 192,
          "midi": 44,
          "name": "G#2",
          "ticks": 37993,
          "time": 24.735026041666668,
          "velocity": 0.6771653543307087
        },
        {
          "duration": 0.125,
          "durationTicks": 192,
          "midi": 42,
          "name": "F#2",
          "ticks": 37993,
          "time": 24.735026041666668,
          "velocity": 0.7952755905511811
        },
        {
          "duration": 0.125,
          "durationTicks": 192,
          "midi": 42,
          "name": "F#2",
          "ticks": 38763,
          "time": 25.236328125,
          "velocity": 0.5511811023622047
        },
        {
          "duration": 0.125,
          "durationTicks": 192,
          "midi": 44,
          "name": "G#2",
          "ticks": 38763,
          "time": 25.236328125,
          "velocity": 0.4330708661417323
        },
        {
          "duration": 0.125,
          "durationTicks": 192,
          "midi": 38,
          "name": "D2",
          "ticks": 39168,
          "time": 25.5,
          "velocity": 0.3937007874015748
        },
        {
          "duration": 0.125,
          "durationTicks": 192,
          "midi": 42,
          "name": "F#2",
          "ticks": 39546,
          "time": 25.74609375,
          "velocity": 0.6220472440944882
        },
        {
          "duration": 0.125,
          "durationTicks": 192,
          "midi": 44,
          "name": "G#2",
          "ticks": 39546,
          "time": 25.74609375,
          "velocity": 0.5039370078740157
        },
        {
          "duration": 0.125,
          "durationTicks": 192,
          "midi": 42,
          "name": "F#2",
          "ticks": 40314,
          "time": 26.24609375,
          "velocity": 0.7637795275590551
        },
        {
          "duration": 0.125,
          "durationTicks": 192,
          "midi": 44,
          "name": "G#2",
          "ticks": 40314,
          "time": 26.24609375,
          "velocity": 0.6456692913385826
        },
        {
          "duration": 0.125,
          "durationTicks": 192,
          "midi": 38,
          "name": "D2",
          "ticks": 40704,
          "time": 26.5,
          "velocity": 0.3937007874015748
        },
        {
          "duration": 0.125,
          "durationTicks": 192,
          "midi": 44,
          "name": "G#2",
          "ticks": 41119,
          "time": 26.770182291666668,
          "velocity": 0.6456692913385826
        },
        {
          "duration": 0.125,
          "durationTicks": 192,
          "midi": 42,
          "name": "F#2",
          "ticks": 41119,
          "time": 26.770182291666668,
          "velocity": 0.7637795275590551
        },
        {
          "duration": 0.125,
          "durationTicks": 192,
          "midi": 42,
          "name": "F#2",
          "ticks": 41853,
          "time": 27.248046875,
          "velocity": 0.7007874015748031
        },
        {
          "duration": 0.125,
          "durationTicks": 192,
          "midi": 44,
          "name": "G#2",
          "ticks": 41853,
          "time": 27.248046875,
          "velocity": 0.5826771653543307
        },
        {
          "duration": 0.125,
          "durationTicks": 192,
          "midi": 38,
          "name": "D2",
          "ticks": 42241,
          "time": 27.500651041666668,
          "velocity": 0.3937007874015748
        },
        {
          "duration": 0.125,
          "durationTicks": 192,
          "midi": 42,
          "name": "F#2",
          "ticks": 42648,
          "time": 27.765625,
          "velocity": 0.6299212598425197
        },
        {
          "duration": 0.125,
          "durationTicks": 192,
          "midi": 44,
          "name": "G#2",
          "ticks": 42648,
          "time": 27.765625,
          "velocity": 0.5118110236220472
        },
        {
          "duration": 0.125,
          "durationTicks": 192,
          "midi": 44,
          "name": "G#2",
          "ticks": 43398,
          "time": 28.25390625,
          "velocity": 0.5275590551181102
        },
        {
          "duration": 0.125,
          "durationTicks": 192,
          "midi": 42,
          "name": "F#2",
          "ticks": 43398,
          "time": 28.25390625,
          "velocity": 0.6456692913385826
        },
        {
          "duration": 0.125,
          "durationTicks": 192,
          "midi": 38,
          "name": "D2",
          "ticks": 43777,
          "time": 28.500651041666668,
          "velocity": 0.3937007874015748
        },
        {
          "duration": 0.125,
          "durationTicks": 192,
          "midi": 42,
          "name": "F#2",
          "ticks": 44185,
          "time": 28.766276041666668,
          "velocity": 0.6062992125984252
        },
        {
          "duration": 0.125,
          "durationTicks": 192,
          "midi": 44,
          "name": "G#2",
          "ticks": 44185,
          "time": 28.766276041666668,
          "velocity": 0.4881889763779528
        },
        {
          "duration": 0.125,
          "durationTicks": 192,
          "midi": 44,
          "name": "G#2",
          "ticks": 44931,
          "time": 29.251953125,
          "velocity": 0.5433070866141733
        },
        {
          "duration": 0.125,
          "durationTicks": 192,
          "midi": 42,
          "name": "F#2",
          "ticks": 44931,
          "time": 29.251953125,
          "velocity": 0.6614173228346457
        },
        {
          "duration": 0.125,
          "durationTicks": 192,
          "midi": 38,
          "name": "D2",
          "ticks": 45313,
          "time": 29.500651041666668,
          "velocity": 0.3937007874015748
        },
        {
          "duration": 0.125,
          "durationTicks": 192,
          "midi": 42,
          "name": "F#2",
          "ticks": 45678,
          "time": 29.73828125,
          "velocity": 0.7007874015748031
        },
        {
          "duration": 0.125,
          "durationTicks": 192,
          "midi": 44,
          "name": "G#2",
          "ticks": 45678,
          "time": 29.73828125,
          "velocity": 0.5826771653543307
        },
        {
          "duration": 0.125,
          "durationTicks": 192,
          "midi": 44,
          "name": "G#2",
          "ticks": 46447,
          "time": 30.238932291666668,
          "velocity": 0.48031496062992124
        },
        {
          "duration": 0.125,
          "durationTicks": 192,
          "midi": 42,
          "name": "F#2",
          "ticks": 46447,
          "time": 30.238932291666668,
          "velocity": 0.5984251968503937
        },
        {
          "duration": 0.125,
          "durationTicks": 192,
          "midi": 38,
          "name": "D2",
          "ticks": 46849,
          "time": 30.500651041666668,
          "velocity": 0.3937007874015748
        },
        {
          "duration": 0.125,
          "durationTicks": 192,
          "midi": 42,
          "name": "F#2",
          "ticks": 47242,
          "time": 30.756510416666668,
          "velocity": 0.7244094488188977
        },
        {
          "duration": 0.125,
          "durationTicks": 192,
          "midi": 44,
          "name": "G#2",
          "ticks": 47242,
          "time": 30.756510416666668,
          "velocity": 0.6062992125984252
        },
        {
          "duration": 0.125,
          "durationTicks": 192,
          "midi": 44,
          "name": "G#2",
          "ticks": 48005,
          "time": 31.253255208333332,
          "velocity": 0.4645669291338583
        },
        {
          "duration": 0.125,
          "durationTicks": 192,
          "midi": 42,
          "name": "F#2",
          "ticks": 48005,
          "time": 31.253255208333332,
          "velocity": 0.5826771653543307
        },
        {
          "duration": 0.125,
          "durationTicks": 192,
          "midi": 38,
          "name": "D2",
          "ticks": 48385,
          "time": 31.500651041666668,
          "velocity": 0.3937007874015748
        },
        {
          "duration": 0.125,
          "durationTicks": 192,
          "midi": 42,
          "name": "F#2",
          "ticks": 48774,
          "time": 31.75390625,
          "velocity": 0.6614173228346457
        },
        {
          "duration": 0.125,
          "durationTicks": 192,
          "midi": 44,
          "name": "G#2",
          "ticks": 48774,
          "time": 31.75390625,
          "velocity": 0.5433070866141733
        },
        {
          "duration": 0.125,
          "durationTicks": 192,
          "midi": 42,
          "name": "F#2",
          "ticks": 49541,
          "time": 32.253255208333336,
          "velocity": 0.7007874015748031
        },
        {
          "duration": 0.125,
          "durationTicks": 192,
          "midi": 44,
          "name": "G#2",
          "ticks": 49541,
          "time": 32.253255208333336,
          "velocity": 0.5826771653543307
        },
        {
          "duration": 0.125,
          "durationTicks": 192,
          "midi": 38,
          "name": "D2",
          "ticks": 49921,
          "time": 32.500651041666664,
          "velocity": 0.3937007874015748
        },
        {
          "duration": 0.125,
          "durationTicks": 192,
          "midi": 44,
          "name": "G#2",
          "ticks": 50326,
          "time": 32.764322916666664,
          "velocity": 0.4881889763779528
        },
        {
          "duration": 0.125,
          "durationTicks": 192,
          "midi": 42,
          "name": "F#2",
          "ticks": 50326,
          "time": 32.764322916666664,
          "velocity": 0.6062992125984252
        },
        {
          "duration": 0.125,
          "durationTicks": 192,
          "midi": 42,
          "name": "F#2",
          "ticks": 51072,
          "time": 33.25,
          "velocity": 0.7244094488188977
        },
        {
          "duration": 0.125,
          "durationTicks": 192,
          "midi": 44,
          "name": "G#2",
          "ticks": 51072,
          "time": 33.25,
          "velocity": 0.6062992125984252
        },
        {
          "duration": 0.125,
          "durationTicks": 192,
          "midi": 38,
          "name": "D2",
          "ticks": 51457,
          "time": 33.500651041666664,
          "velocity": 0.3937007874015748
        },
        {
          "duration": 0.125,
          "durationTicks": 192,
          "midi": 42,
          "name": "F#2",
          "ticks": 51848,
          "time": 33.755208333333336,
          "velocity": 0.7559055118110236
        },
        {
          "duration": 0.125,
          "durationTicks": 192,
          "midi": 44,
          "name": "G#2",
          "ticks": 51848,
          "time": 33.755208333333336,
          "velocity": 0.6377952755905512
        },
        {
          "duration": 0.125,
          "durationTicks": 192,
          "midi": 42,
          "name": "F#2",
          "ticks": 52586,
          "time": 34.235677083333336,
          "velocity": 0.7165354330708661
        },
        {
          "duration": 0.125,
          "durationTicks": 192,
          "midi": 44,
          "name": "G#2",
          "ticks": 52586,
          "time": 34.235677083333336,
          "velocity": 0.5984251968503937
        },
        {
          "duration": 0.125,
          "durationTicks": 192,
          "midi": 38,
          "name": "D2",
          "ticks": 52992,
          "time": 34.5,
          "velocity": 0.3937007874015748
        },
        {
          "duration": 0.125,
          "durationTicks": 192,
          "midi": 44,
          "name": "G#2",
          "ticks": 53369,
          "time": 34.745442708333336,
          "velocity": 0.5748031496062992
        },
        {
          "duration": 0.125,
          "durationTicks": 192,
          "midi": 42,
          "name": "F#2",
          "ticks": 53369,
          "time": 34.745442708333336,
          "velocity": 0.6929133858267716
        },
        {
          "duration": 0.125,
          "durationTicks": 192,
          "midi": 42,
          "name": "F#2",
          "ticks": 54157,
          "time": 35.258463541666664,
          "velocity": 0.5275590551181102
        },
        {
          "duration": 0.125,
          "durationTicks": 192,
          "midi": 44,
          "name": "G#2",
          "ticks": 54157,
          "time": 35.258463541666664,
          "velocity": 0.4094488188976378
        },
        {
          "duration": 0.125,
          "durationTicks": 192,
          "midi": 38,
          "name": "D2",
          "ticks": 54528,
          "time": 35.5,
          "velocity": 0.3937007874015748
        },
        {
          "duration": 0.125,
          "durationTicks": 192,
          "midi": 44,
          "name": "G#2",
          "ticks": 54930,
          "time": 35.76171875,
          "velocity": 0.44881889763779526
        },
        {
          "duration": 0.125,
          "durationTicks": 192,
          "midi": 42,
          "name": "F#2",
          "ticks": 54930,
          "time": 35.76171875,
          "velocity": 0.5669291338582677
        },
        {
          "duration": 0.125,
          "durationTicks": 192,
          "midi": 44,
          "name": "G#2",
          "ticks": 55680,
          "time": 36.25,
          "velocity": 0.6850393700787402
        },
        {
          "duration": 0.125,
          "durationTicks": 192,
          "midi": 42,
          "name": "F#2",
          "ticks": 55680,
          "time": 36.25,
          "velocity": 0.8031496062992126
        },
        {
          "duration": 0.125,
          "durationTicks": 192,
          "midi": 38,
          "name": "D2",
          "ticks": 56065,
          "time": 36.500651041666664,
          "velocity": 0.3937007874015748
        },
        {
          "duration": 0.125,
          "durationTicks": 192,
          "midi": 44,
          "name": "G#2",
          "ticks": 56472,
          "time": 36.765625,
          "velocity": 0.5196850393700787
        },
        {
          "duration": 0.125,
          "durationTicks": 192,
          "midi": 42,
          "name": "F#2",
          "ticks": 56472,
          "time": 36.765625,
          "velocity": 0.6377952755905512
        },
        {
          "duration": 0.125,
          "durationTicks": 192,
          "midi": 42,
          "name": "F#2",
          "ticks": 57243,
          "time": 37.267578125,
          "velocity": 0.7401574803149606
        },
        {
          "duration": 0.125,
          "durationTicks": 192,
          "midi": 44,
          "name": "G#2",
          "ticks": 57243,
          "time": 37.267578125,
          "velocity": 0.6220472440944882
        },
        {
          "duration": 0.125,
          "durationTicks": 192,
          "midi": 38,
          "name": "D2",
          "ticks": 57601,
          "time": 37.500651041666664,
          "velocity": 0.3937007874015748
        },
        {
          "duration": 0.125,
          "durationTicks": 192,
          "midi": 42,
          "name": "F#2",
          "ticks": 57942,
          "time": 37.72265625,
          "velocity": 0.6929133858267716
        },
        {
          "duration": 0.125,
          "durationTicks": 192,
          "midi": 44,
          "name": "G#2",
          "ticks": 57942,
          "time": 37.72265625,
          "velocity": 0.5748031496062992
        },
        {
          "duration": 0.125,
          "durationTicks": 192,
          "midi": 42,
          "name": "F#2",
          "ticks": 58767,
          "time": 38.259765625,
          "velocity": 0.8031496062992126
        },
        {
          "duration": 0.125,
          "durationTicks": 192,
          "midi": 44,
          "name": "G#2",
          "ticks": 58767,
          "time": 38.259765625,
          "velocity": 0.6850393700787402
        },
        {
          "duration": 0.125,
          "durationTicks": 192,
          "midi": 38,
          "name": "D2",
          "ticks": 59137,
          "time": 38.500651041666664,
          "velocity": 0.3937007874015748
        },
        {
          "duration": 0.125,
          "durationTicks": 192,
          "midi": 44,
          "name": "G#2",
          "ticks": 59513,
          "time": 38.745442708333336,
          "velocity": 0.5354330708661418
        },
        {
          "duration": 0.125,
          "durationTicks": 192,
          "midi": 42,
          "name": "F#2",
          "ticks": 59513,
          "time": 38.745442708333336,
          "velocity": 0.6535433070866141
        },
        {
          "duration": 0.125,
          "durationTicks": 192,
          "midi": 42,
          "name": "F#2",
          "ticks": 60293,
          "time": 39.253255208333336,
          "velocity": 0.7086614173228346
        },
        {
          "duration": 0.125,
          "durationTicks": 192,
          "midi": 44,
          "name": "G#2",
          "ticks": 60293,
          "time": 39.253255208333336,
          "velocity": 0.5905511811023622
        },
        {
          "duration": 0.125,
          "durationTicks": 192,
          "midi": 38,
          "name": "D2",
          "ticks": 60673,
          "time": 39.500651041666664,
          "velocity": 0.3937007874015748
        },
        {
          "duration": 0.125,
          "durationTicks": 192,
          "midi": 42,
          "name": "F#2",
          "ticks": 61064,
          "time": 39.755208333333336,
          "velocity": 0.6377952755905512
        },
        {
          "duration": 0.125,
          "durationTicks": 192,
          "midi": 44,
          "name": "G#2",
          "ticks": 61064,
          "time": 39.755208333333336,
          "velocity": 0.5196850393700787
        },
        {
          "duration": 0.125,
          "durationTicks": 192,
          "midi": 44,
          "name": "G#2",
          "ticks": 61771,
          "time": 40.215494791666664,
          "velocity": 0.5590551181102362
        },
        {
          "duration": 0.125,
          "durationTicks": 192,
          "midi": 42,
          "name": "F#2",
          "ticks": 61771,
          "time": 40.215494791666664,
          "velocity": 0.6771653543307087
        },
        {
          "duration": 0.125,
          "durationTicks": 192,
          "midi": 38,
          "name": "D2",
          "ticks": 62209,
          "time": 40.500651041666664,
          "velocity": 0.3937007874015748
        },
        {
          "duration": 0.125,
          "durationTicks": 192,
          "midi": 44,
          "name": "G#2",
          "ticks": 62570,
          "time": 40.735677083333336,
          "velocity": 0.6771653543307087
        },
        {
          "duration": 0.125,
          "durationTicks": 192,
          "midi": 42,
          "name": "F#2",
          "ticks": 62570,
          "time": 40.735677083333336,
          "velocity": 0.7952755905511811
        },
        {
          "duration": 0.125,
          "durationTicks": 192,
          "midi": 42,
          "name": "F#2",
          "ticks": 63340,
          "time": 41.236979166666664,
          "velocity": 0.5511811023622047
        },
        {
          "duration": 0.125,
          "durationTicks": 192,
          "midi": 44,
          "name": "G#2",
          "ticks": 63340,
          "time": 41.236979166666664,
          "velocity": 0.4330708661417323
        },
        {
          "duration": 0.125,
          "durationTicks": 192,
          "midi": 38,
          "name": "D2",
          "ticks": 63745,
          "time": 41.500651041666664,
          "velocity": 0.3937007874015748
        },
        {
          "duration": 0.125,
          "durationTicks": 192,
          "midi": 42,
          "name": "F#2",
          "ticks": 64123,
          "time": 41.746744791666664,
          "velocity": 0.6220472440944882
        },
        {
          "duration": 0.125,
          "durationTicks": 192,
          "midi": 44,
          "name": "G#2",
          "ticks": 64123,
          "time": 41.746744791666664,
          "velocity": 0.5039370078740157
        },
        {
          "duration": 0.125,
          "durationTicks": 192,
          "midi": 42,
          "name": "F#2",
          "ticks": 64891,
          "time": 42.246744791666664,
          "velocity": 0.7637795275590551
        },
        {
          "duration": 0.125,
          "durationTicks": 192,
          "midi": 44,
          "name": "G#2",
          "ticks": 64891,
          "time": 42.246744791666664,
          "velocity": 0.6456692913385826
        },
        {
          "duration": 0.125,
          "durationTicks": 192,
          "midi": 38,
          "name": "D2",
          "ticks": 65281,
          "time": 42.500651041666664,
          "velocity": 0.3937007874015748
        },
        {
          "duration": 0.125,
          "durationTicks": 192,
          "midi": 42,
          "name": "F#2",
          "ticks": 65696,
          "time": 42.770833333333336,
          "velocity": 0.7637795275590551
        },
        {
          "duration": 0.125,
          "durationTicks": 192,
          "midi": 44,
          "name": "G#2",
          "ticks": 65696,
          "time": 42.770833333333336,
          "velocity": 0.6456692913385826
        },
        {
          "duration": 0.125,
          "durationTicks": 192,
          "midi": 44,
          "name": "G#2",
          "ticks": 66430,
          "time": 43.248697916666664,
          "velocity": 0.5826771653543307
        },
        {
          "duration": 0.125,
          "durationTicks": 192,
          "midi": 42,
          "name": "F#2",
          "ticks": 66430,
          "time": 43.248697916666664,
          "velocity": 0.7007874015748031
        },
        {
          "duration": 0.125,
          "durationTicks": 192,
          "midi": 38,
          "name": "D2",
          "ticks": 66818,
          "time": 43.501302083333336,
          "velocity": 0.3937007874015748
        },
        {
          "duration": 0.125,
          "durationTicks": 192,
          "midi": 44,
          "name": "G#2",
          "ticks": 67225,
          "time": 43.766276041666664,
          "velocity": 0.5118110236220472
        },
        {
          "duration": 0.125,
          "durationTicks": 192,
          "midi": 42,
          "name": "F#2",
          "ticks": 67225,
          "time": 43.766276041666664,
          "velocity": 0.6299212598425197
        },
        {
          "duration": 0.125,
          "durationTicks": 192,
          "midi": 44,
          "name": "G#2",
          "ticks": 67975,
          "time": 44.254557291666664,
          "velocity": 0.5275590551181102
        },
        {
          "duration": 0.125,
          "durationTicks": 192,
          "midi": 42,
          "name": "F#2",
          "ticks": 67975,
          "time": 44.254557291666664,
          "velocity": 0.6456692913385826
        },
        {
          "duration": 0.125,
          "durationTicks": 192,
          "midi": 38,
          "name": "D2",
          "ticks": 68354,
          "time": 44.501302083333336,
          "velocity": 0.3937007874015748
        },
        {
          "duration": 0.125,
          "durationTicks": 192,
          "midi": 44,
          "name": "G#2",
          "ticks": 68762,
          "time": 44.766927083333336,
          "velocity": 0.4881889763779528
        },
        {
          "duration": 0.125,
          "durationTicks": 192,
          "midi": 42,
          "name": "F#2",
          "ticks": 68762,
          "time": 44.766927083333336,
          "velocity": 0.6062992125984252
        },
        {
          "duration": 0.125,
          "durationTicks": 192,
          "midi": 42,
          "name": "F#2",
          "ticks": 69508,
          "time": 45.252604166666664,
          "velocity": 0.6614173228346457
        },
        {
          "duration": 0.125,
          "durationTicks": 192,
          "midi": 44,
          "name": "G#2",
          "ticks": 69508,
          "time": 45.252604166666664,
          "velocity": 0.5433070866141733
        },
        {
          "duration": 0.125,
          "durationTicks": 192,
          "midi": 38,
          "name": "D2",
          "ticks": 69890,
          "time": 45.501302083333336,
          "velocity": 0.3937007874015748
        },
        {
          "duration": 0.125,
          "durationTicks": 192,
          "midi": 44,
          "name": "G#2",
          "ticks": 70255,
          "time": 45.738932291666664,
          "velocity": 0.5826771653543307
        },
        {
          "duration": 0.125,
          "durationTicks": 192,
          "midi": 42,
          "name": "F#2",
          "ticks": 70255,
          "time": 45.738932291666664,
          "velocity": 0.7007874015748031
        },
        {
          "duration": 0.125,
          "durationTicks": 192,
          "midi": 42,
          "name": "F#2",
          "ticks": 71024,
          "time": 46.239583333333336,
          "velocity": 0.5984251968503937
        },
        {
          "duration": 0.125,
          "durationTicks": 192,
          "midi": 44,
          "name": "G#2",
          "ticks": 71024,
          "time": 46.239583333333336,
          "velocity": 0.48031496062992124
        },
        {
          "duration": 0.125,
          "durationTicks": 192,
          "midi": 38,
          "name": "D2",
          "ticks": 71426,
          "time": 46.501302083333336,
          "velocity": 0.3937007874015748
        },
        {
          "duration": 0.125,
          "durationTicks": 192,
          "midi": 44,
          "name": "G#2",
          "ticks": 71819,
          "time": 46.757161458333336,
          "velocity": 0.6062992125984252
        },
        {
          "duration": 0.125,
          "durationTicks": 192,
          "midi": 42,
          "name": "F#2",
          "ticks": 71819,
          "time": 46.757161458333336,
          "velocity": 0.7244094488188977
        },
        {
          "duration": 0.125,
          "durationTicks": 192,
          "midi": 42,
          "name": "F#2",
          "ticks": 72582,
          "time": 47.25390625,
          "velocity": 0.5826771653543307
        },
        {
          "duration": 0.125,
          "durationTicks": 192,
          "midi": 44,
          "name": "G#2",
          "ticks": 72582,
          "time": 47.25390625,
          "velocity": 0.4645669291338583
        },
        {
          "duration": 0.125,
          "durationTicks": 192,
          "midi": 38,
          "name": "D2",
          "ticks": 72962,
          "time": 47.501302083333336,
          "velocity": 0.3937007874015748
        },
        {
          "duration": 0.125,
          "durationTicks": 192,
          "midi": 44,
          "name": "G#2",
          "ticks": 73351,
          "time": 47.754557291666664,
          "velocity": 0.5433070866141733
        },
        {
          "duration": 0.125,
          "durationTicks": 192,
          "midi": 42,
          "name": "F#2",
          "ticks": 73351,
          "time": 47.754557291666664,
          "velocity": 0.6614173228346457
        },
        {
          "duration": 0.125,
          "durationTicks": 192,
          "midi": 42,
          "name": "F#2",
          "ticks": 74118,
          "time": 48.25390625,
          "velocity": 0.7007874015748031
        },
        {
          "duration": 0.125,
          "durationTicks": 192,
          "midi": 44,
          "name": "G#2",
          "ticks": 74118,
          "time": 48.25390625,
          "velocity": 0.5826771653543307
        },
        {
          "duration": 0.125,
          "durationTicks": 192,
          "midi": 38,
          "name": "D2",
          "ticks": 74498,
          "time": 48.501302083333336,
          "velocity": 0.3937007874015748
        },
        {
          "duration": 0.125,
          "durationTicks": 192,
          "midi": 44,
          "name": "G#2",
          "ticks": 74903,
          "time": 48.764973958333336,
          "velocity": 0.4881889763779528
        },
        {
          "duration": 0.125,
          "durationTicks": 192,
          "midi": 42,
          "name": "F#2",
          "ticks": 74903,
          "time": 48.764973958333336,
          "velocity": 0.6062992125984252
        },
        {
          "duration": 0.125,
          "durationTicks": 192,
          "midi": 44,
          "name": "G#2",
          "ticks": 75649,
          "time": 49.250651041666664,
          "velocity": 0.6062992125984252
        },
        {
          "duration": 0.125,
          "durationTicks": 192,
          "midi": 42,
          "name": "F#2",
          "ticks": 75649,
          "time": 49.250651041666664,
          "velocity": 0.7244094488188977
        },
        {
          "duration": 0.125,
          "durationTicks": 192,
          "midi": 38,
          "name": "D2",
          "ticks": 76034,
          "time": 49.501302083333336,
          "velocity": 0.3937007874015748
        },
        {
          "duration": 0.125,
          "durationTicks": 192,
          "midi": 44,
          "name": "G#2",
          "ticks": 76425,
          "time": 49.755859375,
          "velocity": 0.6377952755905512
        },
        {
          "duration": 0.125,
          "durationTicks": 192,
          "midi": 42,
          "name": "F#2",
          "ticks": 76425,
          "time": 49.755859375,
          "velocity": 0.7559055118110236
        },
        {
          "duration": 0.125,
          "durationTicks": 192,
          "midi": 42,
          "name": "F#2",
          "ticks": 77163,
          "time": 50.236328125,
          "velocity": 0.7165354330708661
        },
        {
          "duration": 0.125,
          "durationTicks": 192,
          "midi": 44,
          "name": "G#2",
          "ticks": 77163,
          "time": 50.236328125,
          "velocity": 0.5984251968503937
        },
        {
          "duration": 0.125,
          "durationTicks": 192,
          "midi": 38,
          "name": "D2",
          "ticks": 77569,
          "time": 50.500651041666664,
          "velocity": 0.3937007874015748
        },
        {
          "duration": 0.125,
          "durationTicks": 192,
          "midi": 42,
          "name": "F#2",
          "ticks": 77946,
          "time": 50.74609375,
          "velocity": 0.6929133858267716
        },
        {
          "duration": 0.125,
          "durationTicks": 192,
          "midi": 44,
          "name": "G#2",
          "ticks": 77946,
          "time": 50.74609375,
          "velocity": 0.5748031496062992
        },
        {
          "duration": 0.125,
          "durationTicks": 192,
          "midi": 44,
          "name": "G#2",
          "ticks": 78734,
          "time": 51.259114583333336,
          "velocity": 0.4094488188976378
        },
        {
          "duration": 0.125,
          "durationTicks": 192,
          "midi": 42,
          "name": "F#2",
          "ticks": 78734,
          "time": 51.259114583333336,
          "velocity": 0.5275590551181102
        },
        {
          "duration": 0.125,
          "durationTicks": 192,
          "midi": 38,
          "name": "D2",
          "ticks": 79105,
          "time": 51.500651041666664,
          "velocity": 0.3937007874015748
        },
        {
          "duration": 0.125,
          "durationTicks": 192,
          "midi": 42,
          "name": "F#2",
          "ticks": 79507,
          "time": 51.762369791666664,
          "velocity": 0.5669291338582677
        },
        {
          "duration": 0.125,
          "durationTicks": 192,
          "midi": 44,
          "name": "G#2",
          "ticks": 79507,
          "time": 51.762369791666664,
          "velocity": 0.44881889763779526
        },
        {
          "duration": 0.125,
          "durationTicks": 192,
          "midi": 44,
          "name": "G#2",
          "ticks": 80257,
          "time": 52.250651041666664,
          "velocity": 0.6850393700787402
        },
        {
          "duration": 0.125,
          "durationTicks": 192,
          "midi": 42,
          "name": "F#2",
          "ticks": 80257,
          "time": 52.250651041666664,
          "velocity": 0.8031496062992126
        },
        {
          "duration": 0.125,
          "durationTicks": 192,
          "midi": 38,
          "name": "D2",
          "ticks": 80642,
          "time": 52.501302083333336,
          "velocity": 0.3937007874015748
        },
        {
          "duration": 0.125,
          "durationTicks": 192,
          "midi": 42,
          "name": "F#2",
          "ticks": 81049,
          "time": 52.766276041666664,
          "velocity": 0.6377952755905512
        },
        {
          "duration": 0.125,
          "durationTicks": 192,
          "midi": 44,
          "name": "G#2",
          "ticks": 81049,
          "time": 52.766276041666664,
          "velocity": 0.5196850393700787
        },
        {
          "duration": 0.125,
          "durationTicks": 192,
          "midi": 42,
          "name": "F#2",
          "ticks": 81820,
          "time": 53.268229166666664,
          "velocity": 0.7401574803149606
        },
        {
          "duration": 0.125,
          "durationTicks": 192,
          "midi": 44,
          "name": "G#2",
          "ticks": 81820,
          "time": 53.268229166666664,
          "velocity": 0.6220472440944882
        },
        {
          "duration": 0.125,
          "durationTicks": 192,
          "midi": 38,
          "name": "D2",
          "ticks": 82178,
          "time": 53.501302083333336,
          "velocity": 0.3937007874015748
        },
        {
          "duration": 0.125,
          "durationTicks": 192,
          "midi": 42,
          "name": "F#2",
          "ticks": 82519,
          "time": 53.723307291666664,
          "velocity": 0.6929133858267716
        },
        {
          "duration": 0.125,
          "durationTicks": 192,
          "midi": 44,
          "name": "G#2",
          "ticks": 82519,
          "time": 53.723307291666664,
          "velocity": 0.5748031496062992
        },
        {
          "duration": 0.125,
          "durationTicks": 192,
          "midi": 44,
          "name": "G#2",
          "ticks": 83344,
          "time": 54.260416666666664,
          "velocity": 0.6850393700787402
        },
        {
          "duration": 0.125,
          "durationTicks": 192,
          "midi": 42,
          "name": "F#2",
          "ticks": 83344,
          "time": 54.260416666666664,
          "velocity": 0.8031496062992126
        },
        {
          "duration": 0.125,
          "durationTicks": 192,
          "midi": 38,
          "name": "D2",
          "ticks": 83714,
          "time": 54.501302083333336,
          "velocity": 0.3937007874015748
        },
        {
          "duration": 0.125,
          "durationTicks": 192,
          "midi": 44,
          "name": "G#2",
          "ticks": 84090,
          "time": 54.74609375,
          "velocity": 0.5354330708661418
        },
        {
          "duration": 0.125,
          "durationTicks": 192,
          "midi": 42,
          "name": "F#2",
          "ticks": 84090,
          "time": 54.74609375,
          "velocity": 0.6535433070866141
        },
        {
          "duration": 0.125,
          "durationTicks": 192,
          "midi": 42,
          "name": "F#2",
          "ticks": 84870,
          "time": 55.25390625,
          "velocity": 0.7086614173228346
        },
        {
          "duration": 0.125,
          "durationTicks": 192,
          "midi": 44,
          "name": "G#2",
          "ticks": 84870,
          "time": 55.25390625,
          "velocity": 0.5905511811023622
        },
        {
          "duration": 0.125,
          "durationTicks": 192,
          "midi": 38,
          "name": "D2",
          "ticks": 85250,
          "time": 55.501302083333336,
          "velocity": 0.3937007874015748
        },
        {
          "duration": 0.125,
          "durationTicks": 192,
          "midi": 42,
          "name": "F#2",
          "ticks": 85641,
          "time": 55.755859375,
          "velocity": 0.6377952755905512
        },
        {
          "duration": 0.125,
          "durationTicks": 192,
          "midi": 44,
          "name": "G#2",
          "ticks": 85641,
          "time": 55.755859375,
          "velocity": 0.5196850393700787
        },
        {
          "duration": 0.125,
          "durationTicks": 192,
          "midi": 44,
          "name": "G#2",
          "ticks": 86405,
          "time": 56.253255208333336,
          "velocity": 0.5826771653543307
        },
        {
          "duration": 0.125,
          "durationTicks": 192,
          "midi": 42,
          "name": "F#2",
          "ticks": 86405,
          "time": 56.253255208333336,
          "velocity": 0.7007874015748031
        },
        {
          "duration": 0.125,
          "durationTicks": 192,
          "midi": 38,
          "name": "D2",
          "ticks": 86785,
          "time": 56.500651041666664,
          "velocity": 0.3937007874015748
        },
        {
          "duration": 0.125,
          "durationTicks": 192,
          "midi": 42,
          "name": "F#2",
          "ticks": 87190,
          "time": 56.764322916666664,
          "velocity": 0.6062992125984252
        },
        {
          "duration": 0.125,
          "durationTicks": 192,
          "midi": 44,
          "name": "G#2",
          "ticks": 87190,
          "time": 56.764322916666664,
          "velocity": 0.4881889763779528
        },
        {
          "duration": 0.125,
          "durationTicks": 192,
          "midi": 44,
          "name": "G#2",
          "ticks": 87936,
          "time": 57.25,
          "velocity": 0.6062992125984252
        },
        {
          "duration": 0.125,
          "durationTicks": 192,
          "midi": 42,
          "name": "F#2",
          "ticks": 87936,
          "time": 57.25,
          "velocity": 0.7244094488188977
        },
        {
          "duration": 0.125,
          "durationTicks": 192,
          "midi": 38,
          "name": "D2",
          "ticks": 88321,
          "time": 57.500651041666664,
          "velocity": 0.3937007874015748
        },
        {
          "duration": 0.125,
          "durationTicks": 192,
          "midi": 44,
          "name": "G#2",
          "ticks": 88712,
          "time": 57.755208333333336,
          "velocity": 0.6377952755905512
        },
        {
          "duration": 0.125,
          "durationTicks": 192,
          "midi": 42,
          "name": "F#2",
          "ticks": 88712,
          "time": 57.755208333333336,
          "velocity": 0.7559055118110236
        },
        {
          "duration": 0.125,
          "durationTicks": 192,
          "midi": 42,
          "name": "F#2",
          "ticks": 89450,
          "time": 58.235677083333336,
          "velocity": 0.7165354330708661
        },
        {
          "duration": 0.125,
          "durationTicks": 192,
          "midi": 44,
          "name": "G#2",
          "ticks": 89450,
          "time": 58.235677083333336,
          "velocity": 0.5984251968503937
        },
        {
          "duration": 0.125,
          "durationTicks": 192,
          "midi": 38,
          "name": "D2",
          "ticks": 89856,
          "time": 58.5,
          "velocity": 0.3937007874015748
        },
        {
          "duration": 0.125,
          "durationTicks": 192,
          "midi": 44,
          "name": "G#2",
          "ticks": 90233,
          "time": 58.745442708333336,
          "velocity": 0.5748031496062992
        },
        {
          "duration": 0.125,
          "durationTicks": 192,
          "midi": 42,
          "name": "F#2",
          "ticks": 90233,
          "time": 58.745442708333336,
          "velocity": 0.6929133858267716
        },
        {
          "duration": 0.125,
          "durationTicks": 192,
          "midi": 42,
          "name": "F#2",
          "ticks": 91021,
          "time": 59.258463541666664,
          "velocity": 0.5275590551181102
        },
        {
          "duration": 0.125,
          "durationTicks": 192,
          "midi": 44,
          "name": "G#2",
          "ticks": 91021,
          "time": 59.258463541666664,
          "velocity": 0.4094488188976378
        },
        {
          "duration": 0.125,
          "durationTicks": 192,
          "midi": 38,
          "name": "D2",
          "ticks": 91392,
          "time": 59.5,
          "velocity": 0.3937007874015748
        },
        {
          "duration": 0.125,
          "durationTicks": 192,
          "midi": 42,
          "name": "F#2",
          "ticks": 91794,
          "time": 59.76171875,
          "velocity": 0.5669291338582677
        },
        {
          "duration": 0.125,
          "durationTicks": 192,
          "midi": 44,
          "name": "G#2",
          "ticks": 91794,
          "time": 59.76171875,
          "velocity": 0.44881889763779526
        },
        {
          "duration": 0.125,
          "durationTicks": 192,
          "midi": 44,
          "name": "G#2",
          "ticks": 92544,
          "time": 60.25,
          "velocity": 0.6850393700787402
        },
        {
          "duration": 0.125,
          "durationTicks": 192,
          "midi": 42,
          "name": "F#2",
          "ticks": 92544,
          "time": 60.25,
          "velocity": 0.8031496062992126
        },
        {
          "duration": 0.125,
          "durationTicks": 192,
          "midi": 38,
          "name": "D2",
          "ticks": 92929,
          "time": 60.500651041666664,
          "velocity": 0.3937007874015748
        },
        {
          "duration": 0.125,
          "durationTicks": 192,
          "midi": 42,
          "name": "F#2",
          "ticks": 93336,
          "time": 60.765625,
          "velocity": 0.6377952755905512
        },
        {
          "duration": 0.125,
          "durationTicks": 192,
          "midi": 44,
          "name": "G#2",
          "ticks": 93336,
          "time": 60.765625,
          "velocity": 0.5196850393700787
        },
        {
          "duration": 0.125,
          "durationTicks": 192,
          "midi": 44,
          "name": "G#2",
          "ticks": 94107,
          "time": 61.267578125,
          "velocity": 0.6220472440944882
        },
        {
          "duration": 0.125,
          "durationTicks": 192,
          "midi": 42,
          "name": "F#2",
          "ticks": 94107,
          "time": 61.267578125,
          "velocity": 0.7401574803149606
        },
        {
          "duration": 0.125,
          "durationTicks": 192,
          "midi": 38,
          "name": "D2",
          "ticks": 94465,
          "time": 61.500651041666664,
          "velocity": 0.3937007874015748
        },
        {
          "duration": 0.125,
          "durationTicks": 192,
          "midi": 44,
          "name": "G#2",
          "ticks": 94806,
          "time": 61.72265625,
          "velocity": 0.5748031496062992
        },
        {
          "duration": 0.125,
          "durationTicks": 192,
          "midi": 42,
          "name": "F#2",
          "ticks": 94806,
          "time": 61.72265625,
          "velocity": 0.6929133858267716
        },
        {
          "duration": 0.125,
          "durationTicks": 192,
          "midi": 42,
          "name": "F#2",
          "ticks": 95631,
          "time": 62.259765625,
          "velocity": 0.8031496062992126
        },
        {
          "duration": 0.125,
          "durationTicks": 192,
          "midi": 44,
          "name": "G#2",
          "ticks": 95631,
          "time": 62.259765625,
          "velocity": 0.6850393700787402
        },
        {
          "duration": 0.125,
          "durationTicks": 192,
          "midi": 38,
          "name": "D2",
          "ticks": 96001,
          "time": 62.500651041666664,
          "velocity": 0.3937007874015748
        },
        {
          "duration": 0.125,
          "durationTicks": 192,
          "midi": 42,
          "name": "F#2",
          "ticks": 96377,
          "time": 62.745442708333336,
          "velocity": 0.6535433070866141
        },
        {
          "duration": 0.125,
          "durationTicks": 192,
          "midi": 44,
          "name": "G#2",
          "ticks": 96377,
          "time": 62.745442708333336,
          "velocity": 0.5354330708661418
        },
        {
          "duration": 0.125,
          "durationTicks": 192,
          "midi": 42,
          "name": "F#2",
          "ticks": 97157,
          "time": 63.253255208333336,
          "velocity": 0.7086614173228346
        },
        {
          "duration": 0.125,
          "durationTicks": 192,
          "midi": 44,
          "name": "G#2",
          "ticks": 97157,
          "time": 63.253255208333336,
          "velocity": 0.5905511811023622
        },
        {
          "duration": 0.125,
          "durationTicks": 192,
          "midi": 38,
          "name": "D2",
          "ticks": 97537,
          "time": 63.500651041666664,
          "velocity": 0.3937007874015748
        },
        {
          "duration": 0.125,
          "durationTicks": 192,
          "midi": 42,
          "name": "F#2",
          "ticks": 97928,
          "time": 63.755208333333336,
          "velocity": 0.6377952755905512
        },
        {
          "duration": 0.125,
          "durationTicks": 192,
          "midi": 44,
          "name": "G#2",
          "ticks": 97928,
          "time": 63.755208333333336,
          "velocity": 0.5196850393700787
        },
        {
          "duration": 0.125,
          "durationTicks": 192,
          "midi": 44,
          "name": "G#2",
          "ticks": 98703,
          "time": 64.259765625,
          "velocity": 0.6850393700787402
        },
        {
          "duration": 0.125,
          "durationTicks": 192,
          "midi": 42,
          "name": "F#2",
          "ticks": 98703,
          "time": 64.259765625,
          "velocity": 0.8031496062992126
        },
        {
          "duration": 0.125,
          "durationTicks": 192,
          "midi": 42,
          "name": "F#2",
          "ticks": 99449,
          "time": 64.74544270833333,
          "velocity": 0.6535433070866141
        },
        {
          "duration": 0.125,
          "durationTicks": 192,
          "midi": 44,
          "name": "G#2",
          "ticks": 99449,
          "time": 64.74544270833333,
          "velocity": 0.5354330708661418
        },
        {
          "duration": 0.125,
          "durationTicks": 192,
          "midi": 44,
          "name": "G#2",
          "ticks": 100229,
          "time": 65.25325520833333,
          "velocity": 0.5905511811023622
        },
        {
          "duration": 0.125,
          "durationTicks": 192,
          "midi": 42,
          "name": "F#2",
          "ticks": 100229,
          "time": 65.25325520833333,
          "velocity": 0.7086614173228346
        },
        {
          "duration": 0.125,
          "durationTicks": 192,
          "midi": 38,
          "name": "D2",
          "ticks": 100609,
          "time": 65.50065104166667,
          "velocity": 0.3937007874015748
        },
        {
          "duration": 0.08333333333334281,
          "durationTicks": 128,
          "midi": 38,
          "name": "D2",
          "ticks": 100865,
          "time": 65.66731770833333,
          "velocity": 0.2677165354330709
        },
        {
          "duration": 0.125,
          "durationTicks": 192,
          "midi": 42,
          "name": "F#2",
          "ticks": 101000,
          "time": 65.75520833333333,
          "velocity": 0.6377952755905512
        },
        {
          "duration": 0.125,
          "durationTicks": 192,
          "midi": 44,
          "name": "G#2",
          "ticks": 101000,
          "time": 65.75520833333333,
          "velocity": 0.5196850393700787
        },
        {
          "duration": 0.125,
          "durationTicks": 192,
          "midi": 44,
          "name": "G#2",
          "ticks": 101707,
          "time": 66.21549479166667,
          "velocity": 0.5590551181102362
        },
        {
          "duration": 0.125,
          "durationTicks": 192,
          "midi": 42,
          "name": "F#2",
          "ticks": 101707,
          "time": 66.21549479166667,
          "velocity": 0.6771653543307087
        },
        {
          "duration": 0.125,
          "durationTicks": 192,
          "midi": 38,
          "name": "D2",
          "ticks": 102144,
          "time": 66.5,
          "velocity": 0.3937007874015748
        },
        {
          "duration": 0.125,
          "durationTicks": 192,
          "midi": 44,
          "name": "G#2",
          "ticks": 102505,
          "time": 66.73502604166667,
          "velocity": 0.6771653543307087
        },
        {
          "duration": 0.125,
          "durationTicks": 192,
          "midi": 42,
          "name": "F#2",
          "ticks": 102505,
          "time": 66.73502604166667,
          "velocity": 0.7952755905511811
        },
        {
          "duration": 0.125,
          "durationTicks": 192,
          "midi": 42,
          "name": "F#2",
          "ticks": 103275,
          "time": 67.236328125,
          "velocity": 0.5511811023622047
        },
        {
          "duration": 0.125,
          "durationTicks": 192,
          "midi": 44,
          "name": "G#2",
          "ticks": 103275,
          "time": 67.236328125,
          "velocity": 0.4330708661417323
        },
        {
          "duration": 0.125,
          "durationTicks": 192,
          "midi": 38,
          "name": "D2",
          "ticks": 103680,
          "time": 67.5,
          "velocity": 0.3937007874015748
        },
        {
          "duration": 0.125,
          "durationTicks": 192,
          "midi": 44,
          "name": "G#2",
          "ticks": 104058,
          "time": 67.74609375,
          "velocity": 0.5039370078740157
        },
        {
          "duration": 0.125,
          "durationTicks": 192,
          "midi": 42,
          "name": "F#2",
          "ticks": 104058,
          "time": 67.74609375,
          "velocity": 0.6220472440944882
        },
        {
          "duration": 0.125,
          "durationTicks": 192,
          "midi": 44,
          "name": "G#2",
          "ticks": 104826,
          "time": 68.24609375,
          "velocity": 0.6456692913385826
        },
        {
          "duration": 0.125,
          "durationTicks": 192,
          "midi": 42,
          "name": "F#2",
          "ticks": 104826,
          "time": 68.24609375,
          "velocity": 0.7637795275590551
        },
        {
          "duration": 0.125,
          "durationTicks": 192,
          "midi": 38,
          "name": "D2",
          "ticks": 105216,
          "time": 68.5,
          "velocity": 0.3937007874015748
        },
        {
          "duration": 0.125,
          "durationTicks": 192,
          "midi": 42,
          "name": "F#2",
          "ticks": 105631,
          "time": 68.77018229166667,
          "velocity": 0.7637795275590551
        },
        {
          "duration": 0.125,
          "durationTicks": 192,
          "midi": 44,
          "name": "G#2",
          "ticks": 105631,
          "time": 68.77018229166667,
          "velocity": 0.6456692913385826
        },
        {
          "duration": 0.125,
          "durationTicks": 192,
          "midi": 42,
          "name": "F#2",
          "ticks": 106365,
          "time": 69.248046875,
          "velocity": 0.7007874015748031
        },
        {
          "duration": 0.125,
          "durationTicks": 192,
          "midi": 44,
          "name": "G#2",
          "ticks": 106365,
          "time": 69.248046875,
          "velocity": 0.5826771653543307
        },
        {
          "duration": 0.125,
          "durationTicks": 192,
          "midi": 38,
          "name": "D2",
          "ticks": 106753,
          "time": 69.50065104166667,
          "velocity": 0.3937007874015748
        },
        {
          "duration": 0.125,
          "durationTicks": 192,
          "midi": 42,
          "name": "F#2",
          "ticks": 107160,
          "time": 69.765625,
          "velocity": 0.6299212598425197
        },
        {
          "duration": 0.125,
          "durationTicks": 192,
          "midi": 44,
          "name": "G#2",
          "ticks": 107160,
          "time": 69.765625,
          "velocity": 0.5118110236220472
        },
        {
          "duration": 0.125,
          "durationTicks": 192,
          "midi": 44,
          "name": "G#2",
          "ticks": 107910,
          "time": 70.25390625,
          "velocity": 0.5275590551181102
        },
        {
          "duration": 0.125,
          "durationTicks": 192,
          "midi": 42,
          "name": "F#2",
          "ticks": 107910,
          "time": 70.25390625,
          "velocity": 0.6456692913385826
        },
        {
          "duration": 0.125,
          "durationTicks": 192,
          "midi": 38,
          "name": "D2",
          "ticks": 108289,
          "time": 70.50065104166667,
          "velocity": 0.3937007874015748
        },
        {
          "duration": 0.125,
          "durationTicks": 192,
          "midi": 44,
          "name": "G#2",
          "ticks": 108697,
          "time": 70.76627604166667,
          "velocity": 0.4881889763779528
        },
        {
          "duration": 0.125,
          "durationTicks": 192,
          "midi": 42,
          "name": "F#2",
          "ticks": 108697,
          "time": 70.76627604166667,
          "velocity": 0.6062992125984252
        },
        {
          "duration": 0.125,
          "durationTicks": 192,
          "midi": 42,
          "name": "F#2",
          "ticks": 109443,
          "time": 71.251953125,
          "velocity": 0.6614173228346457
        },
        {
          "duration": 0.125,
          "durationTicks": 192,
          "midi": 44,
          "name": "G#2",
          "ticks": 109443,
          "time": 71.251953125,
          "velocity": 0.5433070866141733
        },
        {
          "duration": 0.125,
          "durationTicks": 192,
          "midi": 38,
          "name": "D2",
          "ticks": 109825,
          "time": 71.50065104166667,
          "velocity": 0.3937007874015748
        },
        {
          "duration": 0.125,
          "durationTicks": 192,
          "midi": 44,
          "name": "G#2",
          "ticks": 110190,
          "time": 71.73828125,
          "velocity": 0.5826771653543307
        },
        {
          "duration": 0.125,
          "durationTicks": 192,
          "midi": 42,
          "name": "F#2",
          "ticks": 110190,
          "time": 71.73828125,
          "velocity": 0.7007874015748031
        },
        {
          "duration": 0.125,
          "durationTicks": 192,
          "midi": 42,
          "name": "F#2",
          "ticks": 110959,
          "time": 72.23893229166667,
          "velocity": 0.5984251968503937
        },
        {
          "duration": 0.125,
          "durationTicks": 192,
          "midi": 44,
          "name": "G#2",
          "ticks": 110959,
          "time": 72.23893229166667,
          "velocity": 0.48031496062992124
        },
        {
          "duration": 0.125,
          "durationTicks": 192,
          "midi": 38,
          "name": "D2",
          "ticks": 111361,
          "time": 72.50065104166667,
          "velocity": 0.3937007874015748
        },
        {
          "duration": 0.125,
          "durationTicks": 192,
          "midi": 42,
          "name": "F#2",
          "ticks": 111754,
          "time": 72.75651041666667,
          "velocity": 0.7244094488188977
        },
        {
          "duration": 0.125,
          "durationTicks": 192,
          "midi": 44,
          "name": "G#2",
          "ticks": 111754,
          "time": 72.75651041666667,
          "velocity": 0.6062992125984252
        },
        {
          "duration": 0.125,
          "durationTicks": 192,
          "midi": 44,
          "name": "G#2",
          "ticks": 112517,
          "time": 73.25325520833333,
          "velocity": 0.4645669291338583
        },
        {
          "duration": 0.125,
          "durationTicks": 192,
          "midi": 42,
          "name": "F#2",
          "ticks": 112517,
          "time": 73.25325520833333,
          "velocity": 0.5826771653543307
        },
        {
          "duration": 0.125,
          "durationTicks": 192,
          "midi": 38,
          "name": "D2",
          "ticks": 112897,
          "time": 73.50065104166667,
          "velocity": 0.3937007874015748
        },
        {
          "duration": 0.125,
          "durationTicks": 192,
          "midi": 44,
          "name": "G#2",
          "ticks": 113286,
          "time": 73.75390625,
          "velocity": 0.5433070866141733
        },
        {
          "duration": 0.125,
          "durationTicks": 192,
          "midi": 42,
          "name": "F#2",
          "ticks": 113286,
          "time": 73.75390625,
          "velocity": 0.6614173228346457
        },
        {
          "duration": 0.125,
          "durationTicks": 192,
          "midi": 44,
          "name": "G#2",
          "ticks": 114053,
          "time": 74.25325520833333,
          "velocity": 0.5826771653543307
        },
        {
          "duration": 0.125,
          "durationTicks": 192,
          "midi": 42,
          "name": "F#2",
          "ticks": 114053,
          "time": 74.25325520833333,
          "velocity": 0.7007874015748031
        },
        {
          "duration": 0.125,
          "durationTicks": 192,
          "midi": 38,
          "name": "D2",
          "ticks": 114433,
          "time": 74.50065104166667,
          "velocity": 0.3937007874015748
        },
        {
          "duration": 0.125,
          "durationTicks": 192,
          "midi": 42,
          "name": "F#2",
          "ticks": 114838,
          "time": 74.76432291666667,
          "velocity": 0.6062992125984252
        },
        {
          "duration": 0.125,
          "durationTicks": 192,
          "midi": 44,
          "name": "G#2",
          "ticks": 114838,
          "time": 74.76432291666667,
          "velocity": 0.4881889763779528
        },
        {
          "duration": 0.125,
          "durationTicks": 192,
          "midi": 42,
          "name": "F#2",
          "ticks": 115584,
          "time": 75.25,
          "velocity": 0.7244094488188977
        },
        {
          "duration": 0.125,
          "durationTicks": 192,
          "midi": 44,
          "name": "G#2",
          "ticks": 115584,
          "time": 75.25,
          "velocity": 0.6062992125984252
        },
        {
          "duration": 0.125,
          "durationTicks": 192,
          "midi": 38,
          "name": "D2",
          "ticks": 115969,
          "time": 75.50065104166667,
          "velocity": 0.3937007874015748
        },
        {
          "duration": 0.125,
          "durationTicks": 192,
          "midi": 44,
          "name": "G#2",
          "ticks": 116360,
          "time": 75.75520833333333,
          "velocity": 0.6377952755905512
        },
        {
          "duration": 0.125,
          "durationTicks": 192,
          "midi": 42,
          "name": "F#2",
          "ticks": 116360,
          "time": 75.75520833333333,
          "velocity": 0.7559055118110236
        },
        {
          "duration": 0.125,
          "durationTicks": 192,
          "midi": 44,
          "name": "G#2",
          "ticks": 117098,
          "time": 76.23567708333333,
          "velocity": 0.5984251968503937
        },
        {
          "duration": 0.125,
          "durationTicks": 192,
          "midi": 42,
          "name": "F#2",
          "ticks": 117098,
          "time": 76.23567708333333,
          "velocity": 0.7165354330708661
        },
        {
          "duration": 0.125,
          "durationTicks": 192,
          "midi": 38,
          "name": "D2",
          "ticks": 117504,
          "time": 76.5,
          "velocity": 0.3937007874015748
        },
        {
          "duration": 0.125,
          "durationTicks": 192,
          "midi": 44,
          "name": "G#2",
          "ticks": 117881,
          "time": 76.74544270833333,
          "velocity": 0.5748031496062992
        },
        {
          "duration": 0.125,
          "durationTicks": 192,
          "midi": 42,
          "name": "F#2",
          "ticks": 117881,
          "time": 76.74544270833333,
          "velocity": 0.6929133858267716
        },
        {
          "duration": 0.125,
          "durationTicks": 192,
          "midi": 42,
          "name": "F#2",
          "ticks": 118669,
          "time": 77.25846354166667,
          "velocity": 0.5275590551181102
        },
        {
          "duration": 0.125,
          "durationTicks": 192,
          "midi": 44,
          "name": "G#2",
          "ticks": 118669,
          "time": 77.25846354166667,
          "velocity": 0.4094488188976378
        },
        {
          "duration": 0.125,
          "durationTicks": 192,
          "midi": 38,
          "name": "D2",
          "ticks": 119040,
          "time": 77.5,
          "velocity": 0.3937007874015748
        },
        {
          "duration": 0.125,
          "durationTicks": 192,
          "midi": 44,
          "name": "G#2",
          "ticks": 119442,
          "time": 77.76171875,
          "velocity": 0.44881889763779526
        },
        {
          "duration": 0.125,
          "durationTicks": 192,
          "midi": 42,
          "name": "F#2",
          "ticks": 119442,
          "time": 77.76171875,
          "velocity": 0.5669291338582677
        },
        {
          "duration": 0.125,
          "durationTicks": 192,
          "midi": 42,
          "name": "F#2",
          "ticks": 120191,
          "time": 78.24934895833333,
          "velocity": 0.8031496062992126
        },
        {
          "duration": 0.125,
          "durationTicks": 192,
          "midi": 44,
          "name": "G#2",
          "ticks": 120191,
          "time": 78.24934895833333,
          "velocity": 0.6850393700787402
        },
        {
          "duration": 0.125,
          "durationTicks": 192,
          "midi": 38,
          "name": "D2",
          "ticks": 120576,
          "time": 78.5,
          "velocity": 0.3937007874015748
        },
        {
          "duration": 0.125,
          "durationTicks": 192,
          "midi": 42,
          "name": "F#2",
          "ticks": 120983,
          "time": 78.76497395833333,
          "velocity": 0.6377952755905512
        },
        {
          "duration": 0.125,
          "durationTicks": 192,
          "midi": 44,
          "name": "G#2",
          "ticks": 120983,
          "time": 78.76497395833333,
          "velocity": 0.5196850393700787
        },
        {
          "duration": 0.125,
          "durationTicks": 192,
          "midi": 42,
          "name": "F#2",
          "ticks": 121754,
          "time": 79.26692708333333,
          "velocity": 0.7401574803149606
        },
        {
          "duration": 0.125,
          "durationTicks": 192,
          "midi": 44,
          "name": "G#2",
          "ticks": 121754,
          "time": 79.26692708333333,
          "velocity": 0.6220472440944882
        },
        {
          "duration": 0.125,
          "durationTicks": 192,
          "midi": 38,
          "name": "D2",
          "ticks": 122112,
          "time": 79.5,
          "velocity": 0.3937007874015748
        },
        {
          "duration": 0.125,
          "durationTicks": 192,
          "midi": 42,
          "name": "F#2",
          "ticks": 122453,
          "time": 79.72200520833333,
          "velocity": 0.6929133858267716
        },
        {
          "duration": 0.125,
          "durationTicks": 192,
          "midi": 44,
          "name": "G#2",
          "ticks": 122453,
          "time": 79.72200520833333,
          "velocity": 0.5748031496062992
        },
        {
          "duration": 0.125,
          "durationTicks": 192,
          "midi": 44,
          "name": "G#2",
          "ticks": 123278,
          "time": 80.25911458333333,
          "velocity": 0.6850393700787402
        },
        {
          "duration": 0.125,
          "durationTicks": 192,
          "midi": 42,
          "name": "F#2",
          "ticks": 123278,
          "time": 80.25911458333333,
          "velocity": 0.8031496062992126
        },
        {
          "duration": 0.125,
          "durationTicks": 192,
          "midi": 38,
          "name": "D2",
          "ticks": 123648,
          "time": 80.5,
          "velocity": 0.3937007874015748
        },
        {
          "duration": 0.125,
          "durationTicks": 192,
          "midi": 44,
          "name": "G#2",
          "ticks": 124024,
          "time": 80.74479166666667,
          "velocity": 0.5354330708661418
        },
        {
          "duration": 0.125,
          "durationTicks": 192,
          "midi": 42,
          "name": "F#2",
          "ticks": 124024,
          "time": 80.74479166666667,
          "velocity": 0.6535433070866141
        },
        {
          "duration": 0.125,
          "durationTicks": 192,
          "midi": 44,
          "name": "G#2",
          "ticks": 124804,
          "time": 81.25260416666667,
          "velocity": 0.5905511811023622
        },
        {
          "duration": 0.125,
          "durationTicks": 192,
          "midi": 42,
          "name": "F#2",
          "ticks": 124804,
          "time": 81.25260416666667,
          "velocity": 0.7086614173228346
        },
        {
          "duration": 0.0833333333333286,
          "durationTicks": 128,
          "midi": 38,
          "name": "D2",
          "ticks": 125056,
          "time": 81.41666666666667,
          "velocity": 0.15748031496062992
        },
        {
          "duration": 0.125,
          "durationTicks": 192,
          "midi": 38,
          "name": "D2",
          "ticks": 125184,
          "time": 81.5,
          "velocity": 0.3937007874015748
        },
        {
          "duration": 0.0833333333333286,
          "durationTicks": 128,
          "midi": 38,
          "name": "D2",
          "ticks": 125440,
          "time": 81.66666666666667,
          "velocity": 0.31496062992125984
        },
        {
          "duration": 0.125,
          "durationTicks": 192,
          "midi": 42,
          "name": "F#2",
          "ticks": 125575,
          "time": 81.75455729166667,
          "velocity": 0.6377952755905512
        },
        {
          "duration": 0.125,
          "durationTicks": 192,
          "midi": 44,
          "name": "G#2",
          "ticks": 125575,
          "time": 81.75455729166667,
          "velocity": 0.5196850393700787
        },
        {
          "duration": 0.125,
          "durationTicks": 192,
          "midi": 44,
          "name": "G#2",
          "ticks": 126282,
          "time": 82.21484375,
          "velocity": 0.5590551181102362
        },
        {
          "duration": 0.125,
          "durationTicks": 192,
          "midi": 42,
          "name": "F#2",
          "ticks": 126282,
          "time": 82.21484375,
          "velocity": 0.6771653543307087
        },
        {
          "duration": 0.125,
          "durationTicks": 192,
          "midi": 38,
          "name": "D2",
          "ticks": 126719,
          "time": 82.49934895833333,
          "velocity": 0.3937007874015748
        },
        {
          "duration": 0.125,
          "durationTicks": 192,
          "midi": 44,
          "name": "G#2",
          "ticks": 127080,
          "time": 82.734375,
          "velocity": 0.6771653543307087
        },
        {
          "duration": 0.125,
          "durationTicks": 192,
          "midi": 42,
          "name": "F#2",
          "ticks": 127080,
          "time": 82.734375,
          "velocity": 0.7952755905511811
        },
        {
          "duration": 0.125,
          "durationTicks": 192,
          "midi": 44,
          "name": "G#2",
          "ticks": 127850,
          "time": 83.23567708333333,
          "velocity": 0.4330708661417323
        },
        {
          "duration": 0.125,
          "durationTicks": 192,
          "midi": 42,
          "name": "F#2",
          "ticks": 127850,
          "time": 83.23567708333333,
          "velocity": 0.5511811023622047
        },
        {
          "duration": 0.125,
          "durationTicks": 192,
          "midi": 38,
          "name": "D2",
          "ticks": 128255,
          "time": 83.49934895833333,
          "velocity": 0.3937007874015748
        },
        {
          "duration": 0.125,
          "durationTicks": 192,
          "midi": 42,
          "name": "F#2",
          "ticks": 128633,
          "time": 83.74544270833333,
          "velocity": 0.6220472440944882
        },
        {
          "duration": 0.125,
          "durationTicks": 192,
          "midi": 44,
          "name": "G#2",
          "ticks": 128633,
          "time": 83.74544270833333,
          "velocity": 0.5039370078740157
        },
        {
          "duration": 0.125,
          "durationTicks": 192,
          "midi": 42,
          "name": "F#2",
          "ticks": 129401,
          "time": 84.24544270833333,
          "velocity": 0.7637795275590551
        },
        {
          "duration": 0.125,
          "durationTicks": 192,
          "midi": 44,
          "name": "G#2",
          "ticks": 129401,
          "time": 84.24544270833333,
          "velocity": 0.6456692913385826
        },
        {
          "duration": 0.125,
          "durationTicks": 192,
          "midi": 38,
          "name": "D2",
          "ticks": 129791,
          "time": 84.49934895833333,
          "velocity": 0.3937007874015748
        },
        {
          "duration": 0.125,
          "durationTicks": 192,
          "midi": 44,
          "name": "G#2",
          "ticks": 130206,
          "time": 84.76953125,
          "velocity": 0.6456692913385826
        },
        {
          "duration": 0.125,
          "durationTicks": 192,
          "midi": 42,
          "name": "F#2",
          "ticks": 130206,
          "time": 84.76953125,
          "velocity": 0.7637795275590551
        },
        {
          "duration": 0.125,
          "durationTicks": 192,
          "midi": 44,
          "name": "G#2",
          "ticks": 130940,
          "time": 85.24739583333333,
          "velocity": 0.5826771653543307
        },
        {
          "duration": 0.125,
          "durationTicks": 192,
          "midi": 42,
          "name": "F#2",
          "ticks": 130940,
          "time": 85.24739583333333,
          "velocity": 0.7007874015748031
        },
        {
          "duration": 0.125,
          "durationTicks": 192,
          "midi": 38,
          "name": "D2",
          "ticks": 131328,
          "time": 85.5,
          "velocity": 0.3937007874015748
        },
        {
          "duration": 0.125,
          "durationTicks": 192,
          "midi": 44,
          "name": "G#2",
          "ticks": 131735,
          "time": 85.76497395833333,
          "velocity": 0.5118110236220472
        },
        {
          "duration": 0.125,
          "durationTicks": 192,
          "midi": 42,
          "name": "F#2",
          "ticks": 131735,
          "time": 85.76497395833333,
          "velocity": 0.6299212598425197
        },
        {
          "duration": 0.125,
          "durationTicks": 192,
          "midi": 44,
          "name": "G#2",
          "ticks": 132485,
          "time": 86.25325520833333,
          "velocity": 0.5275590551181102
        },
        {
          "duration": 0.125,
          "durationTicks": 192,
          "midi": 42,
          "name": "F#2",
          "ticks": 132485,
          "time": 86.25325520833333,
          "velocity": 0.6456692913385826
        },
        {
          "duration": 0.125,
          "durationTicks": 192,
          "midi": 38,
          "name": "D2",
          "ticks": 132864,
          "time": 86.5,
          "velocity": 0.3937007874015748
        },
        {
          "duration": 0.125,
          "durationTicks": 192,
          "midi": 42,
          "name": "F#2",
          "ticks": 133272,
          "time": 86.765625,
          "velocity": 0.6062992125984252
        },
        {
          "duration": 0.125,
          "durationTicks": 192,
          "midi": 44,
          "name": "G#2",
          "ticks": 133272,
          "time": 86.765625,
          "velocity": 0.4881889763779528
        },
        {
          "duration": 0.125,
          "durationTicks": 192,
          "midi": 44,
          "name": "G#2",
          "ticks": 134018,
          "time": 87.25130208333333,
          "velocity": 0.5433070866141733
        },
        {
          "duration": 0.125,
          "durationTicks": 192,
          "midi": 42,
          "name": "F#2",
          "ticks": 134018,
          "time": 87.25130208333333,
          "velocity": 0.6614173228346457
        },
        {
          "duration": 0.125,
          "durationTicks": 192,
          "midi": 38,
          "name": "D2",
          "ticks": 134400,
          "time": 87.5,
          "velocity": 0.3937007874015748
        },
        {
          "duration": 0.125,
          "durationTicks": 192,
          "midi": 44,
          "name": "G#2",
          "ticks": 134765,
          "time": 87.73763020833333,
          "velocity": 0.5826771653543307
        },
        {
          "duration": 0.125,
          "durationTicks": 192,
          "midi": 42,
          "name": "F#2",
          "ticks": 134765,
          "time": 87.73763020833333,
          "velocity": 0.7007874015748031
        },
        {
          "duration": 0.125,
          "durationTicks": 192,
          "midi": 42,
          "name": "F#2",
          "ticks": 135534,
          "time": 88.23828125,
          "velocity": 0.5984251968503937
        },
        {
          "duration": 0.125,
          "durationTicks": 192,
          "midi": 44,
          "name": "G#2",
          "ticks": 135534,
          "time": 88.23828125,
          "velocity": 0.48031496062992124
        },
        {
          "duration": 0.125,
          "durationTicks": 192,
          "midi": 38,
          "name": "D2",
          "ticks": 135936,
          "time": 88.5,
          "velocity": 0.3937007874015748
        },
        {
          "duration": 0.125,
          "durationTicks": 192,
          "midi": 42,
          "name": "F#2",
          "ticks": 136329,
          "time": 88.755859375,
          "velocity": 0.7244094488188977
        },
        {
          "duration": 0.125,
          "durationTicks": 192,
          "midi": 44,
          "name": "G#2",
          "ticks": 136329,
          "time": 88.755859375,
          "velocity": 0.6062992125984252
        },
        {
          "duration": 0.125,
          "durationTicks": 192,
          "midi": 44,
          "name": "G#2",
          "ticks": 137092,
          "time": 89.25260416666667,
          "velocity": 0.4645669291338583
        },
        {
          "duration": 0.125,
          "durationTicks": 192,
          "midi": 42,
          "name": "F#2",
          "ticks": 137092,
          "time": 89.25260416666667,
          "velocity": 0.5826771653543307
        },
        {
          "duration": 0.125,
          "durationTicks": 192,
          "midi": 38,
          "name": "D2",
          "ticks": 137472,
          "time": 89.5,
          "velocity": 0.3937007874015748
        },
        {
          "duration": 0.125,
          "durationTicks": 192,
          "midi": 44,
          "name": "G#2",
          "ticks": 137861,
          "time": 89.75325520833333,
          "velocity": 0.5433070866141733
        },
        {
          "duration": 0.125,
          "durationTicks": 192,
          "midi": 42,
          "name": "F#2",
          "ticks": 137861,
          "time": 89.75325520833333,
          "velocity": 0.6614173228346457
        },
        {
          "duration": 0.125,
          "durationTicks": 192,
          "midi": 44,
          "name": "G#2",
          "ticks": 138628,
          "time": 90.25260416666667,
          "velocity": 0.5826771653543307
        },
        {
          "duration": 0.125,
          "durationTicks": 192,
          "midi": 42,
          "name": "F#2",
          "ticks": 138628,
          "time": 90.25260416666667,
          "velocity": 0.7007874015748031
        },
        {
          "duration": 0.125,
          "durationTicks": 192,
          "midi": 38,
          "name": "D2",
          "ticks": 139008,
          "time": 90.5,
          "velocity": 0.3937007874015748
        },
        {
          "duration": 0.125,
          "durationTicks": 192,
          "midi": 42,
          "name": "F#2",
          "ticks": 139413,
          "time": 90.763671875,
          "velocity": 0.6062992125984252
        },
        {
          "duration": 0.125,
          "durationTicks": 192,
          "midi": 44,
          "name": "G#2",
          "ticks": 139413,
          "time": 90.763671875,
          "velocity": 0.4881889763779528
        },
        {
          "duration": 0.125,
          "durationTicks": 192,
          "midi": 42,
          "name": "F#2",
          "ticks": 140159,
          "time": 91.24934895833333,
          "velocity": 0.7244094488188977
        },
        {
          "duration": 0.125,
          "durationTicks": 192,
          "midi": 44,
          "name": "G#2",
          "ticks": 140159,
          "time": 91.24934895833333,
          "velocity": 0.6062992125984252
        },
        {
          "duration": 0.125,
          "durationTicks": 192,
          "midi": 38,
          "name": "D2",
          "ticks": 140544,
          "time": 91.5,
          "velocity": 0.3937007874015748
        },
        {
          "duration": 0.125,
          "durationTicks": 192,
          "midi": 44,
          "name": "G#2",
          "ticks": 140935,
          "time": 91.75455729166667,
          "velocity": 0.6377952755905512
        },
        {
          "duration": 0.125,
          "durationTicks": 192,
          "midi": 42,
          "name": "F#2",
          "ticks": 140935,
          "time": 91.75455729166667,
          "velocity": 0.7559055118110236
        },
        {
          "duration": 0.125,
          "durationTicks": 192,
          "midi": 42,
          "name": "F#2",
          "ticks": 141673,
          "time": 92.23502604166667,
          "velocity": 0.7165354330708661
        },
        {
          "duration": 0.125,
          "durationTicks": 192,
          "midi": 44,
          "name": "G#2",
          "ticks": 141673,
          "time": 92.23502604166667,
          "velocity": 0.5984251968503937
        },
        {
          "duration": 0.125,
          "durationTicks": 192,
          "midi": 38,
          "name": "D2",
          "ticks": 142079,
          "time": 92.49934895833333,
          "velocity": 0.3937007874015748
        },
        {
          "duration": 0.125,
          "durationTicks": 192,
          "midi": 42,
          "name": "F#2",
          "ticks": 142456,
          "time": 92.74479166666667,
          "velocity": 0.6929133858267716
        },
        {
          "duration": 0.125,
          "durationTicks": 192,
          "midi": 44,
          "name": "G#2",
          "ticks": 142456,
          "time": 92.74479166666667,
          "velocity": 0.5748031496062992
        },
        {
          "duration": 0.125,
          "durationTicks": 192,
          "midi": 44,
          "name": "G#2",
          "ticks": 143244,
          "time": 93.2578125,
          "velocity": 0.4094488188976378
        },
        {
          "duration": 0.125,
          "durationTicks": 192,
          "midi": 42,
          "name": "F#2",
          "ticks": 143244,
          "time": 93.2578125,
          "velocity": 0.5275590551181102
        },
        {
          "duration": 0.125,
          "durationTicks": 192,
          "midi": 38,
          "name": "D2",
          "ticks": 143615,
          "time": 93.49934895833333,
          "velocity": 0.3937007874015748
        },
        {
          "duration": 0.125,
          "durationTicks": 192,
          "midi": 44,
          "name": "G#2",
          "ticks": 144017,
          "time": 93.76106770833333,
          "velocity": 0.44881889763779526
        },
        {
          "duration": 0.125,
          "durationTicks": 192,
          "midi": 42,
          "name": "F#2",
          "ticks": 144017,
          "time": 93.76106770833333,
          "velocity": 0.5669291338582677
        },
        {
          "duration": 0.125,
          "durationTicks": 192,
          "midi": 44,
          "name": "G#2",
          "ticks": 144766,
          "time": 94.24869791666667,
          "velocity": 0.6850393700787402
        },
        {
          "duration": 0.125,
          "durationTicks": 192,
          "midi": 42,
          "name": "F#2",
          "ticks": 144766,
          "time": 94.24869791666667,
          "velocity": 0.8031496062992126
        },
        {
          "duration": 0.125,
          "durationTicks": 192,
          "midi": 38,
          "name": "D2",
          "ticks": 145151,
          "time": 94.49934895833333,
          "velocity": 0.3937007874015748
        },
        {
          "duration": 0.125,
          "durationTicks": 192,
          "midi": 42,
          "name": "F#2",
          "ticks": 145558,
          "time": 94.76432291666667,
          "velocity": 0.6377952755905512
        },
        {
          "duration": 0.125,
          "durationTicks": 192,
          "midi": 44,
          "name": "G#2",
          "ticks": 145558,
          "time": 94.76432291666667,
          "velocity": 0.5196850393700787
        },
        {
          "duration": 0.125,
          "durationTicks": 192,
          "midi": 42,
          "name": "F#2",
          "ticks": 146329,
          "time": 95.26627604166667,
          "velocity": 0.7401574803149606
        },
        {
          "duration": 0.125,
          "durationTicks": 192,
          "midi": 44,
          "name": "G#2",
          "ticks": 146329,
          "time": 95.26627604166667,
          "velocity": 0.6220472440944882
        },
        {
          "duration": 0.125,
          "durationTicks": 192,
          "midi": 38,
          "name": "D2",
          "ticks": 146687,
          "time": 95.49934895833333,
          "velocity": 0.3937007874015748
        },
        {
          "duration": 0.125,
          "durationTicks": 192,
          "midi": 42,
          "name": "F#2",
          "ticks": 147028,
          "time": 95.72135416666667,
          "velocity": 0.6929133858267716
        },
        {
          "duration": 0.125,
          "durationTicks": 192,
          "midi": 44,
          "name": "G#2",
          "ticks": 147028,
          "time": 95.72135416666667,
          "velocity": 0.5748031496062992
        },
        {
          "duration": 0.125,
          "durationTicks": 192,
          "midi": 44,
          "name": "G#2",
          "ticks": 147853,
          "time": 96.25846354166667,
          "velocity": 0.6850393700787402
        },
        {
          "duration": 0.125,
          "durationTicks": 192,
          "midi": 42,
          "name": "F#2",
          "ticks": 147853,
          "time": 96.25846354166667,
          "velocity": 0.8031496062992126
        },
        {
          "duration": 0.125,
          "durationTicks": 192,
          "midi": 38,
          "name": "D2",
          "ticks": 148223,
          "time": 96.49934895833333,
          "velocity": 0.3937007874015748
        },
        {
          "duration": 0.125,
          "durationTicks": 192,
          "midi": 42,
          "name": "F#2",
          "ticks": 148599,
          "time": 96.744140625,
          "velocity": 0.6535433070866141
        },
        {
          "duration": 0.125,
          "durationTicks": 192,
          "midi": 44,
          "name": "G#2",
          "ticks": 148599,
          "time": 96.744140625,
          "velocity": 0.5354330708661418
        },
        {
          "duration": 0.125,
          "durationTicks": 192,
          "midi": 44,
          "name": "G#2",
          "ticks": 149379,
          "time": 97.251953125,
          "velocity": 0.5905511811023622
        },
        {
          "duration": 0.125,
          "durationTicks": 192,
          "midi": 42,
          "name": "F#2",
          "ticks": 149379,
          "time": 97.251953125,
          "velocity": 0.7086614173228346
        },
        {
          "duration": 0.125,
          "durationTicks": 192,
          "midi": 38,
          "name": "D2",
          "ticks": 149759,
          "time": 97.49934895833333,
          "velocity": 0.3937007874015748
        },
        {
          "duration": 0.125,
          "durationTicks": 192,
          "midi": 42,
          "name": "F#2",
          "ticks": 150150,
          "time": 97.75390625,
          "velocity": 0.6377952755905512
        },
        {
          "duration": 0.125,
          "durationTicks": 192,
          "midi": 44,
          "name": "G#2",
          "ticks": 150150,
          "time": 97.75390625,
          "velocity": 0.5196850393700787
        },
        {
          "duration": 0.125,
          "durationTicks": 192,
          "midi": 42,
          "name": "F#2",
          "ticks": 150857,
          "time": 98.21419270833333,
          "velocity": 0.6771653543307087
        },
        {
          "duration": 0.125,
          "durationTicks": 192,
          "midi": 44,
          "name": "G#2",
          "ticks": 150857,
          "time": 98.21419270833333,
          "velocity": 0.5590551181102362
        },
        {
          "duration": 0.125,
          "durationTicks": 192,
          "midi": 38,
          "name": "D2",
          "ticks": 151294,
          "time": 98.49869791666667,
          "velocity": 0.3937007874015748
        },
        {
          "duration": 0.125,
          "durationTicks": 192,
          "midi": 42,
          "name": "F#2",
          "ticks": 151655,
          "time": 98.73372395833333,
          "velocity": 0.7952755905511811
        },
        {
          "duration": 0.125,
          "durationTicks": 192,
          "midi": 44,
          "name": "G#2",
          "ticks": 151655,
          "time": 98.73372395833333,
          "velocity": 0.6771653543307087
        },
        {
          "duration": 0.125,
          "durationTicks": 192,
          "midi": 44,
          "name": "G#2",
          "ticks": 152425,
          "time": 99.23502604166667,
          "velocity": 0.4330708661417323
        },
        {
          "duration": 0.125,
          "durationTicks": 192,
          "midi": 42,
          "name": "F#2",
          "ticks": 152425,
          "time": 99.23502604166667,
          "velocity": 0.5511811023622047
        },
        {
          "duration": 0.125,
          "durationTicks": 192,
          "midi": 38,
          "name": "D2",
          "ticks": 152830,
          "time": 99.49869791666667,
          "velocity": 0.3937007874015748
        },
        {
          "duration": 0.125,
          "durationTicks": 192,
          "midi": 42,
          "name": "F#2",
          "ticks": 153208,
          "time": 99.74479166666667,
          "velocity": 0.6220472440944882
        },
        {
          "duration": 0.125,
          "durationTicks": 192,
          "midi": 44,
          "name": "G#2",
          "ticks": 153208,
          "time": 99.74479166666667,
          "velocity": 0.5039370078740157
        },
        {
          "duration": 0.125,
          "durationTicks": 192,
          "midi": 42,
          "name": "F#2",
          "ticks": 153976,
          "time": 100.24479166666667,
          "velocity": 0.7637795275590551
        },
        {
          "duration": 0.125,
          "durationTicks": 192,
          "midi": 44,
          "name": "G#2",
          "ticks": 153976,
          "time": 100.24479166666667,
          "velocity": 0.6456692913385826
        },
        {
          "duration": 0.125,
          "durationTicks": 192,
          "midi": 38,
          "name": "D2",
          "ticks": 154366,
          "time": 100.49869791666667,
          "velocity": 0.3937007874015748
        },
        {
          "duration": 0.125,
          "durationTicks": 192,
          "midi": 44,
          "name": "G#2",
          "ticks": 154781,
          "time": 100.76888020833333,
          "velocity": 0.6456692913385826
        },
        {
          "duration": 0.125,
          "durationTicks": 192,
          "midi": 42,
          "name": "F#2",
          "ticks": 154781,
          "time": 100.76888020833333,
          "velocity": 0.7637795275590551
        },
        {
          "duration": 0.125,
          "durationTicks": 192,
          "midi": 42,
          "name": "F#2",
          "ticks": 155515,
          "time": 101.24674479166667,
          "velocity": 0.7007874015748031
        },
        {
          "duration": 0.125,
          "durationTicks": 192,
          "midi": 44,
          "name": "G#2",
          "ticks": 155515,
          "time": 101.24674479166667,
          "velocity": 0.5826771653543307
        },
        {
          "duration": 0.125,
          "durationTicks": 192,
          "midi": 38,
          "name": "D2",
          "ticks": 155903,
          "time": 101.49934895833333,
          "velocity": 0.3937007874015748
        },
        {
          "duration": 0.125,
          "durationTicks": 192,
          "midi": 44,
          "name": "G#2",
          "ticks": 156310,
          "time": 101.76432291666667,
          "velocity": 0.5118110236220472
        },
        {
          "duration": 0.125,
          "durationTicks": 192,
          "midi": 42,
          "name": "F#2",
          "ticks": 156310,
          "time": 101.76432291666667,
          "velocity": 0.6299212598425197
        },
        {
          "duration": 0.125,
          "durationTicks": 192,
          "midi": 44,
          "name": "G#2",
          "ticks": 157060,
          "time": 102.25260416666667,
          "velocity": 0.5275590551181102
        },
        {
          "duration": 0.125,
          "durationTicks": 192,
          "midi": 42,
          "name": "F#2",
          "ticks": 157060,
          "time": 102.25260416666667,
          "velocity": 0.6456692913385826
        },
        {
          "duration": 0.125,
          "durationTicks": 192,
          "midi": 38,
          "name": "D2",
          "ticks": 157439,
          "time": 102.49934895833333,
          "velocity": 0.3937007874015748
        },
        {
          "duration": 0.125,
          "durationTicks": 192,
          "midi": 44,
          "name": "G#2",
          "ticks": 157847,
          "time": 102.76497395833333,
          "velocity": 0.4881889763779528
        },
        {
          "duration": 0.125,
          "durationTicks": 192,
          "midi": 42,
          "name": "F#2",
          "ticks": 157847,
          "time": 102.76497395833333,
          "velocity": 0.6062992125984252
        },
        {
          "duration": 0.125,
          "durationTicks": 192,
          "midi": 44,
          "name": "G#2",
          "ticks": 158593,
          "time": 103.25065104166667,
          "velocity": 0.5433070866141733
        },
        {
          "duration": 0.125,
          "durationTicks": 192,
          "midi": 42,
          "name": "F#2",
          "ticks": 158593,
          "time": 103.25065104166667,
          "velocity": 0.6614173228346457
        },
        {
          "duration": 0.125,
          "durationTicks": 192,
          "midi": 38,
          "name": "D2",
          "ticks": 158975,
          "time": 103.49934895833333,
          "velocity": 0.3937007874015748
        },
        {
          "duration": 0.125,
          "durationTicks": 192,
          "midi": 44,
          "name": "G#2",
          "ticks": 159340,
          "time": 103.73697916666667,
          "velocity": 0.5826771653543307
        },
        {
          "duration": 0.125,
          "durationTicks": 192,
          "midi": 42,
          "name": "F#2",
          "ticks": 159340,
          "time": 103.73697916666667,
          "velocity": 0.7007874015748031
        },
        {
          "duration": 0.125,
          "durationTicks": 192,
          "midi": 44,
          "name": "G#2",
          "ticks": 160109,
          "time": 104.23763020833333,
          "velocity": 0.48031496062992124
        },
        {
          "duration": 0.125,
          "durationTicks": 192,
          "midi": 42,
          "name": "F#2",
          "ticks": 160109,
          "time": 104.23763020833333,
          "velocity": 0.5984251968503937
        },
        {
          "duration": 0.125,
          "durationTicks": 192,
          "midi": 38,
          "name": "D2",
          "ticks": 160511,
          "time": 104.49934895833333,
          "velocity": 0.3937007874015748
        },
        {
          "duration": 0.125,
          "durationTicks": 192,
          "midi": 42,
          "name": "F#2",
          "ticks": 160904,
          "time": 104.75520833333333,
          "velocity": 0.7244094488188977
        },
        {
          "duration": 0.125,
          "durationTicks": 192,
          "midi": 44,
          "name": "G#2",
          "ticks": 160904,
          "time": 104.75520833333333,
          "velocity": 0.6062992125984252
        },
        {
          "duration": 0.125,
          "durationTicks": 192,
          "midi": 44,
          "name": "G#2",
          "ticks": 161667,
          "time": 105.251953125,
          "velocity": 0.4645669291338583
        },
        {
          "duration": 0.125,
          "durationTicks": 192,
          "midi": 42,
          "name": "F#2",
          "ticks": 161667,
          "time": 105.251953125,
          "velocity": 0.5826771653543307
        },
        {
          "duration": 0.125,
          "durationTicks": 192,
          "midi": 38,
          "name": "D2",
          "ticks": 162047,
          "time": 105.49934895833333,
          "velocity": 0.3937007874015748
        },
        {
          "duration": 0.125,
          "durationTicks": 192,
          "midi": 42,
          "name": "F#2",
          "ticks": 162436,
          "time": 105.75260416666667,
          "velocity": 0.6614173228346457
        },
        {
          "duration": 0.125,
          "durationTicks": 192,
          "midi": 44,
          "name": "G#2",
          "ticks": 162436,
          "time": 105.75260416666667,
          "velocity": 0.5433070866141733
        },
        {
          "duration": 0.125,
          "durationTicks": 192,
          "midi": 42,
          "name": "F#2",
          "ticks": 163203,
          "time": 106.251953125,
          "velocity": 0.7007874015748031
        },
        {
          "duration": 0.125,
          "durationTicks": 192,
          "midi": 44,
          "name": "G#2",
          "ticks": 163203,
          "time": 106.251953125,
          "velocity": 0.5826771653543307
        },
        {
          "duration": 0.125,
          "durationTicks": 192,
          "midi": 38,
          "name": "D2",
          "ticks": 163583,
          "time": 106.49934895833333,
          "velocity": 0.3937007874015748
        },
        {
          "duration": 0.125,
          "durationTicks": 192,
          "midi": 42,
          "name": "F#2",
          "ticks": 163988,
          "time": 106.76302083333333,
          "velocity": 0.6062992125984252
        },
        {
          "duration": 0.125,
          "durationTicks": 192,
          "midi": 44,
          "name": "G#2",
          "ticks": 163988,
          "time": 106.76302083333333,
          "velocity": 0.4881889763779528
        },
        {
          "duration": 0.125,
          "durationTicks": 192,
          "midi": 42,
          "name": "F#2",
          "ticks": 164734,
          "time": 107.24869791666667,
          "velocity": 0.7244094488188977
        },
        {
          "duration": 0.125,
          "durationTicks": 192,
          "midi": 44,
          "name": "G#2",
          "ticks": 164734,
          "time": 107.24869791666667,
          "velocity": 0.6062992125984252
        },
        {
          "duration": 0.125,
          "durationTicks": 192,
          "midi": 38,
          "name": "D2",
          "ticks": 165119,
          "time": 107.49934895833333,
          "velocity": 0.3937007874015748
        },
        {
          "duration": 0.125,
          "durationTicks": 192,
          "midi": 42,
          "name": "F#2",
          "ticks": 165510,
          "time": 107.75390625,
          "velocity": 0.7559055118110236
        },
        {
          "duration": 0.125,
          "durationTicks": 192,
          "midi": 44,
          "name": "G#2",
          "ticks": 165510,
          "time": 107.75390625,
          "velocity": 0.6377952755905512
        },
        {
          "duration": 0.125,
          "durationTicks": 192,
          "midi": 42,
          "name": "F#2",
          "ticks": 166248,
          "time": 108.234375,
          "velocity": 0.7165354330708661
        },
        {
          "duration": 0.125,
          "durationTicks": 192,
          "midi": 44,
          "name": "G#2",
          "ticks": 166248,
          "time": 108.234375,
          "velocity": 0.5984251968503937
        },
        {
          "duration": 0.125,
          "durationTicks": 192,
          "midi": 38,
          "name": "D2",
          "ticks": 166654,
          "time": 108.49869791666667,
          "velocity": 0.3937007874015748
        },
        {
          "duration": 0.125,
          "durationTicks": 192,
          "midi": 44,
          "name": "G#2",
          "ticks": 167031,
          "time": 108.744140625,
          "velocity": 0.5748031496062992
        },
        {
          "duration": 0.125,
          "durationTicks": 192,
          "midi": 42,
          "name": "F#2",
          "ticks": 167031,
          "time": 108.744140625,
          "velocity": 0.6929133858267716
        },
        {
          "duration": 0.125,
          "durationTicks": 192,
          "midi": 42,
          "name": "F#2",
          "ticks": 167819,
          "time": 109.25716145833333,
          "velocity": 0.5275590551181102
        },
        {
          "duration": 0.125,
          "durationTicks": 192,
          "midi": 44,
          "name": "G#2",
          "ticks": 167819,
          "time": 109.25716145833333,
          "velocity": 0.4094488188976378
        },
        {
          "duration": 0.125,
          "durationTicks": 192,
          "midi": 38,
          "name": "D2",
          "ticks": 168190,
          "time": 109.49869791666667,
          "velocity": 0.3937007874015748
        },
        {
          "duration": 0.125,
          "durationTicks": 192,
          "midi": 42,
          "name": "F#2",
          "ticks": 168592,
          "time": 109.76041666666667,
          "velocity": 0.5669291338582677
        },
        {
          "duration": 0.125,
          "durationTicks": 192,
          "midi": 44,
          "name": "G#2",
          "ticks": 168592,
          "time": 109.76041666666667,
          "velocity": 0.44881889763779526
        },
        {
          "duration": 0.125,
          "durationTicks": 192,
          "midi": 44,
          "name": "G#2",
          "ticks": 169341,
          "time": 110.248046875,
          "velocity": 0.6850393700787402
        },
        {
          "duration": 0.125,
          "durationTicks": 192,
          "midi": 42,
          "name": "F#2",
          "ticks": 169341,
          "time": 110.248046875,
          "velocity": 0.8031496062992126
        },
        {
          "duration": 0.125,
          "durationTicks": 192,
          "midi": 38,
          "name": "D2",
          "ticks": 169726,
          "time": 110.49869791666667,
          "velocity": 0.3937007874015748
        },
        {
          "duration": 0.125,
          "durationTicks": 192,
          "midi": 42,
          "name": "F#2",
          "ticks": 170133,
          "time": 110.763671875,
          "velocity": 0.6377952755905512
        },
        {
          "duration": 0.125,
          "durationTicks": 192,
          "midi": 44,
          "name": "G#2",
          "ticks": 170133,
          "time": 110.763671875,
          "velocity": 0.5196850393700787
        },
        {
          "duration": 0.125,
          "durationTicks": 192,
          "midi": 42,
          "name": "F#2",
          "ticks": 170904,
          "time": 111.265625,
          "velocity": 0.7401574803149606
        },
        {
          "duration": 0.125,
          "durationTicks": 192,
          "midi": 44,
          "name": "G#2",
          "ticks": 170904,
          "time": 111.265625,
          "velocity": 0.6220472440944882
        },
        {
          "duration": 0.125,
          "durationTicks": 192,
          "midi": 38,
          "name": "D2",
          "ticks": 171262,
          "time": 111.49869791666667,
          "velocity": 0.3937007874015748
        },
        {
          "duration": 0.125,
          "durationTicks": 192,
          "midi": 44,
          "name": "G#2",
          "ticks": 171603,
          "time": 111.720703125,
          "velocity": 0.5748031496062992
        },
        {
          "duration": 0.125,
          "durationTicks": 192,
          "midi": 42,
          "name": "F#2",
          "ticks": 171603,
          "time": 111.720703125,
          "velocity": 0.6929133858267716
        },
        {
          "duration": 0.125,
          "durationTicks": 192,
          "midi": 42,
          "name": "F#2",
          "ticks": 172428,
          "time": 112.2578125,
          "velocity": 0.8031496062992126
        },
        {
          "duration": 0.125,
          "durationTicks": 192,
          "midi": 44,
          "name": "G#2",
          "ticks": 172428,
          "time": 112.2578125,
          "velocity": 0.6850393700787402
        },
        {
          "duration": 0.125,
          "durationTicks": 192,
          "midi": 38,
          "name": "D2",
          "ticks": 172798,
          "time": 112.49869791666667,
          "velocity": 0.3937007874015748
        },
        {
          "duration": 0.125,
          "durationTicks": 192,
          "midi": 42,
          "name": "F#2",
          "ticks": 173174,
          "time": 112.74348958333333,
          "velocity": 0.6535433070866141
        },
        {
          "duration": 0.125,
          "durationTicks": 192,
          "midi": 44,
          "name": "G#2",
          "ticks": 173174,
          "time": 112.74348958333333,
          "velocity": 0.5354330708661418
        },
        {
          "duration": 0.125,
          "durationTicks": 192,
          "midi": 42,
          "name": "F#2",
          "ticks": 173954,
          "time": 113.25130208333333,
          "velocity": 0.7086614173228346
        },
        {
          "duration": 0.125,
          "durationTicks": 192,
          "midi": 44,
          "name": "G#2",
          "ticks": 173954,
          "time": 113.25130208333333,
          "velocity": 0.5905511811023622
        },
        {
          "duration": 0.125,
          "durationTicks": 192,
          "midi": 38,
          "name": "D2",
          "ticks": 174334,
          "time": 113.49869791666667,
          "velocity": 0.3937007874015748
        },
        {
          "duration": 0.125,
          "durationTicks": 192,
          "midi": 42,
          "name": "F#2",
          "ticks": 174725,
          "time": 113.75325520833333,
          "velocity": 0.6377952755905512
        },
        {
          "duration": 0.125,
          "durationTicks": 192,
          "midi": 44,
          "name": "G#2",
          "ticks": 174725,
          "time": 113.75325520833333,
          "velocity": 0.5196850393700787
        },
        {
          "duration": 0.125,
          "durationTicks": 192,
          "midi": 42,
          "name": "F#2",
          "ticks": 175489,
          "time": 114.25065104166667,
          "velocity": 0.7007874015748031
        },
        {
          "duration": 0.125,
          "durationTicks": 192,
          "midi": 44,
          "name": "G#2",
          "ticks": 175489,
          "time": 114.25065104166667,
          "velocity": 0.5826771653543307
        },
        {
          "duration": 0.125,
          "durationTicks": 192,
          "midi": 38,
          "name": "D2",
          "ticks": 175869,
          "time": 114.498046875,
          "velocity": 0.3937007874015748
        },
        {
          "duration": 0.125,
          "durationTicks": 192,
          "midi": 42,
          "name": "F#2",
          "ticks": 176274,
          "time": 114.76171875,
          "velocity": 0.6062992125984252
        },
        {
          "duration": 0.125,
          "durationTicks": 192,
          "midi": 44,
          "name": "G#2",
          "ticks": 176274,
          "time": 114.76171875,
          "velocity": 0.4881889763779528
        },
        {
          "duration": 0.125,
          "durationTicks": 192,
          "midi": 44,
          "name": "G#2",
          "ticks": 177020,
          "time": 115.24739583333333,
          "velocity": 0.6062992125984252
        },
        {
          "duration": 0.125,
          "durationTicks": 192,
          "midi": 42,
          "name": "F#2",
          "ticks": 177020,
          "time": 115.24739583333333,
          "velocity": 0.7244094488188977
        },
        {
          "duration": 0.125,
          "durationTicks": 192,
          "midi": 38,
          "name": "D2",
          "ticks": 177405,
          "time": 115.498046875,
          "velocity": 0.3937007874015748
        },
        {
          "duration": 0.125,
          "durationTicks": 192,
          "midi": 44,
          "name": "G#2",
          "ticks": 177796,
          "time": 115.75260416666667,
          "velocity": 0.6377952755905512
        },
        {
          "duration": 0.125,
          "durationTicks": 192,
          "midi": 42,
          "name": "F#2",
          "ticks": 177796,
          "time": 115.75260416666667,
          "velocity": 0.7559055118110236
        },
        {
          "duration": 0.125,
          "durationTicks": 192,
          "midi": 44,
          "name": "G#2",
          "ticks": 178534,
          "time": 116.23307291666667,
          "velocity": 0.5984251968503937
        },
        {
          "duration": 0.125,
          "durationTicks": 192,
          "midi": 42,
          "name": "F#2",
          "ticks": 178534,
          "time": 116.23307291666667,
          "velocity": 0.7165354330708661
        },
        {
          "duration": 0.125,
          "durationTicks": 192,
          "midi": 38,
          "name": "D2",
          "ticks": 178940,
          "time": 116.49739583333333,
          "velocity": 0.3937007874015748
        },
        {
          "duration": 0.125,
          "durationTicks": 192,
          "midi": 44,
          "name": "G#2",
          "ticks": 179317,
          "time": 116.74283854166667,
          "velocity": 0.5748031496062992
        },
        {
          "duration": 0.125,
          "durationTicks": 192,
          "midi": 42,
          "name": "F#2",
          "ticks": 179317,
          "time": 116.74283854166667,
          "velocity": 0.6929133858267716
        },
        {
          "duration": 0.125,
          "durationTicks": 192,
          "midi": 42,
          "name": "F#2",
          "ticks": 180105,
          "time": 117.255859375,
          "velocity": 0.5275590551181102
        },
        {
          "duration": 0.125,
          "durationTicks": 192,
          "midi": 44,
          "name": "G#2",
          "ticks": 180105,
          "time": 117.255859375,
          "velocity": 0.4094488188976378
        },
        {
          "duration": 0.125,
          "durationTicks": 192,
          "midi": 38,
          "name": "D2",
          "ticks": 180476,
          "time": 117.49739583333333,
          "velocity": 0.3937007874015748
        },
        {
          "duration": 0.125,
          "durationTicks": 192,
          "midi": 44,
          "name": "G#2",
          "ticks": 180878,
          "time": 117.75911458333333,
          "velocity": 0.44881889763779526
        },
        {
          "duration": 0.125,
          "durationTicks": 192,
          "midi": 42,
          "name": "F#2",
          "ticks": 180878,
          "time": 117.75911458333333,
          "velocity": 0.5669291338582677
        },
        {
          "duration": 0.125,
          "durationTicks": 192,
          "midi": 42,
          "name": "F#2",
          "ticks": 181627,
          "time": 118.24674479166667,
          "velocity": 0.8031496062992126
        },
        {
          "duration": 0.125,
          "durationTicks": 192,
          "midi": 44,
          "name": "G#2",
          "ticks": 181627,
          "time": 118.24674479166667,
          "velocity": 0.6850393700787402
        },
        {
          "duration": 0.125,
          "durationTicks": 192,
          "midi": 38,
          "name": "D2",
          "ticks": 182012,
          "time": 118.49739583333333,
          "velocity": 0.3937007874015748
        },
        {
          "duration": 0.125,
          "durationTicks": 192,
          "midi": 44,
          "name": "G#2",
          "ticks": 182419,
          "time": 118.76236979166667,
          "velocity": 0.5196850393700787
        },
        {
          "duration": 0.125,
          "durationTicks": 192,
          "midi": 42,
          "name": "F#2",
          "ticks": 182419,
          "time": 118.76236979166667,
          "velocity": 0.6377952755905512
        },
        {
          "duration": 0.125,
          "durationTicks": 192,
          "midi": 44,
          "name": "G#2",
          "ticks": 183190,
          "time": 119.26432291666667,
          "velocity": 0.6220472440944882
        },
        {
          "duration": 0.125,
          "durationTicks": 192,
          "midi": 42,
          "name": "F#2",
          "ticks": 183190,
          "time": 119.26432291666667,
          "velocity": 0.7401574803149606
        },
        {
          "duration": 0.125,
          "durationTicks": 192,
          "midi": 38,
          "name": "D2",
          "ticks": 183548,
          "time": 119.49739583333333,
          "velocity": 0.3937007874015748
        },
        {
          "duration": 0.125,
          "durationTicks": 192,
          "midi": 44,
          "name": "G#2",
          "ticks": 183889,
          "time": 119.71940104166667,
          "velocity": 0.5748031496062992
        },
        {
          "duration": 0.125,
          "durationTicks": 192,
          "midi": 42,
          "name": "F#2",
          "ticks": 183889,
          "time": 119.71940104166667,
          "velocity": 0.6929133858267716
        },
        {
          "duration": 0.125,
          "durationTicks": 192,
          "midi": 44,
          "name": "G#2",
          "ticks": 184714,
          "time": 120.25651041666667,
          "velocity": 0.6850393700787402
        },
        {
          "duration": 0.125,
          "durationTicks": 192,
          "midi": 42,
          "name": "F#2",
          "ticks": 184714,
          "time": 120.25651041666667,
          "velocity": 0.8031496062992126
        },
        {
          "duration": 0.125,
          "durationTicks": 192,
          "midi": 38,
          "name": "D2",
          "ticks": 185084,
          "time": 120.49739583333333,
          "velocity": 0.3937007874015748
        },
        {
          "duration": 0.125,
          "durationTicks": 192,
          "midi": 42,
          "name": "F#2",
          "ticks": 185460,
          "time": 120.7421875,
          "velocity": 0.6535433070866141
        },
        {
          "duration": 0.125,
          "durationTicks": 192,
          "midi": 44,
          "name": "G#2",
          "ticks": 185460,
          "time": 120.7421875,
          "velocity": 0.5354330708661418
        },
        {
          "duration": 0.125,
          "durationTicks": 192,
          "midi": 44,
          "name": "G#2",
          "ticks": 186240,
          "time": 121.25,
          "velocity": 0.5905511811023622
        },
        {
          "duration": 0.125,
          "durationTicks": 192,
          "midi": 42,
          "name": "F#2",
          "ticks": 186240,
          "time": 121.25,
          "velocity": 0.7086614173228346
        },
        {
          "duration": 0.125,
          "durationTicks": 192,
          "midi": 38,
          "name": "D2",
          "ticks": 186620,
          "time": 121.49739583333333,
          "velocity": 0.3937007874015748
        },
        {
          "duration": 0.125,
          "durationTicks": 192,
          "midi": 44,
          "name": "G#2",
          "ticks": 187011,
          "time": 121.751953125,
          "velocity": 0.5196850393700787
        },
        {
          "duration": 0.125,
          "durationTicks": 192,
          "midi": 42,
          "name": "F#2",
          "ticks": 187011,
          "time": 121.751953125,
          "velocity": 0.6377952755905512
        },
        {
          "duration": 0.125,
          "durationTicks": 192,
          "midi": 42,
          "name": "F#2",
          "ticks": 187786,
          "time": 122.25651041666667,
          "velocity": 0.8031496062992126
        },
        {
          "duration": 0.125,
          "durationTicks": 192,
          "midi": 44,
          "name": "G#2",
          "ticks": 187786,
          "time": 122.25651041666667,
          "velocity": 0.6850393700787402
        },
        {
          "duration": 0.125,
          "durationTicks": 192,
          "midi": 44,
          "name": "G#2",
          "ticks": 188532,
          "time": 122.7421875,
          "velocity": 0.5354330708661418
        },
        {
          "duration": 0.125,
          "durationTicks": 192,
          "midi": 42,
          "name": "F#2",
          "ticks": 188532,
          "time": 122.7421875,
          "velocity": 0.6535433070866141
        },
        {
          "duration": 0.125,
          "durationTicks": 192,
          "midi": 44,
          "name": "G#2",
          "ticks": 189312,
          "time": 123.25,
          "velocity": 0.5905511811023622
        },
        {
          "duration": 0.125,
          "durationTicks": 192,
          "midi": 42,
          "name": "F#2",
          "ticks": 189312,
          "time": 123.25,
          "velocity": 0.7086614173228346
        },
        {
          "duration": 0.125,
          "durationTicks": 192,
          "midi": 38,
          "name": "D2",
          "ticks": 189692,
          "time": 123.49739583333333,
          "velocity": 0.3937007874015748
        },
        {
          "duration": 0.0833333333333286,
          "durationTicks": 128,
          "midi": 38,
          "name": "D2",
          "ticks": 189948,
          "time": 123.6640625,
          "velocity": 0.2677165354330709
        },
        {
          "duration": 0.125,
          "durationTicks": 192,
          "midi": 44,
          "name": "G#2",
          "ticks": 190083,
          "time": 123.751953125,
          "velocity": 0.5196850393700787
        },
        {
          "duration": 0.125,
          "durationTicks": 192,
          "midi": 42,
          "name": "F#2",
          "ticks": 190083,
          "time": 123.751953125,
          "velocity": 0.6377952755905512
        },
        {
          "duration": 0.125,
          "durationTicks": 192,
          "midi": 44,
          "name": "G#2",
          "ticks": 190790,
          "time": 124.21223958333333,
          "velocity": 0.5590551181102362
        },
        {
          "duration": 0.125,
          "durationTicks": 192,
          "midi": 42,
          "name": "F#2",
          "ticks": 190790,
          "time": 124.21223958333333,
          "velocity": 0.6771653543307087
        },
        {
          "duration": 0.125,
          "durationTicks": 192,
          "midi": 38,
          "name": "D2",
          "ticks": 191227,
          "time": 124.49674479166667,
          "velocity": 0.3937007874015748
        },
        {
          "duration": 0.125,
          "durationTicks": 192,
          "midi": 42,
          "name": "F#2",
          "ticks": 191588,
          "time": 124.73177083333333,
          "velocity": 0.7952755905511811
        },
        {
          "duration": 0.125,
          "durationTicks": 192,
          "midi": 44,
          "name": "G#2",
          "ticks": 191588,
          "time": 124.73177083333333,
          "velocity": 0.6771653543307087
        },
        {
          "duration": 0.125,
          "durationTicks": 192,
          "midi": 44,
          "name": "G#2",
          "ticks": 192358,
          "time": 125.23307291666667,
          "velocity": 0.4330708661417323
        },
        {
          "duration": 0.125,
          "durationTicks": 192,
          "midi": 42,
          "name": "F#2",
          "ticks": 192358,
          "time": 125.23307291666667,
          "velocity": 0.5511811023622047
        },
        {
          "duration": 0.125,
          "durationTicks": 192,
          "midi": 38,
          "name": "D2",
          "ticks": 192763,
          "time": 125.49674479166667,
          "velocity": 0.3937007874015748
        },
        {
          "duration": 0.125,
          "durationTicks": 192,
          "midi": 44,
          "name": "G#2",
          "ticks": 193141,
          "time": 125.74283854166667,
          "velocity": 0.5039370078740157
        },
        {
          "duration": 0.125,
          "durationTicks": 192,
          "midi": 42,
          "name": "F#2",
          "ticks": 193141,
          "time": 125.74283854166667,
          "velocity": 0.6220472440944882
        },
        {
          "duration": 0.125,
          "durationTicks": 192,
          "midi": 44,
          "name": "G#2",
          "ticks": 193909,
          "time": 126.24283854166667,
          "velocity": 0.6456692913385826
        },
        {
          "duration": 0.125,
          "durationTicks": 192,
          "midi": 42,
          "name": "F#2",
          "ticks": 193909,
          "time": 126.24283854166667,
          "velocity": 0.7637795275590551
        },
        {
          "duration": 0.125,
          "durationTicks": 192,
          "midi": 38,
          "name": "D2",
          "ticks": 194299,
          "time": 126.49674479166667,
          "velocity": 0.3937007874015748
        },
        {
          "duration": 0.125,
          "durationTicks": 192,
          "midi": 42,
          "name": "F#2",
          "ticks": 194714,
          "time": 126.76692708333333,
          "velocity": 0.7637795275590551
        },
        {
          "duration": 0.125,
          "durationTicks": 192,
          "midi": 44,
          "name": "G#2",
          "ticks": 194714,
          "time": 126.76692708333333,
          "velocity": 0.6456692913385826
        },
        {
          "duration": 0.125,
          "durationTicks": 192,
          "midi": 44,
          "name": "G#2",
          "ticks": 195448,
          "time": 127.24479166666667,
          "velocity": 0.5826771653543307
        },
        {
          "duration": 0.125,
          "durationTicks": 192,
          "midi": 42,
          "name": "F#2",
          "ticks": 195448,
          "time": 127.24479166666667,
          "velocity": 0.7007874015748031
        },
        {
          "duration": 0.125,
          "durationTicks": 192,
          "midi": 38,
          "name": "D2",
          "ticks": 195836,
          "time": 127.49739583333333,
          "velocity": 0.3937007874015748
        },
        {
          "duration": 0.125,
          "durationTicks": 192,
          "midi": 42,
          "name": "F#2",
          "ticks": 196243,
          "time": 127.76236979166667,
          "velocity": 0.6299212598425197
        },
        {
          "duration": 0.125,
          "durationTicks": 192,
          "midi": 44,
          "name": "G#2",
          "ticks": 196243,
          "time": 127.76236979166667,
          "velocity": 0.5118110236220472
        },
        {
          "duration": 0.125,
          "durationTicks": 192,
          "midi": 44,
          "name": "G#2",
          "ticks": 196993,
          "time": 128.25065104166666,
          "velocity": 0.5275590551181102
        },
        {
          "duration": 0.125,
          "durationTicks": 192,
          "midi": 42,
          "name": "F#2",
          "ticks": 196993,
          "time": 128.25065104166666,
          "velocity": 0.6456692913385826
        },
        {
          "duration": 0.125,
          "durationTicks": 192,
          "midi": 38,
          "name": "D2",
          "ticks": 197372,
          "time": 128.49739583333334,
          "velocity": 0.3937007874015748
        },
        {
          "duration": 0.125,
          "durationTicks": 192,
          "midi": 42,
          "name": "F#2",
          "ticks": 197780,
          "time": 128.76302083333334,
          "velocity": 0.6062992125984252
        },
        {
          "duration": 0.125,
          "durationTicks": 192,
          "midi": 44,
          "name": "G#2",
          "ticks": 197780,
          "time": 128.76302083333334,
          "velocity": 0.4881889763779528
        },
        {
          "duration": 0.125,
          "durationTicks": 192,
          "midi": 42,
          "name": "F#2",
          "ticks": 198526,
          "time": 129.24869791666666,
          "velocity": 0.6614173228346457
        },
        {
          "duration": 0.125,
          "durationTicks": 192,
          "midi": 44,
          "name": "G#2",
          "ticks": 198526,
          "time": 129.24869791666666,
          "velocity": 0.5433070866141733
        },
        {
          "duration": 0.125,
          "durationTicks": 192,
          "midi": 38,
          "name": "D2",
          "ticks": 198908,
          "time": 129.49739583333334,
          "velocity": 0.3937007874015748
        },
        {
          "duration": 0.125,
          "durationTicks": 192,
          "midi": 42,
          "name": "F#2",
          "ticks": 199273,
          "time": 129.73502604166666,
          "velocity": 0.7007874015748031
        },
        {
          "duration": 0.125,
          "durationTicks": 192,
          "midi": 44,
          "name": "G#2",
          "ticks": 199273,
          "time": 129.73502604166666,
          "velocity": 0.5826771653543307
        },
        {
          "duration": 0.125,
          "durationTicks": 192,
          "midi": 44,
          "name": "G#2",
          "ticks": 200042,
          "time": 130.23567708333334,
          "velocity": 0.48031496062992124
        },
        {
          "duration": 0.125,
          "durationTicks": 192,
          "midi": 42,
          "name": "F#2",
          "ticks": 200042,
          "time": 130.23567708333334,
          "velocity": 0.5984251968503937
        },
        {
          "duration": 0.125,
          "durationTicks": 192,
          "midi": 38,
          "name": "D2",
          "ticks": 200444,
          "time": 130.49739583333334,
          "velocity": 0.3937007874015748
        },
        {
          "duration": 0.125,
          "durationTicks": 192,
          "midi": 42,
          "name": "F#2",
          "ticks": 200837,
          "time": 130.75325520833334,
          "velocity": 0.7244094488188977
        },
        {
          "duration": 0.125,
          "durationTicks": 192,
          "midi": 44,
          "name": "G#2",
          "ticks": 200837,
          "time": 130.75325520833334,
          "velocity": 0.6062992125984252
        },
        {
          "duration": 0.125,
          "durationTicks": 192,
          "midi": 44,
          "name": "G#2",
          "ticks": 201600,
          "time": 131.25,
          "velocity": 0.4645669291338583
        },
        {
          "duration": 0.125,
          "durationTicks": 192,
          "midi": 42,
          "name": "F#2",
          "ticks": 201600,
          "time": 131.25,
          "velocity": 0.5826771653543307
        },
        {
          "duration": 0.125,
          "durationTicks": 192,
          "midi": 38,
          "name": "D2",
          "ticks": 201980,
          "time": 131.49739583333334,
          "velocity": 0.3937007874015748
        },
        {
          "duration": 0.125,
          "durationTicks": 192,
          "midi": 42,
          "name": "F#2",
          "ticks": 202369,
          "time": 131.75065104166666,
          "velocity": 0.6614173228346457
        },
        {
          "duration": 0.125,
          "durationTicks": 192,
          "midi": 44,
          "name": "G#2",
          "ticks": 202369,
          "time": 131.75065104166666,
          "velocity": 0.5433070866141733
        },
        {
          "duration": 0.125,
          "durationTicks": 192,
          "midi": 42,
          "name": "F#2",
          "ticks": 203136,
          "time": 132.25,
          "velocity": 0.7007874015748031
        },
        {
          "duration": 0.125,
          "durationTicks": 192,
          "midi": 44,
          "name": "G#2",
          "ticks": 203136,
          "time": 132.25,
          "velocity": 0.5826771653543307
        },
        {
          "duration": 0.125,
          "durationTicks": 192,
          "midi": 38,
          "name": "D2",
          "ticks": 203516,
          "time": 132.49739583333334,
          "velocity": 0.3937007874015748
        },
        {
          "duration": 0.125,
          "durationTicks": 192,
          "midi": 44,
          "name": "G#2",
          "ticks": 203921,
          "time": 132.76106770833334,
          "velocity": 0.4881889763779528
        },
        {
          "duration": 0.125,
          "durationTicks": 192,
          "midi": 42,
          "name": "F#2",
          "ticks": 203921,
          "time": 132.76106770833334,
          "velocity": 0.6062992125984252
        }
      ],
      "endOfTrackTicks": 204113
    },
    {
      "channel": 3,
      "controlChanges": {},
      "pitchBends": [],
      "instrument": {
        "family": "piano",
        "number": 0,
        "name": "acoustic grand piano"
      },
      "name": "Jazz Guitar",
      "notes": [
        {
          "duration": 0.0625,
          "durationTicks": 96,
          "midi": 74,
          "name": "D5",
          "ticks": 2688,
          "time": 1.75,
          "velocity": 0.3937007874015748
        },
        {
          "duration": 0.0625,
          "durationTicks": 96,
          "midi": 76,
          "name": "E5",
          "ticks": 2880,
          "time": 1.875,
          "velocity": 0.3937007874015748
        },
        {
          "duration": 0.0625,
          "durationTicks": 96,
          "midi": 79,
          "name": "G5",
          "ticks": 3072,
          "time": 2,
          "velocity": 0.3937007874015748
        },
        {
          "duration": 0.0625,
          "durationTicks": 96,
          "midi": 78,
          "name": "F#5",
          "ticks": 3648,
          "time": 2.375,
          "velocity": 0.3937007874015748
        },
        {
          "duration": 0.0625,
          "durationTicks": 96,
          "midi": 76,
          "name": "E5",
          "ticks": 4224,
          "time": 2.75,
          "velocity": 0.3937007874015748
        },
        {
          "duration": 0.0625,
          "durationTicks": 96,
          "midi": 74,
          "name": "D5",
          "ticks": 4608,
          "time": 3,
          "velocity": 0.3937007874015748
        },
        {
          "duration": 0.0625,
          "durationTicks": 96,
          "midi": 71,
          "name": "B4",
          "ticks": 5376,
          "time": 3.5,
          "velocity": 0.3937007874015748
        }
      ],
      "endOfTrackTicks": 5472
    },
    {
      "channel": 9,
      "controlChanges": {},
      "pitchBends": [],
      "instrument": {
        "family": "drums",
        "number": 0,
        "name": "standard kit"
      },
      "name": "808 Drum Kit",
      "notes": [
        {
          "duration": 0.125,
          "durationTicks": 192,
          "midi": 0,
          "name": "C-1",
          "ticks": 13056,
          "time": 8.5,
          "velocity": 0.3937007874015748
        },
        {
          "duration": 0.125,
          "durationTicks": 192,
          "midi": 0,
          "name": "C-1",
          "ticks": 13056,
          "time": 8.5,
          "velocity": 0.3937007874015748
        },
        {
          "duration": 0.125,
          "durationTicks": 192,
          "midi": 0,
          "name": "C-1",
          "ticks": 14592,
          "time": 9.5,
          "velocity": 0.3937007874015748
        },
        {
          "duration": 0.125,
          "durationTicks": 192,
          "midi": 0,
          "name": "C-1",
          "ticks": 14592,
          "time": 9.5,
          "velocity": 0.3937007874015748
        },
        {
          "duration": 0.125,
          "durationTicks": 192,
          "midi": 0,
          "name": "C-1",
          "ticks": 16128,
          "time": 10.5,
          "velocity": 0.3937007874015748
        },
        {
          "duration": 0.125,
          "durationTicks": 192,
          "midi": 0,
          "name": "C-1",
          "ticks": 16128,
          "time": 10.5,
          "velocity": 0.3937007874015748
        },
        {
          "duration": 0.125,
          "durationTicks": 192,
          "midi": 0,
          "name": "C-1",
          "ticks": 17664,
          "time": 11.5,
          "velocity": 0.3937007874015748
        },
        {
          "duration": 0.125,
          "durationTicks": 192,
          "midi": 0,
          "name": "C-1",
          "ticks": 17664,
          "time": 11.5,
          "velocity": 0.3937007874015748
        },
        {
          "duration": 0.125,
          "durationTicks": 192,
          "midi": 0,
          "name": "C-1",
          "ticks": 19200,
          "time": 12.5,
          "velocity": 0.3937007874015748
        },
        {
          "duration": 0.125,
          "durationTicks": 192,
          "midi": 0,
          "name": "C-1",
          "ticks": 19200,
          "time": 12.5,
          "velocity": 0.3937007874015748
        },
        {
          "duration": 0.125,
          "durationTicks": 192,
          "midi": 0,
          "name": "C-1",
          "ticks": 20736,
          "time": 13.5,
          "velocity": 0.3937007874015748
        },
        {
          "duration": 0.125,
          "durationTicks": 192,
          "midi": 0,
          "name": "C-1",
          "ticks": 20736,
          "time": 13.5,
          "velocity": 0.3937007874015748
        },
        {
          "duration": 0.125,
          "durationTicks": 192,
          "midi": 0,
          "name": "C-1",
          "ticks": 22272,
          "time": 14.5,
          "velocity": 0.3937007874015748
        },
        {
          "duration": 0.125,
          "durationTicks": 192,
          "midi": 0,
          "name": "C-1",
          "ticks": 22272,
          "time": 14.5,
          "velocity": 0.3937007874015748
        },
        {
          "duration": 0.125,
          "durationTicks": 192,
          "midi": 0,
          "name": "C-1",
          "ticks": 23808,
          "time": 15.5,
          "velocity": 0.3937007874015748
        },
        {
          "duration": 0.125,
          "durationTicks": 192,
          "midi": 0,
          "name": "C-1",
          "ticks": 23808,
          "time": 15.5,
          "velocity": 0.3937007874015748
        },
        {
          "duration": 0.125,
          "durationTicks": 192,
          "midi": 0,
          "name": "C-1",
          "ticks": 25344,
          "time": 16.5,
          "velocity": 0.3937007874015748
        },
        {
          "duration": 0.125,
          "durationTicks": 192,
          "midi": 0,
          "name": "C-1",
          "ticks": 25344,
          "time": 16.5,
          "velocity": 0.3937007874015748
        },
        {
          "duration": 0.125,
          "durationTicks": 192,
          "midi": 0,
          "name": "C-1",
          "ticks": 26880,
          "time": 17.5,
          "velocity": 0.3937007874015748
        },
        {
          "duration": 0.125,
          "durationTicks": 192,
          "midi": 0,
          "name": "C-1",
          "ticks": 26880,
          "time": 17.5,
          "velocity": 0.3937007874015748
        },
        {
          "duration": 0.125,
          "durationTicks": 192,
          "midi": 0,
          "name": "C-1",
          "ticks": 28416,
          "time": 18.5,
          "velocity": 0.3937007874015748
        },
        {
          "duration": 0.125,
          "durationTicks": 192,
          "midi": 0,
          "name": "C-1",
          "ticks": 28416,
          "time": 18.5,
          "velocity": 0.3937007874015748
        },
        {
          "duration": 0.125,
          "durationTicks": 192,
          "midi": 0,
          "name": "C-1",
          "ticks": 29952,
          "time": 19.5,
          "velocity": 0.3937007874015748
        },
        {
          "duration": 0.125,
          "durationTicks": 192,
          "midi": 0,
          "name": "C-1",
          "ticks": 29952,
          "time": 19.5,
          "velocity": 0.3937007874015748
        },
        {
          "duration": 0.125,
          "durationTicks": 192,
          "midi": 0,
          "name": "C-1",
          "ticks": 31488,
          "time": 20.5,
          "velocity": 0.3937007874015748
        },
        {
          "duration": 0.125,
          "durationTicks": 192,
          "midi": 0,
          "name": "C-1",
          "ticks": 31488,
          "time": 20.5,
          "velocity": 0.3937007874015748
        },
        {
          "duration": 0.125,
          "durationTicks": 192,
          "midi": 0,
          "name": "C-1",
          "ticks": 33024,
          "time": 21.5,
          "velocity": 0.3937007874015748
        },
        {
          "duration": 0.125,
          "durationTicks": 192,
          "midi": 0,
          "name": "C-1",
          "ticks": 33024,
          "time": 21.5,
          "velocity": 0.3937007874015748
        },
        {
          "duration": 0.125,
          "durationTicks": 192,
          "midi": 0,
          "name": "C-1",
          "ticks": 34560,
          "time": 22.5,
          "velocity": 0.3937007874015748
        },
        {
          "duration": 0.125,
          "durationTicks": 192,
          "midi": 0,
          "name": "C-1",
          "ticks": 34560,
          "time": 22.5,
          "velocity": 0.3937007874015748
        },
        {
          "duration": 0.08333333333333215,
          "durationTicks": 128,
          "midi": 0,
          "name": "C-1",
          "ticks": 35968,
          "time": 23.416666666666668,
          "velocity": 0.15748031496062992
        },
        {
          "duration": 0.08333333333333215,
          "durationTicks": 128,
          "midi": 0,
          "name": "C-1",
          "ticks": 35968,
          "time": 23.416666666666668,
          "velocity": 0.15748031496062992
        },
        {
          "duration": 0.125,
          "durationTicks": 192,
          "midi": 0,
          "name": "C-1",
          "ticks": 36096,
          "time": 23.5,
          "velocity": 0.3937007874015748
        },
        {
          "duration": 0.125,
          "durationTicks": 192,
          "midi": 0,
          "name": "C-1",
          "ticks": 36096,
          "time": 23.5,
          "velocity": 0.3937007874015748
        },
        {
          "duration": 0.08333333333333215,
          "durationTicks": 128,
          "midi": 0,
          "name": "C-1",
          "ticks": 36352,
          "time": 23.666666666666668,
          "velocity": 0.31496062992125984
        },
        {
          "duration": 0.125,
          "durationTicks": 192,
          "midi": 0,
          "name": "C-1",
          "ticks": 37632,
          "time": 24.5,
          "velocity": 0.3937007874015748
        },
        {
          "duration": 0.125,
          "durationTicks": 192,
          "midi": 0,
          "name": "C-1",
          "ticks": 37632,
          "time": 24.5,
          "velocity": 0.3937007874015748
        },
        {
          "duration": 0.125,
          "durationTicks": 192,
          "midi": 0,
          "name": "C-1",
          "ticks": 39168,
          "time": 25.5,
          "velocity": 0.3937007874015748
        },
        {
          "duration": 0.125,
          "durationTicks": 192,
          "midi": 0,
          "name": "C-1",
          "ticks": 39168,
          "time": 25.5,
          "velocity": 0.3937007874015748
        },
        {
          "duration": 0.125,
          "durationTicks": 192,
          "midi": 0,
          "name": "C-1",
          "ticks": 40704,
          "time": 26.5,
          "velocity": 0.3937007874015748
        },
        {
          "duration": 0.125,
          "durationTicks": 192,
          "midi": 0,
          "name": "C-1",
          "ticks": 40704,
          "time": 26.5,
          "velocity": 0.3937007874015748
        },
        {
          "duration": 0.125,
          "durationTicks": 192,
          "midi": 0,
          "name": "C-1",
          "ticks": 42240,
          "time": 27.5,
          "velocity": 0.3937007874015748
        },
        {
          "duration": 0.125,
          "durationTicks": 192,
          "midi": 0,
          "name": "C-1",
          "ticks": 42240,
          "time": 27.5,
          "velocity": 0.3937007874015748
        },
        {
          "duration": 0.125,
          "durationTicks": 192,
          "midi": 0,
          "name": "C-1",
          "ticks": 43776,
          "time": 28.5,
          "velocity": 0.3937007874015748
        },
        {
          "duration": 0.125,
          "durationTicks": 192,
          "midi": 0,
          "name": "C-1",
          "ticks": 43776,
          "time": 28.5,
          "velocity": 0.3937007874015748
        },
        {
          "duration": 0.125,
          "durationTicks": 192,
          "midi": 0,
          "name": "C-1",
          "ticks": 45312,
          "time": 29.5,
          "velocity": 0.3937007874015748
        },
        {
          "duration": 0.125,
          "durationTicks": 192,
          "midi": 0,
          "name": "C-1",
          "ticks": 45312,
          "time": 29.5,
          "velocity": 0.3937007874015748
        },
        {
          "duration": 0.125,
          "durationTicks": 192,
          "midi": 0,
          "name": "C-1",
          "ticks": 46848,
          "time": 30.5,
          "velocity": 0.3937007874015748
        },
        {
          "duration": 0.125,
          "durationTicks": 192,
          "midi": 0,
          "name": "C-1",
          "ticks": 46848,
          "time": 30.5,
          "velocity": 0.3937007874015748
        },
        {
          "duration": 0.125,
          "durationTicks": 192,
          "midi": 0,
          "name": "C-1",
          "ticks": 48384,
          "time": 31.5,
          "velocity": 0.3937007874015748
        },
        {
          "duration": 0.125,
          "durationTicks": 192,
          "midi": 0,
          "name": "C-1",
          "ticks": 48384,
          "time": 31.5,
          "velocity": 0.3937007874015748
        },
        {
          "duration": 0.125,
          "durationTicks": 192,
          "midi": 0,
          "name": "C-1",
          "ticks": 49920,
          "time": 32.5,
          "velocity": 0.3937007874015748
        },
        {
          "duration": 0.125,
          "durationTicks": 192,
          "midi": 0,
          "name": "C-1",
          "ticks": 49920,
          "time": 32.5,
          "velocity": 0.3937007874015748
        },
        {
          "duration": 0.125,
          "durationTicks": 192,
          "midi": 0,
          "name": "C-1",
          "ticks": 51456,
          "time": 33.5,
          "velocity": 0.3937007874015748
        },
        {
          "duration": 0.125,
          "durationTicks": 192,
          "midi": 0,
          "name": "C-1",
          "ticks": 51456,
          "time": 33.5,
          "velocity": 0.3937007874015748
        },
        {
          "duration": 0.125,
          "durationTicks": 192,
          "midi": 0,
          "name": "C-1",
          "ticks": 52992,
          "time": 34.5,
          "velocity": 0.3937007874015748
        },
        {
          "duration": 0.125,
          "durationTicks": 192,
          "midi": 0,
          "name": "C-1",
          "ticks": 52992,
          "time": 34.5,
          "velocity": 0.3937007874015748
        },
        {
          "duration": 0.125,
          "durationTicks": 192,
          "midi": 0,
          "name": "C-1",
          "ticks": 54528,
          "time": 35.5,
          "velocity": 0.3937007874015748
        },
        {
          "duration": 0.125,
          "durationTicks": 192,
          "midi": 0,
          "name": "C-1",
          "ticks": 54528,
          "time": 35.5,
          "velocity": 0.3937007874015748
        },
        {
          "duration": 0.125,
          "durationTicks": 192,
          "midi": 0,
          "name": "C-1",
          "ticks": 56064,
          "time": 36.5,
          "velocity": 0.3937007874015748
        },
        {
          "duration": 0.125,
          "durationTicks": 192,
          "midi": 0,
          "name": "C-1",
          "ticks": 56064,
          "time": 36.5,
          "velocity": 0.3937007874015748
        },
        {
          "duration": 0.125,
          "durationTicks": 192,
          "midi": 0,
          "name": "C-1",
          "ticks": 57600,
          "time": 37.5,
          "velocity": 0.3937007874015748
        },
        {
          "duration": 0.125,
          "durationTicks": 192,
          "midi": 0,
          "name": "C-1",
          "ticks": 57600,
          "time": 37.5,
          "velocity": 0.3937007874015748
        },
        {
          "duration": 0.125,
          "durationTicks": 192,
          "midi": 0,
          "name": "C-1",
          "ticks": 59136,
          "time": 38.5,
          "velocity": 0.3937007874015748
        },
        {
          "duration": 0.125,
          "durationTicks": 192,
          "midi": 0,
          "name": "C-1",
          "ticks": 59136,
          "time": 38.5,
          "velocity": 0.3937007874015748
        },
        {
          "duration": 0.125,
          "durationTicks": 192,
          "midi": 0,
          "name": "C-1",
          "ticks": 60672,
          "time": 39.5,
          "velocity": 0.3937007874015748
        },
        {
          "duration": 0.125,
          "durationTicks": 192,
          "midi": 0,
          "name": "C-1",
          "ticks": 60672,
          "time": 39.5,
          "velocity": 0.3937007874015748
        },
        {
          "duration": 0.125,
          "durationTicks": 192,
          "midi": 0,
          "name": "C-1",
          "ticks": 62208,
          "time": 40.5,
          "velocity": 0.3937007874015748
        },
        {
          "duration": 0.125,
          "durationTicks": 192,
          "midi": 0,
          "name": "C-1",
          "ticks": 62208,
          "time": 40.5,
          "velocity": 0.3937007874015748
        },
        {
          "duration": 0.125,
          "durationTicks": 192,
          "midi": 0,
          "name": "C-1",
          "ticks": 63744,
          "time": 41.5,
          "velocity": 0.3937007874015748
        },
        {
          "duration": 0.125,
          "durationTicks": 192,
          "midi": 0,
          "name": "C-1",
          "ticks": 63744,
          "time": 41.5,
          "velocity": 0.3937007874015748
        },
        {
          "duration": 0.125,
          "durationTicks": 192,
          "midi": 0,
          "name": "C-1",
          "ticks": 65280,
          "time": 42.5,
          "velocity": 0.3937007874015748
        },
        {
          "duration": 0.125,
          "durationTicks": 192,
          "midi": 0,
          "name": "C-1",
          "ticks": 65280,
          "time": 42.5,
          "velocity": 0.3937007874015748
        },
        {
          "duration": 0.125,
          "durationTicks": 192,
          "midi": 0,
          "name": "C-1",
          "ticks": 66816,
          "time": 43.5,
          "velocity": 0.3937007874015748
        },
        {
          "duration": 0.125,
          "durationTicks": 192,
          "midi": 0,
          "name": "C-1",
          "ticks": 66816,
          "time": 43.5,
          "velocity": 0.3937007874015748
        },
        {
          "duration": 0.125,
          "durationTicks": 192,
          "midi": 0,
          "name": "C-1",
          "ticks": 68352,
          "time": 44.5,
          "velocity": 0.3937007874015748
        },
        {
          "duration": 0.125,
          "durationTicks": 192,
          "midi": 0,
          "name": "C-1",
          "ticks": 68352,
          "time": 44.5,
          "velocity": 0.3937007874015748
        },
        {
          "duration": 0.125,
          "durationTicks": 192,
          "midi": 0,
          "name": "C-1",
          "ticks": 69888,
          "time": 45.5,
          "velocity": 0.3937007874015748
        },
        {
          "duration": 0.125,
          "durationTicks": 192,
          "midi": 0,
          "name": "C-1",
          "ticks": 69888,
          "time": 45.5,
          "velocity": 0.3937007874015748
        },
        {
          "duration": 0.125,
          "durationTicks": 192,
          "midi": 0,
          "name": "C-1",
          "ticks": 71424,
          "time": 46.5,
          "velocity": 0.3937007874015748
        },
        {
          "duration": 0.125,
          "durationTicks": 192,
          "midi": 0,
          "name": "C-1",
          "ticks": 71424,
          "time": 46.5,
          "velocity": 0.3937007874015748
        },
        {
          "duration": 0.125,
          "durationTicks": 192,
          "midi": 0,
          "name": "C-1",
          "ticks": 72960,
          "time": 47.5,
          "velocity": 0.3937007874015748
        },
        {
          "duration": 0.125,
          "durationTicks": 192,
          "midi": 0,
          "name": "C-1",
          "ticks": 72960,
          "time": 47.5,
          "velocity": 0.3937007874015748
        },
        {
          "duration": 0.125,
          "durationTicks": 192,
          "midi": 0,
          "name": "C-1",
          "ticks": 74496,
          "time": 48.5,
          "velocity": 0.3937007874015748
        },
        {
          "duration": 0.125,
          "durationTicks": 192,
          "midi": 0,
          "name": "C-1",
          "ticks": 74496,
          "time": 48.5,
          "velocity": 0.3937007874015748
        },
        {
          "duration": 0.125,
          "durationTicks": 192,
          "midi": 0,
          "name": "C-1",
          "ticks": 76032,
          "time": 49.5,
          "velocity": 0.3937007874015748
        },
        {
          "duration": 0.125,
          "durationTicks": 192,
          "midi": 0,
          "name": "C-1",
          "ticks": 76032,
          "time": 49.5,
          "velocity": 0.3937007874015748
        },
        {
          "duration": 0.125,
          "durationTicks": 192,
          "midi": 0,
          "name": "C-1",
          "ticks": 77568,
          "time": 50.5,
          "velocity": 0.3937007874015748
        },
        {
          "duration": 0.125,
          "durationTicks": 192,
          "midi": 0,
          "name": "C-1",
          "ticks": 77568,
          "time": 50.5,
          "velocity": 0.3937007874015748
        },
        {
          "duration": 0.125,
          "durationTicks": 192,
          "midi": 0,
          "name": "C-1",
          "ticks": 79104,
          "time": 51.5,
          "velocity": 0.3937007874015748
        },
        {
          "duration": 0.125,
          "durationTicks": 192,
          "midi": 0,
          "name": "C-1",
          "ticks": 79104,
          "time": 51.5,
          "velocity": 0.3937007874015748
        },
        {
          "duration": 0.125,
          "durationTicks": 192,
          "midi": 0,
          "name": "C-1",
          "ticks": 80640,
          "time": 52.5,
          "velocity": 0.3937007874015748
        },
        {
          "duration": 0.125,
          "durationTicks": 192,
          "midi": 0,
          "name": "C-1",
          "ticks": 80640,
          "time": 52.5,
          "velocity": 0.3937007874015748
        },
        {
          "duration": 0.125,
          "durationTicks": 192,
          "midi": 0,
          "name": "C-1",
          "ticks": 82176,
          "time": 53.5,
          "velocity": 0.3937007874015748
        },
        {
          "duration": 0.125,
          "durationTicks": 192,
          "midi": 0,
          "name": "C-1",
          "ticks": 82176,
          "time": 53.5,
          "velocity": 0.3937007874015748
        },
        {
          "duration": 0.125,
          "durationTicks": 192,
          "midi": 0,
          "name": "C-1",
          "ticks": 83712,
          "time": 54.5,
          "velocity": 0.3937007874015748
        },
        {
          "duration": 0.125,
          "durationTicks": 192,
          "midi": 0,
          "name": "C-1",
          "ticks": 83712,
          "time": 54.5,
          "velocity": 0.3937007874015748
        },
        {
          "duration": 0.125,
          "durationTicks": 192,
          "midi": 0,
          "name": "C-1",
          "ticks": 85248,
          "time": 55.5,
          "velocity": 0.3937007874015748
        },
        {
          "duration": 0.125,
          "durationTicks": 192,
          "midi": 0,
          "name": "C-1",
          "ticks": 85248,
          "time": 55.5,
          "velocity": 0.3937007874015748
        },
        {
          "duration": 0.125,
          "durationTicks": 192,
          "midi": 0,
          "name": "C-1",
          "ticks": 86784,
          "time": 56.5,
          "velocity": 0.3937007874015748
        },
        {
          "duration": 0.125,
          "durationTicks": 192,
          "midi": 0,
          "name": "C-1",
          "ticks": 86784,
          "time": 56.5,
          "velocity": 0.3937007874015748
        },
        {
          "duration": 0.125,
          "durationTicks": 192,
          "midi": 0,
          "name": "C-1",
          "ticks": 88320,
          "time": 57.5,
          "velocity": 0.3937007874015748
        },
        {
          "duration": 0.125,
          "durationTicks": 192,
          "midi": 0,
          "name": "C-1",
          "ticks": 88320,
          "time": 57.5,
          "velocity": 0.3937007874015748
        },
        {
          "duration": 0.125,
          "durationTicks": 192,
          "midi": 0,
          "name": "C-1",
          "ticks": 89856,
          "time": 58.5,
          "velocity": 0.3937007874015748
        },
        {
          "duration": 0.125,
          "durationTicks": 192,
          "midi": 0,
          "name": "C-1",
          "ticks": 89856,
          "time": 58.5,
          "velocity": 0.3937007874015748
        },
        {
          "duration": 0.125,
          "durationTicks": 192,
          "midi": 0,
          "name": "C-1",
          "ticks": 91392,
          "time": 59.5,
          "velocity": 0.3937007874015748
        },
        {
          "duration": 0.125,
          "durationTicks": 192,
          "midi": 0,
          "name": "C-1",
          "ticks": 91392,
          "time": 59.5,
          "velocity": 0.3937007874015748
        },
        {
          "duration": 0.125,
          "durationTicks": 192,
          "midi": 0,
          "name": "C-1",
          "ticks": 92928,
          "time": 60.5,
          "velocity": 0.3937007874015748
        },
        {
          "duration": 0.125,
          "durationTicks": 192,
          "midi": 0,
          "name": "C-1",
          "ticks": 92928,
          "time": 60.5,
          "velocity": 0.3937007874015748
        },
        {
          "duration": 0.125,
          "durationTicks": 192,
          "midi": 0,
          "name": "C-1",
          "ticks": 94464,
          "time": 61.5,
          "velocity": 0.3937007874015748
        },
        {
          "duration": 0.125,
          "durationTicks": 192,
          "midi": 0,
          "name": "C-1",
          "ticks": 94464,
          "time": 61.5,
          "velocity": 0.3937007874015748
        },
        {
          "duration": 0.125,
          "durationTicks": 192,
          "midi": 0,
          "name": "C-1",
          "ticks": 96000,
          "time": 62.5,
          "velocity": 0.3937007874015748
        },
        {
          "duration": 0.125,
          "durationTicks": 192,
          "midi": 0,
          "name": "C-1",
          "ticks": 96000,
          "time": 62.5,
          "velocity": 0.3937007874015748
        },
        {
          "duration": 0.125,
          "durationTicks": 192,
          "midi": 0,
          "name": "C-1",
          "ticks": 97536,
          "time": 63.5,
          "velocity": 0.3937007874015748
        },
        {
          "duration": 0.125,
          "durationTicks": 192,
          "midi": 0,
          "name": "C-1",
          "ticks": 97536,
          "time": 63.5,
          "velocity": 0.3937007874015748
        },
        {
          "duration": 0.125,
          "durationTicks": 192,
          "midi": 0,
          "name": "C-1",
          "ticks": 100608,
          "time": 65.5,
          "velocity": 0.3937007874015748
        },
        {
          "duration": 0.125,
          "durationTicks": 192,
          "midi": 0,
          "name": "C-1",
          "ticks": 100608,
          "time": 65.5,
          "velocity": 0.3937007874015748
        },
        {
          "duration": 0.0833333333333286,
          "durationTicks": 128,
          "midi": 0,
          "name": "C-1",
          "ticks": 100864,
          "time": 65.66666666666667,
          "velocity": 0.2677165354330709
        },
        {
          "duration": 0.0833333333333286,
          "durationTicks": 128,
          "midi": 0,
          "name": "C-1",
          "ticks": 100864,
          "time": 65.66666666666667,
          "velocity": 0.2677165354330709
        },
        {
          "duration": 0.125,
          "durationTicks": 192,
          "midi": 0,
          "name": "C-1",
          "ticks": 102144,
          "time": 66.5,
          "velocity": 0.3937007874015748
        },
        {
          "duration": 0.125,
          "durationTicks": 192,
          "midi": 0,
          "name": "C-1",
          "ticks": 102144,
          "time": 66.5,
          "velocity": 0.3937007874015748
        },
        {
          "duration": 0.125,
          "durationTicks": 192,
          "midi": 0,
          "name": "C-1",
          "ticks": 103680,
          "time": 67.5,
          "velocity": 0.3937007874015748
        },
        {
          "duration": 0.125,
          "durationTicks": 192,
          "midi": 0,
          "name": "C-1",
          "ticks": 103680,
          "time": 67.5,
          "velocity": 0.3937007874015748
        },
        {
          "duration": 0.125,
          "durationTicks": 192,
          "midi": 0,
          "name": "C-1",
          "ticks": 105216,
          "time": 68.5,
          "velocity": 0.3937007874015748
        },
        {
          "duration": 0.125,
          "durationTicks": 192,
          "midi": 0,
          "name": "C-1",
          "ticks": 105216,
          "time": 68.5,
          "velocity": 0.3937007874015748
        },
        {
          "duration": 0.125,
          "durationTicks": 192,
          "midi": 0,
          "name": "C-1",
          "ticks": 106752,
          "time": 69.5,
          "velocity": 0.3937007874015748
        },
        {
          "duration": 0.125,
          "durationTicks": 192,
          "midi": 0,
          "name": "C-1",
          "ticks": 106752,
          "time": 69.5,
          "velocity": 0.3937007874015748
        },
        {
          "duration": 0.125,
          "durationTicks": 192,
          "midi": 0,
          "name": "C-1",
          "ticks": 108288,
          "time": 70.5,
          "velocity": 0.3937007874015748
        },
        {
          "duration": 0.125,
          "durationTicks": 192,
          "midi": 0,
          "name": "C-1",
          "ticks": 108288,
          "time": 70.5,
          "velocity": 0.3937007874015748
        },
        {
          "duration": 0.125,
          "durationTicks": 192,
          "midi": 0,
          "name": "C-1",
          "ticks": 109824,
          "time": 71.5,
          "velocity": 0.3937007874015748
        },
        {
          "duration": 0.125,
          "durationTicks": 192,
          "midi": 0,
          "name": "C-1",
          "ticks": 109824,
          "time": 71.5,
          "velocity": 0.3937007874015748
        },
        {
          "duration": 0.125,
          "durationTicks": 192,
          "midi": 0,
          "name": "C-1",
          "ticks": 111360,
          "time": 72.5,
          "velocity": 0.3937007874015748
        },
        {
          "duration": 0.125,
          "durationTicks": 192,
          "midi": 0,
          "name": "C-1",
          "ticks": 111360,
          "time": 72.5,
          "velocity": 0.3937007874015748
        },
        {
          "duration": 0.125,
          "durationTicks": 192,
          "midi": 0,
          "name": "C-1",
          "ticks": 112896,
          "time": 73.5,
          "velocity": 0.3937007874015748
        },
        {
          "duration": 0.125,
          "durationTicks": 192,
          "midi": 0,
          "name": "C-1",
          "ticks": 112896,
          "time": 73.5,
          "velocity": 0.3937007874015748
        },
        {
          "duration": 0.125,
          "durationTicks": 192,
          "midi": 0,
          "name": "C-1",
          "ticks": 114432,
          "time": 74.5,
          "velocity": 0.3937007874015748
        },
        {
          "duration": 0.125,
          "durationTicks": 192,
          "midi": 0,
          "name": "C-1",
          "ticks": 114432,
          "time": 74.5,
          "velocity": 0.3937007874015748
        },
        {
          "duration": 0.125,
          "durationTicks": 192,
          "midi": 0,
          "name": "C-1",
          "ticks": 115968,
          "time": 75.5,
          "velocity": 0.3937007874015748
        },
        {
          "duration": 0.125,
          "durationTicks": 192,
          "midi": 0,
          "name": "C-1",
          "ticks": 115968,
          "time": 75.5,
          "velocity": 0.3937007874015748
        },
        {
          "duration": 0.125,
          "durationTicks": 192,
          "midi": 0,
          "name": "C-1",
          "ticks": 117504,
          "time": 76.5,
          "velocity": 0.3937007874015748
        },
        {
          "duration": 0.125,
          "durationTicks": 192,
          "midi": 0,
          "name": "C-1",
          "ticks": 117504,
          "time": 76.5,
          "velocity": 0.3937007874015748
        },
        {
          "duration": 0.125,
          "durationTicks": 192,
          "midi": 0,
          "name": "C-1",
          "ticks": 119040,
          "time": 77.5,
          "velocity": 0.3937007874015748
        },
        {
          "duration": 0.125,
          "durationTicks": 192,
          "midi": 0,
          "name": "C-1",
          "ticks": 119040,
          "time": 77.5,
          "velocity": 0.3937007874015748
        },
        {
          "duration": 0.125,
          "durationTicks": 192,
          "midi": 0,
          "name": "C-1",
          "ticks": 120576,
          "time": 78.5,
          "velocity": 0.3937007874015748
        },
        {
          "duration": 0.125,
          "durationTicks": 192,
          "midi": 0,
          "name": "C-1",
          "ticks": 120576,
          "time": 78.5,
          "velocity": 0.3937007874015748
        },
        {
          "duration": 0.125,
          "durationTicks": 192,
          "midi": 0,
          "name": "C-1",
          "ticks": 122112,
          "time": 79.5,
          "velocity": 0.3937007874015748
        },
        {
          "duration": 0.125,
          "durationTicks": 192,
          "midi": 0,
          "name": "C-1",
          "ticks": 122112,
          "time": 79.5,
          "velocity": 0.3937007874015748
        },
        {
          "duration": 0.125,
          "durationTicks": 192,
          "midi": 0,
          "name": "C-1",
          "ticks": 123648,
          "time": 80.5,
          "velocity": 0.3937007874015748
        },
        {
          "duration": 0.125,
          "durationTicks": 192,
          "midi": 0,
          "name": "C-1",
          "ticks": 123648,
          "time": 80.5,
          "velocity": 0.3937007874015748
        },
        {
          "duration": 0.0833333333333286,
          "durationTicks": 128,
          "midi": 0,
          "name": "C-1",
          "ticks": 125056,
          "time": 81.41666666666667,
          "velocity": 0.15748031496062992
        },
        {
          "duration": 0.0833333333333286,
          "durationTicks": 128,
          "midi": 0,
          "name": "C-1",
          "ticks": 125056,
          "time": 81.41666666666667,
          "velocity": 0.15748031496062992
        },
        {
          "duration": 0.125,
          "durationTicks": 192,
          "midi": 0,
          "name": "C-1",
          "ticks": 125184,
          "time": 81.5,
          "velocity": 0.3937007874015748
        },
        {
          "duration": 0.125,
          "durationTicks": 192,
          "midi": 0,
          "name": "C-1",
          "ticks": 125184,
          "time": 81.5,
          "velocity": 0.3937007874015748
        },
        {
          "duration": 0.0833333333333286,
          "durationTicks": 128,
          "midi": 0,
          "name": "C-1",
          "ticks": 125440,
          "time": 81.66666666666667,
          "velocity": 0.31496062992125984
        },
        {
          "duration": 0.125,
          "durationTicks": 192,
          "midi": 0,
          "name": "C-1",
          "ticks": 126720,
          "time": 82.5,
          "velocity": 0.3937007874015748
        },
        {
          "duration": 0.125,
          "durationTicks": 192,
          "midi": 0,
          "name": "C-1",
          "ticks": 126720,
          "time": 82.5,
          "velocity": 0.3937007874015748
        },
        {
          "duration": 0.125,
          "durationTicks": 192,
          "midi": 0,
          "name": "C-1",
          "ticks": 128256,
          "time": 83.5,
          "velocity": 0.3937007874015748
        },
        {
          "duration": 0.125,
          "durationTicks": 192,
          "midi": 0,
          "name": "C-1",
          "ticks": 128256,
          "time": 83.5,
          "velocity": 0.3937007874015748
        },
        {
          "duration": 0.125,
          "durationTicks": 192,
          "midi": 0,
          "name": "C-1",
          "ticks": 129792,
          "time": 84.5,
          "velocity": 0.3937007874015748
        },
        {
          "duration": 0.125,
          "durationTicks": 192,
          "midi": 0,
          "name": "C-1",
          "ticks": 129792,
          "time": 84.5,
          "velocity": 0.3937007874015748
        },
        {
          "duration": 0.125,
          "durationTicks": 192,
          "midi": 0,
          "name": "C-1",
          "ticks": 131328,
          "time": 85.5,
          "velocity": 0.3937007874015748
        },
        {
          "duration": 0.125,
          "durationTicks": 192,
          "midi": 0,
          "name": "C-1",
          "ticks": 131328,
          "time": 85.5,
          "velocity": 0.3937007874015748
        },
        {
          "duration": 0.125,
          "durationTicks": 192,
          "midi": 0,
          "name": "C-1",
          "ticks": 132864,
          "time": 86.5,
          "velocity": 0.3937007874015748
        },
        {
          "duration": 0.125,
          "durationTicks": 192,
          "midi": 0,
          "name": "C-1",
          "ticks": 132864,
          "time": 86.5,
          "velocity": 0.3937007874015748
        },
        {
          "duration": 0.125,
          "durationTicks": 192,
          "midi": 0,
          "name": "C-1",
          "ticks": 134400,
          "time": 87.5,
          "velocity": 0.3937007874015748
        },
        {
          "duration": 0.125,
          "durationTicks": 192,
          "midi": 0,
          "name": "C-1",
          "ticks": 134400,
          "time": 87.5,
          "velocity": 0.3937007874015748
        },
        {
          "duration": 0.125,
          "durationTicks": 192,
          "midi": 0,
          "name": "C-1",
          "ticks": 135936,
          "time": 88.5,
          "velocity": 0.3937007874015748
        },
        {
          "duration": 0.125,
          "durationTicks": 192,
          "midi": 0,
          "name": "C-1",
          "ticks": 135936,
          "time": 88.5,
          "velocity": 0.3937007874015748
        },
        {
          "duration": 0.125,
          "durationTicks": 192,
          "midi": 0,
          "name": "C-1",
          "ticks": 137472,
          "time": 89.5,
          "velocity": 0.3937007874015748
        },
        {
          "duration": 0.125,
          "durationTicks": 192,
          "midi": 0,
          "name": "C-1",
          "ticks": 137472,
          "time": 89.5,
          "velocity": 0.3937007874015748
        },
        {
          "duration": 0.125,
          "durationTicks": 192,
          "midi": 0,
          "name": "C-1",
          "ticks": 139008,
          "time": 90.5,
          "velocity": 0.3937007874015748
        },
        {
          "duration": 0.125,
          "durationTicks": 192,
          "midi": 0,
          "name": "C-1",
          "ticks": 139008,
          "time": 90.5,
          "velocity": 0.3937007874015748
        },
        {
          "duration": 0.125,
          "durationTicks": 192,
          "midi": 0,
          "name": "C-1",
          "ticks": 140544,
          "time": 91.5,
          "velocity": 0.3937007874015748
        },
        {
          "duration": 0.125,
          "durationTicks": 192,
          "midi": 0,
          "name": "C-1",
          "ticks": 140544,
          "time": 91.5,
          "velocity": 0.3937007874015748
        },
        {
          "duration": 0.125,
          "durationTicks": 192,
          "midi": 0,
          "name": "C-1",
          "ticks": 142080,
          "time": 92.5,
          "velocity": 0.3937007874015748
        },
        {
          "duration": 0.125,
          "durationTicks": 192,
          "midi": 0,
          "name": "C-1",
          "ticks": 142080,
          "time": 92.5,
          "velocity": 0.3937007874015748
        },
        {
          "duration": 0.125,
          "durationTicks": 192,
          "midi": 0,
          "name": "C-1",
          "ticks": 143616,
          "time": 93.5,
          "velocity": 0.3937007874015748
        },
        {
          "duration": 0.125,
          "durationTicks": 192,
          "midi": 0,
          "name": "C-1",
          "ticks": 143616,
          "time": 93.5,
          "velocity": 0.3937007874015748
        },
        {
          "duration": 0.125,
          "durationTicks": 192,
          "midi": 0,
          "name": "C-1",
          "ticks": 145152,
          "time": 94.5,
          "velocity": 0.3937007874015748
        },
        {
          "duration": 0.125,
          "durationTicks": 192,
          "midi": 0,
          "name": "C-1",
          "ticks": 145152,
          "time": 94.5,
          "velocity": 0.3937007874015748
        },
        {
          "duration": 0.125,
          "durationTicks": 192,
          "midi": 0,
          "name": "C-1",
          "ticks": 146688,
          "time": 95.5,
          "velocity": 0.3937007874015748
        },
        {
          "duration": 0.125,
          "durationTicks": 192,
          "midi": 0,
          "name": "C-1",
          "ticks": 146688,
          "time": 95.5,
          "velocity": 0.3937007874015748
        },
        {
          "duration": 0.125,
          "durationTicks": 192,
          "midi": 0,
          "name": "C-1",
          "ticks": 148224,
          "time": 96.5,
          "velocity": 0.3937007874015748
        },
        {
          "duration": 0.125,
          "durationTicks": 192,
          "midi": 0,
          "name": "C-1",
          "ticks": 148224,
          "time": 96.5,
          "velocity": 0.3937007874015748
        },
        {
          "duration": 0.125,
          "durationTicks": 192,
          "midi": 0,
          "name": "C-1",
          "ticks": 149760,
          "time": 97.5,
          "velocity": 0.3937007874015748
        },
        {
          "duration": 0.125,
          "durationTicks": 192,
          "midi": 0,
          "name": "C-1",
          "ticks": 149760,
          "time": 97.5,
          "velocity": 0.3937007874015748
        },
        {
          "duration": 0.125,
          "durationTicks": 192,
          "midi": 0,
          "name": "C-1",
          "ticks": 151296,
          "time": 98.5,
          "velocity": 0.3937007874015748
        },
        {
          "duration": 0.125,
          "durationTicks": 192,
          "midi": 0,
          "name": "C-1",
          "ticks": 151296,
          "time": 98.5,
          "velocity": 0.3937007874015748
        },
        {
          "duration": 0.125,
          "durationTicks": 192,
          "midi": 0,
          "name": "C-1",
          "ticks": 152832,
          "time": 99.5,
          "velocity": 0.3937007874015748
        },
        {
          "duration": 0.125,
          "durationTicks": 192,
          "midi": 0,
          "name": "C-1",
          "ticks": 152832,
          "time": 99.5,
          "velocity": 0.3937007874015748
        },
        {
          "duration": 0.125,
          "durationTicks": 192,
          "midi": 0,
          "name": "C-1",
          "ticks": 154368,
          "time": 100.5,
          "velocity": 0.3937007874015748
        },
        {
          "duration": 0.125,
          "durationTicks": 192,
          "midi": 0,
          "name": "C-1",
          "ticks": 154368,
          "time": 100.5,
          "velocity": 0.3937007874015748
        },
        {
          "duration": 0.125,
          "durationTicks": 192,
          "midi": 0,
          "name": "C-1",
          "ticks": 155904,
          "time": 101.5,
          "velocity": 0.3937007874015748
        },
        {
          "duration": 0.125,
          "durationTicks": 192,
          "midi": 0,
          "name": "C-1",
          "ticks": 155904,
          "time": 101.5,
          "velocity": 0.3937007874015748
        },
        {
          "duration": 0.125,
          "durationTicks": 192,
          "midi": 0,
          "name": "C-1",
          "ticks": 157440,
          "time": 102.5,
          "velocity": 0.3937007874015748
        },
        {
          "duration": 0.125,
          "durationTicks": 192,
          "midi": 0,
          "name": "C-1",
          "ticks": 157440,
          "time": 102.5,
          "velocity": 0.3937007874015748
        },
        {
          "duration": 0.125,
          "durationTicks": 192,
          "midi": 0,
          "name": "C-1",
          "ticks": 158976,
          "time": 103.5,
          "velocity": 0.3937007874015748
        },
        {
          "duration": 0.125,
          "durationTicks": 192,
          "midi": 0,
          "name": "C-1",
          "ticks": 158976,
          "time": 103.5,
          "velocity": 0.3937007874015748
        },
        {
          "duration": 0.125,
          "durationTicks": 192,
          "midi": 0,
          "name": "C-1",
          "ticks": 160512,
          "time": 104.5,
          "velocity": 0.3937007874015748
        },
        {
          "duration": 0.125,
          "durationTicks": 192,
          "midi": 0,
          "name": "C-1",
          "ticks": 160512,
          "time": 104.5,
          "velocity": 0.3937007874015748
        },
        {
          "duration": 0.125,
          "durationTicks": 192,
          "midi": 0,
          "name": "C-1",
          "ticks": 162048,
          "time": 105.5,
          "velocity": 0.3937007874015748
        },
        {
          "duration": 0.125,
          "durationTicks": 192,
          "midi": 0,
          "name": "C-1",
          "ticks": 162048,
          "time": 105.5,
          "velocity": 0.3937007874015748
        },
        {
          "duration": 0.125,
          "durationTicks": 192,
          "midi": 0,
          "name": "C-1",
          "ticks": 163584,
          "time": 106.5,
          "velocity": 0.3937007874015748
        },
        {
          "duration": 0.125,
          "durationTicks": 192,
          "midi": 0,
          "name": "C-1",
          "ticks": 163584,
          "time": 106.5,
          "velocity": 0.3937007874015748
        },
        {
          "duration": 0.125,
          "durationTicks": 192,
          "midi": 0,
          "name": "C-1",
          "ticks": 165120,
          "time": 107.5,
          "velocity": 0.3937007874015748
        },
        {
          "duration": 0.125,
          "durationTicks": 192,
          "midi": 0,
          "name": "C-1",
          "ticks": 165120,
          "time": 107.5,
          "velocity": 0.3937007874015748
        },
        {
          "duration": 0.125,
          "durationTicks": 192,
          "midi": 0,
          "name": "C-1",
          "ticks": 166656,
          "time": 108.5,
          "velocity": 0.3937007874015748
        },
        {
          "duration": 0.125,
          "durationTicks": 192,
          "midi": 0,
          "name": "C-1",
          "ticks": 166656,
          "time": 108.5,
          "velocity": 0.3937007874015748
        },
        {
          "duration": 0.125,
          "durationTicks": 192,
          "midi": 0,
          "name": "C-1",
          "ticks": 168192,
          "time": 109.5,
          "velocity": 0.3937007874015748
        },
        {
          "duration": 0.125,
          "durationTicks": 192,
          "midi": 0,
          "name": "C-1",
          "ticks": 168192,
          "time": 109.5,
          "velocity": 0.3937007874015748
        },
        {
          "duration": 0.125,
          "durationTicks": 192,
          "midi": 0,
          "name": "C-1",
          "ticks": 169728,
          "time": 110.5,
          "velocity": 0.3937007874015748
        },
        {
          "duration": 0.125,
          "durationTicks": 192,
          "midi": 0,
          "name": "C-1",
          "ticks": 169728,
          "time": 110.5,
          "velocity": 0.3937007874015748
        },
        {
          "duration": 0.125,
          "durationTicks": 192,
          "midi": 0,
          "name": "C-1",
          "ticks": 171264,
          "time": 111.5,
          "velocity": 0.3937007874015748
        },
        {
          "duration": 0.125,
          "durationTicks": 192,
          "midi": 0,
          "name": "C-1",
          "ticks": 171264,
          "time": 111.5,
          "velocity": 0.3937007874015748
        },
        {
          "duration": 0.125,
          "durationTicks": 192,
          "midi": 0,
          "name": "C-1",
          "ticks": 172800,
          "time": 112.5,
          "velocity": 0.3937007874015748
        },
        {
          "duration": 0.125,
          "durationTicks": 192,
          "midi": 0,
          "name": "C-1",
          "ticks": 172800,
          "time": 112.5,
          "velocity": 0.3937007874015748
        },
        {
          "duration": 0.125,
          "durationTicks": 192,
          "midi": 0,
          "name": "C-1",
          "ticks": 174336,
          "time": 113.5,
          "velocity": 0.3937007874015748
        },
        {
          "duration": 0.125,
          "durationTicks": 192,
          "midi": 0,
          "name": "C-1",
          "ticks": 174336,
          "time": 113.5,
          "velocity": 0.3937007874015748
        },
        {
          "duration": 0.125,
          "durationTicks": 192,
          "midi": 0,
          "name": "C-1",
          "ticks": 175872,
          "time": 114.5,
          "velocity": 0.3937007874015748
        },
        {
          "duration": 0.125,
          "durationTicks": 192,
          "midi": 0,
          "name": "C-1",
          "ticks": 175872,
          "time": 114.5,
          "velocity": 0.3937007874015748
        },
        {
          "duration": 0.125,
          "durationTicks": 192,
          "midi": 0,
          "name": "C-1",
          "ticks": 177408,
          "time": 115.5,
          "velocity": 0.3937007874015748
        },
        {
          "duration": 0.125,
          "durationTicks": 192,
          "midi": 0,
          "name": "C-1",
          "ticks": 177408,
          "time": 115.5,
          "velocity": 0.3937007874015748
        },
        {
          "duration": 0.125,
          "durationTicks": 192,
          "midi": 0,
          "name": "C-1",
          "ticks": 178944,
          "time": 116.5,
          "velocity": 0.3937007874015748
        },
        {
          "duration": 0.125,
          "durationTicks": 192,
          "midi": 0,
          "name": "C-1",
          "ticks": 178944,
          "time": 116.5,
          "velocity": 0.3937007874015748
        },
        {
          "duration": 0.125,
          "durationTicks": 192,
          "midi": 0,
          "name": "C-1",
          "ticks": 180480,
          "time": 117.5,
          "velocity": 0.3937007874015748
        },
        {
          "duration": 0.125,
          "durationTicks": 192,
          "midi": 0,
          "name": "C-1",
          "ticks": 180480,
          "time": 117.5,
          "velocity": 0.3937007874015748
        },
        {
          "duration": 0.125,
          "durationTicks": 192,
          "midi": 0,
          "name": "C-1",
          "ticks": 182016,
          "time": 118.5,
          "velocity": 0.3937007874015748
        },
        {
          "duration": 0.125,
          "durationTicks": 192,
          "midi": 0,
          "name": "C-1",
          "ticks": 182016,
          "time": 118.5,
          "velocity": 0.3937007874015748
        },
        {
          "duration": 0.125,
          "durationTicks": 192,
          "midi": 0,
          "name": "C-1",
          "ticks": 183552,
          "time": 119.5,
          "velocity": 0.3937007874015748
        },
        {
          "duration": 0.125,
          "durationTicks": 192,
          "midi": 0,
          "name": "C-1",
          "ticks": 183552,
          "time": 119.5,
          "velocity": 0.3937007874015748
        },
        {
          "duration": 0.125,
          "durationTicks": 192,
          "midi": 0,
          "name": "C-1",
          "ticks": 185088,
          "time": 120.5,
          "velocity": 0.3937007874015748
        },
        {
          "duration": 0.125,
          "durationTicks": 192,
          "midi": 0,
          "name": "C-1",
          "ticks": 185088,
          "time": 120.5,
          "velocity": 0.3937007874015748
        },
        {
          "duration": 0.125,
          "durationTicks": 192,
          "midi": 0,
          "name": "C-1",
          "ticks": 186624,
          "time": 121.5,
          "velocity": 0.3937007874015748
        },
        {
          "duration": 0.125,
          "durationTicks": 192,
          "midi": 0,
          "name": "C-1",
          "ticks": 186624,
          "time": 121.5,
          "velocity": 0.3937007874015748
        },
        {
          "duration": 0.125,
          "durationTicks": 192,
          "midi": 0,
          "name": "C-1",
          "ticks": 189696,
          "time": 123.5,
          "velocity": 0.3937007874015748
        },
        {
          "duration": 0.125,
          "durationTicks": 192,
          "midi": 0,
          "name": "C-1",
          "ticks": 189696,
          "time": 123.5,
          "velocity": 0.3937007874015748
        },
        {
          "duration": 0.0833333333333286,
          "durationTicks": 128,
          "midi": 0,
          "name": "C-1",
          "ticks": 189952,
          "time": 123.66666666666667,
          "velocity": 0.2677165354330709
        },
        {
          "duration": 0.0833333333333286,
          "durationTicks": 128,
          "midi": 0,
          "name": "C-1",
          "ticks": 189952,
          "time": 123.66666666666667,
          "velocity": 0.2677165354330709
        },
        {
          "duration": 0.125,
          "durationTicks": 192,
          "midi": 0,
          "name": "C-1",
          "ticks": 191232,
          "time": 124.5,
          "velocity": 0.3937007874015748
        },
        {
          "duration": 0.125,
          "durationTicks": 192,
          "midi": 0,
          "name": "C-1",
          "ticks": 191232,
          "time": 124.5,
          "velocity": 0.3937007874015748
        },
        {
          "duration": 0.125,
          "durationTicks": 192,
          "midi": 0,
          "name": "C-1",
          "ticks": 192768,
          "time": 125.5,
          "velocity": 0.3937007874015748
        },
        {
          "duration": 0.125,
          "durationTicks": 192,
          "midi": 0,
          "name": "C-1",
          "ticks": 192768,
          "time": 125.5,
          "velocity": 0.3937007874015748
        },
        {
          "duration": 0.125,
          "durationTicks": 192,
          "midi": 0,
          "name": "C-1",
          "ticks": 194304,
          "time": 126.5,
          "velocity": 0.3937007874015748
        },
        {
          "duration": 0.125,
          "durationTicks": 192,
          "midi": 0,
          "name": "C-1",
          "ticks": 194304,
          "time": 126.5,
          "velocity": 0.3937007874015748
        },
        {
          "duration": 0.125,
          "durationTicks": 192,
          "midi": 0,
          "name": "C-1",
          "ticks": 195840,
          "time": 127.5,
          "velocity": 0.3937007874015748
        },
        {
          "duration": 0.125,
          "durationTicks": 192,
          "midi": 0,
          "name": "C-1",
          "ticks": 195840,
          "time": 127.5,
          "velocity": 0.3937007874015748
        },
        {
          "duration": 0.125,
          "durationTicks": 192,
          "midi": 0,
          "name": "C-1",
          "ticks": 197376,
          "time": 128.5,
          "velocity": 0.3937007874015748
        },
        {
          "duration": 0.125,
          "durationTicks": 192,
          "midi": 0,
          "name": "C-1",
          "ticks": 197376,
          "time": 128.5,
          "velocity": 0.3937007874015748
        },
        {
          "duration": 0.125,
          "durationTicks": 192,
          "midi": 0,
          "name": "C-1",
          "ticks": 198912,
          "time": 129.5,
          "velocity": 0.3937007874015748
        },
        {
          "duration": 0.125,
          "durationTicks": 192,
          "midi": 0,
          "name": "C-1",
          "ticks": 198912,
          "time": 129.5,
          "velocity": 0.3937007874015748
        },
        {
          "duration": 0.125,
          "durationTicks": 192,
          "midi": 0,
          "name": "C-1",
          "ticks": 200448,
          "time": 130.5,
          "velocity": 0.3937007874015748
        },
        {
          "duration": 0.125,
          "durationTicks": 192,
          "midi": 0,
          "name": "C-1",
          "ticks": 200448,
          "time": 130.5,
          "velocity": 0.3937007874015748
        },
        {
          "duration": 0.125,
          "durationTicks": 192,
          "midi": 0,
          "name": "C-1",
          "ticks": 201984,
          "time": 131.5,
          "velocity": 0.3937007874015748
        },
        {
          "duration": 0.125,
          "durationTicks": 192,
          "midi": 0,
          "name": "C-1",
          "ticks": 201984,
          "time": 131.5,
          "velocity": 0.3937007874015748
        },
        {
          "duration": 0.125,
          "durationTicks": 192,
          "midi": 0,
          "name": "C-1",
          "ticks": 203520,
          "time": 132.5,
          "velocity": 0.3937007874015748
        },
        {
          "duration": 0.125,
          "durationTicks": 192,
          "midi": 0,
          "name": "C-1",
          "ticks": 203520,
          "time": 132.5,
          "velocity": 0.3937007874015748
        }
      ],
      "endOfTrackTicks": 203712
    },
    {
      "channel": 9,
      "controlChanges": {},
      "pitchBends": [],
      "instrument": {
        "family": "drums",
        "number": 0,
        "name": "standard kit"
      },
      "name": "909 Drum Kit",
      "notes": [
        {
          "duration": 0.125,
          "durationTicks": 192,
          "midi": 0,
          "name": "C-1",
          "ticks": 5376,
          "time": 3.5,
          "velocity": 0.2992125984251969
        },
        {
          "duration": 0.125,
          "durationTicks": 192,
          "midi": 0,
          "name": "C-1",
          "ticks": 9216,
          "time": 6,
          "velocity": 0.2992125984251969
        },
        {
          "duration": 0.125,
          "durationTicks": 192,
          "midi": 0,
          "name": "C-1",
          "ticks": 9600,
          "time": 6.25,
          "velocity": 0.2992125984251969
        },
        {
          "duration": 0.125,
          "durationTicks": 192,
          "midi": 0,
          "name": "C-1",
          "ticks": 9984,
          "time": 6.5,
          "velocity": 0.2992125984251969
        },
        {
          "duration": 0.125,
          "durationTicks": 192,
          "midi": 0,
          "name": "C-1",
          "ticks": 10368,
          "time": 6.75,
          "velocity": 0.2992125984251969
        },
        {
          "duration": 0.125,
          "durationTicks": 192,
          "midi": 0,
          "name": "C-1",
          "ticks": 10752,
          "time": 7,
          "velocity": 0.2992125984251969
        },
        {
          "duration": 0.125,
          "durationTicks": 192,
          "midi": 0,
          "name": "C-1",
          "ticks": 10944,
          "time": 7.125,
          "velocity": 0.2992125984251969
        },
        {
          "duration": 0.125,
          "durationTicks": 192,
          "midi": 0,
          "name": "C-1",
          "ticks": 11136,
          "time": 7.25,
          "velocity": 0.2992125984251969
        },
        {
          "duration": 0.125,
          "durationTicks": 192,
          "midi": 0,
          "name": "C-1",
          "ticks": 11328,
          "time": 7.375,
          "velocity": 0.2992125984251969
        },
        {
          "duration": 0.125,
          "durationTicks": 192,
          "midi": 0,
          "name": "C-1",
          "ticks": 11520,
          "time": 7.5,
          "velocity": 0.2992125984251969
        },
        {
          "duration": 0.125,
          "durationTicks": 192,
          "midi": 0,
          "name": "C-1",
          "ticks": 11712,
          "time": 7.625,
          "velocity": 0.2992125984251969
        },
        {
          "duration": 0.0625,
          "durationTicks": 96,
          "midi": 0,
          "name": "C-1",
          "ticks": 11904,
          "time": 7.75,
          "velocity": 0.2992125984251969
        },
        {
          "duration": 0.0625,
          "durationTicks": 96,
          "midi": 0,
          "name": "C-1",
          "ticks": 12000,
          "time": 7.8125,
          "velocity": 0.2992125984251969
        },
        {
          "duration": 0.0625,
          "durationTicks": 96,
          "midi": 0,
          "name": "C-1",
          "ticks": 12096,
          "time": 7.875,
          "velocity": 0.2992125984251969
        },
        {
          "duration": 0.0625,
          "durationTicks": 96,
          "midi": 0,
          "name": "C-1",
          "ticks": 12192,
          "time": 7.9375,
          "velocity": 0.2992125984251969
        },
        {
          "duration": 0.125,
          "durationTicks": 192,
          "midi": 0,
          "name": "C-1",
          "ticks": 12288,
          "time": 8,
          "velocity": 0.2992125984251969
        },
        {
          "duration": 0.125,
          "durationTicks": 192,
          "midi": 0,
          "name": "C-1",
          "ticks": 13824,
          "time": 9,
          "velocity": 0.2992125984251969
        },
        {
          "duration": 0.125,
          "durationTicks": 192,
          "midi": 0,
          "name": "C-1",
          "ticks": 15360,
          "time": 10,
          "velocity": 0.2992125984251969
        },
        {
          "duration": 0.125,
          "durationTicks": 192,
          "midi": 0,
          "name": "C-1",
          "ticks": 16896,
          "time": 11,
          "velocity": 0.2992125984251969
        },
        {
          "duration": 0.125,
          "durationTicks": 192,
          "midi": 0,
          "name": "C-1",
          "ticks": 18432,
          "time": 12,
          "velocity": 0.2992125984251969
        },
        {
          "duration": 0.125,
          "durationTicks": 192,
          "midi": 0,
          "name": "C-1",
          "ticks": 19968,
          "time": 13,
          "velocity": 0.2992125984251969
        },
        {
          "duration": 0.125,
          "durationTicks": 192,
          "midi": 0,
          "name": "C-1",
          "ticks": 21504,
          "time": 14,
          "velocity": 0.2992125984251969
        },
        {
          "duration": 0.125,
          "durationTicks": 192,
          "midi": 0,
          "name": "C-1",
          "ticks": 23040,
          "time": 15,
          "velocity": 0.2992125984251969
        },
        {
          "duration": 0.125,
          "durationTicks": 192,
          "midi": 0,
          "name": "C-1",
          "ticks": 24576,
          "time": 16,
          "velocity": 0.2992125984251969
        },
        {
          "duration": 0.125,
          "durationTicks": 192,
          "midi": 0,
          "name": "C-1",
          "ticks": 26112,
          "time": 17,
          "velocity": 0.2992125984251969
        },
        {
          "duration": 0.125,
          "durationTicks": 192,
          "midi": 0,
          "name": "C-1",
          "ticks": 27648,
          "time": 18,
          "velocity": 0.2992125984251969
        },
        {
          "duration": 0.125,
          "durationTicks": 192,
          "midi": 0,
          "name": "C-1",
          "ticks": 29184,
          "time": 19,
          "velocity": 0.2992125984251969
        },
        {
          "duration": 0.125,
          "durationTicks": 192,
          "midi": 0,
          "name": "C-1",
          "ticks": 30720,
          "time": 20,
          "velocity": 0.2992125984251969
        },
        {
          "duration": 0.125,
          "durationTicks": 192,
          "midi": 0,
          "name": "C-1",
          "ticks": 32256,
          "time": 21,
          "velocity": 0.2992125984251969
        },
        {
          "duration": 0.125,
          "durationTicks": 192,
          "midi": 0,
          "name": "C-1",
          "ticks": 33792,
          "time": 22,
          "velocity": 0.2992125984251969
        },
        {
          "duration": 0.125,
          "durationTicks": 192,
          "midi": 0,
          "name": "C-1",
          "ticks": 35328,
          "time": 23,
          "velocity": 0.2992125984251969
        },
        {
          "duration": 0.125,
          "durationTicks": 192,
          "midi": 0,
          "name": "C-1",
          "ticks": 36864,
          "time": 24,
          "velocity": 0.2992125984251969
        },
        {
          "duration": 0.125,
          "durationTicks": 192,
          "midi": 0,
          "name": "C-1",
          "ticks": 38400,
          "time": 25,
          "velocity": 0.2992125984251969
        },
        {
          "duration": 0.125,
          "durationTicks": 192,
          "midi": 0,
          "name": "C-1",
          "ticks": 39936,
          "time": 26,
          "velocity": 0.2992125984251969
        },
        {
          "duration": 0.125,
          "durationTicks": 192,
          "midi": 0,
          "name": "C-1",
          "ticks": 41472,
          "time": 27,
          "velocity": 0.2992125984251969
        },
        {
          "duration": 0.125,
          "durationTicks": 192,
          "midi": 0,
          "name": "C-1",
          "ticks": 43008,
          "time": 28,
          "velocity": 0.2992125984251969
        },
        {
          "duration": 0.125,
          "durationTicks": 192,
          "midi": 0,
          "name": "C-1",
          "ticks": 44544,
          "time": 29,
          "velocity": 0.2992125984251969
        },
        {
          "duration": 0.125,
          "durationTicks": 192,
          "midi": 0,
          "name": "C-1",
          "ticks": 46080,
          "time": 30,
          "velocity": 0.2992125984251969
        },
        {
          "duration": 0.125,
          "durationTicks": 192,
          "midi": 0,
          "name": "C-1",
          "ticks": 47616,
          "time": 31,
          "velocity": 0.2992125984251969
        },
        {
          "duration": 0.125,
          "durationTicks": 192,
          "midi": 0,
          "name": "C-1",
          "ticks": 49152,
          "time": 32,
          "velocity": 0.2992125984251969
        },
        {
          "duration": 0.125,
          "durationTicks": 192,
          "midi": 0,
          "name": "C-1",
          "ticks": 50688,
          "time": 33,
          "velocity": 0.2992125984251969
        },
        {
          "duration": 0.125,
          "durationTicks": 192,
          "midi": 0,
          "name": "C-1",
          "ticks": 52224,
          "time": 34,
          "velocity": 0.2992125984251969
        },
        {
          "duration": 0.125,
          "durationTicks": 192,
          "midi": 0,
          "name": "C-1",
          "ticks": 53760,
          "time": 35,
          "velocity": 0.2992125984251969
        },
        {
          "duration": 0.125,
          "durationTicks": 192,
          "midi": 0,
          "name": "C-1",
          "ticks": 55296,
          "time": 36,
          "velocity": 0.2992125984251969
        },
        {
          "duration": 0.125,
          "durationTicks": 192,
          "midi": 0,
          "name": "C-1",
          "ticks": 56832,
          "time": 37,
          "velocity": 0.2992125984251969
        },
        {
          "duration": 0.125,
          "durationTicks": 192,
          "midi": 0,
          "name": "C-1",
          "ticks": 58368,
          "time": 38,
          "velocity": 0.2992125984251969
        },
        {
          "duration": 0.125,
          "durationTicks": 192,
          "midi": 0,
          "name": "C-1",
          "ticks": 59904,
          "time": 39,
          "velocity": 0.2992125984251969
        },
        {
          "duration": 0.125,
          "durationTicks": 192,
          "midi": 0,
          "name": "C-1",
          "ticks": 61440,
          "time": 40,
          "velocity": 0.2992125984251969
        },
        {
          "duration": 0.125,
          "durationTicks": 192,
          "midi": 0,
          "name": "C-1",
          "ticks": 62976,
          "time": 41,
          "velocity": 0.2992125984251969
        },
        {
          "duration": 0.125,
          "durationTicks": 192,
          "midi": 0,
          "name": "C-1",
          "ticks": 64512,
          "time": 42,
          "velocity": 0.2992125984251969
        },
        {
          "duration": 0.125,
          "durationTicks": 192,
          "midi": 0,
          "name": "C-1",
          "ticks": 66048,
          "time": 43,
          "velocity": 0.2992125984251969
        },
        {
          "duration": 0.125,
          "durationTicks": 192,
          "midi": 0,
          "name": "C-1",
          "ticks": 67584,
          "time": 44,
          "velocity": 0.2992125984251969
        },
        {
          "duration": 0.125,
          "durationTicks": 192,
          "midi": 0,
          "name": "C-1",
          "ticks": 69120,
          "time": 45,
          "velocity": 0.2992125984251969
        },
        {
          "duration": 0.125,
          "durationTicks": 192,
          "midi": 0,
          "name": "C-1",
          "ticks": 70656,
          "time": 46,
          "velocity": 0.2992125984251969
        },
        {
          "duration": 0.125,
          "durationTicks": 192,
          "midi": 0,
          "name": "C-1",
          "ticks": 72192,
          "time": 47,
          "velocity": 0.2992125984251969
        },
        {
          "duration": 0.125,
          "durationTicks": 192,
          "midi": 0,
          "name": "C-1",
          "ticks": 73728,
          "time": 48,
          "velocity": 0.2992125984251969
        },
        {
          "duration": 0.125,
          "durationTicks": 192,
          "midi": 0,
          "name": "C-1",
          "ticks": 75264,
          "time": 49,
          "velocity": 0.2992125984251969
        },
        {
          "duration": 0.125,
          "durationTicks": 192,
          "midi": 0,
          "name": "C-1",
          "ticks": 76800,
          "time": 50,
          "velocity": 0.2992125984251969
        },
        {
          "duration": 0.125,
          "durationTicks": 192,
          "midi": 0,
          "name": "C-1",
          "ticks": 78336,
          "time": 51,
          "velocity": 0.2992125984251969
        },
        {
          "duration": 0.125,
          "durationTicks": 192,
          "midi": 0,
          "name": "C-1",
          "ticks": 79872,
          "time": 52,
          "velocity": 0.2992125984251969
        },
        {
          "duration": 0.125,
          "durationTicks": 192,
          "midi": 0,
          "name": "C-1",
          "ticks": 81408,
          "time": 53,
          "velocity": 0.2992125984251969
        },
        {
          "duration": 0.125,
          "durationTicks": 192,
          "midi": 0,
          "name": "C-1",
          "ticks": 82944,
          "time": 54,
          "velocity": 0.2992125984251969
        },
        {
          "duration": 0.125,
          "durationTicks": 192,
          "midi": 0,
          "name": "C-1",
          "ticks": 84480,
          "time": 55,
          "velocity": 0.2992125984251969
        },
        {
          "duration": 0.125,
          "durationTicks": 192,
          "midi": 0,
          "name": "C-1",
          "ticks": 86016,
          "time": 56,
          "velocity": 0.2992125984251969
        },
        {
          "duration": 0.125,
          "durationTicks": 192,
          "midi": 0,
          "name": "C-1",
          "ticks": 87552,
          "time": 57,
          "velocity": 0.2992125984251969
        },
        {
          "duration": 0.125,
          "durationTicks": 192,
          "midi": 0,
          "name": "C-1",
          "ticks": 89088,
          "time": 58,
          "velocity": 0.2992125984251969
        },
        {
          "duration": 0.125,
          "durationTicks": 192,
          "midi": 0,
          "name": "C-1",
          "ticks": 90624,
          "time": 59,
          "velocity": 0.2992125984251969
        },
        {
          "duration": 0.125,
          "durationTicks": 192,
          "midi": 0,
          "name": "C-1",
          "ticks": 92160,
          "time": 60,
          "velocity": 0.2992125984251969
        },
        {
          "duration": 0.125,
          "durationTicks": 192,
          "midi": 0,
          "name": "C-1",
          "ticks": 93696,
          "time": 61,
          "velocity": 0.2992125984251969
        },
        {
          "duration": 0.125,
          "durationTicks": 192,
          "midi": 0,
          "name": "C-1",
          "ticks": 95232,
          "time": 62,
          "velocity": 0.2992125984251969
        },
        {
          "duration": 0.125,
          "durationTicks": 192,
          "midi": 0,
          "name": "C-1",
          "ticks": 96768,
          "time": 63,
          "velocity": 0.2992125984251969
        },
        {
          "duration": 0.125,
          "durationTicks": 192,
          "midi": 0,
          "name": "C-1",
          "ticks": 98304,
          "time": 64,
          "velocity": 0.2992125984251969
        },
        {
          "duration": 0.125,
          "durationTicks": 192,
          "midi": 0,
          "name": "C-1",
          "ticks": 99072,
          "time": 64.5,
          "velocity": 0.2992125984251969
        },
        {
          "duration": 0.125,
          "durationTicks": 192,
          "midi": 0,
          "name": "C-1",
          "ticks": 99840,
          "time": 65,
          "velocity": 0.2992125984251969
        },
        {
          "duration": 0.0833333333333286,
          "durationTicks": 128,
          "midi": 0,
          "name": "C-1",
          "ticks": 100480,
          "time": 65.41666666666667,
          "velocity": 0.2992125984251969
        },
        {
          "duration": 0.125,
          "durationTicks": 192,
          "midi": 0,
          "name": "C-1",
          "ticks": 101376,
          "time": 66,
          "velocity": 0.2992125984251969
        },
        {
          "duration": 0.125,
          "durationTicks": 192,
          "midi": 0,
          "name": "C-1",
          "ticks": 102912,
          "time": 67,
          "velocity": 0.2992125984251969
        },
        {
          "duration": 0.125,
          "durationTicks": 192,
          "midi": 0,
          "name": "C-1",
          "ticks": 104448,
          "time": 68,
          "velocity": 0.2992125984251969
        },
        {
          "duration": 0.125,
          "durationTicks": 192,
          "midi": 0,
          "name": "C-1",
          "ticks": 105984,
          "time": 69,
          "velocity": 0.2992125984251969
        },
        {
          "duration": 0.125,
          "durationTicks": 192,
          "midi": 0,
          "name": "C-1",
          "ticks": 107520,
          "time": 70,
          "velocity": 0.2992125984251969
        },
        {
          "duration": 0.125,
          "durationTicks": 192,
          "midi": 0,
          "name": "C-1",
          "ticks": 109056,
          "time": 71,
          "velocity": 0.2992125984251969
        },
        {
          "duration": 0.125,
          "durationTicks": 192,
          "midi": 0,
          "name": "C-1",
          "ticks": 110592,
          "time": 72,
          "velocity": 0.2992125984251969
        },
        {
          "duration": 0.125,
          "durationTicks": 192,
          "midi": 0,
          "name": "C-1",
          "ticks": 112128,
          "time": 73,
          "velocity": 0.2992125984251969
        },
        {
          "duration": 0.125,
          "durationTicks": 192,
          "midi": 0,
          "name": "C-1",
          "ticks": 113664,
          "time": 74,
          "velocity": 0.2992125984251969
        },
        {
          "duration": 0.125,
          "durationTicks": 192,
          "midi": 0,
          "name": "C-1",
          "ticks": 115200,
          "time": 75,
          "velocity": 0.2992125984251969
        },
        {
          "duration": 0.125,
          "durationTicks": 192,
          "midi": 0,
          "name": "C-1",
          "ticks": 116736,
          "time": 76,
          "velocity": 0.2992125984251969
        },
        {
          "duration": 0.125,
          "durationTicks": 192,
          "midi": 0,
          "name": "C-1",
          "ticks": 118272,
          "time": 77,
          "velocity": 0.2992125984251969
        },
        {
          "duration": 0.125,
          "durationTicks": 192,
          "midi": 0,
          "name": "C-1",
          "ticks": 119808,
          "time": 78,
          "velocity": 0.2992125984251969
        },
        {
          "duration": 0.125,
          "durationTicks": 192,
          "midi": 0,
          "name": "C-1",
          "ticks": 121344,
          "time": 79,
          "velocity": 0.2992125984251969
        },
        {
          "duration": 0.125,
          "durationTicks": 192,
          "midi": 0,
          "name": "C-1",
          "ticks": 122880,
          "time": 80,
          "velocity": 0.2992125984251969
        },
        {
          "duration": 0.125,
          "durationTicks": 192,
          "midi": 0,
          "name": "C-1",
          "ticks": 124416,
          "time": 81,
          "velocity": 0.2992125984251969
        },
        {
          "duration": 0.125,
          "durationTicks": 192,
          "midi": 0,
          "name": "C-1",
          "ticks": 125952,
          "time": 82,
          "velocity": 0.2992125984251969
        },
        {
          "duration": 0.125,
          "durationTicks": 192,
          "midi": 0,
          "name": "C-1",
          "ticks": 127488,
          "time": 83,
          "velocity": 0.2992125984251969
        },
        {
          "duration": 0.125,
          "durationTicks": 192,
          "midi": 0,
          "name": "C-1",
          "ticks": 129024,
          "time": 84,
          "velocity": 0.2992125984251969
        },
        {
          "duration": 0.125,
          "durationTicks": 192,
          "midi": 0,
          "name": "C-1",
          "ticks": 130560,
          "time": 85,
          "velocity": 0.2992125984251969
        },
        {
          "duration": 0.125,
          "durationTicks": 192,
          "midi": 0,
          "name": "C-1",
          "ticks": 132096,
          "time": 86,
          "velocity": 0.2992125984251969
        },
        {
          "duration": 0.125,
          "durationTicks": 192,
          "midi": 0,
          "name": "C-1",
          "ticks": 133632,
          "time": 87,
          "velocity": 0.2992125984251969
        },
        {
          "duration": 0.125,
          "durationTicks": 192,
          "midi": 0,
          "name": "C-1",
          "ticks": 135168,
          "time": 88,
          "velocity": 0.2992125984251969
        },
        {
          "duration": 0.125,
          "durationTicks": 192,
          "midi": 0,
          "name": "C-1",
          "ticks": 136704,
          "time": 89,
          "velocity": 0.2992125984251969
        },
        {
          "duration": 0.125,
          "durationTicks": 192,
          "midi": 0,
          "name": "C-1",
          "ticks": 138240,
          "time": 90,
          "velocity": 0.2992125984251969
        },
        {
          "duration": 0.125,
          "durationTicks": 192,
          "midi": 0,
          "name": "C-1",
          "ticks": 139776,
          "time": 91,
          "velocity": 0.2992125984251969
        },
        {
          "duration": 0.125,
          "durationTicks": 192,
          "midi": 0,
          "name": "C-1",
          "ticks": 141312,
          "time": 92,
          "velocity": 0.2992125984251969
        },
        {
          "duration": 0.125,
          "durationTicks": 192,
          "midi": 0,
          "name": "C-1",
          "ticks": 142848,
          "time": 93,
          "velocity": 0.2992125984251969
        },
        {
          "duration": 0.125,
          "durationTicks": 192,
          "midi": 0,
          "name": "C-1",
          "ticks": 144384,
          "time": 94,
          "velocity": 0.2992125984251969
        },
        {
          "duration": 0.125,
          "durationTicks": 192,
          "midi": 0,
          "name": "C-1",
          "ticks": 145920,
          "time": 95,
          "velocity": 0.2992125984251969
        },
        {
          "duration": 0.125,
          "durationTicks": 192,
          "midi": 0,
          "name": "C-1",
          "ticks": 147456,
          "time": 96,
          "velocity": 0.2992125984251969
        },
        {
          "duration": 0.125,
          "durationTicks": 192,
          "midi": 0,
          "name": "C-1",
          "ticks": 148992,
          "time": 97,
          "velocity": 0.2992125984251969
        },
        {
          "duration": 0.125,
          "durationTicks": 192,
          "midi": 0,
          "name": "C-1",
          "ticks": 150528,
          "time": 98,
          "velocity": 0.2992125984251969
        },
        {
          "duration": 0.125,
          "durationTicks": 192,
          "midi": 0,
          "name": "C-1",
          "ticks": 152064,
          "time": 99,
          "velocity": 0.2992125984251969
        },
        {
          "duration": 0.125,
          "durationTicks": 192,
          "midi": 0,
          "name": "C-1",
          "ticks": 153600,
          "time": 100,
          "velocity": 0.2992125984251969
        },
        {
          "duration": 0.125,
          "durationTicks": 192,
          "midi": 0,
          "name": "C-1",
          "ticks": 155136,
          "time": 101,
          "velocity": 0.2992125984251969
        },
        {
          "duration": 0.125,
          "durationTicks": 192,
          "midi": 0,
          "name": "C-1",
          "ticks": 156672,
          "time": 102,
          "velocity": 0.2992125984251969
        },
        {
          "duration": 0.125,
          "durationTicks": 192,
          "midi": 0,
          "name": "C-1",
          "ticks": 158208,
          "time": 103,
          "velocity": 0.2992125984251969
        },
        {
          "duration": 0.125,
          "durationTicks": 192,
          "midi": 0,
          "name": "C-1",
          "ticks": 159744,
          "time": 104,
          "velocity": 0.2992125984251969
        },
        {
          "duration": 0.125,
          "durationTicks": 192,
          "midi": 0,
          "name": "C-1",
          "ticks": 161280,
          "time": 105,
          "velocity": 0.2992125984251969
        },
        {
          "duration": 0.125,
          "durationTicks": 192,
          "midi": 0,
          "name": "C-1",
          "ticks": 162816,
          "time": 106,
          "velocity": 0.2992125984251969
        },
        {
          "duration": 0.125,
          "durationTicks": 192,
          "midi": 0,
          "name": "C-1",
          "ticks": 164352,
          "time": 107,
          "velocity": 0.2992125984251969
        },
        {
          "duration": 0.125,
          "durationTicks": 192,
          "midi": 0,
          "name": "C-1",
          "ticks": 165888,
          "time": 108,
          "velocity": 0.2992125984251969
        },
        {
          "duration": 0.125,
          "durationTicks": 192,
          "midi": 0,
          "name": "C-1",
          "ticks": 167424,
          "time": 109,
          "velocity": 0.2992125984251969
        },
        {
          "duration": 0.125,
          "durationTicks": 192,
          "midi": 0,
          "name": "C-1",
          "ticks": 168960,
          "time": 110,
          "velocity": 0.2992125984251969
        },
        {
          "duration": 0.125,
          "durationTicks": 192,
          "midi": 0,
          "name": "C-1",
          "ticks": 170496,
          "time": 111,
          "velocity": 0.2992125984251969
        },
        {
          "duration": 0.125,
          "durationTicks": 192,
          "midi": 0,
          "name": "C-1",
          "ticks": 172032,
          "time": 112,
          "velocity": 0.2992125984251969
        },
        {
          "duration": 0.125,
          "durationTicks": 192,
          "midi": 0,
          "name": "C-1",
          "ticks": 173568,
          "time": 113,
          "velocity": 0.2992125984251969
        },
        {
          "duration": 0.125,
          "durationTicks": 192,
          "midi": 0,
          "name": "C-1",
          "ticks": 175104,
          "time": 114,
          "velocity": 0.2992125984251969
        },
        {
          "duration": 0.125,
          "durationTicks": 192,
          "midi": 0,
          "name": "C-1",
          "ticks": 176640,
          "time": 115,
          "velocity": 0.2992125984251969
        },
        {
          "duration": 0.125,
          "durationTicks": 192,
          "midi": 0,
          "name": "C-1",
          "ticks": 178176,
          "time": 116,
          "velocity": 0.2992125984251969
        },
        {
          "duration": 0.125,
          "durationTicks": 192,
          "midi": 0,
          "name": "C-1",
          "ticks": 179712,
          "time": 117,
          "velocity": 0.2992125984251969
        },
        {
          "duration": 0.125,
          "durationTicks": 192,
          "midi": 0,
          "name": "C-1",
          "ticks": 181248,
          "time": 118,
          "velocity": 0.2992125984251969
        },
        {
          "duration": 0.125,
          "durationTicks": 192,
          "midi": 0,
          "name": "C-1",
          "ticks": 182784,
          "time": 119,
          "velocity": 0.2992125984251969
        },
        {
          "duration": 0.125,
          "durationTicks": 192,
          "midi": 0,
          "name": "C-1",
          "ticks": 184320,
          "time": 120,
          "velocity": 0.2992125984251969
        },
        {
          "duration": 0.125,
          "durationTicks": 192,
          "midi": 0,
          "name": "C-1",
          "ticks": 185856,
          "time": 121,
          "velocity": 0.2992125984251969
        },
        {
          "duration": 0.125,
          "durationTicks": 192,
          "midi": 0,
          "name": "C-1",
          "ticks": 187392,
          "time": 122,
          "velocity": 0.2992125984251969
        },
        {
          "duration": 0.125,
          "durationTicks": 192,
          "midi": 0,
          "name": "C-1",
          "ticks": 188160,
          "time": 122.5,
          "velocity": 0.2992125984251969
        },
        {
          "duration": 0.125,
          "durationTicks": 192,
          "midi": 0,
          "name": "C-1",
          "ticks": 188928,
          "time": 123,
          "velocity": 0.2992125984251969
        },
        {
          "duration": 0.0833333333333286,
          "durationTicks": 128,
          "midi": 0,
          "name": "C-1",
          "ticks": 189568,
          "time": 123.41666666666667,
          "velocity": 0.2992125984251969
        },
        {
          "duration": 0.125,
          "durationTicks": 192,
          "midi": 0,
          "name": "C-1",
          "ticks": 190464,
          "time": 124,
          "velocity": 0.2992125984251969
        },
        {
          "duration": 0.125,
          "durationTicks": 192,
          "midi": 0,
          "name": "C-1",
          "ticks": 192000,
          "time": 125,
          "velocity": 0.2992125984251969
        },
        {
          "duration": 0.125,
          "durationTicks": 192,
          "midi": 0,
          "name": "C-1",
          "ticks": 193536,
          "time": 126,
          "velocity": 0.2992125984251969
        },
        {
          "duration": 0.125,
          "durationTicks": 192,
          "midi": 0,
          "name": "C-1",
          "ticks": 195072,
          "time": 127,
          "velocity": 0.2992125984251969
        },
        {
          "duration": 0.125,
          "durationTicks": 192,
          "midi": 0,
          "name": "C-1",
          "ticks": 196608,
          "time": 128,
          "velocity": 0.2992125984251969
        },
        {
          "duration": 0.125,
          "durationTicks": 192,
          "midi": 0,
          "name": "C-1",
          "ticks": 198144,
          "time": 129,
          "velocity": 0.2992125984251969
        },
        {
          "duration": 0.125,
          "durationTicks": 192,
          "midi": 0,
          "name": "C-1",
          "ticks": 199680,
          "time": 130,
          "velocity": 0.2992125984251969
        },
        {
          "duration": 0.125,
          "durationTicks": 192,
          "midi": 0,
          "name": "C-1",
          "ticks": 201216,
          "time": 131,
          "velocity": 0.2992125984251969
        },
        {
          "duration": 0.125,
          "durationTicks": 192,
          "midi": 0,
          "name": "C-1",
          "ticks": 202752,
          "time": 132,
          "velocity": 0.2992125984251969
        }
      ],
      "endOfTrackTicks": 202944
    },
    {
      "channel": 4,
      "controlChanges": {},
      "pitchBends": [],
      "instrument": {
        "family": "piano",
        "number": 0,
        "name": "acoustic grand piano"
      },
      "name": "Electric Piano",
      "notes": [
        {
          "duration": 0.125,
          "durationTicks": 192,
          "midi": 83,
          "name": "B5",
          "ticks": 2688,
          "time": 1.75,
          "velocity": 0.3464566929133858
        },
        {
          "duration": 0.125,
          "durationTicks": 192,
          "midi": 71,
          "name": "B4",
          "ticks": 2688,
          "time": 1.75,
          "velocity": 0.3464566929133858
        },
        {
          "duration": 0.125,
          "durationTicks": 192,
          "midi": 73,
          "name": "C#5",
          "ticks": 2880,
          "time": 1.875,
          "velocity": 0.3464566929133858
        },
        {
          "duration": 0.125,
          "durationTicks": 192,
          "midi": 85,
          "name": "C#6",
          "ticks": 2880,
          "time": 1.875,
          "velocity": 0.3464566929133858
        },
        {
          "duration": 0.25,
          "durationTicks": 384,
          "midi": 88,
          "name": "E6",
          "ticks": 3072,
          "time": 2,
          "velocity": 0.3464566929133858
        },
        {
          "duration": 0.375,
          "durationTicks": 576,
          "midi": 76,
          "name": "E5",
          "ticks": 3072,
          "time": 2,
          "velocity": 0.3464566929133858
        },
        {
          "duration": 0.0625,
          "durationTicks": 96,
          "midi": 90,
          "name": "F#6",
          "ticks": 3456,
          "time": 2.25,
          "velocity": 0.23622047244094488
        },
        {
          "duration": 0.0625,
          "durationTicks": 96,
          "midi": 88,
          "name": "E6",
          "ticks": 3552,
          "time": 2.3125,
          "velocity": 0.23622047244094488
        },
        {
          "duration": 0.375,
          "durationTicks": 576,
          "midi": 74,
          "name": "D5",
          "ticks": 3648,
          "time": 2.375,
          "velocity": 0.3464566929133858
        },
        {
          "duration": 0.375,
          "durationTicks": 576,
          "midi": 86,
          "name": "D6",
          "ticks": 3648,
          "time": 2.375,
          "velocity": 0.3464566929133858
        },
        {
          "duration": 0.25,
          "durationTicks": 384,
          "midi": 73,
          "name": "C#5",
          "ticks": 4224,
          "time": 2.75,
          "velocity": 0.3464566929133858
        },
        {
          "duration": 0.25,
          "durationTicks": 384,
          "midi": 85,
          "name": "C#6",
          "ticks": 4224,
          "time": 2.75,
          "velocity": 0.3464566929133858
        },
        {
          "duration": 0.5,
          "durationTicks": 768,
          "midi": 71,
          "name": "B4",
          "ticks": 4608,
          "time": 3,
          "velocity": 0.3464566929133858
        },
        {
          "duration": 0.5,
          "durationTicks": 768,
          "midi": 83,
          "name": "B5",
          "ticks": 4608,
          "time": 3,
          "velocity": 0.3464566929133858
        },
        {
          "duration": 0.75,
          "durationTicks": 1152,
          "midi": 90,
          "name": "F#6",
          "ticks": 5376,
          "time": 3.5,
          "velocity": 0.3464566929133858
        },
        {
          "duration": 0.75,
          "durationTicks": 1152,
          "midi": 78,
          "name": "F#5",
          "ticks": 5376,
          "time": 3.5,
          "velocity": 0.3464566929133858
        },
        {
          "duration": 1,
          "durationTicks": 1536,
          "midi": 62,
          "name": "D4",
          "ticks": 12288,
          "time": 8,
          "velocity": 0.1968503937007874
        },
        {
          "duration": 1,
          "durationTicks": 1536,
          "midi": 74,
          "name": "D5",
          "ticks": 12288,
          "time": 8,
          "velocity": 0.3937007874015748
        },
        {
          "duration": 1,
          "durationTicks": 1536,
          "midi": 64,
          "name": "E4",
          "ticks": 13824,
          "time": 9,
          "velocity": 0.1968503937007874
        },
        {
          "duration": 1,
          "durationTicks": 1536,
          "midi": 76,
          "name": "E5",
          "ticks": 13824,
          "time": 9,
          "velocity": 0.3937007874015748
        },
        {
          "duration": 0.375,
          "durationTicks": 576,
          "midi": 78,
          "name": "F#5",
          "ticks": 15360,
          "time": 10,
          "velocity": 0.3937007874015748
        },
        {
          "duration": 0.375,
          "durationTicks": 576,
          "midi": 66,
          "name": "F#4",
          "ticks": 15360,
          "time": 10,
          "velocity": 0.1968503937007874
        },
        {
          "duration": 0.375,
          "durationTicks": 576,
          "midi": 83,
          "name": "B5",
          "ticks": 15936,
          "time": 10.375,
          "velocity": 0.3937007874015748
        },
        {
          "duration": 0.375,
          "durationTicks": 576,
          "midi": 71,
          "name": "B4",
          "ticks": 15936,
          "time": 10.375,
          "velocity": 0.1968503937007874
        },
        {
          "duration": 0.25,
          "durationTicks": 384,
          "midi": 70,
          "name": "A#4",
          "ticks": 16512,
          "time": 10.75,
          "velocity": 0.1968503937007874
        },
        {
          "duration": 0.25,
          "durationTicks": 384,
          "midi": 82,
          "name": "A#5",
          "ticks": 16512,
          "time": 10.75,
          "velocity": 0.3937007874015748
        },
        {
          "duration": 0.375,
          "durationTicks": 576,
          "midi": 71,
          "name": "B4",
          "ticks": 16896,
          "time": 11,
          "velocity": 0.1968503937007874
        },
        {
          "duration": 0.375,
          "durationTicks": 576,
          "midi": 83,
          "name": "B5",
          "ticks": 16896,
          "time": 11,
          "velocity": 0.3937007874015748
        },
        {
          "duration": 0.375,
          "durationTicks": 576,
          "midi": 66,
          "name": "F#4",
          "ticks": 17472,
          "time": 11.375,
          "velocity": 0.1968503937007874
        },
        {
          "duration": 0.375,
          "durationTicks": 576,
          "midi": 78,
          "name": "F#5",
          "ticks": 17472,
          "time": 11.375,
          "velocity": 0.3937007874015748
        },
        {
          "duration": 0.25,
          "durationTicks": 384,
          "midi": 74,
          "name": "D5",
          "ticks": 18048,
          "time": 11.75,
          "velocity": 0.3937007874015748
        },
        {
          "duration": 0.25,
          "durationTicks": 384,
          "midi": 62,
          "name": "D4",
          "ticks": 18048,
          "time": 11.75,
          "velocity": 0.1968503937007874
        },
        {
          "duration": 0.375,
          "durationTicks": 576,
          "midi": 59,
          "name": "B3",
          "ticks": 18432,
          "time": 12,
          "velocity": 0.1968503937007874
        },
        {
          "duration": 0.375,
          "durationTicks": 576,
          "midi": 71,
          "name": "B4",
          "ticks": 18432,
          "time": 12,
          "velocity": 0.3937007874015748
        },
        {
          "duration": 0.375,
          "durationTicks": 576,
          "midi": 73,
          "name": "C#5",
          "ticks": 19008,
          "time": 12.375,
          "velocity": 0.3937007874015748
        },
        {
          "duration": 0.375,
          "durationTicks": 576,
          "midi": 61,
          "name": "C#4",
          "ticks": 19008,
          "time": 12.375,
          "velocity": 0.1968503937007874
        },
        {
          "duration": 0.25,
          "durationTicks": 384,
          "midi": 74,
          "name": "D5",
          "ticks": 19584,
          "time": 12.75,
          "velocity": 0.3937007874015748
        },
        {
          "duration": 0.25,
          "durationTicks": 384,
          "midi": 62,
          "name": "D4",
          "ticks": 19584,
          "time": 12.75,
          "velocity": 0.1968503937007874
        },
        {
          "duration": 3,
          "durationTicks": 4608,
          "midi": 73,
          "name": "C#5",
          "ticks": 19968,
          "time": 13,
          "velocity": 0.3937007874015748
        },
        {
          "duration": 3,
          "durationTicks": 4608,
          "midi": 61,
          "name": "C#4",
          "ticks": 19968,
          "time": 13,
          "velocity": 0.1968503937007874
        },
        {
          "duration": 1,
          "durationTicks": 1536,
          "midi": 74,
          "name": "D5",
          "ticks": 24576,
          "time": 16,
          "velocity": 0.3937007874015748
        },
        {
          "duration": 1,
          "durationTicks": 1536,
          "midi": 62,
          "name": "D4",
          "ticks": 24576,
          "time": 16,
          "velocity": 0.1968503937007874
        },
        {
          "duration": 0.75,
          "durationTicks": 1152,
          "midi": 64,
          "name": "E4",
          "ticks": 26112,
          "time": 17,
          "velocity": 0.1968503937007874
        },
        {
          "duration": 0.75,
          "durationTicks": 1152,
          "midi": 76,
          "name": "E5",
          "ticks": 26112,
          "time": 17,
          "velocity": 0.3937007874015748
        },
        {
          "duration": 0.125,
          "durationTicks": 192,
          "midi": 74,
          "name": "D5",
          "ticks": 27264,
          "time": 17.75,
          "velocity": 0.3937007874015748
        },
        {
          "duration": 0.125,
          "durationTicks": 192,
          "midi": 62,
          "name": "D4",
          "ticks": 27264,
          "time": 17.75,
          "velocity": 0.1968503937007874
        },
        {
          "duration": 0.125,
          "durationTicks": 192,
          "midi": 64,
          "name": "E4",
          "ticks": 27456,
          "time": 17.875,
          "velocity": 0.1968503937007874
        },
        {
          "duration": 0.125,
          "durationTicks": 192,
          "midi": 76,
          "name": "E5",
          "ticks": 27456,
          "time": 17.875,
          "velocity": 0.3937007874015748
        },
        {
          "duration": 0.375,
          "durationTicks": 576,
          "midi": 78,
          "name": "F#5",
          "ticks": 27648,
          "time": 18,
          "velocity": 0.3937007874015748
        },
        {
          "duration": 0.375,
          "durationTicks": 576,
          "midi": 66,
          "name": "F#4",
          "ticks": 27648,
          "time": 18,
          "velocity": 0.1968503937007874
        },
        {
          "duration": 0.375,
          "durationTicks": 576,
          "midi": 71,
          "name": "B4",
          "ticks": 28224,
          "time": 18.375,
          "velocity": 0.1968503937007874
        },
        {
          "duration": 0.375,
          "durationTicks": 576,
          "midi": 83,
          "name": "B5",
          "ticks": 28224,
          "time": 18.375,
          "velocity": 0.3937007874015748
        },
        {
          "duration": 0.25,
          "durationTicks": 384,
          "midi": 85,
          "name": "C#6",
          "ticks": 28800,
          "time": 18.75,
          "velocity": 0.3937007874015748
        },
        {
          "duration": 0.25,
          "durationTicks": 384,
          "midi": 73,
          "name": "C#5",
          "ticks": 28800,
          "time": 18.75,
          "velocity": 0.1968503937007874
        },
        {
          "duration": 0.75,
          "durationTicks": 1152,
          "midi": 83,
          "name": "B5",
          "ticks": 29184,
          "time": 19,
          "velocity": 0.3937007874015748
        },
        {
          "duration": 0.75,
          "durationTicks": 1152,
          "midi": 71,
          "name": "B4",
          "ticks": 29184,
          "time": 19,
          "velocity": 0.1968503937007874
        },
        {
          "duration": 0.125,
          "durationTicks": 192,
          "midi": 83,
          "name": "B5",
          "ticks": 30336,
          "time": 19.75,
          "velocity": 0.3937007874015748
        },
        {
          "duration": 0.125,
          "durationTicks": 192,
          "midi": 62,
          "name": "D4",
          "ticks": 30336,
          "time": 19.75,
          "velocity": 0.1968503937007874
        },
        {
          "duration": 0.125,
          "durationTicks": 192,
          "midi": 74,
          "name": "D5",
          "ticks": 30336,
          "time": 19.75,
          "velocity": 0.3937007874015748
        },
        {
          "duration": 0.125,
          "durationTicks": 192,
          "midi": 71,
          "name": "B4",
          "ticks": 30336,
          "time": 19.75,
          "velocity": 0.1968503937007874
        },
        {
          "duration": 0.125,
          "durationTicks": 192,
          "midi": 64,
          "name": "E4",
          "ticks": 30528,
          "time": 19.875,
          "velocity": 0.1968503937007874
        },
        {
          "duration": 0.125,
          "durationTicks": 192,
          "midi": 76,
          "name": "E5",
          "ticks": 30528,
          "time": 19.875,
          "velocity": 0.3937007874015748
        },
        {
          "duration": 0.125,
          "durationTicks": 192,
          "midi": 73,
          "name": "C#5",
          "ticks": 30528,
          "time": 19.875,
          "velocity": 0.1968503937007874
        },
        {
          "duration": 0.125,
          "durationTicks": 192,
          "midi": 85,
          "name": "C#6",
          "ticks": 30528,
          "time": 19.875,
          "velocity": 0.3937007874015748
        },
        {
          "duration": 0.375,
          "durationTicks": 576,
          "midi": 88,
          "name": "E6",
          "ticks": 30720,
          "time": 20,
          "velocity": 0.3937007874015748
        },
        {
          "duration": 0.375,
          "durationTicks": 576,
          "midi": 79,
          "name": "G5",
          "ticks": 30720,
          "time": 20,
          "velocity": 0.3937007874015748
        },
        {
          "duration": 0.375,
          "durationTicks": 576,
          "midi": 67,
          "name": "G4",
          "ticks": 30720,
          "time": 20,
          "velocity": 0.1968503937007874
        },
        {
          "duration": 0.375,
          "durationTicks": 576,
          "midi": 76,
          "name": "E5",
          "ticks": 30720,
          "time": 20,
          "velocity": 0.1968503937007874
        },
        {
          "duration": 0.375,
          "durationTicks": 576,
          "midi": 66,
          "name": "F#4",
          "ticks": 31296,
          "time": 20.375,
          "velocity": 0.1968503937007874
        },
        {
          "duration": 0.375,
          "durationTicks": 576,
          "midi": 86,
          "name": "D6",
          "ticks": 31296,
          "time": 20.375,
          "velocity": 0.3937007874015748
        },
        {
          "duration": 0.375,
          "durationTicks": 576,
          "midi": 74,
          "name": "D5",
          "ticks": 31296,
          "time": 20.375,
          "velocity": 0.1968503937007874
        },
        {
          "duration": 0.375,
          "durationTicks": 576,
          "midi": 78,
          "name": "F#5",
          "ticks": 31296,
          "time": 20.375,
          "velocity": 0.3937007874015748
        },
        {
          "duration": 0.25,
          "durationTicks": 384,
          "midi": 64,
          "name": "E4",
          "ticks": 31872,
          "time": 20.75,
          "velocity": 0.1968503937007874
        },
        {
          "duration": 0.25,
          "durationTicks": 384,
          "midi": 85,
          "name": "C#6",
          "ticks": 31872,
          "time": 20.75,
          "velocity": 0.3937007874015748
        },
        {
          "duration": 0.25,
          "durationTicks": 384,
          "midi": 73,
          "name": "C#5",
          "ticks": 31872,
          "time": 20.75,
          "velocity": 0.1968503937007874
        },
        {
          "duration": 0.25,
          "durationTicks": 384,
          "midi": 76,
          "name": "E5",
          "ticks": 31872,
          "time": 20.75,
          "velocity": 0.3937007874015748
        },
        {
          "duration": 0.5,
          "durationTicks": 768,
          "midi": 83,
          "name": "B5",
          "ticks": 32256,
          "time": 21,
          "velocity": 0.3937007874015748
        },
        {
          "duration": 0.5,
          "durationTicks": 768,
          "midi": 74,
          "name": "D5",
          "ticks": 32256,
          "time": 21,
          "velocity": 0.3937007874015748
        },
        {
          "duration": 0.5,
          "durationTicks": 768,
          "midi": 71,
          "name": "B4",
          "ticks": 32256,
          "time": 21,
          "velocity": 0.1968503937007874
        },
        {
          "duration": 0.5,
          "durationTicks": 768,
          "midi": 62,
          "name": "D4",
          "ticks": 32256,
          "time": 21,
          "velocity": 0.1968503937007874
        },
        {
          "duration": 0.25,
          "durationTicks": 384,
          "midi": 66,
          "name": "F#4",
          "ticks": 33024,
          "time": 21.5,
          "velocity": 0.1968503937007874
        },
        {
          "duration": 0.25,
          "durationTicks": 384,
          "midi": 62,
          "name": "D4",
          "ticks": 33024,
          "time": 21.5,
          "velocity": 0.1968503937007874
        },
        {
          "duration": 0.25,
          "durationTicks": 384,
          "midi": 78,
          "name": "F#5",
          "ticks": 33024,
          "time": 21.5,
          "velocity": 0.3937007874015748
        },
        {
          "duration": 0.25,
          "durationTicks": 384,
          "midi": 74,
          "name": "D5",
          "ticks": 33024,
          "time": 21.5,
          "velocity": 0.3937007874015748
        },
        {
          "duration": 0.5,
          "durationTicks": 768,
          "midi": 59,
          "name": "B3",
          "ticks": 33408,
          "time": 21.75,
          "velocity": 0.1968503937007874
        },
        {
          "duration": 0.5,
          "durationTicks": 768,
          "midi": 71,
          "name": "B4",
          "ticks": 33408,
          "time": 21.75,
          "velocity": 0.3937007874015748
        },
        {
          "duration": 0.5,
          "durationTicks": 768,
          "midi": 67,
          "name": "G4",
          "ticks": 33408,
          "time": 21.75,
          "velocity": 0.1968503937007874
        },
        {
          "duration": 0.5,
          "durationTicks": 768,
          "midi": 79,
          "name": "G5",
          "ticks": 33408,
          "time": 21.75,
          "velocity": 0.3937007874015748
        },
        {
          "duration": 0.25,
          "durationTicks": 384,
          "midi": 73,
          "name": "C#5",
          "ticks": 34176,
          "time": 22.25,
          "velocity": 0.1968503937007874
        },
        {
          "duration": 0.25,
          "durationTicks": 384,
          "midi": 85,
          "name": "C#6",
          "ticks": 34176,
          "time": 22.25,
          "velocity": 0.3937007874015748
        },
        {
          "duration": 0.25,
          "durationTicks": 384,
          "midi": 77,
          "name": "F5",
          "ticks": 34176,
          "time": 22.25,
          "velocity": 0.3937007874015748
        },
        {
          "duration": 0.25,
          "durationTicks": 384,
          "midi": 65,
          "name": "F4",
          "ticks": 34176,
          "time": 22.25,
          "velocity": 0.1968503937007874
        },
        {
          "duration": 1.25,
          "durationTicks": 1920,
          "midi": 77,
          "name": "F5",
          "ticks": 34560,
          "time": 22.5,
          "velocity": 0.3937007874015748
        },
        {
          "duration": 1.25,
          "durationTicks": 1920,
          "midi": 73,
          "name": "C#5",
          "ticks": 34560,
          "time": 22.5,
          "velocity": 0.1968503937007874
        },
        {
          "duration": 1.25,
          "durationTicks": 1920,
          "midi": 85,
          "name": "C#6",
          "ticks": 34560,
          "time": 22.5,
          "velocity": 0.3937007874015748
        },
        {
          "duration": 1.25,
          "durationTicks": 1920,
          "midi": 65,
          "name": "F4",
          "ticks": 34560,
          "time": 22.5,
          "velocity": 0.1968503937007874
        },
        {
          "duration": 0.125,
          "durationTicks": 192,
          "midi": 73,
          "name": "C#5",
          "ticks": 36480,
          "time": 23.75,
          "velocity": 0.23622047244094488
        },
        {
          "duration": 0.125,
          "durationTicks": 192,
          "midi": 85,
          "name": "C#6",
          "ticks": 36480,
          "time": 23.75,
          "velocity": 0.3937007874015748
        },
        {
          "duration": 0.125,
          "durationTicks": 192,
          "midi": 86,
          "name": "D6",
          "ticks": 36672,
          "time": 23.875,
          "velocity": 0.3937007874015748
        },
        {
          "duration": 0.125,
          "durationTicks": 192,
          "midi": 74,
          "name": "D5",
          "ticks": 36672,
          "time": 23.875,
          "velocity": 0.23622047244094488
        },
        {
          "duration": 0.375,
          "durationTicks": 576,
          "midi": 88,
          "name": "E6",
          "ticks": 36864,
          "time": 24,
          "velocity": 0.3937007874015748
        },
        {
          "duration": 0.375,
          "durationTicks": 576,
          "midi": 76,
          "name": "E5",
          "ticks": 36864,
          "time": 24,
          "velocity": 0.23622047244094488
        },
        {
          "duration": 0.375,
          "durationTicks": 576,
          "midi": 74,
          "name": "D5",
          "ticks": 37440,
          "time": 24.375,
          "velocity": 0.23622047244094488
        },
        {
          "duration": 0.375,
          "durationTicks": 576,
          "midi": 86,
          "name": "D6",
          "ticks": 37440,
          "time": 24.375,
          "velocity": 0.3937007874015748
        },
        {
          "duration": 0.25,
          "durationTicks": 384,
          "midi": 73,
          "name": "C#5",
          "ticks": 38016,
          "time": 24.75,
          "velocity": 0.23622047244094488
        },
        {
          "duration": 0.25,
          "durationTicks": 384,
          "midi": 85,
          "name": "C#6",
          "ticks": 38016,
          "time": 24.75,
          "velocity": 0.3937007874015748
        },
        {
          "duration": 0.5,
          "durationTicks": 768,
          "midi": 71,
          "name": "B4",
          "ticks": 38400,
          "time": 25,
          "velocity": 0.23622047244094488
        },
        {
          "duration": 0.5,
          "durationTicks": 768,
          "midi": 83,
          "name": "B5",
          "ticks": 38400,
          "time": 25,
          "velocity": 0.3937007874015748
        },
        {
          "duration": 2.25,
          "durationTicks": 3456,
          "midi": 78,
          "name": "F#5",
          "ticks": 39168,
          "time": 25.5,
          "velocity": 0.3937007874015748
        },
        {
          "duration": 2.25,
          "durationTicks": 3456,
          "midi": 66,
          "name": "F#4",
          "ticks": 39168,
          "time": 25.5,
          "velocity": 0.23622047244094488
        },
        {
          "duration": 0.125,
          "durationTicks": 192,
          "midi": 85,
          "name": "C#6",
          "ticks": 42624,
          "time": 27.75,
          "velocity": 0.3937007874015748
        },
        {
          "duration": 0.125,
          "durationTicks": 192,
          "midi": 73,
          "name": "C#5",
          "ticks": 42624,
          "time": 27.75,
          "velocity": 0.23622047244094488
        },
        {
          "duration": 0.125,
          "durationTicks": 192,
          "midi": 74,
          "name": "D5",
          "ticks": 42816,
          "time": 27.875,
          "velocity": 0.23622047244094488
        },
        {
          "duration": 0.125,
          "durationTicks": 192,
          "midi": 86,
          "name": "D6",
          "ticks": 42816,
          "time": 27.875,
          "velocity": 0.3937007874015748
        },
        {
          "duration": 0.375,
          "durationTicks": 576,
          "midi": 76,
          "name": "E5",
          "ticks": 43008,
          "time": 28,
          "velocity": 0.23622047244094488
        },
        {
          "duration": 0.375,
          "durationTicks": 576,
          "midi": 88,
          "name": "E6",
          "ticks": 43008,
          "time": 28,
          "velocity": 0.3937007874015748
        },
        {
          "duration": 0.375,
          "durationTicks": 576,
          "midi": 86,
          "name": "D6",
          "ticks": 43584,
          "time": 28.375,
          "velocity": 0.3937007874015748
        },
        {
          "duration": 0.375,
          "durationTicks": 576,
          "midi": 74,
          "name": "D5",
          "ticks": 43584,
          "time": 28.375,
          "velocity": 0.23622047244094488
        },
        {
          "duration": 0.25,
          "durationTicks": 384,
          "midi": 73,
          "name": "C#5",
          "ticks": 44160,
          "time": 28.75,
          "velocity": 0.23622047244094488
        },
        {
          "duration": 0.25,
          "durationTicks": 384,
          "midi": 85,
          "name": "C#6",
          "ticks": 44160,
          "time": 28.75,
          "velocity": 0.3937007874015748
        },
        {
          "duration": 0.5,
          "durationTicks": 768,
          "midi": 83,
          "name": "B5",
          "ticks": 44544,
          "time": 29,
          "velocity": 0.3937007874015748
        },
        {
          "duration": 0.5,
          "durationTicks": 768,
          "midi": 71,
          "name": "B4",
          "ticks": 44544,
          "time": 29,
          "velocity": 0.23622047244094488
        },
        {
          "duration": 2.25,
          "durationTicks": 3456,
          "midi": 78,
          "name": "F#5",
          "ticks": 45312,
          "time": 29.5,
          "velocity": 0.23622047244094488
        },
        {
          "duration": 2.25,
          "durationTicks": 3456,
          "midi": 90,
          "name": "F#6",
          "ticks": 45312,
          "time": 29.5,
          "velocity": 0.3937007874015748
        },
        {
          "duration": 0.125,
          "durationTicks": 192,
          "midi": 81,
          "name": "A5",
          "ticks": 48768,
          "time": 31.75,
          "velocity": 0.15748031496062992
        },
        {
          "duration": 0.125,
          "durationTicks": 192,
          "midi": 90,
          "name": "F#6",
          "ticks": 48768,
          "time": 31.75,
          "velocity": 0.3937007874015748
        },
        {
          "duration": 0.125,
          "durationTicks": 192,
          "midi": 78,
          "name": "F#5",
          "ticks": 48768,
          "time": 31.75,
          "velocity": 0.23622047244094488
        },
        {
          "duration": 0.125,
          "durationTicks": 192,
          "midi": 91,
          "name": "G6",
          "ticks": 48960,
          "time": 31.875,
          "velocity": 0.3937007874015748
        },
        {
          "duration": 0.125,
          "durationTicks": 192,
          "midi": 79,
          "name": "G5",
          "ticks": 48960,
          "time": 31.875,
          "velocity": 0.23622047244094488
        },
        {
          "duration": 0.125,
          "durationTicks": 192,
          "midi": 83,
          "name": "B5",
          "ticks": 48960,
          "time": 31.875,
          "velocity": 0.15748031496062992
        },
        {
          "duration": 0.375,
          "durationTicks": 576,
          "midi": 93,
          "name": "A6",
          "ticks": 49152,
          "time": 32,
          "velocity": 0.3937007874015748
        },
        {
          "duration": 0.375,
          "durationTicks": 576,
          "midi": 84,
          "name": "C6",
          "ticks": 49152,
          "time": 32,
          "velocity": 0.15748031496062992
        },
        {
          "duration": 0.375,
          "durationTicks": 576,
          "midi": 81,
          "name": "A5",
          "ticks": 49152,
          "time": 32,
          "velocity": 0.23622047244094488
        },
        {
          "duration": 0.375,
          "durationTicks": 576,
          "midi": 83,
          "name": "B5",
          "ticks": 49728,
          "time": 32.375,
          "velocity": 0.15748031496062992
        },
        {
          "duration": 0.375,
          "durationTicks": 576,
          "midi": 79,
          "name": "G5",
          "ticks": 49728,
          "time": 32.375,
          "velocity": 0.23622047244094488
        },
        {
          "duration": 0.375,
          "durationTicks": 576,
          "midi": 91,
          "name": "G6",
          "ticks": 49728,
          "time": 32.375,
          "velocity": 0.3937007874015748
        },
        {
          "duration": 0.25,
          "durationTicks": 384,
          "midi": 78,
          "name": "F#5",
          "ticks": 50304,
          "time": 32.75,
          "velocity": 0.23622047244094488
        },
        {
          "duration": 0.25,
          "durationTicks": 384,
          "midi": 90,
          "name": "F#6",
          "ticks": 50304,
          "time": 32.75,
          "velocity": 0.3937007874015748
        },
        {
          "duration": 0.25,
          "durationTicks": 384,
          "midi": 81,
          "name": "A5",
          "ticks": 50304,
          "time": 32.75,
          "velocity": 0.15748031496062992
        },
        {
          "duration": 1,
          "durationTicks": 1536,
          "midi": 76,
          "name": "E5",
          "ticks": 50688,
          "time": 33,
          "velocity": 0.23622047244094488
        },
        {
          "duration": 1,
          "durationTicks": 1536,
          "midi": 79,
          "name": "G5",
          "ticks": 50688,
          "time": 33,
          "velocity": 0.15748031496062992
        },
        {
          "duration": 1,
          "durationTicks": 1536,
          "midi": 88,
          "name": "E6",
          "ticks": 50688,
          "time": 33,
          "velocity": 0.3937007874015748
        },
        {
          "duration": 0.375,
          "durationTicks": 576,
          "midi": 79,
          "name": "G5",
          "ticks": 52224,
          "time": 34,
          "velocity": 0.23622047244094488
        },
        {
          "duration": 0.375,
          "durationTicks": 576,
          "midi": 91,
          "name": "G6",
          "ticks": 52224,
          "time": 34,
          "velocity": 0.3937007874015748
        },
        {
          "duration": 0.375,
          "durationTicks": 576,
          "midi": 82,
          "name": "A#5",
          "ticks": 52224,
          "time": 34,
          "velocity": 0.15748031496062992
        },
        {
          "duration": 0.375,
          "durationTicks": 576,
          "midi": 77,
          "name": "F5",
          "ticks": 52800,
          "time": 34.375,
          "velocity": 0.23622047244094488
        },
        {
          "duration": 0.375,
          "durationTicks": 576,
          "midi": 80,
          "name": "G#5",
          "ticks": 52800,
          "time": 34.375,
          "velocity": 0.15748031496062992
        },
        {
          "duration": 0.375,
          "durationTicks": 576,
          "midi": 89,
          "name": "F6",
          "ticks": 52800,
          "time": 34.375,
          "velocity": 0.3937007874015748
        },
        {
          "duration": 0.25,
          "durationTicks": 384,
          "midi": 76,
          "name": "E5",
          "ticks": 53376,
          "time": 34.75,
          "velocity": 0.23622047244094488
        },
        {
          "duration": 0.25,
          "durationTicks": 384,
          "midi": 79,
          "name": "G5",
          "ticks": 53376,
          "time": 34.75,
          "velocity": 0.15748031496062992
        },
        {
          "duration": 0.25,
          "durationTicks": 384,
          "midi": 88,
          "name": "E6",
          "ticks": 53376,
          "time": 34.75,
          "velocity": 0.3937007874015748
        },
        {
          "duration": 0.5,
          "durationTicks": 768,
          "midi": 77,
          "name": "F5",
          "ticks": 53760,
          "time": 35,
          "velocity": 0.15748031496062992
        },
        {
          "duration": 0.5,
          "durationTicks": 768,
          "midi": 74,
          "name": "D5",
          "ticks": 53760,
          "time": 35,
          "velocity": 0.23622047244094488
        },
        {
          "duration": 0.5,
          "durationTicks": 768,
          "midi": 86,
          "name": "D6",
          "ticks": 53760,
          "time": 35,
          "velocity": 0.3937007874015748
        },
        {
          "duration": 0.375,
          "durationTicks": 576,
          "midi": 89,
          "name": "F6",
          "ticks": 54528,
          "time": 35.5,
          "velocity": 0.3937007874015748
        },
        {
          "duration": 0.375,
          "durationTicks": 576,
          "midi": 77,
          "name": "F5",
          "ticks": 54528,
          "time": 35.5,
          "velocity": 0.23622047244094488
        },
        {
          "duration": 0.375,
          "durationTicks": 576,
          "midi": 87,
          "name": "D#6",
          "ticks": 55104,
          "time": 35.875,
          "velocity": 0.3937007874015748
        },
        {
          "duration": 0.375,
          "durationTicks": 576,
          "midi": 75,
          "name": "D#5",
          "ticks": 55104,
          "time": 35.875,
          "velocity": 0.23622047244094488
        },
        {
          "duration": 0.375,
          "durationTicks": 576,
          "midi": 86,
          "name": "D6",
          "ticks": 55680,
          "time": 36.25,
          "velocity": 0.3937007874015748
        },
        {
          "duration": 0.375,
          "durationTicks": 576,
          "midi": 74,
          "name": "D5",
          "ticks": 55680,
          "time": 36.25,
          "velocity": 0.23622047244094488
        },
        {
          "duration": 0.375,
          "durationTicks": 576,
          "midi": 72,
          "name": "C5",
          "ticks": 56256,
          "time": 36.625,
          "velocity": 0.23622047244094488
        },
        {
          "duration": 0.375,
          "durationTicks": 576,
          "midi": 84,
          "name": "C6",
          "ticks": 56256,
          "time": 36.625,
          "velocity": 0.3937007874015748
        },
        {
          "duration": 0.375,
          "durationTicks": 576,
          "midi": 67,
          "name": "G4",
          "ticks": 56832,
          "time": 37,
          "velocity": 0.23622047244094488
        },
        {
          "duration": 0.375,
          "durationTicks": 576,
          "midi": 79,
          "name": "G5",
          "ticks": 56832,
          "time": 37,
          "velocity": 0.3937007874015748
        },
        {
          "duration": 0.375,
          "durationTicks": 576,
          "midi": 75,
          "name": "D#5",
          "ticks": 57408,
          "time": 37.375,
          "velocity": 0.3937007874015748
        },
        {
          "duration": 0.375,
          "durationTicks": 576,
          "midi": 63,
          "name": "D#4",
          "ticks": 57408,
          "time": 37.375,
          "velocity": 0.23622047244094488
        },
        {
          "duration": 0.25,
          "durationTicks": 384,
          "midi": 60,
          "name": "C4",
          "ticks": 57984,
          "time": 37.75,
          "velocity": 0.23622047244094488
        },
        {
          "duration": 0.25,
          "durationTicks": 384,
          "midi": 72,
          "name": "C5",
          "ticks": 57984,
          "time": 37.75,
          "velocity": 0.3937007874015748
        },
        {
          "duration": 0.75,
          "durationTicks": 1152,
          "midi": 77,
          "name": "F5",
          "ticks": 58368,
          "time": 38,
          "velocity": 0.3937007874015748
        },
        {
          "duration": 0.75,
          "durationTicks": 1152,
          "midi": 65,
          "name": "F4",
          "ticks": 58368,
          "time": 38,
          "velocity": 0.1968503937007874
        },
        {
          "duration": 0.25,
          "durationTicks": 384,
          "midi": 84,
          "name": "C6",
          "ticks": 59520,
          "time": 38.75,
          "velocity": 0.3937007874015748
        },
        {
          "duration": 0.25,
          "durationTicks": 384,
          "midi": 77,
          "name": "F5",
          "ticks": 59520,
          "time": 38.75,
          "velocity": 0.3937007874015748
        },
        {
          "duration": 0.25,
          "durationTicks": 384,
          "midi": 80,
          "name": "G#5",
          "ticks": 59520,
          "time": 38.75,
          "velocity": 0.3937007874015748
        },
        {
          "duration": 0.25,
          "durationTicks": 384,
          "midi": 68,
          "name": "G#4",
          "ticks": 59520,
          "time": 38.75,
          "velocity": 0.1968503937007874
        },
        {
          "duration": 0.25,
          "durationTicks": 384,
          "midi": 65,
          "name": "F4",
          "ticks": 59520,
          "time": 38.75,
          "velocity": 0.1968503937007874
        },
        {
          "duration": 0.25,
          "durationTicks": 384,
          "midi": 72,
          "name": "C5",
          "ticks": 59520,
          "time": 38.75,
          "velocity": 0.1968503937007874
        },
        {
          "duration": 2.75,
          "durationTicks": 4224,
          "midi": 68,
          "name": "G#4",
          "ticks": 59904,
          "time": 39,
          "velocity": 0.1968503937007874
        },
        {
          "duration": 2.75,
          "durationTicks": 4224,
          "midi": 65,
          "name": "F4",
          "ticks": 59904,
          "time": 39,
          "velocity": 0.1968503937007874
        },
        {
          "duration": 2.75,
          "durationTicks": 4224,
          "midi": 84,
          "name": "C6",
          "ticks": 59904,
          "time": 39,
          "velocity": 0.3937007874015748
        },
        {
          "duration": 2.75,
          "durationTicks": 4224,
          "midi": 77,
          "name": "F5",
          "ticks": 59904,
          "time": 39,
          "velocity": 0.3937007874015748
        },
        {
          "duration": 2.75,
          "durationTicks": 4224,
          "midi": 80,
          "name": "G#5",
          "ticks": 59904,
          "time": 39,
          "velocity": 0.3937007874015748
        },
        {
          "duration": 2.75,
          "durationTicks": 4224,
          "midi": 72,
          "name": "C5",
          "ticks": 59904,
          "time": 39,
          "velocity": 0.1968503937007874
        },
        {
          "duration": 0.25,
          "durationTicks": 384,
          "midi": 81,
          "name": "A5",
          "ticks": 64128,
          "time": 41.75,
          "velocity": 0.3937007874015748
        },
        {
          "duration": 0.25,
          "durationTicks": 384,
          "midi": 69,
          "name": "A4",
          "ticks": 64128,
          "time": 41.75,
          "velocity": 0.23622047244094488
        },
        {
          "duration": 0.75,
          "durationTicks": 1152,
          "midi": 83,
          "name": "B5",
          "ticks": 64512,
          "time": 42,
          "velocity": 0.3937007874015748
        },
        {
          "duration": 0.75,
          "durationTicks": 1152,
          "midi": 71,
          "name": "B4",
          "ticks": 64512,
          "time": 42,
          "velocity": 0.23622047244094488
        },
        {
          "duration": 0.25,
          "durationTicks": 384,
          "midi": 88,
          "name": "E6",
          "ticks": 65664,
          "time": 42.75,
          "velocity": 0.3937007874015748
        },
        {
          "duration": 0.25,
          "durationTicks": 384,
          "midi": 76,
          "name": "E5",
          "ticks": 65664,
          "time": 42.75,
          "velocity": 0.23622047244094488
        },
        {
          "duration": 2.75,
          "durationTicks": 4224,
          "midi": 76,
          "name": "E5",
          "ticks": 66048,
          "time": 43,
          "velocity": 0.23622047244094488
        },
        {
          "duration": 2.75,
          "durationTicks": 4224,
          "midi": 88,
          "name": "E6",
          "ticks": 66048,
          "time": 43,
          "velocity": 0.3937007874015748
        },
        {
          "duration": 1,
          "durationTicks": 1536,
          "midi": 74,
          "name": "D5",
          "ticks": 101376,
          "time": 66,
          "velocity": 0.3937007874015748
        },
        {
          "duration": 1,
          "durationTicks": 1536,
          "midi": 62,
          "name": "D4",
          "ticks": 101376,
          "time": 66,
          "velocity": 0.1968503937007874
        },
        {
          "duration": 1,
          "durationTicks": 1536,
          "midi": 76,
          "name": "E5",
          "ticks": 102912,
          "time": 67,
          "velocity": 0.3937007874015748
        },
        {
          "duration": 1,
          "durationTicks": 1536,
          "midi": 64,
          "name": "E4",
          "ticks": 102912,
          "time": 67,
          "velocity": 0.1968503937007874
        },
        {
          "duration": 0.375,
          "durationTicks": 576,
          "midi": 66,
          "name": "F#4",
          "ticks": 104448,
          "time": 68,
          "velocity": 0.1968503937007874
        },
        {
          "duration": 0.375,
          "durationTicks": 576,
          "midi": 78,
          "name": "F#5",
          "ticks": 104448,
          "time": 68,
          "velocity": 0.3937007874015748
        },
        {
          "duration": 0.375,
          "durationTicks": 576,
          "midi": 83,
          "name": "B5",
          "ticks": 105024,
          "time": 68.375,
          "velocity": 0.3937007874015748
        },
        {
          "duration": 0.375,
          "durationTicks": 576,
          "midi": 71,
          "name": "B4",
          "ticks": 105024,
          "time": 68.375,
          "velocity": 0.1968503937007874
        },
        {
          "duration": 0.25,
          "durationTicks": 384,
          "midi": 70,
          "name": "A#4",
          "ticks": 105600,
          "time": 68.75,
          "velocity": 0.1968503937007874
        },
        {
          "duration": 0.25,
          "durationTicks": 384,
          "midi": 82,
          "name": "A#5",
          "ticks": 105600,
          "time": 68.75,
          "velocity": 0.3937007874015748
        },
        {
          "duration": 0.375,
          "durationTicks": 576,
          "midi": 71,
          "name": "B4",
          "ticks": 105984,
          "time": 69,
          "velocity": 0.1968503937007874
        },
        {
          "duration": 0.375,
          "durationTicks": 576,
          "midi": 83,
          "name": "B5",
          "ticks": 105984,
          "time": 69,
          "velocity": 0.3937007874015748
        },
        {
          "duration": 0.375,
          "durationTicks": 576,
          "midi": 66,
          "name": "F#4",
          "ticks": 106560,
          "time": 69.375,
          "velocity": 0.1968503937007874
        },
        {
          "duration": 0.375,
          "durationTicks": 576,
          "midi": 78,
          "name": "F#5",
          "ticks": 106560,
          "time": 69.375,
          "velocity": 0.3937007874015748
        },
        {
          "duration": 0.25,
          "durationTicks": 384,
          "midi": 74,
          "name": "D5",
          "ticks": 107136,
          "time": 69.75,
          "velocity": 0.3937007874015748
        },
        {
          "duration": 0.25,
          "durationTicks": 384,
          "midi": 62,
          "name": "D4",
          "ticks": 107136,
          "time": 69.75,
          "velocity": 0.1968503937007874
        },
        {
          "duration": 0.375,
          "durationTicks": 576,
          "midi": 71,
          "name": "B4",
          "ticks": 107520,
          "time": 70,
          "velocity": 0.3937007874015748
        },
        {
          "duration": 0.375,
          "durationTicks": 576,
          "midi": 59,
          "name": "B3",
          "ticks": 107520,
          "time": 70,
          "velocity": 0.1968503937007874
        },
        {
          "duration": 0.375,
          "durationTicks": 576,
          "midi": 61,
          "name": "C#4",
          "ticks": 108096,
          "time": 70.375,
          "velocity": 0.1968503937007874
        },
        {
          "duration": 0.375,
          "durationTicks": 576,
          "midi": 73,
          "name": "C#5",
          "ticks": 108096,
          "time": 70.375,
          "velocity": 0.3937007874015748
        },
        {
          "duration": 0.25,
          "durationTicks": 384,
          "midi": 74,
          "name": "D5",
          "ticks": 108672,
          "time": 70.75,
          "velocity": 0.3937007874015748
        },
        {
          "duration": 0.25,
          "durationTicks": 384,
          "midi": 62,
          "name": "D4",
          "ticks": 108672,
          "time": 70.75,
          "velocity": 0.1968503937007874
        },
        {
          "duration": 3,
          "durationTicks": 4608,
          "midi": 61,
          "name": "C#4",
          "ticks": 109056,
          "time": 71,
          "velocity": 0.1968503937007874
        },
        {
          "duration": 3,
          "durationTicks": 4608,
          "midi": 73,
          "name": "C#5",
          "ticks": 109056,
          "time": 71,
          "velocity": 0.3937007874015748
        },
        {
          "duration": 1,
          "durationTicks": 1536,
          "midi": 74,
          "name": "D5",
          "ticks": 113664,
          "time": 74,
          "velocity": 0.3937007874015748
        },
        {
          "duration": 1,
          "durationTicks": 1536,
          "midi": 62,
          "name": "D4",
          "ticks": 113664,
          "time": 74,
          "velocity": 0.1968503937007874
        },
        {
          "duration": 0.75,
          "durationTicks": 1152,
          "midi": 76,
          "name": "E5",
          "ticks": 115200,
          "time": 75,
          "velocity": 0.3937007874015748
        },
        {
          "duration": 0.75,
          "durationTicks": 1152,
          "midi": 64,
          "name": "E4",
          "ticks": 115200,
          "time": 75,
          "velocity": 0.1968503937007874
        },
        {
          "duration": 0.125,
          "durationTicks": 192,
          "midi": 62,
          "name": "D4",
          "ticks": 116352,
          "time": 75.75,
          "velocity": 0.1968503937007874
        },
        {
          "duration": 0.125,
          "durationTicks": 192,
          "midi": 74,
          "name": "D5",
          "ticks": 116352,
          "time": 75.75,
          "velocity": 0.3937007874015748
        },
        {
          "duration": 0.125,
          "durationTicks": 192,
          "midi": 76,
          "name": "E5",
          "ticks": 116544,
          "time": 75.875,
          "velocity": 0.3937007874015748
        },
        {
          "duration": 0.125,
          "durationTicks": 192,
          "midi": 64,
          "name": "E4",
          "ticks": 116544,
          "time": 75.875,
          "velocity": 0.1968503937007874
        },
        {
          "duration": 0.375,
          "durationTicks": 576,
          "midi": 66,
          "name": "F#4",
          "ticks": 116736,
          "time": 76,
          "velocity": 0.1968503937007874
        },
        {
          "duration": 0.375,
          "durationTicks": 576,
          "midi": 78,
          "name": "F#5",
          "ticks": 116736,
          "time": 76,
          "velocity": 0.3937007874015748
        },
        {
          "duration": 0.375,
          "durationTicks": 576,
          "midi": 71,
          "name": "B4",
          "ticks": 117312,
          "time": 76.375,
          "velocity": 0.1968503937007874
        },
        {
          "duration": 0.375,
          "durationTicks": 576,
          "midi": 83,
          "name": "B5",
          "ticks": 117312,
          "time": 76.375,
          "velocity": 0.3937007874015748
        },
        {
          "duration": 0.25,
          "durationTicks": 384,
          "midi": 85,
          "name": "C#6",
          "ticks": 117888,
          "time": 76.75,
          "velocity": 0.3937007874015748
        },
        {
          "duration": 0.25,
          "durationTicks": 384,
          "midi": 73,
          "name": "C#5",
          "ticks": 117888,
          "time": 76.75,
          "velocity": 0.1968503937007874
        },
        {
          "duration": 0.75,
          "durationTicks": 1152,
          "midi": 71,
          "name": "B4",
          "ticks": 118272,
          "time": 77,
          "velocity": 0.1968503937007874
        },
        {
          "duration": 0.75,
          "durationTicks": 1152,
          "midi": 83,
          "name": "B5",
          "ticks": 118272,
          "time": 77,
          "velocity": 0.3937007874015748
        },
        {
          "duration": 0.125,
          "durationTicks": 192,
          "midi": 62,
          "name": "D4",
          "ticks": 119424,
          "time": 77.75,
          "velocity": 0.1968503937007874
        },
        {
          "duration": 0.125,
          "durationTicks": 192,
          "midi": 74,
          "name": "D5",
          "ticks": 119424,
          "time": 77.75,
          "velocity": 0.3937007874015748
        },
        {
          "duration": 0.125,
          "durationTicks": 192,
          "midi": 71,
          "name": "B4",
          "ticks": 119424,
          "time": 77.75,
          "velocity": 0.1968503937007874
        },
        {
          "duration": 0.125,
          "durationTicks": 192,
          "midi": 83,
          "name": "B5",
          "ticks": 119424,
          "time": 77.75,
          "velocity": 0.3937007874015748
        },
        {
          "duration": 0.125,
          "durationTicks": 192,
          "midi": 64,
          "name": "E4",
          "ticks": 119616,
          "time": 77.875,
          "velocity": 0.1968503937007874
        },
        {
          "duration": 0.125,
          "durationTicks": 192,
          "midi": 85,
          "name": "C#6",
          "ticks": 119616,
          "time": 77.875,
          "velocity": 0.3937007874015748
        },
        {
          "duration": 0.125,
          "durationTicks": 192,
          "midi": 73,
          "name": "C#5",
          "ticks": 119616,
          "time": 77.875,
          "velocity": 0.1968503937007874
        },
        {
          "duration": 0.125,
          "durationTicks": 192,
          "midi": 76,
          "name": "E5",
          "ticks": 119616,
          "time": 77.875,
          "velocity": 0.3937007874015748
        },
        {
          "duration": 0.375,
          "durationTicks": 576,
          "midi": 79,
          "name": "G5",
          "ticks": 119808,
          "time": 78,
          "velocity": 0.3937007874015748
        },
        {
          "duration": 0.375,
          "durationTicks": 576,
          "midi": 76,
          "name": "E5",
          "ticks": 119808,
          "time": 78,
          "velocity": 0.1968503937007874
        },
        {
          "duration": 0.375,
          "durationTicks": 576,
          "midi": 88,
          "name": "E6",
          "ticks": 119808,
          "time": 78,
          "velocity": 0.3937007874015748
        },
        {
          "duration": 0.375,
          "durationTicks": 576,
          "midi": 67,
          "name": "G4",
          "ticks": 119808,
          "time": 78,
          "velocity": 0.1968503937007874
        },
        {
          "duration": 0.375,
          "durationTicks": 576,
          "midi": 86,
          "name": "D6",
          "ticks": 120384,
          "time": 78.375,
          "velocity": 0.3937007874015748
        },
        {
          "duration": 0.375,
          "durationTicks": 576,
          "midi": 66,
          "name": "F#4",
          "ticks": 120384,
          "time": 78.375,
          "velocity": 0.1968503937007874
        },
        {
          "duration": 0.375,
          "durationTicks": 576,
          "midi": 78,
          "name": "F#5",
          "ticks": 120384,
          "time": 78.375,
          "velocity": 0.3937007874015748
        },
        {
          "duration": 0.375,
          "durationTicks": 576,
          "midi": 74,
          "name": "D5",
          "ticks": 120384,
          "time": 78.375,
          "velocity": 0.1968503937007874
        },
        {
          "duration": 0.25,
          "durationTicks": 384,
          "midi": 73,
          "name": "C#5",
          "ticks": 120960,
          "time": 78.75,
          "velocity": 0.1968503937007874
        },
        {
          "duration": 0.25,
          "durationTicks": 384,
          "midi": 64,
          "name": "E4",
          "ticks": 120960,
          "time": 78.75,
          "velocity": 0.1968503937007874
        },
        {
          "duration": 0.25,
          "durationTicks": 384,
          "midi": 76,
          "name": "E5",
          "ticks": 120960,
          "time": 78.75,
          "velocity": 0.3937007874015748
        },
        {
          "duration": 0.25,
          "durationTicks": 384,
          "midi": 85,
          "name": "C#6",
          "ticks": 120960,
          "time": 78.75,
          "velocity": 0.3937007874015748
        },
        {
          "duration": 0.5,
          "durationTicks": 768,
          "midi": 74,
          "name": "D5",
          "ticks": 121344,
          "time": 79,
          "velocity": 0.3937007874015748
        },
        {
          "duration": 0.5,
          "durationTicks": 768,
          "midi": 62,
          "name": "D4",
          "ticks": 121344,
          "time": 79,
          "velocity": 0.1968503937007874
        },
        {
          "duration": 0.5,
          "durationTicks": 768,
          "midi": 83,
          "name": "B5",
          "ticks": 121344,
          "time": 79,
          "velocity": 0.3937007874015748
        },
        {
          "duration": 0.5,
          "durationTicks": 768,
          "midi": 71,
          "name": "B4",
          "ticks": 121344,
          "time": 79,
          "velocity": 0.1968503937007874
        },
        {
          "duration": 0.25,
          "durationTicks": 384,
          "midi": 66,
          "name": "F#4",
          "ticks": 122112,
          "time": 79.5,
          "velocity": 0.1968503937007874
        },
        {
          "duration": 0.25,
          "durationTicks": 384,
          "midi": 78,
          "name": "F#5",
          "ticks": 122112,
          "time": 79.5,
          "velocity": 0.3937007874015748
        },
        {
          "duration": 0.25,
          "durationTicks": 384,
          "midi": 74,
          "name": "D5",
          "ticks": 122112,
          "time": 79.5,
          "velocity": 0.3937007874015748
        },
        {
          "duration": 0.25,
          "durationTicks": 384,
          "midi": 62,
          "name": "D4",
          "ticks": 122112,
          "time": 79.5,
          "velocity": 0.1968503937007874
        },
        {
          "duration": 0.5,
          "durationTicks": 768,
          "midi": 67,
          "name": "G4",
          "ticks": 122496,
          "time": 79.75,
          "velocity": 0.1968503937007874
        },
        {
          "duration": 0.5,
          "durationTicks": 768,
          "midi": 71,
          "name": "B4",
          "ticks": 122496,
          "time": 79.75,
          "velocity": 0.3937007874015748
        },
        {
          "duration": 0.5,
          "durationTicks": 768,
          "midi": 79,
          "name": "G5",
          "ticks": 122496,
          "time": 79.75,
          "velocity": 0.3937007874015748
        },
        {
          "duration": 0.5,
          "durationTicks": 768,
          "midi": 59,
          "name": "B3",
          "ticks": 122496,
          "time": 79.75,
          "velocity": 0.1968503937007874
        },
        {
          "duration": 0.25,
          "durationTicks": 384,
          "midi": 65,
          "name": "F4",
          "ticks": 123264,
          "time": 80.25,
          "velocity": 0.1968503937007874
        },
        {
          "duration": 0.25,
          "durationTicks": 384,
          "midi": 73,
          "name": "C#5",
          "ticks": 123264,
          "time": 80.25,
          "velocity": 0.1968503937007874
        },
        {
          "duration": 0.25,
          "durationTicks": 384,
          "midi": 77,
          "name": "F5",
          "ticks": 123264,
          "time": 80.25,
          "velocity": 0.3937007874015748
        },
        {
          "duration": 0.25,
          "durationTicks": 384,
          "midi": 85,
          "name": "C#6",
          "ticks": 123264,
          "time": 80.25,
          "velocity": 0.3937007874015748
        },
        {
          "duration": 1.25,
          "durationTicks": 1920,
          "midi": 73,
          "name": "C#5",
          "ticks": 123648,
          "time": 80.5,
          "velocity": 0.1968503937007874
        },
        {
          "duration": 1.25,
          "durationTicks": 1920,
          "midi": 65,
          "name": "F4",
          "ticks": 123648,
          "time": 80.5,
          "velocity": 0.1968503937007874
        },
        {
          "duration": 1.25,
          "durationTicks": 1920,
          "midi": 85,
          "name": "C#6",
          "ticks": 123648,
          "time": 80.5,
          "velocity": 0.3937007874015748
        },
        {
          "duration": 1.25,
          "durationTicks": 1920,
          "midi": 77,
          "name": "F5",
          "ticks": 123648,
          "time": 80.5,
          "velocity": 0.3937007874015748
        },
        {
          "duration": 0.125,
          "durationTicks": 192,
          "midi": 73,
          "name": "C#5",
          "ticks": 125568,
          "time": 81.75,
          "velocity": 0.23622047244094488
        },
        {
          "duration": 0.125,
          "durationTicks": 192,
          "midi": 85,
          "name": "C#6",
          "ticks": 125568,
          "time": 81.75,
          "velocity": 0.3937007874015748
        },
        {
          "duration": 0.125,
          "durationTicks": 192,
          "midi": 74,
          "name": "D5",
          "ticks": 125760,
          "time": 81.875,
          "velocity": 0.23622047244094488
        },
        {
          "duration": 0.125,
          "durationTicks": 192,
          "midi": 86,
          "name": "D6",
          "ticks": 125760,
          "time": 81.875,
          "velocity": 0.3937007874015748
        },
        {
          "duration": 0.375,
          "durationTicks": 576,
          "midi": 76,
          "name": "E5",
          "ticks": 125952,
          "time": 82,
          "velocity": 0.23622047244094488
        },
        {
          "duration": 0.375,
          "durationTicks": 576,
          "midi": 88,
          "name": "E6",
          "ticks": 125952,
          "time": 82,
          "velocity": 0.3937007874015748
        },
        {
          "duration": 0.375,
          "durationTicks": 576,
          "midi": 86,
          "name": "D6",
          "ticks": 126528,
          "time": 82.375,
          "velocity": 0.3937007874015748
        },
        {
          "duration": 0.375,
          "durationTicks": 576,
          "midi": 74,
          "name": "D5",
          "ticks": 126528,
          "time": 82.375,
          "velocity": 0.23622047244094488
        },
        {
          "duration": 0.25,
          "durationTicks": 384,
          "midi": 85,
          "name": "C#6",
          "ticks": 127104,
          "time": 82.75,
          "velocity": 0.3937007874015748
        },
        {
          "duration": 0.25,
          "durationTicks": 384,
          "midi": 73,
          "name": "C#5",
          "ticks": 127104,
          "time": 82.75,
          "velocity": 0.23622047244094488
        },
        {
          "duration": 0.5,
          "durationTicks": 768,
          "midi": 83,
          "name": "B5",
          "ticks": 127488,
          "time": 83,
          "velocity": 0.3937007874015748
        },
        {
          "duration": 0.5,
          "durationTicks": 768,
          "midi": 71,
          "name": "B4",
          "ticks": 127488,
          "time": 83,
          "velocity": 0.23622047244094488
        },
        {
          "duration": 2.25,
          "durationTicks": 3456,
          "midi": 78,
          "name": "F#5",
          "ticks": 128256,
          "time": 83.5,
          "velocity": 0.3937007874015748
        },
        {
          "duration": 2.25,
          "durationTicks": 3456,
          "midi": 66,
          "name": "F#4",
          "ticks": 128256,
          "time": 83.5,
          "velocity": 0.23622047244094488
        },
        {
          "duration": 0.125,
          "durationTicks": 192,
          "midi": 85,
          "name": "C#6",
          "ticks": 131712,
          "time": 85.75,
          "velocity": 0.3937007874015748
        },
        {
          "duration": 0.125,
          "durationTicks": 192,
          "midi": 73,
          "name": "C#5",
          "ticks": 131712,
          "time": 85.75,
          "velocity": 0.23622047244094488
        },
        {
          "duration": 0.125,
          "durationTicks": 192,
          "midi": 86,
          "name": "D6",
          "ticks": 131904,
          "time": 85.875,
          "velocity": 0.3937007874015748
        },
        {
          "duration": 0.125,
          "durationTicks": 192,
          "midi": 74,
          "name": "D5",
          "ticks": 131904,
          "time": 85.875,
          "velocity": 0.23622047244094488
        },
        {
          "duration": 0.375,
          "durationTicks": 576,
          "midi": 88,
          "name": "E6",
          "ticks": 132096,
          "time": 86,
          "velocity": 0.3937007874015748
        },
        {
          "duration": 0.375,
          "durationTicks": 576,
          "midi": 76,
          "name": "E5",
          "ticks": 132096,
          "time": 86,
          "velocity": 0.23622047244094488
        },
        {
          "duration": 0.375,
          "durationTicks": 576,
          "midi": 86,
          "name": "D6",
          "ticks": 132672,
          "time": 86.375,
          "velocity": 0.3937007874015748
        },
        {
          "duration": 0.375,
          "durationTicks": 576,
          "midi": 74,
          "name": "D5",
          "ticks": 132672,
          "time": 86.375,
          "velocity": 0.23622047244094488
        },
        {
          "duration": 0.25,
          "durationTicks": 384,
          "midi": 85,
          "name": "C#6",
          "ticks": 133248,
          "time": 86.75,
          "velocity": 0.3937007874015748
        },
        {
          "duration": 0.25,
          "durationTicks": 384,
          "midi": 73,
          "name": "C#5",
          "ticks": 133248,
          "time": 86.75,
          "velocity": 0.23622047244094488
        },
        {
          "duration": 0.5,
          "durationTicks": 768,
          "midi": 83,
          "name": "B5",
          "ticks": 133632,
          "time": 87,
          "velocity": 0.3937007874015748
        },
        {
          "duration": 0.5,
          "durationTicks": 768,
          "midi": 71,
          "name": "B4",
          "ticks": 133632,
          "time": 87,
          "velocity": 0.23622047244094488
        },
        {
          "duration": 2.25,
          "durationTicks": 3456,
          "midi": 78,
          "name": "F#5",
          "ticks": 134400,
          "time": 87.5,
          "velocity": 0.23622047244094488
        },
        {
          "duration": 2.25,
          "durationTicks": 3456,
          "midi": 90,
          "name": "F#6",
          "ticks": 134400,
          "time": 87.5,
          "velocity": 0.3937007874015748
        },
        {
          "duration": 0.125,
          "durationTicks": 192,
          "midi": 81,
          "name": "A5",
          "ticks": 137856,
          "time": 89.75,
          "velocity": 0.15748031496062992
        },
        {
          "duration": 0.125,
          "durationTicks": 192,
          "midi": 90,
          "name": "F#6",
          "ticks": 137856,
          "time": 89.75,
          "velocity": 0.3937007874015748
        },
        {
          "duration": 0.125,
          "durationTicks": 192,
          "midi": 78,
          "name": "F#5",
          "ticks": 137856,
          "time": 89.75,
          "velocity": 0.23622047244094488
        },
        {
          "duration": 0.125,
          "durationTicks": 192,
          "midi": 79,
          "name": "G5",
          "ticks": 138048,
          "time": 89.875,
          "velocity": 0.23622047244094488
        },
        {
          "duration": 0.125,
          "durationTicks": 192,
          "midi": 83,
          "name": "B5",
          "ticks": 138048,
          "time": 89.875,
          "velocity": 0.15748031496062992
        },
        {
          "duration": 0.125,
          "durationTicks": 192,
          "midi": 91,
          "name": "G6",
          "ticks": 138048,
          "time": 89.875,
          "velocity": 0.3937007874015748
        },
        {
          "duration": 0.375,
          "durationTicks": 576,
          "midi": 84,
          "name": "C6",
          "ticks": 138240,
          "time": 90,
          "velocity": 0.15748031496062992
        },
        {
          "duration": 0.375,
          "durationTicks": 576,
          "midi": 93,
          "name": "A6",
          "ticks": 138240,
          "time": 90,
          "velocity": 0.3937007874015748
        },
        {
          "duration": 0.375,
          "durationTicks": 576,
          "midi": 81,
          "name": "A5",
          "ticks": 138240,
          "time": 90,
          "velocity": 0.23622047244094488
        },
        {
          "duration": 0.375,
          "durationTicks": 576,
          "midi": 91,
          "name": "G6",
          "ticks": 138816,
          "time": 90.375,
          "velocity": 0.3937007874015748
        },
        {
          "duration": 0.375,
          "durationTicks": 576,
          "midi": 79,
          "name": "G5",
          "ticks": 138816,
          "time": 90.375,
          "velocity": 0.23622047244094488
        },
        {
          "duration": 0.375,
          "durationTicks": 576,
          "midi": 83,
          "name": "B5",
          "ticks": 138816,
          "time": 90.375,
          "velocity": 0.15748031496062992
        },
        {
          "duration": 0.25,
          "durationTicks": 384,
          "midi": 78,
          "name": "F#5",
          "ticks": 139392,
          "time": 90.75,
          "velocity": 0.23622047244094488
        },
        {
          "duration": 0.25,
          "durationTicks": 384,
          "midi": 90,
          "name": "F#6",
          "ticks": 139392,
          "time": 90.75,
          "velocity": 0.3937007874015748
        },
        {
          "duration": 0.25,
          "durationTicks": 384,
          "midi": 81,
          "name": "A5",
          "ticks": 139392,
          "time": 90.75,
          "velocity": 0.15748031496062992
        },
        {
          "duration": 1,
          "durationTicks": 1536,
          "midi": 79,
          "name": "G5",
          "ticks": 139776,
          "time": 91,
          "velocity": 0.15748031496062992
        },
        {
          "duration": 1,
          "durationTicks": 1536,
          "midi": 88,
          "name": "E6",
          "ticks": 139776,
          "time": 91,
          "velocity": 0.3937007874015748
        },
        {
          "duration": 1,
          "durationTicks": 1536,
          "midi": 76,
          "name": "E5",
          "ticks": 139776,
          "time": 91,
          "velocity": 0.23622047244094488
        },
        {
          "duration": 0.375,
          "durationTicks": 576,
          "midi": 79,
          "name": "G5",
          "ticks": 141312,
          "time": 92,
          "velocity": 0.23622047244094488
        },
        {
          "duration": 0.375,
          "durationTicks": 576,
          "midi": 82,
          "name": "A#5",
          "ticks": 141312,
          "time": 92,
          "velocity": 0.15748031496062992
        },
        {
          "duration": 0.375,
          "durationTicks": 576,
          "midi": 91,
          "name": "G6",
          "ticks": 141312,
          "time": 92,
          "velocity": 0.3937007874015748
        },
        {
          "duration": 0.375,
          "durationTicks": 576,
          "midi": 77,
          "name": "F5",
          "ticks": 141888,
          "time": 92.375,
          "velocity": 0.23622047244094488
        },
        {
          "duration": 0.375,
          "durationTicks": 576,
          "midi": 89,
          "name": "F6",
          "ticks": 141888,
          "time": 92.375,
          "velocity": 0.3937007874015748
        },
        {
          "duration": 0.375,
          "durationTicks": 576,
          "midi": 80,
          "name": "G#5",
          "ticks": 141888,
          "time": 92.375,
          "velocity": 0.15748031496062992
        },
        {
          "duration": 0.25,
          "durationTicks": 384,
          "midi": 76,
          "name": "E5",
          "ticks": 142464,
          "time": 92.75,
          "velocity": 0.23622047244094488
        },
        {
          "duration": 0.25,
          "durationTicks": 384,
          "midi": 88,
          "name": "E6",
          "ticks": 142464,
          "time": 92.75,
          "velocity": 0.3937007874015748
        },
        {
          "duration": 0.25,
          "durationTicks": 384,
          "midi": 79,
          "name": "G5",
          "ticks": 142464,
          "time": 92.75,
          "velocity": 0.15748031496062992
        },
        {
          "duration": 0.5,
          "durationTicks": 768,
          "midi": 77,
          "name": "F5",
          "ticks": 142848,
          "time": 93,
          "velocity": 0.15748031496062992
        },
        {
          "duration": 0.5,
          "durationTicks": 768,
          "midi": 74,
          "name": "D5",
          "ticks": 142848,
          "time": 93,
          "velocity": 0.23622047244094488
        },
        {
          "duration": 0.5,
          "durationTicks": 768,
          "midi": 86,
          "name": "D6",
          "ticks": 142848,
          "time": 93,
          "velocity": 0.3937007874015748
        },
        {
          "duration": 0.375,
          "durationTicks": 576,
          "midi": 77,
          "name": "F5",
          "ticks": 143616,
          "time": 93.5,
          "velocity": 0.23622047244094488
        },
        {
          "duration": 0.375,
          "durationTicks": 576,
          "midi": 89,
          "name": "F6",
          "ticks": 143616,
          "time": 93.5,
          "velocity": 0.3937007874015748
        },
        {
          "duration": 0.375,
          "durationTicks": 576,
          "midi": 87,
          "name": "D#6",
          "ticks": 144192,
          "time": 93.875,
          "velocity": 0.3937007874015748
        },
        {
          "duration": 0.375,
          "durationTicks": 576,
          "midi": 75,
          "name": "D#5",
          "ticks": 144192,
          "time": 93.875,
          "velocity": 0.23622047244094488
        },
        {
          "duration": 0.375,
          "durationTicks": 576,
          "midi": 74,
          "name": "D5",
          "ticks": 144768,
          "time": 94.25,
          "velocity": 0.23622047244094488
        },
        {
          "duration": 0.375,
          "durationTicks": 576,
          "midi": 86,
          "name": "D6",
          "ticks": 144768,
          "time": 94.25,
          "velocity": 0.3937007874015748
        },
        {
          "duration": 0.375,
          "durationTicks": 576,
          "midi": 72,
          "name": "C5",
          "ticks": 145344,
          "time": 94.625,
          "velocity": 0.23622047244094488
        },
        {
          "duration": 0.375,
          "durationTicks": 576,
          "midi": 84,
          "name": "C6",
          "ticks": 145344,
          "time": 94.625,
          "velocity": 0.3937007874015748
        },
        {
          "duration": 0.375,
          "durationTicks": 576,
          "midi": 79,
          "name": "G5",
          "ticks": 145920,
          "time": 95,
          "velocity": 0.3937007874015748
        },
        {
          "duration": 0.375,
          "durationTicks": 576,
          "midi": 67,
          "name": "G4",
          "ticks": 145920,
          "time": 95,
          "velocity": 0.23622047244094488
        },
        {
          "duration": 0.375,
          "durationTicks": 576,
          "midi": 63,
          "name": "D#4",
          "ticks": 146496,
          "time": 95.375,
          "velocity": 0.23622047244094488
        },
        {
          "duration": 0.375,
          "durationTicks": 576,
          "midi": 75,
          "name": "D#5",
          "ticks": 146496,
          "time": 95.375,
          "velocity": 0.3937007874015748
        },
        {
          "duration": 0.25,
          "durationTicks": 384,
          "midi": 72,
          "name": "C5",
          "ticks": 147072,
          "time": 95.75,
          "velocity": 0.3937007874015748
        },
        {
          "duration": 0.25,
          "durationTicks": 384,
          "midi": 60,
          "name": "C4",
          "ticks": 147072,
          "time": 95.75,
          "velocity": 0.23622047244094488
        },
        {
          "duration": 0.75,
          "durationTicks": 1152,
          "midi": 65,
          "name": "F4",
          "ticks": 147456,
          "time": 96,
          "velocity": 0.1968503937007874
        },
        {
          "duration": 0.75,
          "durationTicks": 1152,
          "midi": 77,
          "name": "F5",
          "ticks": 147456,
          "time": 96,
          "velocity": 0.3937007874015748
        },
        {
          "duration": 0.25,
          "durationTicks": 384,
          "midi": 65,
          "name": "F4",
          "ticks": 148608,
          "time": 96.75,
          "velocity": 0.1968503937007874
        },
        {
          "duration": 0.25,
          "durationTicks": 384,
          "midi": 72,
          "name": "C5",
          "ticks": 148608,
          "time": 96.75,
          "velocity": 0.1968503937007874
        },
        {
          "duration": 0.25,
          "durationTicks": 384,
          "midi": 68,
          "name": "G#4",
          "ticks": 148608,
          "time": 96.75,
          "velocity": 0.1968503937007874
        },
        {
          "duration": 0.25,
          "durationTicks": 384,
          "midi": 80,
          "name": "G#5",
          "ticks": 148608,
          "time": 96.75,
          "velocity": 0.3937007874015748
        },
        {
          "duration": 0.25,
          "durationTicks": 384,
          "midi": 77,
          "name": "F5",
          "ticks": 148608,
          "time": 96.75,
          "velocity": 0.3937007874015748
        },
        {
          "duration": 0.25,
          "durationTicks": 384,
          "midi": 84,
          "name": "C6",
          "ticks": 148608,
          "time": 96.75,
          "velocity": 0.3937007874015748
        },
        {
          "duration": 2.75,
          "durationTicks": 4224,
          "midi": 77,
          "name": "F5",
          "ticks": 148992,
          "time": 97,
          "velocity": 0.3937007874015748
        },
        {
          "duration": 2.75,
          "durationTicks": 4224,
          "midi": 68,
          "name": "G#4",
          "ticks": 148992,
          "time": 97,
          "velocity": 0.1968503937007874
        },
        {
          "duration": 2.75,
          "durationTicks": 4224,
          "midi": 72,
          "name": "C5",
          "ticks": 148992,
          "time": 97,
          "velocity": 0.1968503937007874
        },
        {
          "duration": 2.75,
          "durationTicks": 4224,
          "midi": 80,
          "name": "G#5",
          "ticks": 148992,
          "time": 97,
          "velocity": 0.3937007874015748
        },
        {
          "duration": 2.75,
          "durationTicks": 4224,
          "midi": 84,
          "name": "C6",
          "ticks": 148992,
          "time": 97,
          "velocity": 0.3937007874015748
        },
        {
          "duration": 2.75,
          "durationTicks": 4224,
          "midi": 65,
          "name": "F4",
          "ticks": 148992,
          "time": 97,
          "velocity": 0.1968503937007874
        },
        {
          "duration": 0.25,
          "durationTicks": 384,
          "midi": 69,
          "name": "A4",
          "ticks": 153216,
          "time": 99.75,
          "velocity": 0.23622047244094488
        },
        {
          "duration": 0.25,
          "durationTicks": 384,
          "midi": 81,
          "name": "A5",
          "ticks": 153216,
          "time": 99.75,
          "velocity": 0.3937007874015748
        },
        {
          "duration": 0.75,
          "durationTicks": 1152,
          "midi": 83,
          "name": "B5",
          "ticks": 153600,
          "time": 100,
          "velocity": 0.3937007874015748
        },
        {
          "duration": 0.75,
          "durationTicks": 1152,
          "midi": 71,
          "name": "B4",
          "ticks": 153600,
          "time": 100,
          "velocity": 0.23622047244094488
        },
        {
          "duration": 0.25,
          "durationTicks": 384,
          "midi": 88,
          "name": "E6",
          "ticks": 154752,
          "time": 100.75,
          "velocity": 0.3937007874015748
        },
        {
          "duration": 0.25,
          "durationTicks": 384,
          "midi": 76,
          "name": "E5",
          "ticks": 154752,
          "time": 100.75,
          "velocity": 0.23622047244094488
        },
        {
          "duration": 2.75,
          "durationTicks": 4224,
          "midi": 88,
          "name": "E6",
          "ticks": 155136,
          "time": 101,
          "velocity": 0.3937007874015748
        },
        {
          "duration": 2.75,
          "durationTicks": 4224,
          "midi": 76,
          "name": "E5",
          "ticks": 155136,
          "time": 101,
          "velocity": 0.23622047244094488
        },
        {
          "duration": 1,
          "durationTicks": 1536,
          "midi": 62,
          "name": "D4",
          "ticks": 190464,
          "time": 124,
          "velocity": 0.1968503937007874
        },
        {
          "duration": 1,
          "durationTicks": 1536,
          "midi": 74,
          "name": "D5",
          "ticks": 190464,
          "time": 124,
          "velocity": 0.3937007874015748
        },
        {
          "duration": 1,
          "durationTicks": 1536,
          "midi": 64,
          "name": "E4",
          "ticks": 192000,
          "time": 125,
          "velocity": 0.1968503937007874
        },
        {
          "duration": 1,
          "durationTicks": 1536,
          "midi": 76,
          "name": "E5",
          "ticks": 192000,
          "time": 125,
          "velocity": 0.3937007874015748
        },
        {
          "duration": 0.375,
          "durationTicks": 576,
          "midi": 78,
          "name": "F#5",
          "ticks": 193536,
          "time": 126,
          "velocity": 0.3937007874015748
        },
        {
          "duration": 0.375,
          "durationTicks": 576,
          "midi": 66,
          "name": "F#4",
          "ticks": 193536,
          "time": 126,
          "velocity": 0.1968503937007874
        },
        {
          "duration": 0.375,
          "durationTicks": 576,
          "midi": 71,
          "name": "B4",
          "ticks": 194112,
          "time": 126.375,
          "velocity": 0.1968503937007874
        },
        {
          "duration": 0.375,
          "durationTicks": 576,
          "midi": 83,
          "name": "B5",
          "ticks": 194112,
          "time": 126.375,
          "velocity": 0.3937007874015748
        },
        {
          "duration": 0.25,
          "durationTicks": 384,
          "midi": 82,
          "name": "A#5",
          "ticks": 194688,
          "time": 126.75,
          "velocity": 0.3937007874015748
        },
        {
          "duration": 0.25,
          "durationTicks": 384,
          "midi": 70,
          "name": "A#4",
          "ticks": 194688,
          "time": 126.75,
          "velocity": 0.1968503937007874
        },
        {
          "duration": 0.375,
          "durationTicks": 576,
          "midi": 71,
          "name": "B4",
          "ticks": 195072,
          "time": 127,
          "velocity": 0.1968503937007874
        },
        {
          "duration": 0.375,
          "durationTicks": 576,
          "midi": 83,
          "name": "B5",
          "ticks": 195072,
          "time": 127,
          "velocity": 0.3937007874015748
        },
        {
          "duration": 0.375,
          "durationTicks": 576,
          "midi": 78,
          "name": "F#5",
          "ticks": 195648,
          "time": 127.375,
          "velocity": 0.3937007874015748
        },
        {
          "duration": 0.375,
          "durationTicks": 576,
          "midi": 66,
          "name": "F#4",
          "ticks": 195648,
          "time": 127.375,
          "velocity": 0.1968503937007874
        },
        {
          "duration": 0.25,
          "durationTicks": 384,
          "midi": 74,
          "name": "D5",
          "ticks": 196224,
          "time": 127.75,
          "velocity": 0.3937007874015748
        },
        {
          "duration": 0.25,
          "durationTicks": 384,
          "midi": 62,
          "name": "D4",
          "ticks": 196224,
          "time": 127.75,
          "velocity": 0.1968503937007874
        },
        {
          "duration": 0.375,
          "durationTicks": 576,
          "midi": 59,
          "name": "B3",
          "ticks": 196608,
          "time": 128,
          "velocity": 0.1968503937007874
        },
        {
          "duration": 0.375,
          "durationTicks": 576,
          "midi": 71,
          "name": "B4",
          "ticks": 196608,
          "time": 128,
          "velocity": 0.3937007874015748
        },
        {
          "duration": 0.375,
          "durationTicks": 576,
          "midi": 73,
          "name": "C#5",
          "ticks": 197184,
          "time": 128.375,
          "velocity": 0.3937007874015748
        },
        {
          "duration": 0.375,
          "durationTicks": 576,
          "midi": 61,
          "name": "C#4",
          "ticks": 197184,
          "time": 128.375,
          "velocity": 0.1968503937007874
        },
        {
          "duration": 0.25,
          "durationTicks": 384,
          "midi": 74,
          "name": "D5",
          "ticks": 197760,
          "time": 128.75,
          "velocity": 0.3937007874015748
        },
        {
          "duration": 0.25,
          "durationTicks": 384,
          "midi": 62,
          "name": "D4",
          "ticks": 197760,
          "time": 128.75,
          "velocity": 0.1968503937007874
        },
        {
          "duration": 3,
          "durationTicks": 4608,
          "midi": 73,
          "name": "C#5",
          "ticks": 198144,
          "time": 129,
          "velocity": 0.3937007874015748
        },
        {
          "duration": 3,
          "durationTicks": 4608,
          "midi": 61,
          "name": "C#4",
          "ticks": 198144,
          "time": 129,
          "velocity": 0.1968503937007874
        },
        {
          "duration": 1,
          "durationTicks": 1536,
          "midi": 74,
          "name": "D5",
          "ticks": 202752,
          "time": 132,
          "velocity": 0.3937007874015748
        },
        {
          "duration": 1,
          "durationTicks": 1536,
          "midi": 62,
          "name": "D4",
          "ticks": 202752,
          "time": 132,
          "velocity": 0.1968503937007874
        }
      ],
      "endOfTrackTicks": 204288
    },
    {
      "channel": 5,
      "controlChanges": {},
      "pitchBends": [],
      "instrument": {
        "family": "piano",
        "number": 0,
        "name": "acoustic grand piano"
      },
      "name": "Strings (Sustain)",
      "notes": [
        {
          "duration": 0.75,
          "durationTicks": 1152,
          "midi": 55,
          "name": "G3",
          "ticks": 46080,
          "time": 30,
          "velocity": 0.14960629921259844
        },
        {
          "duration": 0.75,
          "durationTicks": 1152,
          "midi": 83,
          "name": "B5",
          "ticks": 46080,
          "time": 30,
          "velocity": 0.10236220472440945
        },
        {
          "duration": 0.125,
          "durationTicks": 192,
          "midi": 54,
          "name": "F#3",
          "ticks": 47232,
          "time": 30.75,
          "velocity": 0.14960629921259844
        },
        {
          "duration": 0.125,
          "durationTicks": 192,
          "midi": 82,
          "name": "A#5",
          "ticks": 47232,
          "time": 30.75,
          "velocity": 0.10236220472440945
        },
        {
          "duration": 0.125,
          "durationTicks": 192,
          "midi": 52,
          "name": "E3",
          "ticks": 47424,
          "time": 30.875,
          "velocity": 0.14960629921259844
        },
        {
          "duration": 0.125,
          "durationTicks": 192,
          "midi": 80,
          "name": "G#5",
          "ticks": 47424,
          "time": 30.875,
          "velocity": 0.10236220472440945
        },
        {
          "duration": 1,
          "durationTicks": 1536,
          "midi": 54,
          "name": "F#3",
          "ticks": 47616,
          "time": 31,
          "velocity": 0.14960629921259844
        },
        {
          "duration": 1,
          "durationTicks": 1536,
          "midi": 82,
          "name": "A#5",
          "ticks": 47616,
          "time": 31,
          "velocity": 0.10236220472440945
        },
        {
          "duration": 0.75,
          "durationTicks": 1152,
          "midi": 83,
          "name": "B5",
          "ticks": 135168,
          "time": 88,
          "velocity": 0.10236220472440945
        },
        {
          "duration": 0.75,
          "durationTicks": 1152,
          "midi": 55,
          "name": "G3",
          "ticks": 135168,
          "time": 88,
          "velocity": 0.14960629921259844
        },
        {
          "duration": 0.125,
          "durationTicks": 192,
          "midi": 54,
          "name": "F#3",
          "ticks": 136320,
          "time": 88.75,
          "velocity": 0.14960629921259844
        },
        {
          "duration": 0.125,
          "durationTicks": 192,
          "midi": 82,
          "name": "A#5",
          "ticks": 136320,
          "time": 88.75,
          "velocity": 0.10236220472440945
        },
        {
          "duration": 0.125,
          "durationTicks": 192,
          "midi": 52,
          "name": "E3",
          "ticks": 136512,
          "time": 88.875,
          "velocity": 0.14960629921259844
        },
        {
          "duration": 0.125,
          "durationTicks": 192,
          "midi": 80,
          "name": "G#5",
          "ticks": 136512,
          "time": 88.875,
          "velocity": 0.10236220472440945
        },
        {
          "duration": 1,
          "durationTicks": 1536,
          "midi": 54,
          "name": "F#3",
          "ticks": 136704,
          "time": 89,
          "velocity": 0.14960629921259844
        },
        {
          "duration": 1,
          "durationTicks": 1536,
          "midi": 82,
          "name": "A#5",
          "ticks": 136704,
          "time": 89,
          "velocity": 0.10236220472440945
        }
      ],
      "endOfTrackTicks": 138240
    },
    {
      "channel": 6,
      "controlChanges": {},
      "pitchBends": [],
      "instrument": {
        "family": "piano",
        "number": 0,
        "name": "acoustic grand piano"
      },
      "name": "Bass",
      "notes": [
        {
          "duration": 4.5,
          "durationTicks": 6912,
          "midi": 26,
          "name": "D1",
          "ticks": 5376,
          "time": 3.5,
          "velocity": 0.3937007874015748
        },
        {
          "duration": 0.375,
          "durationTicks": 576,
          "midi": 23,
          "name": "B0",
          "ticks": 12288,
          "time": 8,
          "velocity": 0.3937007874015748
        },
        {
          "duration": 0.375,
          "durationTicks": 576,
          "midi": 23,
          "name": "B0",
          "ticks": 13056,
          "time": 8.5,
          "velocity": 0.3937007874015748
        },
        {
          "duration": 0.25,
          "durationTicks": 384,
          "midi": 25,
          "name": "C#1",
          "ticks": 13632,
          "time": 8.875,
          "velocity": 0.3937007874015748
        },
        {
          "duration": 0.25,
          "durationTicks": 384,
          "midi": 25,
          "name": "C#1",
          "ticks": 14208,
          "time": 9.25,
          "velocity": 0.3937007874015748
        },
        {
          "duration": 0.25,
          "durationTicks": 384,
          "midi": 25,
          "name": "C#1",
          "ticks": 14784,
          "time": 9.625,
          "velocity": 0.3937007874015748
        },
        {
          "duration": 0.375,
          "durationTicks": 576,
          "midi": 26,
          "name": "D1",
          "ticks": 15360,
          "time": 10,
          "velocity": 0.3937007874015748
        },
        {
          "duration": 0.375,
          "durationTicks": 576,
          "midi": 26,
          "name": "D1",
          "ticks": 16128,
          "time": 10.5,
          "velocity": 0.3937007874015748
        },
        {
          "duration": 0.25,
          "durationTicks": 384,
          "midi": 31,
          "name": "G1",
          "ticks": 16704,
          "time": 10.875,
          "velocity": 0.3937007874015748
        },
        {
          "duration": 0.25,
          "durationTicks": 384,
          "midi": 31,
          "name": "G1",
          "ticks": 17280,
          "time": 11.25,
          "velocity": 0.3937007874015748
        },
        {
          "duration": 0.25,
          "durationTicks": 384,
          "midi": 31,
          "name": "G1",
          "ticks": 17856,
          "time": 11.625,
          "velocity": 0.3937007874015748
        },
        {
          "duration": 0.375,
          "durationTicks": 576,
          "midi": 31,
          "name": "G1",
          "ticks": 18432,
          "time": 12,
          "velocity": 0.3937007874015748
        },
        {
          "duration": 0.375,
          "durationTicks": 576,
          "midi": 31,
          "name": "G1",
          "ticks": 19200,
          "time": 12.5,
          "velocity": 0.3937007874015748
        },
        {
          "duration": 0.25,
          "durationTicks": 384,
          "midi": 34,
          "name": "A#1",
          "ticks": 19776,
          "time": 12.875,
          "velocity": 0.3937007874015748
        },
        {
          "duration": 0.25,
          "durationTicks": 384,
          "midi": 34,
          "name": "A#1",
          "ticks": 20352,
          "time": 13.25,
          "velocity": 0.3937007874015748
        },
        {
          "duration": 0.25,
          "durationTicks": 384,
          "midi": 34,
          "name": "A#1",
          "ticks": 20928,
          "time": 13.625,
          "velocity": 0.3937007874015748
        },
        {
          "duration": 0.375,
          "durationTicks": 576,
          "midi": 26,
          "name": "D1",
          "ticks": 21504,
          "time": 14,
          "velocity": 0.3937007874015748
        },
        {
          "duration": 0.375,
          "durationTicks": 576,
          "midi": 26,
          "name": "D1",
          "ticks": 22272,
          "time": 14.5,
          "velocity": 0.3937007874015748
        },
        {
          "duration": 0.25,
          "durationTicks": 384,
          "midi": 28,
          "name": "E1",
          "ticks": 22848,
          "time": 14.875,
          "velocity": 0.3937007874015748
        },
        {
          "duration": 0.25,
          "durationTicks": 384,
          "midi": 28,
          "name": "E1",
          "ticks": 23424,
          "time": 15.25,
          "velocity": 0.3937007874015748
        },
        {
          "duration": 0.25,
          "durationTicks": 384,
          "midi": 28,
          "name": "E1",
          "ticks": 24000,
          "time": 15.625,
          "velocity": 0.3937007874015748
        },
        {
          "duration": 0.375,
          "durationTicks": 576,
          "midi": 30,
          "name": "F#1",
          "ticks": 24576,
          "time": 16,
          "velocity": 0.3937007874015748
        },
        {
          "duration": 0.375,
          "durationTicks": 576,
          "midi": 30,
          "name": "F#1",
          "ticks": 25344,
          "time": 16.5,
          "velocity": 0.3937007874015748
        },
        {
          "duration": 0.25,
          "durationTicks": 384,
          "midi": 31,
          "name": "G1",
          "ticks": 25920,
          "time": 16.875,
          "velocity": 0.3937007874015748
        },
        {
          "duration": 0.25,
          "durationTicks": 384,
          "midi": 31,
          "name": "G1",
          "ticks": 26496,
          "time": 17.25,
          "velocity": 0.3937007874015748
        },
        {
          "duration": 0.25,
          "durationTicks": 384,
          "midi": 31,
          "name": "G1",
          "ticks": 27072,
          "time": 17.625,
          "velocity": 0.3937007874015748
        },
        {
          "duration": 0.375,
          "durationTicks": 576,
          "midi": 34,
          "name": "A#1",
          "ticks": 27648,
          "time": 18,
          "velocity": 0.3937007874015748
        },
        {
          "duration": 0.375,
          "durationTicks": 576,
          "midi": 34,
          "name": "A#1",
          "ticks": 28416,
          "time": 18.5,
          "velocity": 0.3937007874015748
        },
        {
          "duration": 0.25,
          "durationTicks": 384,
          "midi": 30,
          "name": "F#1",
          "ticks": 28992,
          "time": 18.875,
          "velocity": 0.3937007874015748
        },
        {
          "duration": 0.25,
          "durationTicks": 384,
          "midi": 30,
          "name": "F#1",
          "ticks": 29568,
          "time": 19.25,
          "velocity": 0.3937007874015748
        },
        {
          "duration": 0.25,
          "durationTicks": 384,
          "midi": 30,
          "name": "F#1",
          "ticks": 30144,
          "time": 19.625,
          "velocity": 0.3937007874015748
        },
        {
          "duration": 0.375,
          "durationTicks": 576,
          "midi": 31,
          "name": "G1",
          "ticks": 30720,
          "time": 20,
          "velocity": 0.3937007874015748
        },
        {
          "duration": 0.375,
          "durationTicks": 576,
          "midi": 31,
          "name": "G1",
          "ticks": 31488,
          "time": 20.5,
          "velocity": 0.3937007874015748
        },
        {
          "duration": 0.25,
          "durationTicks": 384,
          "midi": 30,
          "name": "F#1",
          "ticks": 32064,
          "time": 20.875,
          "velocity": 0.3937007874015748
        },
        {
          "duration": 0.25,
          "durationTicks": 384,
          "midi": 30,
          "name": "F#1",
          "ticks": 32640,
          "time": 21.25,
          "velocity": 0.3937007874015748
        },
        {
          "duration": 0.25,
          "durationTicks": 384,
          "midi": 30,
          "name": "F#1",
          "ticks": 33216,
          "time": 21.625,
          "velocity": 0.3937007874015748
        },
        {
          "duration": 0.375,
          "durationTicks": 576,
          "midi": 29,
          "name": "F1",
          "ticks": 33792,
          "time": 22,
          "velocity": 0.3937007874015748
        },
        {
          "duration": 0.375,
          "durationTicks": 576,
          "midi": 29,
          "name": "F1",
          "ticks": 34560,
          "time": 22.5,
          "velocity": 0.3937007874015748
        },
        {
          "duration": 0.25,
          "durationTicks": 384,
          "midi": 29,
          "name": "F1",
          "ticks": 35136,
          "time": 22.875,
          "velocity": 0.3937007874015748
        },
        {
          "duration": 0.25,
          "durationTicks": 384,
          "midi": 29,
          "name": "F1",
          "ticks": 35712,
          "time": 23.25,
          "velocity": 0.3937007874015748
        },
        {
          "duration": 0.25,
          "durationTicks": 384,
          "midi": 29,
          "name": "F1",
          "ticks": 36288,
          "time": 23.625,
          "velocity": 0.3937007874015748
        },
        {
          "duration": 0.375,
          "durationTicks": 576,
          "midi": 28,
          "name": "E1",
          "ticks": 36864,
          "time": 24,
          "velocity": 0.3937007874015748
        },
        {
          "duration": 0.375,
          "durationTicks": 576,
          "midi": 28,
          "name": "E1",
          "ticks": 37632,
          "time": 24.5,
          "velocity": 0.3937007874015748
        },
        {
          "duration": 0.375,
          "durationTicks": 576,
          "midi": 28,
          "name": "E1",
          "ticks": 38400,
          "time": 25,
          "velocity": 0.3937007874015748
        },
        {
          "duration": 0.375,
          "durationTicks": 576,
          "midi": 28,
          "name": "E1",
          "ticks": 39168,
          "time": 25.5,
          "velocity": 0.3937007874015748
        },
        {
          "duration": 0.375,
          "durationTicks": 576,
          "midi": 26,
          "name": "D1",
          "ticks": 39936,
          "time": 26,
          "velocity": 0.3937007874015748
        },
        {
          "duration": 0.375,
          "durationTicks": 576,
          "midi": 26,
          "name": "D1",
          "ticks": 40704,
          "time": 26.5,
          "velocity": 0.3937007874015748
        },
        {
          "duration": 0.125,
          "durationTicks": 192,
          "midi": 26,
          "name": "D1",
          "ticks": 41280,
          "time": 26.875,
          "velocity": 0.3937007874015748
        },
        {
          "duration": 0.375,
          "durationTicks": 576,
          "midi": 26,
          "name": "D1",
          "ticks": 41856,
          "time": 27.25,
          "velocity": 0.3937007874015748
        },
        {
          "duration": 0.375,
          "durationTicks": 576,
          "midi": 26,
          "name": "D1",
          "ticks": 42432,
          "time": 27.625,
          "velocity": 0.3937007874015748
        },
        {
          "duration": 0.375,
          "durationTicks": 576,
          "midi": 31,
          "name": "G1",
          "ticks": 43008,
          "time": 28,
          "velocity": 0.3937007874015748
        },
        {
          "duration": 0.375,
          "durationTicks": 576,
          "midi": 31,
          "name": "G1",
          "ticks": 43776,
          "time": 28.5,
          "velocity": 0.3937007874015748
        },
        {
          "duration": 0.375,
          "durationTicks": 576,
          "midi": 31,
          "name": "G1",
          "ticks": 44544,
          "time": 29,
          "velocity": 0.3937007874015748
        },
        {
          "duration": 0.375,
          "durationTicks": 576,
          "midi": 31,
          "name": "G1",
          "ticks": 45312,
          "time": 29.5,
          "velocity": 0.3937007874015748
        },
        {
          "duration": 0.375,
          "durationTicks": 576,
          "midi": 30,
          "name": "F#1",
          "ticks": 46080,
          "time": 30,
          "velocity": 0.3937007874015748
        },
        {
          "duration": 0.375,
          "durationTicks": 576,
          "midi": 30,
          "name": "F#1",
          "ticks": 46848,
          "time": 30.5,
          "velocity": 0.3937007874015748
        },
        {
          "duration": 0.125,
          "durationTicks": 192,
          "midi": 30,
          "name": "F#1",
          "ticks": 47424,
          "time": 30.875,
          "velocity": 0.3937007874015748
        },
        {
          "duration": 0.375,
          "durationTicks": 576,
          "midi": 30,
          "name": "F#1",
          "ticks": 48000,
          "time": 31.25,
          "velocity": 0.3937007874015748
        },
        {
          "duration": 0.375,
          "durationTicks": 576,
          "midi": 30,
          "name": "F#1",
          "ticks": 48576,
          "time": 31.625,
          "velocity": 0.3937007874015748
        },
        {
          "duration": 0.375,
          "durationTicks": 576,
          "midi": 30,
          "name": "F#1",
          "ticks": 49152,
          "time": 32,
          "velocity": 0.3937007874015748
        },
        {
          "duration": 0.375,
          "durationTicks": 576,
          "midi": 30,
          "name": "F#1",
          "ticks": 49920,
          "time": 32.5,
          "velocity": 0.3937007874015748
        },
        {
          "duration": 0.375,
          "durationTicks": 576,
          "midi": 31,
          "name": "G1",
          "ticks": 50688,
          "time": 33,
          "velocity": 0.3937007874015748
        },
        {
          "duration": 0.375,
          "durationTicks": 576,
          "midi": 31,
          "name": "G1",
          "ticks": 51456,
          "time": 33.5,
          "velocity": 0.3937007874015748
        },
        {
          "duration": 0.375,
          "durationTicks": 576,
          "midi": 33,
          "name": "A1",
          "ticks": 52224,
          "time": 34,
          "velocity": 0.3937007874015748
        },
        {
          "duration": 0.375,
          "durationTicks": 576,
          "midi": 33,
          "name": "A1",
          "ticks": 52992,
          "time": 34.5,
          "velocity": 0.3937007874015748
        },
        {
          "duration": 0.375,
          "durationTicks": 576,
          "midi": 34,
          "name": "A#1",
          "ticks": 53760,
          "time": 35,
          "velocity": 0.3937007874015748
        },
        {
          "duration": 0.375,
          "durationTicks": 576,
          "midi": 24,
          "name": "C1",
          "ticks": 54528,
          "time": 35.5,
          "velocity": 0.3937007874015748
        },
        {
          "duration": 0.375,
          "durationTicks": 576,
          "midi": 24,
          "name": "C1",
          "ticks": 55296,
          "time": 36,
          "velocity": 0.3937007874015748
        },
        {
          "duration": 0.375,
          "durationTicks": 576,
          "midi": 24,
          "name": "C1",
          "ticks": 56064,
          "time": 36.5,
          "velocity": 0.3937007874015748
        },
        {
          "duration": 0.375,
          "durationTicks": 576,
          "midi": 28,
          "name": "E1",
          "ticks": 56832,
          "time": 37,
          "velocity": 0.3937007874015748
        },
        {
          "duration": 0.375,
          "durationTicks": 576,
          "midi": 31,
          "name": "G1",
          "ticks": 57600,
          "time": 37.5,
          "velocity": 0.3937007874015748
        },
        {
          "duration": 0.375,
          "durationTicks": 576,
          "midi": 32,
          "name": "G#1",
          "ticks": 58368,
          "time": 38,
          "velocity": 0.3937007874015748
        },
        {
          "duration": 0.375,
          "durationTicks": 576,
          "midi": 32,
          "name": "G#1",
          "ticks": 59136,
          "time": 38.5,
          "velocity": 0.3937007874015748
        },
        {
          "duration": 0.125,
          "durationTicks": 192,
          "midi": 32,
          "name": "G#1",
          "ticks": 59712,
          "time": 38.875,
          "velocity": 0.3937007874015748
        },
        {
          "duration": 0.375,
          "durationTicks": 576,
          "midi": 32,
          "name": "G#1",
          "ticks": 60288,
          "time": 39.25,
          "velocity": 0.3937007874015748
        },
        {
          "duration": 0.375,
          "durationTicks": 576,
          "midi": 32,
          "name": "G#1",
          "ticks": 60864,
          "time": 39.625,
          "velocity": 0.3937007874015748
        },
        {
          "duration": 0.375,
          "durationTicks": 576,
          "midi": 31,
          "name": "G1",
          "ticks": 61440,
          "time": 40,
          "velocity": 0.3937007874015748
        },
        {
          "duration": 0.375,
          "durationTicks": 576,
          "midi": 31,
          "name": "G1",
          "ticks": 62208,
          "time": 40.5,
          "velocity": 0.3937007874015748
        },
        {
          "duration": 0.375,
          "durationTicks": 576,
          "midi": 29,
          "name": "F1",
          "ticks": 62976,
          "time": 41,
          "velocity": 0.3937007874015748
        },
        {
          "duration": 0.375,
          "durationTicks": 576,
          "midi": 29,
          "name": "F1",
          "ticks": 63744,
          "time": 41.5,
          "velocity": 0.3937007874015748
        },
        {
          "duration": 0.375,
          "durationTicks": 576,
          "midi": 28,
          "name": "E1",
          "ticks": 64512,
          "time": 42,
          "velocity": 0.3937007874015748
        },
        {
          "duration": 0.375,
          "durationTicks": 576,
          "midi": 28,
          "name": "E1",
          "ticks": 65280,
          "time": 42.5,
          "velocity": 0.3937007874015748
        },
        {
          "duration": 0.375,
          "durationTicks": 576,
          "midi": 28,
          "name": "E1",
          "ticks": 66048,
          "time": 43,
          "velocity": 0.3937007874015748
        },
        {
          "duration": 0.375,
          "durationTicks": 576,
          "midi": 28,
          "name": "E1",
          "ticks": 66816,
          "time": 43.5,
          "velocity": 0.3937007874015748
        },
        {
          "duration": 0.375,
          "durationTicks": 576,
          "midi": 28,
          "name": "E1",
          "ticks": 67584,
          "time": 44,
          "velocity": 0.3937007874015748
        },
        {
          "duration": 0.375,
          "durationTicks": 576,
          "midi": 28,
          "name": "E1",
          "ticks": 68352,
          "time": 44.5,
          "velocity": 0.3937007874015748
        },
        {
          "duration": 0.375,
          "durationTicks": 576,
          "midi": 26,
          "name": "D1",
          "ticks": 69120,
          "time": 45,
          "velocity": 0.3937007874015748
        },
        {
          "duration": 0.375,
          "durationTicks": 576,
          "midi": 26,
          "name": "D1",
          "ticks": 69888,
          "time": 45.5,
          "velocity": 0.3937007874015748
        },
        {
          "duration": 0.375,
          "durationTicks": 576,
          "midi": 24,
          "name": "C1",
          "ticks": 70656,
          "time": 46,
          "velocity": 0.3937007874015748
        },
        {
          "duration": 0.375,
          "durationTicks": 576,
          "midi": 24,
          "name": "C1",
          "ticks": 71424,
          "time": 46.5,
          "velocity": 0.3937007874015748
        },
        {
          "duration": 0.125,
          "durationTicks": 192,
          "midi": 24,
          "name": "C1",
          "ticks": 72000,
          "time": 46.875,
          "velocity": 0.3937007874015748
        },
        {
          "duration": 0.25,
          "durationTicks": 384,
          "midi": 24,
          "name": "C1",
          "ticks": 72576,
          "time": 47.25,
          "velocity": 0.3937007874015748
        },
        {
          "duration": 0.375,
          "durationTicks": 576,
          "midi": 24,
          "name": "C1",
          "ticks": 73152,
          "time": 47.625,
          "velocity": 0.3937007874015748
        },
        {
          "duration": 0.375,
          "durationTicks": 576,
          "midi": 26,
          "name": "D1",
          "ticks": 73728,
          "time": 48,
          "velocity": 0.3937007874015748
        },
        {
          "duration": 0.375,
          "durationTicks": 576,
          "midi": 26,
          "name": "D1",
          "ticks": 74496,
          "time": 48.5,
          "velocity": 0.3937007874015748
        },
        {
          "duration": 0.125,
          "durationTicks": 192,
          "midi": 26,
          "name": "D1",
          "ticks": 75072,
          "time": 48.875,
          "velocity": 0.3937007874015748
        },
        {
          "duration": 0.25,
          "durationTicks": 384,
          "midi": 26,
          "name": "D1",
          "ticks": 75648,
          "time": 49.25,
          "velocity": 0.3937007874015748
        },
        {
          "duration": 0.375,
          "durationTicks": 576,
          "midi": 26,
          "name": "D1",
          "ticks": 76224,
          "time": 49.625,
          "velocity": 0.3937007874015748
        },
        {
          "duration": 0.375,
          "durationTicks": 576,
          "midi": 25,
          "name": "C#1",
          "ticks": 76800,
          "time": 50,
          "velocity": 0.3937007874015748
        },
        {
          "duration": 0.375,
          "durationTicks": 576,
          "midi": 25,
          "name": "C#1",
          "ticks": 77568,
          "time": 50.5,
          "velocity": 0.3937007874015748
        },
        {
          "duration": 0.125,
          "durationTicks": 192,
          "midi": 25,
          "name": "C#1",
          "ticks": 78144,
          "time": 50.875,
          "velocity": 0.3937007874015748
        },
        {
          "duration": 0.25,
          "durationTicks": 384,
          "midi": 25,
          "name": "C#1",
          "ticks": 78720,
          "time": 51.25,
          "velocity": 0.3937007874015748
        },
        {
          "duration": 0.375,
          "durationTicks": 576,
          "midi": 25,
          "name": "C#1",
          "ticks": 79296,
          "time": 51.625,
          "velocity": 0.3937007874015748
        },
        {
          "duration": 0.375,
          "durationTicks": 576,
          "midi": 29,
          "name": "F1",
          "ticks": 79872,
          "time": 52,
          "velocity": 0.3937007874015748
        },
        {
          "duration": 0.375,
          "durationTicks": 576,
          "midi": 29,
          "name": "F1",
          "ticks": 80640,
          "time": 52.5,
          "velocity": 0.3937007874015748
        },
        {
          "duration": 0.125,
          "durationTicks": 192,
          "midi": 29,
          "name": "F1",
          "ticks": 81216,
          "time": 52.875,
          "velocity": 0.3937007874015748
        },
        {
          "duration": 0.25,
          "durationTicks": 384,
          "midi": 29,
          "name": "F1",
          "ticks": 81792,
          "time": 53.25,
          "velocity": 0.3937007874015748
        },
        {
          "duration": 0.375,
          "durationTicks": 576,
          "midi": 29,
          "name": "F1",
          "ticks": 82368,
          "time": 53.625,
          "velocity": 0.3937007874015748
        },
        {
          "duration": 0.375,
          "durationTicks": 576,
          "midi": 29,
          "name": "F1",
          "ticks": 82944,
          "time": 54,
          "velocity": 0.3937007874015748
        },
        {
          "duration": 0.375,
          "durationTicks": 576,
          "midi": 29,
          "name": "F1",
          "ticks": 83712,
          "time": 54.5,
          "velocity": 0.3937007874015748
        },
        {
          "duration": 0.125,
          "durationTicks": 192,
          "midi": 25,
          "name": "C#1",
          "ticks": 84288,
          "time": 54.875,
          "velocity": 0.3937007874015748
        },
        {
          "duration": 0.25,
          "durationTicks": 384,
          "midi": 25,
          "name": "C#1",
          "ticks": 84864,
          "time": 55.25,
          "velocity": 0.3937007874015748
        },
        {
          "duration": 0.375,
          "durationTicks": 576,
          "midi": 25,
          "name": "C#1",
          "ticks": 85440,
          "time": 55.625,
          "velocity": 0.3937007874015748
        },
        {
          "duration": 0.375,
          "durationTicks": 576,
          "midi": 27,
          "name": "D#1",
          "ticks": 86016,
          "time": 56,
          "velocity": 0.3937007874015748
        },
        {
          "duration": 0.375,
          "durationTicks": 576,
          "midi": 27,
          "name": "D#1",
          "ticks": 86784,
          "time": 56.5,
          "velocity": 0.3937007874015748
        },
        {
          "duration": 0.375,
          "durationTicks": 576,
          "midi": 27,
          "name": "D#1",
          "ticks": 87552,
          "time": 57,
          "velocity": 0.3937007874015748
        },
        {
          "duration": 0.375,
          "durationTicks": 576,
          "midi": 27,
          "name": "D#1",
          "ticks": 88320,
          "time": 57.5,
          "velocity": 0.3937007874015748
        },
        {
          "duration": 0.375,
          "durationTicks": 576,
          "midi": 27,
          "name": "D#1",
          "ticks": 89088,
          "time": 58,
          "velocity": 0.3937007874015748
        },
        {
          "duration": 0.375,
          "durationTicks": 576,
          "midi": 27,
          "name": "D#1",
          "ticks": 89856,
          "time": 58.5,
          "velocity": 0.3937007874015748
        },
        {
          "duration": 0.125,
          "durationTicks": 192,
          "midi": 27,
          "name": "D#1",
          "ticks": 90432,
          "time": 58.875,
          "velocity": 0.3937007874015748
        },
        {
          "duration": 0.25,
          "durationTicks": 384,
          "midi": 27,
          "name": "D#1",
          "ticks": 91008,
          "time": 59.25,
          "velocity": 0.3937007874015748
        },
        {
          "duration": 0.375,
          "durationTicks": 576,
          "midi": 27,
          "name": "D#1",
          "ticks": 91584,
          "time": 59.625,
          "velocity": 0.3937007874015748
        },
        {
          "duration": 0.375,
          "durationTicks": 576,
          "midi": 32,
          "name": "G#1",
          "ticks": 92160,
          "time": 60,
          "velocity": 0.3937007874015748
        },
        {
          "duration": 0.375,
          "durationTicks": 576,
          "midi": 32,
          "name": "G#1",
          "ticks": 92928,
          "time": 60.5,
          "velocity": 0.3937007874015748
        },
        {
          "duration": 0.375,
          "durationTicks": 576,
          "midi": 32,
          "name": "G#1",
          "ticks": 93696,
          "time": 61,
          "velocity": 0.3937007874015748
        },
        {
          "duration": 0.375,
          "durationTicks": 576,
          "midi": 32,
          "name": "G#1",
          "ticks": 94464,
          "time": 61.5,
          "velocity": 0.3937007874015748
        },
        {
          "duration": 0.375,
          "durationTicks": 576,
          "midi": 26,
          "name": "D1",
          "ticks": 95232,
          "time": 62,
          "velocity": 0.3937007874015748
        },
        {
          "duration": 0.375,
          "durationTicks": 576,
          "midi": 26,
          "name": "D1",
          "ticks": 96000,
          "time": 62.5,
          "velocity": 0.3937007874015748
        },
        {
          "duration": 0.125,
          "durationTicks": 192,
          "midi": 26,
          "name": "D1",
          "ticks": 96576,
          "time": 62.875,
          "velocity": 0.3937007874015748
        },
        {
          "duration": 0.25,
          "durationTicks": 384,
          "midi": 26,
          "name": "D1",
          "ticks": 97152,
          "time": 63.25,
          "velocity": 0.3937007874015748
        },
        {
          "duration": 0.375,
          "durationTicks": 576,
          "midi": 26,
          "name": "D1",
          "ticks": 97728,
          "time": 63.625,
          "velocity": 0.3937007874015748
        },
        {
          "duration": 0.375,
          "durationTicks": 576,
          "midi": 30,
          "name": "F#1",
          "ticks": 98304,
          "time": 64,
          "velocity": 0.3937007874015748
        },
        {
          "duration": 0.375,
          "durationTicks": 576,
          "midi": 30,
          "name": "F#1",
          "ticks": 99072,
          "time": 64.5,
          "velocity": 0.3937007874015748
        },
        {
          "duration": 0.125,
          "durationTicks": 192,
          "midi": 30,
          "name": "F#1",
          "ticks": 99648,
          "time": 64.875,
          "velocity": 0.3937007874015748
        },
        {
          "duration": 0.25,
          "durationTicks": 384,
          "midi": 30,
          "name": "F#1",
          "ticks": 100224,
          "time": 65.25,
          "velocity": 0.3937007874015748
        },
        {
          "duration": 0.375,
          "durationTicks": 576,
          "midi": 30,
          "name": "F#1",
          "ticks": 100800,
          "time": 65.625,
          "velocity": 0.3937007874015748
        },
        {
          "duration": 0.375,
          "durationTicks": 576,
          "midi": 23,
          "name": "B0",
          "ticks": 101376,
          "time": 66,
          "velocity": 0.3937007874015748
        },
        {
          "duration": 0.375,
          "durationTicks": 576,
          "midi": 23,
          "name": "B0",
          "ticks": 102144,
          "time": 66.5,
          "velocity": 0.3937007874015748
        },
        {
          "duration": 0.25,
          "durationTicks": 384,
          "midi": 25,
          "name": "C#1",
          "ticks": 102720,
          "time": 66.875,
          "velocity": 0.3937007874015748
        },
        {
          "duration": 0.25,
          "durationTicks": 384,
          "midi": 25,
          "name": "C#1",
          "ticks": 103296,
          "time": 67.25,
          "velocity": 0.3937007874015748
        },
        {
          "duration": 0.25,
          "durationTicks": 384,
          "midi": 25,
          "name": "C#1",
          "ticks": 103872,
          "time": 67.625,
          "velocity": 0.3937007874015748
        },
        {
          "duration": 0.375,
          "durationTicks": 576,
          "midi": 26,
          "name": "D1",
          "ticks": 104448,
          "time": 68,
          "velocity": 0.3937007874015748
        },
        {
          "duration": 0.375,
          "durationTicks": 576,
          "midi": 26,
          "name": "D1",
          "ticks": 105216,
          "time": 68.5,
          "velocity": 0.3937007874015748
        },
        {
          "duration": 0.25,
          "durationTicks": 384,
          "midi": 31,
          "name": "G1",
          "ticks": 105792,
          "time": 68.875,
          "velocity": 0.3937007874015748
        },
        {
          "duration": 0.25,
          "durationTicks": 384,
          "midi": 31,
          "name": "G1",
          "ticks": 106368,
          "time": 69.25,
          "velocity": 0.3937007874015748
        },
        {
          "duration": 0.25,
          "durationTicks": 384,
          "midi": 31,
          "name": "G1",
          "ticks": 106944,
          "time": 69.625,
          "velocity": 0.3937007874015748
        },
        {
          "duration": 0.375,
          "durationTicks": 576,
          "midi": 31,
          "name": "G1",
          "ticks": 107520,
          "time": 70,
          "velocity": 0.3937007874015748
        },
        {
          "duration": 0.375,
          "durationTicks": 576,
          "midi": 31,
          "name": "G1",
          "ticks": 108288,
          "time": 70.5,
          "velocity": 0.3937007874015748
        },
        {
          "duration": 0.25,
          "durationTicks": 384,
          "midi": 34,
          "name": "A#1",
          "ticks": 108864,
          "time": 70.875,
          "velocity": 0.3937007874015748
        },
        {
          "duration": 0.25,
          "durationTicks": 384,
          "midi": 34,
          "name": "A#1",
          "ticks": 109440,
          "time": 71.25,
          "velocity": 0.3937007874015748
        },
        {
          "duration": 0.25,
          "durationTicks": 384,
          "midi": 34,
          "name": "A#1",
          "ticks": 110016,
          "time": 71.625,
          "velocity": 0.3937007874015748
        },
        {
          "duration": 0.375,
          "durationTicks": 576,
          "midi": 26,
          "name": "D1",
          "ticks": 110592,
          "time": 72,
          "velocity": 0.3937007874015748
        },
        {
          "duration": 0.375,
          "durationTicks": 576,
          "midi": 26,
          "name": "D1",
          "ticks": 111360,
          "time": 72.5,
          "velocity": 0.3937007874015748
        },
        {
          "duration": 0.25,
          "durationTicks": 384,
          "midi": 28,
          "name": "E1",
          "ticks": 111936,
          "time": 72.875,
          "velocity": 0.3937007874015748
        },
        {
          "duration": 0.25,
          "durationTicks": 384,
          "midi": 28,
          "name": "E1",
          "ticks": 112512,
          "time": 73.25,
          "velocity": 0.3937007874015748
        },
        {
          "duration": 0.25,
          "durationTicks": 384,
          "midi": 28,
          "name": "E1",
          "ticks": 113088,
          "time": 73.625,
          "velocity": 0.3937007874015748
        },
        {
          "duration": 0.375,
          "durationTicks": 576,
          "midi": 30,
          "name": "F#1",
          "ticks": 113664,
          "time": 74,
          "velocity": 0.3937007874015748
        },
        {
          "duration": 0.375,
          "durationTicks": 576,
          "midi": 30,
          "name": "F#1",
          "ticks": 114432,
          "time": 74.5,
          "velocity": 0.3937007874015748
        },
        {
          "duration": 0.25,
          "durationTicks": 384,
          "midi": 31,
          "name": "G1",
          "ticks": 115008,
          "time": 74.875,
          "velocity": 0.3937007874015748
        },
        {
          "duration": 0.25,
          "durationTicks": 384,
          "midi": 31,
          "name": "G1",
          "ticks": 115584,
          "time": 75.25,
          "velocity": 0.3937007874015748
        },
        {
          "duration": 0.25,
          "durationTicks": 384,
          "midi": 31,
          "name": "G1",
          "ticks": 116160,
          "time": 75.625,
          "velocity": 0.3937007874015748
        },
        {
          "duration": 0.375,
          "durationTicks": 576,
          "midi": 34,
          "name": "A#1",
          "ticks": 116736,
          "time": 76,
          "velocity": 0.3937007874015748
        },
        {
          "duration": 0.375,
          "durationTicks": 576,
          "midi": 34,
          "name": "A#1",
          "ticks": 117504,
          "time": 76.5,
          "velocity": 0.3937007874015748
        },
        {
          "duration": 0.25,
          "durationTicks": 384,
          "midi": 30,
          "name": "F#1",
          "ticks": 118080,
          "time": 76.875,
          "velocity": 0.3937007874015748
        },
        {
          "duration": 0.25,
          "durationTicks": 384,
          "midi": 30,
          "name": "F#1",
          "ticks": 118656,
          "time": 77.25,
          "velocity": 0.3937007874015748
        },
        {
          "duration": 0.25,
          "durationTicks": 384,
          "midi": 30,
          "name": "F#1",
          "ticks": 119232,
          "time": 77.625,
          "velocity": 0.3937007874015748
        },
        {
          "duration": 0.375,
          "durationTicks": 576,
          "midi": 31,
          "name": "G1",
          "ticks": 119808,
          "time": 78,
          "velocity": 0.3937007874015748
        },
        {
          "duration": 0.375,
          "durationTicks": 576,
          "midi": 31,
          "name": "G1",
          "ticks": 120576,
          "time": 78.5,
          "velocity": 0.3937007874015748
        },
        {
          "duration": 0.25,
          "durationTicks": 384,
          "midi": 30,
          "name": "F#1",
          "ticks": 121152,
          "time": 78.875,
          "velocity": 0.3937007874015748
        },
        {
          "duration": 0.25,
          "durationTicks": 384,
          "midi": 30,
          "name": "F#1",
          "ticks": 121728,
          "time": 79.25,
          "velocity": 0.3937007874015748
        },
        {
          "duration": 0.25,
          "durationTicks": 384,
          "midi": 30,
          "name": "F#1",
          "ticks": 122304,
          "time": 79.625,
          "velocity": 0.3937007874015748
        },
        {
          "duration": 0.375,
          "durationTicks": 576,
          "midi": 29,
          "name": "F1",
          "ticks": 122880,
          "time": 80,
          "velocity": 0.3937007874015748
        },
        {
          "duration": 0.375,
          "durationTicks": 576,
          "midi": 29,
          "name": "F1",
          "ticks": 123648,
          "time": 80.5,
          "velocity": 0.3937007874015748
        },
        {
          "duration": 0.25,
          "durationTicks": 384,
          "midi": 29,
          "name": "F1",
          "ticks": 124224,
          "time": 80.875,
          "velocity": 0.3937007874015748
        },
        {
          "duration": 0.25,
          "durationTicks": 384,
          "midi": 29,
          "name": "F1",
          "ticks": 124800,
          "time": 81.25,
          "velocity": 0.3937007874015748
        },
        {
          "duration": 0.25,
          "durationTicks": 384,
          "midi": 29,
          "name": "F1",
          "ticks": 125376,
          "time": 81.625,
          "velocity": 0.3937007874015748
        },
        {
          "duration": 0.375,
          "durationTicks": 576,
          "midi": 28,
          "name": "E1",
          "ticks": 125952,
          "time": 82,
          "velocity": 0.3937007874015748
        },
        {
          "duration": 0.375,
          "durationTicks": 576,
          "midi": 28,
          "name": "E1",
          "ticks": 126720,
          "time": 82.5,
          "velocity": 0.3937007874015748
        },
        {
          "duration": 0.375,
          "durationTicks": 576,
          "midi": 28,
          "name": "E1",
          "ticks": 127488,
          "time": 83,
          "velocity": 0.3937007874015748
        },
        {
          "duration": 0.375,
          "durationTicks": 576,
          "midi": 28,
          "name": "E1",
          "ticks": 128256,
          "time": 83.5,
          "velocity": 0.3937007874015748
        },
        {
          "duration": 0.375,
          "durationTicks": 576,
          "midi": 26,
          "name": "D1",
          "ticks": 129024,
          "time": 84,
          "velocity": 0.3937007874015748
        },
        {
          "duration": 0.375,
          "durationTicks": 576,
          "midi": 26,
          "name": "D1",
          "ticks": 129792,
          "time": 84.5,
          "velocity": 0.3937007874015748
        },
        {
          "duration": 0.125,
          "durationTicks": 192,
          "midi": 26,
          "name": "D1",
          "ticks": 130368,
          "time": 84.875,
          "velocity": 0.3937007874015748
        },
        {
          "duration": 0.375,
          "durationTicks": 576,
          "midi": 26,
          "name": "D1",
          "ticks": 130944,
          "time": 85.25,
          "velocity": 0.3937007874015748
        },
        {
          "duration": 0.375,
          "durationTicks": 576,
          "midi": 26,
          "name": "D1",
          "ticks": 131520,
          "time": 85.625,
          "velocity": 0.3937007874015748
        },
        {
          "duration": 0.375,
          "durationTicks": 576,
          "midi": 31,
          "name": "G1",
          "ticks": 132096,
          "time": 86,
          "velocity": 0.3937007874015748
        },
        {
          "duration": 0.375,
          "durationTicks": 576,
          "midi": 31,
          "name": "G1",
          "ticks": 132864,
          "time": 86.5,
          "velocity": 0.3937007874015748
        },
        {
          "duration": 0.375,
          "durationTicks": 576,
          "midi": 31,
          "name": "G1",
          "ticks": 133632,
          "time": 87,
          "velocity": 0.3937007874015748
        },
        {
          "duration": 0.375,
          "durationTicks": 576,
          "midi": 31,
          "name": "G1",
          "ticks": 134400,
          "time": 87.5,
          "velocity": 0.3937007874015748
        },
        {
          "duration": 0.375,
          "durationTicks": 576,
          "midi": 30,
          "name": "F#1",
          "ticks": 135168,
          "time": 88,
          "velocity": 0.3937007874015748
        },
        {
          "duration": 0.375,
          "durationTicks": 576,
          "midi": 30,
          "name": "F#1",
          "ticks": 135936,
          "time": 88.5,
          "velocity": 0.3937007874015748
        },
        {
          "duration": 0.125,
          "durationTicks": 192,
          "midi": 30,
          "name": "F#1",
          "ticks": 136512,
          "time": 88.875,
          "velocity": 0.3937007874015748
        },
        {
          "duration": 0.375,
          "durationTicks": 576,
          "midi": 30,
          "name": "F#1",
          "ticks": 137088,
          "time": 89.25,
          "velocity": 0.3937007874015748
        },
        {
          "duration": 0.375,
          "durationTicks": 576,
          "midi": 30,
          "name": "F#1",
          "ticks": 137664,
          "time": 89.625,
          "velocity": 0.3937007874015748
        },
        {
          "duration": 0.375,
          "durationTicks": 576,
          "midi": 30,
          "name": "F#1",
          "ticks": 138240,
          "time": 90,
          "velocity": 0.3937007874015748
        },
        {
          "duration": 0.375,
          "durationTicks": 576,
          "midi": 30,
          "name": "F#1",
          "ticks": 139008,
          "time": 90.5,
          "velocity": 0.3937007874015748
        },
        {
          "duration": 0.375,
          "durationTicks": 576,
          "midi": 31,
          "name": "G1",
          "ticks": 139776,
          "time": 91,
          "velocity": 0.3937007874015748
        },
        {
          "duration": 0.375,
          "durationTicks": 576,
          "midi": 31,
          "name": "G1",
          "ticks": 140544,
          "time": 91.5,
          "velocity": 0.3937007874015748
        },
        {
          "duration": 0.375,
          "durationTicks": 576,
          "midi": 33,
          "name": "A1",
          "ticks": 141312,
          "time": 92,
          "velocity": 0.3937007874015748
        },
        {
          "duration": 0.375,
          "durationTicks": 576,
          "midi": 33,
          "name": "A1",
          "ticks": 142080,
          "time": 92.5,
          "velocity": 0.3937007874015748
        },
        {
          "duration": 0.375,
          "durationTicks": 576,
          "midi": 34,
          "name": "A#1",
          "ticks": 142848,
          "time": 93,
          "velocity": 0.3937007874015748
        },
        {
          "duration": 0.375,
          "durationTicks": 576,
          "midi": 24,
          "name": "C1",
          "ticks": 143616,
          "time": 93.5,
          "velocity": 0.3937007874015748
        },
        {
          "duration": 0.375,
          "durationTicks": 576,
          "midi": 24,
          "name": "C1",
          "ticks": 144384,
          "time": 94,
          "velocity": 0.3937007874015748
        },
        {
          "duration": 0.375,
          "durationTicks": 576,
          "midi": 24,
          "name": "C1",
          "ticks": 145152,
          "time": 94.5,
          "velocity": 0.3937007874015748
        },
        {
          "duration": 0.375,
          "durationTicks": 576,
          "midi": 28,
          "name": "E1",
          "ticks": 145920,
          "time": 95,
          "velocity": 0.3937007874015748
        },
        {
          "duration": 0.375,
          "durationTicks": 576,
          "midi": 31,
          "name": "G1",
          "ticks": 146688,
          "time": 95.5,
          "velocity": 0.3937007874015748
        },
        {
          "duration": 0.375,
          "durationTicks": 576,
          "midi": 32,
          "name": "G#1",
          "ticks": 147456,
          "time": 96,
          "velocity": 0.3937007874015748
        },
        {
          "duration": 0.375,
          "durationTicks": 576,
          "midi": 32,
          "name": "G#1",
          "ticks": 148224,
          "time": 96.5,
          "velocity": 0.3937007874015748
        },
        {
          "duration": 0.125,
          "durationTicks": 192,
          "midi": 32,
          "name": "G#1",
          "ticks": 148800,
          "time": 96.875,
          "velocity": 0.3937007874015748
        },
        {
          "duration": 0.375,
          "durationTicks": 576,
          "midi": 32,
          "name": "G#1",
          "ticks": 149376,
          "time": 97.25,
          "velocity": 0.3937007874015748
        },
        {
          "duration": 0.375,
          "durationTicks": 576,
          "midi": 32,
          "name": "G#1",
          "ticks": 149952,
          "time": 97.625,
          "velocity": 0.3937007874015748
        },
        {
          "duration": 0.375,
          "durationTicks": 576,
          "midi": 31,
          "name": "G1",
          "ticks": 150528,
          "time": 98,
          "velocity": 0.3937007874015748
        },
        {
          "duration": 0.375,
          "durationTicks": 576,
          "midi": 31,
          "name": "G1",
          "ticks": 151296,
          "time": 98.5,
          "velocity": 0.3937007874015748
        },
        {
          "duration": 0.375,
          "durationTicks": 576,
          "midi": 29,
          "name": "F1",
          "ticks": 152064,
          "time": 99,
          "velocity": 0.3937007874015748
        },
        {
          "duration": 0.375,
          "durationTicks": 576,
          "midi": 29,
          "name": "F1",
          "ticks": 152832,
          "time": 99.5,
          "velocity": 0.3937007874015748
        },
        {
          "duration": 0.375,
          "durationTicks": 576,
          "midi": 28,
          "name": "E1",
          "ticks": 153600,
          "time": 100,
          "velocity": 0.3937007874015748
        },
        {
          "duration": 0.375,
          "durationTicks": 576,
          "midi": 28,
          "name": "E1",
          "ticks": 154368,
          "time": 100.5,
          "velocity": 0.3937007874015748
        },
        {
          "duration": 0.375,
          "durationTicks": 576,
          "midi": 28,
          "name": "E1",
          "ticks": 155136,
          "time": 101,
          "velocity": 0.3937007874015748
        },
        {
          "duration": 0.375,
          "durationTicks": 576,
          "midi": 28,
          "name": "E1",
          "ticks": 155904,
          "time": 101.5,
          "velocity": 0.3937007874015748
        },
        {
          "duration": 0.375,
          "durationTicks": 576,
          "midi": 28,
          "name": "E1",
          "ticks": 156672,
          "time": 102,
          "velocity": 0.3937007874015748
        },
        {
          "duration": 0.375,
          "durationTicks": 576,
          "midi": 28,
          "name": "E1",
          "ticks": 157440,
          "time": 102.5,
          "velocity": 0.3937007874015748
        },
        {
          "duration": 0.375,
          "durationTicks": 576,
          "midi": 26,
          "name": "D1",
          "ticks": 158208,
          "time": 103,
          "velocity": 0.3937007874015748
        },
        {
          "duration": 0.375,
          "durationTicks": 576,
          "midi": 26,
          "name": "D1",
          "ticks": 158976,
          "time": 103.5,
          "velocity": 0.3937007874015748
        },
        {
          "duration": 0.375,
          "durationTicks": 576,
          "midi": 24,
          "name": "C1",
          "ticks": 159744,
          "time": 104,
          "velocity": 0.3937007874015748
        },
        {
          "duration": 0.375,
          "durationTicks": 576,
          "midi": 24,
          "name": "C1",
          "ticks": 160512,
          "time": 104.5,
          "velocity": 0.3937007874015748
        },
        {
          "duration": 0.125,
          "durationTicks": 192,
          "midi": 24,
          "name": "C1",
          "ticks": 161088,
          "time": 104.875,
          "velocity": 0.3937007874015748
        },
        {
          "duration": 0.25,
          "durationTicks": 384,
          "midi": 24,
          "name": "C1",
          "ticks": 161664,
          "time": 105.25,
          "velocity": 0.3937007874015748
        },
        {
          "duration": 0.375,
          "durationTicks": 576,
          "midi": 24,
          "name": "C1",
          "ticks": 162240,
          "time": 105.625,
          "velocity": 0.3937007874015748
        },
        {
          "duration": 0.375,
          "durationTicks": 576,
          "midi": 26,
          "name": "D1",
          "ticks": 162816,
          "time": 106,
          "velocity": 0.3937007874015748
        },
        {
          "duration": 0.375,
          "durationTicks": 576,
          "midi": 26,
          "name": "D1",
          "ticks": 163584,
          "time": 106.5,
          "velocity": 0.3937007874015748
        },
        {
          "duration": 0.125,
          "durationTicks": 192,
          "midi": 26,
          "name": "D1",
          "ticks": 164160,
          "time": 106.875,
          "velocity": 0.3937007874015748
        },
        {
          "duration": 0.25,
          "durationTicks": 384,
          "midi": 26,
          "name": "D1",
          "ticks": 164736,
          "time": 107.25,
          "velocity": 0.3937007874015748
        },
        {
          "duration": 0.375,
          "durationTicks": 576,
          "midi": 26,
          "name": "D1",
          "ticks": 165312,
          "time": 107.625,
          "velocity": 0.3937007874015748
        },
        {
          "duration": 0.375,
          "durationTicks": 576,
          "midi": 25,
          "name": "C#1",
          "ticks": 165888,
          "time": 108,
          "velocity": 0.3937007874015748
        },
        {
          "duration": 0.375,
          "durationTicks": 576,
          "midi": 25,
          "name": "C#1",
          "ticks": 166656,
          "time": 108.5,
          "velocity": 0.3937007874015748
        },
        {
          "duration": 0.125,
          "durationTicks": 192,
          "midi": 25,
          "name": "C#1",
          "ticks": 167232,
          "time": 108.875,
          "velocity": 0.3937007874015748
        },
        {
          "duration": 0.25,
          "durationTicks": 384,
          "midi": 25,
          "name": "C#1",
          "ticks": 167808,
          "time": 109.25,
          "velocity": 0.3937007874015748
        },
        {
          "duration": 0.375,
          "durationTicks": 576,
          "midi": 25,
          "name": "C#1",
          "ticks": 168384,
          "time": 109.625,
          "velocity": 0.3937007874015748
        },
        {
          "duration": 0.375,
          "durationTicks": 576,
          "midi": 29,
          "name": "F1",
          "ticks": 168960,
          "time": 110,
          "velocity": 0.3937007874015748
        },
        {
          "duration": 0.375,
          "durationTicks": 576,
          "midi": 29,
          "name": "F1",
          "ticks": 169728,
          "time": 110.5,
          "velocity": 0.3937007874015748
        },
        {
          "duration": 0.125,
          "durationTicks": 192,
          "midi": 29,
          "name": "F1",
          "ticks": 170304,
          "time": 110.875,
          "velocity": 0.3937007874015748
        },
        {
          "duration": 0.25,
          "durationTicks": 384,
          "midi": 29,
          "name": "F1",
          "ticks": 170880,
          "time": 111.25,
          "velocity": 0.3937007874015748
        },
        {
          "duration": 0.375,
          "durationTicks": 576,
          "midi": 29,
          "name": "F1",
          "ticks": 171456,
          "time": 111.625,
          "velocity": 0.3937007874015748
        },
        {
          "duration": 0.375,
          "durationTicks": 576,
          "midi": 29,
          "name": "F1",
          "ticks": 172032,
          "time": 112,
          "velocity": 0.3937007874015748
        },
        {
          "duration": 0.375,
          "durationTicks": 576,
          "midi": 29,
          "name": "F1",
          "ticks": 172800,
          "time": 112.5,
          "velocity": 0.3937007874015748
        },
        {
          "duration": 0.125,
          "durationTicks": 192,
          "midi": 25,
          "name": "C#1",
          "ticks": 173376,
          "time": 112.875,
          "velocity": 0.3937007874015748
        },
        {
          "duration": 0.25,
          "durationTicks": 384,
          "midi": 25,
          "name": "C#1",
          "ticks": 173952,
          "time": 113.25,
          "velocity": 0.3937007874015748
        },
        {
          "duration": 0.375,
          "durationTicks": 576,
          "midi": 25,
          "name": "C#1",
          "ticks": 174528,
          "time": 113.625,
          "velocity": 0.3937007874015748
        },
        {
          "duration": 0.375,
          "durationTicks": 576,
          "midi": 27,
          "name": "D#1",
          "ticks": 175104,
          "time": 114,
          "velocity": 0.3937007874015748
        },
        {
          "duration": 0.375,
          "durationTicks": 576,
          "midi": 27,
          "name": "D#1",
          "ticks": 175872,
          "time": 114.5,
          "velocity": 0.3937007874015748
        },
        {
          "duration": 0.375,
          "durationTicks": 576,
          "midi": 27,
          "name": "D#1",
          "ticks": 176640,
          "time": 115,
          "velocity": 0.3937007874015748
        },
        {
          "duration": 0.375,
          "durationTicks": 576,
          "midi": 27,
          "name": "D#1",
          "ticks": 177408,
          "time": 115.5,
          "velocity": 0.3937007874015748
        },
        {
          "duration": 0.375,
          "durationTicks": 576,
          "midi": 27,
          "name": "D#1",
          "ticks": 178176,
          "time": 116,
          "velocity": 0.3937007874015748
        },
        {
          "duration": 0.375,
          "durationTicks": 576,
          "midi": 27,
          "name": "D#1",
          "ticks": 178944,
          "time": 116.5,
          "velocity": 0.3937007874015748
        },
        {
          "duration": 0.125,
          "durationTicks": 192,
          "midi": 27,
          "name": "D#1",
          "ticks": 179520,
          "time": 116.875,
          "velocity": 0.3937007874015748
        },
        {
          "duration": 0.25,
          "durationTicks": 384,
          "midi": 27,
          "name": "D#1",
          "ticks": 180096,
          "time": 117.25,
          "velocity": 0.3937007874015748
        },
        {
          "duration": 0.375,
          "durationTicks": 576,
          "midi": 27,
          "name": "D#1",
          "ticks": 180672,
          "time": 117.625,
          "velocity": 0.3937007874015748
        },
        {
          "duration": 0.375,
          "durationTicks": 576,
          "midi": 32,
          "name": "G#1",
          "ticks": 181248,
          "time": 118,
          "velocity": 0.3937007874015748
        },
        {
          "duration": 0.375,
          "durationTicks": 576,
          "midi": 32,
          "name": "G#1",
          "ticks": 182016,
          "time": 118.5,
          "velocity": 0.3937007874015748
        },
        {
          "duration": 0.375,
          "durationTicks": 576,
          "midi": 32,
          "name": "G#1",
          "ticks": 182784,
          "time": 119,
          "velocity": 0.3937007874015748
        },
        {
          "duration": 0.375,
          "durationTicks": 576,
          "midi": 32,
          "name": "G#1",
          "ticks": 183552,
          "time": 119.5,
          "velocity": 0.3937007874015748
        },
        {
          "duration": 0.375,
          "durationTicks": 576,
          "midi": 26,
          "name": "D1",
          "ticks": 184320,
          "time": 120,
          "velocity": 0.3937007874015748
        },
        {
          "duration": 0.375,
          "durationTicks": 576,
          "midi": 26,
          "name": "D1",
          "ticks": 185088,
          "time": 120.5,
          "velocity": 0.3937007874015748
        },
        {
          "duration": 0.125,
          "durationTicks": 192,
          "midi": 26,
          "name": "D1",
          "ticks": 185664,
          "time": 120.875,
          "velocity": 0.3937007874015748
        },
        {
          "duration": 0.25,
          "durationTicks": 384,
          "midi": 26,
          "name": "D1",
          "ticks": 186240,
          "time": 121.25,
          "velocity": 0.3937007874015748
        },
        {
          "duration": 0.375,
          "durationTicks": 576,
          "midi": 26,
          "name": "D1",
          "ticks": 186816,
          "time": 121.625,
          "velocity": 0.3937007874015748
        },
        {
          "duration": 0.375,
          "durationTicks": 576,
          "midi": 30,
          "name": "F#1",
          "ticks": 187392,
          "time": 122,
          "velocity": 0.3937007874015748
        },
        {
          "duration": 0.375,
          "durationTicks": 576,
          "midi": 30,
          "name": "F#1",
          "ticks": 188160,
          "time": 122.5,
          "velocity": 0.3937007874015748
        },
        {
          "duration": 0.125,
          "durationTicks": 192,
          "midi": 30,
          "name": "F#1",
          "ticks": 188736,
          "time": 122.875,
          "velocity": 0.3937007874015748
        },
        {
          "duration": 0.25,
          "durationTicks": 384,
          "midi": 30,
          "name": "F#1",
          "ticks": 189312,
          "time": 123.25,
          "velocity": 0.3937007874015748
        },
        {
          "duration": 0.375,
          "durationTicks": 576,
          "midi": 30,
          "name": "F#1",
          "ticks": 189888,
          "time": 123.625,
          "velocity": 0.3937007874015748
        },
        {
          "duration": 0.375,
          "durationTicks": 576,
          "midi": 23,
          "name": "B0",
          "ticks": 190464,
          "time": 124,
          "velocity": 0.3937007874015748
        },
        {
          "duration": 0.375,
          "durationTicks": 576,
          "midi": 23,
          "name": "B0",
          "ticks": 191232,
          "time": 124.5,
          "velocity": 0.3937007874015748
        },
        {
          "duration": 0.25,
          "durationTicks": 384,
          "midi": 25,
          "name": "C#1",
          "ticks": 191808,
          "time": 124.875,
          "velocity": 0.3937007874015748
        },
        {
          "duration": 0.25,
          "durationTicks": 384,
          "midi": 25,
          "name": "C#1",
          "ticks": 192384,
          "time": 125.25,
          "velocity": 0.3937007874015748
        },
        {
          "duration": 0.25,
          "durationTicks": 384,
          "midi": 25,
          "name": "C#1",
          "ticks": 192960,
          "time": 125.625,
          "velocity": 0.3937007874015748
        },
        {
          "duration": 0.375,
          "durationTicks": 576,
          "midi": 26,
          "name": "D1",
          "ticks": 193536,
          "time": 126,
          "velocity": 0.3937007874015748
        },
        {
          "duration": 0.375,
          "durationTicks": 576,
          "midi": 26,
          "name": "D1",
          "ticks": 194304,
          "time": 126.5,
          "velocity": 0.3937007874015748
        },
        {
          "duration": 0.25,
          "durationTicks": 384,
          "midi": 31,
          "name": "G1",
          "ticks": 194880,
          "time": 126.875,
          "velocity": 0.3937007874015748
        },
        {
          "duration": 0.25,
          "durationTicks": 384,
          "midi": 31,
          "name": "G1",
          "ticks": 195456,
          "time": 127.25,
          "velocity": 0.3937007874015748
        },
        {
          "duration": 0.25,
          "durationTicks": 384,
          "midi": 31,
          "name": "G1",
          "ticks": 196032,
          "time": 127.625,
          "velocity": 0.3937007874015748
        },
        {
          "duration": 0.375,
          "durationTicks": 576,
          "midi": 31,
          "name": "G1",
          "ticks": 196608,
          "time": 128,
          "velocity": 0.3937007874015748
        },
        {
          "duration": 0.375,
          "durationTicks": 576,
          "midi": 31,
          "name": "G1",
          "ticks": 197376,
          "time": 128.5,
          "velocity": 0.3937007874015748
        },
        {
          "duration": 0.25,
          "durationTicks": 384,
          "midi": 34,
          "name": "A#1",
          "ticks": 197952,
          "time": 128.875,
          "velocity": 0.3937007874015748
        },
        {
          "duration": 0.25,
          "durationTicks": 384,
          "midi": 34,
          "name": "A#1",
          "ticks": 198528,
          "time": 129.25,
          "velocity": 0.3937007874015748
        },
        {
          "duration": 0.25,
          "durationTicks": 384,
          "midi": 34,
          "name": "A#1",
          "ticks": 199104,
          "time": 129.625,
          "velocity": 0.3937007874015748
        },
        {
          "duration": 0.375,
          "durationTicks": 576,
          "midi": 26,
          "name": "D1",
          "ticks": 199680,
          "time": 130,
          "velocity": 0.3937007874015748
        },
        {
          "duration": 0.375,
          "durationTicks": 576,
          "midi": 26,
          "name": "D1",
          "ticks": 200448,
          "time": 130.5,
          "velocity": 0.3937007874015748
        },
        {
          "duration": 0.25,
          "durationTicks": 384,
          "midi": 28,
          "name": "E1",
          "ticks": 201024,
          "time": 130.875,
          "velocity": 0.3937007874015748
        },
        {
          "duration": 0.25,
          "durationTicks": 384,
          "midi": 28,
          "name": "E1",
          "ticks": 201600,
          "time": 131.25,
          "velocity": 0.3937007874015748
        },
        {
          "duration": 0.25,
          "durationTicks": 384,
          "midi": 28,
          "name": "E1",
          "ticks": 202176,
          "time": 131.625,
          "velocity": 0.3937007874015748
        },
        {
          "duration": 0.375,
          "durationTicks": 576,
          "midi": 30,
          "name": "F#1",
          "ticks": 202752,
          "time": 132,
          "velocity": 0.3937007874015748
        },
        {
          "duration": 0.375,
          "durationTicks": 576,
          "midi": 30,
          "name": "F#1",
          "ticks": 203520,
          "time": 132.5,
          "velocity": 0.3937007874015748
        }
      ],
      "endOfTrackTicks": 204096
    },
    {
      "channel": 7,
      "controlChanges": {},
      "pitchBends": [],
      "instrument": {
        "family": "piano",
        "number": 0,
        "name": "acoustic grand piano"
      },
      "name": "Clean Guitar",
      "notes": [
        {
          "duration": 0.37565104166666696,
          "durationTicks": 577,
          "midi": 59,
          "name": "B3",
          "ticks": 12277,
          "time": 7.992838541666667,
          "velocity": 0.33070866141732286
        },
        {
          "duration": 0.37565104166666696,
          "durationTicks": 577,
          "midi": 61,
          "name": "C#4",
          "ticks": 12280,
          "time": 7.994791666666667,
          "velocity": 0.23622047244094488
        },
        {
          "duration": 0.37565104166666696,
          "durationTicks": 577,
          "midi": 62,
          "name": "D4",
          "ticks": 12284,
          "time": 7.997395833333333,
          "velocity": 0.4645669291338583
        },
        {
          "duration": 0.37565104166666785,
          "durationTicks": 577,
          "midi": 66,
          "name": "F#4",
          "ticks": 12289,
          "time": 8.000651041666666,
          "velocity": 0.33858267716535434
        },
        {
          "duration": 0.37565104166666785,
          "durationTicks": 577,
          "midi": 71,
          "name": "B4",
          "ticks": 12292,
          "time": 8.002604166666666,
          "velocity": 0.2047244094488189
        },
        {
          "duration": 0.375,
          "durationTicks": 576,
          "midi": 62,
          "name": "D4",
          "ticks": 13043,
          "time": 8.491536458333334,
          "velocity": 0.31496062992125984
        },
        {
          "duration": 0.375,
          "durationTicks": 576,
          "midi": 61,
          "name": "C#4",
          "ticks": 13048,
          "time": 8.494791666666666,
          "velocity": 0.25196850393700787
        },
        {
          "duration": 0.375,
          "durationTicks": 576,
          "midi": 59,
          "name": "B3",
          "ticks": 13064,
          "time": 8.505208333333334,
          "velocity": 0.49606299212598426
        },
        {
          "duration": 0.375,
          "durationTicks": 576,
          "midi": 66,
          "name": "F#4",
          "ticks": 13071,
          "time": 8.509765625,
          "velocity": 0.5433070866141733
        },
        {
          "duration": 0.375,
          "durationTicks": 576,
          "midi": 71,
          "name": "B4",
          "ticks": 13080,
          "time": 8.515625,
          "velocity": 0.2677165354330709
        },
        {
          "duration": 0.125,
          "durationTicks": 192,
          "midi": 64,
          "name": "E4",
          "ticks": 13616,
          "time": 8.864583333333334,
          "velocity": 0.36220472440944884
        },
        {
          "duration": 0.125,
          "durationTicks": 192,
          "midi": 71,
          "name": "B4",
          "ticks": 13633,
          "time": 8.875651041666666,
          "velocity": 0.2047244094488189
        },
        {
          "duration": 0.125,
          "durationTicks": 192,
          "midi": 59,
          "name": "B3",
          "ticks": 13638,
          "time": 8.87890625,
          "velocity": 0.44881889763779526
        },
        {
          "duration": 0.125,
          "durationTicks": 192,
          "midi": 66,
          "name": "F#4",
          "ticks": 13646,
          "time": 8.884114583333334,
          "velocity": 0.44881889763779526
        },
        {
          "duration": 0.125,
          "durationTicks": 192,
          "midi": 62,
          "name": "D4",
          "ticks": 13654,
          "time": 8.889322916666666,
          "velocity": 0.33858267716535434
        },
        {
          "duration": 0.24934895833333393,
          "durationTicks": 383,
          "midi": 71,
          "name": "B4",
          "ticks": 14187,
          "time": 9.236328125,
          "velocity": 0.2204724409448819
        },
        {
          "duration": 0.25,
          "durationTicks": 384,
          "midi": 66,
          "name": "F#4",
          "ticks": 14200,
          "time": 9.244791666666666,
          "velocity": 0.4566929133858268
        },
        {
          "duration": 0.24674479166666785,
          "durationTicks": 379,
          "midi": 64,
          "name": "E4",
          "ticks": 14200,
          "time": 9.244791666666666,
          "velocity": 0.2283464566929134
        },
        {
          "duration": 0.25,
          "durationTicks": 384,
          "midi": 59,
          "name": "B3",
          "ticks": 14204,
          "time": 9.247395833333334,
          "velocity": 0.36220472440944884
        },
        {
          "duration": 0.2506510416666661,
          "durationTicks": 385,
          "midi": 62,
          "name": "D4",
          "ticks": 14211,
          "time": 9.251953125,
          "velocity": 0.5275590551181102
        },
        {
          "duration": 0.12630208333333393,
          "durationTicks": 194,
          "midi": 71,
          "name": "B4",
          "ticks": 14583,
          "time": 9.494140625,
          "velocity": 0.023622047244094488
        },
        {
          "duration": 0.12565104166666607,
          "durationTicks": 193,
          "midi": 59,
          "name": "B3",
          "ticks": 14585,
          "time": 9.495442708333334,
          "velocity": 0.2204724409448819
        },
        {
          "duration": 0.125,
          "durationTicks": 192,
          "midi": 66,
          "name": "F#4",
          "ticks": 14591,
          "time": 9.499348958333334,
          "velocity": 0.14173228346456693
        },
        {
          "duration": 0.125,
          "durationTicks": 192,
          "midi": 62,
          "name": "D4",
          "ticks": 14605,
          "time": 9.508463541666666,
          "velocity": 0.14173228346456693
        },
        {
          "duration": 0.25,
          "durationTicks": 384,
          "midi": 64,
          "name": "E4",
          "ticks": 14778,
          "time": 9.62109375,
          "velocity": 0.23622047244094488
        },
        {
          "duration": 0.2506510416666661,
          "durationTicks": 385,
          "midi": 66,
          "name": "F#4",
          "ticks": 14781,
          "time": 9.623046875,
          "velocity": 0.3464566929133858
        },
        {
          "duration": 0.25065104166666785,
          "durationTicks": 385,
          "midi": 62,
          "name": "D4",
          "ticks": 14782,
          "time": 9.623697916666666,
          "velocity": 0.4645669291338583
        },
        {
          "duration": 0.25,
          "durationTicks": 384,
          "midi": 59,
          "name": "B3",
          "ticks": 14790,
          "time": 9.62890625,
          "velocity": 0.4251968503937008
        },
        {
          "duration": 0.25,
          "durationTicks": 384,
          "midi": 71,
          "name": "B4",
          "ticks": 14805,
          "time": 9.638671875,
          "velocity": 0.2047244094488189
        },
        {
          "duration": 0.12369791666666607,
          "durationTicks": 190,
          "midi": 64,
          "name": "E4",
          "ticks": 15165,
          "time": 9.873046875,
          "velocity": 0.08661417322834646
        },
        {
          "duration": 0.12434895833333393,
          "durationTicks": 191,
          "midi": 59,
          "name": "B3",
          "ticks": 15169,
          "time": 9.875651041666666,
          "velocity": 0.2204724409448819
        },
        {
          "duration": 0.12434895833333393,
          "durationTicks": 191,
          "midi": 66,
          "name": "F#4",
          "ticks": 15175,
          "time": 9.879557291666666,
          "velocity": 0.29133858267716534
        },
        {
          "duration": 0.12434895833333215,
          "durationTicks": 191,
          "midi": 71,
          "name": "B4",
          "ticks": 15176,
          "time": 9.880208333333334,
          "velocity": 0.10236220472440945
        },
        {
          "duration": 0.12434895833333393,
          "durationTicks": 191,
          "midi": 62,
          "name": "D4",
          "ticks": 15193,
          "time": 9.891276041666666,
          "velocity": 0.2755905511811024
        },
        {
          "duration": 0.3743489583333339,
          "durationTicks": 575,
          "midi": 61,
          "name": "C#4",
          "ticks": 15355,
          "time": 9.996744791666666,
          "velocity": 0.3858267716535433
        },
        {
          "duration": 0.3743489583333339,
          "durationTicks": 575,
          "midi": 59,
          "name": "B3",
          "ticks": 15355,
          "time": 9.996744791666666,
          "velocity": 0.4251968503937008
        },
        {
          "duration": 0.37434895833333215,
          "durationTicks": 575,
          "midi": 62,
          "name": "D4",
          "ticks": 15365,
          "time": 10.003255208333334,
          "velocity": 0.15748031496062992
        },
        {
          "duration": 0.3743489583333339,
          "durationTicks": 575,
          "midi": 71,
          "name": "B4",
          "ticks": 15370,
          "time": 10.006510416666666,
          "velocity": 0.23622047244094488
        },
        {
          "duration": 0.3743489583333339,
          "durationTicks": 575,
          "midi": 66,
          "name": "F#4",
          "ticks": 15382,
          "time": 10.014322916666666,
          "velocity": 0.31496062992125984
        },
        {
          "duration": 0.375,
          "durationTicks": 576,
          "midi": 71,
          "name": "B4",
          "ticks": 16112,
          "time": 10.489583333333334,
          "velocity": 0.23622047244094488
        },
        {
          "duration": 0.375,
          "durationTicks": 576,
          "midi": 66,
          "name": "F#4",
          "ticks": 16116,
          "time": 10.4921875,
          "velocity": 0.4015748031496063
        },
        {
          "duration": 0.37434895833333215,
          "durationTicks": 575,
          "midi": 62,
          "name": "D4",
          "ticks": 16130,
          "time": 10.501302083333334,
          "velocity": 0.14960629921259844
        },
        {
          "duration": 0.37369791666666785,
          "durationTicks": 574,
          "midi": 61,
          "name": "C#4",
          "ticks": 16132,
          "time": 10.502604166666666,
          "velocity": 0.4251968503937008
        },
        {
          "duration": 0.3736979166666661,
          "durationTicks": 574,
          "midi": 59,
          "name": "B3",
          "ticks": 16142,
          "time": 10.509114583333334,
          "velocity": 0.44881889763779526
        },
        {
          "duration": 0.12434895833333215,
          "durationTicks": 191,
          "midi": 66,
          "name": "F#4",
          "ticks": 16694,
          "time": 10.868489583333334,
          "velocity": 0.31496062992125984
        },
        {
          "duration": 0.12434895833333215,
          "durationTicks": 191,
          "midi": 62,
          "name": "D4",
          "ticks": 16703,
          "time": 10.874348958333334,
          "velocity": 0.30708661417322836
        },
        {
          "duration": 0.125,
          "durationTicks": 192,
          "midi": 59,
          "name": "B3",
          "ticks": 16706,
          "time": 10.876302083333334,
          "velocity": 0.5905511811023622
        },
        {
          "duration": 0.125,
          "durationTicks": 192,
          "midi": 71,
          "name": "B4",
          "ticks": 16716,
          "time": 10.8828125,
          "velocity": 0.2204724409448819
        },
        {
          "duration": 0.25,
          "durationTicks": 384,
          "midi": 59,
          "name": "B3",
          "ticks": 17270,
          "time": 11.243489583333334,
          "velocity": 0.48031496062992124
        },
        {
          "duration": 0.25,
          "durationTicks": 384,
          "midi": 71,
          "name": "B4",
          "ticks": 17272,
          "time": 11.244791666666666,
          "velocity": 0.23622047244094488
        },
        {
          "duration": 0.25,
          "durationTicks": 384,
          "midi": 62,
          "name": "D4",
          "ticks": 17279,
          "time": 11.249348958333334,
          "velocity": 0.4094488188976378
        },
        {
          "duration": 0.25,
          "durationTicks": 384,
          "midi": 66,
          "name": "F#4",
          "ticks": 17280,
          "time": 11.25,
          "velocity": 0.36220472440944884
        },
        {
          "duration": 0.125,
          "durationTicks": 192,
          "midi": 66,
          "name": "F#4",
          "ticks": 17639,
          "time": 11.483723958333334,
          "velocity": 0.23622047244094488
        },
        {
          "duration": 0.125,
          "durationTicks": 192,
          "midi": 59,
          "name": "B3",
          "ticks": 17642,
          "time": 11.485677083333334,
          "velocity": 0.25196850393700787
        },
        {
          "duration": 0.125,
          "durationTicks": 192,
          "midi": 62,
          "name": "D4",
          "ticks": 17655,
          "time": 11.494140625,
          "velocity": 0.25984251968503935
        },
        {
          "duration": 0.12434895833333393,
          "durationTicks": 191,
          "midi": 71,
          "name": "B4",
          "ticks": 17670,
          "time": 11.50390625,
          "velocity": 0.03937007874015748
        },
        {
          "duration": 0.25,
          "durationTicks": 384,
          "midi": 59,
          "name": "B3",
          "ticks": 17845,
          "time": 11.617838541666666,
          "velocity": 0.3858267716535433
        },
        {
          "duration": 0.25,
          "durationTicks": 384,
          "midi": 71,
          "name": "B4",
          "ticks": 17849,
          "time": 11.620442708333334,
          "velocity": 0.2125984251968504
        },
        {
          "duration": 0.24934895833333393,
          "durationTicks": 383,
          "midi": 62,
          "name": "D4",
          "ticks": 17862,
          "time": 11.62890625,
          "velocity": 0.4330708661417323
        },
        {
          "duration": 0.24934895833333393,
          "durationTicks": 383,
          "midi": 66,
          "name": "F#4",
          "ticks": 17875,
          "time": 11.637369791666666,
          "velocity": 0.25196850393700787
        },
        {
          "duration": 0.125,
          "durationTicks": 192,
          "midi": 59,
          "name": "B3",
          "ticks": 18229,
          "time": 11.867838541666666,
          "velocity": 0.2440944881889764
        },
        {
          "duration": 0.12565104166666607,
          "durationTicks": 193,
          "midi": 71,
          "name": "B4",
          "ticks": 18237,
          "time": 11.873046875,
          "velocity": 0.11811023622047244
        },
        {
          "duration": 0.12565104166666607,
          "durationTicks": 193,
          "midi": 62,
          "name": "D4",
          "ticks": 18239,
          "time": 11.874348958333334,
          "velocity": 0.2992125984251969
        },
        {
          "duration": 0.12565104166666607,
          "durationTicks": 193,
          "midi": 66,
          "name": "F#4",
          "ticks": 18245,
          "time": 11.878255208333334,
          "velocity": 0.2440944881889764
        },
        {
          "duration": 0.3756510416666661,
          "durationTicks": 577,
          "midi": 61,
          "name": "C#4",
          "ticks": 18408,
          "time": 11.984375,
          "velocity": 0.08661417322834646
        },
        {
          "duration": 0.375,
          "durationTicks": 576,
          "midi": 71,
          "name": "B4",
          "ticks": 18422,
          "time": 11.993489583333334,
          "velocity": 0.2047244094488189
        },
        {
          "duration": 0.375,
          "durationTicks": 576,
          "midi": 66,
          "name": "F#4",
          "ticks": 18423,
          "time": 11.994140625,
          "velocity": 0.36220472440944884
        },
        {
          "duration": 0.375,
          "durationTicks": 576,
          "midi": 59,
          "name": "B3",
          "ticks": 18430,
          "time": 11.998697916666666,
          "velocity": 0.33070866141732286
        },
        {
          "duration": 0.375,
          "durationTicks": 576,
          "midi": 62,
          "name": "D4",
          "ticks": 18435,
          "time": 12.001953125,
          "velocity": 0.44881889763779526
        },
        {
          "duration": 0.375,
          "durationTicks": 576,
          "midi": 71,
          "name": "B4",
          "ticks": 19187,
          "time": 12.491536458333334,
          "velocity": 0.1968503937007874
        },
        {
          "duration": 0.375,
          "durationTicks": 576,
          "midi": 66,
          "name": "F#4",
          "ticks": 19194,
          "time": 12.49609375,
          "velocity": 0.30708661417322836
        },
        {
          "duration": 0.375,
          "durationTicks": 576,
          "midi": 62,
          "name": "D4",
          "ticks": 19196,
          "time": 12.497395833333334,
          "velocity": 0.2283464566929134
        },
        {
          "duration": 0.375,
          "durationTicks": 576,
          "midi": 61,
          "name": "C#4",
          "ticks": 19203,
          "time": 12.501953125,
          "velocity": 0.11023622047244094
        },
        {
          "duration": 0.375,
          "durationTicks": 576,
          "midi": 59,
          "name": "B3",
          "ticks": 19208,
          "time": 12.505208333333334,
          "velocity": 0.4094488188976378
        },
        {
          "duration": 0.12565104166666607,
          "durationTicks": 193,
          "midi": 71,
          "name": "B4",
          "ticks": 19763,
          "time": 12.866536458333334,
          "velocity": 0.1968503937007874
        },
        {
          "duration": 0.12565104166666607,
          "durationTicks": 193,
          "midi": 59,
          "name": "B3",
          "ticks": 19772,
          "time": 12.872395833333334,
          "velocity": 0.2992125984251969
        },
        {
          "duration": 0.12565104166666607,
          "durationTicks": 193,
          "midi": 64,
          "name": "E4",
          "ticks": 19772,
          "time": 12.872395833333334,
          "velocity": 0.3779527559055118
        },
        {
          "duration": 0.125,
          "durationTicks": 192,
          "midi": 62,
          "name": "D4",
          "ticks": 19788,
          "time": 12.8828125,
          "velocity": 0.1968503937007874
        },
        {
          "duration": 0.25,
          "durationTicks": 384,
          "midi": 64,
          "name": "E4",
          "ticks": 20330,
          "time": 13.235677083333334,
          "velocity": 0.33858267716535434
        },
        {
          "duration": 0.25,
          "durationTicks": 384,
          "midi": 71,
          "name": "B4",
          "ticks": 20332,
          "time": 13.236979166666666,
          "velocity": 0.1889763779527559
        },
        {
          "duration": 0.25,
          "durationTicks": 384,
          "midi": 62,
          "name": "D4",
          "ticks": 20352,
          "time": 13.25,
          "velocity": 0.1732283464566929
        },
        {
          "duration": 0.25,
          "durationTicks": 384,
          "midi": 59,
          "name": "B3",
          "ticks": 20353,
          "time": 13.250651041666666,
          "velocity": 0.3700787401574803
        },
        {
          "duration": 0.12434895833333393,
          "durationTicks": 191,
          "midi": 59,
          "name": "B3",
          "ticks": 20718,
          "time": 13.48828125,
          "velocity": 0.2204724409448819
        },
        {
          "duration": 0.12369791666666607,
          "durationTicks": 190,
          "midi": 71,
          "name": "B4",
          "ticks": 20730,
          "time": 13.49609375,
          "velocity": 0.031496062992125984
        },
        {
          "duration": 0.12369791666666607,
          "durationTicks": 190,
          "midi": 64,
          "name": "E4",
          "ticks": 20732,
          "time": 13.497395833333334,
          "velocity": 0.1732283464566929
        },
        {
          "duration": 0.12434895833333393,
          "durationTicks": 191,
          "midi": 62,
          "name": "D4",
          "ticks": 20742,
          "time": 13.50390625,
          "velocity": 0.06299212598425197
        },
        {
          "duration": 0.25,
          "durationTicks": 384,
          "midi": 64,
          "name": "E4",
          "ticks": 20912,
          "time": 13.614583333333334,
          "velocity": 0.3779527559055118
        },
        {
          "duration": 0.2506510416666661,
          "durationTicks": 385,
          "midi": 59,
          "name": "B3",
          "ticks": 20916,
          "time": 13.6171875,
          "velocity": 0.4409448818897638
        },
        {
          "duration": 0.2506510416666661,
          "durationTicks": 385,
          "midi": 71,
          "name": "B4",
          "ticks": 20924,
          "time": 13.622395833333334,
          "velocity": 0.2440944881889764
        },
        {
          "duration": 0.2506510416666661,
          "durationTicks": 385,
          "midi": 62,
          "name": "D4",
          "ticks": 20937,
          "time": 13.630859375,
          "velocity": 0.2204724409448819
        },
        {
          "duration": 0.125,
          "durationTicks": 192,
          "midi": 71,
          "name": "B4",
          "ticks": 21293,
          "time": 13.862630208333334,
          "velocity": 0.07086614173228346
        },
        {
          "duration": 0.125,
          "durationTicks": 192,
          "midi": 62,
          "name": "D4",
          "ticks": 21300,
          "time": 13.8671875,
          "velocity": 0.13385826771653545
        },
        {
          "duration": 0.125,
          "durationTicks": 192,
          "midi": 64,
          "name": "E4",
          "ticks": 21301,
          "time": 13.867838541666666,
          "velocity": 0.1732283464566929
        },
        {
          "duration": 0.12565104166666785,
          "durationTicks": 193,
          "midi": 59,
          "name": "B3",
          "ticks": 21331,
          "time": 13.887369791666666,
          "velocity": 0.33858267716535434
        },
        {
          "duration": 0.3131510416666661,
          "durationTicks": 481,
          "midi": 71,
          "name": "B4",
          "ticks": 21488,
          "time": 13.989583333333334,
          "velocity": 0.23622047244094488
        },
        {
          "duration": 0.3125,
          "durationTicks": 480,
          "midi": 62,
          "name": "D4",
          "ticks": 21500,
          "time": 13.997395833333334,
          "velocity": 0.4015748031496063
        },
        {
          "duration": 0.3125,
          "durationTicks": 480,
          "midi": 59,
          "name": "B3",
          "ticks": 21503,
          "time": 13.999348958333334,
          "velocity": 0.4409448818897638
        },
        {
          "duration": 0.3125,
          "durationTicks": 480,
          "midi": 66,
          "name": "F#4",
          "ticks": 21504,
          "time": 14,
          "velocity": 0.30708661417322836
        },
        {
          "duration": 0.3125,
          "durationTicks": 480,
          "midi": 61,
          "name": "C#4",
          "ticks": 21516,
          "time": 14.0078125,
          "velocity": 0.11023622047244094
        },
        {
          "duration": 0.12565104166666785,
          "durationTicks": 193,
          "midi": 66,
          "name": "F#4",
          "ticks": 22060,
          "time": 14.361979166666666,
          "velocity": 0.16535433070866143
        },
        {
          "duration": 0.12565104166666607,
          "durationTicks": 193,
          "midi": 71,
          "name": "B4",
          "ticks": 22061,
          "time": 14.362630208333334,
          "velocity": 0.06299212598425197
        },
        {
          "duration": 0.12565104166666607,
          "durationTicks": 193,
          "midi": 62,
          "name": "D4",
          "ticks": 22067,
          "time": 14.366536458333334,
          "velocity": 0.2992125984251969
        },
        {
          "duration": 0.12565104166666785,
          "durationTicks": 193,
          "midi": 59,
          "name": "B3",
          "ticks": 22069,
          "time": 14.367838541666666,
          "velocity": 0.25984251968503935
        },
        {
          "duration": 0.12565104166666607,
          "durationTicks": 193,
          "midi": 61,
          "name": "C#4",
          "ticks": 22083,
          "time": 14.376953125,
          "velocity": 0.047244094488188976
        },
        {
          "duration": 0.375,
          "durationTicks": 576,
          "midi": 61,
          "name": "C#4",
          "ticks": 22251,
          "time": 14.486328125,
          "velocity": 0.1732283464566929
        },
        {
          "duration": 0.375,
          "durationTicks": 576,
          "midi": 59,
          "name": "B3",
          "ticks": 22254,
          "time": 14.48828125,
          "velocity": 0.3779527559055118
        },
        {
          "duration": 0.3756510416666661,
          "durationTicks": 577,
          "midi": 66,
          "name": "F#4",
          "ticks": 22254,
          "time": 14.48828125,
          "velocity": 0.6456692913385826
        },
        {
          "duration": 0.375,
          "durationTicks": 576,
          "midi": 62,
          "name": "D4",
          "ticks": 22265,
          "time": 14.495442708333334,
          "velocity": 0.25984251968503935
        },
        {
          "duration": 0.3743489583333339,
          "durationTicks": 575,
          "midi": 71,
          "name": "B4",
          "ticks": 22284,
          "time": 14.5078125,
          "velocity": 0.25196850393700787
        },
        {
          "duration": 0.12434895833333393,
          "durationTicks": 191,
          "midi": 71,
          "name": "B4",
          "ticks": 22846,
          "time": 14.873697916666666,
          "velocity": 0.2440944881889764
        },
        {
          "duration": 0.12434895833333215,
          "durationTicks": 191,
          "midi": 59,
          "name": "B3",
          "ticks": 22850,
          "time": 14.876302083333334,
          "velocity": 0.30708661417322836
        },
        {
          "duration": 0.12434895833333215,
          "durationTicks": 191,
          "midi": 62,
          "name": "D4",
          "ticks": 22856,
          "time": 14.880208333333334,
          "velocity": 0.14173228346456693
        },
        {
          "duration": 0.12434895833333215,
          "durationTicks": 191,
          "midi": 64,
          "name": "E4",
          "ticks": 22856,
          "time": 14.880208333333334,
          "velocity": 0.33858267716535434
        },
        {
          "duration": 0.25,
          "durationTicks": 384,
          "midi": 59,
          "name": "B3",
          "ticks": 23411,
          "time": 15.241536458333334,
          "velocity": 0.44881889763779526
        },
        {
          "duration": 0.25,
          "durationTicks": 384,
          "midi": 71,
          "name": "B4",
          "ticks": 23415,
          "time": 15.244140625,
          "velocity": 0.2204724409448819
        },
        {
          "duration": 0.24934895833333215,
          "durationTicks": 383,
          "midi": 64,
          "name": "E4",
          "ticks": 23420,
          "time": 15.247395833333334,
          "velocity": 0.5354330708661418
        },
        {
          "duration": 0.24934895833333215,
          "durationTicks": 383,
          "midi": 62,
          "name": "D4",
          "ticks": 23429,
          "time": 15.253255208333334,
          "velocity": 0.18110236220472442
        },
        {
          "duration": 0.12434895833333215,
          "durationTicks": 191,
          "midi": 71,
          "name": "B4",
          "ticks": 23801,
          "time": 15.495442708333334,
          "velocity": 0.031496062992125984
        },
        {
          "duration": 0.125,
          "durationTicks": 192,
          "midi": 59,
          "name": "B3",
          "ticks": 23804,
          "time": 15.497395833333334,
          "velocity": 0.16535433070866143
        },
        {
          "duration": 0.125,
          "durationTicks": 192,
          "midi": 62,
          "name": "D4",
          "ticks": 23809,
          "time": 15.500651041666666,
          "velocity": 0.09448818897637795
        },
        {
          "duration": 0.125,
          "durationTicks": 192,
          "midi": 64,
          "name": "E4",
          "ticks": 23813,
          "time": 15.503255208333334,
          "velocity": 0.2204724409448819
        },
        {
          "duration": 0.25,
          "durationTicks": 384,
          "midi": 59,
          "name": "B3",
          "ticks": 23994,
          "time": 15.62109375,
          "velocity": 0.3700787401574803
        },
        {
          "duration": 0.25,
          "durationTicks": 384,
          "midi": 62,
          "name": "D4",
          "ticks": 23997,
          "time": 15.623046875,
          "velocity": 0.2755905511811024
        },
        {
          "duration": 0.25,
          "durationTicks": 384,
          "midi": 71,
          "name": "B4",
          "ticks": 24011,
          "time": 15.632161458333334,
          "velocity": 0.15748031496062992
        },
        {
          "duration": 0.25,
          "durationTicks": 384,
          "midi": 64,
          "name": "E4",
          "ticks": 24012,
          "time": 15.6328125,
          "velocity": 0.3700787401574803
        },
        {
          "duration": 0.12434895833333393,
          "durationTicks": 191,
          "midi": 64,
          "name": "E4",
          "ticks": 24376,
          "time": 15.869791666666666,
          "velocity": 0.28346456692913385
        },
        {
          "duration": 0.125,
          "durationTicks": 192,
          "midi": 59,
          "name": "B3",
          "ticks": 24384,
          "time": 15.875,
          "velocity": 0.2283464566929134
        },
        {
          "duration": 0.125,
          "durationTicks": 192,
          "midi": 62,
          "name": "D4",
          "ticks": 24393,
          "time": 15.880859375,
          "velocity": 0.14173228346456693
        },
        {
          "duration": 0.12499999999999822,
          "durationTicks": 192,
          "midi": 71,
          "name": "B4",
          "ticks": 24395,
          "time": 15.882161458333334,
          "velocity": 0.07874015748031496
        },
        {
          "duration": 0.3749999999999982,
          "durationTicks": 576,
          "midi": 59,
          "name": "B3",
          "ticks": 24554,
          "time": 15.985677083333334,
          "velocity": 0.4251968503937008
        },
        {
          "duration": 0.375,
          "durationTicks": 576,
          "midi": 61,
          "name": "C#4",
          "ticks": 24561,
          "time": 15.990234375,
          "velocity": 0.2992125984251969
        },
        {
          "duration": 0.375,
          "durationTicks": 576,
          "midi": 66,
          "name": "F#4",
          "ticks": 24567,
          "time": 15.994140625,
          "velocity": 0.3543307086614173
        },
        {
          "duration": 0.3750000000000018,
          "durationTicks": 576,
          "midi": 62,
          "name": "D4",
          "ticks": 24571,
          "time": 15.996744791666666,
          "velocity": 0.33070866141732286
        },
        {
          "duration": 0.37434895833333215,
          "durationTicks": 575,
          "midi": 71,
          "name": "B4",
          "ticks": 24582,
          "time": 16.00390625,
          "velocity": 0.1732283464566929
        },
        {
          "duration": 0.3756510416666643,
          "durationTicks": 577,
          "midi": 59,
          "name": "B3",
          "ticks": 25330,
          "time": 16.490885416666668,
          "velocity": 0.28346456692913385
        },
        {
          "duration": 0.37565104166666785,
          "durationTicks": 577,
          "midi": 66,
          "name": "F#4",
          "ticks": 25338,
          "time": 16.49609375,
          "velocity": 0.3858267716535433
        },
        {
          "duration": 0.3756510416666643,
          "durationTicks": 577,
          "midi": 71,
          "name": "B4",
          "ticks": 25342,
          "time": 16.498697916666668,
          "velocity": 0.25196850393700787
        },
        {
          "duration": 0.37565104166666785,
          "durationTicks": 577,
          "midi": 61,
          "name": "C#4",
          "ticks": 25343,
          "time": 16.499348958333332,
          "velocity": 0.2047244094488189
        },
        {
          "duration": 0.375,
          "durationTicks": 576,
          "midi": 62,
          "name": "D4",
          "ticks": 25353,
          "time": 16.505859375,
          "velocity": 0.3464566929133858
        },
        {
          "duration": 0.125,
          "durationTicks": 192,
          "midi": 62,
          "name": "D4",
          "ticks": 25911,
          "time": 16.869140625,
          "velocity": 0.3228346456692913
        },
        {
          "duration": 0.125,
          "durationTicks": 192,
          "midi": 71,
          "name": "B4",
          "ticks": 25916,
          "time": 16.872395833333332,
          "velocity": 0.31496062992125984
        },
        {
          "duration": 0.125,
          "durationTicks": 192,
          "midi": 59,
          "name": "B3",
          "ticks": 25922,
          "time": 16.876302083333332,
          "velocity": 0.3543307086614173
        },
        {
          "duration": 0.125,
          "durationTicks": 192,
          "midi": 64,
          "name": "E4",
          "ticks": 25923,
          "time": 16.876953125,
          "velocity": 0.25984251968503935
        },
        {
          "duration": 0.125,
          "durationTicks": 192,
          "midi": 66,
          "name": "F#4",
          "ticks": 25936,
          "time": 16.885416666666668,
          "velocity": 0.33858267716535434
        },
        {
          "duration": 0.25065104166666785,
          "durationTicks": 385,
          "midi": 62,
          "name": "D4",
          "ticks": 26471,
          "time": 17.233723958333332,
          "velocity": 0.2677165354330709
        },
        {
          "duration": 0.25065104166666785,
          "durationTicks": 385,
          "midi": 66,
          "name": "F#4",
          "ticks": 26486,
          "time": 17.243489583333332,
          "velocity": 0.5196850393700787
        },
        {
          "duration": 0.2506510416666643,
          "durationTicks": 385,
          "midi": 71,
          "name": "B4",
          "ticks": 26491,
          "time": 17.246744791666668,
          "velocity": 0.2992125984251969
        },
        {
          "duration": 0.25065104166666785,
          "durationTicks": 385,
          "midi": 59,
          "name": "B3",
          "ticks": 26505,
          "time": 17.255859375,
          "velocity": 0.36220472440944884
        },
        {
          "duration": 0.2428385416666643,
          "durationTicks": 373,
          "midi": 64,
          "name": "E4",
          "ticks": 26509,
          "time": 17.258463541666668,
          "velocity": 0.12598425196850394
        },
        {
          "duration": 0.12565104166666785,
          "durationTicks": 193,
          "midi": 59,
          "name": "B3",
          "ticks": 26874,
          "time": 17.49609375,
          "velocity": 0.2125984251968504
        },
        {
          "duration": 0.12630208333333215,
          "durationTicks": 194,
          "midi": 71,
          "name": "B4",
          "ticks": 26878,
          "time": 17.498697916666668,
          "velocity": 0.03937007874015748
        },
        {
          "duration": 0.1263020833333357,
          "durationTicks": 194,
          "midi": 62,
          "name": "D4",
          "ticks": 26885,
          "time": 17.503255208333332,
          "velocity": 0.1889763779527559
        },
        {
          "duration": 0.12565104166666785,
          "durationTicks": 193,
          "midi": 66,
          "name": "F#4",
          "ticks": 26895,
          "time": 17.509765625,
          "velocity": 0.1889763779527559
        },
        {
          "duration": 0.014322916666667851,
          "durationTicks": 22,
          "midi": 64,
          "name": "E4",
          "ticks": 27054,
          "time": 17.61328125,
          "velocity": 0.2125984251968504
        },
        {
          "duration": 0.2513020833333357,
          "durationTicks": 386,
          "midi": 59,
          "name": "B3",
          "ticks": 27068,
          "time": 17.622395833333332,
          "velocity": 0.44881889763779526
        },
        {
          "duration": 0.25130208333333215,
          "durationTicks": 386,
          "midi": 62,
          "name": "D4",
          "ticks": 27069,
          "time": 17.623046875,
          "velocity": 0.4015748031496063
        },
        {
          "duration": 0.25130208333333215,
          "durationTicks": 386,
          "midi": 71,
          "name": "B4",
          "ticks": 27069,
          "time": 17.623046875,
          "velocity": 0.2125984251968504
        },
        {
          "duration": 0.25,
          "durationTicks": 384,
          "midi": 66,
          "name": "F#4",
          "ticks": 27094,
          "time": 17.639322916666668,
          "velocity": 0.5118110236220472
        },
        {
          "duration": 0.1243489583333357,
          "durationTicks": 191,
          "midi": 59,
          "name": "B3",
          "ticks": 27443,
          "time": 17.866536458333332,
          "velocity": 0.2283464566929134
        },
        {
          "duration": 0.1243489583333357,
          "durationTicks": 191,
          "midi": 66,
          "name": "F#4",
          "ticks": 27452,
          "time": 17.872395833333332,
          "velocity": 0.2677165354330709
        },
        {
          "duration": 0.12434895833333215,
          "durationTicks": 191,
          "midi": 64,
          "name": "E4",
          "ticks": 27459,
          "time": 17.876953125,
          "velocity": 0.07086614173228346
        },
        {
          "duration": 0.1243489583333357,
          "durationTicks": 191,
          "midi": 71,
          "name": "B4",
          "ticks": 27461,
          "time": 17.878255208333332,
          "velocity": 0.09448818897637795
        },
        {
          "duration": 0.1243489583333357,
          "durationTicks": 191,
          "midi": 62,
          "name": "D4",
          "ticks": 27461,
          "time": 17.878255208333332,
          "velocity": 0.23622047244094488
        },
        {
          "duration": 0.37369791666666785,
          "durationTicks": 574,
          "midi": 61,
          "name": "C#4",
          "ticks": 27632,
          "time": 17.989583333333332,
          "velocity": 0.28346456692913385
        },
        {
          "duration": 0.37369791666666785,
          "durationTicks": 574,
          "midi": 59,
          "name": "B3",
          "ticks": 27642,
          "time": 17.99609375,
          "velocity": 0.29133858267716534
        },
        {
          "duration": 0.37369791666666785,
          "durationTicks": 574,
          "midi": 62,
          "name": "D4",
          "ticks": 27648,
          "time": 18,
          "velocity": 0.14173228346456693
        },
        {
          "duration": 0.3736979166666643,
          "durationTicks": 574,
          "midi": 71,
          "name": "B4",
          "ticks": 27649,
          "time": 18.000651041666668,
          "velocity": 0.2125984251968504
        },
        {
          "duration": 0.375,
          "durationTicks": 576,
          "midi": 66,
          "name": "F#4",
          "ticks": 27655,
          "time": 18.004557291666668,
          "velocity": 0.3937007874015748
        },
        {
          "duration": 0.3756510416666643,
          "durationTicks": 577,
          "midi": 62,
          "name": "D4",
          "ticks": 28408,
          "time": 18.494791666666668,
          "velocity": 0.1889763779527559
        },
        {
          "duration": 0.37565104166666785,
          "durationTicks": 577,
          "midi": 61,
          "name": "C#4",
          "ticks": 28412,
          "time": 18.497395833333332,
          "velocity": 0.4330708661417323
        },
        {
          "duration": 0.37565104166666785,
          "durationTicks": 577,
          "midi": 71,
          "name": "B4",
          "ticks": 28413,
          "time": 18.498046875,
          "velocity": 0.2283464566929134
        },
        {
          "duration": 0.3756510416666643,
          "durationTicks": 577,
          "midi": 59,
          "name": "B3",
          "ticks": 28414,
          "time": 18.498697916666668,
          "velocity": 0.31496062992125984
        },
        {
          "duration": 0.37565104166666785,
          "durationTicks": 577,
          "midi": 66,
          "name": "F#4",
          "ticks": 28415,
          "time": 18.499348958333332,
          "velocity": 0.5984251968503937
        },
        {
          "duration": 0.1256510416666643,
          "durationTicks": 193,
          "midi": 59,
          "name": "B3",
          "ticks": 28969,
          "time": 18.860026041666668,
          "velocity": 0.4881889763779528
        },
        {
          "duration": 0.12565104166666785,
          "durationTicks": 193,
          "midi": 71,
          "name": "B4",
          "ticks": 28973,
          "time": 18.862630208333332,
          "velocity": 0.14960629921259844
        },
        {
          "duration": 0.12565104166666785,
          "durationTicks": 193,
          "midi": 62,
          "name": "D4",
          "ticks": 28991,
          "time": 18.874348958333332,
          "velocity": 0.4015748031496063
        },
        {
          "duration": 0.125,
          "durationTicks": 192,
          "midi": 66,
          "name": "F#4",
          "ticks": 29006,
          "time": 18.884114583333332,
          "velocity": 0.5196850393700787
        },
        {
          "duration": 0.25065104166666785,
          "durationTicks": 385,
          "midi": 62,
          "name": "D4",
          "ticks": 29568,
          "time": 19.25,
          "velocity": 0.4094488188976378
        },
        {
          "duration": 0.25065104166666785,
          "durationTicks": 385,
          "midi": 59,
          "name": "B3",
          "ticks": 29571,
          "time": 19.251953125,
          "velocity": 0.44881889763779526
        },
        {
          "duration": 0.25065104166666785,
          "durationTicks": 385,
          "midi": 66,
          "name": "F#4",
          "ticks": 29579,
          "time": 19.257161458333332,
          "velocity": 0.33858267716535434
        },
        {
          "duration": 0.25065104166666785,
          "durationTicks": 385,
          "midi": 71,
          "name": "B4",
          "ticks": 29580,
          "time": 19.2578125,
          "velocity": 0.2440944881889764
        },
        {
          "duration": 0.1256510416666643,
          "durationTicks": 193,
          "midi": 66,
          "name": "F#4",
          "ticks": 29944,
          "time": 19.494791666666668,
          "velocity": 0.14173228346456693
        },
        {
          "duration": 0.12565104166666785,
          "durationTicks": 193,
          "midi": 62,
          "name": "D4",
          "ticks": 29955,
          "time": 19.501953125,
          "velocity": 0.1968503937007874
        },
        {
          "duration": 0.12565104166666785,
          "durationTicks": 193,
          "midi": 71,
          "name": "B4",
          "ticks": 29958,
          "time": 19.50390625,
          "velocity": 0.023622047244094488
        },
        {
          "duration": 0.12565104166666785,
          "durationTicks": 193,
          "midi": 59,
          "name": "B3",
          "ticks": 29973,
          "time": 19.513671875,
          "velocity": 0.1968503937007874
        },
        {
          "duration": 0.2506510416666643,
          "durationTicks": 385,
          "midi": 66,
          "name": "F#4",
          "ticks": 30133,
          "time": 19.617838541666668,
          "velocity": 0.3858267716535433
        },
        {
          "duration": 0.25065104166666785,
          "durationTicks": 385,
          "midi": 62,
          "name": "D4",
          "ticks": 30137,
          "time": 19.620442708333332,
          "velocity": 0.2992125984251969
        },
        {
          "duration": 0.25065104166666785,
          "durationTicks": 385,
          "midi": 59,
          "name": "B3",
          "ticks": 30138,
          "time": 19.62109375,
          "velocity": 0.41732283464566927
        },
        {
          "duration": 0.25065104166666785,
          "durationTicks": 385,
          "midi": 71,
          "name": "B4",
          "ticks": 30143,
          "time": 19.624348958333332,
          "velocity": 0.2204724409448819
        },
        {
          "duration": 0.125,
          "durationTicks": 192,
          "midi": 66,
          "name": "F#4",
          "ticks": 30523,
          "time": 19.871744791666668,
          "velocity": 0.31496062992125984
        },
        {
          "duration": 0.125,
          "durationTicks": 192,
          "midi": 59,
          "name": "B3",
          "ticks": 30528,
          "time": 19.875,
          "velocity": 0.25196850393700787
        },
        {
          "duration": 0.125,
          "durationTicks": 192,
          "midi": 71,
          "name": "B4",
          "ticks": 30534,
          "time": 19.87890625,
          "velocity": 0.11811023622047244
        },
        {
          "duration": 0.125,
          "durationTicks": 192,
          "midi": 62,
          "name": "D4",
          "ticks": 30535,
          "time": 19.879557291666668,
          "velocity": 0.31496062992125984
        },
        {
          "duration": 0.375,
          "durationTicks": 576,
          "midi": 71,
          "name": "B4",
          "ticks": 30705,
          "time": 19.990234375,
          "velocity": 0.3228346456692913
        },
        {
          "duration": 0.375,
          "durationTicks": 576,
          "midi": 62,
          "name": "D4",
          "ticks": 30715,
          "time": 19.996744791666668,
          "velocity": 0.3464566929133858
        },
        {
          "duration": 0.375,
          "durationTicks": 576,
          "midi": 61,
          "name": "C#4",
          "ticks": 30717,
          "time": 19.998046875,
          "velocity": 0.07086614173228346
        },
        {
          "duration": 0.375,
          "durationTicks": 576,
          "midi": 59,
          "name": "B3",
          "ticks": 30723,
          "time": 20.001953125,
          "velocity": 0.4566929133858268
        },
        {
          "duration": 0.375,
          "durationTicks": 576,
          "midi": 66,
          "name": "F#4",
          "ticks": 30730,
          "time": 20.006510416666668,
          "velocity": 0.33070866141732286
        },
        {
          "duration": 0.37565104166666785,
          "durationTicks": 577,
          "midi": 71,
          "name": "B4",
          "ticks": 31485,
          "time": 20.498046875,
          "velocity": 0.2440944881889764
        },
        {
          "duration": 0.37565104166666785,
          "durationTicks": 577,
          "midi": 61,
          "name": "C#4",
          "ticks": 31490,
          "time": 20.501302083333332,
          "velocity": 0.11023622047244094
        },
        {
          "duration": 0.37565104166666785,
          "durationTicks": 577,
          "midi": 62,
          "name": "D4",
          "ticks": 31491,
          "time": 20.501953125,
          "velocity": 0.4094488188976378
        },
        {
          "duration": 0.37565104166666785,
          "durationTicks": 577,
          "midi": 66,
          "name": "F#4",
          "ticks": 31494,
          "time": 20.50390625,
          "velocity": 0.3543307086614173
        },
        {
          "duration": 0.37565104166666785,
          "durationTicks": 577,
          "midi": 59,
          "name": "B3",
          "ticks": 31502,
          "time": 20.509114583333332,
          "velocity": 0.3464566929133858
        },
        {
          "duration": 0.12565104166666785,
          "durationTicks": 193,
          "midi": 59,
          "name": "B3",
          "ticks": 32055,
          "time": 20.869140625,
          "velocity": 0.4409448818897638
        },
        {
          "duration": 0.125,
          "durationTicks": 192,
          "midi": 71,
          "name": "B4",
          "ticks": 32064,
          "time": 20.875,
          "velocity": 0.25984251968503935
        },
        {
          "duration": 0.125,
          "durationTicks": 192,
          "midi": 62,
          "name": "D4",
          "ticks": 32065,
          "time": 20.875651041666668,
          "velocity": 0.1732283464566929
        },
        {
          "duration": 0.125,
          "durationTicks": 192,
          "midi": 64,
          "name": "E4",
          "ticks": 32074,
          "time": 20.881510416666668,
          "velocity": 0.33858267716535434
        },
        {
          "duration": 0.25,
          "durationTicks": 384,
          "midi": 62,
          "name": "D4",
          "ticks": 32640,
          "time": 21.25,
          "velocity": 0.23622047244094488
        },
        {
          "duration": 0.25,
          "durationTicks": 384,
          "midi": 71,
          "name": "B4",
          "ticks": 32641,
          "time": 21.250651041666668,
          "velocity": 0.2440944881889764
        },
        {
          "duration": 0.25,
          "durationTicks": 384,
          "midi": 64,
          "name": "E4",
          "ticks": 32645,
          "time": 21.253255208333332,
          "velocity": 0.3543307086614173
        },
        {
          "duration": 0.25,
          "durationTicks": 384,
          "midi": 59,
          "name": "B3",
          "ticks": 32646,
          "time": 21.25390625,
          "velocity": 0.4015748031496063
        },
        {
          "duration": 0.125,
          "durationTicks": 192,
          "midi": 64,
          "name": "E4",
          "ticks": 33022,
          "time": 21.498697916666668,
          "velocity": 0.2047244094488189
        },
        {
          "duration": 0.12434895833333215,
          "durationTicks": 191,
          "midi": 59,
          "name": "B3",
          "ticks": 33030,
          "time": 21.50390625,
          "velocity": 0.1732283464566929
        },
        {
          "duration": 0.12434895833333215,
          "durationTicks": 191,
          "midi": 71,
          "name": "B4",
          "ticks": 33040,
          "time": 21.510416666666668,
          "velocity": 0.03937007874015748
        },
        {
          "duration": 0.1243489583333357,
          "durationTicks": 191,
          "midi": 62,
          "name": "D4",
          "ticks": 33041,
          "time": 21.511067708333332,
          "velocity": 0.05511811023622047
        },
        {
          "duration": 0.24934895833333215,
          "durationTicks": 383,
          "midi": 62,
          "name": "D4",
          "ticks": 33202,
          "time": 21.615885416666668,
          "velocity": 0.28346456692913385
        },
        {
          "duration": 0.24934895833333215,
          "durationTicks": 383,
          "midi": 71,
          "name": "B4",
          "ticks": 33207,
          "time": 21.619140625,
          "velocity": 0.30708661417322836
        },
        {
          "duration": 0.25,
          "durationTicks": 384,
          "midi": 64,
          "name": "E4",
          "ticks": 33221,
          "time": 21.628255208333332,
          "velocity": 0.5511811023622047
        },
        {
          "duration": 0.25065104166666785,
          "durationTicks": 385,
          "midi": 59,
          "name": "B3",
          "ticks": 33221,
          "time": 21.628255208333332,
          "velocity": 0.3228346456692913
        },
        {
          "duration": 0.125,
          "durationTicks": 192,
          "midi": 59,
          "name": "B3",
          "ticks": 33596,
          "time": 21.872395833333332,
          "velocity": 0.41732283464566927
        },
        {
          "duration": 0.1243489583333357,
          "durationTicks": 191,
          "midi": 62,
          "name": "D4",
          "ticks": 33602,
          "time": 21.876302083333332,
          "velocity": 0.1732283464566929
        },
        {
          "duration": 0.12434895833333215,
          "durationTicks": 191,
          "midi": 64,
          "name": "E4",
          "ticks": 33604,
          "time": 21.877604166666668,
          "velocity": 0.2283464566929134
        },
        {
          "duration": 0.12434895833333215,
          "durationTicks": 191,
          "midi": 71,
          "name": "B4",
          "ticks": 33618,
          "time": 21.88671875,
          "velocity": 0.08661417322834646
        },
        {
          "duration": 0.31119791666666785,
          "durationTicks": 478,
          "midi": 62,
          "name": "D4",
          "ticks": 33782,
          "time": 21.993489583333332,
          "velocity": 0.29133858267716534
        },
        {
          "duration": 0.3111979166666643,
          "durationTicks": 478,
          "midi": 61,
          "name": "C#4",
          "ticks": 33784,
          "time": 21.994791666666668,
          "velocity": 0.11811023622047244
        },
        {
          "duration": 0.31184895833333215,
          "durationTicks": 479,
          "midi": 66,
          "name": "F#4",
          "ticks": 33793,
          "time": 22.000651041666668,
          "velocity": 0.4409448818897638
        },
        {
          "duration": 0.3125,
          "durationTicks": 480,
          "midi": 59,
          "name": "B3",
          "ticks": 33802,
          "time": 22.006510416666668,
          "velocity": 0.5196850393700787
        },
        {
          "duration": 0.3125,
          "durationTicks": 480,
          "midi": 71,
          "name": "B4",
          "ticks": 33818,
          "time": 22.016927083333332,
          "velocity": 0.18110236220472442
        },
        {
          "duration": 0.12434895833333215,
          "durationTicks": 191,
          "midi": 71,
          "name": "B4",
          "ticks": 34360,
          "time": 22.369791666666668,
          "velocity": 0.07086614173228346
        },
        {
          "duration": 0.12434895833333215,
          "durationTicks": 191,
          "midi": 66,
          "name": "F#4",
          "ticks": 34362,
          "time": 22.37109375,
          "velocity": 0.16535433070866143
        },
        {
          "duration": 0.1236979166666643,
          "durationTicks": 190,
          "midi": 61,
          "name": "C#4",
          "ticks": 34372,
          "time": 22.377604166666668,
          "velocity": 0.047244094488188976
        },
        {
          "duration": 0.12369791666666785,
          "durationTicks": 190,
          "midi": 62,
          "name": "D4",
          "ticks": 34383,
          "time": 22.384765625,
          "velocity": 0.2677165354330709
        },
        {
          "duration": 0.12369791666666785,
          "durationTicks": 190,
          "midi": 59,
          "name": "B3",
          "ticks": 34391,
          "time": 22.389973958333332,
          "velocity": 0.25196850393700787
        },
        {
          "duration": 0.37434895833333215,
          "durationTicks": 575,
          "midi": 66,
          "name": "F#4",
          "ticks": 34552,
          "time": 22.494791666666668,
          "velocity": 0.3858267716535433
        },
        {
          "duration": 0.37434895833333215,
          "durationTicks": 575,
          "midi": 71,
          "name": "B4",
          "ticks": 34552,
          "time": 22.494791666666668,
          "velocity": 0.30708661417322836
        },
        {
          "duration": 0.37434895833333215,
          "durationTicks": 575,
          "midi": 61,
          "name": "C#4",
          "ticks": 34555,
          "time": 22.496744791666668,
          "velocity": 0.2283464566929134
        },
        {
          "duration": 0.37434895833333215,
          "durationTicks": 575,
          "midi": 59,
          "name": "B3",
          "ticks": 34560,
          "time": 22.5,
          "velocity": 0.2755905511811024
        },
        {
          "duration": 0.37434895833333215,
          "durationTicks": 575,
          "midi": 62,
          "name": "D4",
          "ticks": 34584,
          "time": 22.515625,
          "velocity": 0.2755905511811024
        },
        {
          "duration": 0.125,
          "durationTicks": 192,
          "midi": 59,
          "name": "B3",
          "ticks": 35133,
          "time": 22.873046875,
          "velocity": 0.49606299212598426
        },
        {
          "duration": 0.125,
          "durationTicks": 192,
          "midi": 62,
          "name": "D4",
          "ticks": 35134,
          "time": 22.873697916666668,
          "velocity": 0.1968503937007874
        },
        {
          "duration": 0.125,
          "durationTicks": 192,
          "midi": 64,
          "name": "E4",
          "ticks": 35135,
          "time": 22.874348958333332,
          "velocity": 0.3464566929133858
        },
        {
          "duration": 0.125,
          "durationTicks": 192,
          "midi": 71,
          "name": "B4",
          "ticks": 35140,
          "time": 22.877604166666668,
          "velocity": 0.15748031496062992
        },
        {
          "duration": 0.25065104166666785,
          "durationTicks": 385,
          "midi": 71,
          "name": "B4",
          "ticks": 35712,
          "time": 23.25,
          "velocity": 0.14960629921259844
        },
        {
          "duration": 0.2506510416666643,
          "durationTicks": 385,
          "midi": 62,
          "name": "D4",
          "ticks": 35719,
          "time": 23.254557291666668,
          "velocity": 0.29133858267716534
        },
        {
          "duration": 0.2506510416666643,
          "durationTicks": 385,
          "midi": 64,
          "name": "E4",
          "ticks": 35725,
          "time": 23.258463541666668,
          "velocity": 0.4330708661417323
        },
        {
          "duration": 0.25065104166666785,
          "durationTicks": 385,
          "midi": 59,
          "name": "B3",
          "ticks": 35729,
          "time": 23.261067708333332,
          "velocity": 0.2677165354330709
        },
        {
          "duration": 0.1256510416666643,
          "durationTicks": 193,
          "midi": 64,
          "name": "E4",
          "ticks": 36082,
          "time": 23.490885416666668,
          "velocity": 0.1968503937007874
        },
        {
          "duration": 0.12565104166666785,
          "durationTicks": 193,
          "midi": 62,
          "name": "D4",
          "ticks": 36083,
          "time": 23.491536458333332,
          "velocity": 0.047244094488188976
        },
        {
          "duration": 0.12565104166666785,
          "durationTicks": 193,
          "midi": 59,
          "name": "B3",
          "ticks": 36096,
          "time": 23.5,
          "velocity": 0.25984251968503935
        },
        {
          "duration": 0.1256510416666643,
          "durationTicks": 193,
          "midi": 71,
          "name": "B4",
          "ticks": 36109,
          "time": 23.508463541666668,
          "velocity": 0.031496062992125984
        },
        {
          "duration": 0.25065104166666785,
          "durationTicks": 385,
          "midi": 64,
          "name": "E4",
          "ticks": 36278,
          "time": 23.618489583333332,
          "velocity": 0.36220472440944884
        },
        {
          "duration": 0.2506510416666643,
          "durationTicks": 385,
          "midi": 71,
          "name": "B4",
          "ticks": 36289,
          "time": 23.625651041666668,
          "velocity": 0.28346456692913385
        },
        {
          "duration": 0.25065104166666785,
          "durationTicks": 385,
          "midi": 59,
          "name": "B3",
          "ticks": 36297,
          "time": 23.630859375,
          "velocity": 0.31496062992125984
        },
        {
          "duration": 0.2506510416666643,
          "durationTicks": 385,
          "midi": 62,
          "name": "D4",
          "ticks": 36298,
          "time": 23.631510416666668,
          "velocity": 0.2283464566929134
        },
        {
          "duration": 0.125,
          "durationTicks": 192,
          "midi": 59,
          "name": "B3",
          "ticks": 36672,
          "time": 23.875,
          "velocity": 0.2440944881889764
        },
        {
          "duration": 0.125,
          "durationTicks": 192,
          "midi": 62,
          "name": "D4",
          "ticks": 36686,
          "time": 23.884114583333332,
          "velocity": 0.11023622047244094
        },
        {
          "duration": 0.125,
          "durationTicks": 192,
          "midi": 64,
          "name": "E4",
          "ticks": 36688,
          "time": 23.885416666666668,
          "velocity": 0.2440944881889764
        },
        {
          "duration": 0.125,
          "durationTicks": 192,
          "midi": 71,
          "name": "B4",
          "ticks": 36694,
          "time": 23.889322916666668,
          "velocity": 0.12598425196850394
        },
        {
          "duration": 0.375,
          "durationTicks": 576,
          "midi": 62,
          "name": "D4",
          "ticks": 36856,
          "time": 23.994791666666668,
          "velocity": 0.2755905511811024
        },
        {
          "duration": 0.375,
          "durationTicks": 576,
          "midi": 71,
          "name": "B4",
          "ticks": 36867,
          "time": 24.001953125,
          "velocity": 0.1968503937007874
        },
        {
          "duration": 0.375,
          "durationTicks": 576,
          "midi": 61,
          "name": "C#4",
          "ticks": 36869,
          "time": 24.003255208333332,
          "velocity": 0.3543307086614173
        },
        {
          "duration": 0.375,
          "durationTicks": 576,
          "midi": 66,
          "name": "F#4",
          "ticks": 36872,
          "time": 24.005208333333332,
          "velocity": 0.4251968503937008
        },
        {
          "duration": 0.375,
          "durationTicks": 576,
          "midi": 59,
          "name": "B3",
          "ticks": 36880,
          "time": 24.010416666666668,
          "velocity": 0.5275590551181102
        },
        {
          "duration": 0.375,
          "durationTicks": 576,
          "midi": 62,
          "name": "D4",
          "ticks": 37619,
          "time": 24.491536458333332,
          "velocity": 0.47244094488188976
        },
        {
          "duration": 0.375,
          "durationTicks": 576,
          "midi": 59,
          "name": "B3",
          "ticks": 37625,
          "time": 24.495442708333332,
          "velocity": 0.47244094488188976
        },
        {
          "duration": 0.375,
          "durationTicks": 576,
          "midi": 61,
          "name": "C#4",
          "ticks": 37634,
          "time": 24.501302083333332,
          "velocity": 0.25984251968503935
        },
        {
          "duration": 0.375,
          "durationTicks": 576,
          "midi": 66,
          "name": "F#4",
          "ticks": 37635,
          "time": 24.501953125,
          "velocity": 0.3228346456692913
        },
        {
          "duration": 0.375,
          "durationTicks": 576,
          "midi": 71,
          "name": "B4",
          "ticks": 37636,
          "time": 24.502604166666668,
          "velocity": 0.2677165354330709
        },
        {
          "duration": 0.125,
          "durationTicks": 192,
          "midi": 71,
          "name": "B4",
          "ticks": 38203,
          "time": 24.871744791666668,
          "velocity": 0.25984251968503935
        },
        {
          "duration": 0.125,
          "durationTicks": 192,
          "midi": 62,
          "name": "D4",
          "ticks": 38211,
          "time": 24.876953125,
          "velocity": 0.30708661417322836
        },
        {
          "duration": 0.125,
          "durationTicks": 192,
          "midi": 64,
          "name": "E4",
          "ticks": 38218,
          "time": 24.881510416666668,
          "velocity": 0.2677165354330709
        },
        {
          "duration": 0.125,
          "durationTicks": 192,
          "midi": 66,
          "name": "F#4",
          "ticks": 38219,
          "time": 24.882161458333332,
          "velocity": 0.5118110236220472
        },
        {
          "duration": 0.125,
          "durationTicks": 192,
          "midi": 59,
          "name": "B3",
          "ticks": 38222,
          "time": 24.884114583333332,
          "velocity": 0.3700787401574803
        },
        {
          "duration": 0.24934895833333215,
          "durationTicks": 383,
          "midi": 62,
          "name": "D4",
          "ticks": 38770,
          "time": 25.240885416666668,
          "velocity": 0.4566929133858268
        },
        {
          "duration": 0.25,
          "durationTicks": 384,
          "midi": 71,
          "name": "B4",
          "ticks": 38788,
          "time": 25.252604166666668,
          "velocity": 0.18110236220472442
        },
        {
          "duration": 0.23763020833333215,
          "durationTicks": 365,
          "midi": 64,
          "name": "E4",
          "ticks": 38791,
          "time": 25.254557291666668,
          "velocity": 0.2125984251968504
        },
        {
          "duration": 0.25,
          "durationTicks": 384,
          "midi": 66,
          "name": "F#4",
          "ticks": 38792,
          "time": 25.255208333333332,
          "velocity": 0.3858267716535433
        },
        {
          "duration": 0.25065104166666785,
          "durationTicks": 385,
          "midi": 59,
          "name": "B3",
          "ticks": 38796,
          "time": 25.2578125,
          "velocity": 0.4645669291338583
        },
        {
          "duration": 0.12565104166666785,
          "durationTicks": 193,
          "midi": 66,
          "name": "F#4",
          "ticks": 39162,
          "time": 25.49609375,
          "velocity": 0.2047244094488189
        },
        {
          "duration": 0.1256510416666643,
          "durationTicks": 193,
          "midi": 59,
          "name": "B3",
          "ticks": 39163,
          "time": 25.496744791666668,
          "velocity": 0.25196850393700787
        },
        {
          "duration": 0.12565104166666785,
          "durationTicks": 193,
          "midi": 62,
          "name": "D4",
          "ticks": 39167,
          "time": 25.499348958333332,
          "velocity": 0.18110236220472442
        },
        {
          "duration": 0.1256510416666643,
          "durationTicks": 193,
          "midi": 71,
          "name": "B4",
          "ticks": 39178,
          "time": 25.506510416666668,
          "velocity": 0.031496062992125984
        },
        {
          "duration": 0.25,
          "durationTicks": 384,
          "midi": 64,
          "name": "E4",
          "ticks": 39353,
          "time": 25.620442708333332,
          "velocity": 0.1968503937007874
        },
        {
          "duration": 0.24934895833333215,
          "durationTicks": 383,
          "midi": 59,
          "name": "B3",
          "ticks": 39363,
          "time": 25.626953125,
          "velocity": 0.36220472440944884
        },
        {
          "duration": 0.2493489583333357,
          "durationTicks": 383,
          "midi": 66,
          "name": "F#4",
          "ticks": 39368,
          "time": 25.630208333333332,
          "velocity": 0.2992125984251969
        },
        {
          "duration": 0.24934895833333215,
          "durationTicks": 383,
          "midi": 71,
          "name": "B4",
          "ticks": 39379,
          "time": 25.637369791666668,
          "velocity": 0.2992125984251969
        },
        {
          "duration": 0.2493489583333357,
          "durationTicks": 383,
          "midi": 62,
          "name": "D4",
          "ticks": 39380,
          "time": 25.638020833333332,
          "velocity": 0.25984251968503935
        },
        {
          "duration": 0.125,
          "durationTicks": 192,
          "midi": 71,
          "name": "B4",
          "ticks": 39740,
          "time": 25.872395833333332,
          "velocity": 0.07874015748031496
        },
        {
          "duration": 0.125,
          "durationTicks": 192,
          "midi": 62,
          "name": "D4",
          "ticks": 39741,
          "time": 25.873046875,
          "velocity": 0.2440944881889764
        },
        {
          "duration": 0.125,
          "durationTicks": 192,
          "midi": 66,
          "name": "F#4",
          "ticks": 39747,
          "time": 25.876953125,
          "velocity": 0.2755905511811024
        },
        {
          "duration": 0.1243489583333357,
          "durationTicks": 191,
          "midi": 59,
          "name": "B3",
          "ticks": 39749,
          "time": 25.878255208333332,
          "velocity": 0.33070866141732286
        },
        {
          "duration": 0.12434895833333215,
          "durationTicks": 191,
          "midi": 64,
          "name": "E4",
          "ticks": 39753,
          "time": 25.880859375,
          "velocity": 0.06299212598425197
        },
        {
          "duration": 0.375,
          "durationTicks": 576,
          "midi": 71,
          "name": "B4",
          "ticks": 39928,
          "time": 25.994791666666668,
          "velocity": 0.1889763779527559
        },
        {
          "duration": 0.375,
          "durationTicks": 576,
          "midi": 62,
          "name": "D4",
          "ticks": 39931,
          "time": 25.996744791666668,
          "velocity": 0.1889763779527559
        },
        {
          "duration": 0.375,
          "durationTicks": 576,
          "midi": 61,
          "name": "C#4",
          "ticks": 39935,
          "time": 25.999348958333332,
          "velocity": 0.3858267716535433
        },
        {
          "duration": 0.375,
          "durationTicks": 576,
          "midi": 59,
          "name": "B3",
          "ticks": 39935,
          "time": 25.999348958333332,
          "velocity": 0.5748031496062992
        },
        {
          "duration": 0.37565104166666785,
          "durationTicks": 577,
          "midi": 66,
          "name": "F#4",
          "ticks": 39939,
          "time": 26.001953125,
          "velocity": 0.4251968503937008
        },
        {
          "duration": 0.375,
          "durationTicks": 576,
          "midi": 71,
          "name": "B4",
          "ticks": 40697,
          "time": 26.495442708333332,
          "velocity": 0.18110236220472442
        },
        {
          "duration": 0.375,
          "durationTicks": 576,
          "midi": 59,
          "name": "B3",
          "ticks": 40700,
          "time": 26.497395833333332,
          "velocity": 0.47244094488188976
        },
        {
          "duration": 0.375,
          "durationTicks": 576,
          "midi": 62,
          "name": "D4",
          "ticks": 40700,
          "time": 26.497395833333332,
          "velocity": 0.14960629921259844
        },
        {
          "duration": 0.375,
          "durationTicks": 576,
          "midi": 61,
          "name": "C#4",
          "ticks": 40705,
          "time": 26.500651041666668,
          "velocity": 0.5354330708661418
        },
        {
          "duration": 0.375,
          "durationTicks": 576,
          "midi": 66,
          "name": "F#4",
          "ticks": 40708,
          "time": 26.502604166666668,
          "velocity": 0.33858267716535434
        },
        {
          "duration": 0.1243489583333357,
          "durationTicks": 191,
          "midi": 71,
          "name": "B4",
          "ticks": 41276,
          "time": 26.872395833333332,
          "velocity": 0.1968503937007874
        },
        {
          "duration": 0.125,
          "durationTicks": 192,
          "midi": 59,
          "name": "B3",
          "ticks": 41289,
          "time": 26.880859375,
          "velocity": 0.48031496062992124
        },
        {
          "duration": 0.125,
          "durationTicks": 192,
          "midi": 66,
          "name": "F#4",
          "ticks": 41290,
          "time": 26.881510416666668,
          "velocity": 0.5275590551181102
        },
        {
          "duration": 0.125,
          "durationTicks": 192,
          "midi": 62,
          "name": "D4",
          "ticks": 41297,
          "time": 26.886067708333332,
          "velocity": 0.3858267716535433
        },
        {
          "duration": 0.25,
          "durationTicks": 384,
          "midi": 71,
          "name": "B4",
          "ticks": 41854,
          "time": 27.248697916666668,
          "velocity": 0.2440944881889764
        },
        {
          "duration": 0.25,
          "durationTicks": 384,
          "midi": 59,
          "name": "B3",
          "ticks": 41858,
          "time": 27.251302083333332,
          "velocity": 0.5275590551181102
        },
        {
          "duration": 0.25,
          "durationTicks": 384,
          "midi": 62,
          "name": "D4",
          "ticks": 41867,
          "time": 27.257161458333332,
          "velocity": 0.4645669291338583
        },
        {
          "duration": 0.25,
          "durationTicks": 384,
          "midi": 66,
          "name": "F#4",
          "ticks": 41870,
          "time": 27.259114583333332,
          "velocity": 0.3937007874015748
        },
        {
          "duration": 0.12434895833333215,
          "durationTicks": 191,
          "midi": 71,
          "name": "B4",
          "ticks": 42240,
          "time": 27.5,
          "velocity": 0.031496062992125984
        },
        {
          "duration": 0.12434895833333215,
          "durationTicks": 191,
          "midi": 59,
          "name": "B3",
          "ticks": 42241,
          "time": 27.500651041666668,
          "velocity": 0.2047244094488189
        },
        {
          "duration": 0.1243489583333357,
          "durationTicks": 191,
          "midi": 62,
          "name": "D4",
          "ticks": 42254,
          "time": 27.509114583333332,
          "velocity": 0.11811023622047244
        },
        {
          "duration": 0.12434895833333215,
          "durationTicks": 191,
          "midi": 66,
          "name": "F#4",
          "ticks": 42255,
          "time": 27.509765625,
          "velocity": 0.2047244094488189
        },
        {
          "duration": 0.2493489583333357,
          "durationTicks": 383,
          "midi": 62,
          "name": "D4",
          "ticks": 42434,
          "time": 27.626302083333332,
          "velocity": 0.5748031496062992
        },
        {
          "duration": 0.24934895833333215,
          "durationTicks": 383,
          "midi": 59,
          "name": "B3",
          "ticks": 42436,
          "time": 27.627604166666668,
          "velocity": 0.2992125984251969
        },
        {
          "duration": 0.24934895833333215,
          "durationTicks": 383,
          "midi": 71,
          "name": "B4",
          "ticks": 42442,
          "time": 27.631510416666668,
          "velocity": 0.2440944881889764
        },
        {
          "duration": 0.24934895833333215,
          "durationTicks": 383,
          "midi": 66,
          "name": "F#4",
          "ticks": 42445,
          "time": 27.633463541666668,
          "velocity": 0.4330708661417323
        },
        {
          "duration": 0.12434895833333215,
          "durationTicks": 191,
          "midi": 59,
          "name": "B3",
          "ticks": 42813,
          "time": 27.873046875,
          "velocity": 0.2755905511811024
        },
        {
          "duration": 0.12434895833333215,
          "durationTicks": 191,
          "midi": 71,
          "name": "B4",
          "ticks": 42816,
          "time": 27.875,
          "velocity": 0.08661417322834646
        },
        {
          "duration": 0.1243489583333357,
          "durationTicks": 191,
          "midi": 62,
          "name": "D4",
          "ticks": 42824,
          "time": 27.880208333333332,
          "velocity": 0.25196850393700787
        },
        {
          "duration": 0.1243489583333357,
          "durationTicks": 191,
          "midi": 66,
          "name": "F#4",
          "ticks": 42827,
          "time": 27.882161458333332,
          "velocity": 0.23622047244094488
        },
        {
          "duration": 0.375,
          "durationTicks": 576,
          "midi": 66,
          "name": "F#4",
          "ticks": 43008,
          "time": 28,
          "velocity": 0.4645669291338583
        },
        {
          "duration": 0.375,
          "durationTicks": 576,
          "midi": 61,
          "name": "C#4",
          "ticks": 43009,
          "time": 28.000651041666668,
          "velocity": 0.07874015748031496
        },
        {
          "duration": 0.375,
          "durationTicks": 576,
          "midi": 71,
          "name": "B4",
          "ticks": 43009,
          "time": 28.000651041666668,
          "velocity": 0.25984251968503935
        },
        {
          "duration": 0.37434895833333215,
          "durationTicks": 575,
          "midi": 62,
          "name": "D4",
          "ticks": 43018,
          "time": 28.006510416666668,
          "velocity": 0.3937007874015748
        },
        {
          "duration": 0.37434895833333215,
          "durationTicks": 575,
          "midi": 59,
          "name": "B3",
          "ticks": 43023,
          "time": 28.009765625,
          "velocity": 0.4409448818897638
        },
        {
          "duration": 0.375,
          "durationTicks": 576,
          "midi": 66,
          "name": "F#4",
          "ticks": 43762,
          "time": 28.490885416666668,
          "velocity": 0.4251968503937008
        },
        {
          "duration": 0.37434895833333215,
          "durationTicks": 575,
          "midi": 71,
          "name": "B4",
          "ticks": 43774,
          "time": 28.498697916666668,
          "velocity": 0.23622047244094488
        },
        {
          "duration": 0.37434895833333215,
          "durationTicks": 575,
          "midi": 62,
          "name": "D4",
          "ticks": 43774,
          "time": 28.498697916666668,
          "velocity": 0.33070866141732286
        },
        {
          "duration": 0.3743489583333357,
          "durationTicks": 575,
          "midi": 61,
          "name": "C#4",
          "ticks": 43775,
          "time": 28.499348958333332,
          "velocity": 0.10236220472440945
        },
        {
          "duration": 0.3743489583333357,
          "durationTicks": 575,
          "midi": 59,
          "name": "B3",
          "ticks": 43787,
          "time": 28.507161458333332,
          "velocity": 0.44881889763779526
        },
        {
          "duration": 0.12434895833333215,
          "durationTicks": 191,
          "midi": 64,
          "name": "E4",
          "ticks": 44344,
          "time": 28.869791666666668,
          "velocity": 0.3464566929133858
        },
        {
          "duration": 0.12434895833333215,
          "durationTicks": 191,
          "midi": 62,
          "name": "D4",
          "ticks": 44344,
          "time": 28.869791666666668,
          "velocity": 0.15748031496062992
        },
        {
          "duration": 0.12434895833333215,
          "durationTicks": 191,
          "midi": 59,
          "name": "B3",
          "ticks": 44347,
          "time": 28.871744791666668,
          "velocity": 0.28346456692913385
        },
        {
          "duration": 0.12434895833333215,
          "durationTicks": 191,
          "midi": 71,
          "name": "B4",
          "ticks": 44356,
          "time": 28.877604166666668,
          "velocity": 0.30708661417322836
        },
        {
          "duration": 0.2486979166666643,
          "durationTicks": 382,
          "midi": 71,
          "name": "B4",
          "ticks": 44929,
          "time": 29.250651041666668,
          "velocity": 0.29133858267716534
        },
        {
          "duration": 0.2486979166666643,
          "durationTicks": 382,
          "midi": 59,
          "name": "B3",
          "ticks": 44929,
          "time": 29.250651041666668,
          "velocity": 0.4015748031496063
        },
        {
          "duration": 0.24934895833333215,
          "durationTicks": 383,
          "midi": 64,
          "name": "E4",
          "ticks": 44934,
          "time": 29.25390625,
          "velocity": 0.3464566929133858
        },
        {
          "duration": 0.24934895833333215,
          "durationTicks": 383,
          "midi": 62,
          "name": "D4",
          "ticks": 44935,
          "time": 29.254557291666668,
          "velocity": 0.15748031496062992
        },
        {
          "duration": 0.125,
          "durationTicks": 192,
          "midi": 62,
          "name": "D4",
          "ticks": 45300,
          "time": 29.4921875,
          "velocity": 0.08661417322834646
        },
        {
          "duration": 0.125,
          "durationTicks": 192,
          "midi": 59,
          "name": "B3",
          "ticks": 45300,
          "time": 29.4921875,
          "velocity": 0.1732283464566929
        },
        {
          "duration": 0.1256510416666643,
          "durationTicks": 193,
          "midi": 64,
          "name": "E4",
          "ticks": 45310,
          "time": 29.498697916666668,
          "velocity": 0.16535433070866143
        },
        {
          "duration": 0.12565104166666785,
          "durationTicks": 193,
          "midi": 71,
          "name": "B4",
          "ticks": 45315,
          "time": 29.501953125,
          "velocity": 0.031496062992125984
        },
        {
          "duration": 0.2513020833333357,
          "durationTicks": 386,
          "midi": 71,
          "name": "B4",
          "ticks": 45488,
          "time": 29.614583333333332,
          "velocity": 0.2440944881889764
        },
        {
          "duration": 0.2513020833333357,
          "durationTicks": 386,
          "midi": 59,
          "name": "B3",
          "ticks": 45494,
          "time": 29.618489583333332,
          "velocity": 0.3858267716535433
        },
        {
          "duration": 0.25065104166666785,
          "durationTicks": 385,
          "midi": 64,
          "name": "E4",
          "ticks": 45509,
          "time": 29.628255208333332,
          "velocity": 0.4015748031496063
        },
        {
          "duration": 0.2506510416666643,
          "durationTicks": 385,
          "midi": 62,
          "name": "D4",
          "ticks": 45511,
          "time": 29.629557291666668,
          "velocity": 0.1732283464566929
        },
        {
          "duration": 0.12565104166666785,
          "durationTicks": 193,
          "midi": 64,
          "name": "E4",
          "ticks": 45869,
          "time": 29.862630208333332,
          "velocity": 0.2677165354330709
        },
        {
          "duration": 0.1263020833333357,
          "durationTicks": 194,
          "midi": 62,
          "name": "D4",
          "ticks": 45875,
          "time": 29.866536458333332,
          "velocity": 0.18110236220472442
        },
        {
          "duration": 0.1256510416666643,
          "durationTicks": 193,
          "midi": 71,
          "name": "B4",
          "ticks": 45886,
          "time": 29.873697916666668,
          "velocity": 0.11811023622047244
        },
        {
          "duration": 0.12630208333333215,
          "durationTicks": 194,
          "midi": 59,
          "name": "B3",
          "ticks": 45892,
          "time": 29.877604166666668,
          "velocity": 0.23622047244094488
        },
        {
          "duration": 0.3131510416666643,
          "durationTicks": 481,
          "midi": 67,
          "name": "G4",
          "ticks": 46066,
          "time": 29.990885416666668,
          "velocity": 0.29133858267716534
        },
        {
          "duration": 0.3131510416666643,
          "durationTicks": 481,
          "midi": 61,
          "name": "C#4",
          "ticks": 46084,
          "time": 30.002604166666668,
          "velocity": 0.10236220472440945
        },
        {
          "duration": 0.31315104166666785,
          "durationTicks": 481,
          "midi": 59,
          "name": "B3",
          "ticks": 46085,
          "time": 30.003255208333332,
          "velocity": 0.4330708661417323
        },
        {
          "duration": 0.3131510416666643,
          "durationTicks": 481,
          "midi": 62,
          "name": "D4",
          "ticks": 46087,
          "time": 30.004557291666668,
          "velocity": 0.30708661417322836
        },
        {
          "duration": 0.31315104166666785,
          "durationTicks": 481,
          "midi": 71,
          "name": "B4",
          "ticks": 46089,
          "time": 30.005859375,
          "velocity": 0.28346456692913385
        },
        {
          "duration": 0.125,
          "durationTicks": 192,
          "midi": 67,
          "name": "G4",
          "ticks": 46655,
          "time": 30.374348958333332,
          "velocity": 0.2204724409448819
        },
        {
          "duration": 0.125,
          "durationTicks": 192,
          "midi": 61,
          "name": "C#4",
          "ticks": 46655,
          "time": 30.374348958333332,
          "velocity": 0.023622047244094488
        },
        {
          "duration": 0.125,
          "durationTicks": 192,
          "midi": 71,
          "name": "B4",
          "ticks": 46660,
          "time": 30.377604166666668,
          "velocity": 0.08661417322834646
        },
        {
          "duration": 0.125,
          "durationTicks": 192,
          "midi": 59,
          "name": "B3",
          "ticks": 46660,
          "time": 30.377604166666668,
          "velocity": 0.1968503937007874
        },
        {
          "duration": 0.125,
          "durationTicks": 192,
          "midi": 62,
          "name": "D4",
          "ticks": 46661,
          "time": 30.378255208333332,
          "velocity": 0.1968503937007874
        },
        {
          "duration": 0.375,
          "durationTicks": 576,
          "midi": 62,
          "name": "D4",
          "ticks": 46837,
          "time": 30.492838541666668,
          "velocity": 0.31496062992125984
        },
        {
          "duration": 0.375,
          "durationTicks": 576,
          "midi": 67,
          "name": "G4",
          "ticks": 46840,
          "time": 30.494791666666668,
          "velocity": 0.5511811023622047
        },
        {
          "duration": 0.375,
          "durationTicks": 576,
          "midi": 61,
          "name": "C#4",
          "ticks": 46841,
          "time": 30.495442708333332,
          "velocity": 0.11023622047244094
        },
        {
          "duration": 0.37565104166666785,
          "durationTicks": 577,
          "midi": 59,
          "name": "B3",
          "ticks": 46848,
          "time": 30.5,
          "velocity": 0.4094488188976378
        },
        {
          "duration": 0.37565104166666785,
          "durationTicks": 577,
          "midi": 71,
          "name": "B4",
          "ticks": 46851,
          "time": 30.501953125,
          "velocity": 0.1889763779527559
        },
        {
          "duration": 0.1263020833333357,
          "durationTicks": 194,
          "midi": 62,
          "name": "D4",
          "ticks": 47414,
          "time": 30.868489583333332,
          "velocity": 0.2047244094488189
        },
        {
          "duration": 0.12565104166666785,
          "durationTicks": 193,
          "midi": 70,
          "name": "A#4",
          "ticks": 47418,
          "time": 30.87109375,
          "velocity": 0.23622047244094488
        },
        {
          "duration": 0.1256510416666643,
          "durationTicks": 193,
          "midi": 58,
          "name": "A#3",
          "ticks": 47422,
          "time": 30.873697916666668,
          "velocity": 0.3228346456692913
        },
        {
          "duration": 0.125,
          "durationTicks": 192,
          "midi": 64,
          "name": "E4",
          "ticks": 47431,
          "time": 30.879557291666668,
          "velocity": 0.2992125984251969
        },
        {
          "duration": 0.125,
          "durationTicks": 192,
          "midi": 66,
          "name": "F#4",
          "ticks": 47433,
          "time": 30.880859375,
          "velocity": 0.1968503937007874
        },
        {
          "duration": 0.125,
          "durationTicks": 192,
          "midi": 66,
          "name": "F#4",
          "ticks": 47802,
          "time": 31.12109375,
          "velocity": 0.2125984251968504
        },
        {
          "duration": 0.12565104166666785,
          "durationTicks": 193,
          "midi": 62,
          "name": "D4",
          "ticks": 47805,
          "time": 31.123046875,
          "velocity": 0.1732283464566929
        },
        {
          "duration": 0.12565104166666785,
          "durationTicks": 193,
          "midi": 58,
          "name": "A#3",
          "ticks": 47814,
          "time": 31.12890625,
          "velocity": 0.25196850393700787
        },
        {
          "duration": 0.125,
          "durationTicks": 192,
          "midi": 70,
          "name": "A#4",
          "ticks": 47819,
          "time": 31.132161458333332,
          "velocity": 0.09448818897637795
        },
        {
          "duration": 0.125,
          "durationTicks": 192,
          "midi": 64,
          "name": "E4",
          "ticks": 47826,
          "time": 31.13671875,
          "velocity": 0.14960629921259844
        },
        {
          "duration": 0.25,
          "durationTicks": 384,
          "midi": 64,
          "name": "E4",
          "ticks": 47995,
          "time": 31.246744791666668,
          "velocity": 0.15748031496062992
        },
        {
          "duration": 0.25,
          "durationTicks": 384,
          "midi": 62,
          "name": "D4",
          "ticks": 47996,
          "time": 31.247395833333332,
          "velocity": 0.30708661417322836
        },
        {
          "duration": 0.25,
          "durationTicks": 384,
          "midi": 70,
          "name": "A#4",
          "ticks": 48003,
          "time": 31.251953125,
          "velocity": 0.18110236220472442
        },
        {
          "duration": 0.25,
          "durationTicks": 384,
          "midi": 58,
          "name": "A#3",
          "ticks": 48003,
          "time": 31.251953125,
          "velocity": 0.5039370078740157
        },
        {
          "duration": 0.25,
          "durationTicks": 384,
          "midi": 66,
          "name": "F#4",
          "ticks": 48009,
          "time": 31.255859375,
          "velocity": 0.33858267716535434
        },
        {
          "duration": 0.125,
          "durationTicks": 192,
          "midi": 62,
          "name": "D4",
          "ticks": 48367,
          "time": 31.488932291666668,
          "velocity": 0.05511811023622047
        },
        {
          "duration": 0.125,
          "durationTicks": 192,
          "midi": 58,
          "name": "A#3",
          "ticks": 48374,
          "time": 31.493489583333332,
          "velocity": 0.2283464566929134
        },
        {
          "duration": 0.125,
          "durationTicks": 192,
          "midi": 66,
          "name": "F#4",
          "ticks": 48376,
          "time": 31.494791666666668,
          "velocity": 0.2047244094488189
        },
        {
          "duration": 0.125,
          "durationTicks": 192,
          "midi": 70,
          "name": "A#4",
          "ticks": 48378,
          "time": 31.49609375,
          "velocity": 0.03937007874015748
        },
        {
          "duration": 0.25,
          "durationTicks": 384,
          "midi": 62,
          "name": "D4",
          "ticks": 48570,
          "time": 31.62109375,
          "velocity": 0.25984251968503935
        },
        {
          "duration": 0.25,
          "durationTicks": 384,
          "midi": 58,
          "name": "A#3",
          "ticks": 48578,
          "time": 31.626302083333332,
          "velocity": 0.30708661417322836
        },
        {
          "duration": 0.001302083333332149,
          "durationTicks": 2,
          "midi": 64,
          "name": "E4",
          "ticks": 48579,
          "time": 31.626953125,
          "velocity": 0.16535433070866143
        },
        {
          "duration": 0.25,
          "durationTicks": 384,
          "midi": 66,
          "name": "F#4",
          "ticks": 48582,
          "time": 31.62890625,
          "velocity": 0.5590551181102362
        },
        {
          "duration": 0.25,
          "durationTicks": 384,
          "midi": 70,
          "name": "A#4",
          "ticks": 48585,
          "time": 31.630859375,
          "velocity": 0.1732283464566929
        },
        {
          "duration": 0.1256510416666643,
          "durationTicks": 193,
          "midi": 62,
          "name": "D4",
          "ticks": 48958,
          "time": 31.873697916666668,
          "velocity": 0.1732283464566929
        },
        {
          "duration": 0.12565104166666785,
          "durationTicks": 193,
          "midi": 58,
          "name": "A#3",
          "ticks": 48959,
          "time": 31.874348958333332,
          "velocity": 0.30708661417322836
        },
        {
          "duration": 0.12565104166666785,
          "durationTicks": 193,
          "midi": 66,
          "name": "F#4",
          "ticks": 48970,
          "time": 31.881510416666668,
          "velocity": 0.31496062992125984
        },
        {
          "duration": 0.12565104166666785,
          "durationTicks": 193,
          "midi": 70,
          "name": "A#4",
          "ticks": 48971,
          "time": 31.882161458333332,
          "velocity": 0.13385826771653545
        },
        {
          "duration": 0.12565104166666785,
          "durationTicks": 193,
          "midi": 64,
          "name": "E4",
          "ticks": 48973,
          "time": 31.883463541666668,
          "velocity": 0.031496062992125984
        },
        {
          "duration": 0.37500000000000355,
          "durationTicks": 576,
          "midi": 69,
          "name": "A4",
          "ticks": 49142,
          "time": 31.993489583333332,
          "velocity": 0.18110236220472442
        },
        {
          "duration": 0.375,
          "durationTicks": 576,
          "midi": 57,
          "name": "A3",
          "ticks": 49143,
          "time": 31.994140625,
          "velocity": 0.3228346456692913
        },
        {
          "duration": 0.37500000000000355,
          "durationTicks": 576,
          "midi": 59,
          "name": "B3",
          "ticks": 49148,
          "time": 31.997395833333332,
          "velocity": 0.2440944881889764
        },
        {
          "duration": 0.375,
          "durationTicks": 576,
          "midi": 64,
          "name": "E4",
          "ticks": 49158,
          "time": 32.00390625,
          "velocity": 0.3937007874015748
        },
        {
          "duration": 0.375,
          "durationTicks": 576,
          "midi": 60,
          "name": "C4",
          "ticks": 49167,
          "time": 32.009765625,
          "velocity": 0.3858267716535433
        },
        {
          "duration": 0.3756510416666643,
          "durationTicks": 577,
          "midi": 69,
          "name": "A4",
          "ticks": 49914,
          "time": 32.49609375,
          "velocity": 0.2992125984251969
        },
        {
          "duration": 0.3756510416666643,
          "durationTicks": 577,
          "midi": 59,
          "name": "B3",
          "ticks": 49916,
          "time": 32.497395833333336,
          "velocity": 0.1889763779527559
        },
        {
          "duration": 0.3756510416666643,
          "durationTicks": 577,
          "midi": 64,
          "name": "E4",
          "ticks": 49920,
          "time": 32.5,
          "velocity": 0.31496062992125984
        },
        {
          "duration": 0.3763020833333357,
          "durationTicks": 578,
          "midi": 57,
          "name": "A3",
          "ticks": 49927,
          "time": 32.504557291666664,
          "velocity": 0.2992125984251969
        },
        {
          "duration": 0.3756510416666643,
          "durationTicks": 577,
          "midi": 60,
          "name": "C4",
          "ticks": 49935,
          "time": 32.509765625,
          "velocity": 0.5196850393700787
        },
        {
          "duration": 0.1256510416666643,
          "durationTicks": 193,
          "midi": 63,
          "name": "D#4",
          "ticks": 50489,
          "time": 32.870442708333336,
          "velocity": 0.5118110236220472
        },
        {
          "duration": 0.125,
          "durationTicks": 192,
          "midi": 55,
          "name": "G3",
          "ticks": 50501,
          "time": 32.878255208333336,
          "velocity": 0.4566929133858268
        },
        {
          "duration": 0.125,
          "durationTicks": 192,
          "midi": 61,
          "name": "C#4",
          "ticks": 50502,
          "time": 32.87890625,
          "velocity": 0.2204724409448819
        },
        {
          "duration": 0.125,
          "durationTicks": 192,
          "midi": 67,
          "name": "G4",
          "ticks": 50506,
          "time": 32.881510416666664,
          "velocity": 0.2283464566929134
        },
        {
          "duration": 0.125,
          "durationTicks": 192,
          "midi": 59,
          "name": "B3",
          "ticks": 50508,
          "time": 32.8828125,
          "velocity": 0.2677165354330709
        },
        {
          "duration": 0.25,
          "durationTicks": 384,
          "midi": 67,
          "name": "G4",
          "ticks": 51073,
          "time": 33.250651041666664,
          "velocity": 0.2677165354330709
        },
        {
          "duration": 0.2493489583333357,
          "durationTicks": 383,
          "midi": 59,
          "name": "B3",
          "ticks": 51081,
          "time": 33.255859375,
          "velocity": 0.4409448818897638
        },
        {
          "duration": 0.2493489583333286,
          "durationTicks": 383,
          "midi": 55,
          "name": "G3",
          "ticks": 51089,
          "time": 33.261067708333336,
          "velocity": 0.3543307086614173
        },
        {
          "duration": 0.2493489583333286,
          "durationTicks": 383,
          "midi": 63,
          "name": "D#4",
          "ticks": 51089,
          "time": 33.261067708333336,
          "velocity": 0.4094488188976378
        },
        {
          "duration": 0.2447916666666643,
          "durationTicks": 376,
          "midi": 61,
          "name": "C#4",
          "ticks": 51096,
          "time": 33.265625,
          "velocity": 0.2204724409448819
        },
        {
          "duration": 0.1243489583333286,
          "durationTicks": 191,
          "midi": 63,
          "name": "D#4",
          "ticks": 51458,
          "time": 33.501302083333336,
          "velocity": 0.18110236220472442
        },
        {
          "duration": 0.1243489583333357,
          "durationTicks": 191,
          "midi": 67,
          "name": "G4",
          "ticks": 51462,
          "time": 33.50390625,
          "velocity": 0.031496062992125984
        },
        {
          "duration": 0.1243489583333357,
          "durationTicks": 191,
          "midi": 59,
          "name": "B3",
          "ticks": 51465,
          "time": 33.505859375,
          "velocity": 0.23622047244094488
        },
        {
          "duration": 0.125,
          "durationTicks": 192,
          "midi": 56,
          "name": "G#3",
          "ticks": 51474,
          "time": 33.51171875,
          "velocity": 0.14173228346456693
        },
        {
          "duration": 0.013020833333335702,
          "durationTicks": 20,
          "midi": 61,
          "name": "C#4",
          "ticks": 51643,
          "time": 33.621744791666664,
          "velocity": 0.1889763779527559
        },
        {
          "duration": 0.2493489583333286,
          "durationTicks": 383,
          "midi": 55,
          "name": "G3",
          "ticks": 51644,
          "time": 33.622395833333336,
          "velocity": 0.3228346456692913
        },
        {
          "duration": 0.2493489583333286,
          "durationTicks": 383,
          "midi": 63,
          "name": "D#4",
          "ticks": 51644,
          "time": 33.622395833333336,
          "velocity": 0.3779527559055118
        },
        {
          "duration": 0.2493489583333357,
          "durationTicks": 383,
          "midi": 59,
          "name": "B3",
          "ticks": 51645,
          "time": 33.623046875,
          "velocity": 0.3779527559055118
        },
        {
          "duration": 0.25,
          "durationTicks": 384,
          "midi": 67,
          "name": "G4",
          "ticks": 51672,
          "time": 33.640625,
          "velocity": 0.1889763779527559
        },
        {
          "duration": 0.125,
          "durationTicks": 192,
          "midi": 59,
          "name": "B3",
          "ticks": 52029,
          "time": 33.873046875,
          "velocity": 0.1968503937007874
        },
        {
          "duration": 0.125,
          "durationTicks": 192,
          "midi": 67,
          "name": "G4",
          "ticks": 52036,
          "time": 33.877604166666664,
          "velocity": 0.13385826771653545
        },
        {
          "duration": 0.125,
          "durationTicks": 192,
          "midi": 55,
          "name": "G3",
          "ticks": 52037,
          "time": 33.878255208333336,
          "velocity": 0.3228346456692913
        },
        {
          "duration": 0.1243489583333357,
          "durationTicks": 191,
          "midi": 63,
          "name": "D#4",
          "ticks": 52038,
          "time": 33.87890625,
          "velocity": 0.2677165354330709
        },
        {
          "duration": 0.1243489583333357,
          "durationTicks": 191,
          "midi": 61,
          "name": "C#4",
          "ticks": 52038,
          "time": 33.87890625,
          "velocity": 0.06299212598425197
        },
        {
          "duration": 0.3743489583333357,
          "durationTicks": 575,
          "midi": 58,
          "name": "A#3",
          "ticks": 52209,
          "time": 33.990234375,
          "velocity": 0.2440944881889764
        },
        {
          "duration": 0.375,
          "durationTicks": 576,
          "midi": 62,
          "name": "D4",
          "ticks": 52228,
          "time": 34.002604166666664,
          "velocity": 0.36220472440944884
        },
        {
          "duration": 0.375,
          "durationTicks": 576,
          "midi": 55,
          "name": "G3",
          "ticks": 52228,
          "time": 34.002604166666664,
          "velocity": 0.2677165354330709
        },
        {
          "duration": 0.375,
          "durationTicks": 576,
          "midi": 57,
          "name": "A3",
          "ticks": 52229,
          "time": 34.003255208333336,
          "velocity": 0.33070866141732286
        },
        {
          "duration": 0.3756510416666643,
          "durationTicks": 577,
          "midi": 67,
          "name": "G4",
          "ticks": 52245,
          "time": 34.013671875,
          "velocity": 0.30708661417322836
        },
        {
          "duration": 0.375,
          "durationTicks": 576,
          "midi": 62,
          "name": "D4",
          "ticks": 52989,
          "time": 34.498046875,
          "velocity": 0.33070866141732286
        },
        {
          "duration": 0.375,
          "durationTicks": 576,
          "midi": 57,
          "name": "A3",
          "ticks": 52994,
          "time": 34.501302083333336,
          "velocity": 0.5433070866141733
        },
        {
          "duration": 0.375,
          "durationTicks": 576,
          "midi": 58,
          "name": "A#3",
          "ticks": 52995,
          "time": 34.501953125,
          "velocity": 0.1889763779527559
        },
        {
          "duration": 0.375,
          "durationTicks": 576,
          "midi": 67,
          "name": "G4",
          "ticks": 52998,
          "time": 34.50390625,
          "velocity": 0.2125984251968504
        },
        {
          "duration": 0.375,
          "durationTicks": 576,
          "midi": 55,
          "name": "G3",
          "ticks": 53004,
          "time": 34.5078125,
          "velocity": 0.47244094488188976
        },
        {
          "duration": 0.1243489583333286,
          "durationTicks": 191,
          "midi": 58,
          "name": "A#3",
          "ticks": 53567,
          "time": 34.874348958333336,
          "velocity": 0.29133858267716534
        },
        {
          "duration": 0.1243489583333286,
          "durationTicks": 191,
          "midi": 67,
          "name": "G4",
          "ticks": 53570,
          "time": 34.876302083333336,
          "velocity": 0.2204724409448819
        },
        {
          "duration": 0.1243489583333357,
          "durationTicks": 191,
          "midi": 62,
          "name": "D4",
          "ticks": 53577,
          "time": 34.880859375,
          "velocity": 0.5039370078740157
        },
        {
          "duration": 0.125,
          "durationTicks": 192,
          "midi": 55,
          "name": "G3",
          "ticks": 53589,
          "time": 34.888671875,
          "velocity": 0.3464566929133858
        },
        {
          "duration": 0.25,
          "durationTicks": 384,
          "midi": 67,
          "name": "G4",
          "ticks": 54148,
          "time": 35.252604166666664,
          "velocity": 0.15748031496062992
        },
        {
          "duration": 0.25,
          "durationTicks": 384,
          "midi": 58,
          "name": "A#3",
          "ticks": 54150,
          "time": 35.25390625,
          "velocity": 0.25984251968503935
        },
        {
          "duration": 0.25,
          "durationTicks": 384,
          "midi": 62,
          "name": "D4",
          "ticks": 54151,
          "time": 35.254557291666664,
          "velocity": 0.29133858267716534
        },
        {
          "duration": 0.25,
          "durationTicks": 384,
          "midi": 55,
          "name": "G3",
          "ticks": 54160,
          "time": 35.260416666666664,
          "velocity": 0.2992125984251969
        },
        {
          "duration": 0.1243489583333357,
          "durationTicks": 191,
          "midi": 67,
          "name": "G4",
          "ticks": 54511,
          "time": 35.488932291666664,
          "velocity": 0.03937007874015748
        },
        {
          "duration": 0.125,
          "durationTicks": 192,
          "midi": 62,
          "name": "D4",
          "ticks": 54532,
          "time": 35.502604166666664,
          "velocity": 0.2677165354330709
        },
        {
          "duration": 0.125,
          "durationTicks": 192,
          "midi": 55,
          "name": "G3",
          "ticks": 54538,
          "time": 35.506510416666664,
          "velocity": 0.14960629921259844
        },
        {
          "duration": 0.125,
          "durationTicks": 192,
          "midi": 58,
          "name": "A#3",
          "ticks": 54546,
          "time": 35.51171875,
          "velocity": 0.18110236220472442
        },
        {
          "duration": 0.25,
          "durationTicks": 384,
          "midi": 67,
          "name": "G4",
          "ticks": 54714,
          "time": 35.62109375,
          "velocity": 0.2047244094488189
        },
        {
          "duration": 0.25,
          "durationTicks": 384,
          "midi": 55,
          "name": "G3",
          "ticks": 54737,
          "time": 35.636067708333336,
          "velocity": 0.4015748031496063
        },
        {
          "duration": 0.25,
          "durationTicks": 384,
          "midi": 62,
          "name": "D4",
          "ticks": 54737,
          "time": 35.636067708333336,
          "velocity": 0.47244094488188976
        },
        {
          "duration": 0.2506510416666643,
          "durationTicks": 385,
          "midi": 58,
          "name": "A#3",
          "ticks": 54738,
          "time": 35.63671875,
          "velocity": 0.3700787401574803
        },
        {
          "duration": 0.1243489583333357,
          "durationTicks": 191,
          "midi": 62,
          "name": "D4",
          "ticks": 55110,
          "time": 35.87890625,
          "velocity": 0.41732283464566927
        },
        {
          "duration": 0.1243489583333357,
          "durationTicks": 191,
          "midi": 58,
          "name": "A#3",
          "ticks": 55113,
          "time": 35.880859375,
          "velocity": 0.31496062992125984
        },
        {
          "duration": 0.1243489583333286,
          "durationTicks": 191,
          "midi": 55,
          "name": "G3",
          "ticks": 55115,
          "time": 35.882161458333336,
          "velocity": 0.1968503937007874
        },
        {
          "duration": 0.1243489583333357,
          "durationTicks": 191,
          "midi": 67,
          "name": "G4",
          "ticks": 55122,
          "time": 35.88671875,
          "velocity": 0.11811023622047244
        },
        {
          "duration": 0.3743489583333286,
          "durationTicks": 575,
          "midi": 58,
          "name": "A#3",
          "ticks": 55283,
          "time": 35.991536458333336,
          "velocity": 0.3464566929133858
        },
        {
          "duration": 0.3743489583333286,
          "durationTicks": 575,
          "midi": 62,
          "name": "D4",
          "ticks": 55295,
          "time": 35.999348958333336,
          "velocity": 0.3937007874015748
        },
        {
          "duration": 0.3743489583333357,
          "durationTicks": 575,
          "midi": 55,
          "name": "G3",
          "ticks": 55297,
          "time": 36.000651041666664,
          "velocity": 0.4094488188976378
        },
        {
          "duration": 0.3743489583333357,
          "durationTicks": 575,
          "midi": 57,
          "name": "A3",
          "ticks": 55297,
          "time": 36.000651041666664,
          "velocity": 0.07086614173228346
        },
        {
          "duration": 0.3743489583333357,
          "durationTicks": 575,
          "midi": 67,
          "name": "G4",
          "ticks": 55311,
          "time": 36.009765625,
          "velocity": 0.25984251968503935
        },
        {
          "duration": 0.375,
          "durationTicks": 576,
          "midi": 57,
          "name": "A3",
          "ticks": 56059,
          "time": 36.496744791666664,
          "velocity": 0.11811023622047244
        },
        {
          "duration": 0.375,
          "durationTicks": 576,
          "midi": 67,
          "name": "G4",
          "ticks": 56060,
          "time": 36.497395833333336,
          "velocity": 0.2047244094488189
        },
        {
          "duration": 0.375,
          "durationTicks": 576,
          "midi": 58,
          "name": "A#3",
          "ticks": 56062,
          "time": 36.498697916666664,
          "velocity": 0.1968503937007874
        },
        {
          "duration": 0.375,
          "durationTicks": 576,
          "midi": 62,
          "name": "D4",
          "ticks": 56074,
          "time": 36.506510416666664,
          "velocity": 0.3700787401574803
        },
        {
          "duration": 0.375,
          "durationTicks": 576,
          "midi": 55,
          "name": "G3",
          "ticks": 56074,
          "time": 36.506510416666664,
          "velocity": 0.33070866141732286
        },
        {
          "duration": 0.125,
          "durationTicks": 192,
          "midi": 58,
          "name": "A#3",
          "ticks": 56628,
          "time": 36.8671875,
          "velocity": 0.1889763779527559
        },
        {
          "duration": 0.125,
          "durationTicks": 192,
          "midi": 67,
          "name": "G4",
          "ticks": 56632,
          "time": 36.869791666666664,
          "velocity": 0.2755905511811024
        },
        {
          "duration": 0.125,
          "durationTicks": 192,
          "midi": 55,
          "name": "G3",
          "ticks": 56644,
          "time": 36.877604166666664,
          "velocity": 0.5196850393700787
        },
        {
          "duration": 0.125,
          "durationTicks": 192,
          "midi": 60,
          "name": "C4",
          "ticks": 56644,
          "time": 36.877604166666664,
          "velocity": 0.4094488188976378
        },
        {
          "duration": 0.25,
          "durationTicks": 384,
          "midi": 58,
          "name": "A#3",
          "ticks": 57203,
          "time": 37.241536458333336,
          "velocity": 0.2677165354330709
        },
        {
          "duration": 0.25,
          "durationTicks": 384,
          "midi": 67,
          "name": "G4",
          "ticks": 57221,
          "time": 37.253255208333336,
          "velocity": 0.2440944881889764
        },
        {
          "duration": 0.25,
          "durationTicks": 384,
          "midi": 60,
          "name": "C4",
          "ticks": 57228,
          "time": 37.2578125,
          "velocity": 0.4330708661417323
        },
        {
          "duration": 0.25,
          "durationTicks": 384,
          "midi": 55,
          "name": "G3",
          "ticks": 57235,
          "time": 37.262369791666664,
          "velocity": 0.3937007874015748
        },
        {
          "duration": 0.125,
          "durationTicks": 192,
          "midi": 55,
          "name": "G3",
          "ticks": 57581,
          "time": 37.487630208333336,
          "velocity": 0.18110236220472442
        },
        {
          "duration": 0.125,
          "durationTicks": 192,
          "midi": 67,
          "name": "G4",
          "ticks": 57605,
          "time": 37.503255208333336,
          "velocity": 0.03937007874015748
        },
        {
          "duration": 0.125,
          "durationTicks": 192,
          "midi": 60,
          "name": "C4",
          "ticks": 57607,
          "time": 37.504557291666664,
          "velocity": 0.30708661417322836
        },
        {
          "duration": 0.125,
          "durationTicks": 192,
          "midi": 58,
          "name": "A#3",
          "ticks": 57623,
          "time": 37.514973958333336,
          "velocity": 0.06299212598425197
        },
        {
          "duration": 0.25,
          "durationTicks": 384,
          "midi": 55,
          "name": "G3",
          "ticks": 57791,
          "time": 37.624348958333336,
          "velocity": 0.3779527559055118
        },
        {
          "duration": 0.25,
          "durationTicks": 384,
          "midi": 58,
          "name": "A#3",
          "ticks": 57793,
          "time": 37.625651041666664,
          "velocity": 0.2125984251968504
        },
        {
          "duration": 0.25,
          "durationTicks": 384,
          "midi": 67,
          "name": "G4",
          "ticks": 57801,
          "time": 37.630859375,
          "velocity": 0.2047244094488189
        },
        {
          "duration": 0.25,
          "durationTicks": 384,
          "midi": 60,
          "name": "C4",
          "ticks": 57801,
          "time": 37.630859375,
          "velocity": 0.36220472440944884
        },
        {
          "duration": 0.125,
          "durationTicks": 192,
          "midi": 60,
          "name": "C4",
          "ticks": 58169,
          "time": 37.870442708333336,
          "velocity": 0.3543307086614173
        },
        {
          "duration": 0.125,
          "durationTicks": 192,
          "midi": 67,
          "name": "G4",
          "ticks": 58169,
          "time": 37.870442708333336,
          "velocity": 0.14960629921259844
        },
        {
          "duration": 0.125,
          "durationTicks": 192,
          "midi": 55,
          "name": "G3",
          "ticks": 58180,
          "time": 37.877604166666664,
          "velocity": 0.25196850393700787
        },
        {
          "duration": 0.125,
          "durationTicks": 192,
          "midi": 58,
          "name": "A#3",
          "ticks": 58183,
          "time": 37.879557291666664,
          "velocity": 0.11023622047244094
        },
        {
          "duration": 0.3125,
          "durationTicks": 480,
          "midi": 68,
          "name": "G#4",
          "ticks": 58345,
          "time": 37.985026041666664,
          "velocity": 0.3937007874015748
        },
        {
          "duration": 0.3125,
          "durationTicks": 480,
          "midi": 53,
          "name": "F3",
          "ticks": 58365,
          "time": 37.998046875,
          "velocity": 0.3700787401574803
        },
        {
          "duration": 0.3125,
          "durationTicks": 480,
          "midi": 65,
          "name": "F4",
          "ticks": 58372,
          "time": 38.002604166666664,
          "velocity": 0.2125984251968504
        },
        {
          "duration": 0.3125,
          "durationTicks": 480,
          "midi": 60,
          "name": "C4",
          "ticks": 58379,
          "time": 38.007161458333336,
          "velocity": 0.4409448818897638
        },
        {
          "duration": 0.3125,
          "durationTicks": 480,
          "midi": 67,
          "name": "G4",
          "ticks": 58385,
          "time": 38.011067708333336,
          "velocity": 0.1732283464566929
        },
        {
          "duration": 0.125,
          "durationTicks": 192,
          "midi": 67,
          "name": "G4",
          "ticks": 58934,
          "time": 38.368489583333336,
          "velocity": 0.047244094488188976
        },
        {
          "duration": 0.125,
          "durationTicks": 192,
          "midi": 53,
          "name": "F3",
          "ticks": 58935,
          "time": 38.369140625,
          "velocity": 0.1968503937007874
        },
        {
          "duration": 0.125,
          "durationTicks": 192,
          "midi": 68,
          "name": "G#4",
          "ticks": 58935,
          "time": 38.369140625,
          "velocity": 0.3543307086614173
        },
        {
          "duration": 0.125,
          "durationTicks": 192,
          "midi": 60,
          "name": "C4",
          "ticks": 58946,
          "time": 38.376302083333336,
          "velocity": 0.2283464566929134
        },
        {
          "duration": 0.125,
          "durationTicks": 192,
          "midi": 65,
          "name": "F4",
          "ticks": 58951,
          "time": 38.379557291666664,
          "velocity": 0.05511811023622047
        },
        {
          "duration": 0.375,
          "durationTicks": 576,
          "midi": 60,
          "name": "C4",
          "ticks": 59140,
          "time": 38.502604166666664,
          "velocity": 0.28346456692913385
        },
        {
          "duration": 0.375,
          "durationTicks": 576,
          "midi": 53,
          "name": "F3",
          "ticks": 59142,
          "time": 38.50390625,
          "velocity": 0.4566929133858268
        },
        {
          "duration": 0.3756510416666643,
          "durationTicks": 577,
          "midi": 67,
          "name": "G4",
          "ticks": 59145,
          "time": 38.505859375,
          "velocity": 0.2677165354330709
        },
        {
          "duration": 0.3756510416666643,
          "durationTicks": 577,
          "midi": 68,
          "name": "G#4",
          "ticks": 59150,
          "time": 38.509114583333336,
          "velocity": 0.2440944881889764
        },
        {
          "duration": 0.3756510416666714,
          "durationTicks": 577,
          "midi": 65,
          "name": "F4",
          "ticks": 59158,
          "time": 38.514322916666664,
          "velocity": 0.2204724409448819
        },
        {
          "duration": 0.1256510416666714,
          "durationTicks": 193,
          "midi": 65,
          "name": "F4",
          "ticks": 59707,
          "time": 38.871744791666664,
          "velocity": 0.2440944881889764
        },
        {
          "duration": 0.1256510416666643,
          "durationTicks": 193,
          "midi": 53,
          "name": "F3",
          "ticks": 59717,
          "time": 38.878255208333336,
          "velocity": 0.4645669291338583
        },
        {
          "duration": 0.125,
          "durationTicks": 192,
          "midi": 60,
          "name": "C4",
          "ticks": 59733,
          "time": 38.888671875,
          "velocity": 0.30708661417322836
        },
        {
          "duration": 0.125,
          "durationTicks": 192,
          "midi": 68,
          "name": "G#4",
          "ticks": 59736,
          "time": 38.890625,
          "velocity": 0.16535433070866143
        },
        {
          "duration": 0.25,
          "durationTicks": 384,
          "midi": 68,
          "name": "G#4",
          "ticks": 60272,
          "time": 39.239583333333336,
          "velocity": 0.2047244094488189
        },
        {
          "duration": 0.25,
          "durationTicks": 384,
          "midi": 65,
          "name": "F4",
          "ticks": 60275,
          "time": 39.241536458333336,
          "velocity": 0.2125984251968504
        },
        {
          "duration": 0.25,
          "durationTicks": 384,
          "midi": 53,
          "name": "F3",
          "ticks": 60292,
          "time": 39.252604166666664,
          "velocity": 0.3779527559055118
        },
        {
          "duration": 0.25,
          "durationTicks": 384,
          "midi": 60,
          "name": "C4",
          "ticks": 60294,
          "time": 39.25390625,
          "velocity": 0.4409448818897638
        },
        {
          "duration": 0.125,
          "durationTicks": 192,
          "midi": 53,
          "name": "F3",
          "ticks": 60668,
          "time": 39.497395833333336,
          "velocity": 0.2047244094488189
        },
        {
          "duration": 0.125,
          "durationTicks": 192,
          "midi": 65,
          "name": "F4",
          "ticks": 60678,
          "time": 39.50390625,
          "velocity": 0.031496062992125984
        },
        {
          "duration": 0.125,
          "durationTicks": 192,
          "midi": 68,
          "name": "G#4",
          "ticks": 60681,
          "time": 39.505859375,
          "velocity": 0.08661417322834646
        },
        {
          "duration": 0.125,
          "durationTicks": 192,
          "midi": 60,
          "name": "C4",
          "ticks": 60684,
          "time": 39.5078125,
          "velocity": 0.14173228346456693
        },
        {
          "duration": 0.25,
          "durationTicks": 384,
          "midi": 60,
          "name": "C4",
          "ticks": 60851,
          "time": 39.616536458333336,
          "velocity": 0.33070866141732286
        },
        {
          "duration": 0.25,
          "durationTicks": 384,
          "midi": 68,
          "name": "G#4",
          "ticks": 60857,
          "time": 39.620442708333336,
          "velocity": 0.2677165354330709
        },
        {
          "duration": 0.25,
          "durationTicks": 384,
          "midi": 65,
          "name": "F4",
          "ticks": 60865,
          "time": 39.625651041666664,
          "velocity": 0.25984251968503935
        },
        {
          "duration": 0.25,
          "durationTicks": 384,
          "midi": 53,
          "name": "F3",
          "ticks": 60874,
          "time": 39.631510416666664,
          "velocity": 0.30708661417322836
        },
        {
          "duration": 0.125,
          "durationTicks": 192,
          "midi": 68,
          "name": "G#4",
          "ticks": 61237,
          "time": 39.867838541666664,
          "velocity": 0.1968503937007874
        },
        {
          "duration": 0.125,
          "durationTicks": 192,
          "midi": 60,
          "name": "C4",
          "ticks": 61240,
          "time": 39.869791666666664,
          "velocity": 0.30708661417322836
        },
        {
          "duration": 0.125,
          "durationTicks": 192,
          "midi": 53,
          "name": "F3",
          "ticks": 61240,
          "time": 39.869791666666664,
          "velocity": 0.3858267716535433
        },
        {
          "duration": 0.125,
          "durationTicks": 192,
          "midi": 65,
          "name": "F4",
          "ticks": 61254,
          "time": 39.87890625,
          "velocity": 0.15748031496062992
        },
        {
          "duration": 0.3118489583333357,
          "durationTicks": 479,
          "midi": 67,
          "name": "G4",
          "ticks": 61450,
          "time": 40.006510416666664,
          "velocity": 0.4881889763779528
        },
        {
          "duration": 0.3118489583333357,
          "durationTicks": 479,
          "midi": 53,
          "name": "F3",
          "ticks": 61450,
          "time": 40.006510416666664,
          "velocity": 0.3779527559055118
        },
        {
          "duration": 0.3118489583333286,
          "durationTicks": 479,
          "midi": 65,
          "name": "F4",
          "ticks": 61451,
          "time": 40.007161458333336,
          "velocity": 0.07086614173228346
        },
        {
          "duration": 0.3118489583333357,
          "durationTicks": 479,
          "midi": 62,
          "name": "D4",
          "ticks": 61453,
          "time": 40.008463541666664,
          "velocity": 0.08661417322834646
        },
        {
          "duration": 0.3118489583333357,
          "durationTicks": 479,
          "midi": 60,
          "name": "C4",
          "ticks": 61456,
          "time": 40.010416666666664,
          "velocity": 0.4330708661417323
        },
        {
          "duration": 0.125,
          "durationTicks": 192,
          "midi": 65,
          "name": "F4",
          "ticks": 62003,
          "time": 40.366536458333336,
          "velocity": 0.031496062992125984
        },
        {
          "duration": 0.125,
          "durationTicks": 192,
          "midi": 67,
          "name": "G4",
          "ticks": 62008,
          "time": 40.369791666666664,
          "velocity": 0.1889763779527559
        },
        {
          "duration": 0.125,
          "durationTicks": 192,
          "midi": 60,
          "name": "C4",
          "ticks": 62017,
          "time": 40.375651041666664,
          "velocity": 0.13385826771653545
        },
        {
          "duration": 0.1243489583333286,
          "durationTicks": 191,
          "midi": 62,
          "name": "D4",
          "ticks": 62027,
          "time": 40.382161458333336,
          "velocity": 0.06299212598425197
        },
        {
          "duration": 0.1243489583333357,
          "durationTicks": 191,
          "midi": 53,
          "name": "F3",
          "ticks": 62028,
          "time": 40.3828125,
          "velocity": 0.2440944881889764
        },
        {
          "duration": 0.375,
          "durationTicks": 576,
          "midi": 53,
          "name": "F3",
          "ticks": 62208,
          "time": 40.5,
          "velocity": 0.2677165354330709
        },
        {
          "duration": 0.375,
          "durationTicks": 576,
          "midi": 60,
          "name": "C4",
          "ticks": 62210,
          "time": 40.501302083333336,
          "velocity": 0.3464566929133858
        },
        {
          "duration": 0.375,
          "durationTicks": 576,
          "midi": 62,
          "name": "D4",
          "ticks": 62214,
          "time": 40.50390625,
          "velocity": 0.06299212598425197
        },
        {
          "duration": 0.3756510416666643,
          "durationTicks": 577,
          "midi": 67,
          "name": "G4",
          "ticks": 62222,
          "time": 40.509114583333336,
          "velocity": 0.2755905511811024
        },
        {
          "duration": 0.3756510416666714,
          "durationTicks": 577,
          "midi": 65,
          "name": "F4",
          "ticks": 62224,
          "time": 40.510416666666664,
          "velocity": 0.07086614173228346
        },
        {
          "duration": 0.1256510416666643,
          "durationTicks": 193,
          "midi": 67,
          "name": "G4",
          "ticks": 62780,
          "time": 40.872395833333336,
          "velocity": 0.13385826771653545
        },
        {
          "duration": 0.1256510416666714,
          "durationTicks": 193,
          "midi": 60,
          "name": "C4",
          "ticks": 62785,
          "time": 40.875651041666664,
          "velocity": 0.14173228346456693
        },
        {
          "duration": 0.1256510416666643,
          "durationTicks": 193,
          "midi": 53,
          "name": "F3",
          "ticks": 62795,
          "time": 40.882161458333336,
          "velocity": 0.4015748031496063
        },
        {
          "duration": 0.1256510416666643,
          "durationTicks": 193,
          "midi": 62,
          "name": "D4",
          "ticks": 62795,
          "time": 40.882161458333336,
          "velocity": 0.29133858267716534
        },
        {
          "duration": 0.1256510416666714,
          "durationTicks": 193,
          "midi": 65,
          "name": "F4",
          "ticks": 62800,
          "time": 40.885416666666664,
          "velocity": 0.07874015748031496
        },
        {
          "duration": 0.2493489583333286,
          "durationTicks": 383,
          "midi": 67,
          "name": "G4",
          "ticks": 63344,
          "time": 41.239583333333336,
          "velocity": 0.14960629921259844
        },
        {
          "duration": 0.240234375,
          "durationTicks": 369,
          "midi": 60,
          "name": "C4",
          "ticks": 63358,
          "time": 41.248697916666664,
          "velocity": 0.1889763779527559
        },
        {
          "duration": 0.2486979166666643,
          "durationTicks": 382,
          "midi": 53,
          "name": "F3",
          "ticks": 63360,
          "time": 41.25,
          "velocity": 0.36220472440944884
        },
        {
          "duration": 0.2486979166666643,
          "durationTicks": 382,
          "midi": 65,
          "name": "F4",
          "ticks": 63365,
          "time": 41.253255208333336,
          "velocity": 0.07874015748031496
        },
        {
          "duration": 0.2486979166666714,
          "durationTicks": 382,
          "midi": 62,
          "name": "D4",
          "ticks": 63370,
          "time": 41.256510416666664,
          "velocity": 0.2283464566929134
        },
        {
          "duration": 0.1243489583333357,
          "durationTicks": 191,
          "midi": 67,
          "name": "G4",
          "ticks": 63736,
          "time": 41.494791666666664,
          "velocity": 0.047244094488188976
        },
        {
          "duration": 0.125,
          "durationTicks": 192,
          "midi": 65,
          "name": "F4",
          "ticks": 63742,
          "time": 41.498697916666664,
          "velocity": 0.03937007874015748
        },
        {
          "duration": 0.125,
          "durationTicks": 192,
          "midi": 53,
          "name": "F3",
          "ticks": 63756,
          "time": 41.5078125,
          "velocity": 0.2677165354330709
        },
        {
          "duration": 0.125,
          "durationTicks": 192,
          "midi": 62,
          "name": "D4",
          "ticks": 63758,
          "time": 41.509114583333336,
          "velocity": 0.2047244094488189
        },
        {
          "duration": 0.25,
          "durationTicks": 384,
          "midi": 62,
          "name": "D4",
          "ticks": 63921,
          "time": 41.615234375,
          "velocity": 0.30708661417322836
        },
        {
          "duration": 0.2493489583333357,
          "durationTicks": 383,
          "midi": 67,
          "name": "G4",
          "ticks": 63927,
          "time": 41.619140625,
          "velocity": 0.2755905511811024
        },
        {
          "duration": 0.2493489583333357,
          "durationTicks": 383,
          "midi": 60,
          "name": "C4",
          "ticks": 63933,
          "time": 41.623046875,
          "velocity": 0.2283464566929134
        },
        {
          "duration": 0.2493489583333286,
          "durationTicks": 383,
          "midi": 65,
          "name": "F4",
          "ticks": 63935,
          "time": 41.624348958333336,
          "velocity": 0.10236220472440945
        },
        {
          "duration": 0.2493489583333286,
          "durationTicks": 383,
          "midi": 53,
          "name": "F3",
          "ticks": 63935,
          "time": 41.624348958333336,
          "velocity": 0.4566929133858268
        },
        {
          "duration": 0.1236979166666643,
          "durationTicks": 190,
          "midi": 65,
          "name": "F4",
          "ticks": 64307,
          "time": 41.866536458333336,
          "velocity": 0.031496062992125984
        },
        {
          "duration": 0.1243489583333357,
          "durationTicks": 191,
          "midi": 62,
          "name": "D4",
          "ticks": 64314,
          "time": 41.87109375,
          "velocity": 0.2283464566929134
        },
        {
          "duration": 0.1243489583333357,
          "durationTicks": 191,
          "midi": 67,
          "name": "G4",
          "ticks": 64318,
          "time": 41.873697916666664,
          "velocity": 0.14173228346456693
        },
        {
          "duration": 0.1243489583333357,
          "durationTicks": 191,
          "midi": 53,
          "name": "F3",
          "ticks": 64332,
          "time": 41.8828125,
          "velocity": 0.29133858267716534
        },
        {
          "duration": 0.1243489583333357,
          "durationTicks": 191,
          "midi": 60,
          "name": "C4",
          "ticks": 64333,
          "time": 41.883463541666664,
          "velocity": 0.05511811023622047
        },
        {
          "duration": 0.3118489583333357,
          "durationTicks": 479,
          "midi": 57,
          "name": "A3",
          "ticks": 64497,
          "time": 41.990234375,
          "velocity": 0.25196850393700787
        },
        {
          "duration": 0.3118489583333357,
          "durationTicks": 479,
          "midi": 67,
          "name": "G4",
          "ticks": 64497,
          "time": 41.990234375,
          "velocity": 0.3228346456692913
        },
        {
          "duration": 0.3118489583333357,
          "durationTicks": 479,
          "midi": 64,
          "name": "E4",
          "ticks": 64497,
          "time": 41.990234375,
          "velocity": 0.25984251968503935
        },
        {
          "duration": 0.3118489583333357,
          "durationTicks": 479,
          "midi": 59,
          "name": "B3",
          "ticks": 64506,
          "time": 41.99609375,
          "velocity": 0.2047244094488189
        },
        {
          "duration": 0.3111979166666714,
          "durationTicks": 478,
          "midi": 53,
          "name": "F3",
          "ticks": 64513,
          "time": 42.000651041666664,
          "velocity": 0.44881889763779526
        },
        {
          "duration": 0.125,
          "durationTicks": 192,
          "midi": 59,
          "name": "B3",
          "ticks": 65071,
          "time": 42.363932291666664,
          "velocity": 0.14173228346456693
        },
        {
          "duration": 0.125,
          "durationTicks": 192,
          "midi": 67,
          "name": "G4",
          "ticks": 65082,
          "time": 42.37109375,
          "velocity": 0.13385826771653545
        },
        {
          "duration": 0.125,
          "durationTicks": 192,
          "midi": 57,
          "name": "A3",
          "ticks": 65093,
          "time": 42.378255208333336,
          "velocity": 0.18110236220472442
        },
        {
          "duration": 0.125,
          "durationTicks": 192,
          "midi": 64,
          "name": "E4",
          "ticks": 65099,
          "time": 42.382161458333336,
          "velocity": 0.29133858267716534
        },
        {
          "duration": 0.125,
          "durationTicks": 192,
          "midi": 53,
          "name": "F3",
          "ticks": 65101,
          "time": 42.383463541666664,
          "velocity": 0.2440944881889764
        },
        {
          "duration": 0.3756510416666714,
          "durationTicks": 577,
          "midi": 53,
          "name": "F3",
          "ticks": 65263,
          "time": 42.488932291666664,
          "velocity": 0.4566929133858268
        },
        {
          "duration": 0.3756510416666643,
          "durationTicks": 577,
          "midi": 64,
          "name": "E4",
          "ticks": 65265,
          "time": 42.490234375,
          "velocity": 0.2283464566929134
        },
        {
          "duration": 0.3756510416666643,
          "durationTicks": 577,
          "midi": 57,
          "name": "A3",
          "ticks": 65265,
          "time": 42.490234375,
          "velocity": 0.1889763779527559
        },
        {
          "duration": 0.375,
          "durationTicks": 576,
          "midi": 59,
          "name": "B3",
          "ticks": 65272,
          "time": 42.494791666666664,
          "velocity": 0.30708661417322836
        },
        {
          "duration": 0.375,
          "durationTicks": 576,
          "midi": 67,
          "name": "G4",
          "ticks": 65295,
          "time": 42.509765625,
          "velocity": 0.16535433070866143
        },
        {
          "duration": 0.125,
          "durationTicks": 192,
          "midi": 53,
          "name": "F3",
          "ticks": 65845,
          "time": 42.867838541666664,
          "velocity": 0.3700787401574803
        },
        {
          "duration": 0.125,
          "durationTicks": 192,
          "midi": 57,
          "name": "A3",
          "ticks": 65847,
          "time": 42.869140625,
          "velocity": 0.1889763779527559
        },
        {
          "duration": 0.125,
          "durationTicks": 192,
          "midi": 64,
          "name": "E4",
          "ticks": 65856,
          "time": 42.875,
          "velocity": 0.23622047244094488
        },
        {
          "duration": 0.125,
          "durationTicks": 192,
          "midi": 67,
          "name": "G4",
          "ticks": 65861,
          "time": 42.878255208333336,
          "velocity": 0.06299212598425197
        },
        {
          "duration": 0.125,
          "durationTicks": 192,
          "midi": 59,
          "name": "B3",
          "ticks": 65873,
          "time": 42.886067708333336,
          "velocity": 0.1968503937007874
        },
        {
          "duration": 0.2506510416666643,
          "durationTicks": 385,
          "midi": 59,
          "name": "B3",
          "ticks": 66417,
          "time": 43.240234375,
          "velocity": 0.14960629921259844
        },
        {
          "duration": 0.2506510416666643,
          "durationTicks": 385,
          "midi": 67,
          "name": "G4",
          "ticks": 66419,
          "time": 43.241536458333336,
          "velocity": 0.14173228346456693
        },
        {
          "duration": 0.2506510416666643,
          "durationTicks": 385,
          "midi": 53,
          "name": "F3",
          "ticks": 66432,
          "time": 43.25,
          "velocity": 0.31496062992125984
        },
        {
          "duration": 0.25,
          "durationTicks": 384,
          "midi": 57,
          "name": "A3",
          "ticks": 66434,
          "time": 43.251302083333336,
          "velocity": 0.23622047244094488
        },
        {
          "duration": 0.25,
          "durationTicks": 384,
          "midi": 64,
          "name": "E4",
          "ticks": 66438,
          "time": 43.25390625,
          "velocity": 0.2204724409448819
        },
        {
          "duration": 0.125,
          "durationTicks": 192,
          "midi": 64,
          "name": "E4",
          "ticks": 66798,
          "time": 43.48828125,
          "velocity": 0.25196850393700787
        },
        {
          "duration": 0.125,
          "durationTicks": 192,
          "midi": 59,
          "name": "B3",
          "ticks": 66799,
          "time": 43.488932291666664,
          "velocity": 0.12598425196850394
        },
        {
          "duration": 0.1243489583333286,
          "durationTicks": 191,
          "midi": 53,
          "name": "F3",
          "ticks": 66818,
          "time": 43.501302083333336,
          "velocity": 0.12598425196850394
        },
        {
          "duration": 0.1243489583333357,
          "durationTicks": 191,
          "midi": 57,
          "name": "A3",
          "ticks": 66820,
          "time": 43.502604166666664,
          "velocity": 0.14173228346456693
        },
        {
          "duration": 0.013671875,
          "durationTicks": 21,
          "midi": 67,
          "name": "G4",
          "ticks": 66983,
          "time": 43.608723958333336,
          "velocity": 0.07086614173228346
        },
        {
          "duration": 0.2493489583333357,
          "durationTicks": 383,
          "midi": 53,
          "name": "F3",
          "ticks": 66990,
          "time": 43.61328125,
          "velocity": 0.2677165354330709
        },
        {
          "duration": 0.2493489583333357,
          "durationTicks": 383,
          "midi": 64,
          "name": "E4",
          "ticks": 66999,
          "time": 43.619140625,
          "velocity": 0.2283464566929134
        },
        {
          "duration": 0.2493489583333357,
          "durationTicks": 383,
          "midi": 57,
          "name": "A3",
          "ticks": 67014,
          "time": 43.62890625,
          "velocity": 0.2125984251968504
        },
        {
          "duration": 0.2486979166666643,
          "durationTicks": 382,
          "midi": 59,
          "name": "B3",
          "ticks": 67020,
          "time": 43.6328125,
          "velocity": 0.1968503937007874
        },
        {
          "duration": 0.125,
          "durationTicks": 192,
          "midi": 59,
          "name": "B3",
          "ticks": 67380,
          "time": 43.8671875,
          "velocity": 0.23622047244094488
        },
        {
          "duration": 0.125,
          "durationTicks": 192,
          "midi": 64,
          "name": "E4",
          "ticks": 67384,
          "time": 43.869791666666664,
          "velocity": 0.1889763779527559
        },
        {
          "duration": 0.125,
          "durationTicks": 192,
          "midi": 53,
          "name": "F3",
          "ticks": 67392,
          "time": 43.875,
          "velocity": 0.3779527559055118
        },
        {
          "duration": 0.125,
          "durationTicks": 192,
          "midi": 57,
          "name": "A3",
          "ticks": 67399,
          "time": 43.879557291666664,
          "velocity": 0.14960629921259844
        },
        {
          "duration": 0.125,
          "durationTicks": 192,
          "midi": 67,
          "name": "G4",
          "ticks": 67405,
          "time": 43.883463541666664,
          "velocity": 0.031496062992125984
        },
        {
          "duration": 0.3118489583333286,
          "durationTicks": 479,
          "midi": 64,
          "name": "E4",
          "ticks": 67571,
          "time": 43.991536458333336,
          "velocity": 0.2755905511811024
        },
        {
          "duration": 0.3118489583333357,
          "durationTicks": 479,
          "midi": 57,
          "name": "A3",
          "ticks": 67579,
          "time": 43.996744791666664,
          "velocity": 0.14960629921259844
        },
        {
          "duration": 0.3118489583333357,
          "durationTicks": 479,
          "midi": 59,
          "name": "B3",
          "ticks": 67581,
          "time": 43.998046875,
          "velocity": 0.14173228346456693
        },
        {
          "duration": 0.3118489583333357,
          "durationTicks": 479,
          "midi": 55,
          "name": "G3",
          "ticks": 67597,
          "time": 44.008463541666664,
          "velocity": 0.30708661417322836
        },
        {
          "duration": 0.1243489583333357,
          "durationTicks": 191,
          "midi": 59,
          "name": "B3",
          "ticks": 68140,
          "time": 44.361979166666664,
          "velocity": 0.1968503937007874
        },
        {
          "duration": 0.1243489583333357,
          "durationTicks": 191,
          "midi": 57,
          "name": "A3",
          "ticks": 68155,
          "time": 44.371744791666664,
          "velocity": 0.18110236220472442
        },
        {
          "duration": 0.1243489583333357,
          "durationTicks": 191,
          "midi": 55,
          "name": "G3",
          "ticks": 68155,
          "time": 44.371744791666664,
          "velocity": 0.25984251968503935
        },
        {
          "duration": 0.1243489583333286,
          "durationTicks": 191,
          "midi": 64,
          "name": "E4",
          "ticks": 68171,
          "time": 44.382161458333336,
          "velocity": 0.2677165354330709
        },
        {
          "duration": 0.3743489583333357,
          "durationTicks": 575,
          "midi": 64,
          "name": "E4",
          "ticks": 68328,
          "time": 44.484375,
          "velocity": 0.1732283464566929
        },
        {
          "duration": 0.375,
          "durationTicks": 576,
          "midi": 59,
          "name": "B3",
          "ticks": 68339,
          "time": 44.491536458333336,
          "velocity": 0.12598425196850394
        },
        {
          "duration": 0.375,
          "durationTicks": 576,
          "midi": 57,
          "name": "A3",
          "ticks": 68340,
          "time": 44.4921875,
          "velocity": 0.15748031496062992
        },
        {
          "duration": 0.3756510416666643,
          "durationTicks": 577,
          "midi": 55,
          "name": "G3",
          "ticks": 68351,
          "time": 44.499348958333336,
          "velocity": 0.36220472440944884
        },
        {
          "duration": 0.1256510416666714,
          "durationTicks": 193,
          "midi": 59,
          "name": "B3",
          "ticks": 68911,
          "time": 44.863932291666664,
          "velocity": 0.1968503937007874
        },
        {
          "duration": 0.1256510416666643,
          "durationTicks": 193,
          "midi": 57,
          "name": "A3",
          "ticks": 68912,
          "time": 44.864583333333336,
          "velocity": 0.2047244094488189
        },
        {
          "duration": 0.125,
          "durationTicks": 192,
          "midi": 64,
          "name": "E4",
          "ticks": 68927,
          "time": 44.874348958333336,
          "velocity": 0.2677165354330709
        },
        {
          "duration": 0.125,
          "durationTicks": 192,
          "midi": 52,
          "name": "E3",
          "ticks": 68943,
          "time": 44.884765625,
          "velocity": 0.16535433070866143
        },
        {
          "duration": 0.25,
          "durationTicks": 384,
          "midi": 59,
          "name": "B3",
          "ticks": 69503,
          "time": 45.249348958333336,
          "velocity": 0.18110236220472442
        },
        {
          "duration": 0.25,
          "durationTicks": 384,
          "midi": 52,
          "name": "E3",
          "ticks": 69504,
          "time": 45.25,
          "velocity": 0.2047244094488189
        },
        {
          "duration": 0.25,
          "durationTicks": 384,
          "midi": 64,
          "name": "E4",
          "ticks": 69504,
          "time": 45.25,
          "velocity": 0.23622047244094488
        },
        {
          "duration": 0.25,
          "durationTicks": 384,
          "midi": 57,
          "name": "A3",
          "ticks": 69508,
          "time": 45.252604166666664,
          "velocity": 0.2047244094488189
        },
        {
          "duration": 0.125,
          "durationTicks": 192,
          "midi": 57,
          "name": "A3",
          "ticks": 69869,
          "time": 45.487630208333336,
          "velocity": 0.2125984251968504
        },
        {
          "duration": 0.125,
          "durationTicks": 192,
          "midi": 52,
          "name": "E3",
          "ticks": 69873,
          "time": 45.490234375,
          "velocity": 0.07086614173228346
        },
        {
          "duration": 0.125,
          "durationTicks": 192,
          "midi": 64,
          "name": "E4",
          "ticks": 69884,
          "time": 45.497395833333336,
          "velocity": 0.25196850393700787
        },
        {
          "duration": 0.1256510416666643,
          "durationTicks": 193,
          "midi": 59,
          "name": "B3",
          "ticks": 69899,
          "time": 45.507161458333336,
          "velocity": 0.16535433070866143
        },
        {
          "duration": 0.2506510416666643,
          "durationTicks": 385,
          "midi": 59,
          "name": "B3",
          "ticks": 70064,
          "time": 45.614583333333336,
          "velocity": 0.2204724409448819
        },
        {
          "duration": 0.25,
          "durationTicks": 384,
          "midi": 64,
          "name": "E4",
          "ticks": 70066,
          "time": 45.615885416666664,
          "velocity": 0.25984251968503935
        },
        {
          "duration": 0.25,
          "durationTicks": 384,
          "midi": 57,
          "name": "A3",
          "ticks": 70076,
          "time": 45.622395833333336,
          "velocity": 0.1732283464566929
        },
        {
          "duration": 0.25,
          "durationTicks": 384,
          "midi": 52,
          "name": "E3",
          "ticks": 70084,
          "time": 45.627604166666664,
          "velocity": 0.33070866141732286
        },
        {
          "duration": 0.1243489583333357,
          "durationTicks": 191,
          "midi": 57,
          "name": "A3",
          "ticks": 70438,
          "time": 45.858072916666664,
          "velocity": 0.14173228346456693
        },
        {
          "duration": 0.1243489583333357,
          "durationTicks": 191,
          "midi": 52,
          "name": "E3",
          "ticks": 70444,
          "time": 45.861979166666664,
          "velocity": 0.11811023622047244
        },
        {
          "duration": 0.1243489583333357,
          "durationTicks": 191,
          "midi": 59,
          "name": "B3",
          "ticks": 70450,
          "time": 45.865885416666664,
          "velocity": 0.16535433070866143
        },
        {
          "duration": 0.125,
          "durationTicks": 192,
          "midi": 64,
          "name": "E4",
          "ticks": 70458,
          "time": 45.87109375,
          "velocity": 0.23622047244094488
        },
        {
          "duration": 0.3131510416666643,
          "durationTicks": 481,
          "midi": 57,
          "name": "A3",
          "ticks": 70632,
          "time": 45.984375,
          "velocity": 0.1968503937007874
        },
        {
          "duration": 0.3125,
          "durationTicks": 480,
          "midi": 59,
          "name": "B3",
          "ticks": 70651,
          "time": 45.996744791666664,
          "velocity": 0.10236220472440945
        },
        {
          "duration": 0.3125,
          "durationTicks": 480,
          "midi": 60,
          "name": "C4",
          "ticks": 70652,
          "time": 45.997395833333336,
          "velocity": 0.23622047244094488
        },
        {
          "duration": 0.3125,
          "durationTicks": 480,
          "midi": 48,
          "name": "C3",
          "ticks": 70661,
          "time": 46.003255208333336,
          "velocity": 0.4409448818897638
        },
        {
          "duration": 0.125,
          "durationTicks": 192,
          "midi": 48,
          "name": "C3",
          "ticks": 71210,
          "time": 46.360677083333336,
          "velocity": 0.1889763779527559
        },
        {
          "duration": 0.125,
          "durationTicks": 192,
          "midi": 57,
          "name": "A3",
          "ticks": 71212,
          "time": 46.361979166666664,
          "velocity": 0.1732283464566929
        },
        {
          "duration": 0.125,
          "durationTicks": 192,
          "midi": 59,
          "name": "B3",
          "ticks": 71224,
          "time": 46.369791666666664,
          "velocity": 0.08661417322834646
        },
        {
          "duration": 0.1256510416666643,
          "durationTicks": 193,
          "midi": 60,
          "name": "C4",
          "ticks": 71235,
          "time": 46.376953125,
          "velocity": 0.2283464566929134
        },
        {
          "duration": 0.3756510416666643,
          "durationTicks": 577,
          "midi": 60,
          "name": "C4",
          "ticks": 71394,
          "time": 46.48046875,
          "velocity": 0.25984251968503935
        },
        {
          "duration": 0.3756510416666643,
          "durationTicks": 577,
          "midi": 48,
          "name": "C3",
          "ticks": 71403,
          "time": 46.486328125,
          "velocity": 0.3700787401574803
        },
        {
          "duration": 0.375,
          "durationTicks": 576,
          "midi": 59,
          "name": "B3",
          "ticks": 71410,
          "time": 46.490885416666664,
          "velocity": 0.11811023622047244
        },
        {
          "duration": 0.375,
          "durationTicks": 576,
          "midi": 57,
          "name": "A3",
          "ticks": 71419,
          "time": 46.496744791666664,
          "velocity": 0.25196850393700787
        },
        {
          "duration": 0.125,
          "durationTicks": 192,
          "midi": 48,
          "name": "C3",
          "ticks": 71982,
          "time": 46.86328125,
          "velocity": 0.16535433070866143
        },
        {
          "duration": 0.125,
          "durationTicks": 192,
          "midi": 57,
          "name": "A3",
          "ticks": 71984,
          "time": 46.864583333333336,
          "velocity": 0.1968503937007874
        },
        {
          "duration": 0.125,
          "durationTicks": 192,
          "midi": 59,
          "name": "B3",
          "ticks": 71994,
          "time": 46.87109375,
          "velocity": 0.11811023622047244
        },
        {
          "duration": 0.125,
          "durationTicks": 192,
          "midi": 60,
          "name": "C4",
          "ticks": 72013,
          "time": 46.883463541666664,
          "velocity": 0.2755905511811024
        },
        {
          "duration": 0.25,
          "durationTicks": 384,
          "midi": 48,
          "name": "C3",
          "ticks": 72563,
          "time": 47.241536458333336,
          "velocity": 0.1732283464566929
        },
        {
          "duration": 0.25,
          "durationTicks": 384,
          "midi": 60,
          "name": "C4",
          "ticks": 72567,
          "time": 47.244140625,
          "velocity": 0.33858267716535434
        },
        {
          "duration": 0.25,
          "durationTicks": 384,
          "midi": 57,
          "name": "A3",
          "ticks": 72572,
          "time": 47.247395833333336,
          "velocity": 0.16535433070866143
        },
        {
          "duration": 0.2493489583333357,
          "durationTicks": 383,
          "midi": 59,
          "name": "B3",
          "ticks": 72576,
          "time": 47.25,
          "velocity": 0.11811023622047244
        },
        {
          "duration": 0.1243489583333286,
          "durationTicks": 191,
          "midi": 60,
          "name": "C4",
          "ticks": 72935,
          "time": 47.483723958333336,
          "velocity": 0.29133858267716534
        },
        {
          "duration": 0.1243489583333286,
          "durationTicks": 191,
          "midi": 57,
          "name": "A3",
          "ticks": 72956,
          "time": 47.497395833333336,
          "velocity": 0.13385826771653545
        },
        {
          "duration": 0.1243489583333286,
          "durationTicks": 191,
          "midi": 59,
          "name": "B3",
          "ticks": 72956,
          "time": 47.497395833333336,
          "velocity": 0.07086614173228346
        },
        {
          "duration": 0.1243489583333286,
          "durationTicks": 191,
          "midi": 48,
          "name": "C3",
          "ticks": 72959,
          "time": 47.499348958333336,
          "velocity": 0.05511811023622047
        },
        {
          "duration": 0.25,
          "durationTicks": 384,
          "midi": 59,
          "name": "B3",
          "ticks": 73138,
          "time": 47.615885416666664,
          "velocity": 0.09448818897637795
        },
        {
          "duration": 0.25,
          "durationTicks": 384,
          "midi": 48,
          "name": "C3",
          "ticks": 73141,
          "time": 47.617838541666664,
          "velocity": 0.25196850393700787
        },
        {
          "duration": 0.25,
          "durationTicks": 384,
          "midi": 60,
          "name": "C4",
          "ticks": 73143,
          "time": 47.619140625,
          "velocity": 0.29133858267716534
        },
        {
          "duration": 0.25,
          "durationTicks": 384,
          "midi": 57,
          "name": "A3",
          "ticks": 73146,
          "time": 47.62109375,
          "velocity": 0.15748031496062992
        },
        {
          "duration": 0.1256510416666643,
          "durationTicks": 193,
          "midi": 60,
          "name": "C4",
          "ticks": 73520,
          "time": 47.864583333333336,
          "velocity": 0.3228346456692913
        },
        {
          "duration": 0.125,
          "durationTicks": 192,
          "midi": 48,
          "name": "C3",
          "ticks": 73530,
          "time": 47.87109375,
          "velocity": 0.2204724409448819
        },
        {
          "duration": 0.125,
          "durationTicks": 192,
          "midi": 59,
          "name": "B3",
          "ticks": 73537,
          "time": 47.875651041666664,
          "velocity": 0.07874015748031496
        },
        {
          "duration": 0.125,
          "durationTicks": 192,
          "midi": 57,
          "name": "A3",
          "ticks": 73544,
          "time": 47.880208333333336,
          "velocity": 0.14173228346456693
        },
        {
          "duration": 0.3131510416666714,
          "durationTicks": 481,
          "midi": 62,
          "name": "D4",
          "ticks": 73705,
          "time": 47.985026041666664,
          "velocity": 0.2992125984251969
        },
        {
          "duration": 0.3125,
          "durationTicks": 480,
          "midi": 52,
          "name": "E3",
          "ticks": 73737,
          "time": 48.005859375,
          "velocity": 0.28346456692913385
        },
        {
          "duration": 0.3125,
          "durationTicks": 480,
          "midi": 59,
          "name": "B3",
          "ticks": 73739,
          "time": 48.007161458333336,
          "velocity": 0.2204724409448819
        },
        {
          "duration": 0.3125,
          "durationTicks": 480,
          "midi": 60,
          "name": "C4",
          "ticks": 73742,
          "time": 48.009114583333336,
          "velocity": 0.11023622047244094
        },
        {
          "duration": 0.125,
          "durationTicks": 192,
          "midi": 62,
          "name": "D4",
          "ticks": 74280,
          "time": 48.359375,
          "velocity": 0.2283464566929134
        },
        {
          "duration": 0.1243489583333357,
          "durationTicks": 191,
          "midi": 60,
          "name": "C4",
          "ticks": 74299,
          "time": 48.371744791666664,
          "velocity": 0.05511811023622047
        },
        {
          "duration": 0.1243489583333357,
          "durationTicks": 191,
          "midi": 59,
          "name": "B3",
          "ticks": 74299,
          "time": 48.371744791666664,
          "velocity": 0.14173228346456693
        },
        {
          "duration": 0.1243489583333357,
          "durationTicks": 191,
          "midi": 52,
          "name": "E3",
          "ticks": 74299,
          "time": 48.371744791666664,
          "velocity": 0.2125984251968504
        },
        {
          "duration": 0.3743489583333357,
          "durationTicks": 575,
          "midi": 52,
          "name": "E3",
          "ticks": 74484,
          "time": 48.4921875,
          "velocity": 0.4015748031496063
        },
        {
          "duration": 0.375,
          "durationTicks": 576,
          "midi": 59,
          "name": "B3",
          "ticks": 74491,
          "time": 48.496744791666664,
          "velocity": 0.18110236220472442
        },
        {
          "duration": 0.375,
          "durationTicks": 576,
          "midi": 60,
          "name": "C4",
          "ticks": 74495,
          "time": 48.499348958333336,
          "velocity": 0.10236220472440945
        },
        {
          "duration": 0.375,
          "durationTicks": 576,
          "midi": 62,
          "name": "D4",
          "ticks": 74509,
          "time": 48.508463541666664,
          "velocity": 0.3228346456692913
        },
        {
          "duration": 0.125,
          "durationTicks": 192,
          "midi": 60,
          "name": "C4",
          "ticks": 75058,
          "time": 48.865885416666664,
          "velocity": 0.13385826771653545
        },
        {
          "duration": 0.1243489583333286,
          "durationTicks": 191,
          "midi": 62,
          "name": "D4",
          "ticks": 75065,
          "time": 48.870442708333336,
          "velocity": 0.2047244094488189
        },
        {
          "duration": 0.1243489583333357,
          "durationTicks": 191,
          "midi": 59,
          "name": "B3",
          "ticks": 75073,
          "time": 48.875651041666664,
          "velocity": 0.14960629921259844
        },
        {
          "duration": 0.1243489583333357,
          "durationTicks": 191,
          "midi": 52,
          "name": "E3",
          "ticks": 75076,
          "time": 48.877604166666664,
          "velocity": 0.1889763779527559
        },
        {
          "duration": 0.25,
          "durationTicks": 384,
          "midi": 60,
          "name": "C4",
          "ticks": 75638,
          "time": 49.243489583333336,
          "velocity": 0.12598425196850394
        },
        {
          "duration": 0.25,
          "durationTicks": 384,
          "midi": 62,
          "name": "D4",
          "ticks": 75640,
          "time": 49.244791666666664,
          "velocity": 0.36220472440944884
        },
        {
          "duration": 0.25,
          "durationTicks": 384,
          "midi": 59,
          "name": "B3",
          "ticks": 75646,
          "time": 49.248697916666664,
          "velocity": 0.15748031496062992
        },
        {
          "duration": 0.25,
          "durationTicks": 384,
          "midi": 52,
          "name": "E3",
          "ticks": 75649,
          "time": 49.250651041666664,
          "velocity": 0.2992125984251969
        },
        {
          "duration": 0.125,
          "durationTicks": 192,
          "midi": 62,
          "name": "D4",
          "ticks": 76014,
          "time": 49.48828125,
          "velocity": 0.2047244094488189
        },
        {
          "duration": 0.125,
          "durationTicks": 192,
          "midi": 52,
          "name": "E3",
          "ticks": 76017,
          "time": 49.490234375,
          "velocity": 0.08661417322834646
        },
        {
          "duration": 0.125,
          "durationTicks": 192,
          "midi": 59,
          "name": "B3",
          "ticks": 76024,
          "time": 49.494791666666664,
          "velocity": 0.14960629921259844
        },
        {
          "duration": 0.1243489583333357,
          "durationTicks": 191,
          "midi": 60,
          "name": "C4",
          "ticks": 76033,
          "time": 49.500651041666664,
          "velocity": 0.07874015748031496
        },
        {
          "duration": 0.25,
          "durationTicks": 384,
          "midi": 62,
          "name": "D4",
          "ticks": 76199,
          "time": 49.608723958333336,
          "velocity": 0.31496062992125984
        },
        {
          "duration": 0.25,
          "durationTicks": 384,
          "midi": 52,
          "name": "E3",
          "ticks": 76200,
          "time": 49.609375,
          "velocity": 0.25196850393700787
        },
        {
          "duration": 0.2493489583333286,
          "durationTicks": 383,
          "midi": 59,
          "name": "B3",
          "ticks": 76214,
          "time": 49.618489583333336,
          "velocity": 0.29133858267716534
        },
        {
          "duration": 0.25,
          "durationTicks": 384,
          "midi": 60,
          "name": "C4",
          "ticks": 76230,
          "time": 49.62890625,
          "velocity": 0.10236220472440945
        },
        {
          "duration": 0.125,
          "durationTicks": 192,
          "midi": 60,
          "name": "C4",
          "ticks": 76591,
          "time": 49.863932291666664,
          "velocity": 0.08661417322834646
        },
        {
          "duration": 0.125,
          "durationTicks": 192,
          "midi": 59,
          "name": "B3",
          "ticks": 76593,
          "time": 49.865234375,
          "velocity": 0.11811023622047244
        },
        {
          "duration": 0.125,
          "durationTicks": 192,
          "midi": 52,
          "name": "E3",
          "ticks": 76603,
          "time": 49.871744791666664,
          "velocity": 0.09448818897637795
        },
        {
          "duration": 0.1243489583333357,
          "durationTicks": 191,
          "midi": 62,
          "name": "D4",
          "ticks": 76617,
          "time": 49.880859375,
          "velocity": 0.18110236220472442
        },
        {
          "duration": 0.3118489583333286,
          "durationTicks": 479,
          "midi": 57,
          "name": "A3",
          "ticks": 76769,
          "time": 49.979817708333336,
          "velocity": 0.12598425196850394
        },
        {
          "duration": 0.3118489583333286,
          "durationTicks": 479,
          "midi": 48,
          "name": "C3",
          "ticks": 76784,
          "time": 49.989583333333336,
          "velocity": 0.3543307086614173
        },
        {
          "duration": 0.3125,
          "durationTicks": 480,
          "midi": 59,
          "name": "B3",
          "ticks": 76795,
          "time": 49.996744791666664,
          "velocity": 0.10236220472440945
        },
        {
          "duration": 0.3125,
          "durationTicks": 480,
          "midi": 60,
          "name": "C4",
          "ticks": 76795,
          "time": 49.996744791666664,
          "velocity": 0.3464566929133858
        },
        {
          "duration": 0.125,
          "durationTicks": 192,
          "midi": 60,
          "name": "C4",
          "ticks": 77362,
          "time": 50.365885416666664,
          "velocity": 0.30708661417322836
        },
        {
          "duration": 0.125,
          "durationTicks": 192,
          "midi": 57,
          "name": "A3",
          "ticks": 77363,
          "time": 50.366536458333336,
          "velocity": 0.1889763779527559
        },
        {
          "duration": 0.125,
          "durationTicks": 192,
          "midi": 59,
          "name": "B3",
          "ticks": 77370,
          "time": 50.37109375,
          "velocity": 0.06299212598425197
        },
        {
          "duration": 0.1243489583333357,
          "durationTicks": 191,
          "midi": 48,
          "name": "C3",
          "ticks": 77376,
          "time": 50.375,
          "velocity": 0.2440944881889764
        },
        {
          "duration": 0.3743489583333286,
          "durationTicks": 575,
          "midi": 59,
          "name": "B3",
          "ticks": 77555,
          "time": 50.491536458333336,
          "velocity": 0.13385826771653545
        },
        {
          "duration": 0.3743489583333286,
          "durationTicks": 575,
          "midi": 48,
          "name": "C3",
          "ticks": 77555,
          "time": 50.491536458333336,
          "velocity": 0.2755905511811024
        },
        {
          "duration": 0.3743489583333357,
          "durationTicks": 575,
          "midi": 57,
          "name": "A3",
          "ticks": 77557,
          "time": 50.492838541666664,
          "velocity": 0.25196850393700787
        },
        {
          "duration": 0.3743489583333357,
          "durationTicks": 575,
          "midi": 60,
          "name": "C4",
          "ticks": 77562,
          "time": 50.49609375,
          "velocity": 0.31496062992125984
        },
        {
          "duration": 0.1243489583333286,
          "durationTicks": 191,
          "midi": 59,
          "name": "B3",
          "ticks": 78125,
          "time": 50.862630208333336,
          "velocity": 0.11811023622047244
        },
        {
          "duration": 0.1243489583333357,
          "durationTicks": 191,
          "midi": 57,
          "name": "A3",
          "ticks": 78133,
          "time": 50.867838541666664,
          "velocity": 0.1968503937007874
        },
        {
          "duration": 0.1243489583333286,
          "durationTicks": 191,
          "midi": 48,
          "name": "C3",
          "ticks": 78134,
          "time": 50.868489583333336,
          "velocity": 0.13385826771653545
        },
        {
          "duration": 0.1243489583333357,
          "durationTicks": 191,
          "midi": 60,
          "name": "C4",
          "ticks": 78135,
          "time": 50.869140625,
          "velocity": 0.36220472440944884
        },
        {
          "duration": 0.2493489583333357,
          "durationTicks": 383,
          "midi": 59,
          "name": "B3",
          "ticks": 78691,
          "time": 51.231119791666664,
          "velocity": 0.10236220472440945
        },
        {
          "duration": 0.25,
          "durationTicks": 384,
          "midi": 57,
          "name": "A3",
          "ticks": 78701,
          "time": 51.237630208333336,
          "velocity": 0.18110236220472442
        },
        {
          "duration": 0.25,
          "durationTicks": 384,
          "midi": 48,
          "name": "C3",
          "ticks": 78705,
          "time": 51.240234375,
          "velocity": 0.2204724409448819
        },
        {
          "duration": 0.2506510416666643,
          "durationTicks": 385,
          "midi": 60,
          "name": "C4",
          "ticks": 78720,
          "time": 51.25,
          "velocity": 0.36220472440944884
        },
        {
          "duration": 0.125,
          "durationTicks": 192,
          "midi": 48,
          "name": "C3",
          "ticks": 79084,
          "time": 51.486979166666664,
          "velocity": 0.07874015748031496
        },
        {
          "duration": 0.125,
          "durationTicks": 192,
          "midi": 60,
          "name": "C4",
          "ticks": 79087,
          "time": 51.488932291666664,
          "velocity": 0.2440944881889764
        },
        {
          "duration": 0.1243489583333286,
          "durationTicks": 191,
          "midi": 57,
          "name": "A3",
          "ticks": 79097,
          "time": 51.495442708333336,
          "velocity": 0.2047244094488189
        },
        {
          "duration": 0.1243489583333357,
          "durationTicks": 191,
          "midi": 59,
          "name": "B3",
          "ticks": 79104,
          "time": 51.5,
          "velocity": 0.07086614173228346
        },
        {
          "duration": 0.2493489583333357,
          "durationTicks": 383,
          "midi": 48,
          "name": "C3",
          "ticks": 79276,
          "time": 51.611979166666664,
          "velocity": 0.3464566929133858
        },
        {
          "duration": 0.2493489583333357,
          "durationTicks": 383,
          "midi": 57,
          "name": "A3",
          "ticks": 79276,
          "time": 51.611979166666664,
          "velocity": 0.11811023622047244
        },
        {
          "duration": 0.2493489583333357,
          "durationTicks": 383,
          "midi": 59,
          "name": "B3",
          "ticks": 79279,
          "time": 51.613932291666664,
          "velocity": 0.11023622047244094
        },
        {
          "duration": 0.2493489583333357,
          "durationTicks": 383,
          "midi": 60,
          "name": "C4",
          "ticks": 79281,
          "time": 51.615234375,
          "velocity": 0.2283464566929134
        },
        {
          "duration": 0.1243489583333357,
          "durationTicks": 191,
          "midi": 57,
          "name": "A3",
          "ticks": 79668,
          "time": 51.8671875,
          "velocity": 0.15748031496062992
        },
        {
          "duration": 0.1243489583333286,
          "durationTicks": 191,
          "midi": 60,
          "name": "C4",
          "ticks": 79670,
          "time": 51.868489583333336,
          "velocity": 0.28346456692913385
        },
        {
          "duration": 0.1243489583333357,
          "durationTicks": 191,
          "midi": 48,
          "name": "C3",
          "ticks": 79671,
          "time": 51.869140625,
          "velocity": 0.11811023622047244
        },
        {
          "duration": 0.1243489583333357,
          "durationTicks": 191,
          "midi": 59,
          "name": "B3",
          "ticks": 79675,
          "time": 51.871744791666664,
          "velocity": 0.08661417322834646
        },
        {
          "duration": 0.3118489583333357,
          "durationTicks": 479,
          "midi": 60,
          "name": "C4",
          "ticks": 79837,
          "time": 51.977213541666664,
          "velocity": 0.3937007874015748
        },
        {
          "duration": 0.3118489583333286,
          "durationTicks": 479,
          "midi": 47,
          "name": "B2",
          "ticks": 79850,
          "time": 51.985677083333336,
          "velocity": 0.4330708661417323
        },
        {
          "duration": 0.3125,
          "durationTicks": 480,
          "midi": 57,
          "name": "A3",
          "ticks": 79863,
          "time": 51.994140625,
          "velocity": 0.12598425196850394
        },
        {
          "duration": 0.3125,
          "durationTicks": 480,
          "midi": 53,
          "name": "F3",
          "ticks": 79864,
          "time": 51.994791666666664,
          "velocity": 0.2283464566929134
        },
        {
          "duration": 0.3743489583333357,
          "durationTicks": 575,
          "midi": 57,
          "name": "A3",
          "ticks": 80623,
          "time": 52.488932291666664,
          "velocity": 0.11023622047244094
        },
        {
          "duration": 0.3743489583333286,
          "durationTicks": 575,
          "midi": 53,
          "name": "F3",
          "ticks": 80624,
          "time": 52.489583333333336,
          "velocity": 0.25984251968503935
        },
        {
          "duration": 0.3743489583333357,
          "durationTicks": 575,
          "midi": 47,
          "name": "B2",
          "ticks": 80625,
          "time": 52.490234375,
          "velocity": 0.4881889763779528
        },
        {
          "duration": 0.3743489583333357,
          "durationTicks": 575,
          "midi": 60,
          "name": "C4",
          "ticks": 80626,
          "time": 52.490885416666664,
          "velocity": 0.3464566929133858
        },
        {
          "duration": 0.1243489583333357,
          "durationTicks": 191,
          "midi": 53,
          "name": "F3",
          "ticks": 81186,
          "time": 52.85546875,
          "velocity": 0.15748031496062992
        },
        {
          "duration": 0.1243489583333357,
          "durationTicks": 191,
          "midi": 56,
          "name": "G#3",
          "ticks": 81187,
          "time": 52.856119791666664,
          "velocity": 0.2125984251968504
        },
        {
          "duration": 0.1243489583333357,
          "durationTicks": 191,
          "midi": 60,
          "name": "C4",
          "ticks": 81199,
          "time": 52.863932291666664,
          "velocity": 0.3228346456692913
        },
        {
          "duration": 0.1243489583333357,
          "durationTicks": 191,
          "midi": 47,
          "name": "B2",
          "ticks": 81205,
          "time": 52.867838541666664,
          "velocity": 0.23622047244094488
        },
        {
          "duration": 0.2493489583333357,
          "durationTicks": 383,
          "midi": 48,
          "name": "C3",
          "ticks": 81757,
          "time": 53.227213541666664,
          "velocity": 0.14960629921259844
        },
        {
          "duration": 0.2493489583333357,
          "durationTicks": 383,
          "midi": 60,
          "name": "C4",
          "ticks": 81762,
          "time": 53.23046875,
          "velocity": 0.3464566929133858
        },
        {
          "duration": 0.2493489583333357,
          "durationTicks": 383,
          "midi": 53,
          "name": "F3",
          "ticks": 81768,
          "time": 53.234375,
          "velocity": 0.30708661417322836
        },
        {
          "duration": 0.2493489583333357,
          "durationTicks": 383,
          "midi": 56,
          "name": "G#3",
          "ticks": 81774,
          "time": 53.23828125,
          "velocity": 0.3700787401574803
        },
        {
          "duration": 0.125,
          "durationTicks": 192,
          "midi": 56,
          "name": "G#3",
          "ticks": 82140,
          "time": 53.4765625,
          "velocity": 0.2283464566929134
        },
        {
          "duration": 0.125,
          "durationTicks": 192,
          "midi": 53,
          "name": "F3",
          "ticks": 82148,
          "time": 53.481770833333336,
          "velocity": 0.1889763779527559
        },
        {
          "duration": 0.125,
          "durationTicks": 192,
          "midi": 48,
          "name": "C3",
          "ticks": 82151,
          "time": 53.483723958333336,
          "velocity": 0.06299212598425197
        },
        {
          "duration": 0.125,
          "durationTicks": 192,
          "midi": 60,
          "name": "C4",
          "ticks": 82165,
          "time": 53.492838541666664,
          "velocity": 0.29133858267716534
        },
        {
          "duration": 0.25,
          "durationTicks": 384,
          "midi": 53,
          "name": "F3",
          "ticks": 82329,
          "time": 53.599609375,
          "velocity": 0.18110236220472442
        },
        {
          "duration": 0.2506510416666714,
          "durationTicks": 385,
          "midi": 56,
          "name": "G#3",
          "ticks": 82336,
          "time": 53.604166666666664,
          "velocity": 0.25196850393700787
        },
        {
          "duration": 0.2506510416666714,
          "durationTicks": 385,
          "midi": 60,
          "name": "C4",
          "ticks": 82345,
          "time": 53.610026041666664,
          "velocity": 0.31496062992125984
        },
        {
          "duration": 0.2506510416666643,
          "durationTicks": 385,
          "midi": 48,
          "name": "C3",
          "ticks": 82349,
          "time": 53.612630208333336,
          "velocity": 0.28346456692913385
        },
        {
          "duration": 0.1256510416666643,
          "durationTicks": 193,
          "midi": 53,
          "name": "F3",
          "ticks": 82718,
          "time": 53.852864583333336,
          "velocity": 0.2047244094488189
        },
        {
          "duration": 0.1263020833333357,
          "durationTicks": 194,
          "midi": 48,
          "name": "C3",
          "ticks": 82729,
          "time": 53.860026041666664,
          "velocity": 0.2204724409448819
        },
        {
          "duration": 0.1256510416666643,
          "durationTicks": 193,
          "midi": 56,
          "name": "G#3",
          "ticks": 82742,
          "time": 53.868489583333336,
          "velocity": 0.25196850393700787
        },
        {
          "duration": 0.1256510416666643,
          "durationTicks": 193,
          "midi": 60,
          "name": "C4",
          "ticks": 82749,
          "time": 53.873046875,
          "velocity": 0.2125984251968504
        },
        {
          "duration": 0.3125,
          "durationTicks": 480,
          "midi": 60,
          "name": "C4",
          "ticks": 82913,
          "time": 53.979817708333336,
          "velocity": 0.2992125984251969
        },
        {
          "duration": 0.3125,
          "durationTicks": 480,
          "midi": 56,
          "name": "G#3",
          "ticks": 82915,
          "time": 53.981119791666664,
          "velocity": 0.2047244094488189
        },
        {
          "duration": 0.3125,
          "durationTicks": 480,
          "midi": 53,
          "name": "F3",
          "ticks": 82922,
          "time": 53.985677083333336,
          "velocity": 0.30708661417322836
        },
        {
          "duration": 0.3125,
          "durationTicks": 480,
          "midi": 48,
          "name": "C3",
          "ticks": 82948,
          "time": 54.002604166666664,
          "velocity": 0.4566929133858268
        },
        {
          "duration": 0.375,
          "durationTicks": 576,
          "midi": 56,
          "name": "G#3",
          "ticks": 83683,
          "time": 54.481119791666664,
          "velocity": 0.1968503937007874
        },
        {
          "duration": 0.375,
          "durationTicks": 576,
          "midi": 60,
          "name": "C4",
          "ticks": 83692,
          "time": 54.486979166666664,
          "velocity": 0.16535433070866143
        },
        {
          "duration": 0.375,
          "durationTicks": 576,
          "midi": 48,
          "name": "C3",
          "ticks": 83700,
          "time": 54.4921875,
          "velocity": 0.28346456692913385
        },
        {
          "duration": 0.375,
          "durationTicks": 576,
          "midi": 53,
          "name": "F3",
          "ticks": 83707,
          "time": 54.496744791666664,
          "velocity": 0.36220472440944884
        },
        {
          "duration": 0.125,
          "durationTicks": 192,
          "midi": 48,
          "name": "C3",
          "ticks": 84249,
          "time": 54.849609375,
          "velocity": 0.3937007874015748
        },
        {
          "duration": 0.125,
          "durationTicks": 192,
          "midi": 60,
          "name": "C4",
          "ticks": 84254,
          "time": 54.852864583333336,
          "velocity": 0.1889763779527559
        },
        {
          "duration": 0.1243489583333357,
          "durationTicks": 191,
          "midi": 56,
          "name": "G#3",
          "ticks": 84279,
          "time": 54.869140625,
          "velocity": 0.33858267716535434
        },
        {
          "duration": 0.1243489583333357,
          "durationTicks": 191,
          "midi": 52,
          "name": "E3",
          "ticks": 84279,
          "time": 54.869140625,
          "velocity": 0.23622047244094488
        },
        {
          "duration": 0.25,
          "durationTicks": 384,
          "midi": 52,
          "name": "E3",
          "ticks": 84827,
          "time": 55.225911458333336,
          "velocity": 0.2677165354330709
        },
        {
          "duration": 0.25,
          "durationTicks": 384,
          "midi": 53,
          "name": "F3",
          "ticks": 84829,
          "time": 55.227213541666664,
          "velocity": 0.30708661417322836
        },
        {
          "duration": 0.25,
          "durationTicks": 384,
          "midi": 56,
          "name": "G#3",
          "ticks": 84835,
          "time": 55.231119791666664,
          "velocity": 0.14960629921259844
        },
        {
          "duration": 0.25,
          "durationTicks": 384,
          "midi": 48,
          "name": "C3",
          "ticks": 84837,
          "time": 55.232421875,
          "velocity": 0.3464566929133858
        },
        {
          "duration": 0.25,
          "durationTicks": 384,
          "midi": 60,
          "name": "C4",
          "ticks": 84844,
          "time": 55.236979166666664,
          "velocity": 0.30708661417322836
        },
        {
          "duration": 0.1256510416666643,
          "durationTicks": 193,
          "midi": 60,
          "name": "C4",
          "ticks": 85223,
          "time": 55.483723958333336,
          "velocity": 0.28346456692913385
        },
        {
          "duration": 0.1256510416666714,
          "durationTicks": 193,
          "midi": 53,
          "name": "F3",
          "ticks": 85234,
          "time": 55.490885416666664,
          "velocity": 0.3779527559055118
        },
        {
          "duration": 0.1256510416666714,
          "durationTicks": 193,
          "midi": 48,
          "name": "C3",
          "ticks": 85240,
          "time": 55.494791666666664,
          "velocity": 0.2047244094488189
        },
        {
          "duration": 0.1256510416666643,
          "durationTicks": 193,
          "midi": 52,
          "name": "E3",
          "ticks": 85242,
          "time": 55.49609375,
          "velocity": 0.5275590551181102
        },
        {
          "duration": 0.1256510416666643,
          "durationTicks": 193,
          "midi": 56,
          "name": "G#3",
          "ticks": 85248,
          "time": 55.5,
          "velocity": 0.1732283464566929
        },
        {
          "duration": 0.2506510416666714,
          "durationTicks": 385,
          "midi": 52,
          "name": "E3",
          "ticks": 85414,
          "time": 55.608072916666664,
          "velocity": 0.3937007874015748
        },
        {
          "duration": 0.25,
          "durationTicks": 384,
          "midi": 56,
          "name": "G#3",
          "ticks": 85417,
          "time": 55.610026041666664,
          "velocity": 0.1968503937007874
        },
        {
          "duration": 0.25,
          "durationTicks": 384,
          "midi": 48,
          "name": "C3",
          "ticks": 85428,
          "time": 55.6171875,
          "velocity": 0.41732283464566927
        },
        {
          "duration": 0.25,
          "durationTicks": 384,
          "midi": 53,
          "name": "F3",
          "ticks": 85430,
          "time": 55.618489583333336,
          "velocity": 0.2125984251968504
        },
        {
          "duration": 0.2493489583333357,
          "durationTicks": 383,
          "midi": 60,
          "name": "C4",
          "ticks": 85435,
          "time": 55.621744791666664,
          "velocity": 0.31496062992125984
        },
        {
          "duration": 0.1243489583333357,
          "durationTicks": 191,
          "midi": 60,
          "name": "C4",
          "ticks": 85797,
          "time": 55.857421875,
          "velocity": 0.2283464566929134
        },
        {
          "duration": 0.1243489583333286,
          "durationTicks": 191,
          "midi": 48,
          "name": "C3",
          "ticks": 85802,
          "time": 55.860677083333336,
          "velocity": 0.2677165354330709
        },
        {
          "duration": 0.1243489583333357,
          "durationTicks": 191,
          "midi": 52,
          "name": "E3",
          "ticks": 85806,
          "time": 55.86328125,
          "velocity": 0.4015748031496063
        },
        {
          "duration": 0.1243489583333357,
          "durationTicks": 191,
          "midi": 53,
          "name": "F3",
          "ticks": 85807,
          "time": 55.863932291666664,
          "velocity": 0.3464566929133858
        },
        {
          "duration": 0.1243489583333357,
          "durationTicks": 191,
          "midi": 56,
          "name": "G#3",
          "ticks": 85818,
          "time": 55.87109375,
          "velocity": 0.1889763779527559
        },
        {
          "duration": 0.3125,
          "durationTicks": 480,
          "midi": 56,
          "name": "G#3",
          "ticks": 85986,
          "time": 55.98046875,
          "velocity": 0.2047244094488189
        },
        {
          "duration": 0.3125,
          "durationTicks": 480,
          "midi": 66,
          "name": "F#4",
          "ticks": 85988,
          "time": 55.981770833333336,
          "velocity": 0.2755905511811024
        },
        {
          "duration": 0.3125,
          "durationTicks": 480,
          "midi": 49,
          "name": "C#3",
          "ticks": 85993,
          "time": 55.985026041666664,
          "velocity": 0.3937007874015748
        },
        {
          "duration": 0.3125,
          "durationTicks": 480,
          "midi": 61,
          "name": "C#4",
          "ticks": 86013,
          "time": 55.998046875,
          "velocity": 0.31496062992125984
        },
        {
          "duration": 0.3743489583333286,
          "durationTicks": 575,
          "midi": 61,
          "name": "C#4",
          "ticks": 86771,
          "time": 56.491536458333336,
          "velocity": 0.2125984251968504
        },
        {
          "duration": 0.3743489583333286,
          "durationTicks": 575,
          "midi": 66,
          "name": "F#4",
          "ticks": 86771,
          "time": 56.491536458333336,
          "velocity": 0.2204724409448819
        },
        {
          "duration": 0.3743489583333357,
          "durationTicks": 575,
          "midi": 49,
          "name": "C#3",
          "ticks": 86778,
          "time": 56.49609375,
          "velocity": 0.7244094488188977
        },
        {
          "duration": 0.3743489583333357,
          "durationTicks": 575,
          "midi": 56,
          "name": "G#3",
          "ticks": 86781,
          "time": 56.498046875,
          "velocity": 0.2047244094488189
        },
        {
          "duration": 0.1243489583333286,
          "durationTicks": 191,
          "midi": 49,
          "name": "C#3",
          "ticks": 87323,
          "time": 56.850911458333336,
          "velocity": 0.36220472440944884
        },
        {
          "duration": 0.1243489583333286,
          "durationTicks": 191,
          "midi": 52,
          "name": "E3",
          "ticks": 87332,
          "time": 56.856770833333336,
          "velocity": 0.3464566929133858
        },
        {
          "duration": 0.1243489583333357,
          "durationTicks": 191,
          "midi": 66,
          "name": "F#4",
          "ticks": 87333,
          "time": 56.857421875,
          "velocity": 0.28346456692913385
        },
        {
          "duration": 0.125,
          "durationTicks": 192,
          "midi": 56,
          "name": "G#3",
          "ticks": 87351,
          "time": 56.869140625,
          "velocity": 0.4409448818897638
        },
        {
          "duration": 0.2506510416666643,
          "durationTicks": 385,
          "midi": 49,
          "name": "C#3",
          "ticks": 87903,
          "time": 57.228515625,
          "velocity": 0.3937007874015748
        },
        {
          "duration": 0.2506510416666643,
          "durationTicks": 385,
          "midi": 52,
          "name": "E3",
          "ticks": 87905,
          "time": 57.229817708333336,
          "velocity": 0.33858267716535434
        },
        {
          "duration": 0.2506510416666714,
          "durationTicks": 385,
          "midi": 56,
          "name": "G#3",
          "ticks": 87916,
          "time": 57.236979166666664,
          "velocity": 0.1889763779527559
        },
        {
          "duration": 0.2506510416666643,
          "durationTicks": 385,
          "midi": 66,
          "name": "F#4",
          "ticks": 87918,
          "time": 57.23828125,
          "velocity": 0.23622047244094488
        },
        {
          "duration": 0.2506510416666643,
          "durationTicks": 385,
          "midi": 61,
          "name": "C#4",
          "ticks": 87920,
          "time": 57.239583333333336,
          "velocity": 0.3228346456692913
        },
        {
          "duration": 0.1256510416666714,
          "durationTicks": 193,
          "midi": 66,
          "name": "F#4",
          "ticks": 88291,
          "time": 57.481119791666664,
          "velocity": 0.2992125984251969
        },
        {
          "duration": 0.1256510416666643,
          "durationTicks": 193,
          "midi": 49,
          "name": "C#3",
          "ticks": 88296,
          "time": 57.484375,
          "velocity": 0.1968503937007874
        },
        {
          "duration": 0.1256510416666714,
          "durationTicks": 193,
          "midi": 61,
          "name": "C#4",
          "ticks": 88300,
          "time": 57.486979166666664,
          "velocity": 0.41732283464566927
        },
        {
          "duration": 0.125,
          "durationTicks": 192,
          "midi": 56,
          "name": "G#3",
          "ticks": 88310,
          "time": 57.493489583333336,
          "velocity": 0.15748031496062992
        },
        {
          "duration": 0.125,
          "durationTicks": 192,
          "midi": 52,
          "name": "E3",
          "ticks": 88323,
          "time": 57.501953125,
          "velocity": 0.4881889763779528
        },
        {
          "duration": 0.2506510416666714,
          "durationTicks": 385,
          "midi": 52,
          "name": "E3",
          "ticks": 88480,
          "time": 57.604166666666664,
          "velocity": 0.5826771653543307
        },
        {
          "duration": 0.2506510416666643,
          "durationTicks": 385,
          "midi": 61,
          "name": "C#4",
          "ticks": 88482,
          "time": 57.60546875,
          "velocity": 0.33070866141732286
        },
        {
          "duration": 0.2513020833333286,
          "durationTicks": 386,
          "midi": 49,
          "name": "C#3",
          "ticks": 88484,
          "time": 57.606770833333336,
          "velocity": 0.4330708661417323
        },
        {
          "duration": 0.2506510416666643,
          "durationTicks": 385,
          "midi": 56,
          "name": "G#3",
          "ticks": 88493,
          "time": 57.612630208333336,
          "velocity": 0.28346456692913385
        },
        {
          "duration": 0.2506510416666643,
          "durationTicks": 385,
          "midi": 66,
          "name": "F#4",
          "ticks": 88506,
          "time": 57.62109375,
          "velocity": 0.1732283464566929
        },
        {
          "duration": 0.1256510416666714,
          "durationTicks": 193,
          "midi": 61,
          "name": "C#4",
          "ticks": 88861,
          "time": 57.852213541666664,
          "velocity": 0.25984251968503935
        },
        {
          "duration": 0.1256510416666643,
          "durationTicks": 193,
          "midi": 49,
          "name": "C#3",
          "ticks": 88868,
          "time": 57.856770833333336,
          "velocity": 0.33858267716535434
        },
        {
          "duration": 0.1256510416666643,
          "durationTicks": 193,
          "midi": 56,
          "name": "G#3",
          "ticks": 88869,
          "time": 57.857421875,
          "velocity": 0.2047244094488189
        },
        {
          "duration": 0.1263020833333357,
          "durationTicks": 194,
          "midi": 66,
          "name": "F#4",
          "ticks": 88887,
          "time": 57.869140625,
          "velocity": 0.25196850393700787
        },
        {
          "duration": 0.1256510416666643,
          "durationTicks": 193,
          "midi": 52,
          "name": "E3",
          "ticks": 88893,
          "time": 57.873046875,
          "velocity": 0.23622047244094488
        },
        {
          "duration": 0.3131510416666643,
          "durationTicks": 481,
          "midi": 56,
          "name": "G#3",
          "ticks": 89057,
          "time": 57.979817708333336,
          "velocity": 0.23622047244094488
        },
        {
          "duration": 0.3125,
          "durationTicks": 480,
          "midi": 49,
          "name": "C#3",
          "ticks": 89069,
          "time": 57.987630208333336,
          "velocity": 0.4645669291338583
        },
        {
          "duration": 0.3125,
          "durationTicks": 480,
          "midi": 66,
          "name": "F#4",
          "ticks": 89069,
          "time": 57.987630208333336,
          "velocity": 0.1968503937007874
        },
        {
          "duration": 0.3125,
          "durationTicks": 480,
          "midi": 61,
          "name": "C#4",
          "ticks": 89075,
          "time": 57.991536458333336,
          "velocity": 0.23622047244094488
        },
        {
          "duration": 0.3756510416666714,
          "durationTicks": 577,
          "midi": 61,
          "name": "C#4",
          "ticks": 89833,
          "time": 58.485026041666664,
          "velocity": 0.33858267716535434
        },
        {
          "duration": 0.3756510416666643,
          "durationTicks": 577,
          "midi": 56,
          "name": "G#3",
          "ticks": 89838,
          "time": 58.48828125,
          "velocity": 0.2440944881889764
        },
        {
          "duration": 0.3756510416666714,
          "durationTicks": 577,
          "midi": 49,
          "name": "C#3",
          "ticks": 89845,
          "time": 58.492838541666664,
          "velocity": 0.36220472440944884
        },
        {
          "duration": 0.3756510416666714,
          "durationTicks": 577,
          "midi": 66,
          "name": "F#4",
          "ticks": 89854,
          "time": 58.498697916666664,
          "velocity": 0.25984251968503935
        },
        {
          "duration": 0.1256510416666714,
          "durationTicks": 193,
          "midi": 66,
          "name": "F#4",
          "ticks": 90403,
          "time": 58.856119791666664,
          "velocity": 0.23622047244094488
        },
        {
          "duration": 0.1256510416666714,
          "durationTicks": 193,
          "midi": 49,
          "name": "C#3",
          "ticks": 90412,
          "time": 58.861979166666664,
          "velocity": 0.44881889763779526
        },
        {
          "duration": 0.1256510416666643,
          "durationTicks": 193,
          "midi": 52,
          "name": "E3",
          "ticks": 90416,
          "time": 58.864583333333336,
          "velocity": 0.3700787401574803
        },
        {
          "duration": 0.1256510416666643,
          "durationTicks": 193,
          "midi": 56,
          "name": "G#3",
          "ticks": 90419,
          "time": 58.866536458333336,
          "velocity": 0.31496062992125984
        },
        {
          "duration": 0.25,
          "durationTicks": 384,
          "midi": 66,
          "name": "F#4",
          "ticks": 90978,
          "time": 59.23046875,
          "velocity": 0.3779527559055118
        },
        {
          "duration": 0.25,
          "durationTicks": 384,
          "midi": 52,
          "name": "E3",
          "ticks": 90978,
          "time": 59.23046875,
          "velocity": 0.4566929133858268
        },
        {
          "duration": 0.25,
          "durationTicks": 384,
          "midi": 61,
          "name": "C#4",
          "ticks": 90990,
          "time": 59.23828125,
          "velocity": 0.30708661417322836
        },
        {
          "duration": 0.25,
          "durationTicks": 384,
          "midi": 49,
          "name": "C#3",
          "ticks": 90991,
          "time": 59.238932291666664,
          "velocity": 0.49606299212598426
        },
        {
          "duration": 0.25,
          "durationTicks": 384,
          "midi": 56,
          "name": "G#3",
          "ticks": 90999,
          "time": 59.244140625,
          "velocity": 0.13385826771653545
        },
        {
          "duration": 0.1256510416666643,
          "durationTicks": 193,
          "midi": 61,
          "name": "C#4",
          "ticks": 91371,
          "time": 59.486328125,
          "velocity": 0.4015748031496063
        },
        {
          "duration": 0.1256510416666714,
          "durationTicks": 193,
          "midi": 49,
          "name": "C#3",
          "ticks": 91378,
          "time": 59.490885416666664,
          "velocity": 0.1968503937007874
        },
        {
          "duration": 0.1256510416666714,
          "durationTicks": 193,
          "midi": 66,
          "name": "F#4",
          "ticks": 91381,
          "time": 59.492838541666664,
          "velocity": 0.2047244094488189
        },
        {
          "duration": 0.1256510416666643,
          "durationTicks": 193,
          "midi": 56,
          "name": "G#3",
          "ticks": 91382,
          "time": 59.493489583333336,
          "velocity": 0.14960629921259844
        },
        {
          "duration": 0.1256510416666714,
          "durationTicks": 193,
          "midi": 52,
          "name": "E3",
          "ticks": 91384,
          "time": 59.494791666666664,
          "velocity": 0.33858267716535434
        },
        {
          "duration": 0.25,
          "durationTicks": 384,
          "midi": 52,
          "name": "E3",
          "ticks": 91561,
          "time": 59.610026041666664,
          "velocity": 0.5118110236220472
        },
        {
          "duration": 0.25,
          "durationTicks": 384,
          "midi": 66,
          "name": "F#4",
          "ticks": 91566,
          "time": 59.61328125,
          "velocity": 0.30708661417322836
        },
        {
          "duration": 0.25,
          "durationTicks": 384,
          "midi": 49,
          "name": "C#3",
          "ticks": 91571,
          "time": 59.616536458333336,
          "velocity": 0.5275590551181102
        },
        {
          "duration": 0.25,
          "durationTicks": 384,
          "midi": 61,
          "name": "C#4",
          "ticks": 91573,
          "time": 59.617838541666664,
          "velocity": 0.2125984251968504
        },
        {
          "duration": 0.25,
          "durationTicks": 384,
          "midi": 56,
          "name": "G#3",
          "ticks": 91586,
          "time": 59.626302083333336,
          "velocity": 0.1968503937007874
        },
        {
          "duration": 0.1256510416666643,
          "durationTicks": 193,
          "midi": 49,
          "name": "C#3",
          "ticks": 91943,
          "time": 59.858723958333336,
          "velocity": 0.31496062992125984
        },
        {
          "duration": 0.1256510416666643,
          "durationTicks": 193,
          "midi": 61,
          "name": "C#4",
          "ticks": 91946,
          "time": 59.860677083333336,
          "velocity": 0.2755905511811024
        },
        {
          "duration": 0.1256510416666714,
          "durationTicks": 193,
          "midi": 56,
          "name": "G#3",
          "ticks": 91951,
          "time": 59.863932291666664,
          "velocity": 0.15748031496062992
        },
        {
          "duration": 0.1256510416666643,
          "durationTicks": 193,
          "midi": 66,
          "name": "F#4",
          "ticks": 91952,
          "time": 59.864583333333336,
          "velocity": 0.23622047244094488
        },
        {
          "duration": 0.1256510416666643,
          "durationTicks": 193,
          "midi": 52,
          "name": "E3",
          "ticks": 91955,
          "time": 59.866536458333336,
          "velocity": 0.3779527559055118
        },
        {
          "duration": 0.3125,
          "durationTicks": 480,
          "midi": 61,
          "name": "C#4",
          "ticks": 92132,
          "time": 59.981770833333336,
          "velocity": 0.2204724409448819
        },
        {
          "duration": 0.3125,
          "durationTicks": 480,
          "midi": 69,
          "name": "A4",
          "ticks": 92135,
          "time": 59.983723958333336,
          "velocity": 0.16535433070866143
        },
        {
          "duration": 0.3125,
          "durationTicks": 480,
          "midi": 68,
          "name": "G#4",
          "ticks": 92147,
          "time": 59.991536458333336,
          "velocity": 0.1968503937007874
        },
        {
          "duration": 0.3125,
          "durationTicks": 480,
          "midi": 49,
          "name": "C#3",
          "ticks": 92149,
          "time": 59.992838541666664,
          "velocity": 0.4409448818897638
        },
        {
          "duration": 0.3125,
          "durationTicks": 480,
          "midi": 56,
          "name": "G#3",
          "ticks": 92156,
          "time": 59.997395833333336,
          "velocity": 0.2440944881889764
        },
        {
          "duration": 0.3743489583333357,
          "durationTicks": 575,
          "midi": 69,
          "name": "A4",
          "ticks": 92913,
          "time": 60.490234375,
          "velocity": 0.12598425196850394
        },
        {
          "duration": 0.3743489583333286,
          "durationTicks": 575,
          "midi": 56,
          "name": "G#3",
          "ticks": 92924,
          "time": 60.497395833333336,
          "velocity": 0.2677165354330709
        },
        {
          "duration": 0.3743489583333286,
          "durationTicks": 575,
          "midi": 61,
          "name": "C#4",
          "ticks": 92924,
          "time": 60.497395833333336,
          "velocity": 0.31496062992125984
        },
        {
          "duration": 0.3743489583333357,
          "durationTicks": 575,
          "midi": 68,
          "name": "G#4",
          "ticks": 92928,
          "time": 60.5,
          "velocity": 0.2755905511811024
        },
        {
          "duration": 0.3743489583333286,
          "durationTicks": 575,
          "midi": 49,
          "name": "C#3",
          "ticks": 92933,
          "time": 60.503255208333336,
          "velocity": 0.33070866141732286
        },
        {
          "duration": 0.1243489583333357,
          "durationTicks": 191,
          "midi": 69,
          "name": "A4",
          "ticks": 93472,
          "time": 60.854166666666664,
          "velocity": 0.13385826771653545
        },
        {
          "duration": 0.1243489583333357,
          "durationTicks": 191,
          "midi": 49,
          "name": "C#3",
          "ticks": 93486,
          "time": 60.86328125,
          "velocity": 0.2755905511811024
        },
        {
          "duration": 0.1243489583333357,
          "durationTicks": 191,
          "midi": 51,
          "name": "D#3",
          "ticks": 93487,
          "time": 60.863932291666664,
          "velocity": 0.2677165354330709
        },
        {
          "duration": 0.1243489583333357,
          "durationTicks": 191,
          "midi": 56,
          "name": "G#3",
          "ticks": 93487,
          "time": 60.863932291666664,
          "velocity": 0.5354330708661418
        },
        {
          "duration": 0.1236979166666714,
          "durationTicks": 190,
          "midi": 68,
          "name": "G#4",
          "ticks": 93490,
          "time": 60.865885416666664,
          "velocity": 0.13385826771653545
        },
        {
          "duration": 0.25,
          "durationTicks": 384,
          "midi": 69,
          "name": "A4",
          "ticks": 94050,
          "time": 61.23046875,
          "velocity": 0.18110236220472442
        },
        {
          "duration": 0.25,
          "durationTicks": 384,
          "midi": 56,
          "name": "G#3",
          "ticks": 94055,
          "time": 61.233723958333336,
          "velocity": 0.16535433070866143
        },
        {
          "duration": 0.25,
          "durationTicks": 384,
          "midi": 61,
          "name": "C#4",
          "ticks": 94055,
          "time": 61.233723958333336,
          "velocity": 0.25196850393700787
        },
        {
          "duration": 0.2493489583333357,
          "durationTicks": 383,
          "midi": 49,
          "name": "C#3",
          "ticks": 94062,
          "time": 61.23828125,
          "velocity": 0.5905511811023622
        },
        {
          "duration": 0.2493489583333357,
          "durationTicks": 383,
          "midi": 68,
          "name": "G#4",
          "ticks": 94063,
          "time": 61.238932291666664,
          "velocity": 0.16535433070866143
        },
        {
          "duration": 0.2493489583333286,
          "durationTicks": 383,
          "midi": 51,
          "name": "D#3",
          "ticks": 94073,
          "time": 61.245442708333336,
          "velocity": 0.48031496062992124
        },
        {
          "duration": 0.125,
          "durationTicks": 192,
          "midi": 68,
          "name": "G#4",
          "ticks": 94439,
          "time": 61.483723958333336,
          "velocity": 0.2204724409448819
        },
        {
          "duration": 0.1256510416666643,
          "durationTicks": 193,
          "midi": 51,
          "name": "D#3",
          "ticks": 94446,
          "time": 61.48828125,
          "velocity": 0.41732283464566927
        },
        {
          "duration": 0.1256510416666643,
          "durationTicks": 193,
          "midi": 69,
          "name": "A4",
          "ticks": 94446,
          "time": 61.48828125,
          "velocity": 0.13385826771653545
        },
        {
          "duration": 0.1256510416666714,
          "durationTicks": 193,
          "midi": 61,
          "name": "C#4",
          "ticks": 94450,
          "time": 61.490885416666664,
          "velocity": 0.30708661417322836
        },
        {
          "duration": 0.1256510416666714,
          "durationTicks": 193,
          "midi": 56,
          "name": "G#3",
          "ticks": 94450,
          "time": 61.490885416666664,
          "velocity": 0.14960629921259844
        },
        {
          "duration": 0.1256510416666643,
          "durationTicks": 193,
          "midi": 49,
          "name": "C#3",
          "ticks": 94455,
          "time": 61.494140625,
          "velocity": 0.2440944881889764
        },
        {
          "duration": 0.25,
          "durationTicks": 384,
          "midi": 68,
          "name": "G#4",
          "ticks": 94623,
          "time": 61.603515625,
          "velocity": 0.2283464566929134
        },
        {
          "duration": 0.25,
          "durationTicks": 384,
          "midi": 56,
          "name": "G#3",
          "ticks": 94627,
          "time": 61.606119791666664,
          "velocity": 0.1968503937007874
        },
        {
          "duration": 0.25,
          "durationTicks": 384,
          "midi": 49,
          "name": "C#3",
          "ticks": 94630,
          "time": 61.608072916666664,
          "velocity": 0.3937007874015748
        },
        {
          "duration": 0.25,
          "durationTicks": 384,
          "midi": 61,
          "name": "C#4",
          "ticks": 94632,
          "time": 61.609375,
          "velocity": 0.3779527559055118
        },
        {
          "duration": 0.25,
          "durationTicks": 384,
          "midi": 69,
          "name": "A4",
          "ticks": 94637,
          "time": 61.612630208333336,
          "velocity": 0.1732283464566929
        },
        {
          "duration": 0.25,
          "durationTicks": 384,
          "midi": 51,
          "name": "D#3",
          "ticks": 94638,
          "time": 61.61328125,
          "velocity": 0.5275590551181102
        },
        {
          "duration": 0.1243489583333357,
          "durationTicks": 191,
          "midi": 56,
          "name": "G#3",
          "ticks": 95017,
          "time": 61.860026041666664,
          "velocity": 0.13385826771653545
        },
        {
          "duration": 0.1243489583333357,
          "durationTicks": 191,
          "midi": 49,
          "name": "C#3",
          "ticks": 95022,
          "time": 61.86328125,
          "velocity": 0.30708661417322836
        },
        {
          "duration": 0.1236979166666643,
          "durationTicks": 190,
          "midi": 68,
          "name": "G#4",
          "ticks": 95024,
          "time": 61.864583333333336,
          "velocity": 0.2440944881889764
        },
        {
          "duration": 0.1236979166666643,
          "durationTicks": 190,
          "midi": 69,
          "name": "A4",
          "ticks": 95025,
          "time": 61.865234375,
          "velocity": 0.11811023622047244
        },
        {
          "duration": 0.1243489583333357,
          "durationTicks": 191,
          "midi": 61,
          "name": "C#4",
          "ticks": 95034,
          "time": 61.87109375,
          "velocity": 0.2047244094488189
        },
        {
          "duration": 0.1243489583333357,
          "durationTicks": 191,
          "midi": 51,
          "name": "D#3",
          "ticks": 95044,
          "time": 61.877604166666664,
          "velocity": 0.31496062992125984
        },
        {
          "duration": 0.3118489583333357,
          "durationTicks": 479,
          "midi": 62,
          "name": "D4",
          "ticks": 95205,
          "time": 61.982421875,
          "velocity": 0.1968503937007874
        },
        {
          "duration": 0.3118489583333357,
          "durationTicks": 479,
          "midi": 69,
          "name": "A4",
          "ticks": 95209,
          "time": 61.985026041666664,
          "velocity": 0.1889763779527559
        },
        {
          "duration": 0.3118489583333357,
          "durationTicks": 479,
          "midi": 67,
          "name": "G4",
          "ticks": 95211,
          "time": 61.986328125,
          "velocity": 0.12598425196850394
        },
        {
          "duration": 0.3118489583333286,
          "durationTicks": 479,
          "midi": 57,
          "name": "A3",
          "ticks": 95213,
          "time": 61.987630208333336,
          "velocity": 0.28346456692913385
        },
        {
          "duration": 0.3125,
          "durationTicks": 480,
          "midi": 50,
          "name": "D3",
          "ticks": 95220,
          "time": 61.9921875,
          "velocity": 0.5039370078740157
        },
        {
          "duration": 0.375,
          "durationTicks": 576,
          "midi": 57,
          "name": "A3",
          "ticks": 95973,
          "time": 62.482421875,
          "velocity": 0.2283464566929134
        },
        {
          "duration": 0.375,
          "durationTicks": 576,
          "midi": 62,
          "name": "D4",
          "ticks": 95976,
          "time": 62.484375,
          "velocity": 0.31496062992125984
        },
        {
          "duration": 0.375,
          "durationTicks": 576,
          "midi": 69,
          "name": "A4",
          "ticks": 95979,
          "time": 62.486328125,
          "velocity": 0.15748031496062992
        },
        {
          "duration": 0.375,
          "durationTicks": 576,
          "midi": 50,
          "name": "D3",
          "ticks": 95983,
          "time": 62.488932291666664,
          "velocity": 0.3779527559055118
        },
        {
          "duration": 0.3756510416666643,
          "durationTicks": 577,
          "midi": 67,
          "name": "G4",
          "ticks": 95996,
          "time": 62.497395833333336,
          "velocity": 0.18110236220472442
        },
        {
          "duration": 0.1256510416666643,
          "durationTicks": 193,
          "midi": 50,
          "name": "D3",
          "ticks": 96557,
          "time": 62.862630208333336,
          "velocity": 0.30708661417322836
        },
        {
          "duration": 0.1256510416666714,
          "durationTicks": 193,
          "midi": 69,
          "name": "A4",
          "ticks": 96565,
          "time": 62.867838541666664,
          "velocity": 0.14173228346456693
        },
        {
          "duration": 0.1256510416666643,
          "durationTicks": 193,
          "midi": 57,
          "name": "A3",
          "ticks": 96566,
          "time": 62.868489583333336,
          "velocity": 0.33858267716535434
        },
        {
          "duration": 0.1256510416666643,
          "durationTicks": 193,
          "midi": 67,
          "name": "G4",
          "ticks": 96567,
          "time": 62.869140625,
          "velocity": 0.14960629921259844
        },
        {
          "duration": 0.1256510416666643,
          "durationTicks": 193,
          "midi": 62,
          "name": "D4",
          "ticks": 96572,
          "time": 62.872395833333336,
          "velocity": 0.28346456692913385
        },
        {
          "duration": 0.2506510416666643,
          "durationTicks": 385,
          "midi": 69,
          "name": "A4",
          "ticks": 97124,
          "time": 63.231770833333336,
          "velocity": 0.13385826771653545
        },
        {
          "duration": 0.2506510416666643,
          "durationTicks": 385,
          "midi": 62,
          "name": "D4",
          "ticks": 97128,
          "time": 63.234375,
          "velocity": 0.2440944881889764
        },
        {
          "duration": 0.2506510416666643,
          "durationTicks": 385,
          "midi": 57,
          "name": "A3",
          "ticks": 97130,
          "time": 63.235677083333336,
          "velocity": 0.18110236220472442
        },
        {
          "duration": 0.2506510416666643,
          "durationTicks": 385,
          "midi": 67,
          "name": "G4",
          "ticks": 97136,
          "time": 63.239583333333336,
          "velocity": 0.2283464566929134
        },
        {
          "duration": 0.25,
          "durationTicks": 384,
          "midi": 54,
          "name": "F#3",
          "ticks": 97140,
          "time": 63.2421875,
          "velocity": 0.47244094488188976
        },
        {
          "duration": 0.25,
          "durationTicks": 384,
          "midi": 50,
          "name": "D3",
          "ticks": 97150,
          "time": 63.248697916666664,
          "velocity": 0.41732283464566927
        },
        {
          "duration": 0.125,
          "durationTicks": 192,
          "midi": 67,
          "name": "G4",
          "ticks": 97508,
          "time": 63.481770833333336,
          "velocity": 0.33070866141732286
        },
        {
          "duration": 0.125,
          "durationTicks": 192,
          "midi": 50,
          "name": "D3",
          "ticks": 97517,
          "time": 63.487630208333336,
          "velocity": 0.1968503937007874
        },
        {
          "duration": 0.125,
          "durationTicks": 192,
          "midi": 57,
          "name": "A3",
          "ticks": 97524,
          "time": 63.4921875,
          "velocity": 0.13385826771653545
        },
        {
          "duration": 0.125,
          "durationTicks": 192,
          "midi": 54,
          "name": "F#3",
          "ticks": 97525,
          "time": 63.492838541666664,
          "velocity": 0.3779527559055118
        },
        {
          "duration": 0.1256510416666643,
          "durationTicks": 193,
          "midi": 62,
          "name": "D4",
          "ticks": 97527,
          "time": 63.494140625,
          "velocity": 0.2992125984251969
        },
        {
          "duration": 0.1256510416666643,
          "durationTicks": 193,
          "midi": 69,
          "name": "A4",
          "ticks": 97532,
          "time": 63.497395833333336,
          "velocity": 0.07874015748031496
        },
        {
          "duration": 0.2506510416666643,
          "durationTicks": 385,
          "midi": 67,
          "name": "G4",
          "ticks": 97701,
          "time": 63.607421875,
          "velocity": 0.2755905511811024
        },
        {
          "duration": 0.2506510416666643,
          "durationTicks": 385,
          "midi": 62,
          "name": "D4",
          "ticks": 97709,
          "time": 63.612630208333336,
          "velocity": 0.3228346456692913
        },
        {
          "duration": 0.2506510416666643,
          "durationTicks": 385,
          "midi": 54,
          "name": "F#3",
          "ticks": 97713,
          "time": 63.615234375,
          "velocity": 0.33858267716535434
        },
        {
          "duration": 0.2513020833333286,
          "durationTicks": 386,
          "midi": 50,
          "name": "D3",
          "ticks": 97718,
          "time": 63.618489583333336,
          "velocity": 0.4566929133858268
        },
        {
          "duration": 0.2513020833333357,
          "durationTicks": 386,
          "midi": 57,
          "name": "A3",
          "ticks": 97719,
          "time": 63.619140625,
          "velocity": 0.1732283464566929
        },
        {
          "duration": 0.2506510416666643,
          "durationTicks": 385,
          "midi": 69,
          "name": "A4",
          "ticks": 97724,
          "time": 63.622395833333336,
          "velocity": 0.12598425196850394
        },
        {
          "duration": 0.1256510416666643,
          "durationTicks": 193,
          "midi": 67,
          "name": "G4",
          "ticks": 98085,
          "time": 63.857421875,
          "velocity": 0.1968503937007874
        },
        {
          "duration": 0.1256510416666643,
          "durationTicks": 193,
          "midi": 69,
          "name": "A4",
          "ticks": 98097,
          "time": 63.865234375,
          "velocity": 0.11811023622047244
        },
        {
          "duration": 0.125,
          "durationTicks": 192,
          "midi": 54,
          "name": "F#3",
          "ticks": 98098,
          "time": 63.865885416666664,
          "velocity": 0.3464566929133858
        },
        {
          "duration": 0.125,
          "durationTicks": 192,
          "midi": 50,
          "name": "D3",
          "ticks": 98099,
          "time": 63.866536458333336,
          "velocity": 0.31496062992125984
        },
        {
          "duration": 0.125,
          "durationTicks": 192,
          "midi": 62,
          "name": "D4",
          "ticks": 98105,
          "time": 63.870442708333336,
          "velocity": 0.28346456692913385
        },
        {
          "duration": 0.125,
          "durationTicks": 192,
          "midi": 57,
          "name": "A3",
          "ticks": 98107,
          "time": 63.871744791666664,
          "velocity": 0.11811023622047244
        },
        {
          "duration": 0.3125000000000071,
          "durationTicks": 480,
          "midi": 49,
          "name": "C#3",
          "ticks": 98281,
          "time": 63.985026041666664,
          "velocity": 0.5118110236220472
        },
        {
          "duration": 0.3125000000000071,
          "durationTicks": 480,
          "midi": 61,
          "name": "C#4",
          "ticks": 98287,
          "time": 63.988932291666664,
          "velocity": 0.28346456692913385
        },
        {
          "duration": 0.3131510416666643,
          "durationTicks": 481,
          "midi": 64,
          "name": "E4",
          "ticks": 98290,
          "time": 63.990885416666664,
          "velocity": 0.4566929133858268
        },
        {
          "duration": 0.3131510416666714,
          "durationTicks": 481,
          "midi": 57,
          "name": "A3",
          "ticks": 98292,
          "time": 63.9921875,
          "velocity": 0.2440944881889764
        },
        {
          "duration": 0.3131510416666643,
          "durationTicks": 481,
          "midi": 68,
          "name": "G#4",
          "ticks": 98303,
          "time": 63.999348958333336,
          "velocity": 0.05511811023622047
        },
        {
          "duration": 0.375,
          "durationTicks": 576,
          "midi": 68,
          "name": "G#4",
          "ticks": 99045,
          "time": 64.482421875,
          "velocity": 0.05511811023622047
        },
        {
          "duration": 0.375,
          "durationTicks": 576,
          "midi": 64,
          "name": "E4",
          "ticks": 99057,
          "time": 64.490234375,
          "velocity": 0.2755905511811024
        },
        {
          "duration": 0.375,
          "durationTicks": 576,
          "midi": 49,
          "name": "C#3",
          "ticks": 99070,
          "time": 64.49869791666667,
          "velocity": 0.7480314960629921
        },
        {
          "duration": 0.375,
          "durationTicks": 576,
          "midi": 57,
          "name": "A3",
          "ticks": 99070,
          "time": 64.49869791666667,
          "velocity": 0.23622047244094488
        },
        {
          "duration": 0.375,
          "durationTicks": 576,
          "midi": 61,
          "name": "C#4",
          "ticks": 99071,
          "time": 64.49934895833333,
          "velocity": 0.31496062992125984
        },
        {
          "duration": 0.125,
          "durationTicks": 192,
          "midi": 68,
          "name": "G#4",
          "ticks": 99637,
          "time": 64.86783854166667,
          "velocity": 0.11023622047244094
        },
        {
          "duration": 0.125,
          "durationTicks": 192,
          "midi": 57,
          "name": "A3",
          "ticks": 99639,
          "time": 64.869140625,
          "velocity": 0.33070866141732286
        },
        {
          "duration": 0.125,
          "durationTicks": 192,
          "midi": 64,
          "name": "E4",
          "ticks": 99640,
          "time": 64.86979166666667,
          "velocity": 0.2047244094488189
        },
        {
          "duration": 0.125,
          "durationTicks": 192,
          "midi": 49,
          "name": "C#3",
          "ticks": 99642,
          "time": 64.87109375,
          "velocity": 0.2204724409448819
        },
        {
          "duration": 0.125,
          "durationTicks": 192,
          "midi": 52,
          "name": "E3",
          "ticks": 99651,
          "time": 64.876953125,
          "velocity": 0.31496062992125984
        },
        {
          "duration": 0.25,
          "durationTicks": 384,
          "midi": 64,
          "name": "E4",
          "ticks": 100204,
          "time": 65.23697916666667,
          "velocity": 0.3937007874015748
        },
        {
          "duration": 0.25,
          "durationTicks": 384,
          "midi": 61,
          "name": "C#4",
          "ticks": 100208,
          "time": 65.23958333333333,
          "velocity": 0.3700787401574803
        },
        {
          "duration": 0.25,
          "durationTicks": 384,
          "midi": 68,
          "name": "G#4",
          "ticks": 100213,
          "time": 65.24283854166667,
          "velocity": 0.11023622047244094
        },
        {
          "duration": 0.25,
          "durationTicks": 384,
          "midi": 52,
          "name": "E3",
          "ticks": 100213,
          "time": 65.24283854166667,
          "velocity": 0.3228346456692913
        },
        {
          "duration": 0.25,
          "durationTicks": 384,
          "midi": 49,
          "name": "C#3",
          "ticks": 100218,
          "time": 65.24609375,
          "velocity": 0.44881889763779526
        },
        {
          "duration": 0.2493489583333286,
          "durationTicks": 383,
          "midi": 57,
          "name": "A3",
          "ticks": 100236,
          "time": 65.2578125,
          "velocity": 0.16535433070866143
        },
        {
          "duration": 0.1243489583333286,
          "durationTicks": 191,
          "midi": 68,
          "name": "G#4",
          "ticks": 100584,
          "time": 65.484375,
          "velocity": 0.09448818897637795
        },
        {
          "duration": 0.12434895833334281,
          "durationTicks": 191,
          "midi": 61,
          "name": "C#4",
          "ticks": 100589,
          "time": 65.48763020833333,
          "velocity": 0.29133858267716534
        },
        {
          "duration": 0.1243489583333286,
          "durationTicks": 191,
          "midi": 49,
          "name": "C#3",
          "ticks": 100591,
          "time": 65.48893229166667,
          "velocity": 0.28346456692913385
        },
        {
          "duration": 0.1243489583333286,
          "durationTicks": 191,
          "midi": 52,
          "name": "E3",
          "ticks": 100593,
          "time": 65.490234375,
          "velocity": 0.4015748031496063
        },
        {
          "duration": 0.1243489583333286,
          "durationTicks": 191,
          "midi": 57,
          "name": "A3",
          "ticks": 100600,
          "time": 65.49479166666667,
          "velocity": 0.18110236220472442
        },
        {
          "duration": 0.1243489583333286,
          "durationTicks": 191,
          "midi": 64,
          "name": "E4",
          "ticks": 100603,
          "time": 65.49674479166667,
          "velocity": 0.31496062992125984
        },
        {
          "duration": 0.25,
          "durationTicks": 384,
          "midi": 49,
          "name": "C#3",
          "ticks": 100778,
          "time": 65.61067708333333,
          "velocity": 0.33070866141732286
        },
        {
          "duration": 0.25,
          "durationTicks": 384,
          "midi": 57,
          "name": "A3",
          "ticks": 100779,
          "time": 65.611328125,
          "velocity": 0.1732283464566929
        },
        {
          "duration": 0.25,
          "durationTicks": 384,
          "midi": 68,
          "name": "G#4",
          "ticks": 100783,
          "time": 65.61393229166667,
          "velocity": 0.14173228346456693
        },
        {
          "duration": 0.25,
          "durationTicks": 384,
          "midi": 64,
          "name": "E4",
          "ticks": 100783,
          "time": 65.61393229166667,
          "velocity": 0.49606299212598426
        },
        {
          "duration": 0.25,
          "durationTicks": 384,
          "midi": 61,
          "name": "C#4",
          "ticks": 100786,
          "time": 65.61588541666667,
          "velocity": 0.31496062992125984
        },
        {
          "duration": 0.25,
          "durationTicks": 384,
          "midi": 52,
          "name": "E3",
          "ticks": 100801,
          "time": 65.62565104166667,
          "velocity": 0.3858267716535433
        },
        {
          "duration": 0.125,
          "durationTicks": 192,
          "midi": 49,
          "name": "C#3",
          "ticks": 101167,
          "time": 65.86393229166667,
          "velocity": 0.3779527559055118
        },
        {
          "duration": 0.125,
          "durationTicks": 192,
          "midi": 68,
          "name": "G#4",
          "ticks": 101168,
          "time": 65.86458333333333,
          "velocity": 0.07086614173228346
        },
        {
          "duration": 0.125,
          "durationTicks": 192,
          "midi": 61,
          "name": "C#4",
          "ticks": 101170,
          "time": 65.86588541666667,
          "velocity": 0.25196850393700787
        },
        {
          "duration": 0.125,
          "durationTicks": 192,
          "midi": 64,
          "name": "E4",
          "ticks": 101179,
          "time": 65.87174479166667,
          "velocity": 0.31496062992125984
        },
        {
          "duration": 0.125,
          "durationTicks": 192,
          "midi": 52,
          "name": "E3",
          "ticks": 101180,
          "time": 65.87239583333333,
          "velocity": 0.23622047244094488
        },
        {
          "duration": 0.125,
          "durationTicks": 192,
          "midi": 57,
          "name": "A3",
          "ticks": 101196,
          "time": 65.8828125,
          "velocity": 0.12598425196850394
        },
        {
          "duration": 0.375,
          "durationTicks": 576,
          "midi": 66,
          "name": "F#4",
          "ticks": 101354,
          "time": 65.98567708333333,
          "velocity": 0.4566929133858268
        },
        {
          "duration": 0.375,
          "durationTicks": 576,
          "midi": 62,
          "name": "D4",
          "ticks": 101358,
          "time": 65.98828125,
          "velocity": 0.3779527559055118
        },
        {
          "duration": 0.375,
          "durationTicks": 576,
          "midi": 71,
          "name": "B4",
          "ticks": 101358,
          "time": 65.98828125,
          "velocity": 0.1889763779527559
        },
        {
          "duration": 0.375,
          "durationTicks": 576,
          "midi": 61,
          "name": "C#4",
          "ticks": 101365,
          "time": 65.99283854166667,
          "velocity": 0.1889763779527559
        },
        {
          "duration": 0.375,
          "durationTicks": 576,
          "midi": 59,
          "name": "B3",
          "ticks": 101368,
          "time": 65.99479166666667,
          "velocity": 0.3700787401574803
        },
        {
          "duration": 0.375,
          "durationTicks": 576,
          "midi": 71,
          "name": "B4",
          "ticks": 102117,
          "time": 66.482421875,
          "velocity": 0.2677165354330709
        },
        {
          "duration": 0.375,
          "durationTicks": 576,
          "midi": 59,
          "name": "B3",
          "ticks": 102125,
          "time": 66.48763020833333,
          "velocity": 0.2992125984251969
        },
        {
          "duration": 0.3756510416666572,
          "durationTicks": 577,
          "midi": 61,
          "name": "C#4",
          "ticks": 102130,
          "time": 66.49088541666667,
          "velocity": 0.33858267716535434
        },
        {
          "duration": 0.3756510416666714,
          "durationTicks": 577,
          "midi": 66,
          "name": "F#4",
          "ticks": 102138,
          "time": 66.49609375,
          "velocity": 0.41732283464566927
        },
        {
          "duration": 0.3756510416666714,
          "durationTicks": 577,
          "midi": 62,
          "name": "D4",
          "ticks": 102140,
          "time": 66.49739583333333,
          "velocity": 0.5748031496062992
        },
        {
          "duration": 0.1256510416666714,
          "durationTicks": 193,
          "midi": 59,
          "name": "B3",
          "ticks": 102692,
          "time": 66.85677083333333,
          "velocity": 0.5433070866141733
        },
        {
          "duration": 0.1256510416666714,
          "durationTicks": 193,
          "midi": 64,
          "name": "E4",
          "ticks": 102696,
          "time": 66.859375,
          "velocity": 0.3700787401574803
        },
        {
          "duration": 0.1256510416666572,
          "durationTicks": 193,
          "midi": 62,
          "name": "D4",
          "ticks": 102703,
          "time": 66.86393229166667,
          "velocity": 0.4330708661417323
        },
        {
          "duration": 0.1256510416666714,
          "durationTicks": 193,
          "midi": 66,
          "name": "F#4",
          "ticks": 102710,
          "time": 66.86848958333333,
          "velocity": 0.48031496062992124
        },
        {
          "duration": 0.1256510416666714,
          "durationTicks": 193,
          "midi": 71,
          "name": "B4",
          "ticks": 102723,
          "time": 66.876953125,
          "velocity": 0.2204724409448819
        },
        {
          "duration": 0.25,
          "durationTicks": 384,
          "midi": 62,
          "name": "D4",
          "ticks": 103276,
          "time": 67.23697916666667,
          "velocity": 0.4094488188976378
        },
        {
          "duration": 0.25,
          "durationTicks": 384,
          "midi": 64,
          "name": "E4",
          "ticks": 103284,
          "time": 67.2421875,
          "velocity": 0.1732283464566929
        },
        {
          "duration": 0.2493489583333428,
          "durationTicks": 383,
          "midi": 66,
          "name": "F#4",
          "ticks": 103292,
          "time": 67.24739583333333,
          "velocity": 0.2992125984251969
        },
        {
          "duration": 0.2493489583333286,
          "durationTicks": 383,
          "midi": 59,
          "name": "B3",
          "ticks": 103293,
          "time": 67.248046875,
          "velocity": 0.3779527559055118
        },
        {
          "duration": 0.2493489583333286,
          "durationTicks": 383,
          "midi": 71,
          "name": "B4",
          "ticks": 103306,
          "time": 67.25651041666667,
          "velocity": 0.28346456692913385
        },
        {
          "duration": 0.12434895833334281,
          "durationTicks": 191,
          "midi": 59,
          "name": "B3",
          "ticks": 103652,
          "time": 67.48177083333333,
          "velocity": 0.2125984251968504
        },
        {
          "duration": 0.1243489583333286,
          "durationTicks": 191,
          "midi": 62,
          "name": "D4",
          "ticks": 103653,
          "time": 67.482421875,
          "velocity": 0.1732283464566929
        },
        {
          "duration": 0.1243489583333286,
          "durationTicks": 191,
          "midi": 66,
          "name": "F#4",
          "ticks": 103654,
          "time": 67.48307291666667,
          "velocity": 0.2283464566929134
        },
        {
          "duration": 0.1256510416666572,
          "durationTicks": 193,
          "midi": 71,
          "name": "B4",
          "ticks": 103675,
          "time": 67.49674479166667,
          "velocity": 0.023622047244094488
        },
        {
          "duration": 0.25,
          "durationTicks": 384,
          "midi": 62,
          "name": "D4",
          "ticks": 103850,
          "time": 67.61067708333333,
          "velocity": 0.29133858267716534
        },
        {
          "duration": 0.2506510416666714,
          "durationTicks": 385,
          "midi": 59,
          "name": "B3",
          "ticks": 103862,
          "time": 67.61848958333333,
          "velocity": 0.4566929133858268
        },
        {
          "duration": 0.2506510416666572,
          "durationTicks": 385,
          "midi": 71,
          "name": "B4",
          "ticks": 103867,
          "time": 67.62174479166667,
          "velocity": 0.2677165354330709
        },
        {
          "duration": 0.2506510416666572,
          "durationTicks": 385,
          "midi": 64,
          "name": "E4",
          "ticks": 103870,
          "time": 67.62369791666667,
          "velocity": 0.2283464566929134
        },
        {
          "duration": 0.2506510416666714,
          "durationTicks": 385,
          "midi": 66,
          "name": "F#4",
          "ticks": 103875,
          "time": 67.626953125,
          "velocity": 0.3700787401574803
        },
        {
          "duration": 0.125,
          "durationTicks": 192,
          "midi": 64,
          "name": "E4",
          "ticks": 104236,
          "time": 67.86197916666667,
          "velocity": 0.11023622047244094
        },
        {
          "duration": 0.125,
          "durationTicks": 192,
          "midi": 62,
          "name": "D4",
          "ticks": 104239,
          "time": 67.86393229166667,
          "velocity": 0.2440944881889764
        },
        {
          "duration": 0.1243489583333286,
          "durationTicks": 191,
          "midi": 66,
          "name": "F#4",
          "ticks": 104245,
          "time": 67.86783854166667,
          "velocity": 0.30708661417322836
        },
        {
          "duration": 0.1243489583333286,
          "durationTicks": 191,
          "midi": 71,
          "name": "B4",
          "ticks": 104254,
          "time": 67.87369791666667,
          "velocity": 0.12598425196850394
        },
        {
          "duration": 0.12434895833334281,
          "durationTicks": 191,
          "midi": 59,
          "name": "B3",
          "ticks": 104258,
          "time": 67.87630208333333,
          "velocity": 0.28346456692913385
        },
        {
          "duration": 0.375,
          "durationTicks": 576,
          "midi": 66,
          "name": "F#4",
          "ticks": 104410,
          "time": 67.97526041666667,
          "velocity": 0.4330708661417323
        },
        {
          "duration": 0.375,
          "durationTicks": 576,
          "midi": 71,
          "name": "B4",
          "ticks": 104436,
          "time": 67.9921875,
          "velocity": 0.2047244094488189
        },
        {
          "duration": 0.375,
          "durationTicks": 576,
          "midi": 59,
          "name": "B3",
          "ticks": 104436,
          "time": 67.9921875,
          "velocity": 0.31496062992125984
        },
        {
          "duration": 0.375,
          "durationTicks": 576,
          "midi": 62,
          "name": "D4",
          "ticks": 104449,
          "time": 68.00065104166667,
          "velocity": 0.1889763779527559
        },
        {
          "duration": 0.375,
          "durationTicks": 576,
          "midi": 61,
          "name": "C#4",
          "ticks": 104451,
          "time": 68.001953125,
          "velocity": 0.2755905511811024
        },
        {
          "duration": 0.3756510416666572,
          "durationTicks": 577,
          "midi": 71,
          "name": "B4",
          "ticks": 105193,
          "time": 68.48502604166667,
          "velocity": 0.23622047244094488
        },
        {
          "duration": 0.3756510416666572,
          "durationTicks": 577,
          "midi": 62,
          "name": "D4",
          "ticks": 105196,
          "time": 68.48697916666667,
          "velocity": 0.2125984251968504
        },
        {
          "duration": 0.3756510416666572,
          "durationTicks": 577,
          "midi": 66,
          "name": "F#4",
          "ticks": 105199,
          "time": 68.48893229166667,
          "velocity": 0.4645669291338583
        },
        {
          "duration": 0.3756510416666714,
          "durationTicks": 577,
          "midi": 59,
          "name": "B3",
          "ticks": 105200,
          "time": 68.48958333333333,
          "velocity": 0.4251968503937008
        },
        {
          "duration": 0.3756510416666572,
          "durationTicks": 577,
          "midi": 61,
          "name": "C#4",
          "ticks": 105211,
          "time": 68.49674479166667,
          "velocity": 0.4330708661417323
        },
        {
          "duration": 0.1256510416666714,
          "durationTicks": 193,
          "midi": 66,
          "name": "F#4",
          "ticks": 105774,
          "time": 68.86328125,
          "velocity": 0.33070866141732286
        },
        {
          "duration": 0.125,
          "durationTicks": 192,
          "midi": 71,
          "name": "B4",
          "ticks": 105777,
          "time": 68.865234375,
          "velocity": 0.30708661417322836
        },
        {
          "duration": 0.125,
          "durationTicks": 192,
          "midi": 62,
          "name": "D4",
          "ticks": 105780,
          "time": 68.8671875,
          "velocity": 0.3937007874015748
        },
        {
          "duration": 0.125,
          "durationTicks": 192,
          "midi": 59,
          "name": "B3",
          "ticks": 105800,
          "time": 68.88020833333333,
          "velocity": 0.33858267716535434
        },
        {
          "duration": 0.2506510416666714,
          "durationTicks": 385,
          "midi": 71,
          "name": "B4",
          "ticks": 106350,
          "time": 69.23828125,
          "velocity": 0.1732283464566929
        },
        {
          "duration": 0.2506510416666714,
          "durationTicks": 385,
          "midi": 66,
          "name": "F#4",
          "ticks": 106358,
          "time": 69.24348958333333,
          "velocity": 0.29133858267716534
        },
        {
          "duration": 0.25,
          "durationTicks": 384,
          "midi": 59,
          "name": "B3",
          "ticks": 106368,
          "time": 69.25,
          "velocity": 0.4645669291338583
        },
        {
          "duration": 0.25,
          "durationTicks": 384,
          "midi": 62,
          "name": "D4",
          "ticks": 106377,
          "time": 69.255859375,
          "velocity": 0.3858267716535433
        },
        {
          "duration": 0.125,
          "durationTicks": 192,
          "midi": 66,
          "name": "F#4",
          "ticks": 106731,
          "time": 69.486328125,
          "velocity": 0.13385826771653545
        },
        {
          "duration": 0.125,
          "durationTicks": 192,
          "midi": 62,
          "name": "D4",
          "ticks": 106734,
          "time": 69.48828125,
          "velocity": 0.11811023622047244
        },
        {
          "duration": 0.125,
          "durationTicks": 192,
          "midi": 71,
          "name": "B4",
          "ticks": 106743,
          "time": 69.494140625,
          "velocity": 0.031496062992125984
        },
        {
          "duration": 0.125,
          "durationTicks": 192,
          "midi": 59,
          "name": "B3",
          "ticks": 106760,
          "time": 69.50520833333333,
          "velocity": 0.11811023622047244
        },
        {
          "duration": 0.25,
          "durationTicks": 384,
          "midi": 71,
          "name": "B4",
          "ticks": 106920,
          "time": 69.609375,
          "velocity": 0.1889763779527559
        },
        {
          "duration": 0.2506510416666572,
          "durationTicks": 385,
          "midi": 66,
          "name": "F#4",
          "ticks": 106930,
          "time": 69.61588541666667,
          "velocity": 0.4645669291338583
        },
        {
          "duration": 0.2506510416666714,
          "durationTicks": 385,
          "midi": 62,
          "name": "D4",
          "ticks": 106931,
          "time": 69.61653645833333,
          "velocity": 0.5433070866141733
        },
        {
          "duration": 0.2506510416666714,
          "durationTicks": 385,
          "midi": 59,
          "name": "B3",
          "ticks": 106943,
          "time": 69.62434895833333,
          "velocity": 0.30708661417322836
        },
        {
          "duration": 0.1263020833333286,
          "durationTicks": 194,
          "midi": 62,
          "name": "D4",
          "ticks": 107301,
          "time": 69.857421875,
          "velocity": 0.33070866141732286
        },
        {
          "duration": 0.1263020833333286,
          "durationTicks": 194,
          "midi": 71,
          "name": "B4",
          "ticks": 107308,
          "time": 69.86197916666667,
          "velocity": 0.11811023622047244
        },
        {
          "duration": 0.1263020833333428,
          "durationTicks": 194,
          "midi": 59,
          "name": "B3",
          "ticks": 107312,
          "time": 69.86458333333333,
          "velocity": 0.31496062992125984
        },
        {
          "duration": 0.1263020833333428,
          "durationTicks": 194,
          "midi": 66,
          "name": "F#4",
          "ticks": 107315,
          "time": 69.86653645833333,
          "velocity": 0.31496062992125984
        },
        {
          "duration": 0.3763020833333286,
          "durationTicks": 578,
          "midi": 66,
          "name": "F#4",
          "ticks": 107490,
          "time": 69.98046875,
          "velocity": 0.3464566929133858
        },
        {
          "duration": 0.3756510416666572,
          "durationTicks": 577,
          "midi": 61,
          "name": "C#4",
          "ticks": 107512,
          "time": 69.99479166666667,
          "velocity": 0.03937007874015748
        },
        {
          "duration": 0.3756510416666714,
          "durationTicks": 577,
          "midi": 71,
          "name": "B4",
          "ticks": 107516,
          "time": 69.99739583333333,
          "velocity": 0.1889763779527559
        },
        {
          "duration": 0.3756510416666572,
          "durationTicks": 577,
          "midi": 62,
          "name": "D4",
          "ticks": 107518,
          "time": 69.99869791666667,
          "velocity": 0.4094488188976378
        },
        {
          "duration": 0.3756510416666572,
          "durationTicks": 577,
          "midi": 59,
          "name": "B3",
          "ticks": 107527,
          "time": 70.00455729166667,
          "velocity": 0.48031496062992124
        },
        {
          "duration": 0.375,
          "durationTicks": 576,
          "midi": 61,
          "name": "C#4",
          "ticks": 108269,
          "time": 70.48763020833333,
          "velocity": 0.10236220472440945
        },
        {
          "duration": 0.375,
          "durationTicks": 576,
          "midi": 59,
          "name": "B3",
          "ticks": 108282,
          "time": 70.49609375,
          "velocity": 0.4881889763779528
        },
        {
          "duration": 0.375,
          "durationTicks": 576,
          "midi": 71,
          "name": "B4",
          "ticks": 108283,
          "time": 70.49674479166667,
          "velocity": 0.23622047244094488
        },
        {
          "duration": 0.375,
          "durationTicks": 576,
          "midi": 62,
          "name": "D4",
          "ticks": 108288,
          "time": 70.5,
          "velocity": 0.3779527559055118
        },
        {
          "duration": 0.3756510416666572,
          "durationTicks": 577,
          "midi": 66,
          "name": "F#4",
          "ticks": 108295,
          "time": 70.50455729166667,
          "velocity": 0.2755905511811024
        },
        {
          "duration": 0.1256510416666572,
          "durationTicks": 193,
          "midi": 71,
          "name": "B4",
          "ticks": 108850,
          "time": 70.86588541666667,
          "velocity": 0.25984251968503935
        },
        {
          "duration": 0.1256510416666714,
          "durationTicks": 193,
          "midi": 59,
          "name": "B3",
          "ticks": 108855,
          "time": 70.869140625,
          "velocity": 0.31496062992125984
        },
        {
          "duration": 0.1256510416666572,
          "durationTicks": 193,
          "midi": 64,
          "name": "E4",
          "ticks": 108859,
          "time": 70.87174479166667,
          "velocity": 0.41732283464566927
        },
        {
          "duration": 0.125,
          "durationTicks": 192,
          "midi": 62,
          "name": "D4",
          "ticks": 108867,
          "time": 70.876953125,
          "velocity": 0.1889763779527559
        },
        {
          "duration": 0.2493489583333428,
          "durationTicks": 383,
          "midi": 64,
          "name": "E4",
          "ticks": 109433,
          "time": 71.24544270833333,
          "velocity": 0.3779527559055118
        },
        {
          "duration": 0.2493489583333428,
          "durationTicks": 383,
          "midi": 62,
          "name": "D4",
          "ticks": 109436,
          "time": 71.24739583333333,
          "velocity": 0.25984251968503935
        },
        {
          "duration": 0.2493489583333286,
          "durationTicks": 383,
          "midi": 71,
          "name": "B4",
          "ticks": 109438,
          "time": 71.24869791666667,
          "velocity": 0.2047244094488189
        },
        {
          "duration": 0.2493489583333286,
          "durationTicks": 383,
          "midi": 59,
          "name": "B3",
          "ticks": 109444,
          "time": 71.25260416666667,
          "velocity": 0.3779527559055118
        },
        {
          "duration": 0.1243489583333286,
          "durationTicks": 191,
          "midi": 64,
          "name": "E4",
          "ticks": 109815,
          "time": 71.494140625,
          "velocity": 0.2204724409448819
        },
        {
          "duration": 0.1243489583333286,
          "durationTicks": 191,
          "midi": 71,
          "name": "B4",
          "ticks": 109818,
          "time": 71.49609375,
          "velocity": 0.023622047244094488
        },
        {
          "duration": 0.1243489583333286,
          "durationTicks": 191,
          "midi": 59,
          "name": "B3",
          "ticks": 109819,
          "time": 71.49674479166667,
          "velocity": 0.28346456692913385
        },
        {
          "duration": 0.12434895833334281,
          "durationTicks": 191,
          "midi": 62,
          "name": "D4",
          "ticks": 109820,
          "time": 71.49739583333333,
          "velocity": 0.07874015748031496
        },
        {
          "duration": 0.2493489583333428,
          "durationTicks": 383,
          "midi": 59,
          "name": "B3",
          "ticks": 110009,
          "time": 71.62044270833333,
          "velocity": 0.29133858267716534
        },
        {
          "duration": 0.2493489583333286,
          "durationTicks": 383,
          "midi": 71,
          "name": "B4",
          "ticks": 110010,
          "time": 71.62109375,
          "velocity": 0.30708661417322836
        },
        {
          "duration": 0.2493489583333428,
          "durationTicks": 383,
          "midi": 64,
          "name": "E4",
          "ticks": 110015,
          "time": 71.62434895833333,
          "velocity": 0.3937007874015748
        },
        {
          "duration": 0.2493489583333428,
          "durationTicks": 383,
          "midi": 62,
          "name": "D4",
          "ticks": 110015,
          "time": 71.62434895833333,
          "velocity": 0.3858267716535433
        },
        {
          "duration": 0.12434895833334281,
          "durationTicks": 191,
          "midi": 59,
          "name": "B3",
          "ticks": 110378,
          "time": 71.86067708333333,
          "velocity": 0.30708661417322836
        },
        {
          "duration": 0.125,
          "durationTicks": 192,
          "midi": 62,
          "name": "D4",
          "ticks": 110388,
          "time": 71.8671875,
          "velocity": 0.09448818897637795
        },
        {
          "duration": 0.125,
          "durationTicks": 192,
          "midi": 64,
          "name": "E4",
          "ticks": 110395,
          "time": 71.87174479166667,
          "velocity": 0.3228346456692913
        },
        {
          "duration": 0.125,
          "durationTicks": 192,
          "midi": 71,
          "name": "B4",
          "ticks": 110395,
          "time": 71.87174479166667,
          "velocity": 0.11811023622047244
        },
        {
          "duration": 0.3125,
          "durationTicks": 480,
          "midi": 66,
          "name": "F#4",
          "ticks": 110571,
          "time": 71.986328125,
          "velocity": 0.23622047244094488
        },
        {
          "duration": 0.3125,
          "durationTicks": 480,
          "midi": 62,
          "name": "D4",
          "ticks": 110575,
          "time": 71.98893229166667,
          "velocity": 0.44881889763779526
        },
        {
          "duration": 0.3125,
          "durationTicks": 480,
          "midi": 61,
          "name": "C#4",
          "ticks": 110581,
          "time": 71.99283854166667,
          "velocity": 0.18110236220472442
        },
        {
          "duration": 0.3125,
          "durationTicks": 480,
          "midi": 71,
          "name": "B4",
          "ticks": 110582,
          "time": 71.99348958333333,
          "velocity": 0.2047244094488189
        },
        {
          "duration": 0.3131510416666714,
          "durationTicks": 481,
          "midi": 59,
          "name": "B3",
          "ticks": 110597,
          "time": 72.00325520833333,
          "velocity": 0.4094488188976378
        },
        {
          "duration": 0.125,
          "durationTicks": 192,
          "midi": 71,
          "name": "B4",
          "ticks": 111154,
          "time": 72.36588541666667,
          "velocity": 0.07874015748031496
        },
        {
          "duration": 0.125,
          "durationTicks": 192,
          "midi": 61,
          "name": "C#4",
          "ticks": 111157,
          "time": 72.36783854166667,
          "velocity": 0.031496062992125984
        },
        {
          "duration": 0.125,
          "durationTicks": 192,
          "midi": 62,
          "name": "D4",
          "ticks": 111162,
          "time": 72.37109375,
          "velocity": 0.28346456692913385
        },
        {
          "duration": 0.125,
          "durationTicks": 192,
          "midi": 59,
          "name": "B3",
          "ticks": 111164,
          "time": 72.37239583333333,
          "velocity": 0.18110236220472442
        },
        {
          "duration": 0.125,
          "durationTicks": 192,
          "midi": 66,
          "name": "F#4",
          "ticks": 111178,
          "time": 72.38151041666667,
          "velocity": 0.33070866141732286
        },
        {
          "duration": 0.375,
          "durationTicks": 576,
          "midi": 71,
          "name": "B4",
          "ticks": 111345,
          "time": 72.490234375,
          "velocity": 0.25196850393700787
        },
        {
          "duration": 0.375,
          "durationTicks": 576,
          "midi": 66,
          "name": "F#4",
          "ticks": 111353,
          "time": 72.49544270833333,
          "velocity": 0.28346456692913385
        },
        {
          "duration": 0.375,
          "durationTicks": 576,
          "midi": 59,
          "name": "B3",
          "ticks": 111356,
          "time": 72.49739583333333,
          "velocity": 0.5196850393700787
        },
        {
          "duration": 0.375,
          "durationTicks": 576,
          "midi": 62,
          "name": "D4",
          "ticks": 111359,
          "time": 72.49934895833333,
          "velocity": 0.33858267716535434
        },
        {
          "duration": 0.375,
          "durationTicks": 576,
          "midi": 61,
          "name": "C#4",
          "ticks": 111364,
          "time": 72.50260416666667,
          "velocity": 0.10236220472440945
        },
        {
          "duration": 0.125,
          "durationTicks": 192,
          "midi": 59,
          "name": "B3",
          "ticks": 111908,
          "time": 72.85677083333333,
          "velocity": 0.36220472440944884
        },
        {
          "duration": 0.125,
          "durationTicks": 192,
          "midi": 71,
          "name": "B4",
          "ticks": 111936,
          "time": 72.875,
          "velocity": 0.2204724409448819
        },
        {
          "duration": 0.125,
          "durationTicks": 192,
          "midi": 64,
          "name": "E4",
          "ticks": 111942,
          "time": 72.87890625,
          "velocity": 0.30708661417322836
        },
        {
          "duration": 0.125,
          "durationTicks": 192,
          "midi": 62,
          "name": "D4",
          "ticks": 111943,
          "time": 72.87955729166667,
          "velocity": 0.25196850393700787
        },
        {
          "duration": 0.2493489583333286,
          "durationTicks": 383,
          "midi": 62,
          "name": "D4",
          "ticks": 112507,
          "time": 73.24674479166667,
          "velocity": 0.14173228346456693
        },
        {
          "duration": 0.2493489583333286,
          "durationTicks": 383,
          "midi": 71,
          "name": "B4",
          "ticks": 112510,
          "time": 73.24869791666667,
          "velocity": 0.1968503937007874
        },
        {
          "duration": 0.2493489583333286,
          "durationTicks": 383,
          "midi": 64,
          "name": "E4",
          "ticks": 112515,
          "time": 73.251953125,
          "velocity": 0.2755905511811024
        },
        {
          "duration": 0.2493489583333428,
          "durationTicks": 383,
          "midi": 59,
          "name": "B3",
          "ticks": 112520,
          "time": 73.25520833333333,
          "velocity": 0.47244094488188976
        },
        {
          "duration": 0.1243489583333286,
          "durationTicks": 191,
          "midi": 59,
          "name": "B3",
          "ticks": 112884,
          "time": 73.4921875,
          "velocity": 0.12598425196850394
        },
        {
          "duration": 0.1243489583333286,
          "durationTicks": 191,
          "midi": 64,
          "name": "E4",
          "ticks": 112884,
          "time": 73.4921875,
          "velocity": 0.2283464566929134
        },
        {
          "duration": 0.1243489583333286,
          "durationTicks": 191,
          "midi": 71,
          "name": "B4",
          "ticks": 112885,
          "time": 73.49283854166667,
          "velocity": 0.031496062992125984
        },
        {
          "duration": 0.1243489583333286,
          "durationTicks": 191,
          "midi": 62,
          "name": "D4",
          "ticks": 112885,
          "time": 73.49283854166667,
          "velocity": 0.10236220472440945
        },
        {
          "duration": 0.25,
          "durationTicks": 384,
          "midi": 62,
          "name": "D4",
          "ticks": 113056,
          "time": 73.60416666666667,
          "velocity": 0.33858267716535434
        },
        {
          "duration": 0.25,
          "durationTicks": 384,
          "midi": 59,
          "name": "B3",
          "ticks": 113070,
          "time": 73.61328125,
          "velocity": 0.2677165354330709
        },
        {
          "duration": 0.25,
          "durationTicks": 384,
          "midi": 71,
          "name": "B4",
          "ticks": 113075,
          "time": 73.61653645833333,
          "velocity": 0.3228346456692913
        },
        {
          "duration": 0.25,
          "durationTicks": 384,
          "midi": 64,
          "name": "E4",
          "ticks": 113085,
          "time": 73.623046875,
          "velocity": 0.25984251968503935
        },
        {
          "duration": 0.125,
          "durationTicks": 192,
          "midi": 64,
          "name": "E4",
          "ticks": 113460,
          "time": 73.8671875,
          "velocity": 0.30708661417322836
        },
        {
          "duration": 0.125,
          "durationTicks": 192,
          "midi": 59,
          "name": "B3",
          "ticks": 113461,
          "time": 73.86783854166667,
          "velocity": 0.3464566929133858
        },
        {
          "duration": 0.125,
          "durationTicks": 192,
          "midi": 71,
          "name": "B4",
          "ticks": 113470,
          "time": 73.87369791666667,
          "velocity": 0.14173228346456693
        },
        {
          "duration": 0.125,
          "durationTicks": 192,
          "midi": 62,
          "name": "D4",
          "ticks": 113476,
          "time": 73.87760416666667,
          "velocity": 0.11023622047244094
        },
        {
          "duration": 0.375,
          "durationTicks": 576,
          "midi": 62,
          "name": "D4",
          "ticks": 113642,
          "time": 73.98567708333333,
          "velocity": 0.4566929133858268
        },
        {
          "duration": 0.375,
          "durationTicks": 576,
          "midi": 66,
          "name": "F#4",
          "ticks": 113644,
          "time": 73.98697916666667,
          "velocity": 0.3779527559055118
        },
        {
          "duration": 0.375,
          "durationTicks": 576,
          "midi": 71,
          "name": "B4",
          "ticks": 113654,
          "time": 73.99348958333333,
          "velocity": 0.25196850393700787
        },
        {
          "duration": 0.375,
          "durationTicks": 576,
          "midi": 59,
          "name": "B3",
          "ticks": 113654,
          "time": 73.99348958333333,
          "velocity": 0.5354330708661418
        },
        {
          "duration": 0.375,
          "durationTicks": 576,
          "midi": 61,
          "name": "C#4",
          "ticks": 113658,
          "time": 73.99609375,
          "velocity": 0.23622047244094488
        },
        {
          "duration": 0.375,
          "durationTicks": 576,
          "midi": 59,
          "name": "B3",
          "ticks": 114411,
          "time": 74.486328125,
          "velocity": 0.3937007874015748
        },
        {
          "duration": 0.375,
          "durationTicks": 576,
          "midi": 61,
          "name": "C#4",
          "ticks": 114415,
          "time": 74.48893229166667,
          "velocity": 0.2440944881889764
        },
        {
          "duration": 0.375,
          "durationTicks": 576,
          "midi": 62,
          "name": "D4",
          "ticks": 114427,
          "time": 74.49674479166667,
          "velocity": 0.4015748031496063
        },
        {
          "duration": 0.375,
          "durationTicks": 576,
          "midi": 71,
          "name": "B4",
          "ticks": 114430,
          "time": 74.49869791666667,
          "velocity": 0.2283464566929134
        },
        {
          "duration": 0.375,
          "durationTicks": 576,
          "midi": 66,
          "name": "F#4",
          "ticks": 114433,
          "time": 74.50065104166667,
          "velocity": 0.5118110236220472
        },
        {
          "duration": 0.125,
          "durationTicks": 192,
          "midi": 59,
          "name": "B3",
          "ticks": 114995,
          "time": 74.86653645833333,
          "velocity": 0.25984251968503935
        },
        {
          "duration": 0.125,
          "durationTicks": 192,
          "midi": 66,
          "name": "F#4",
          "ticks": 114996,
          "time": 74.8671875,
          "velocity": 0.33858267716535434
        },
        {
          "duration": 0.125,
          "durationTicks": 192,
          "midi": 62,
          "name": "D4",
          "ticks": 114999,
          "time": 74.869140625,
          "velocity": 0.3464566929133858
        },
        {
          "duration": 0.125,
          "durationTicks": 192,
          "midi": 64,
          "name": "E4",
          "ticks": 115000,
          "time": 74.86979166666667,
          "velocity": 0.2440944881889764
        },
        {
          "duration": 0.125,
          "durationTicks": 192,
          "midi": 71,
          "name": "B4",
          "ticks": 115001,
          "time": 74.87044270833333,
          "velocity": 0.16535433070866143
        },
        {
          "duration": 0.25,
          "durationTicks": 384,
          "midi": 71,
          "name": "B4",
          "ticks": 115566,
          "time": 75.23828125,
          "velocity": 0.1968503937007874
        },
        {
          "duration": 0.25,
          "durationTicks": 384,
          "midi": 62,
          "name": "D4",
          "ticks": 115573,
          "time": 75.24283854166667,
          "velocity": 0.33070866141732286
        },
        {
          "duration": 0.25,
          "durationTicks": 384,
          "midi": 59,
          "name": "B3",
          "ticks": 115574,
          "time": 75.24348958333333,
          "velocity": 0.4094488188976378
        },
        {
          "duration": 0.2447916666666714,
          "durationTicks": 376,
          "midi": 64,
          "name": "E4",
          "ticks": 115590,
          "time": 75.25390625,
          "velocity": 0.16535433070866143
        },
        {
          "duration": 0.2493489583333286,
          "durationTicks": 383,
          "midi": 66,
          "name": "F#4",
          "ticks": 115596,
          "time": 75.2578125,
          "velocity": 0.4015748031496063
        },
        {
          "duration": 0.12434895833334281,
          "durationTicks": 191,
          "midi": 71,
          "name": "B4",
          "ticks": 115952,
          "time": 75.48958333333333,
          "velocity": 0.031496062992125984
        },
        {
          "duration": 0.1236979166666714,
          "durationTicks": 190,
          "midi": 62,
          "name": "D4",
          "ticks": 115956,
          "time": 75.4921875,
          "velocity": 0.1968503937007874
        },
        {
          "duration": 0.1243489583333286,
          "durationTicks": 191,
          "midi": 66,
          "name": "F#4",
          "ticks": 115960,
          "time": 75.49479166666667,
          "velocity": 0.15748031496062992
        },
        {
          "duration": 0.1243489583333286,
          "durationTicks": 191,
          "midi": 59,
          "name": "B3",
          "ticks": 115972,
          "time": 75.50260416666667,
          "velocity": 0.11811023622047244
        },
        {
          "duration": 0.2493489583333428,
          "durationTicks": 383,
          "midi": 62,
          "name": "D4",
          "ticks": 116138,
          "time": 75.61067708333333,
          "velocity": 0.5118110236220472
        },
        {
          "duration": 0.2493489583333286,
          "durationTicks": 383,
          "midi": 66,
          "name": "F#4",
          "ticks": 116146,
          "time": 75.61588541666667,
          "velocity": 0.4330708661417323
        },
        {
          "duration": 0.2493489583333286,
          "durationTicks": 383,
          "midi": 59,
          "name": "B3",
          "ticks": 116152,
          "time": 75.61979166666667,
          "velocity": 0.3858267716535433
        },
        {
          "duration": 0.2493489583333286,
          "durationTicks": 383,
          "midi": 71,
          "name": "B4",
          "ticks": 116154,
          "time": 75.62109375,
          "velocity": 0.2677165354330709
        },
        {
          "duration": 0.25,
          "durationTicks": 384,
          "midi": 64,
          "name": "E4",
          "ticks": 116159,
          "time": 75.62434895833333,
          "velocity": 0.2204724409448819
        },
        {
          "duration": 0.125,
          "durationTicks": 192,
          "midi": 62,
          "name": "D4",
          "ticks": 116522,
          "time": 75.86067708333333,
          "velocity": 0.2125984251968504
        },
        {
          "duration": 0.125,
          "durationTicks": 192,
          "midi": 71,
          "name": "B4",
          "ticks": 116529,
          "time": 75.865234375,
          "velocity": 0.07874015748031496
        },
        {
          "duration": 0.1256510416666714,
          "durationTicks": 193,
          "midi": 59,
          "name": "B3",
          "ticks": 116532,
          "time": 75.8671875,
          "velocity": 0.2755905511811024
        },
        {
          "duration": 0.1256510416666572,
          "durationTicks": 193,
          "midi": 64,
          "name": "E4",
          "ticks": 116533,
          "time": 75.86783854166667,
          "velocity": 0.07086614173228346
        },
        {
          "duration": 0.1256510416666714,
          "durationTicks": 193,
          "midi": 66,
          "name": "F#4",
          "ticks": 116540,
          "time": 75.87239583333333,
          "velocity": 0.1968503937007874
        },
        {
          "duration": 0.3756510416666572,
          "durationTicks": 577,
          "midi": 62,
          "name": "D4",
          "ticks": 116710,
          "time": 75.98307291666667,
          "velocity": 0.2047244094488189
        },
        {
          "duration": 0.3756510416666714,
          "durationTicks": 577,
          "midi": 59,
          "name": "B3",
          "ticks": 116711,
          "time": 75.98372395833333,
          "velocity": 0.44881889763779526
        },
        {
          "duration": 0.3756510416666714,
          "durationTicks": 577,
          "midi": 71,
          "name": "B4",
          "ticks": 116723,
          "time": 75.99153645833333,
          "velocity": 0.2125984251968504
        },
        {
          "duration": 0.375,
          "durationTicks": 576,
          "midi": 66,
          "name": "F#4",
          "ticks": 116740,
          "time": 76.00260416666667,
          "velocity": 0.3700787401574803
        },
        {
          "duration": 0.375,
          "durationTicks": 576,
          "midi": 61,
          "name": "C#4",
          "ticks": 116745,
          "time": 76.005859375,
          "velocity": 0.4409448818897638
        },
        {
          "duration": 0.3756510416666714,
          "durationTicks": 577,
          "midi": 59,
          "name": "B3",
          "ticks": 117468,
          "time": 76.4765625,
          "velocity": 0.33858267716535434
        },
        {
          "duration": 0.3756510416666714,
          "durationTicks": 577,
          "midi": 71,
          "name": "B4",
          "ticks": 117489,
          "time": 76.490234375,
          "velocity": 0.2204724409448819
        },
        {
          "duration": 0.3756510416666714,
          "durationTicks": 577,
          "midi": 61,
          "name": "C#4",
          "ticks": 117497,
          "time": 76.49544270833333,
          "velocity": 0.2677165354330709
        },
        {
          "duration": 0.3756510416666714,
          "durationTicks": 577,
          "midi": 66,
          "name": "F#4",
          "ticks": 117500,
          "time": 76.49739583333333,
          "velocity": 0.3858267716535433
        },
        {
          "duration": 0.375,
          "durationTicks": 576,
          "midi": 62,
          "name": "D4",
          "ticks": 117509,
          "time": 76.50325520833333,
          "velocity": 0.1732283464566929
        },
        {
          "duration": 0.12434895833334281,
          "durationTicks": 191,
          "midi": 59,
          "name": "B3",
          "ticks": 118064,
          "time": 76.86458333333333,
          "velocity": 0.4094488188976378
        },
        {
          "duration": 0.12434895833334281,
          "durationTicks": 191,
          "midi": 66,
          "name": "F#4",
          "ticks": 118064,
          "time": 76.86458333333333,
          "velocity": 0.2992125984251969
        },
        {
          "duration": 0.12434895833334281,
          "durationTicks": 191,
          "midi": 62,
          "name": "D4",
          "ticks": 118064,
          "time": 76.86458333333333,
          "velocity": 0.47244094488188976
        },
        {
          "duration": 0.1243489583333286,
          "durationTicks": 191,
          "midi": 71,
          "name": "B4",
          "ticks": 118080,
          "time": 76.875,
          "velocity": 0.2440944881889764
        },
        {
          "duration": 0.25,
          "durationTicks": 384,
          "midi": 59,
          "name": "B3",
          "ticks": 118631,
          "time": 77.23372395833333,
          "velocity": 0.4015748031496063
        },
        {
          "duration": 0.25,
          "durationTicks": 384,
          "midi": 66,
          "name": "F#4",
          "ticks": 118632,
          "time": 77.234375,
          "velocity": 0.5275590551181102
        },
        {
          "duration": 0.2506510416666572,
          "durationTicks": 385,
          "midi": 71,
          "name": "B4",
          "ticks": 118639,
          "time": 77.23893229166667,
          "velocity": 0.2204724409448819
        },
        {
          "duration": 0.2506510416666572,
          "durationTicks": 385,
          "midi": 62,
          "name": "D4",
          "ticks": 118660,
          "time": 77.25260416666667,
          "velocity": 0.4251968503937008
        },
        {
          "duration": 0.1256510416666714,
          "durationTicks": 193,
          "midi": 71,
          "name": "B4",
          "ticks": 119013,
          "time": 77.482421875,
          "velocity": 0.05511811023622047
        },
        {
          "duration": 0.1256510416666572,
          "durationTicks": 193,
          "midi": 66,
          "name": "F#4",
          "ticks": 119023,
          "time": 77.48893229166667,
          "velocity": 0.15748031496062992
        },
        {
          "duration": 0.125,
          "durationTicks": 192,
          "midi": 59,
          "name": "B3",
          "ticks": 119027,
          "time": 77.49153645833333,
          "velocity": 0.31496062992125984
        },
        {
          "duration": 0.125,
          "durationTicks": 192,
          "midi": 62,
          "name": "D4",
          "ticks": 119031,
          "time": 77.494140625,
          "velocity": 0.1968503937007874
        },
        {
          "duration": 0.25,
          "durationTicks": 384,
          "midi": 62,
          "name": "D4",
          "ticks": 119207,
          "time": 77.60872395833333,
          "velocity": 0.3937007874015748
        },
        {
          "duration": 0.25,
          "durationTicks": 384,
          "midi": 59,
          "name": "B3",
          "ticks": 119226,
          "time": 77.62109375,
          "velocity": 0.44881889763779526
        },
        {
          "duration": 0.25,
          "durationTicks": 384,
          "midi": 66,
          "name": "F#4",
          "ticks": 119233,
          "time": 77.62565104166667,
          "velocity": 0.2992125984251969
        },
        {
          "duration": 0.25,
          "durationTicks": 384,
          "midi": 71,
          "name": "B4",
          "ticks": 119238,
          "time": 77.62890625,
          "velocity": 0.2283464566929134
        },
        {
          "duration": 0.125,
          "durationTicks": 192,
          "midi": 66,
          "name": "F#4",
          "ticks": 119598,
          "time": 77.86328125,
          "velocity": 0.18110236220472442
        },
        {
          "duration": 0.125,
          "durationTicks": 192,
          "midi": 59,
          "name": "B3",
          "ticks": 119599,
          "time": 77.86393229166667,
          "velocity": 0.18110236220472442
        },
        {
          "duration": 0.1243489583333286,
          "durationTicks": 191,
          "midi": 71,
          "name": "B4",
          "ticks": 119619,
          "time": 77.876953125,
          "velocity": 0.12598425196850394
        },
        {
          "duration": 0.1243489583333286,
          "durationTicks": 191,
          "midi": 62,
          "name": "D4",
          "ticks": 119619,
          "time": 77.876953125,
          "velocity": 0.25196850393700787
        },
        {
          "duration": 0.3743489583333286,
          "durationTicks": 575,
          "midi": 66,
          "name": "F#4",
          "ticks": 119788,
          "time": 77.98697916666667,
          "velocity": 0.3228346456692913
        },
        {
          "duration": 0.375,
          "durationTicks": 576,
          "midi": 71,
          "name": "B4",
          "ticks": 119795,
          "time": 77.99153645833333,
          "velocity": 0.2755905511811024
        },
        {
          "duration": 0.375,
          "durationTicks": 576,
          "midi": 62,
          "name": "D4",
          "ticks": 119796,
          "time": 77.9921875,
          "velocity": 0.29133858267716534
        },
        {
          "duration": 0.375,
          "durationTicks": 576,
          "midi": 61,
          "name": "C#4",
          "ticks": 119809,
          "time": 78.00065104166667,
          "velocity": 0.047244094488188976
        },
        {
          "duration": 0.375,
          "durationTicks": 576,
          "midi": 59,
          "name": "B3",
          "ticks": 119813,
          "time": 78.00325520833333,
          "velocity": 0.49606299212598426
        },
        {
          "duration": 0.375,
          "durationTicks": 576,
          "midi": 66,
          "name": "F#4",
          "ticks": 120559,
          "time": 78.48893229166667,
          "velocity": 0.36220472440944884
        },
        {
          "duration": 0.375,
          "durationTicks": 576,
          "midi": 59,
          "name": "B3",
          "ticks": 120559,
          "time": 78.48893229166667,
          "velocity": 0.3228346456692913
        },
        {
          "duration": 0.375,
          "durationTicks": 576,
          "midi": 61,
          "name": "C#4",
          "ticks": 120573,
          "time": 78.498046875,
          "velocity": 0.10236220472440945
        },
        {
          "duration": 0.375,
          "durationTicks": 576,
          "midi": 71,
          "name": "B4",
          "ticks": 120576,
          "time": 78.5,
          "velocity": 0.2755905511811024
        },
        {
          "duration": 0.375,
          "durationTicks": 576,
          "midi": 62,
          "name": "D4",
          "ticks": 120576,
          "time": 78.5,
          "velocity": 0.33070866141732286
        },
        {
          "duration": 0.125,
          "durationTicks": 192,
          "midi": 59,
          "name": "B3",
          "ticks": 121121,
          "time": 78.85481770833333,
          "velocity": 0.4015748031496063
        },
        {
          "duration": 0.125,
          "durationTicks": 192,
          "midi": 62,
          "name": "D4",
          "ticks": 121124,
          "time": 78.85677083333333,
          "velocity": 0.25196850393700787
        },
        {
          "duration": 0.125,
          "durationTicks": 192,
          "midi": 64,
          "name": "E4",
          "ticks": 121140,
          "time": 78.8671875,
          "velocity": 0.33858267716535434
        },
        {
          "duration": 0.125,
          "durationTicks": 192,
          "midi": 71,
          "name": "B4",
          "ticks": 121149,
          "time": 78.873046875,
          "velocity": 0.2283464566929134
        },
        {
          "duration": 0.25,
          "durationTicks": 384,
          "midi": 59,
          "name": "B3",
          "ticks": 121702,
          "time": 79.23307291666667,
          "velocity": 0.3937007874015748
        },
        {
          "duration": 0.2506510416666572,
          "durationTicks": 385,
          "midi": 64,
          "name": "E4",
          "ticks": 121717,
          "time": 79.24283854166667,
          "velocity": 0.3779527559055118
        },
        {
          "duration": 0.2506510416666714,
          "durationTicks": 385,
          "midi": 71,
          "name": "B4",
          "ticks": 121719,
          "time": 79.244140625,
          "velocity": 0.2440944881889764
        },
        {
          "duration": 0.2506510416666714,
          "durationTicks": 385,
          "midi": 62,
          "name": "D4",
          "ticks": 121731,
          "time": 79.251953125,
          "velocity": 0.2283464566929134
        },
        {
          "duration": 0.1256510416666572,
          "durationTicks": 193,
          "midi": 59,
          "name": "B3",
          "ticks": 122086,
          "time": 79.48307291666667,
          "velocity": 0.1968503937007874
        },
        {
          "duration": 0.1256510416666714,
          "durationTicks": 193,
          "midi": 62,
          "name": "D4",
          "ticks": 122087,
          "time": 79.48372395833333,
          "velocity": 0.06299212598425197
        },
        {
          "duration": 0.1256510416666714,
          "durationTicks": 193,
          "midi": 71,
          "name": "B4",
          "ticks": 122100,
          "time": 79.4921875,
          "velocity": 0.023622047244094488
        },
        {
          "duration": 0.125,
          "durationTicks": 192,
          "midi": 64,
          "name": "E4",
          "ticks": 122102,
          "time": 79.49348958333333,
          "velocity": 0.11023622047244094
        },
        {
          "duration": 0.2506510416666714,
          "durationTicks": 385,
          "midi": 64,
          "name": "E4",
          "ticks": 122291,
          "time": 79.61653645833333,
          "velocity": 0.48031496062992124
        },
        {
          "duration": 0.2506510416666714,
          "durationTicks": 385,
          "midi": 62,
          "name": "D4",
          "ticks": 122294,
          "time": 79.61848958333333,
          "velocity": 0.18110236220472442
        },
        {
          "duration": 0.2506510416666714,
          "durationTicks": 385,
          "midi": 59,
          "name": "B3",
          "ticks": 122312,
          "time": 79.63020833333333,
          "velocity": 0.3464566929133858
        },
        {
          "duration": 0.2506510416666572,
          "durationTicks": 385,
          "midi": 71,
          "name": "B4",
          "ticks": 122314,
          "time": 79.63151041666667,
          "velocity": 0.2283464566929134
        },
        {
          "duration": 0.125,
          "durationTicks": 192,
          "midi": 62,
          "name": "D4",
          "ticks": 122675,
          "time": 79.86653645833333,
          "velocity": 0.18110236220472442
        },
        {
          "duration": 0.125,
          "durationTicks": 192,
          "midi": 71,
          "name": "B4",
          "ticks": 122686,
          "time": 79.87369791666667,
          "velocity": 0.14960629921259844
        },
        {
          "duration": 0.125,
          "durationTicks": 192,
          "midi": 64,
          "name": "E4",
          "ticks": 122687,
          "time": 79.87434895833333,
          "velocity": 0.29133858267716534
        },
        {
          "duration": 0.125,
          "durationTicks": 192,
          "midi": 59,
          "name": "B3",
          "ticks": 122688,
          "time": 79.875,
          "velocity": 0.31496062992125984
        },
        {
          "duration": 0.3125,
          "durationTicks": 480,
          "midi": 66,
          "name": "F#4",
          "ticks": 122861,
          "time": 79.98763020833333,
          "velocity": 0.4015748031496063
        },
        {
          "duration": 0.3125,
          "durationTicks": 480,
          "midi": 71,
          "name": "B4",
          "ticks": 122865,
          "time": 79.990234375,
          "velocity": 0.2283464566929134
        },
        {
          "duration": 0.3125,
          "durationTicks": 480,
          "midi": 62,
          "name": "D4",
          "ticks": 122875,
          "time": 79.99674479166667,
          "velocity": 0.3464566929133858
        },
        {
          "duration": 0.3125,
          "durationTicks": 480,
          "midi": 61,
          "name": "C#4",
          "ticks": 122877,
          "time": 79.998046875,
          "velocity": 0.14960629921259844
        },
        {
          "duration": 0.3125,
          "durationTicks": 480,
          "midi": 59,
          "name": "B3",
          "ticks": 122890,
          "time": 80.00651041666667,
          "velocity": 0.2992125984251969
        },
        {
          "duration": 0.1256510416666714,
          "durationTicks": 193,
          "midi": 66,
          "name": "F#4",
          "ticks": 123440,
          "time": 80.36458333333333,
          "velocity": 0.30708661417322836
        },
        {
          "duration": 0.1256510416666714,
          "durationTicks": 193,
          "midi": 61,
          "name": "C#4",
          "ticks": 123449,
          "time": 80.37044270833333,
          "velocity": 0.023622047244094488
        },
        {
          "duration": 0.1256510416666714,
          "durationTicks": 193,
          "midi": 59,
          "name": "B3",
          "ticks": 123452,
          "time": 80.37239583333333,
          "velocity": 0.2125984251968504
        },
        {
          "duration": 0.125,
          "durationTicks": 192,
          "midi": 71,
          "name": "B4",
          "ticks": 123456,
          "time": 80.375,
          "velocity": 0.07874015748031496
        },
        {
          "duration": 0.125,
          "durationTicks": 192,
          "midi": 62,
          "name": "D4",
          "ticks": 123461,
          "time": 80.37825520833333,
          "velocity": 0.15748031496062992
        },
        {
          "duration": 0.375,
          "durationTicks": 576,
          "midi": 71,
          "name": "B4",
          "ticks": 123629,
          "time": 80.48763020833333,
          "velocity": 0.1889763779527559
        },
        {
          "duration": 0.3743489583333286,
          "durationTicks": 575,
          "midi": 66,
          "name": "F#4",
          "ticks": 123639,
          "time": 80.494140625,
          "velocity": 0.4094488188976378
        },
        {
          "duration": 0.3743489583333286,
          "durationTicks": 575,
          "midi": 62,
          "name": "D4",
          "ticks": 123639,
          "time": 80.494140625,
          "velocity": 0.4094488188976378
        },
        {
          "duration": 0.3743489583333428,
          "durationTicks": 575,
          "midi": 61,
          "name": "C#4",
          "ticks": 123647,
          "time": 80.49934895833333,
          "velocity": 0.13385826771653545
        },
        {
          "duration": 0.3743489583333286,
          "durationTicks": 575,
          "midi": 59,
          "name": "B3",
          "ticks": 123648,
          "time": 80.5,
          "velocity": 0.36220472440944884
        },
        {
          "duration": 0.1243489583333286,
          "durationTicks": 191,
          "midi": 71,
          "name": "B4",
          "ticks": 124201,
          "time": 80.86002604166667,
          "velocity": 0.1968503937007874
        },
        {
          "duration": 0.12434895833334281,
          "durationTicks": 191,
          "midi": 64,
          "name": "E4",
          "ticks": 124214,
          "time": 80.86848958333333,
          "velocity": 0.33070866141732286
        },
        {
          "duration": 0.1243489583333286,
          "durationTicks": 191,
          "midi": 62,
          "name": "D4",
          "ticks": 124219,
          "time": 80.87174479166667,
          "velocity": 0.2125984251968504
        },
        {
          "duration": 0.12434895833334281,
          "durationTicks": 191,
          "midi": 59,
          "name": "B3",
          "ticks": 124220,
          "time": 80.87239583333333,
          "velocity": 0.3464566929133858
        },
        {
          "duration": 0.25,
          "durationTicks": 384,
          "midi": 59,
          "name": "B3",
          "ticks": 124789,
          "time": 81.24283854166667,
          "velocity": 0.33858267716535434
        },
        {
          "duration": 0.25,
          "durationTicks": 384,
          "midi": 71,
          "name": "B4",
          "ticks": 124792,
          "time": 81.24479166666667,
          "velocity": 0.2125984251968504
        },
        {
          "duration": 0.25,
          "durationTicks": 384,
          "midi": 62,
          "name": "D4",
          "ticks": 124796,
          "time": 81.24739583333333,
          "velocity": 0.23622047244094488
        },
        {
          "duration": 0.25,
          "durationTicks": 384,
          "midi": 64,
          "name": "E4",
          "ticks": 124796,
          "time": 81.24739583333333,
          "velocity": 0.33070866141732286
        },
        {
          "duration": 0.1256510416666714,
          "durationTicks": 193,
          "midi": 59,
          "name": "B3",
          "ticks": 125160,
          "time": 81.484375,
          "velocity": 0.2125984251968504
        },
        {
          "duration": 0.1256510416666714,
          "durationTicks": 193,
          "midi": 64,
          "name": "E4",
          "ticks": 125172,
          "time": 81.4921875,
          "velocity": 0.1732283464566929
        },
        {
          "duration": 0.1256510416666572,
          "durationTicks": 193,
          "midi": 71,
          "name": "B4",
          "ticks": 125179,
          "time": 81.49674479166667,
          "velocity": 0.03937007874015748
        },
        {
          "duration": 0.1256510416666572,
          "durationTicks": 193,
          "midi": 62,
          "name": "D4",
          "ticks": 125188,
          "time": 81.50260416666667,
          "velocity": 0.07086614173228346
        },
        {
          "duration": 0.2506510416666572,
          "durationTicks": 385,
          "midi": 64,
          "name": "E4",
          "ticks": 125368,
          "time": 81.61979166666667,
          "velocity": 0.2677165354330709
        },
        {
          "duration": 0.2506510416666572,
          "durationTicks": 385,
          "midi": 71,
          "name": "B4",
          "ticks": 125374,
          "time": 81.62369791666667,
          "velocity": 0.2440944881889764
        },
        {
          "duration": 0.2506510416666714,
          "durationTicks": 385,
          "midi": 62,
          "name": "D4",
          "ticks": 125375,
          "time": 81.62434895833333,
          "velocity": 0.13385826771653545
        },
        {
          "duration": 0.2506510416666714,
          "durationTicks": 385,
          "midi": 59,
          "name": "B3",
          "ticks": 125384,
          "time": 81.63020833333333,
          "velocity": 0.3228346456692913
        },
        {
          "duration": 0.1256510416666714,
          "durationTicks": 193,
          "midi": 71,
          "name": "B4",
          "ticks": 125742,
          "time": 81.86328125,
          "velocity": 0.07874015748031496
        },
        {
          "duration": 0.1256510416666714,
          "durationTicks": 193,
          "midi": 64,
          "name": "E4",
          "ticks": 125747,
          "time": 81.86653645833333,
          "velocity": 0.30708661417322836
        },
        {
          "duration": 0.1256510416666714,
          "durationTicks": 193,
          "midi": 59,
          "name": "B3",
          "ticks": 125748,
          "time": 81.8671875,
          "velocity": 0.18110236220472442
        },
        {
          "duration": 0.125,
          "durationTicks": 192,
          "midi": 62,
          "name": "D4",
          "ticks": 125764,
          "time": 81.87760416666667,
          "velocity": 0.13385826771653545
        },
        {
          "duration": 0.375,
          "durationTicks": 576,
          "midi": 71,
          "name": "B4",
          "ticks": 125922,
          "time": 81.98046875,
          "velocity": 0.2204724409448819
        },
        {
          "duration": 0.375,
          "durationTicks": 576,
          "midi": 59,
          "name": "B3",
          "ticks": 125932,
          "time": 81.98697916666667,
          "velocity": 0.30708661417322836
        },
        {
          "duration": 0.375,
          "durationTicks": 576,
          "midi": 61,
          "name": "C#4",
          "ticks": 125933,
          "time": 81.98763020833333,
          "velocity": 0.2440944881889764
        },
        {
          "duration": 0.3743489583333428,
          "durationTicks": 575,
          "midi": 62,
          "name": "D4",
          "ticks": 125942,
          "time": 81.99348958333333,
          "velocity": 0.2992125984251969
        },
        {
          "duration": 0.3743489583333286,
          "durationTicks": 575,
          "midi": 66,
          "name": "F#4",
          "ticks": 125950,
          "time": 81.99869791666667,
          "velocity": 0.2755905511811024
        },
        {
          "duration": 0.375,
          "durationTicks": 576,
          "midi": 62,
          "name": "D4",
          "ticks": 126709,
          "time": 82.49283854166667,
          "velocity": 0.28346456692913385
        },
        {
          "duration": 0.375,
          "durationTicks": 576,
          "midi": 66,
          "name": "F#4",
          "ticks": 126709,
          "time": 82.49283854166667,
          "velocity": 0.4251968503937008
        },
        {
          "duration": 0.375,
          "durationTicks": 576,
          "midi": 59,
          "name": "B3",
          "ticks": 126712,
          "time": 82.49479166666667,
          "velocity": 0.4094488188976378
        },
        {
          "duration": 0.375,
          "durationTicks": 576,
          "midi": 71,
          "name": "B4",
          "ticks": 126714,
          "time": 82.49609375,
          "velocity": 0.2125984251968504
        },
        {
          "duration": 0.375,
          "durationTicks": 576,
          "midi": 61,
          "name": "C#4",
          "ticks": 126717,
          "time": 82.498046875,
          "velocity": 0.2047244094488189
        },
        {
          "duration": 0.125,
          "durationTicks": 192,
          "midi": 62,
          "name": "D4",
          "ticks": 127269,
          "time": 82.857421875,
          "velocity": 0.3858267716535433
        },
        {
          "duration": 0.125,
          "durationTicks": 192,
          "midi": 71,
          "name": "B4",
          "ticks": 127279,
          "time": 82.86393229166667,
          "velocity": 0.2283464566929134
        },
        {
          "duration": 0.125,
          "durationTicks": 192,
          "midi": 59,
          "name": "B3",
          "ticks": 127281,
          "time": 82.865234375,
          "velocity": 0.2992125984251969
        },
        {
          "duration": 0.125,
          "durationTicks": 192,
          "midi": 64,
          "name": "E4",
          "ticks": 127293,
          "time": 82.873046875,
          "velocity": 0.2283464566929134
        },
        {
          "duration": 0.125,
          "durationTicks": 192,
          "midi": 66,
          "name": "F#4",
          "ticks": 127300,
          "time": 82.87760416666667,
          "velocity": 0.4881889763779528
        },
        {
          "duration": 0.25,
          "durationTicks": 384,
          "midi": 66,
          "name": "F#4",
          "ticks": 127851,
          "time": 83.236328125,
          "velocity": 0.3700787401574803
        },
        {
          "duration": 0.25,
          "durationTicks": 384,
          "midi": 62,
          "name": "D4",
          "ticks": 127860,
          "time": 83.2421875,
          "velocity": 0.6141732283464567
        },
        {
          "duration": 0.2421875,
          "durationTicks": 372,
          "midi": 64,
          "name": "E4",
          "ticks": 127861,
          "time": 83.24283854166667,
          "velocity": 0.2125984251968504
        },
        {
          "duration": 0.25,
          "durationTicks": 384,
          "midi": 59,
          "name": "B3",
          "ticks": 127866,
          "time": 83.24609375,
          "velocity": 0.33858267716535434
        },
        {
          "duration": 0.2506510416666714,
          "durationTicks": 385,
          "midi": 71,
          "name": "B4",
          "ticks": 127872,
          "time": 83.25,
          "velocity": 0.2204724409448819
        },
        {
          "duration": 0.1256510416666714,
          "durationTicks": 193,
          "midi": 71,
          "name": "B4",
          "ticks": 128238,
          "time": 83.48828125,
          "velocity": 0.023622047244094488
        },
        {
          "duration": 0.1256510416666572,
          "durationTicks": 193,
          "midi": 66,
          "name": "F#4",
          "ticks": 128239,
          "time": 83.48893229166667,
          "velocity": 0.1968503937007874
        },
        {
          "duration": 0.125,
          "durationTicks": 192,
          "midi": 62,
          "name": "D4",
          "ticks": 128255,
          "time": 83.49934895833333,
          "velocity": 0.2204724409448819
        },
        {
          "duration": 0.125,
          "durationTicks": 192,
          "midi": 59,
          "name": "B3",
          "ticks": 128256,
          "time": 83.5,
          "velocity": 0.25196850393700787
        },
        {
          "duration": 0.25,
          "durationTicks": 384,
          "midi": 59,
          "name": "B3",
          "ticks": 128437,
          "time": 83.61783854166667,
          "velocity": 0.3700787401574803
        },
        {
          "duration": 0.25,
          "durationTicks": 384,
          "midi": 62,
          "name": "D4",
          "ticks": 128438,
          "time": 83.61848958333333,
          "velocity": 0.30708661417322836
        },
        {
          "duration": 0.25,
          "durationTicks": 384,
          "midi": 64,
          "name": "E4",
          "ticks": 128438,
          "time": 83.61848958333333,
          "velocity": 0.1732283464566929
        },
        {
          "duration": 0.25,
          "durationTicks": 384,
          "midi": 66,
          "name": "F#4",
          "ticks": 128438,
          "time": 83.61848958333333,
          "velocity": 0.4409448818897638
        },
        {
          "duration": 0.2493489583333428,
          "durationTicks": 383,
          "midi": 71,
          "name": "B4",
          "ticks": 128450,
          "time": 83.62630208333333,
          "velocity": 0.18110236220472442
        },
        {
          "duration": 0.12434895833334281,
          "durationTicks": 191,
          "midi": 62,
          "name": "D4",
          "ticks": 128813,
          "time": 83.86263020833333,
          "velocity": 0.2440944881889764
        },
        {
          "duration": 0.1243489583333286,
          "durationTicks": 191,
          "midi": 71,
          "name": "B4",
          "ticks": 128817,
          "time": 83.865234375,
          "velocity": 0.07086614173228346
        },
        {
          "duration": 0.125,
          "durationTicks": 192,
          "midi": 64,
          "name": "E4",
          "ticks": 128826,
          "time": 83.87109375,
          "velocity": 0.11023622047244094
        },
        {
          "duration": 0.125,
          "durationTicks": 192,
          "midi": 66,
          "name": "F#4",
          "ticks": 128828,
          "time": 83.87239583333333,
          "velocity": 0.1889763779527559
        },
        {
          "duration": 0.125,
          "durationTicks": 192,
          "midi": 59,
          "name": "B3",
          "ticks": 128833,
          "time": 83.87565104166667,
          "velocity": 0.1968503937007874
        },
        {
          "duration": 0.375,
          "durationTicks": 576,
          "midi": 62,
          "name": "D4",
          "ticks": 129006,
          "time": 83.98828125,
          "velocity": 0.28346456692913385
        },
        {
          "duration": 0.375,
          "durationTicks": 576,
          "midi": 59,
          "name": "B3",
          "ticks": 129021,
          "time": 83.998046875,
          "velocity": 0.41732283464566927
        },
        {
          "duration": 0.375,
          "durationTicks": 576,
          "midi": 71,
          "name": "B4",
          "ticks": 129022,
          "time": 83.99869791666667,
          "velocity": 0.18110236220472442
        },
        {
          "duration": 0.375,
          "durationTicks": 576,
          "midi": 61,
          "name": "C#4",
          "ticks": 129025,
          "time": 84.00065104166667,
          "velocity": 0.2677165354330709
        },
        {
          "duration": 0.375,
          "durationTicks": 576,
          "midi": 66,
          "name": "F#4",
          "ticks": 129028,
          "time": 84.00260416666667,
          "velocity": 0.33858267716535434
        },
        {
          "duration": 0.375,
          "durationTicks": 576,
          "midi": 59,
          "name": "B3",
          "ticks": 129764,
          "time": 84.48177083333333,
          "velocity": 0.44881889763779526
        },
        {
          "duration": 0.3756510416666572,
          "durationTicks": 577,
          "midi": 62,
          "name": "D4",
          "ticks": 129775,
          "time": 84.48893229166667,
          "velocity": 0.15748031496062992
        },
        {
          "duration": 0.3756510416666572,
          "durationTicks": 577,
          "midi": 66,
          "name": "F#4",
          "ticks": 129778,
          "time": 84.49088541666667,
          "velocity": 0.33858267716535434
        },
        {
          "duration": 0.3756510416666714,
          "durationTicks": 577,
          "midi": 61,
          "name": "C#4",
          "ticks": 129779,
          "time": 84.49153645833333,
          "velocity": 0.4645669291338583
        },
        {
          "duration": 0.3756510416666714,
          "durationTicks": 577,
          "midi": 71,
          "name": "B4",
          "ticks": 129788,
          "time": 84.49739583333333,
          "velocity": 0.2283464566929134
        },
        {
          "duration": 0.125,
          "durationTicks": 192,
          "midi": 66,
          "name": "F#4",
          "ticks": 130348,
          "time": 84.86197916666667,
          "velocity": 0.3937007874015748
        },
        {
          "duration": 0.125,
          "durationTicks": 192,
          "midi": 59,
          "name": "B3",
          "ticks": 130352,
          "time": 84.86458333333333,
          "velocity": 0.3937007874015748
        },
        {
          "duration": 0.125,
          "durationTicks": 192,
          "midi": 62,
          "name": "D4",
          "ticks": 130356,
          "time": 84.8671875,
          "velocity": 0.36220472440944884
        },
        {
          "duration": 0.125,
          "durationTicks": 192,
          "midi": 71,
          "name": "B4",
          "ticks": 130368,
          "time": 84.875,
          "velocity": 0.23622047244094488
        },
        {
          "duration": 0.25,
          "durationTicks": 384,
          "midi": 71,
          "name": "B4",
          "ticks": 130924,
          "time": 85.23697916666667,
          "velocity": 0.23622047244094488
        },
        {
          "duration": 0.2493489583333286,
          "durationTicks": 383,
          "midi": 66,
          "name": "F#4",
          "ticks": 130938,
          "time": 85.24609375,
          "velocity": 0.5275590551181102
        },
        {
          "duration": 0.2493489583333286,
          "durationTicks": 383,
          "midi": 62,
          "name": "D4",
          "ticks": 130938,
          "time": 85.24609375,
          "velocity": 0.4409448818897638
        },
        {
          "duration": 0.2486979166666572,
          "durationTicks": 382,
          "midi": 59,
          "name": "B3",
          "ticks": 130948,
          "time": 85.25260416666667,
          "velocity": 0.3228346456692913
        },
        {
          "duration": 0.1236979166666714,
          "durationTicks": 190,
          "midi": 66,
          "name": "F#4",
          "ticks": 131304,
          "time": 85.484375,
          "velocity": 0.2125984251968504
        },
        {
          "duration": 0.1236979166666714,
          "durationTicks": 190,
          "midi": 59,
          "name": "B3",
          "ticks": 131304,
          "time": 85.484375,
          "velocity": 0.14960629921259844
        },
        {
          "duration": 0.1236979166666714,
          "durationTicks": 190,
          "midi": 71,
          "name": "B4",
          "ticks": 131312,
          "time": 85.48958333333333,
          "velocity": 0.031496062992125984
        },
        {
          "duration": 0.1243489583333286,
          "durationTicks": 191,
          "midi": 62,
          "name": "D4",
          "ticks": 131322,
          "time": 85.49609375,
          "velocity": 0.1968503937007874
        },
        {
          "duration": 0.25,
          "durationTicks": 384,
          "midi": 66,
          "name": "F#4",
          "ticks": 131508,
          "time": 85.6171875,
          "velocity": 0.3858267716535433
        },
        {
          "duration": 0.2493489583333286,
          "durationTicks": 383,
          "midi": 62,
          "name": "D4",
          "ticks": 131511,
          "time": 85.619140625,
          "velocity": 0.44881889763779526
        },
        {
          "duration": 0.2493489583333286,
          "durationTicks": 383,
          "midi": 59,
          "name": "B3",
          "ticks": 131512,
          "time": 85.61979166666667,
          "velocity": 0.3937007874015748
        },
        {
          "duration": 0.2493489583333286,
          "durationTicks": 383,
          "midi": 71,
          "name": "B4",
          "ticks": 131523,
          "time": 85.626953125,
          "velocity": 0.2440944881889764
        },
        {
          "duration": 0.1243489583333286,
          "durationTicks": 191,
          "midi": 62,
          "name": "D4",
          "ticks": 131878,
          "time": 85.85807291666667,
          "velocity": 0.2283464566929134
        },
        {
          "duration": 0.125,
          "durationTicks": 192,
          "midi": 66,
          "name": "F#4",
          "ticks": 131894,
          "time": 85.86848958333333,
          "velocity": 0.2125984251968504
        },
        {
          "duration": 0.125,
          "durationTicks": 192,
          "midi": 59,
          "name": "B3",
          "ticks": 131901,
          "time": 85.873046875,
          "velocity": 0.2677165354330709
        },
        {
          "duration": 0.125,
          "durationTicks": 192,
          "midi": 71,
          "name": "B4",
          "ticks": 131904,
          "time": 85.875,
          "velocity": 0.08661417322834646
        },
        {
          "duration": 0.3743489583333286,
          "durationTicks": 575,
          "midi": 62,
          "name": "D4",
          "ticks": 132079,
          "time": 85.98893229166667,
          "velocity": 0.4330708661417323
        },
        {
          "duration": 0.3743489583333286,
          "durationTicks": 575,
          "midi": 71,
          "name": "B4",
          "ticks": 132082,
          "time": 85.99088541666667,
          "velocity": 0.30708661417322836
        },
        {
          "duration": 0.3743489583333428,
          "durationTicks": 575,
          "midi": 59,
          "name": "B3",
          "ticks": 132086,
          "time": 85.99348958333333,
          "velocity": 0.3779527559055118
        },
        {
          "duration": 0.3743489583333286,
          "durationTicks": 575,
          "midi": 61,
          "name": "C#4",
          "ticks": 132088,
          "time": 85.99479166666667,
          "velocity": 0.07874015748031496
        },
        {
          "duration": 0.3743489583333286,
          "durationTicks": 575,
          "midi": 66,
          "name": "F#4",
          "ticks": 132100,
          "time": 86.00260416666667,
          "velocity": 0.4015748031496063
        },
        {
          "duration": 0.3743489583333428,
          "durationTicks": 575,
          "midi": 59,
          "name": "B3",
          "ticks": 132833,
          "time": 86.47981770833333,
          "velocity": 0.41732283464566927
        },
        {
          "duration": 0.3743489583333428,
          "durationTicks": 575,
          "midi": 66,
          "name": "F#4",
          "ticks": 132839,
          "time": 86.48372395833333,
          "velocity": 0.36220472440944884
        },
        {
          "duration": 0.3743489583333428,
          "durationTicks": 575,
          "midi": 61,
          "name": "C#4",
          "ticks": 132839,
          "time": 86.48372395833333,
          "velocity": 0.10236220472440945
        },
        {
          "duration": 0.3743489583333428,
          "durationTicks": 575,
          "midi": 71,
          "name": "B4",
          "ticks": 132839,
          "time": 86.48372395833333,
          "velocity": 0.2125984251968504
        },
        {
          "duration": 0.3736979166666572,
          "durationTicks": 574,
          "midi": 62,
          "name": "D4",
          "ticks": 132859,
          "time": 86.49674479166667,
          "velocity": 0.31496062992125984
        },
        {
          "duration": 0.1243489583333286,
          "durationTicks": 191,
          "midi": 59,
          "name": "B3",
          "ticks": 133423,
          "time": 86.86393229166667,
          "velocity": 0.3543307086614173
        },
        {
          "duration": 0.12434895833334281,
          "durationTicks": 191,
          "midi": 64,
          "name": "E4",
          "ticks": 133427,
          "time": 86.86653645833333,
          "velocity": 0.29133858267716534
        },
        {
          "duration": 0.1243489583333286,
          "durationTicks": 191,
          "midi": 71,
          "name": "B4",
          "ticks": 133428,
          "time": 86.8671875,
          "velocity": 0.2677165354330709
        },
        {
          "duration": 0.1243489583333286,
          "durationTicks": 191,
          "midi": 62,
          "name": "D4",
          "ticks": 133429,
          "time": 86.86783854166667,
          "velocity": 0.25196850393700787
        },
        {
          "duration": 0.25,
          "durationTicks": 384,
          "midi": 59,
          "name": "B3",
          "ticks": 133991,
          "time": 87.23372395833333,
          "velocity": 0.2677165354330709
        },
        {
          "duration": 0.25,
          "durationTicks": 384,
          "midi": 71,
          "name": "B4",
          "ticks": 133991,
          "time": 87.23372395833333,
          "velocity": 0.30708661417322836
        },
        {
          "duration": 0.25,
          "durationTicks": 384,
          "midi": 62,
          "name": "D4",
          "ticks": 134001,
          "time": 87.240234375,
          "velocity": 0.18110236220472442
        },
        {
          "duration": 0.25,
          "durationTicks": 384,
          "midi": 64,
          "name": "E4",
          "ticks": 134007,
          "time": 87.244140625,
          "velocity": 0.30708661417322836
        },
        {
          "duration": 0.125,
          "durationTicks": 192,
          "midi": 59,
          "name": "B3",
          "ticks": 134383,
          "time": 87.48893229166667,
          "velocity": 0.2440944881889764
        },
        {
          "duration": 0.125,
          "durationTicks": 192,
          "midi": 71,
          "name": "B4",
          "ticks": 134384,
          "time": 87.48958333333333,
          "velocity": 0.047244094488188976
        },
        {
          "duration": 0.125,
          "durationTicks": 192,
          "midi": 64,
          "name": "E4",
          "ticks": 134384,
          "time": 87.48958333333333,
          "velocity": 0.13385826771653545
        },
        {
          "duration": 0.12434895833334281,
          "durationTicks": 191,
          "midi": 62,
          "name": "D4",
          "ticks": 134393,
          "time": 87.49544270833333,
          "velocity": 0.06299212598425197
        },
        {
          "duration": 0.2493489583333286,
          "durationTicks": 383,
          "midi": 62,
          "name": "D4",
          "ticks": 134559,
          "time": 87.603515625,
          "velocity": 0.30708661417322836
        },
        {
          "duration": 0.2493489583333428,
          "durationTicks": 383,
          "midi": 71,
          "name": "B4",
          "ticks": 134573,
          "time": 87.61263020833333,
          "velocity": 0.15748031496062992
        },
        {
          "duration": 0.25,
          "durationTicks": 384,
          "midi": 59,
          "name": "B3",
          "ticks": 134576,
          "time": 87.61458333333333,
          "velocity": 0.3937007874015748
        },
        {
          "duration": 0.25,
          "durationTicks": 384,
          "midi": 64,
          "name": "E4",
          "ticks": 134581,
          "time": 87.61783854166667,
          "velocity": 0.4094488188976378
        },
        {
          "duration": 0.1256510416666714,
          "durationTicks": 193,
          "midi": 62,
          "name": "D4",
          "ticks": 134955,
          "time": 87.861328125,
          "velocity": 0.1968503937007874
        },
        {
          "duration": 0.1256510416666714,
          "durationTicks": 193,
          "midi": 59,
          "name": "B3",
          "ticks": 134957,
          "time": 87.86263020833333,
          "velocity": 0.2204724409448819
        },
        {
          "duration": 0.125,
          "durationTicks": 192,
          "midi": 71,
          "name": "B4",
          "ticks": 134968,
          "time": 87.86979166666667,
          "velocity": 0.11811023622047244
        },
        {
          "duration": 0.125,
          "durationTicks": 192,
          "midi": 64,
          "name": "E4",
          "ticks": 134981,
          "time": 87.87825520833333,
          "velocity": 0.23622047244094488
        },
        {
          "duration": 0.3125,
          "durationTicks": 480,
          "midi": 59,
          "name": "B3",
          "ticks": 135128,
          "time": 87.97395833333333,
          "velocity": 0.29133858267716534
        },
        {
          "duration": 0.3125,
          "durationTicks": 480,
          "midi": 71,
          "name": "B4",
          "ticks": 135145,
          "time": 87.98502604166667,
          "velocity": 0.2440944881889764
        },
        {
          "duration": 0.3131510416666572,
          "durationTicks": 481,
          "midi": 61,
          "name": "C#4",
          "ticks": 135148,
          "time": 87.98697916666667,
          "velocity": 0.12598425196850394
        },
        {
          "duration": 0.3131510416666714,
          "durationTicks": 481,
          "midi": 67,
          "name": "G4",
          "ticks": 135149,
          "time": 87.98763020833333,
          "velocity": 0.41732283464566927
        },
        {
          "duration": 0.3125,
          "durationTicks": 480,
          "midi": 62,
          "name": "D4",
          "ticks": 135174,
          "time": 88.00390625,
          "velocity": 0.41732283464566927
        },
        {
          "duration": 0.125,
          "durationTicks": 192,
          "midi": 59,
          "name": "B3",
          "ticks": 135703,
          "time": 88.34830729166667,
          "velocity": 0.2125984251968504
        },
        {
          "duration": 0.1243489583333286,
          "durationTicks": 191,
          "midi": 62,
          "name": "D4",
          "ticks": 135727,
          "time": 88.36393229166667,
          "velocity": 0.25196850393700787
        },
        {
          "duration": 0.12434895833334281,
          "durationTicks": 191,
          "midi": 67,
          "name": "G4",
          "ticks": 135728,
          "time": 88.36458333333333,
          "velocity": 0.23622047244094488
        },
        {
          "duration": 0.12434895833334281,
          "durationTicks": 191,
          "midi": 61,
          "name": "C#4",
          "ticks": 135728,
          "time": 88.36458333333333,
          "velocity": 0.03937007874015748
        },
        {
          "duration": 0.12434895833334281,
          "durationTicks": 191,
          "midi": 71,
          "name": "B4",
          "ticks": 135740,
          "time": 88.37239583333333,
          "velocity": 0.06299212598425197
        },
        {
          "duration": 0.3743489583333428,
          "durationTicks": 575,
          "midi": 67,
          "name": "G4",
          "ticks": 135905,
          "time": 88.47981770833333,
          "velocity": 0.4094488188976378
        },
        {
          "duration": 0.375,
          "durationTicks": 576,
          "midi": 62,
          "name": "D4",
          "ticks": 135918,
          "time": 88.48828125,
          "velocity": 0.33070866141732286
        },
        {
          "duration": 0.3756510416666572,
          "durationTicks": 577,
          "midi": 71,
          "name": "B4",
          "ticks": 135925,
          "time": 88.49283854166667,
          "velocity": 0.2047244094488189
        },
        {
          "duration": 0.3763020833333428,
          "durationTicks": 578,
          "midi": 59,
          "name": "B3",
          "ticks": 135929,
          "time": 88.49544270833333,
          "velocity": 0.36220472440944884
        },
        {
          "duration": 0.3756510416666714,
          "durationTicks": 577,
          "midi": 61,
          "name": "C#4",
          "ticks": 135935,
          "time": 88.49934895833333,
          "velocity": 0.23622047244094488
        },
        {
          "duration": 0.1263020833333428,
          "durationTicks": 194,
          "midi": 66,
          "name": "F#4",
          "ticks": 136487,
          "time": 88.85872395833333,
          "velocity": 0.11811023622047244
        },
        {
          "duration": 0.1263020833333286,
          "durationTicks": 194,
          "midi": 70,
          "name": "A#4",
          "ticks": 136488,
          "time": 88.859375,
          "velocity": 0.2283464566929134
        },
        {
          "duration": 0.1256510416666572,
          "durationTicks": 193,
          "midi": 64,
          "name": "E4",
          "ticks": 136504,
          "time": 88.86979166666667,
          "velocity": 0.36220472440944884
        },
        {
          "duration": 0.1256510416666714,
          "durationTicks": 193,
          "midi": 62,
          "name": "D4",
          "ticks": 136505,
          "time": 88.87044270833333,
          "velocity": 0.2204724409448819
        },
        {
          "duration": 0.1256510416666714,
          "durationTicks": 193,
          "midi": 58,
          "name": "A#3",
          "ticks": 136506,
          "time": 88.87109375,
          "velocity": 0.3779527559055118
        },
        {
          "duration": 0.125,
          "durationTicks": 192,
          "midi": 62,
          "name": "D4",
          "ticks": 136868,
          "time": 89.10677083333333,
          "velocity": 0.12598425196850394
        },
        {
          "duration": 0.125,
          "durationTicks": 192,
          "midi": 64,
          "name": "E4",
          "ticks": 136874,
          "time": 89.11067708333333,
          "velocity": 0.09448818897637795
        },
        {
          "duration": 0.125,
          "durationTicks": 192,
          "midi": 70,
          "name": "A#4",
          "ticks": 136881,
          "time": 89.115234375,
          "velocity": 0.07874015748031496
        },
        {
          "duration": 0.125,
          "durationTicks": 192,
          "midi": 58,
          "name": "A#3",
          "ticks": 136889,
          "time": 89.12044270833333,
          "velocity": 0.1968503937007874
        },
        {
          "duration": 0.125,
          "durationTicks": 192,
          "midi": 66,
          "name": "F#4",
          "ticks": 136903,
          "time": 89.12955729166667,
          "velocity": 0.18110236220472442
        },
        {
          "duration": 0.2493489583333286,
          "durationTicks": 383,
          "midi": 62,
          "name": "D4",
          "ticks": 137068,
          "time": 89.23697916666667,
          "velocity": 0.2283464566929134
        },
        {
          "duration": 0.2454427083333286,
          "durationTicks": 377,
          "midi": 64,
          "name": "E4",
          "ticks": 137074,
          "time": 89.24088541666667,
          "velocity": 0.12598425196850394
        },
        {
          "duration": 0.2493489583333286,
          "durationTicks": 383,
          "midi": 70,
          "name": "A#4",
          "ticks": 137077,
          "time": 89.24283854166667,
          "velocity": 0.2677165354330709
        },
        {
          "duration": 0.2493489583333428,
          "durationTicks": 383,
          "midi": 66,
          "name": "F#4",
          "ticks": 137078,
          "time": 89.24348958333333,
          "velocity": 0.4330708661417323
        },
        {
          "duration": 0.2493489583333286,
          "durationTicks": 383,
          "midi": 58,
          "name": "A#3",
          "ticks": 137091,
          "time": 89.251953125,
          "velocity": 0.2755905511811024
        },
        {
          "duration": 0.1243489583333286,
          "durationTicks": 191,
          "midi": 66,
          "name": "F#4",
          "ticks": 137445,
          "time": 89.482421875,
          "velocity": 0.1732283464566929
        },
        {
          "duration": 0.125,
          "durationTicks": 192,
          "midi": 70,
          "name": "A#4",
          "ticks": 137466,
          "time": 89.49609375,
          "velocity": 0.031496062992125984
        },
        {
          "duration": 0.125,
          "durationTicks": 192,
          "midi": 58,
          "name": "A#3",
          "ticks": 137470,
          "time": 89.49869791666667,
          "velocity": 0.14960629921259844
        },
        {
          "duration": 0.125,
          "durationTicks": 192,
          "midi": 62,
          "name": "D4",
          "ticks": 137474,
          "time": 89.50130208333333,
          "velocity": 0.07086614173228346
        },
        {
          "duration": 0.25,
          "durationTicks": 384,
          "midi": 62,
          "name": "D4",
          "ticks": 137632,
          "time": 89.60416666666667,
          "velocity": 0.18110236220472442
        },
        {
          "duration": 0.2493489583333286,
          "durationTicks": 383,
          "midi": 70,
          "name": "A#4",
          "ticks": 137640,
          "time": 89.609375,
          "velocity": 0.2440944881889764
        },
        {
          "duration": 0.2493489583333428,
          "durationTicks": 383,
          "midi": 66,
          "name": "F#4",
          "ticks": 137645,
          "time": 89.61263020833333,
          "velocity": 0.44881889763779526
        },
        {
          "duration": 0.2493489583333428,
          "durationTicks": 383,
          "midi": 64,
          "name": "E4",
          "ticks": 137648,
          "time": 89.61458333333333,
          "velocity": 0.14173228346456693
        },
        {
          "duration": 0.2493489583333286,
          "durationTicks": 383,
          "midi": 58,
          "name": "A#3",
          "ticks": 137653,
          "time": 89.61783854166667,
          "velocity": 0.41732283464566927
        },
        {
          "duration": 0.1243489583333286,
          "durationTicks": 191,
          "midi": 62,
          "name": "D4",
          "ticks": 138016,
          "time": 89.85416666666667,
          "velocity": 0.13385826771653545
        },
        {
          "duration": 0.1243489583333286,
          "durationTicks": 191,
          "midi": 58,
          "name": "A#3",
          "ticks": 138022,
          "time": 89.85807291666667,
          "velocity": 0.25984251968503935
        },
        {
          "duration": 0.12434895833334281,
          "durationTicks": 191,
          "midi": 70,
          "name": "A#4",
          "ticks": 138035,
          "time": 89.86653645833333,
          "velocity": 0.14173228346456693
        },
        {
          "duration": 0.12434895833334281,
          "durationTicks": 191,
          "midi": 64,
          "name": "E4",
          "ticks": 138038,
          "time": 89.86848958333333,
          "velocity": 0.031496062992125984
        },
        {
          "duration": 0.1243489583333286,
          "durationTicks": 191,
          "midi": 66,
          "name": "F#4",
          "ticks": 138046,
          "time": 89.87369791666667,
          "velocity": 0.2677165354330709
        },
        {
          "duration": 0.375,
          "durationTicks": 576,
          "midi": 69,
          "name": "A4",
          "ticks": 138215,
          "time": 89.98372395833333,
          "velocity": 0.1968503937007874
        },
        {
          "duration": 0.375,
          "durationTicks": 576,
          "midi": 57,
          "name": "A3",
          "ticks": 138216,
          "time": 89.984375,
          "velocity": 0.3937007874015748
        },
        {
          "duration": 0.375,
          "durationTicks": 576,
          "midi": 64,
          "name": "E4",
          "ticks": 138230,
          "time": 89.99348958333333,
          "velocity": 0.4645669291338583
        },
        {
          "duration": 0.375,
          "durationTicks": 576,
          "midi": 59,
          "name": "B3",
          "ticks": 138233,
          "time": 89.99544270833333,
          "velocity": 0.2047244094488189
        },
        {
          "duration": 0.375,
          "durationTicks": 576,
          "midi": 60,
          "name": "C4",
          "ticks": 138234,
          "time": 89.99609375,
          "velocity": 0.31496062992125984
        },
        {
          "duration": 0.3756510416666714,
          "durationTicks": 577,
          "midi": 60,
          "name": "C4",
          "ticks": 138986,
          "time": 90.48567708333333,
          "velocity": 0.36220472440944884
        },
        {
          "duration": 0.3756510416666572,
          "durationTicks": 577,
          "midi": 57,
          "name": "A3",
          "ticks": 138988,
          "time": 90.48697916666667,
          "velocity": 0.41732283464566927
        },
        {
          "duration": 0.3756510416666714,
          "durationTicks": 577,
          "midi": 59,
          "name": "B3",
          "ticks": 138990,
          "time": 90.48828125,
          "velocity": 0.2125984251968504
        },
        {
          "duration": 0.3756510416666714,
          "durationTicks": 577,
          "midi": 64,
          "name": "E4",
          "ticks": 138992,
          "time": 90.48958333333333,
          "velocity": 0.2440944881889764
        },
        {
          "duration": 0.3756510416666572,
          "durationTicks": 577,
          "midi": 69,
          "name": "A4",
          "ticks": 138994,
          "time": 90.49088541666667,
          "velocity": 0.16535433070866143
        },
        {
          "duration": 0.125,
          "durationTicks": 192,
          "midi": 55,
          "name": "G3",
          "ticks": 139567,
          "time": 90.86393229166667,
          "velocity": 0.4330708661417323
        },
        {
          "duration": 0.125,
          "durationTicks": 192,
          "midi": 67,
          "name": "G4",
          "ticks": 139569,
          "time": 90.865234375,
          "velocity": 0.2204724409448819
        },
        {
          "duration": 0.125,
          "durationTicks": 192,
          "midi": 63,
          "name": "D#4",
          "ticks": 139573,
          "time": 90.86783854166667,
          "velocity": 0.3464566929133858
        },
        {
          "duration": 0.125,
          "durationTicks": 192,
          "midi": 59,
          "name": "B3",
          "ticks": 139580,
          "time": 90.87239583333333,
          "velocity": 0.4015748031496063
        },
        {
          "duration": 0.125,
          "durationTicks": 192,
          "midi": 61,
          "name": "C#4",
          "ticks": 139587,
          "time": 90.876953125,
          "velocity": 0.23622047244094488
        },
        {
          "duration": 0.2506510416666714,
          "durationTicks": 385,
          "midi": 55,
          "name": "G3",
          "ticks": 140133,
          "time": 91.232421875,
          "velocity": 0.2677165354330709
        },
        {
          "duration": 0.25,
          "durationTicks": 384,
          "midi": 59,
          "name": "B3",
          "ticks": 140138,
          "time": 91.23567708333333,
          "velocity": 0.4409448818897638
        },
        {
          "duration": 0.25,
          "durationTicks": 384,
          "midi": 63,
          "name": "D#4",
          "ticks": 140144,
          "time": 91.23958333333333,
          "velocity": 0.4566929133858268
        },
        {
          "duration": 0.25,
          "durationTicks": 384,
          "midi": 67,
          "name": "G4",
          "ticks": 140145,
          "time": 91.240234375,
          "velocity": 0.16535433070866143
        },
        {
          "duration": 0.2493489583333428,
          "durationTicks": 383,
          "midi": 61,
          "name": "C#4",
          "ticks": 140147,
          "time": 91.24153645833333,
          "velocity": 0.14173228346456693
        },
        {
          "duration": 0.125,
          "durationTicks": 192,
          "midi": 56,
          "name": "G#3",
          "ticks": 140515,
          "time": 91.48111979166667,
          "velocity": 0.1968503937007874
        },
        {
          "duration": 0.1256510416666714,
          "durationTicks": 193,
          "midi": 67,
          "name": "G4",
          "ticks": 140520,
          "time": 91.484375,
          "velocity": 0.03937007874015748
        },
        {
          "duration": 0.1263020833333286,
          "durationTicks": 194,
          "midi": 63,
          "name": "D#4",
          "ticks": 140529,
          "time": 91.490234375,
          "velocity": 0.14960629921259844
        },
        {
          "duration": 0.1263020833333428,
          "durationTicks": 194,
          "midi": 59,
          "name": "B3",
          "ticks": 140534,
          "time": 91.49348958333333,
          "velocity": 0.1889763779527559
        },
        {
          "duration": 0.2513020833333286,
          "durationTicks": 386,
          "midi": 55,
          "name": "G3",
          "ticks": 140718,
          "time": 91.61328125,
          "velocity": 0.33070866141732286
        },
        {
          "duration": 0.0026041666666714036,
          "durationTicks": 4,
          "midi": 61,
          "name": "C#4",
          "ticks": 140720,
          "time": 91.61458333333333,
          "velocity": 0.16535433070866143
        },
        {
          "duration": 0.2513020833333286,
          "durationTicks": 386,
          "midi": 63,
          "name": "D#4",
          "ticks": 140722,
          "time": 91.61588541666667,
          "velocity": 0.4330708661417323
        },
        {
          "duration": 0.25,
          "durationTicks": 384,
          "midi": 67,
          "name": "G4",
          "ticks": 140729,
          "time": 91.62044270833333,
          "velocity": 0.2204724409448819
        },
        {
          "duration": 0.25,
          "durationTicks": 384,
          "midi": 59,
          "name": "B3",
          "ticks": 140731,
          "time": 91.62174479166667,
          "velocity": 0.3858267716535433
        },
        {
          "duration": 0.125,
          "durationTicks": 192,
          "midi": 63,
          "name": "D#4",
          "ticks": 141087,
          "time": 91.853515625,
          "velocity": 0.30708661417322836
        },
        {
          "duration": 0.125,
          "durationTicks": 192,
          "midi": 67,
          "name": "G4",
          "ticks": 141106,
          "time": 91.86588541666667,
          "velocity": 0.11811023622047244
        },
        {
          "duration": 0.125,
          "durationTicks": 192,
          "midi": 59,
          "name": "B3",
          "ticks": 141109,
          "time": 91.86783854166667,
          "velocity": 0.2440944881889764
        },
        {
          "duration": 0.125,
          "durationTicks": 192,
          "midi": 55,
          "name": "G3",
          "ticks": 141109,
          "time": 91.86783854166667,
          "velocity": 0.2677165354330709
        },
        {
          "duration": 0.125,
          "durationTicks": 192,
          "midi": 61,
          "name": "C#4",
          "ticks": 141114,
          "time": 91.87109375,
          "velocity": 0.07874015748031496
        },
        {
          "duration": 0.375,
          "durationTicks": 576,
          "midi": 55,
          "name": "G3",
          "ticks": 141293,
          "time": 91.98763020833333,
          "velocity": 0.3937007874015748
        },
        {
          "duration": 0.375,
          "durationTicks": 576,
          "midi": 62,
          "name": "D4",
          "ticks": 141296,
          "time": 91.98958333333333,
          "velocity": 0.30708661417322836
        },
        {
          "duration": 0.375,
          "durationTicks": 576,
          "midi": 58,
          "name": "A#3",
          "ticks": 141298,
          "time": 91.99088541666667,
          "velocity": 0.23622047244094488
        },
        {
          "duration": 0.375,
          "durationTicks": 576,
          "midi": 67,
          "name": "G4",
          "ticks": 141300,
          "time": 91.9921875,
          "velocity": 0.2125984251968504
        },
        {
          "duration": 0.375,
          "durationTicks": 576,
          "midi": 57,
          "name": "A3",
          "ticks": 141306,
          "time": 91.99609375,
          "velocity": 0.36220472440944884
        },
        {
          "duration": 0.375,
          "durationTicks": 576,
          "midi": 67,
          "name": "G4",
          "ticks": 142044,
          "time": 92.4765625,
          "velocity": 0.1732283464566929
        },
        {
          "duration": 0.375,
          "durationTicks": 576,
          "midi": 55,
          "name": "G3",
          "ticks": 142061,
          "time": 92.48763020833333,
          "velocity": 0.25196850393700787
        },
        {
          "duration": 0.375,
          "durationTicks": 576,
          "midi": 58,
          "name": "A#3",
          "ticks": 142063,
          "time": 92.48893229166667,
          "velocity": 0.2755905511811024
        },
        {
          "duration": 0.375,
          "durationTicks": 576,
          "midi": 62,
          "name": "D4",
          "ticks": 142063,
          "time": 92.48893229166667,
          "velocity": 0.33858267716535434
        },
        {
          "duration": 0.3743489583333286,
          "durationTicks": 575,
          "midi": 57,
          "name": "A3",
          "ticks": 142075,
          "time": 92.49674479166667,
          "velocity": 0.33070866141732286
        },
        {
          "duration": 0.12434895833334281,
          "durationTicks": 191,
          "midi": 62,
          "name": "D4",
          "ticks": 142625,
          "time": 92.85481770833333,
          "velocity": 0.33070866141732286
        },
        {
          "duration": 0.1243489583333286,
          "durationTicks": 191,
          "midi": 55,
          "name": "G3",
          "ticks": 142629,
          "time": 92.857421875,
          "velocity": 0.3543307086614173
        },
        {
          "duration": 0.1243489583333286,
          "durationTicks": 191,
          "midi": 67,
          "name": "G4",
          "ticks": 142638,
          "time": 92.86328125,
          "velocity": 0.2283464566929134
        },
        {
          "duration": 0.1243489583333286,
          "durationTicks": 191,
          "midi": 58,
          "name": "A#3",
          "ticks": 142639,
          "time": 92.86393229166667,
          "velocity": 0.3228346456692913
        },
        {
          "duration": 0.2493489583333286,
          "durationTicks": 383,
          "midi": 62,
          "name": "D4",
          "ticks": 143203,
          "time": 93.23111979166667,
          "velocity": 0.4015748031496063
        },
        {
          "duration": 0.2493489583333286,
          "durationTicks": 383,
          "midi": 55,
          "name": "G3",
          "ticks": 143209,
          "time": 93.23502604166667,
          "velocity": 0.3464566929133858
        },
        {
          "duration": 0.2493489583333428,
          "durationTicks": 383,
          "midi": 67,
          "name": "G4",
          "ticks": 143210,
          "time": 93.23567708333333,
          "velocity": 0.23622047244094488
        },
        {
          "duration": 0.2493489583333286,
          "durationTicks": 383,
          "midi": 58,
          "name": "A#3",
          "ticks": 143220,
          "time": 93.2421875,
          "velocity": 0.29133858267716534
        },
        {
          "duration": 0.125,
          "durationTicks": 192,
          "midi": 67,
          "name": "G4",
          "ticks": 143595,
          "time": 93.486328125,
          "velocity": 0.023622047244094488
        },
        {
          "duration": 0.1243489583333286,
          "durationTicks": 191,
          "midi": 55,
          "name": "G3",
          "ticks": 143604,
          "time": 93.4921875,
          "velocity": 0.14960629921259844
        },
        {
          "duration": 0.1243489583333286,
          "durationTicks": 191,
          "midi": 58,
          "name": "A#3",
          "ticks": 143608,
          "time": 93.49479166666667,
          "velocity": 0.1732283464566929
        },
        {
          "duration": 0.1243489583333286,
          "durationTicks": 191,
          "midi": 62,
          "name": "D4",
          "ticks": 143611,
          "time": 93.49674479166667,
          "velocity": 0.2047244094488189
        },
        {
          "duration": 0.2493489583333286,
          "durationTicks": 383,
          "midi": 58,
          "name": "A#3",
          "ticks": 143785,
          "time": 93.61002604166667,
          "velocity": 0.36220472440944884
        },
        {
          "duration": 0.25,
          "durationTicks": 384,
          "midi": 67,
          "name": "G4",
          "ticks": 143788,
          "time": 93.61197916666667,
          "velocity": 0.2677165354330709
        },
        {
          "duration": 0.25,
          "durationTicks": 384,
          "midi": 62,
          "name": "D4",
          "ticks": 143793,
          "time": 93.615234375,
          "velocity": 0.30708661417322836
        },
        {
          "duration": 0.2493489583333286,
          "durationTicks": 383,
          "midi": 55,
          "name": "G3",
          "ticks": 143802,
          "time": 93.62109375,
          "velocity": 0.25984251968503935
        },
        {
          "duration": 0.1243489583333286,
          "durationTicks": 191,
          "midi": 67,
          "name": "G4",
          "ticks": 144163,
          "time": 93.85611979166667,
          "velocity": 0.12598425196850394
        },
        {
          "duration": 0.1243489583333286,
          "durationTicks": 191,
          "midi": 58,
          "name": "A#3",
          "ticks": 144172,
          "time": 93.86197916666667,
          "velocity": 0.23622047244094488
        },
        {
          "duration": 0.125,
          "durationTicks": 192,
          "midi": 62,
          "name": "D4",
          "ticks": 144180,
          "time": 93.8671875,
          "velocity": 0.2677165354330709
        },
        {
          "duration": 0.125,
          "durationTicks": 192,
          "midi": 55,
          "name": "G3",
          "ticks": 144187,
          "time": 93.87174479166667,
          "velocity": 0.2125984251968504
        },
        {
          "duration": 0.375,
          "durationTicks": 576,
          "midi": 57,
          "name": "A3",
          "ticks": 144359,
          "time": 93.98372395833333,
          "velocity": 0.08661417322834646
        },
        {
          "duration": 0.375,
          "durationTicks": 576,
          "midi": 67,
          "name": "G4",
          "ticks": 144361,
          "time": 93.98502604166667,
          "velocity": 0.1968503937007874
        },
        {
          "duration": 0.3743489583333286,
          "durationTicks": 575,
          "midi": 58,
          "name": "A#3",
          "ticks": 144364,
          "time": 93.98697916666667,
          "velocity": 0.4094488188976378
        },
        {
          "duration": 0.3743489583333428,
          "durationTicks": 575,
          "midi": 55,
          "name": "G3",
          "ticks": 144371,
          "time": 93.99153645833333,
          "velocity": 0.28346456692913385
        },
        {
          "duration": 0.3743489583333286,
          "durationTicks": 575,
          "midi": 62,
          "name": "D4",
          "ticks": 144381,
          "time": 93.998046875,
          "velocity": 0.4251968503937008
        },
        {
          "duration": 0.375,
          "durationTicks": 576,
          "midi": 55,
          "name": "G3",
          "ticks": 145116,
          "time": 94.4765625,
          "velocity": 0.33858267716535434
        },
        {
          "duration": 0.375,
          "durationTicks": 576,
          "midi": 57,
          "name": "A3",
          "ticks": 145127,
          "time": 94.48372395833333,
          "velocity": 0.07874015748031496
        },
        {
          "duration": 0.375,
          "durationTicks": 576,
          "midi": 62,
          "name": "D4",
          "ticks": 145129,
          "time": 94.48502604166667,
          "velocity": 0.4094488188976378
        },
        {
          "duration": 0.3743489583333428,
          "durationTicks": 575,
          "midi": 58,
          "name": "A#3",
          "ticks": 145136,
          "time": 94.48958333333333,
          "velocity": 0.4881889763779528
        },
        {
          "duration": 0.375,
          "durationTicks": 576,
          "midi": 67,
          "name": "G4",
          "ticks": 145145,
          "time": 94.49544270833333,
          "velocity": 0.2047244094488189
        },
        {
          "duration": 0.125,
          "durationTicks": 192,
          "midi": 60,
          "name": "C4",
          "ticks": 145703,
          "time": 94.85872395833333,
          "velocity": 0.3228346456692913
        },
        {
          "duration": 0.1256510416666714,
          "durationTicks": 193,
          "midi": 55,
          "name": "G3",
          "ticks": 145710,
          "time": 94.86328125,
          "velocity": 0.5433070866141733
        },
        {
          "duration": 0.1256510416666714,
          "durationTicks": 193,
          "midi": 67,
          "name": "G4",
          "ticks": 145710,
          "time": 94.86328125,
          "velocity": 0.2992125984251969
        },
        {
          "duration": 0.1256510416666572,
          "durationTicks": 193,
          "midi": 58,
          "name": "A#3",
          "ticks": 145717,
          "time": 94.86783854166667,
          "velocity": 0.14173228346456693
        },
        {
          "duration": 0.2506510416666572,
          "durationTicks": 385,
          "midi": 67,
          "name": "G4",
          "ticks": 146278,
          "time": 95.23307291666667,
          "velocity": 0.18110236220472442
        },
        {
          "duration": 0.2506510416666714,
          "durationTicks": 385,
          "midi": 55,
          "name": "G3",
          "ticks": 146280,
          "time": 95.234375,
          "velocity": 0.3700787401574803
        },
        {
          "duration": 0.2506510416666714,
          "durationTicks": 385,
          "midi": 58,
          "name": "A#3",
          "ticks": 146286,
          "time": 95.23828125,
          "velocity": 0.2204724409448819
        },
        {
          "duration": 0.25,
          "durationTicks": 384,
          "midi": 60,
          "name": "C4",
          "ticks": 146294,
          "time": 95.24348958333333,
          "velocity": 0.5196850393700787
        },
        {
          "duration": 0.1243489583333286,
          "durationTicks": 191,
          "midi": 58,
          "name": "A#3",
          "ticks": 146664,
          "time": 95.484375,
          "velocity": 0.07874015748031496
        },
        {
          "duration": 0.1243489583333286,
          "durationTicks": 191,
          "midi": 55,
          "name": "G3",
          "ticks": 146671,
          "time": 95.48893229166667,
          "velocity": 0.18110236220472442
        },
        {
          "duration": 0.1243489583333286,
          "durationTicks": 191,
          "midi": 60,
          "name": "C4",
          "ticks": 146676,
          "time": 95.4921875,
          "velocity": 0.18110236220472442
        },
        {
          "duration": 0.12434895833334281,
          "durationTicks": 191,
          "midi": 67,
          "name": "G4",
          "ticks": 146690,
          "time": 95.50130208333333,
          "velocity": 0.031496062992125984
        },
        {
          "duration": 0.2493489583333286,
          "durationTicks": 383,
          "midi": 67,
          "name": "G4",
          "ticks": 146862,
          "time": 95.61328125,
          "velocity": 0.2755905511811024
        },
        {
          "duration": 0.25,
          "durationTicks": 384,
          "midi": 60,
          "name": "C4",
          "ticks": 146863,
          "time": 95.61393229166667,
          "velocity": 0.4330708661417323
        },
        {
          "duration": 0.25,
          "durationTicks": 384,
          "midi": 55,
          "name": "G3",
          "ticks": 146870,
          "time": 95.61848958333333,
          "velocity": 0.3858267716535433
        },
        {
          "duration": 0.25,
          "durationTicks": 384,
          "midi": 58,
          "name": "A#3",
          "ticks": 146876,
          "time": 95.62239583333333,
          "velocity": 0.25196850393700787
        },
        {
          "duration": 0.1243489583333286,
          "durationTicks": 191,
          "midi": 58,
          "name": "A#3",
          "ticks": 147234,
          "time": 95.85546875,
          "velocity": 0.16535433070866143
        },
        {
          "duration": 0.1243489583333286,
          "durationTicks": 191,
          "midi": 67,
          "name": "G4",
          "ticks": 147238,
          "time": 95.85807291666667,
          "velocity": 0.10236220472440945
        },
        {
          "duration": 0.12434895833334281,
          "durationTicks": 191,
          "midi": 55,
          "name": "G3",
          "ticks": 147251,
          "time": 95.86653645833333,
          "velocity": 0.23622047244094488
        },
        {
          "duration": 0.125,
          "durationTicks": 192,
          "midi": 60,
          "name": "C4",
          "ticks": 147265,
          "time": 95.87565104166667,
          "velocity": 0.33070866141732286
        },
        {
          "duration": 0.3131510416666714,
          "durationTicks": 481,
          "midi": 65,
          "name": "F4",
          "ticks": 147435,
          "time": 95.986328125,
          "velocity": 0.33070866141732286
        },
        {
          "duration": 0.3131510416666714,
          "durationTicks": 481,
          "midi": 60,
          "name": "C4",
          "ticks": 147437,
          "time": 95.98763020833333,
          "velocity": 0.3858267716535433
        },
        {
          "duration": 0.3125,
          "durationTicks": 480,
          "midi": 67,
          "name": "G4",
          "ticks": 147444,
          "time": 95.9921875,
          "velocity": 0.14173228346456693
        },
        {
          "duration": 0.3125,
          "durationTicks": 480,
          "midi": 53,
          "name": "F3",
          "ticks": 147446,
          "time": 95.99348958333333,
          "velocity": 0.33070866141732286
        },
        {
          "duration": 0.3125,
          "durationTicks": 480,
          "midi": 68,
          "name": "G#4",
          "ticks": 147452,
          "time": 95.99739583333333,
          "velocity": 0.2204724409448819
        },
        {
          "duration": 0.125,
          "durationTicks": 192,
          "midi": 65,
          "name": "F4",
          "ticks": 147995,
          "time": 96.35091145833333,
          "velocity": 0.05511811023622047
        },
        {
          "duration": 0.125,
          "durationTicks": 192,
          "midi": 53,
          "name": "F3",
          "ticks": 148011,
          "time": 96.361328125,
          "velocity": 0.2992125984251969
        },
        {
          "duration": 0.125,
          "durationTicks": 192,
          "midi": 68,
          "name": "G#4",
          "ticks": 148016,
          "time": 96.36458333333333,
          "velocity": 0.3464566929133858
        },
        {
          "duration": 0.125,
          "durationTicks": 192,
          "midi": 60,
          "name": "C4",
          "ticks": 148022,
          "time": 96.36848958333333,
          "velocity": 0.16535433070866143
        },
        {
          "duration": 0.125,
          "durationTicks": 192,
          "midi": 67,
          "name": "G4",
          "ticks": 148027,
          "time": 96.37174479166667,
          "velocity": 0.023622047244094488
        },
        {
          "duration": 0.375,
          "durationTicks": 576,
          "midi": 53,
          "name": "F3",
          "ticks": 148189,
          "time": 96.47721354166667,
          "velocity": 0.3700787401574803
        },
        {
          "duration": 0.375,
          "durationTicks": 576,
          "midi": 60,
          "name": "C4",
          "ticks": 148199,
          "time": 96.48372395833333,
          "velocity": 0.2992125984251969
        },
        {
          "duration": 0.375,
          "durationTicks": 576,
          "midi": 68,
          "name": "G#4",
          "ticks": 148207,
          "time": 96.48893229166667,
          "velocity": 0.4566929133858268
        },
        {
          "duration": 0.375,
          "durationTicks": 576,
          "midi": 65,
          "name": "F4",
          "ticks": 148210,
          "time": 96.49088541666667,
          "velocity": 0.3779527559055118
        },
        {
          "duration": 0.375,
          "durationTicks": 576,
          "midi": 67,
          "name": "G4",
          "ticks": 148217,
          "time": 96.49544270833333,
          "velocity": 0.2047244094488189
        },
        {
          "duration": 0.125,
          "durationTicks": 192,
          "midi": 65,
          "name": "F4",
          "ticks": 148781,
          "time": 96.86263020833333,
          "velocity": 0.2204724409448819
        },
        {
          "duration": 0.125,
          "durationTicks": 192,
          "midi": 53,
          "name": "F3",
          "ticks": 148782,
          "time": 96.86328125,
          "velocity": 0.4251968503937008
        },
        {
          "duration": 0.125,
          "durationTicks": 192,
          "midi": 60,
          "name": "C4",
          "ticks": 148782,
          "time": 96.86328125,
          "velocity": 0.2677165354330709
        },
        {
          "duration": 0.125,
          "durationTicks": 192,
          "midi": 68,
          "name": "G#4",
          "ticks": 148788,
          "time": 96.8671875,
          "velocity": 0.13385826771653545
        },
        {
          "duration": 0.2506510416666572,
          "durationTicks": 385,
          "midi": 53,
          "name": "F3",
          "ticks": 149338,
          "time": 97.22526041666667,
          "velocity": 0.4645669291338583
        },
        {
          "duration": 0.2506510416666572,
          "durationTicks": 385,
          "midi": 68,
          "name": "G#4",
          "ticks": 149341,
          "time": 97.22721354166667,
          "velocity": 0.2283464566929134
        },
        {
          "duration": 0.2506510416666572,
          "durationTicks": 385,
          "midi": 65,
          "name": "F4",
          "ticks": 149347,
          "time": 97.23111979166667,
          "velocity": 0.2047244094488189
        },
        {
          "duration": 0.2506510416666572,
          "durationTicks": 385,
          "midi": 60,
          "name": "C4",
          "ticks": 149368,
          "time": 97.24479166666667,
          "velocity": 0.3543307086614173
        },
        {
          "duration": 0.125,
          "durationTicks": 192,
          "midi": 53,
          "name": "F3",
          "ticks": 149737,
          "time": 97.48502604166667,
          "velocity": 0.15748031496062992
        },
        {
          "duration": 0.125,
          "durationTicks": 192,
          "midi": 65,
          "name": "F4",
          "ticks": 149737,
          "time": 97.48502604166667,
          "velocity": 0.047244094488188976
        },
        {
          "duration": 0.125,
          "durationTicks": 192,
          "midi": 60,
          "name": "C4",
          "ticks": 149748,
          "time": 97.4921875,
          "velocity": 0.2283464566929134
        },
        {
          "duration": 0.1256510416666572,
          "durationTicks": 193,
          "midi": 68,
          "name": "G#4",
          "ticks": 149758,
          "time": 97.49869791666667,
          "velocity": 0.08661417322834646
        },
        {
          "duration": 0.25,
          "durationTicks": 384,
          "midi": 60,
          "name": "C4",
          "ticks": 149923,
          "time": 97.60611979166667,
          "velocity": 0.5354330708661418
        },
        {
          "duration": 0.25,
          "durationTicks": 384,
          "midi": 65,
          "name": "F4",
          "ticks": 149943,
          "time": 97.619140625,
          "velocity": 0.2992125984251969
        },
        {
          "duration": 0.25,
          "durationTicks": 384,
          "midi": 68,
          "name": "G#4",
          "ticks": 149945,
          "time": 97.62044270833333,
          "velocity": 0.18110236220472442
        },
        {
          "duration": 0.25,
          "durationTicks": 384,
          "midi": 53,
          "name": "F3",
          "ticks": 149955,
          "time": 97.626953125,
          "velocity": 0.33070866141732286
        },
        {
          "duration": 0.125,
          "durationTicks": 192,
          "midi": 60,
          "name": "C4",
          "ticks": 150298,
          "time": 97.85026041666667,
          "velocity": 0.2755905511811024
        },
        {
          "duration": 0.125,
          "durationTicks": 192,
          "midi": 65,
          "name": "F4",
          "ticks": 150300,
          "time": 97.8515625,
          "velocity": 0.12598425196850394
        },
        {
          "duration": 0.125,
          "durationTicks": 192,
          "midi": 68,
          "name": "G#4",
          "ticks": 150326,
          "time": 97.86848958333333,
          "velocity": 0.16535433070866143
        },
        {
          "duration": 0.125,
          "durationTicks": 192,
          "midi": 53,
          "name": "F3",
          "ticks": 150330,
          "time": 97.87109375,
          "velocity": 0.1889763779527559
        },
        {
          "duration": 0.3131510416666572,
          "durationTicks": 481,
          "midi": 67,
          "name": "G4",
          "ticks": 150502,
          "time": 97.98307291666667,
          "velocity": 0.25196850393700787
        },
        {
          "duration": 0.3131510416666714,
          "durationTicks": 481,
          "midi": 65,
          "name": "F4",
          "ticks": 150506,
          "time": 97.98567708333333,
          "velocity": 0.08661417322834646
        },
        {
          "duration": 0.3131510416666714,
          "durationTicks": 481,
          "midi": 53,
          "name": "F3",
          "ticks": 150516,
          "time": 97.9921875,
          "velocity": 0.4251968503937008
        },
        {
          "duration": 0.3131510416666572,
          "durationTicks": 481,
          "midi": 60,
          "name": "C4",
          "ticks": 150517,
          "time": 97.99283854166667,
          "velocity": 0.25984251968503935
        },
        {
          "duration": 0.3131510416666714,
          "durationTicks": 481,
          "midi": 62,
          "name": "D4",
          "ticks": 150524,
          "time": 97.99739583333333,
          "velocity": 0.06299212598425197
        },
        {
          "duration": 0.1243489583333286,
          "durationTicks": 191,
          "midi": 53,
          "name": "F3",
          "ticks": 151080,
          "time": 98.359375,
          "velocity": 0.1889763779527559
        },
        {
          "duration": 0.1243489583333286,
          "durationTicks": 191,
          "midi": 60,
          "name": "C4",
          "ticks": 151083,
          "time": 98.361328125,
          "velocity": 0.1732283464566929
        },
        {
          "duration": 0.1243489583333286,
          "durationTicks": 191,
          "midi": 62,
          "name": "D4",
          "ticks": 151089,
          "time": 98.365234375,
          "velocity": 0.08661417322834646
        },
        {
          "duration": 0.125,
          "durationTicks": 192,
          "midi": 67,
          "name": "G4",
          "ticks": 151097,
          "time": 98.37044270833333,
          "velocity": 0.2047244094488189
        },
        {
          "duration": 0.125,
          "durationTicks": 192,
          "midi": 65,
          "name": "F4",
          "ticks": 151109,
          "time": 98.37825520833333,
          "velocity": 0.031496062992125984
        },
        {
          "duration": 0.3756510416666572,
          "durationTicks": 577,
          "midi": 60,
          "name": "C4",
          "ticks": 151273,
          "time": 98.48502604166667,
          "velocity": 0.29133858267716534
        },
        {
          "duration": 0.3756510416666714,
          "durationTicks": 577,
          "midi": 65,
          "name": "F4",
          "ticks": 151277,
          "time": 98.48763020833333,
          "velocity": 0.08661417322834646
        },
        {
          "duration": 0.3756510416666572,
          "durationTicks": 577,
          "midi": 62,
          "name": "D4",
          "ticks": 151282,
          "time": 98.49088541666667,
          "velocity": 0.08661417322834646
        },
        {
          "duration": 0.3756510416666572,
          "durationTicks": 577,
          "midi": 67,
          "name": "G4",
          "ticks": 151282,
          "time": 98.49088541666667,
          "velocity": 0.28346456692913385
        },
        {
          "duration": 0.3756510416666714,
          "durationTicks": 577,
          "midi": 53,
          "name": "F3",
          "ticks": 151287,
          "time": 98.494140625,
          "velocity": 0.33858267716535434
        },
        {
          "duration": 0.125,
          "durationTicks": 192,
          "midi": 60,
          "name": "C4",
          "ticks": 151846,
          "time": 98.85807291666667,
          "velocity": 0.12598425196850394
        },
        {
          "duration": 0.125,
          "durationTicks": 192,
          "midi": 53,
          "name": "F3",
          "ticks": 151854,
          "time": 98.86328125,
          "velocity": 0.4094488188976378
        },
        {
          "duration": 0.125,
          "durationTicks": 192,
          "midi": 62,
          "name": "D4",
          "ticks": 151855,
          "time": 98.86393229166667,
          "velocity": 0.4094488188976378
        },
        {
          "duration": 0.125,
          "durationTicks": 192,
          "midi": 65,
          "name": "F4",
          "ticks": 151856,
          "time": 98.86458333333333,
          "velocity": 0.08661417322834646
        },
        {
          "duration": 0.125,
          "durationTicks": 192,
          "midi": 67,
          "name": "G4",
          "ticks": 151874,
          "time": 98.87630208333333,
          "velocity": 0.18110236220472442
        },
        {
          "duration": 0.25,
          "durationTicks": 384,
          "midi": 53,
          "name": "F3",
          "ticks": 152423,
          "time": 99.23372395833333,
          "velocity": 0.47244094488188976
        },
        {
          "duration": 0.2493489583333286,
          "durationTicks": 383,
          "midi": 60,
          "name": "C4",
          "ticks": 152428,
          "time": 99.23697916666667,
          "velocity": 0.14173228346456693
        },
        {
          "duration": 0.2493489583333428,
          "durationTicks": 383,
          "midi": 67,
          "name": "G4",
          "ticks": 152429,
          "time": 99.23763020833333,
          "velocity": 0.1889763779527559
        },
        {
          "duration": 0.25,
          "durationTicks": 384,
          "midi": 65,
          "name": "F4",
          "ticks": 152438,
          "time": 99.24348958333333,
          "velocity": 0.06299212598425197
        },
        {
          "duration": 0.25,
          "durationTicks": 384,
          "midi": 62,
          "name": "D4",
          "ticks": 152452,
          "time": 99.25260416666667,
          "velocity": 0.3779527559055118
        },
        {
          "duration": 0.125,
          "durationTicks": 192,
          "midi": 53,
          "name": "F3",
          "ticks": 152803,
          "time": 99.48111979166667,
          "velocity": 0.1889763779527559
        },
        {
          "duration": 0.125,
          "durationTicks": 192,
          "midi": 65,
          "name": "F4",
          "ticks": 152811,
          "time": 99.486328125,
          "velocity": 0.031496062992125984
        },
        {
          "duration": 0.125,
          "durationTicks": 192,
          "midi": 67,
          "name": "G4",
          "ticks": 152812,
          "time": 99.48697916666667,
          "velocity": 0.047244094488188976
        },
        {
          "duration": 0.125,
          "durationTicks": 192,
          "midi": 62,
          "name": "D4",
          "ticks": 152821,
          "time": 99.49283854166667,
          "velocity": 0.2755905511811024
        },
        {
          "duration": 0.2506510416666714,
          "durationTicks": 385,
          "midi": 62,
          "name": "D4",
          "ticks": 153000,
          "time": 99.609375,
          "velocity": 0.25984251968503935
        },
        {
          "duration": 0.2506510416666572,
          "durationTicks": 385,
          "midi": 65,
          "name": "F4",
          "ticks": 153001,
          "time": 99.61002604166667,
          "velocity": 0.06299212598425197
        },
        {
          "duration": 0.2506510416666572,
          "durationTicks": 385,
          "midi": 67,
          "name": "G4",
          "ticks": 153001,
          "time": 99.61002604166667,
          "velocity": 0.2204724409448819
        },
        {
          "duration": 0.0026041666666571928,
          "durationTicks": 4,
          "midi": 60,
          "name": "C4",
          "ticks": 153004,
          "time": 99.61197916666667,
          "velocity": 0.1732283464566929
        },
        {
          "duration": 0.25,
          "durationTicks": 384,
          "midi": 53,
          "name": "F3",
          "ticks": 153017,
          "time": 99.62044270833333,
          "velocity": 0.3464566929133858
        },
        {
          "duration": 0.004557291666671404,
          "durationTicks": 7,
          "midi": 60,
          "name": "C4",
          "ticks": 153381,
          "time": 99.857421875,
          "velocity": 0.07086614173228346
        },
        {
          "duration": 0.1243489583333286,
          "durationTicks": 191,
          "midi": 62,
          "name": "D4",
          "ticks": 153387,
          "time": 99.861328125,
          "velocity": 0.3464566929133858
        },
        {
          "duration": 0.1243489583333286,
          "durationTicks": 191,
          "midi": 67,
          "name": "G4",
          "ticks": 153388,
          "time": 99.86197916666667,
          "velocity": 0.14173228346456693
        },
        {
          "duration": 0.1243489583333286,
          "durationTicks": 191,
          "midi": 53,
          "name": "F3",
          "ticks": 153397,
          "time": 99.86783854166667,
          "velocity": 0.2283464566929134
        },
        {
          "duration": 0.1243489583333286,
          "durationTicks": 191,
          "midi": 65,
          "name": "F4",
          "ticks": 153399,
          "time": 99.869140625,
          "velocity": 0.031496062992125984
        },
        {
          "duration": 0.3125,
          "durationTicks": 480,
          "midi": 59,
          "name": "B3",
          "ticks": 153570,
          "time": 99.98046875,
          "velocity": 0.2125984251968504
        },
        {
          "duration": 0.3125,
          "durationTicks": 480,
          "midi": 64,
          "name": "E4",
          "ticks": 153574,
          "time": 99.98307291666667,
          "velocity": 0.25984251968503935
        },
        {
          "duration": 0.3131510416666572,
          "durationTicks": 481,
          "midi": 57,
          "name": "A3",
          "ticks": 153580,
          "time": 99.98697916666667,
          "velocity": 0.2204724409448819
        },
        {
          "duration": 0.3131510416666572,
          "durationTicks": 481,
          "midi": 67,
          "name": "G4",
          "ticks": 153580,
          "time": 99.98697916666667,
          "velocity": 0.36220472440944884
        },
        {
          "duration": 0.3131510416666714,
          "durationTicks": 481,
          "midi": 53,
          "name": "F3",
          "ticks": 153584,
          "time": 99.98958333333333,
          "velocity": 0.4015748031496063
        },
        {
          "duration": 0.125,
          "durationTicks": 192,
          "midi": 57,
          "name": "A3",
          "ticks": 154149,
          "time": 100.357421875,
          "velocity": 0.2283464566929134
        },
        {
          "duration": 0.125,
          "durationTicks": 192,
          "midi": 64,
          "name": "E4",
          "ticks": 154159,
          "time": 100.36393229166667,
          "velocity": 0.23622047244094488
        },
        {
          "duration": 0.125,
          "durationTicks": 192,
          "midi": 53,
          "name": "F3",
          "ticks": 154163,
          "time": 100.36653645833333,
          "velocity": 0.2125984251968504
        },
        {
          "duration": 0.1256510416666714,
          "durationTicks": 193,
          "midi": 67,
          "name": "G4",
          "ticks": 154166,
          "time": 100.36848958333333,
          "velocity": 0.12598425196850394
        },
        {
          "duration": 0.1256510416666572,
          "durationTicks": 193,
          "midi": 59,
          "name": "B3",
          "ticks": 154168,
          "time": 100.36979166666667,
          "velocity": 0.1889763779527559
        },
        {
          "duration": 0.375,
          "durationTicks": 576,
          "midi": 67,
          "name": "G4",
          "ticks": 154350,
          "time": 100.48828125,
          "velocity": 0.2047244094488189
        },
        {
          "duration": 0.3756510416666572,
          "durationTicks": 577,
          "midi": 64,
          "name": "E4",
          "ticks": 154354,
          "time": 100.49088541666667,
          "velocity": 0.4015748031496063
        },
        {
          "duration": 0.375,
          "durationTicks": 576,
          "midi": 59,
          "name": "B3",
          "ticks": 154357,
          "time": 100.49283854166667,
          "velocity": 0.2047244094488189
        },
        {
          "duration": 0.375,
          "durationTicks": 576,
          "midi": 57,
          "name": "A3",
          "ticks": 154358,
          "time": 100.49348958333333,
          "velocity": 0.14960629921259844
        },
        {
          "duration": 0.375,
          "durationTicks": 576,
          "midi": 53,
          "name": "F3",
          "ticks": 154369,
          "time": 100.50065104166667,
          "velocity": 0.4330708661417323
        },
        {
          "duration": 0.125,
          "durationTicks": 192,
          "midi": 59,
          "name": "B3",
          "ticks": 154917,
          "time": 100.857421875,
          "velocity": 0.2204724409448819
        },
        {
          "duration": 0.125,
          "durationTicks": 192,
          "midi": 67,
          "name": "G4",
          "ticks": 154918,
          "time": 100.85807291666667,
          "velocity": 0.08661417322834646
        },
        {
          "duration": 0.125,
          "durationTicks": 192,
          "midi": 57,
          "name": "A3",
          "ticks": 154923,
          "time": 100.861328125,
          "velocity": 0.16535433070866143
        },
        {
          "duration": 0.125,
          "durationTicks": 192,
          "midi": 53,
          "name": "F3",
          "ticks": 154930,
          "time": 100.86588541666667,
          "velocity": 0.3937007874015748
        },
        {
          "duration": 0.125,
          "durationTicks": 192,
          "midi": 64,
          "name": "E4",
          "ticks": 154938,
          "time": 100.87109375,
          "velocity": 0.25196850393700787
        },
        {
          "duration": 0.25,
          "durationTicks": 384,
          "midi": 53,
          "name": "F3",
          "ticks": 155504,
          "time": 101.23958333333333,
          "velocity": 0.4645669291338583
        },
        {
          "duration": 0.2395833333333286,
          "durationTicks": 368,
          "midi": 67,
          "name": "G4",
          "ticks": 155509,
          "time": 101.24283854166667,
          "velocity": 0.10236220472440945
        },
        {
          "duration": 0.25,
          "durationTicks": 384,
          "midi": 59,
          "name": "B3",
          "ticks": 155510,
          "time": 101.24348958333333,
          "velocity": 0.23622047244094488
        },
        {
          "duration": 0.25,
          "durationTicks": 384,
          "midi": 64,
          "name": "E4",
          "ticks": 155515,
          "time": 101.24674479166667,
          "velocity": 0.2283464566929134
        },
        {
          "duration": 0.25,
          "durationTicks": 384,
          "midi": 57,
          "name": "A3",
          "ticks": 155525,
          "time": 101.25325520833333,
          "velocity": 0.15748031496062992
        },
        {
          "duration": 0.125,
          "durationTicks": 192,
          "midi": 53,
          "name": "F3",
          "ticks": 155885,
          "time": 101.48763020833333,
          "velocity": 0.2125984251968504
        },
        {
          "duration": 0.125,
          "durationTicks": 192,
          "midi": 59,
          "name": "B3",
          "ticks": 155889,
          "time": 101.490234375,
          "velocity": 0.2047244094488189
        },
        {
          "duration": 0.125,
          "durationTicks": 192,
          "midi": 57,
          "name": "A3",
          "ticks": 155891,
          "time": 101.49153645833333,
          "velocity": 0.15748031496062992
        },
        {
          "duration": 0.125,
          "durationTicks": 192,
          "midi": 64,
          "name": "E4",
          "ticks": 155903,
          "time": 101.49934895833333,
          "velocity": 0.25196850393700787
        },
        {
          "duration": 0.2493489583333286,
          "durationTicks": 383,
          "midi": 59,
          "name": "B3",
          "ticks": 156079,
          "time": 101.61393229166667,
          "velocity": 0.1968503937007874
        },
        {
          "duration": 0.25,
          "durationTicks": 384,
          "midi": 57,
          "name": "A3",
          "ticks": 156080,
          "time": 101.61458333333333,
          "velocity": 0.1889763779527559
        },
        {
          "duration": 0.25,
          "durationTicks": 384,
          "midi": 53,
          "name": "F3",
          "ticks": 156082,
          "time": 101.61588541666667,
          "velocity": 0.3937007874015748
        },
        {
          "duration": 0.25,
          "durationTicks": 384,
          "midi": 64,
          "name": "E4",
          "ticks": 156085,
          "time": 101.61783854166667,
          "velocity": 0.28346456692913385
        },
        {
          "duration": 0.25,
          "durationTicks": 384,
          "midi": 67,
          "name": "G4",
          "ticks": 156089,
          "time": 101.62044270833333,
          "velocity": 0.12598425196850394
        },
        {
          "duration": 0.125,
          "durationTicks": 192,
          "midi": 67,
          "name": "G4",
          "ticks": 156450,
          "time": 101.85546875,
          "velocity": 0.031496062992125984
        },
        {
          "duration": 0.125,
          "durationTicks": 192,
          "midi": 53,
          "name": "F3",
          "ticks": 156452,
          "time": 101.85677083333333,
          "velocity": 0.2677165354330709
        },
        {
          "duration": 0.125,
          "durationTicks": 192,
          "midi": 57,
          "name": "A3",
          "ticks": 156457,
          "time": 101.86002604166667,
          "velocity": 0.09448818897637795
        },
        {
          "duration": 0.1243489583333286,
          "durationTicks": 191,
          "midi": 64,
          "name": "E4",
          "ticks": 156463,
          "time": 101.86393229166667,
          "velocity": 0.2440944881889764
        },
        {
          "duration": 0.1243489583333286,
          "durationTicks": 191,
          "midi": 59,
          "name": "B3",
          "ticks": 156471,
          "time": 101.869140625,
          "velocity": 0.18110236220472442
        },
        {
          "duration": 0.3125,
          "durationTicks": 480,
          "midi": 64,
          "name": "E4",
          "ticks": 156651,
          "time": 101.986328125,
          "velocity": 0.28346456692913385
        },
        {
          "duration": 0.3125,
          "durationTicks": 480,
          "midi": 57,
          "name": "A3",
          "ticks": 156651,
          "time": 101.986328125,
          "velocity": 0.15748031496062992
        },
        {
          "duration": 0.3125,
          "durationTicks": 480,
          "midi": 55,
          "name": "G3",
          "ticks": 156663,
          "time": 101.994140625,
          "velocity": 0.3858267716535433
        },
        {
          "duration": 0.3125,
          "durationTicks": 480,
          "midi": 59,
          "name": "B3",
          "ticks": 156671,
          "time": 101.99934895833333,
          "velocity": 0.15748031496062992
        },
        {
          "duration": 0.125,
          "durationTicks": 192,
          "midi": 64,
          "name": "E4",
          "ticks": 157225,
          "time": 102.36002604166667,
          "velocity": 0.2755905511811024
        },
        {
          "duration": 0.125,
          "durationTicks": 192,
          "midi": 59,
          "name": "B3",
          "ticks": 157226,
          "time": 102.36067708333333,
          "velocity": 0.14173228346456693
        },
        {
          "duration": 0.125,
          "durationTicks": 192,
          "midi": 55,
          "name": "G3",
          "ticks": 157241,
          "time": 102.37044270833333,
          "velocity": 0.2047244094488189
        },
        {
          "duration": 0.1256510416666572,
          "durationTicks": 193,
          "midi": 57,
          "name": "A3",
          "ticks": 157249,
          "time": 102.37565104166667,
          "velocity": 0.14173228346456693
        },
        {
          "duration": 0.375,
          "durationTicks": 576,
          "midi": 59,
          "name": "B3",
          "ticks": 157419,
          "time": 102.486328125,
          "velocity": 0.1968503937007874
        },
        {
          "duration": 0.3743489583333286,
          "durationTicks": 575,
          "midi": 64,
          "name": "E4",
          "ticks": 157426,
          "time": 102.49088541666667,
          "velocity": 0.1968503937007874
        },
        {
          "duration": 0.3743489583333286,
          "durationTicks": 575,
          "midi": 55,
          "name": "G3",
          "ticks": 157426,
          "time": 102.49088541666667,
          "velocity": 0.3700787401574803
        },
        {
          "duration": 0.3743489583333286,
          "durationTicks": 575,
          "midi": 57,
          "name": "A3",
          "ticks": 157440,
          "time": 102.5,
          "velocity": 0.1968503937007874
        },
        {
          "duration": 0.1243489583333286,
          "durationTicks": 191,
          "midi": 59,
          "name": "B3",
          "ticks": 157990,
          "time": 102.85807291666667,
          "velocity": 0.2755905511811024
        },
        {
          "duration": 0.1243489583333286,
          "durationTicks": 191,
          "midi": 64,
          "name": "E4",
          "ticks": 157990,
          "time": 102.85807291666667,
          "velocity": 0.30708661417322836
        },
        {
          "duration": 0.125,
          "durationTicks": 192,
          "midi": 57,
          "name": "A3",
          "ticks": 157997,
          "time": 102.86263020833333,
          "velocity": 0.2283464566929134
        },
        {
          "duration": 0.125,
          "durationTicks": 192,
          "midi": 52,
          "name": "E3",
          "ticks": 158013,
          "time": 102.873046875,
          "velocity": 0.14960629921259844
        },
        {
          "duration": 0.2506510416666714,
          "durationTicks": 385,
          "midi": 64,
          "name": "E4",
          "ticks": 158562,
          "time": 103.23046875,
          "velocity": 0.33070866141732286
        },
        {
          "duration": 0.2506510416666572,
          "durationTicks": 385,
          "midi": 52,
          "name": "E3",
          "ticks": 158578,
          "time": 103.24088541666667,
          "velocity": 0.4251968503937008
        },
        {
          "duration": 0.2506510416666714,
          "durationTicks": 385,
          "midi": 57,
          "name": "A3",
          "ticks": 158585,
          "time": 103.24544270833333,
          "velocity": 0.1889763779527559
        },
        {
          "duration": 0.2506510416666572,
          "durationTicks": 385,
          "midi": 59,
          "name": "B3",
          "ticks": 158590,
          "time": 103.24869791666667,
          "velocity": 0.16535433070866143
        },
        {
          "duration": 0.1256510416666714,
          "durationTicks": 193,
          "midi": 59,
          "name": "B3",
          "ticks": 158943,
          "time": 103.478515625,
          "velocity": 0.16535433070866143
        },
        {
          "duration": 0.1256510416666714,
          "durationTicks": 193,
          "midi": 64,
          "name": "E4",
          "ticks": 158948,
          "time": 103.48177083333333,
          "velocity": 0.15748031496062992
        },
        {
          "duration": 0.1256510416666572,
          "durationTicks": 193,
          "midi": 52,
          "name": "E3",
          "ticks": 158950,
          "time": 103.48307291666667,
          "velocity": 0.08661417322834646
        },
        {
          "duration": 0.125,
          "durationTicks": 192,
          "midi": 57,
          "name": "A3",
          "ticks": 158966,
          "time": 103.49348958333333,
          "velocity": 0.1732283464566929
        },
        {
          "duration": 0.25,
          "durationTicks": 384,
          "midi": 59,
          "name": "B3",
          "ticks": 159153,
          "time": 103.615234375,
          "velocity": 0.23622047244094488
        },
        {
          "duration": 0.25,
          "durationTicks": 384,
          "midi": 52,
          "name": "E3",
          "ticks": 159154,
          "time": 103.61588541666667,
          "velocity": 0.1889763779527559
        },
        {
          "duration": 0.25,
          "durationTicks": 384,
          "midi": 64,
          "name": "E4",
          "ticks": 159155,
          "time": 103.61653645833333,
          "velocity": 0.2440944881889764
        },
        {
          "duration": 0.2493489583333286,
          "durationTicks": 383,
          "midi": 57,
          "name": "A3",
          "ticks": 159168,
          "time": 103.625,
          "velocity": 0.2440944881889764
        },
        {
          "duration": 0.1243489583333286,
          "durationTicks": 191,
          "midi": 52,
          "name": "E3",
          "ticks": 159526,
          "time": 103.85807291666667,
          "velocity": 0.2047244094488189
        },
        {
          "duration": 0.1243489583333286,
          "durationTicks": 191,
          "midi": 59,
          "name": "B3",
          "ticks": 159531,
          "time": 103.861328125,
          "velocity": 0.23622047244094488
        },
        {
          "duration": 0.1243489583333286,
          "durationTicks": 191,
          "midi": 57,
          "name": "A3",
          "ticks": 159535,
          "time": 103.86393229166667,
          "velocity": 0.14960629921259844
        },
        {
          "duration": 0.12434895833334281,
          "durationTicks": 191,
          "midi": 64,
          "name": "E4",
          "ticks": 159536,
          "time": 103.86458333333333,
          "velocity": 0.3464566929133858
        },
        {
          "duration": 0.3118489583333428,
          "durationTicks": 479,
          "midi": 59,
          "name": "B3",
          "ticks": 159710,
          "time": 103.97786458333333,
          "velocity": 0.14173228346456693
        },
        {
          "duration": 0.3118489583333286,
          "durationTicks": 479,
          "midi": 60,
          "name": "C4",
          "ticks": 159715,
          "time": 103.98111979166667,
          "velocity": 0.2755905511811024
        },
        {
          "duration": 0.3118489583333428,
          "durationTicks": 479,
          "midi": 57,
          "name": "A3",
          "ticks": 159716,
          "time": 103.98177083333333,
          "velocity": 0.14173228346456693
        },
        {
          "duration": 0.3125,
          "durationTicks": 480,
          "midi": 48,
          "name": "C3",
          "ticks": 159737,
          "time": 103.99544270833333,
          "velocity": 0.48031496062992124
        },
        {
          "duration": 0.125,
          "durationTicks": 192,
          "midi": 48,
          "name": "C3",
          "ticks": 160292,
          "time": 104.35677083333333,
          "velocity": 0.23622047244094488
        },
        {
          "duration": 0.125,
          "durationTicks": 192,
          "midi": 57,
          "name": "A3",
          "ticks": 160305,
          "time": 104.365234375,
          "velocity": 0.13385826771653545
        },
        {
          "duration": 0.125,
          "durationTicks": 192,
          "midi": 59,
          "name": "B3",
          "ticks": 160308,
          "time": 104.3671875,
          "velocity": 0.07086614173228346
        },
        {
          "duration": 0.125,
          "durationTicks": 192,
          "midi": 60,
          "name": "C4",
          "ticks": 160313,
          "time": 104.37044270833333,
          "velocity": 0.18110236220472442
        },
        {
          "duration": 0.3743489583333286,
          "durationTicks": 575,
          "midi": 57,
          "name": "A3",
          "ticks": 160489,
          "time": 104.48502604166667,
          "velocity": 0.28346456692913385
        },
        {
          "duration": 0.3743489583333286,
          "durationTicks": 575,
          "midi": 60,
          "name": "C4",
          "ticks": 160489,
          "time": 104.48502604166667,
          "velocity": 0.33858267716535434
        },
        {
          "duration": 0.3743489583333286,
          "durationTicks": 575,
          "midi": 48,
          "name": "C3",
          "ticks": 160492,
          "time": 104.48697916666667,
          "velocity": 0.44881889763779526
        },
        {
          "duration": 0.3743489583333286,
          "durationTicks": 575,
          "midi": 59,
          "name": "B3",
          "ticks": 160509,
          "time": 104.498046875,
          "velocity": 0.16535433070866143
        },
        {
          "duration": 0.1243489583333286,
          "durationTicks": 191,
          "midi": 48,
          "name": "C3",
          "ticks": 161050,
          "time": 104.85026041666667,
          "velocity": 0.25196850393700787
        },
        {
          "duration": 0.1243489583333286,
          "durationTicks": 191,
          "midi": 60,
          "name": "C4",
          "ticks": 161062,
          "time": 104.85807291666667,
          "velocity": 0.23622047244094488
        },
        {
          "duration": 0.1243489583333286,
          "durationTicks": 191,
          "midi": 59,
          "name": "B3",
          "ticks": 161068,
          "time": 104.86197916666667,
          "velocity": 0.14173228346456693
        },
        {
          "duration": 0.1243489583333286,
          "durationTicks": 191,
          "midi": 57,
          "name": "A3",
          "ticks": 161082,
          "time": 104.87109375,
          "velocity": 0.1968503937007874
        },
        {
          "duration": 0.2493489583333286,
          "durationTicks": 383,
          "midi": 57,
          "name": "A3",
          "ticks": 161637,
          "time": 105.232421875,
          "velocity": 0.2283464566929134
        },
        {
          "duration": 0.25,
          "durationTicks": 384,
          "midi": 60,
          "name": "C4",
          "ticks": 161640,
          "time": 105.234375,
          "velocity": 0.25984251968503935
        },
        {
          "duration": 0.2506510416666714,
          "durationTicks": 385,
          "midi": 59,
          "name": "B3",
          "ticks": 161651,
          "time": 105.24153645833333,
          "velocity": 0.09448818897637795
        },
        {
          "duration": 0.2506510416666572,
          "durationTicks": 385,
          "midi": 48,
          "name": "C3",
          "ticks": 161659,
          "time": 105.24674479166667,
          "velocity": 0.31496062992125984
        },
        {
          "duration": 0.1256510416666714,
          "durationTicks": 193,
          "midi": 59,
          "name": "B3",
          "ticks": 162012,
          "time": 105.4765625,
          "velocity": 0.07086614173228346
        },
        {
          "duration": 0.1256510416666714,
          "durationTicks": 193,
          "midi": 48,
          "name": "C3",
          "ticks": 162021,
          "time": 105.482421875,
          "velocity": 0.05511811023622047
        },
        {
          "duration": 0.1256510416666714,
          "durationTicks": 193,
          "midi": 57,
          "name": "A3",
          "ticks": 162029,
          "time": 105.48763020833333,
          "velocity": 0.15748031496062992
        },
        {
          "duration": 0.1256510416666714,
          "durationTicks": 193,
          "midi": 60,
          "name": "C4",
          "ticks": 162033,
          "time": 105.490234375,
          "velocity": 0.3228346456692913
        },
        {
          "duration": 0.2506510416666714,
          "durationTicks": 385,
          "midi": 48,
          "name": "C3",
          "ticks": 162207,
          "time": 105.603515625,
          "velocity": 0.23622047244094488
        },
        {
          "duration": 0.25,
          "durationTicks": 384,
          "midi": 60,
          "name": "C4",
          "ticks": 162218,
          "time": 105.61067708333333,
          "velocity": 0.3700787401574803
        },
        {
          "duration": 0.25,
          "durationTicks": 384,
          "midi": 57,
          "name": "A3",
          "ticks": 162221,
          "time": 105.61263020833333,
          "velocity": 0.14960629921259844
        },
        {
          "duration": 0.25,
          "durationTicks": 384,
          "midi": 59,
          "name": "B3",
          "ticks": 162227,
          "time": 105.61653645833333,
          "velocity": 0.08661417322834646
        },
        {
          "duration": 0.125,
          "durationTicks": 192,
          "midi": 60,
          "name": "C4",
          "ticks": 162595,
          "time": 105.85611979166667,
          "velocity": 0.2047244094488189
        },
        {
          "duration": 0.125,
          "durationTicks": 192,
          "midi": 59,
          "name": "B3",
          "ticks": 162601,
          "time": 105.86002604166667,
          "velocity": 0.05511811023622047
        },
        {
          "duration": 0.125,
          "durationTicks": 192,
          "midi": 48,
          "name": "C3",
          "ticks": 162602,
          "time": 105.86067708333333,
          "velocity": 0.1732283464566929
        },
        {
          "duration": 0.1256510416666572,
          "durationTicks": 193,
          "midi": 57,
          "name": "A3",
          "ticks": 162604,
          "time": 105.86197916666667,
          "velocity": 0.13385826771653545
        },
        {
          "duration": 0.3125,
          "durationTicks": 480,
          "midi": 52,
          "name": "E3",
          "ticks": 162785,
          "time": 105.97981770833333,
          "velocity": 0.41732283464566927
        },
        {
          "duration": 0.3125,
          "durationTicks": 480,
          "midi": 62,
          "name": "D4",
          "ticks": 162794,
          "time": 105.98567708333333,
          "velocity": 0.3543307086614173
        },
        {
          "duration": 0.3118489583333428,
          "durationTicks": 479,
          "midi": 59,
          "name": "B3",
          "ticks": 162800,
          "time": 105.98958333333333,
          "velocity": 0.15748031496062992
        },
        {
          "duration": 0.3118489583333428,
          "durationTicks": 479,
          "midi": 60,
          "name": "C4",
          "ticks": 162812,
          "time": 105.99739583333333,
          "velocity": 0.14173228346456693
        },
        {
          "duration": 0.125,
          "durationTicks": 192,
          "midi": 59,
          "name": "B3",
          "ticks": 163358,
          "time": 106.35286458333333,
          "velocity": 0.11023622047244094
        },
        {
          "duration": 0.12434895833334281,
          "durationTicks": 191,
          "midi": 62,
          "name": "D4",
          "ticks": 163364,
          "time": 106.35677083333333,
          "velocity": 0.2125984251968504
        },
        {
          "duration": 0.125,
          "durationTicks": 192,
          "midi": 52,
          "name": "E3",
          "ticks": 163387,
          "time": 106.37174479166667,
          "velocity": 0.25196850393700787
        },
        {
          "duration": 0.125,
          "durationTicks": 192,
          "midi": 60,
          "name": "C4",
          "ticks": 163388,
          "time": 106.37239583333333,
          "velocity": 0.09448818897637795
        },
        {
          "duration": 0.3756510416666572,
          "durationTicks": 577,
          "midi": 60,
          "name": "C4",
          "ticks": 163552,
          "time": 106.47916666666667,
          "velocity": 0.14960629921259844
        },
        {
          "duration": 0.3763020833333286,
          "durationTicks": 578,
          "midi": 59,
          "name": "B3",
          "ticks": 163555,
          "time": 106.48111979166667,
          "velocity": 0.2125984251968504
        },
        {
          "duration": 0.3763020833333428,
          "durationTicks": 578,
          "midi": 62,
          "name": "D4",
          "ticks": 163556,
          "time": 106.48177083333333,
          "velocity": 0.4015748031496063
        },
        {
          "duration": 0.3763020833333428,
          "durationTicks": 578,
          "midi": 52,
          "name": "E3",
          "ticks": 163565,
          "time": 106.48763020833333,
          "velocity": 0.3228346456692913
        },
        {
          "duration": 0.125,
          "durationTicks": 192,
          "midi": 52,
          "name": "E3",
          "ticks": 164132,
          "time": 106.85677083333333,
          "velocity": 0.13385826771653545
        },
        {
          "duration": 0.1243489583333286,
          "durationTicks": 191,
          "midi": 60,
          "name": "C4",
          "ticks": 164134,
          "time": 106.85807291666667,
          "velocity": 0.14960629921259844
        },
        {
          "duration": 0.1243489583333286,
          "durationTicks": 191,
          "midi": 62,
          "name": "D4",
          "ticks": 164140,
          "time": 106.86197916666667,
          "velocity": 0.2677165354330709
        },
        {
          "duration": 0.1243489583333286,
          "durationTicks": 191,
          "midi": 59,
          "name": "B3",
          "ticks": 164146,
          "time": 106.86588541666667,
          "velocity": 0.18110236220472442
        },
        {
          "duration": 0.2506510416666714,
          "durationTicks": 385,
          "midi": 62,
          "name": "D4",
          "ticks": 164715,
          "time": 107.236328125,
          "velocity": 0.30708661417322836
        },
        {
          "duration": 0.2506510416666572,
          "durationTicks": 385,
          "midi": 52,
          "name": "E3",
          "ticks": 164719,
          "time": 107.23893229166667,
          "velocity": 0.23622047244094488
        },
        {
          "duration": 0.2506510416666714,
          "durationTicks": 385,
          "midi": 60,
          "name": "C4",
          "ticks": 164733,
          "time": 107.248046875,
          "velocity": 0.10236220472440945
        },
        {
          "duration": 0.2506510416666714,
          "durationTicks": 385,
          "midi": 59,
          "name": "B3",
          "ticks": 164735,
          "time": 107.24934895833333,
          "velocity": 0.13385826771653545
        },
        {
          "duration": 0.1256510416666714,
          "durationTicks": 193,
          "midi": 52,
          "name": "E3",
          "ticks": 165096,
          "time": 107.484375,
          "velocity": 0.09448818897637795
        },
        {
          "duration": 0.1256510416666714,
          "durationTicks": 193,
          "midi": 60,
          "name": "C4",
          "ticks": 165098,
          "time": 107.48567708333333,
          "velocity": 0.07874015748031496
        },
        {
          "duration": 0.1256510416666714,
          "durationTicks": 193,
          "midi": 62,
          "name": "D4",
          "ticks": 165102,
          "time": 107.48828125,
          "velocity": 0.2440944881889764
        },
        {
          "duration": 0.125,
          "durationTicks": 192,
          "midi": 59,
          "name": "B3",
          "ticks": 165110,
          "time": 107.49348958333333,
          "velocity": 0.16535433070866143
        },
        {
          "duration": 0.25,
          "durationTicks": 384,
          "midi": 60,
          "name": "C4",
          "ticks": 165285,
          "time": 107.607421875,
          "velocity": 0.08661417322834646
        },
        {
          "duration": 0.25,
          "durationTicks": 384,
          "midi": 59,
          "name": "B3",
          "ticks": 165290,
          "time": 107.61067708333333,
          "velocity": 0.1968503937007874
        },
        {
          "duration": 0.25,
          "durationTicks": 384,
          "midi": 52,
          "name": "E3",
          "ticks": 165294,
          "time": 107.61328125,
          "velocity": 0.2755905511811024
        },
        {
          "duration": 0.2493489583333428,
          "durationTicks": 383,
          "midi": 62,
          "name": "D4",
          "ticks": 165302,
          "time": 107.61848958333333,
          "velocity": 0.2992125984251969
        },
        {
          "duration": 0.12434895833334281,
          "durationTicks": 191,
          "midi": 52,
          "name": "E3",
          "ticks": 165665,
          "time": 107.85481770833333,
          "velocity": 0.11811023622047244
        },
        {
          "duration": 0.1243489583333286,
          "durationTicks": 191,
          "midi": 60,
          "name": "C4",
          "ticks": 165666,
          "time": 107.85546875,
          "velocity": 0.09448818897637795
        },
        {
          "duration": 0.125,
          "durationTicks": 192,
          "midi": 62,
          "name": "D4",
          "ticks": 165680,
          "time": 107.86458333333333,
          "velocity": 0.2125984251968504
        },
        {
          "duration": 0.1256510416666572,
          "durationTicks": 193,
          "midi": 59,
          "name": "B3",
          "ticks": 165688,
          "time": 107.86979166666667,
          "velocity": 0.2047244094488189
        },
        {
          "duration": 0.3131510416666572,
          "durationTicks": 481,
          "midi": 57,
          "name": "A3",
          "ticks": 165853,
          "time": 107.97721354166667,
          "velocity": 0.2047244094488189
        },
        {
          "duration": 0.3131510416666572,
          "durationTicks": 481,
          "midi": 60,
          "name": "C4",
          "ticks": 165862,
          "time": 107.98307291666667,
          "velocity": 0.2283464566929134
        },
        {
          "duration": 0.3131510416666714,
          "durationTicks": 481,
          "midi": 59,
          "name": "B3",
          "ticks": 165870,
          "time": 107.98828125,
          "velocity": 0.11023622047244094
        },
        {
          "duration": 0.3131510416666714,
          "durationTicks": 481,
          "midi": 48,
          "name": "C3",
          "ticks": 165872,
          "time": 107.98958333333333,
          "velocity": 0.33858267716535434
        },
        {
          "duration": 0.1256510416666572,
          "durationTicks": 193,
          "midi": 59,
          "name": "B3",
          "ticks": 166438,
          "time": 108.35807291666667,
          "velocity": 0.07086614173228346
        },
        {
          "duration": 0.1256510416666572,
          "durationTicks": 193,
          "midi": 57,
          "name": "A3",
          "ticks": 166438,
          "time": 108.35807291666667,
          "velocity": 0.12598425196850394
        },
        {
          "duration": 0.125,
          "durationTicks": 192,
          "midi": 60,
          "name": "C4",
          "ticks": 166452,
          "time": 108.3671875,
          "velocity": 0.2283464566929134
        },
        {
          "duration": 0.1243489583333286,
          "durationTicks": 191,
          "midi": 48,
          "name": "C3",
          "ticks": 166455,
          "time": 108.369140625,
          "velocity": 0.25196850393700787
        },
        {
          "duration": 0.3743489583333286,
          "durationTicks": 575,
          "midi": 57,
          "name": "A3",
          "ticks": 166632,
          "time": 108.484375,
          "velocity": 0.18110236220472442
        },
        {
          "duration": 0.3743489583333286,
          "durationTicks": 575,
          "midi": 60,
          "name": "C4",
          "ticks": 166638,
          "time": 108.48828125,
          "velocity": 0.2204724409448819
        },
        {
          "duration": 0.3743489583333286,
          "durationTicks": 575,
          "midi": 59,
          "name": "B3",
          "ticks": 166644,
          "time": 108.4921875,
          "velocity": 0.09448818897637795
        },
        {
          "duration": 0.3743489583333286,
          "durationTicks": 575,
          "midi": 48,
          "name": "C3",
          "ticks": 166644,
          "time": 108.4921875,
          "velocity": 0.4566929133858268
        },
        {
          "duration": 0.1243489583333286,
          "durationTicks": 191,
          "midi": 57,
          "name": "A3",
          "ticks": 167194,
          "time": 108.85026041666667,
          "velocity": 0.14173228346456693
        },
        {
          "duration": 0.1243489583333286,
          "durationTicks": 191,
          "midi": 48,
          "name": "C3",
          "ticks": 167206,
          "time": 108.85807291666667,
          "velocity": 0.14960629921259844
        },
        {
          "duration": 0.1243489583333286,
          "durationTicks": 191,
          "midi": 59,
          "name": "B3",
          "ticks": 167209,
          "time": 108.86002604166667,
          "velocity": 0.11023622047244094
        },
        {
          "duration": 0.1243489583333286,
          "durationTicks": 191,
          "midi": 60,
          "name": "C4",
          "ticks": 167211,
          "time": 108.861328125,
          "velocity": 0.3858267716535433
        },
        {
          "duration": 0.25,
          "durationTicks": 384,
          "midi": 57,
          "name": "A3",
          "ticks": 167781,
          "time": 109.232421875,
          "velocity": 0.14173228346456693
        },
        {
          "duration": 0.25,
          "durationTicks": 384,
          "midi": 48,
          "name": "C3",
          "ticks": 167782,
          "time": 109.23307291666667,
          "velocity": 0.29133858267716534
        },
        {
          "duration": 0.25,
          "durationTicks": 384,
          "midi": 59,
          "name": "B3",
          "ticks": 167788,
          "time": 109.23697916666667,
          "velocity": 0.11811023622047244
        },
        {
          "duration": 0.25,
          "durationTicks": 384,
          "midi": 60,
          "name": "C4",
          "ticks": 167789,
          "time": 109.23763020833333,
          "velocity": 0.3543307086614173
        },
        {
          "duration": 0.125,
          "durationTicks": 192,
          "midi": 57,
          "name": "A3",
          "ticks": 168172,
          "time": 109.48697916666667,
          "velocity": 0.1732283464566929
        },
        {
          "duration": 0.125,
          "durationTicks": 192,
          "midi": 59,
          "name": "B3",
          "ticks": 168180,
          "time": 109.4921875,
          "velocity": 0.07874015748031496
        },
        {
          "duration": 0.125,
          "durationTicks": 192,
          "midi": 60,
          "name": "C4",
          "ticks": 168182,
          "time": 109.49348958333333,
          "velocity": 0.2755905511811024
        },
        {
          "duration": 0.125,
          "durationTicks": 192,
          "midi": 48,
          "name": "C3",
          "ticks": 168182,
          "time": 109.49348958333333,
          "velocity": 0.07086614173228346
        },
        {
          "duration": 0.2506510416666572,
          "durationTicks": 385,
          "midi": 57,
          "name": "A3",
          "ticks": 168358,
          "time": 109.60807291666667,
          "velocity": 0.2125984251968504
        },
        {
          "duration": 0.2506510416666714,
          "durationTicks": 385,
          "midi": 60,
          "name": "C4",
          "ticks": 168363,
          "time": 109.611328125,
          "velocity": 0.2440944881889764
        },
        {
          "duration": 0.2506510416666572,
          "durationTicks": 385,
          "midi": 59,
          "name": "B3",
          "ticks": 168364,
          "time": 109.61197916666667,
          "velocity": 0.11811023622047244
        },
        {
          "duration": 0.2506510416666714,
          "durationTicks": 385,
          "midi": 48,
          "name": "C3",
          "ticks": 168377,
          "time": 109.62044270833333,
          "velocity": 0.23622047244094488
        },
        {
          "duration": 0.1256510416666572,
          "durationTicks": 193,
          "midi": 57,
          "name": "A3",
          "ticks": 168745,
          "time": 109.86002604166667,
          "velocity": 0.16535433070866143
        },
        {
          "duration": 0.1256510416666714,
          "durationTicks": 193,
          "midi": 48,
          "name": "C3",
          "ticks": 168749,
          "time": 109.86263020833333,
          "velocity": 0.1968503937007874
        },
        {
          "duration": 0.1256510416666714,
          "durationTicks": 193,
          "midi": 59,
          "name": "B3",
          "ticks": 168752,
          "time": 109.86458333333333,
          "velocity": 0.07874015748031496
        },
        {
          "duration": 0.1256510416666714,
          "durationTicks": 193,
          "midi": 60,
          "name": "C4",
          "ticks": 168759,
          "time": 109.869140625,
          "velocity": 0.29133858267716534
        },
        {
          "duration": 0.3125,
          "durationTicks": 480,
          "midi": 60,
          "name": "C4",
          "ticks": 168929,
          "time": 109.97981770833333,
          "velocity": 0.30708661417322836
        },
        {
          "duration": 0.3125,
          "durationTicks": 480,
          "midi": 53,
          "name": "F3",
          "ticks": 168936,
          "time": 109.984375,
          "velocity": 0.2283464566929134
        },
        {
          "duration": 0.3125,
          "durationTicks": 480,
          "midi": 47,
          "name": "B2",
          "ticks": 168948,
          "time": 109.9921875,
          "velocity": 0.36220472440944884
        },
        {
          "duration": 0.3125,
          "durationTicks": 480,
          "midi": 57,
          "name": "A3",
          "ticks": 168948,
          "time": 109.9921875,
          "velocity": 0.12598425196850394
        },
        {
          "duration": 0.375,
          "durationTicks": 576,
          "midi": 53,
          "name": "F3",
          "ticks": 169703,
          "time": 110.48372395833333,
          "velocity": 0.2755905511811024
        },
        {
          "duration": 0.375,
          "durationTicks": 576,
          "midi": 60,
          "name": "C4",
          "ticks": 169705,
          "time": 110.48502604166667,
          "velocity": 0.3464566929133858
        },
        {
          "duration": 0.375,
          "durationTicks": 576,
          "midi": 47,
          "name": "B2",
          "ticks": 169707,
          "time": 110.486328125,
          "velocity": 0.3464566929133858
        },
        {
          "duration": 0.375,
          "durationTicks": 576,
          "midi": 57,
          "name": "A3",
          "ticks": 169713,
          "time": 110.490234375,
          "velocity": 0.08661417322834646
        },
        {
          "duration": 0.125,
          "durationTicks": 192,
          "midi": 56,
          "name": "G#3",
          "ticks": 170276,
          "time": 110.85677083333333,
          "velocity": 0.2992125984251969
        },
        {
          "duration": 0.125,
          "durationTicks": 192,
          "midi": 60,
          "name": "C4",
          "ticks": 170282,
          "time": 110.86067708333333,
          "velocity": 0.36220472440944884
        },
        {
          "duration": 0.125,
          "durationTicks": 192,
          "midi": 53,
          "name": "F3",
          "ticks": 170288,
          "time": 110.86458333333333,
          "velocity": 0.1968503937007874
        },
        {
          "duration": 0.125,
          "durationTicks": 192,
          "midi": 47,
          "name": "B2",
          "ticks": 170290,
          "time": 110.86588541666667,
          "velocity": 0.1732283464566929
        },
        {
          "duration": 0.25,
          "durationTicks": 384,
          "midi": 48,
          "name": "C3",
          "ticks": 170853,
          "time": 111.232421875,
          "velocity": 0.28346456692913385
        },
        {
          "duration": 0.25,
          "durationTicks": 384,
          "midi": 53,
          "name": "F3",
          "ticks": 170854,
          "time": 111.23307291666667,
          "velocity": 0.2125984251968504
        },
        {
          "duration": 0.2506510416666572,
          "durationTicks": 385,
          "midi": 60,
          "name": "C4",
          "ticks": 170875,
          "time": 111.24674479166667,
          "velocity": 0.49606299212598426
        },
        {
          "duration": 0.2506510416666714,
          "durationTicks": 385,
          "midi": 56,
          "name": "G#3",
          "ticks": 170882,
          "time": 111.25130208333333,
          "velocity": 0.23622047244094488
        },
        {
          "duration": 0.125,
          "durationTicks": 192,
          "midi": 53,
          "name": "F3",
          "ticks": 171242,
          "time": 111.48567708333333,
          "velocity": 0.16535433070866143
        },
        {
          "duration": 0.125,
          "durationTicks": 192,
          "midi": 56,
          "name": "G#3",
          "ticks": 171243,
          "time": 111.486328125,
          "velocity": 0.28346456692913385
        },
        {
          "duration": 0.125,
          "durationTicks": 192,
          "midi": 48,
          "name": "C3",
          "ticks": 171243,
          "time": 111.486328125,
          "velocity": 0.07874015748031496
        },
        {
          "duration": 0.125,
          "durationTicks": 192,
          "midi": 60,
          "name": "C4",
          "ticks": 171255,
          "time": 111.494140625,
          "velocity": 0.1732283464566929
        },
        {
          "duration": 0.25,
          "durationTicks": 384,
          "midi": 48,
          "name": "C3",
          "ticks": 171427,
          "time": 111.60611979166667,
          "velocity": 0.1968503937007874
        },
        {
          "duration": 0.25,
          "durationTicks": 384,
          "midi": 56,
          "name": "G#3",
          "ticks": 171429,
          "time": 111.607421875,
          "velocity": 0.25196850393700787
        },
        {
          "duration": 0.2506510416666714,
          "durationTicks": 385,
          "midi": 60,
          "name": "C4",
          "ticks": 171446,
          "time": 111.61848958333333,
          "velocity": 0.3464566929133858
        },
        {
          "duration": 0.2506510416666714,
          "durationTicks": 385,
          "midi": 53,
          "name": "F3",
          "ticks": 171450,
          "time": 111.62109375,
          "velocity": 0.1732283464566929
        },
        {
          "duration": 0.125,
          "durationTicks": 192,
          "midi": 56,
          "name": "G#3",
          "ticks": 171825,
          "time": 111.865234375,
          "velocity": 0.2677165354330709
        },
        {
          "duration": 0.125,
          "durationTicks": 192,
          "midi": 60,
          "name": "C4",
          "ticks": 171826,
          "time": 111.86588541666667,
          "velocity": 0.23622047244094488
        },
        {
          "duration": 0.12434895833334281,
          "durationTicks": 191,
          "midi": 53,
          "name": "F3",
          "ticks": 171833,
          "time": 111.87044270833333,
          "velocity": 0.14960629921259844
        },
        {
          "duration": 0.1236979166666714,
          "durationTicks": 190,
          "midi": 48,
          "name": "C3",
          "ticks": 171837,
          "time": 111.873046875,
          "velocity": 0.14960629921259844
        },
        {
          "duration": 0.3111979166666714,
          "durationTicks": 478,
          "midi": 56,
          "name": "G#3",
          "ticks": 172007,
          "time": 111.98372395833333,
          "velocity": 0.28346456692913385
        },
        {
          "duration": 0.3111979166666714,
          "durationTicks": 478,
          "midi": 48,
          "name": "C3",
          "ticks": 172016,
          "time": 111.98958333333333,
          "velocity": 0.4566929133858268
        },
        {
          "duration": 0.3111979166666714,
          "durationTicks": 478,
          "midi": 53,
          "name": "F3",
          "ticks": 172016,
          "time": 111.98958333333333,
          "velocity": 0.31496062992125984
        },
        {
          "duration": 0.3118489583333286,
          "durationTicks": 479,
          "midi": 60,
          "name": "C4",
          "ticks": 172021,
          "time": 111.99283854166667,
          "velocity": 0.28346456692913385
        },
        {
          "duration": 0.3756510416666714,
          "durationTicks": 577,
          "midi": 53,
          "name": "F3",
          "ticks": 172775,
          "time": 112.48372395833333,
          "velocity": 0.25196850393700787
        },
        {
          "duration": 0.3756510416666714,
          "durationTicks": 577,
          "midi": 48,
          "name": "C3",
          "ticks": 172782,
          "time": 112.48828125,
          "velocity": 0.3937007874015748
        },
        {
          "duration": 0.375,
          "durationTicks": 576,
          "midi": 56,
          "name": "G#3",
          "ticks": 172794,
          "time": 112.49609375,
          "velocity": 0.23622047244094488
        },
        {
          "duration": 0.375,
          "durationTicks": 576,
          "midi": 60,
          "name": "C4",
          "ticks": 172802,
          "time": 112.50130208333333,
          "velocity": 0.2125984251968504
        },
        {
          "duration": 0.125,
          "durationTicks": 192,
          "midi": 56,
          "name": "G#3",
          "ticks": 173354,
          "time": 112.86067708333333,
          "velocity": 0.4015748031496063
        },
        {
          "duration": 0.125,
          "durationTicks": 192,
          "midi": 60,
          "name": "C4",
          "ticks": 173355,
          "time": 112.861328125,
          "velocity": 0.2047244094488189
        },
        {
          "duration": 0.125,
          "durationTicks": 192,
          "midi": 48,
          "name": "C3",
          "ticks": 173359,
          "time": 112.86393229166667,
          "velocity": 0.3779527559055118
        },
        {
          "duration": 0.125,
          "durationTicks": 192,
          "midi": 52,
          "name": "E3",
          "ticks": 173375,
          "time": 112.87434895833333,
          "velocity": 0.30708661417322836
        },
        {
          "duration": 0.25,
          "durationTicks": 384,
          "midi": 56,
          "name": "G#3",
          "ticks": 173925,
          "time": 113.232421875,
          "velocity": 0.14960629921259844
        },
        {
          "duration": 0.25,
          "durationTicks": 384,
          "midi": 48,
          "name": "C3",
          "ticks": 173933,
          "time": 113.23763020833333,
          "velocity": 0.4330708661417323
        },
        {
          "duration": 0.25,
          "durationTicks": 384,
          "midi": 60,
          "name": "C4",
          "ticks": 173944,
          "time": 113.24479166666667,
          "velocity": 0.1889763779527559
        },
        {
          "duration": 0.25,
          "durationTicks": 384,
          "midi": 53,
          "name": "F3",
          "ticks": 173947,
          "time": 113.24674479166667,
          "velocity": 0.23622047244094488
        },
        {
          "duration": 0.25,
          "durationTicks": 384,
          "midi": 52,
          "name": "E3",
          "ticks": 173954,
          "time": 113.25130208333333,
          "velocity": 0.30708661417322836
        },
        {
          "duration": 0.125,
          "durationTicks": 192,
          "midi": 56,
          "name": "G#3",
          "ticks": 174300,
          "time": 113.4765625,
          "velocity": 0.16535433070866143
        },
        {
          "duration": 0.1243489583333286,
          "durationTicks": 191,
          "midi": 53,
          "name": "F3",
          "ticks": 174319,
          "time": 113.48893229166667,
          "velocity": 0.2440944881889764
        },
        {
          "duration": 0.1243489583333286,
          "durationTicks": 191,
          "midi": 60,
          "name": "C4",
          "ticks": 174321,
          "time": 113.490234375,
          "velocity": 0.2125984251968504
        },
        {
          "duration": 0.1243489583333286,
          "durationTicks": 191,
          "midi": 52,
          "name": "E3",
          "ticks": 174325,
          "time": 113.49283854166667,
          "velocity": 0.3228346456692913
        },
        {
          "duration": 0.12434895833334281,
          "durationTicks": 191,
          "midi": 48,
          "name": "C3",
          "ticks": 174332,
          "time": 113.49739583333333,
          "velocity": 0.1889763779527559
        },
        {
          "duration": 0.2493489583333428,
          "durationTicks": 383,
          "midi": 60,
          "name": "C4",
          "ticks": 174503,
          "time": 113.60872395833333,
          "velocity": 0.3700787401574803
        },
        {
          "duration": 0.2493489583333286,
          "durationTicks": 383,
          "midi": 48,
          "name": "C3",
          "ticks": 174507,
          "time": 113.611328125,
          "velocity": 0.4330708661417323
        },
        {
          "duration": 0.2493489583333286,
          "durationTicks": 383,
          "midi": 53,
          "name": "F3",
          "ticks": 174508,
          "time": 113.61197916666667,
          "velocity": 0.30708661417322836
        },
        {
          "duration": 0.2493489583333428,
          "durationTicks": 383,
          "midi": 52,
          "name": "E3",
          "ticks": 174512,
          "time": 113.61458333333333,
          "velocity": 0.4409448818897638
        },
        {
          "duration": 0.2493489583333286,
          "durationTicks": 383,
          "midi": 56,
          "name": "G#3",
          "ticks": 174525,
          "time": 113.623046875,
          "velocity": 0.2677165354330709
        },
        {
          "duration": 0.12434895833334281,
          "durationTicks": 191,
          "midi": 48,
          "name": "C3",
          "ticks": 174869,
          "time": 113.84700520833333,
          "velocity": 0.33070866141732286
        },
        {
          "duration": 0.1243489583333286,
          "durationTicks": 191,
          "midi": 52,
          "name": "E3",
          "ticks": 174897,
          "time": 113.865234375,
          "velocity": 0.25196850393700787
        },
        {
          "duration": 0.12434895833334281,
          "durationTicks": 191,
          "midi": 53,
          "name": "F3",
          "ticks": 174902,
          "time": 113.86848958333333,
          "velocity": 0.23622047244094488
        },
        {
          "duration": 0.1243489583333286,
          "durationTicks": 191,
          "midi": 60,
          "name": "C4",
          "ticks": 174904,
          "time": 113.86979166666667,
          "velocity": 0.25196850393700787
        },
        {
          "duration": 0.125,
          "durationTicks": 192,
          "midi": 56,
          "name": "G#3",
          "ticks": 174908,
          "time": 113.87239583333333,
          "velocity": 0.16535433070866143
        },
        {
          "duration": 0.3125,
          "durationTicks": 480,
          "midi": 61,
          "name": "C#4",
          "ticks": 175077,
          "time": 113.982421875,
          "velocity": 0.2992125984251969
        },
        {
          "duration": 0.3125,
          "durationTicks": 480,
          "midi": 49,
          "name": "C#3",
          "ticks": 175093,
          "time": 113.99283854166667,
          "velocity": 0.4330708661417323
        },
        {
          "duration": 0.3125,
          "durationTicks": 480,
          "midi": 56,
          "name": "G#3",
          "ticks": 175101,
          "time": 113.998046875,
          "velocity": 0.2992125984251969
        },
        {
          "duration": 0.3125,
          "durationTicks": 480,
          "midi": 66,
          "name": "F#4",
          "ticks": 175105,
          "time": 114.00065104166667,
          "velocity": 0.1732283464566929
        },
        {
          "duration": 0.375,
          "durationTicks": 576,
          "midi": 61,
          "name": "C#4",
          "ticks": 175851,
          "time": 114.486328125,
          "velocity": 0.3858267716535433
        },
        {
          "duration": 0.375,
          "durationTicks": 576,
          "midi": 66,
          "name": "F#4",
          "ticks": 175857,
          "time": 114.490234375,
          "velocity": 0.25984251968503935
        },
        {
          "duration": 0.375,
          "durationTicks": 576,
          "midi": 49,
          "name": "C#3",
          "ticks": 175861,
          "time": 114.49283854166667,
          "velocity": 0.6141732283464567
        },
        {
          "duration": 0.375,
          "durationTicks": 576,
          "midi": 56,
          "name": "G#3",
          "ticks": 175866,
          "time": 114.49609375,
          "velocity": 0.18110236220472442
        },
        {
          "duration": 0.1256510416666714,
          "durationTicks": 193,
          "midi": 49,
          "name": "C#3",
          "ticks": 176426,
          "time": 114.86067708333333,
          "velocity": 0.25984251968503935
        },
        {
          "duration": 0.1256510416666714,
          "durationTicks": 193,
          "midi": 66,
          "name": "F#4",
          "ticks": 176427,
          "time": 114.861328125,
          "velocity": 0.28346456692913385
        },
        {
          "duration": 0.1256510416666714,
          "durationTicks": 193,
          "midi": 52,
          "name": "E3",
          "ticks": 176439,
          "time": 114.869140625,
          "velocity": 0.3228346456692913
        },
        {
          "duration": 0.1256510416666572,
          "durationTicks": 193,
          "midi": 56,
          "name": "G#3",
          "ticks": 176446,
          "time": 114.87369791666667,
          "velocity": 0.3937007874015748
        },
        {
          "duration": 0.2493489583333428,
          "durationTicks": 383,
          "midi": 49,
          "name": "C#3",
          "ticks": 176999,
          "time": 115.23372395833333,
          "velocity": 0.44881889763779526
        },
        {
          "duration": 0.2493489583333286,
          "durationTicks": 383,
          "midi": 66,
          "name": "F#4",
          "ticks": 177001,
          "time": 115.23502604166667,
          "velocity": 0.2440944881889764
        },
        {
          "duration": 0.2493489583333286,
          "durationTicks": 383,
          "midi": 56,
          "name": "G#3",
          "ticks": 177003,
          "time": 115.236328125,
          "velocity": 0.16535433070866143
        },
        {
          "duration": 0.2493489583333428,
          "durationTicks": 383,
          "midi": 61,
          "name": "C#4",
          "ticks": 177005,
          "time": 115.23763020833333,
          "velocity": 0.3543307086614173
        },
        {
          "duration": 0.2493489583333286,
          "durationTicks": 383,
          "midi": 52,
          "name": "E3",
          "ticks": 177006,
          "time": 115.23828125,
          "velocity": 0.41732283464566927
        },
        {
          "duration": 0.125,
          "durationTicks": 192,
          "midi": 61,
          "name": "C#4",
          "ticks": 177378,
          "time": 115.48046875,
          "velocity": 0.23622047244094488
        },
        {
          "duration": 0.125,
          "durationTicks": 192,
          "midi": 66,
          "name": "F#4",
          "ticks": 177379,
          "time": 115.48111979166667,
          "velocity": 0.2283464566929134
        },
        {
          "duration": 0.125,
          "durationTicks": 192,
          "midi": 56,
          "name": "G#3",
          "ticks": 177391,
          "time": 115.48893229166667,
          "velocity": 0.14960629921259844
        },
        {
          "duration": 0.125,
          "durationTicks": 192,
          "midi": 52,
          "name": "E3",
          "ticks": 177400,
          "time": 115.49479166666667,
          "velocity": 0.4409448818897638
        },
        {
          "duration": 0.125,
          "durationTicks": 192,
          "midi": 49,
          "name": "C#3",
          "ticks": 177400,
          "time": 115.49479166666667,
          "velocity": 0.2204724409448819
        },
        {
          "duration": 0.25,
          "durationTicks": 384,
          "midi": 52,
          "name": "E3",
          "ticks": 177561,
          "time": 115.599609375,
          "velocity": 0.3937007874015748
        },
        {
          "duration": 0.25,
          "durationTicks": 384,
          "midi": 61,
          "name": "C#4",
          "ticks": 177582,
          "time": 115.61328125,
          "velocity": 0.2755905511811024
        },
        {
          "duration": 0.2506510416666714,
          "durationTicks": 385,
          "midi": 66,
          "name": "F#4",
          "ticks": 177584,
          "time": 115.61458333333333,
          "velocity": 0.28346456692913385
        },
        {
          "duration": 0.2506510416666572,
          "durationTicks": 385,
          "midi": 49,
          "name": "C#3",
          "ticks": 177589,
          "time": 115.61783854166667,
          "velocity": 0.3543307086614173
        },
        {
          "duration": 0.2506510416666714,
          "durationTicks": 385,
          "midi": 56,
          "name": "G#3",
          "ticks": 177590,
          "time": 115.61848958333333,
          "velocity": 0.1732283464566929
        },
        {
          "duration": 0.1256510416666714,
          "durationTicks": 193,
          "midi": 66,
          "name": "F#4",
          "ticks": 177962,
          "time": 115.86067708333333,
          "velocity": 0.25984251968503935
        },
        {
          "duration": 0.1263020833333428,
          "durationTicks": 194,
          "midi": 61,
          "name": "C#4",
          "ticks": 177965,
          "time": 115.86263020833333,
          "velocity": 0.2283464566929134
        },
        {
          "duration": 0.1256510416666714,
          "durationTicks": 193,
          "midi": 56,
          "name": "G#3",
          "ticks": 177968,
          "time": 115.86458333333333,
          "velocity": 0.16535433070866143
        },
        {
          "duration": 0.125,
          "durationTicks": 192,
          "midi": 49,
          "name": "C#3",
          "ticks": 177973,
          "time": 115.86783854166667,
          "velocity": 0.2755905511811024
        },
        {
          "duration": 0.1256510416666572,
          "durationTicks": 193,
          "midi": 52,
          "name": "E3",
          "ticks": 177976,
          "time": 115.86979166666667,
          "velocity": 0.3228346456692913
        },
        {
          "duration": 0.3131510416666572,
          "durationTicks": 481,
          "midi": 56,
          "name": "G#3",
          "ticks": 178150,
          "time": 115.98307291666667,
          "velocity": 0.25984251968503935
        },
        {
          "duration": 0.3131510416666572,
          "durationTicks": 481,
          "midi": 49,
          "name": "C#3",
          "ticks": 178156,
          "time": 115.98697916666667,
          "velocity": 0.3858267716535433
        },
        {
          "duration": 0.3131510416666572,
          "durationTicks": 481,
          "midi": 61,
          "name": "C#4",
          "ticks": 178159,
          "time": 115.98893229166667,
          "velocity": 0.25196850393700787
        },
        {
          "duration": 0.3131510416666714,
          "durationTicks": 481,
          "midi": 66,
          "name": "F#4",
          "ticks": 178160,
          "time": 115.98958333333333,
          "velocity": 0.25984251968503935
        },
        {
          "duration": 0.3743489583333286,
          "durationTicks": 575,
          "midi": 49,
          "name": "C#3",
          "ticks": 178912,
          "time": 116.47916666666667,
          "velocity": 0.49606299212598426
        },
        {
          "duration": 0.3743489583333286,
          "durationTicks": 575,
          "midi": 61,
          "name": "C#4",
          "ticks": 178920,
          "time": 116.484375,
          "velocity": 0.4094488188976378
        },
        {
          "duration": 0.3743489583333428,
          "durationTicks": 575,
          "midi": 66,
          "name": "F#4",
          "ticks": 178940,
          "time": 116.49739583333333,
          "velocity": 0.2283464566929134
        },
        {
          "duration": 0.3743489583333286,
          "durationTicks": 575,
          "midi": 56,
          "name": "G#3",
          "ticks": 178941,
          "time": 116.498046875,
          "velocity": 0.18110236220472442
        },
        {
          "duration": 0.12434895833334281,
          "durationTicks": 191,
          "midi": 49,
          "name": "C#3",
          "ticks": 179486,
          "time": 116.85286458333333,
          "velocity": 0.3700787401574803
        },
        {
          "duration": 0.125,
          "durationTicks": 192,
          "midi": 52,
          "name": "E3",
          "ticks": 179497,
          "time": 116.86002604166667,
          "velocity": 0.28346456692913385
        },
        {
          "duration": 0.125,
          "durationTicks": 192,
          "midi": 56,
          "name": "G#3",
          "ticks": 179502,
          "time": 116.86328125,
          "velocity": 0.3228346456692913
        },
        {
          "duration": 0.125,
          "durationTicks": 192,
          "midi": 66,
          "name": "F#4",
          "ticks": 179506,
          "time": 116.86588541666667,
          "velocity": 0.25984251968503935
        },
        {
          "duration": 0.2506510416666572,
          "durationTicks": 385,
          "midi": 49,
          "name": "C#3",
          "ticks": 180070,
          "time": 117.23307291666667,
          "velocity": 0.4409448818897638
        },
        {
          "duration": 0.2506510416666714,
          "durationTicks": 385,
          "midi": 56,
          "name": "G#3",
          "ticks": 180072,
          "time": 117.234375,
          "velocity": 0.13385826771653545
        },
        {
          "duration": 0.25,
          "durationTicks": 384,
          "midi": 52,
          "name": "E3",
          "ticks": 180076,
          "time": 117.23697916666667,
          "velocity": 0.33070866141732286
        },
        {
          "duration": 0.25,
          "durationTicks": 384,
          "midi": 61,
          "name": "C#4",
          "ticks": 180089,
          "time": 117.24544270833333,
          "velocity": 0.3779527559055118
        },
        {
          "duration": 0.2493489583333286,
          "durationTicks": 383,
          "midi": 66,
          "name": "F#4",
          "ticks": 180096,
          "time": 117.25,
          "velocity": 0.2677165354330709
        },
        {
          "duration": 0.1243489583333286,
          "durationTicks": 191,
          "midi": 61,
          "name": "C#4",
          "ticks": 180453,
          "time": 117.482421875,
          "velocity": 0.3543307086614173
        },
        {
          "duration": 0.125,
          "durationTicks": 192,
          "midi": 66,
          "name": "F#4",
          "ticks": 180457,
          "time": 117.48502604166667,
          "velocity": 0.30708661417322836
        },
        {
          "duration": 0.125,
          "durationTicks": 192,
          "midi": 49,
          "name": "C#3",
          "ticks": 180460,
          "time": 117.48697916666667,
          "velocity": 0.1968503937007874
        },
        {
          "duration": 0.125,
          "durationTicks": 192,
          "midi": 56,
          "name": "G#3",
          "ticks": 180466,
          "time": 117.49088541666667,
          "velocity": 0.11811023622047244
        },
        {
          "duration": 0.125,
          "durationTicks": 192,
          "midi": 52,
          "name": "E3",
          "ticks": 180473,
          "time": 117.49544270833333,
          "velocity": 0.3779527559055118
        },
        {
          "duration": 0.25,
          "durationTicks": 384,
          "midi": 52,
          "name": "E3",
          "ticks": 180648,
          "time": 117.609375,
          "velocity": 0.3228346456692913
        },
        {
          "duration": 0.2493489583333428,
          "durationTicks": 383,
          "midi": 61,
          "name": "C#4",
          "ticks": 180656,
          "time": 117.61458333333333,
          "velocity": 0.28346456692913385
        },
        {
          "duration": 0.2493489583333286,
          "durationTicks": 383,
          "midi": 66,
          "name": "F#4",
          "ticks": 180658,
          "time": 117.61588541666667,
          "velocity": 0.33858267716535434
        },
        {
          "duration": 0.25,
          "durationTicks": 384,
          "midi": 49,
          "name": "C#3",
          "ticks": 180664,
          "time": 117.61979166666667,
          "velocity": 0.5433070866141733
        },
        {
          "duration": 0.2506510416666572,
          "durationTicks": 385,
          "midi": 56,
          "name": "G#3",
          "ticks": 180670,
          "time": 117.62369791666667,
          "velocity": 0.18110236220472442
        },
        {
          "duration": 0.1256510416666572,
          "durationTicks": 193,
          "midi": 49,
          "name": "C#3",
          "ticks": 181021,
          "time": 117.85221354166667,
          "velocity": 0.31496062992125984
        },
        {
          "duration": 0.1256510416666714,
          "durationTicks": 193,
          "midi": 66,
          "name": "F#4",
          "ticks": 181037,
          "time": 117.86263020833333,
          "velocity": 0.25984251968503935
        },
        {
          "duration": 0.1256510416666714,
          "durationTicks": 193,
          "midi": 56,
          "name": "G#3",
          "ticks": 181046,
          "time": 117.86848958333333,
          "velocity": 0.15748031496062992
        },
        {
          "duration": 0.125,
          "durationTicks": 192,
          "midi": 52,
          "name": "E3",
          "ticks": 181052,
          "time": 117.87239583333333,
          "velocity": 0.4015748031496063
        },
        {
          "duration": 0.125,
          "durationTicks": 192,
          "midi": 61,
          "name": "C#4",
          "ticks": 181057,
          "time": 117.87565104166667,
          "velocity": 0.25984251968503935
        },
        {
          "duration": 0.3118489583333286,
          "durationTicks": 479,
          "midi": 69,
          "name": "A4",
          "ticks": 181230,
          "time": 117.98828125,
          "velocity": 0.11023622047244094
        },
        {
          "duration": 0.3118489583333286,
          "durationTicks": 479,
          "midi": 49,
          "name": "C#3",
          "ticks": 181231,
          "time": 117.98893229166667,
          "velocity": 0.5984251968503937
        },
        {
          "duration": 0.3118489583333428,
          "durationTicks": 479,
          "midi": 61,
          "name": "C#4",
          "ticks": 181232,
          "time": 117.98958333333333,
          "velocity": 0.33070866141732286
        },
        {
          "duration": 0.3118489583333286,
          "durationTicks": 479,
          "midi": 56,
          "name": "G#3",
          "ticks": 181233,
          "time": 117.990234375,
          "velocity": 0.18110236220472442
        },
        {
          "duration": 0.3118489583333428,
          "durationTicks": 479,
          "midi": 68,
          "name": "G#4",
          "ticks": 181235,
          "time": 117.99153645833333,
          "velocity": 0.2992125984251969
        },
        {
          "duration": 0.3756510416666714,
          "durationTicks": 577,
          "midi": 56,
          "name": "G#3",
          "ticks": 181992,
          "time": 118.484375,
          "velocity": 0.2047244094488189
        },
        {
          "duration": 0.3756510416666572,
          "durationTicks": 577,
          "midi": 61,
          "name": "C#4",
          "ticks": 181996,
          "time": 118.48697916666667,
          "velocity": 0.3543307086614173
        },
        {
          "duration": 0.3756510416666714,
          "durationTicks": 577,
          "midi": 68,
          "name": "G#4",
          "ticks": 182000,
          "time": 118.48958333333333,
          "velocity": 0.18110236220472442
        },
        {
          "duration": 0.3756510416666572,
          "durationTicks": 577,
          "midi": 49,
          "name": "C#3",
          "ticks": 182008,
          "time": 118.49479166666667,
          "velocity": 0.5196850393700787
        },
        {
          "duration": 0.3756510416666714,
          "durationTicks": 577,
          "midi": 69,
          "name": "A4",
          "ticks": 182010,
          "time": 118.49609375,
          "velocity": 0.11023622047244094
        },
        {
          "duration": 0.1256510416666714,
          "durationTicks": 193,
          "midi": 49,
          "name": "C#3",
          "ticks": 182562,
          "time": 118.85546875,
          "velocity": 0.2440944881889764
        },
        {
          "duration": 0.1256510416666714,
          "durationTicks": 193,
          "midi": 51,
          "name": "D#3",
          "ticks": 182568,
          "time": 118.859375,
          "velocity": 0.3779527559055118
        },
        {
          "duration": 0.1256510416666714,
          "durationTicks": 193,
          "midi": 69,
          "name": "A4",
          "ticks": 182568,
          "time": 118.859375,
          "velocity": 0.11023622047244094
        },
        {
          "duration": 0.1256510416666572,
          "durationTicks": 193,
          "midi": 56,
          "name": "G#3",
          "ticks": 182572,
          "time": 118.86197916666667,
          "velocity": 0.3228346456692913
        },
        {
          "duration": 0.125,
          "durationTicks": 192,
          "midi": 68,
          "name": "G#4",
          "ticks": 182580,
          "time": 118.8671875,
          "velocity": 0.18110236220472442
        },
        {
          "duration": 0.2506510416666714,
          "durationTicks": 385,
          "midi": 61,
          "name": "C#4",
          "ticks": 183134,
          "time": 119.22786458333333,
          "velocity": 0.2047244094488189
        },
        {
          "duration": 0.2506510416666714,
          "durationTicks": 385,
          "midi": 69,
          "name": "A4",
          "ticks": 183146,
          "time": 119.23567708333333,
          "velocity": 0.14173228346456693
        },
        {
          "duration": 0.2506510416666714,
          "durationTicks": 385,
          "midi": 68,
          "name": "G#4",
          "ticks": 183150,
          "time": 119.23828125,
          "velocity": 0.3464566929133858
        },
        {
          "duration": 0.2506510416666714,
          "durationTicks": 385,
          "midi": 51,
          "name": "D#3",
          "ticks": 183152,
          "time": 119.23958333333333,
          "velocity": 0.5196850393700787
        },
        {
          "duration": 0.2506510416666714,
          "durationTicks": 385,
          "midi": 49,
          "name": "C#3",
          "ticks": 183156,
          "time": 119.2421875,
          "velocity": 0.4015748031496063
        },
        {
          "duration": 0.2513020833333286,
          "durationTicks": 386,
          "midi": 56,
          "name": "G#3",
          "ticks": 183160,
          "time": 119.24479166666667,
          "velocity": 0.14960629921259844
        },
        {
          "duration": 0.1263020833333286,
          "durationTicks": 194,
          "midi": 69,
          "name": "A4",
          "ticks": 183529,
          "time": 119.48502604166667,
          "velocity": 0.11811023622047244
        },
        {
          "duration": 0.1256510416666714,
          "durationTicks": 193,
          "midi": 68,
          "name": "G#4",
          "ticks": 183534,
          "time": 119.48828125,
          "velocity": 0.2125984251968504
        },
        {
          "duration": 0.1256510416666714,
          "durationTicks": 193,
          "midi": 49,
          "name": "C#3",
          "ticks": 183536,
          "time": 119.48958333333333,
          "velocity": 0.23622047244094488
        },
        {
          "duration": 0.1256510416666572,
          "durationTicks": 193,
          "midi": 51,
          "name": "D#3",
          "ticks": 183538,
          "time": 119.49088541666667,
          "velocity": 0.30708661417322836
        },
        {
          "duration": 0.1256510416666572,
          "durationTicks": 193,
          "midi": 56,
          "name": "G#3",
          "ticks": 183541,
          "time": 119.49283854166667,
          "velocity": 0.11023622047244094
        },
        {
          "duration": 0.125,
          "durationTicks": 192,
          "midi": 61,
          "name": "C#4",
          "ticks": 183545,
          "time": 119.49544270833333,
          "velocity": 0.23622047244094488
        },
        {
          "duration": 0.2493489583333286,
          "durationTicks": 383,
          "midi": 51,
          "name": "D#3",
          "ticks": 183718,
          "time": 119.60807291666667,
          "velocity": 0.30708661417322836
        },
        {
          "duration": 0.2493489583333428,
          "durationTicks": 383,
          "midi": 69,
          "name": "A4",
          "ticks": 183719,
          "time": 119.60872395833333,
          "velocity": 0.14173228346456693
        },
        {
          "duration": 0.2493489583333286,
          "durationTicks": 383,
          "midi": 56,
          "name": "G#3",
          "ticks": 183729,
          "time": 119.615234375,
          "velocity": 0.2283464566929134
        },
        {
          "duration": 0.2493489583333428,
          "durationTicks": 383,
          "midi": 68,
          "name": "G#4",
          "ticks": 183731,
          "time": 119.61653645833333,
          "velocity": 0.28346456692913385
        },
        {
          "duration": 0.2493489583333428,
          "durationTicks": 383,
          "midi": 49,
          "name": "C#3",
          "ticks": 183734,
          "time": 119.61848958333333,
          "velocity": 0.4330708661417323
        },
        {
          "duration": 0.2493489583333286,
          "durationTicks": 383,
          "midi": 61,
          "name": "C#4",
          "ticks": 183748,
          "time": 119.62760416666667,
          "velocity": 0.4251968503937008
        },
        {
          "duration": 0.125,
          "durationTicks": 192,
          "midi": 61,
          "name": "C#4",
          "ticks": 184111,
          "time": 119.86393229166667,
          "velocity": 0.25984251968503935
        },
        {
          "duration": 0.125,
          "durationTicks": 192,
          "midi": 51,
          "name": "D#3",
          "ticks": 184111,
          "time": 119.86393229166667,
          "velocity": 0.4409448818897638
        },
        {
          "duration": 0.1243489583333286,
          "durationTicks": 191,
          "midi": 49,
          "name": "C#3",
          "ticks": 184114,
          "time": 119.86588541666667,
          "velocity": 0.2677165354330709
        },
        {
          "duration": 0.12434895833334281,
          "durationTicks": 191,
          "midi": 68,
          "name": "G#4",
          "ticks": 184115,
          "time": 119.86653645833333,
          "velocity": 0.25984251968503935
        },
        {
          "duration": 0.1243489583333286,
          "durationTicks": 191,
          "midi": 56,
          "name": "G#3",
          "ticks": 184117,
          "time": 119.86783854166667,
          "velocity": 0.13385826771653545
        },
        {
          "duration": 0.12434895833334281,
          "durationTicks": 191,
          "midi": 69,
          "name": "A4",
          "ticks": 184118,
          "time": 119.86848958333333,
          "velocity": 0.15748031496062992
        },
        {
          "duration": 0.3125,
          "durationTicks": 480,
          "midi": 57,
          "name": "A3",
          "ticks": 184305,
          "time": 119.990234375,
          "velocity": 0.1732283464566929
        },
        {
          "duration": 0.3125,
          "durationTicks": 480,
          "midi": 67,
          "name": "G4",
          "ticks": 184308,
          "time": 119.9921875,
          "velocity": 0.14173228346456693
        },
        {
          "duration": 0.3125,
          "durationTicks": 480,
          "midi": 62,
          "name": "D4",
          "ticks": 184312,
          "time": 119.99479166666667,
          "velocity": 0.33070866141732286
        },
        {
          "duration": 0.3125,
          "durationTicks": 480,
          "midi": 69,
          "name": "A4",
          "ticks": 184314,
          "time": 119.99609375,
          "velocity": 0.1889763779527559
        },
        {
          "duration": 0.3125,
          "durationTicks": 480,
          "midi": 50,
          "name": "D3",
          "ticks": 184316,
          "time": 119.99739583333333,
          "velocity": 0.5511811023622047
        },
        {
          "duration": 0.3743489583333428,
          "durationTicks": 575,
          "midi": 67,
          "name": "G4",
          "ticks": 185060,
          "time": 120.48177083333333,
          "velocity": 0.13385826771653545
        },
        {
          "duration": 0.3743489583333428,
          "durationTicks": 575,
          "midi": 50,
          "name": "D3",
          "ticks": 185078,
          "time": 120.49348958333333,
          "velocity": 0.6141732283464567
        },
        {
          "duration": 0.3743489583333428,
          "durationTicks": 575,
          "midi": 69,
          "name": "A4",
          "ticks": 185081,
          "time": 120.49544270833333,
          "velocity": 0.25984251968503935
        },
        {
          "duration": 0.3743489583333286,
          "durationTicks": 575,
          "midi": 57,
          "name": "A3",
          "ticks": 185083,
          "time": 120.49674479166667,
          "velocity": 0.1889763779527559
        },
        {
          "duration": 0.3743489583333286,
          "durationTicks": 575,
          "midi": 62,
          "name": "D4",
          "ticks": 185088,
          "time": 120.5,
          "velocity": 0.30708661417322836
        },
        {
          "duration": 0.1243489583333286,
          "durationTicks": 191,
          "midi": 67,
          "name": "G4",
          "ticks": 185640,
          "time": 120.859375,
          "velocity": 0.16535433070866143
        },
        {
          "duration": 0.125,
          "durationTicks": 192,
          "midi": 57,
          "name": "A3",
          "ticks": 185653,
          "time": 120.86783854166667,
          "velocity": 0.3779527559055118
        },
        {
          "duration": 0.125,
          "durationTicks": 192,
          "midi": 50,
          "name": "D3",
          "ticks": 185655,
          "time": 120.869140625,
          "velocity": 0.2755905511811024
        },
        {
          "duration": 0.125,
          "durationTicks": 192,
          "midi": 69,
          "name": "A4",
          "ticks": 185657,
          "time": 120.87044270833333,
          "velocity": 0.2125984251968504
        },
        {
          "duration": 0.125,
          "durationTicks": 192,
          "midi": 62,
          "name": "D4",
          "ticks": 185662,
          "time": 120.87369791666667,
          "velocity": 0.3700787401574803
        },
        {
          "duration": 0.25,
          "durationTicks": 384,
          "midi": 57,
          "name": "A3",
          "ticks": 186217,
          "time": 121.23502604166667,
          "velocity": 0.18110236220472442
        },
        {
          "duration": 0.25,
          "durationTicks": 384,
          "midi": 62,
          "name": "D4",
          "ticks": 186219,
          "time": 121.236328125,
          "velocity": 0.25984251968503935
        },
        {
          "duration": 0.25,
          "durationTicks": 384,
          "midi": 50,
          "name": "D3",
          "ticks": 186220,
          "time": 121.23697916666667,
          "velocity": 0.36220472440944884
        },
        {
          "duration": 0.25,
          "durationTicks": 384,
          "midi": 67,
          "name": "G4",
          "ticks": 186224,
          "time": 121.23958333333333,
          "velocity": 0.2440944881889764
        },
        {
          "duration": 0.25,
          "durationTicks": 384,
          "midi": 69,
          "name": "A4",
          "ticks": 186232,
          "time": 121.24479166666667,
          "velocity": 0.15748031496062992
        },
        {
          "duration": 0.25,
          "durationTicks": 384,
          "midi": 54,
          "name": "F#3",
          "ticks": 186240,
          "time": 121.25,
          "velocity": 0.5196850393700787
        },
        {
          "duration": 0.125,
          "durationTicks": 192,
          "midi": 50,
          "name": "D3",
          "ticks": 186589,
          "time": 121.47721354166667,
          "velocity": 0.28346456692913385
        },
        {
          "duration": 0.1256510416666714,
          "durationTicks": 193,
          "midi": 69,
          "name": "A4",
          "ticks": 186600,
          "time": 121.484375,
          "velocity": 0.10236220472440945
        },
        {
          "duration": 0.125,
          "durationTicks": 192,
          "midi": 67,
          "name": "G4",
          "ticks": 186607,
          "time": 121.48893229166667,
          "velocity": 0.28346456692913385
        },
        {
          "duration": 0.125,
          "durationTicks": 192,
          "midi": 62,
          "name": "D4",
          "ticks": 186611,
          "time": 121.49153645833333,
          "velocity": 0.2755905511811024
        },
        {
          "duration": 0.125,
          "durationTicks": 192,
          "midi": 54,
          "name": "F#3",
          "ticks": 186614,
          "time": 121.49348958333333,
          "velocity": 0.5039370078740157
        },
        {
          "duration": 0.1256510416666572,
          "durationTicks": 193,
          "midi": 57,
          "name": "A3",
          "ticks": 186616,
          "time": 121.49479166666667,
          "velocity": 0.14173228346456693
        },
        {
          "duration": 0.2506510416666714,
          "durationTicks": 385,
          "midi": 54,
          "name": "F#3",
          "ticks": 186785,
          "time": 121.60481770833333,
          "velocity": 0.3228346456692913
        },
        {
          "duration": 0.2506510416666572,
          "durationTicks": 385,
          "midi": 69,
          "name": "A4",
          "ticks": 186787,
          "time": 121.60611979166667,
          "velocity": 0.2047244094488189
        },
        {
          "duration": 0.2506510416666714,
          "durationTicks": 385,
          "midi": 57,
          "name": "A3",
          "ticks": 186792,
          "time": 121.609375,
          "velocity": 0.18110236220472442
        },
        {
          "duration": 0.2506510416666714,
          "durationTicks": 385,
          "midi": 62,
          "name": "D4",
          "ticks": 186795,
          "time": 121.611328125,
          "velocity": 0.25984251968503935
        },
        {
          "duration": 0.2506510416666714,
          "durationTicks": 385,
          "midi": 50,
          "name": "D3",
          "ticks": 186807,
          "time": 121.619140625,
          "velocity": 0.3464566929133858
        },
        {
          "duration": 0.2506510416666572,
          "durationTicks": 385,
          "midi": 67,
          "name": "G4",
          "ticks": 186808,
          "time": 121.61979166666667,
          "velocity": 0.3700787401574803
        },
        {
          "duration": 0.1256510416666572,
          "durationTicks": 193,
          "midi": 54,
          "name": "F#3",
          "ticks": 187180,
          "time": 121.86197916666667,
          "velocity": 0.36220472440944884
        },
        {
          "duration": 0.1256510416666572,
          "durationTicks": 193,
          "midi": 62,
          "name": "D4",
          "ticks": 187180,
          "time": 121.86197916666667,
          "velocity": 0.2755905511811024
        },
        {
          "duration": 0.1256510416666714,
          "durationTicks": 193,
          "midi": 67,
          "name": "G4",
          "ticks": 187182,
          "time": 121.86328125,
          "velocity": 0.1968503937007874
        },
        {
          "duration": 0.1256510416666572,
          "durationTicks": 193,
          "midi": 57,
          "name": "A3",
          "ticks": 187183,
          "time": 121.86393229166667,
          "velocity": 0.14960629921259844
        },
        {
          "duration": 0.1256510416666714,
          "durationTicks": 193,
          "midi": 50,
          "name": "D3",
          "ticks": 187185,
          "time": 121.865234375,
          "velocity": 0.25984251968503935
        },
        {
          "duration": 0.1256510416666714,
          "durationTicks": 193,
          "midi": 69,
          "name": "A4",
          "ticks": 187202,
          "time": 121.87630208333333,
          "velocity": 0.14173228346456693
        },
        {
          "duration": 0.3131510416666714,
          "durationTicks": 481,
          "midi": 68,
          "name": "G#4",
          "ticks": 187361,
          "time": 121.97981770833333,
          "velocity": 0.07874015748031496
        },
        {
          "duration": 0.3131510416666714,
          "durationTicks": 481,
          "midi": 64,
          "name": "E4",
          "ticks": 187365,
          "time": 121.982421875,
          "velocity": 0.25984251968503935
        },
        {
          "duration": 0.3125,
          "durationTicks": 480,
          "midi": 61,
          "name": "C#4",
          "ticks": 187377,
          "time": 121.990234375,
          "velocity": 0.33070866141732286
        },
        {
          "duration": 0.3125,
          "durationTicks": 480,
          "midi": 49,
          "name": "C#3",
          "ticks": 187381,
          "time": 121.99283854166667,
          "velocity": 0.4409448818897638
        },
        {
          "duration": 0.3125,
          "durationTicks": 480,
          "midi": 57,
          "name": "A3",
          "ticks": 187387,
          "time": 121.99674479166667,
          "velocity": 0.2047244094488189
        },
        {
          "duration": 0.375,
          "durationTicks": 576,
          "midi": 61,
          "name": "C#4",
          "ticks": 188129,
          "time": 122.47981770833333,
          "velocity": 0.28346456692913385
        },
        {
          "duration": 0.375,
          "durationTicks": 576,
          "midi": 64,
          "name": "E4",
          "ticks": 188135,
          "time": 122.48372395833333,
          "velocity": 0.4251968503937008
        },
        {
          "duration": 0.375,
          "durationTicks": 576,
          "midi": 49,
          "name": "C#3",
          "ticks": 188145,
          "time": 122.490234375,
          "velocity": 0.5118110236220472
        },
        {
          "duration": 0.375,
          "durationTicks": 576,
          "midi": 57,
          "name": "A3",
          "ticks": 188156,
          "time": 122.49739583333333,
          "velocity": 0.2047244094488189
        },
        {
          "duration": 0.375,
          "durationTicks": 576,
          "midi": 68,
          "name": "G#4",
          "ticks": 188156,
          "time": 122.49739583333333,
          "velocity": 0.06299212598425197
        },
        {
          "duration": 0.125,
          "durationTicks": 192,
          "midi": 64,
          "name": "E4",
          "ticks": 188718,
          "time": 122.86328125,
          "velocity": 0.25984251968503935
        },
        {
          "duration": 0.125,
          "durationTicks": 192,
          "midi": 68,
          "name": "G#4",
          "ticks": 188718,
          "time": 122.86328125,
          "velocity": 0.05511811023622047
        },
        {
          "duration": 0.125,
          "durationTicks": 192,
          "midi": 52,
          "name": "E3",
          "ticks": 188719,
          "time": 122.86393229166667,
          "velocity": 0.18110236220472442
        },
        {
          "duration": 0.125,
          "durationTicks": 192,
          "midi": 57,
          "name": "A3",
          "ticks": 188725,
          "time": 122.86783854166667,
          "velocity": 0.4330708661417323
        },
        {
          "duration": 0.125,
          "durationTicks": 192,
          "midi": 49,
          "name": "C#3",
          "ticks": 188726,
          "time": 122.86848958333333,
          "velocity": 0.30708661417322836
        },
        {
          "duration": 0.25,
          "durationTicks": 384,
          "midi": 52,
          "name": "E3",
          "ticks": 189274,
          "time": 123.22526041666667,
          "velocity": 0.4015748031496063
        },
        {
          "duration": 0.25,
          "durationTicks": 384,
          "midi": 68,
          "name": "G#4",
          "ticks": 189292,
          "time": 123.23697916666667,
          "velocity": 0.13385826771653545
        },
        {
          "duration": 0.2493489583333286,
          "durationTicks": 383,
          "midi": 49,
          "name": "C#3",
          "ticks": 189300,
          "time": 123.2421875,
          "velocity": 0.4094488188976378
        },
        {
          "duration": 0.2493489583333286,
          "durationTicks": 383,
          "midi": 61,
          "name": "C#4",
          "ticks": 189300,
          "time": 123.2421875,
          "velocity": 0.25984251968503935
        },
        {
          "duration": 0.2493489583333286,
          "durationTicks": 383,
          "midi": 64,
          "name": "E4",
          "ticks": 189301,
          "time": 123.24283854166667,
          "velocity": 0.47244094488188976
        },
        {
          "duration": 0.25,
          "durationTicks": 384,
          "midi": 57,
          "name": "A3",
          "ticks": 189318,
          "time": 123.25390625,
          "velocity": 0.15748031496062992
        },
        {
          "duration": 0.125,
          "durationTicks": 192,
          "midi": 64,
          "name": "E4",
          "ticks": 189668,
          "time": 123.48177083333333,
          "velocity": 0.2677165354330709
        },
        {
          "duration": 0.125,
          "durationTicks": 192,
          "midi": 49,
          "name": "C#3",
          "ticks": 189670,
          "time": 123.48307291666667,
          "velocity": 0.18110236220472442
        },
        {
          "duration": 0.1256510416666714,
          "durationTicks": 193,
          "midi": 68,
          "name": "G#4",
          "ticks": 189674,
          "time": 123.48567708333333,
          "velocity": 0.10236220472440945
        },
        {
          "duration": 0.1256510416666714,
          "durationTicks": 193,
          "midi": 57,
          "name": "A3",
          "ticks": 189678,
          "time": 123.48828125,
          "velocity": 0.23622047244094488
        },
        {
          "duration": 0.1256510416666572,
          "durationTicks": 193,
          "midi": 52,
          "name": "E3",
          "ticks": 189682,
          "time": 123.49088541666667,
          "velocity": 0.2677165354330709
        },
        {
          "duration": 0.1256510416666714,
          "durationTicks": 193,
          "midi": 61,
          "name": "C#4",
          "ticks": 189695,
          "time": 123.49934895833333,
          "velocity": 0.3464566929133858
        },
        {
          "duration": 0.25,
          "durationTicks": 384,
          "midi": 61,
          "name": "C#4",
          "ticks": 189863,
          "time": 123.60872395833333,
          "velocity": 0.33858267716535434
        },
        {
          "duration": 0.2493489583333286,
          "durationTicks": 383,
          "midi": 52,
          "name": "E3",
          "ticks": 189865,
          "time": 123.61002604166667,
          "velocity": 0.33858267716535434
        },
        {
          "duration": 0.2486979166666714,
          "durationTicks": 382,
          "midi": 57,
          "name": "A3",
          "ticks": 189869,
          "time": 123.61263020833333,
          "velocity": 0.18110236220472442
        },
        {
          "duration": 0.2493489583333428,
          "durationTicks": 383,
          "midi": 68,
          "name": "G#4",
          "ticks": 189872,
          "time": 123.61458333333333,
          "velocity": 0.14173228346456693
        },
        {
          "duration": 0.2493489583333286,
          "durationTicks": 383,
          "midi": 49,
          "name": "C#3",
          "ticks": 189876,
          "time": 123.6171875,
          "velocity": 0.4251968503937008
        },
        {
          "duration": 0.2493489583333428,
          "durationTicks": 383,
          "midi": 64,
          "name": "E4",
          "ticks": 189878,
          "time": 123.61848958333333,
          "velocity": 0.3937007874015748
        },
        {
          "duration": 0.125,
          "durationTicks": 192,
          "midi": 64,
          "name": "E4",
          "ticks": 190247,
          "time": 123.85872395833333,
          "velocity": 0.31496062992125984
        },
        {
          "duration": 0.1256510416666714,
          "durationTicks": 193,
          "midi": 61,
          "name": "C#4",
          "ticks": 190253,
          "time": 123.86263020833333,
          "velocity": 0.25196850393700787
        },
        {
          "duration": 0.1256510416666572,
          "durationTicks": 193,
          "midi": 57,
          "name": "A3",
          "ticks": 190255,
          "time": 123.86393229166667,
          "velocity": 0.16535433070866143
        },
        {
          "duration": 0.1256510416666572,
          "durationTicks": 193,
          "midi": 68,
          "name": "G#4",
          "ticks": 190258,
          "time": 123.86588541666667,
          "velocity": 0.06299212598425197
        },
        {
          "duration": 0.1263020833333286,
          "durationTicks": 194,
          "midi": 49,
          "name": "C#3",
          "ticks": 190267,
          "time": 123.87174479166667,
          "velocity": 0.2755905511811024
        },
        {
          "duration": 0.1263020833333428,
          "durationTicks": 194,
          "midi": 52,
          "name": "E3",
          "ticks": 190268,
          "time": 123.87239583333333,
          "velocity": 0.2755905511811024
        },
        {
          "duration": 0.3763020833333286,
          "durationTicks": 578,
          "midi": 71,
          "name": "B4",
          "ticks": 190443,
          "time": 123.986328125,
          "velocity": 0.15748031496062992
        },
        {
          "duration": 0.3763020833333428,
          "durationTicks": 578,
          "midi": 61,
          "name": "C#4",
          "ticks": 190445,
          "time": 123.98763020833333,
          "velocity": 0.2204724409448819
        },
        {
          "duration": 0.3756510416666714,
          "durationTicks": 577,
          "midi": 59,
          "name": "B3",
          "ticks": 190452,
          "time": 123.9921875,
          "velocity": 0.41732283464566927
        },
        {
          "duration": 0.3756510416666714,
          "durationTicks": 577,
          "midi": 66,
          "name": "F#4",
          "ticks": 190455,
          "time": 123.994140625,
          "velocity": 0.41732283464566927
        },
        {
          "duration": 0.3756510416666714,
          "durationTicks": 577,
          "midi": 62,
          "name": "D4",
          "ticks": 190464,
          "time": 124,
          "velocity": 0.3543307086614173
        },
        {
          "duration": 0.3743489583333286,
          "durationTicks": 575,
          "midi": 62,
          "name": "D4",
          "ticks": 191209,
          "time": 124.48502604166667,
          "velocity": 0.30708661417322836
        },
        {
          "duration": 0.3743489583333286,
          "durationTicks": 575,
          "midi": 59,
          "name": "B3",
          "ticks": 191214,
          "time": 124.48828125,
          "velocity": 0.3700787401574803
        },
        {
          "duration": 0.3743489583333286,
          "durationTicks": 575,
          "midi": 71,
          "name": "B4",
          "ticks": 191221,
          "time": 124.49283854166667,
          "velocity": 0.25196850393700787
        },
        {
          "duration": 0.3743489583333286,
          "durationTicks": 575,
          "midi": 61,
          "name": "C#4",
          "ticks": 191221,
          "time": 124.49283854166667,
          "velocity": 0.15748031496062992
        },
        {
          "duration": 0.3743489583333428,
          "durationTicks": 575,
          "midi": 66,
          "name": "F#4",
          "ticks": 191222,
          "time": 124.49348958333333,
          "velocity": 0.4566929133858268
        },
        {
          "duration": 0.125,
          "durationTicks": 192,
          "midi": 66,
          "name": "F#4",
          "ticks": 191792,
          "time": 124.86458333333333,
          "velocity": 0.4566929133858268
        },
        {
          "duration": 0.125,
          "durationTicks": 192,
          "midi": 59,
          "name": "B3",
          "ticks": 191796,
          "time": 124.8671875,
          "velocity": 0.41732283464566927
        },
        {
          "duration": 0.1256510416666714,
          "durationTicks": 193,
          "midi": 71,
          "name": "B4",
          "ticks": 191798,
          "time": 124.86848958333333,
          "velocity": 0.2125984251968504
        },
        {
          "duration": 0.1256510416666572,
          "durationTicks": 193,
          "midi": 64,
          "name": "E4",
          "ticks": 191800,
          "time": 124.86979166666667,
          "velocity": 0.25984251968503935
        },
        {
          "duration": 0.1256510416666714,
          "durationTicks": 193,
          "midi": 62,
          "name": "D4",
          "ticks": 191810,
          "time": 124.87630208333333,
          "velocity": 0.41732283464566927
        },
        {
          "duration": 0.25,
          "durationTicks": 384,
          "midi": 62,
          "name": "D4",
          "ticks": 192358,
          "time": 125.23307291666667,
          "velocity": 0.33858267716535434
        },
        {
          "duration": 0.25,
          "durationTicks": 384,
          "midi": 71,
          "name": "B4",
          "ticks": 192361,
          "time": 125.23502604166667,
          "velocity": 0.15748031496062992
        },
        {
          "duration": 0.2493489583333286,
          "durationTicks": 383,
          "midi": 66,
          "name": "F#4",
          "ticks": 192372,
          "time": 125.2421875,
          "velocity": 0.3779527559055118
        },
        {
          "duration": 0.2395833333333286,
          "durationTicks": 368,
          "midi": 64,
          "name": "E4",
          "ticks": 192381,
          "time": 125.248046875,
          "velocity": 0.14960629921259844
        },
        {
          "duration": 0.2493489583333428,
          "durationTicks": 383,
          "midi": 59,
          "name": "B3",
          "ticks": 192389,
          "time": 125.25325520833333,
          "velocity": 0.5275590551181102
        },
        {
          "duration": 0.12434895833334281,
          "durationTicks": 191,
          "midi": 59,
          "name": "B3",
          "ticks": 192737,
          "time": 125.47981770833333,
          "velocity": 0.1889763779527559
        },
        {
          "duration": 0.125,
          "durationTicks": 192,
          "midi": 71,
          "name": "B4",
          "ticks": 192751,
          "time": 125.48893229166667,
          "velocity": 0.023622047244094488
        },
        {
          "duration": 0.1256510416666714,
          "durationTicks": 193,
          "midi": 66,
          "name": "F#4",
          "ticks": 192755,
          "time": 125.49153645833333,
          "velocity": 0.2047244094488189
        },
        {
          "duration": 0.1256510416666714,
          "durationTicks": 193,
          "midi": 62,
          "name": "D4",
          "ticks": 192756,
          "time": 125.4921875,
          "velocity": 0.2047244094488189
        },
        {
          "duration": 0.2486979166666572,
          "durationTicks": 382,
          "midi": 62,
          "name": "D4",
          "ticks": 192949,
          "time": 125.61783854166667,
          "velocity": 0.3543307086614173
        },
        {
          "duration": 0.2486979166666714,
          "durationTicks": 382,
          "midi": 71,
          "name": "B4",
          "ticks": 192953,
          "time": 125.62044270833333,
          "velocity": 0.25984251968503935
        },
        {
          "duration": 0.2486979166666714,
          "durationTicks": 382,
          "midi": 64,
          "name": "E4",
          "ticks": 192953,
          "time": 125.62044270833333,
          "velocity": 0.2204724409448819
        },
        {
          "duration": 0.2493489583333428,
          "durationTicks": 383,
          "midi": 66,
          "name": "F#4",
          "ticks": 192962,
          "time": 125.62630208333333,
          "velocity": 0.30708661417322836
        },
        {
          "duration": 0.2493489583333286,
          "durationTicks": 383,
          "midi": 59,
          "name": "B3",
          "ticks": 192963,
          "time": 125.626953125,
          "velocity": 0.3700787401574803
        },
        {
          "duration": 0.1243489583333286,
          "durationTicks": 191,
          "midi": 62,
          "name": "D4",
          "ticks": 193324,
          "time": 125.86197916666667,
          "velocity": 0.23622047244094488
        },
        {
          "duration": 0.125,
          "durationTicks": 192,
          "midi": 66,
          "name": "F#4",
          "ticks": 193327,
          "time": 125.86393229166667,
          "velocity": 0.2047244094488189
        },
        {
          "duration": 0.125,
          "durationTicks": 192,
          "midi": 64,
          "name": "E4",
          "ticks": 193335,
          "time": 125.869140625,
          "velocity": 0.06299212598425197
        },
        {
          "duration": 0.1256510416666572,
          "durationTicks": 193,
          "midi": 59,
          "name": "B3",
          "ticks": 193336,
          "time": 125.86979166666667,
          "velocity": 0.2125984251968504
        },
        {
          "duration": 0.1256510416666572,
          "durationTicks": 193,
          "midi": 71,
          "name": "B4",
          "ticks": 193339,
          "time": 125.87174479166667,
          "velocity": 0.11023622047244094
        },
        {
          "duration": 0.3756510416666714,
          "durationTicks": 577,
          "midi": 62,
          "name": "D4",
          "ticks": 193496,
          "time": 125.97395833333333,
          "velocity": 0.12598425196850394
        },
        {
          "duration": 0.3756510416666572,
          "durationTicks": 577,
          "midi": 61,
          "name": "C#4",
          "ticks": 193516,
          "time": 125.98697916666667,
          "velocity": 0.30708661417322836
        },
        {
          "duration": 0.3756510416666714,
          "durationTicks": 577,
          "midi": 59,
          "name": "B3",
          "ticks": 193517,
          "time": 125.98763020833333,
          "velocity": 0.36220472440944884
        },
        {
          "duration": 0.3756510416666714,
          "durationTicks": 577,
          "midi": 71,
          "name": "B4",
          "ticks": 193520,
          "time": 125.98958333333333,
          "velocity": 0.2047244094488189
        },
        {
          "duration": 0.3756510416666714,
          "durationTicks": 577,
          "midi": 66,
          "name": "F#4",
          "ticks": 193520,
          "time": 125.98958333333333,
          "velocity": 0.4330708661417323
        },
        {
          "duration": 0.3756510416666714,
          "durationTicks": 577,
          "midi": 71,
          "name": "B4",
          "ticks": 194280,
          "time": 126.484375,
          "velocity": 0.23622047244094488
        },
        {
          "duration": 0.3756510416666714,
          "durationTicks": 577,
          "midi": 61,
          "name": "C#4",
          "ticks": 194282,
          "time": 126.48567708333333,
          "velocity": 0.6141732283464567
        },
        {
          "duration": 0.3763020833333286,
          "durationTicks": 578,
          "midi": 59,
          "name": "B3",
          "ticks": 194286,
          "time": 126.48828125,
          "velocity": 0.33858267716535434
        },
        {
          "duration": 0.3763020833333286,
          "durationTicks": 578,
          "midi": 62,
          "name": "D4",
          "ticks": 194287,
          "time": 126.48893229166667,
          "velocity": 0.25196850393700787
        },
        {
          "duration": 0.3763020833333428,
          "durationTicks": 578,
          "midi": 66,
          "name": "F#4",
          "ticks": 194294,
          "time": 126.49348958333333,
          "velocity": 0.3700787401574803
        },
        {
          "duration": 0.1263020833333286,
          "durationTicks": 194,
          "midi": 66,
          "name": "F#4",
          "ticks": 194856,
          "time": 126.859375,
          "velocity": 0.5590551181102362
        },
        {
          "duration": 0.1256510416666714,
          "durationTicks": 193,
          "midi": 71,
          "name": "B4",
          "ticks": 194861,
          "time": 126.86263020833333,
          "velocity": 0.18110236220472442
        },
        {
          "duration": 0.1256510416666714,
          "durationTicks": 193,
          "midi": 59,
          "name": "B3",
          "ticks": 194867,
          "time": 126.86653645833333,
          "velocity": 0.49606299212598426
        },
        {
          "duration": 0.125,
          "durationTicks": 192,
          "midi": 62,
          "name": "D4",
          "ticks": 194874,
          "time": 126.87109375,
          "velocity": 0.33858267716535434
        },
        {
          "duration": 0.25,
          "durationTicks": 384,
          "midi": 59,
          "name": "B3",
          "ticks": 195422,
          "time": 127.22786458333333,
          "velocity": 0.2677165354330709
        },
        {
          "duration": 0.25,
          "durationTicks": 384,
          "midi": 62,
          "name": "D4",
          "ticks": 195427,
          "time": 127.23111979166667,
          "velocity": 0.48031496062992124
        },
        {
          "duration": 0.2493489583333286,
          "durationTicks": 383,
          "midi": 66,
          "name": "F#4",
          "ticks": 195439,
          "time": 127.23893229166667,
          "velocity": 0.3700787401574803
        },
        {
          "duration": 0.2493489583333428,
          "durationTicks": 383,
          "midi": 71,
          "name": "B4",
          "ticks": 195452,
          "time": 127.24739583333333,
          "velocity": 0.2204724409448819
        },
        {
          "duration": 0.1243489583333286,
          "durationTicks": 191,
          "midi": 59,
          "name": "B3",
          "ticks": 195819,
          "time": 127.486328125,
          "velocity": 0.23622047244094488
        },
        {
          "duration": 0.12434895833334281,
          "durationTicks": 191,
          "midi": 62,
          "name": "D4",
          "ticks": 195821,
          "time": 127.48763020833333,
          "velocity": 0.14960629921259844
        },
        {
          "duration": 0.1243489583333286,
          "durationTicks": 191,
          "midi": 71,
          "name": "B4",
          "ticks": 195832,
          "time": 127.49479166666667,
          "velocity": 0.031496062992125984
        },
        {
          "duration": 0.12434895833334281,
          "durationTicks": 191,
          "midi": 66,
          "name": "F#4",
          "ticks": 195836,
          "time": 127.49739583333333,
          "velocity": 0.25196850393700787
        },
        {
          "duration": 0.2493489583333286,
          "durationTicks": 383,
          "midi": 59,
          "name": "B3",
          "ticks": 196020,
          "time": 127.6171875,
          "velocity": 0.3858267716535433
        },
        {
          "duration": 0.25,
          "durationTicks": 384,
          "midi": 71,
          "name": "B4",
          "ticks": 196025,
          "time": 127.62044270833333,
          "velocity": 0.1732283464566929
        },
        {
          "duration": 0.2493489583333286,
          "durationTicks": 383,
          "midi": 62,
          "name": "D4",
          "ticks": 196029,
          "time": 127.623046875,
          "velocity": 0.30708661417322836
        },
        {
          "duration": 0.2493489583333286,
          "durationTicks": 383,
          "midi": 66,
          "name": "F#4",
          "ticks": 196029,
          "time": 127.623046875,
          "velocity": 0.3858267716535433
        },
        {
          "duration": 0.1243489583333286,
          "durationTicks": 191,
          "midi": 62,
          "name": "D4",
          "ticks": 196384,
          "time": 127.85416666666667,
          "velocity": 0.2440944881889764
        },
        {
          "duration": 0.125,
          "durationTicks": 192,
          "midi": 66,
          "name": "F#4",
          "ticks": 196397,
          "time": 127.86263020833333,
          "velocity": 0.25196850393700787
        },
        {
          "duration": 0.1243489583333286,
          "durationTicks": 191,
          "midi": 59,
          "name": "B3",
          "ticks": 196401,
          "time": 127.865234375,
          "velocity": 0.2283464566929134
        },
        {
          "duration": 0.1243489583333286,
          "durationTicks": 191,
          "midi": 71,
          "name": "B4",
          "ticks": 196405,
          "time": 127.86783854166667,
          "velocity": 0.14173228346456693
        },
        {
          "duration": 0.375,
          "durationTicks": 576,
          "midi": 61,
          "name": "C#4",
          "ticks": 196584,
          "time": 127.984375,
          "velocity": 0.047244094488188976
        },
        {
          "duration": 0.375,
          "durationTicks": 576,
          "midi": 62,
          "name": "D4",
          "ticks": 196590,
          "time": 127.98828125,
          "velocity": 0.47244094488188976
        },
        {
          "duration": 0.3750000000000142,
          "durationTicks": 576,
          "midi": 59,
          "name": "B3",
          "ticks": 196595,
          "time": 127.99153645833333,
          "velocity": 0.5354330708661418
        },
        {
          "duration": 0.3750000000000142,
          "durationTicks": 576,
          "midi": 71,
          "name": "B4",
          "ticks": 196595,
          "time": 127.99153645833333,
          "velocity": 0.2283464566929134
        },
        {
          "duration": 0.375,
          "durationTicks": 576,
          "midi": 66,
          "name": "F#4",
          "ticks": 196608,
          "time": 128,
          "velocity": 0.5511811023622047
        },
        {
          "duration": 0.3743489583333428,
          "durationTicks": 575,
          "midi": 66,
          "name": "F#4",
          "ticks": 197350,
          "time": 128.48307291666666,
          "velocity": 0.3700787401574803
        },
        {
          "duration": 0.3743489583333428,
          "durationTicks": 575,
          "midi": 62,
          "name": "D4",
          "ticks": 197352,
          "time": 128.484375,
          "velocity": 0.4094488188976378
        },
        {
          "duration": 0.3743489583333428,
          "durationTicks": 575,
          "midi": 59,
          "name": "B3",
          "ticks": 197352,
          "time": 128.484375,
          "velocity": 0.3228346456692913
        },
        {
          "duration": 0.3743489583333144,
          "durationTicks": 575,
          "midi": 61,
          "name": "C#4",
          "ticks": 197360,
          "time": 128.48958333333334,
          "velocity": 0.12598425196850394
        },
        {
          "duration": 0.3743489583333144,
          "durationTicks": 575,
          "midi": 71,
          "name": "B4",
          "ticks": 197360,
          "time": 128.48958333333334,
          "velocity": 0.1968503937007874
        },
        {
          "duration": 0.125,
          "durationTicks": 192,
          "midi": 62,
          "name": "D4",
          "ticks": 197923,
          "time": 128.85611979166666,
          "velocity": 0.2283464566929134
        },
        {
          "duration": 0.1256510416666572,
          "durationTicks": 193,
          "midi": 71,
          "name": "B4",
          "ticks": 197928,
          "time": 128.859375,
          "velocity": 0.25196850393700787
        },
        {
          "duration": 0.1256510416666572,
          "durationTicks": 193,
          "midi": 64,
          "name": "E4",
          "ticks": 197930,
          "time": 128.86067708333334,
          "velocity": 0.3937007874015748
        },
        {
          "duration": 0.1256510416666572,
          "durationTicks": 193,
          "midi": 59,
          "name": "B3",
          "ticks": 197942,
          "time": 128.86848958333334,
          "velocity": 0.4094488188976378
        },
        {
          "duration": 0.25,
          "durationTicks": 384,
          "midi": 64,
          "name": "E4",
          "ticks": 198498,
          "time": 129.23046875,
          "velocity": 0.6456692913385826
        },
        {
          "duration": 0.25,
          "durationTicks": 384,
          "midi": 62,
          "name": "D4",
          "ticks": 198498,
          "time": 129.23046875,
          "velocity": 0.1889763779527559
        },
        {
          "duration": 0.25,
          "durationTicks": 384,
          "midi": 59,
          "name": "B3",
          "ticks": 198517,
          "time": 129.24283854166666,
          "velocity": 0.28346456692913385
        },
        {
          "duration": 0.25,
          "durationTicks": 384,
          "midi": 71,
          "name": "B4",
          "ticks": 198528,
          "time": 129.25,
          "velocity": 0.1968503937007874
        },
        {
          "duration": 0.125,
          "durationTicks": 192,
          "midi": 62,
          "name": "D4",
          "ticks": 198877,
          "time": 129.47721354166666,
          "velocity": 0.09448818897637795
        },
        {
          "duration": 0.125,
          "durationTicks": 192,
          "midi": 59,
          "name": "B3",
          "ticks": 198880,
          "time": 129.47916666666666,
          "velocity": 0.2125984251968504
        },
        {
          "duration": 0.125,
          "durationTicks": 192,
          "midi": 64,
          "name": "E4",
          "ticks": 198896,
          "time": 129.48958333333334,
          "velocity": 0.2047244094488189
        },
        {
          "duration": 0.125,
          "durationTicks": 192,
          "midi": 71,
          "name": "B4",
          "ticks": 198898,
          "time": 129.49088541666666,
          "velocity": 0.031496062992125984
        },
        {
          "duration": 0.2506510416666572,
          "durationTicks": 385,
          "midi": 64,
          "name": "E4",
          "ticks": 199073,
          "time": 129.60481770833334,
          "velocity": 0.3858267716535433
        },
        {
          "duration": 0.25,
          "durationTicks": 384,
          "midi": 59,
          "name": "B3",
          "ticks": 199084,
          "time": 129.61197916666666,
          "velocity": 0.29133858267716534
        },
        {
          "duration": 0.25,
          "durationTicks": 384,
          "midi": 62,
          "name": "D4",
          "ticks": 199093,
          "time": 129.61783854166666,
          "velocity": 0.2677165354330709
        },
        {
          "duration": 0.25,
          "durationTicks": 384,
          "midi": 71,
          "name": "B4",
          "ticks": 199094,
          "time": 129.61848958333334,
          "velocity": 0.2047244094488189
        },
        {
          "duration": 0.125,
          "durationTicks": 192,
          "midi": 59,
          "name": "B3",
          "ticks": 199466,
          "time": 129.86067708333334,
          "velocity": 0.23622047244094488
        },
        {
          "duration": 0.125,
          "durationTicks": 192,
          "midi": 71,
          "name": "B4",
          "ticks": 199466,
          "time": 129.86067708333334,
          "velocity": 0.12598425196850394
        },
        {
          "duration": 0.12434895833331439,
          "durationTicks": 191,
          "midi": 62,
          "name": "D4",
          "ticks": 199487,
          "time": 129.87434895833334,
          "velocity": 0.14960629921259844
        },
        {
          "duration": 0.12434895833334281,
          "durationTicks": 191,
          "midi": 64,
          "name": "E4",
          "ticks": 199492,
          "time": 129.87760416666666,
          "velocity": 0.29133858267716534
        },
        {
          "duration": 0.3118489583333428,
          "durationTicks": 479,
          "midi": 62,
          "name": "D4",
          "ticks": 199659,
          "time": 129.986328125,
          "velocity": 0.49606299212598426
        },
        {
          "duration": 0.3118489583333428,
          "durationTicks": 479,
          "midi": 61,
          "name": "C#4",
          "ticks": 199660,
          "time": 129.98697916666666,
          "velocity": 0.09448818897637795
        },
        {
          "duration": 0.3118489583333428,
          "durationTicks": 479,
          "midi": 66,
          "name": "F#4",
          "ticks": 199660,
          "time": 129.98697916666666,
          "velocity": 0.4094488188976378
        },
        {
          "duration": 0.3118489583333428,
          "durationTicks": 479,
          "midi": 59,
          "name": "B3",
          "ticks": 199666,
          "time": 129.99088541666666,
          "velocity": 0.4566929133858268
        },
        {
          "duration": 0.3118489583333428,
          "durationTicks": 479,
          "midi": 71,
          "name": "B4",
          "ticks": 199669,
          "time": 129.99283854166666,
          "velocity": 0.1732283464566929
        },
        {
          "duration": 0.125,
          "durationTicks": 192,
          "midi": 59,
          "name": "B3",
          "ticks": 200228,
          "time": 130.35677083333334,
          "velocity": 0.2440944881889764
        },
        {
          "duration": 0.125,
          "durationTicks": 192,
          "midi": 62,
          "name": "D4",
          "ticks": 200230,
          "time": 130.35807291666666,
          "velocity": 0.2283464566929134
        },
        {
          "duration": 0.125,
          "durationTicks": 192,
          "midi": 66,
          "name": "F#4",
          "ticks": 200232,
          "time": 130.359375,
          "velocity": 0.23622047244094488
        },
        {
          "duration": 0.125,
          "durationTicks": 192,
          "midi": 61,
          "name": "C#4",
          "ticks": 200244,
          "time": 130.3671875,
          "velocity": 0.03937007874015748
        },
        {
          "duration": 0.125,
          "durationTicks": 192,
          "midi": 71,
          "name": "B4",
          "ticks": 200245,
          "time": 130.36783854166666,
          "velocity": 0.07086614173228346
        },
        {
          "duration": 0.375,
          "durationTicks": 576,
          "midi": 59,
          "name": "B3",
          "ticks": 200421,
          "time": 130.482421875,
          "velocity": 0.44881889763779526
        },
        {
          "duration": 0.375,
          "durationTicks": 576,
          "midi": 71,
          "name": "B4",
          "ticks": 200427,
          "time": 130.486328125,
          "velocity": 0.18110236220472442
        },
        {
          "duration": 0.375,
          "durationTicks": 576,
          "midi": 61,
          "name": "C#4",
          "ticks": 200437,
          "time": 130.49283854166666,
          "velocity": 0.15748031496062992
        },
        {
          "duration": 0.375,
          "durationTicks": 576,
          "midi": 62,
          "name": "D4",
          "ticks": 200440,
          "time": 130.49479166666666,
          "velocity": 0.3228346456692913
        },
        {
          "duration": 0.375,
          "durationTicks": 576,
          "midi": 66,
          "name": "F#4",
          "ticks": 200447,
          "time": 130.49934895833334,
          "velocity": 0.41732283464566927
        },
        {
          "duration": 0.125,
          "durationTicks": 192,
          "midi": 71,
          "name": "B4",
          "ticks": 200995,
          "time": 130.85611979166666,
          "velocity": 0.13385826771653545
        },
        {
          "duration": 0.125,
          "durationTicks": 192,
          "midi": 64,
          "name": "E4",
          "ticks": 201006,
          "time": 130.86328125,
          "velocity": 0.36220472440944884
        },
        {
          "duration": 0.125,
          "durationTicks": 192,
          "midi": 59,
          "name": "B3",
          "ticks": 201009,
          "time": 130.865234375,
          "velocity": 0.4409448818897638
        },
        {
          "duration": 0.125,
          "durationTicks": 192,
          "midi": 62,
          "name": "D4",
          "ticks": 201014,
          "time": 130.86848958333334,
          "velocity": 0.14960629921259844
        },
        {
          "duration": 0.2506510416666856,
          "durationTicks": 385,
          "midi": 62,
          "name": "D4",
          "ticks": 201583,
          "time": 131.23893229166666,
          "velocity": 0.2283464566929134
        },
        {
          "duration": 0.2506510416666856,
          "durationTicks": 385,
          "midi": 71,
          "name": "B4",
          "ticks": 201586,
          "time": 131.24088541666666,
          "velocity": 0.18110236220472442
        },
        {
          "duration": 0.2506510416666856,
          "durationTicks": 385,
          "midi": 64,
          "name": "E4",
          "ticks": 201592,
          "time": 131.24479166666666,
          "velocity": 0.3937007874015748
        },
        {
          "duration": 0.2506510416666572,
          "durationTicks": 385,
          "midi": 59,
          "name": "B3",
          "ticks": 201596,
          "time": 131.24739583333334,
          "velocity": 0.44881889763779526
        },
        {
          "duration": 0.125,
          "durationTicks": 192,
          "midi": 62,
          "name": "D4",
          "ticks": 201981,
          "time": 131.498046875,
          "velocity": 0.07874015748031496
        },
        {
          "duration": 0.125,
          "durationTicks": 192,
          "midi": 71,
          "name": "B4",
          "ticks": 201982,
          "time": 131.49869791666666,
          "velocity": 0.031496062992125984
        },
        {
          "duration": 0.125,
          "durationTicks": 192,
          "midi": 59,
          "name": "B3",
          "ticks": 201983,
          "time": 131.49934895833334,
          "velocity": 0.15748031496062992
        },
        {
          "duration": 0.125,
          "durationTicks": 192,
          "midi": 64,
          "name": "E4",
          "ticks": 201984,
          "time": 131.5,
          "velocity": 0.1889763779527559
        },
        {
          "duration": 0.25,
          "durationTicks": 384,
          "midi": 71,
          "name": "B4",
          "ticks": 202135,
          "time": 131.59830729166666,
          "velocity": 0.2677165354330709
        },
        {
          "duration": 0.25,
          "durationTicks": 384,
          "midi": 62,
          "name": "D4",
          "ticks": 202149,
          "time": 131.607421875,
          "velocity": 0.2440944881889764
        },
        {
          "duration": 0.25,
          "durationTicks": 384,
          "midi": 64,
          "name": "E4",
          "ticks": 202156,
          "time": 131.61197916666666,
          "velocity": 0.5748031496062992
        },
        {
          "duration": 0.25,
          "durationTicks": 384,
          "midi": 59,
          "name": "B3",
          "ticks": 202158,
          "time": 131.61328125,
          "velocity": 0.3937007874015748
        },
        {
          "duration": 0.125,
          "durationTicks": 192,
          "midi": 59,
          "name": "B3",
          "ticks": 202534,
          "time": 131.85807291666666,
          "velocity": 0.29133858267716534
        },
        {
          "duration": 0.1256510416666572,
          "durationTicks": 193,
          "midi": 64,
          "name": "E4",
          "ticks": 202538,
          "time": 131.86067708333334,
          "velocity": 0.23622047244094488
        },
        {
          "duration": 0.12565104166668561,
          "durationTicks": 193,
          "midi": 71,
          "name": "B4",
          "ticks": 202543,
          "time": 131.86393229166666,
          "velocity": 0.16535433070866143
        },
        {
          "duration": 0.125,
          "durationTicks": 192,
          "midi": 62,
          "name": "D4",
          "ticks": 202557,
          "time": 131.873046875,
          "velocity": 0.18110236220472442
        },
        {
          "duration": 0.375,
          "durationTicks": 576,
          "midi": 66,
          "name": "F#4",
          "ticks": 202727,
          "time": 131.98372395833334,
          "velocity": 0.36220472440944884
        },
        {
          "duration": 0.375,
          "durationTicks": 576,
          "midi": 71,
          "name": "B4",
          "ticks": 202730,
          "time": 131.98567708333334,
          "velocity": 0.2755905511811024
        },
        {
          "duration": 0.375,
          "durationTicks": 576,
          "midi": 61,
          "name": "C#4",
          "ticks": 202738,
          "time": 131.99088541666666,
          "velocity": 0.18110236220472442
        },
        {
          "duration": 0.375,
          "durationTicks": 576,
          "midi": 59,
          "name": "B3",
          "ticks": 202748,
          "time": 131.99739583333334,
          "velocity": 0.3464566929133858
        },
        {
          "duration": 0.375,
          "durationTicks": 576,
          "midi": 62,
          "name": "D4",
          "ticks": 202750,
          "time": 131.99869791666666,
          "velocity": 0.3700787401574803
        },
        {
          "duration": 0.375,
          "durationTicks": 576,
          "midi": 59,
          "name": "B3",
          "ticks": 203497,
          "time": 132.48502604166666,
          "velocity": 0.44881889763779526
        },
        {
          "duration": 0.375,
          "durationTicks": 576,
          "midi": 66,
          "name": "F#4",
          "ticks": 203499,
          "time": 132.486328125,
          "velocity": 0.4409448818897638
        },
        {
          "duration": 0.375,
          "durationTicks": 576,
          "midi": 62,
          "name": "D4",
          "ticks": 203500,
          "time": 132.48697916666666,
          "velocity": 0.47244094488188976
        },
        {
          "duration": 0.375,
          "durationTicks": 576,
          "midi": 71,
          "name": "B4",
          "ticks": 203508,
          "time": 132.4921875,
          "velocity": 0.2992125984251969
        },
        {
          "duration": 0.375,
          "durationTicks": 576,
          "midi": 61,
          "name": "C#4",
          "ticks": 203520,
          "time": 132.5,
          "velocity": 0.3228346456692913
        }
      ],
      "endOfTrackTicks": 204096
    }
  ]
}
